<svg xmlns="http://www.w3.org/2000/svg" width="16" height="16" viewBox="0 0 16 16">
    <path fill="#00AEF0" fill-rule="evenodd" stroke="#00AEF0" stroke-width=".5" d="M3.967 12.521c.468.469.933.937 1.403 1.402.034.034.1.052.154.052 1.601.002 3.202.003 4.804-.001.059 0 .132-.03.174-.071a1220.41 1220.41 0 0 0 3.397-3.398.274.274 0 0 0 .075-.173c.005-1.606.004-3.212.002-4.819 0-.044-.01-.101-.038-.13-.47-.478-.943-.951-1.411-1.422l-8.56 8.56m-.65-.643l8.559-8.559c-.459-.459-.924-.926-1.394-1.39a.237.237 0 0 0-.152-.054c-1.602-.004-3.204-.004-4.805 0a.272.272 0 0 0-.175.07 1125.134 1125.134 0 0 0-3.408 3.407.238.238 0 0 0-.066.147c-.004 1.617-.004 3.232-.001 4.848a.19.19 0 0 0 .046.127c.467.474.938.944 1.397 1.404m11.529-3.944c0 .864-.003 1.727.002 2.59a.603.603 0 0 1-.188.463 1307.879 1307.879 0 0 0-3.674 3.674.592.592 0 0 1-.45.188c-1.74-.004-3.481-.004-5.223 0a.596.596 0 0 1-.45-.187c-1.224-1.23-2.453-2.458-3.683-3.683a.572.572 0 0 1-.18-.437C1.004 8.8 1.004 7.059 1 5.317c0-.182.055-.321.184-.45a1315.4 1315.4 0 0 0 3.685-3.684A.577.577 0 0 1 5.304 1c1.746.003 3.492.003 5.238 0 .178 0 .313.057.436.182 1.23 1.233 2.462 2.464 3.696 3.694a.56.56 0 0 1 .175.424c-.004.878-.002 1.756-.002 2.634"/>
</svg>
