<svg id="Layer_1" data-name="Layer 1" width="26" height="26" xmlns="http://www.w3.org/2000/svg" viewBox="0 0 26 26">
  <defs>
    <style>.cls-1{fill:#d3b6aa;stroke:#968279;}.cls-2{fill:#fffdf6;}.cls-3{fill:#e4e4e0;}.cls-4{fill:#333a47;}.cls-5{fill:none;stroke:#b24832;stroke-miterlimit:10;stroke-width:0.25px;stroke-dasharray:0.5;}</style>
  </defs>
  <title>CDN</title>
  <circle class="cls-1" cx="13" cy="13" r="11.86" />
  <path class="cls-2" d="M13.2,6.26a5.87,5.87,0,0,0-5.7,4.5,2.06,2.06,0,0,0-.35,0,3.64,3.64,0,1,0,0,7.27h6.07V6.26Z" />
  <path class="cls-3" d="M18.57,9.27l-.23,0a5.87,5.87,0,0,0-5.12-3V18h5.35a4.37,4.37,0,0,0,0-8.74Z" />
  <polygon class="cls-4" points="8.74 14.79 8.2 14.79 8 14.97 7.54 14.94 7.59 14.56 7.16 14.32 6.82 14.21 6.82 13.75 7.12 13.56 7.63 13.67 7.95 13.29 8.02 12.86 8.69 12.48 8.54 12.12 9.3 12.29 9.08 11.65 8.58 11.11 8.43 11.27 8.15 10.95 7.81 10.87 8 11.5 7.68 11.7 6.93 11.24 7.21 10.74 7.68 10.43 7.61 10.14 7.01 10.19 6.7 10.35 5.88 10.38 5.13 10 4.61 10.16 4.27 9.97 3.46 9.84 3.03 10.16 3.33 10.6 3.03 11.08 3.57 11.4 3.98 11.11 4.77 11.4 5.42 12.19 5.27 12.89 6.37 14.4 6.96 14.59 7.32 14.8 7.32 15.07 7.66 15.21 7.77 15.21 7.77 15.43 7.61 16.02 8.24 16.85 7.97 18.99 8.06 19.47 8.47 19.74 8.36 19.07 8.72 18.42 9.37 17.77 9.37 17.39 9.98 17.1 9.98 16.48 10.25 16.23 10.25 15.94 9.39 15.67 8.74 14.79" />
  <polygon class="cls-4" points="5.59 9.87 5.9 10.24 6.59 10.05 6.34 9.63 6.04 9.72 5.72 9.5 5.37 9.5 5.21 9.77 5.37 9.93 5.59 9.87" />
  <polygon class="cls-4" points="6.59 9.62 6.72 9.87 6.92 10.09 7.1 10.03 7.04 9.84 7.15 9.55 6.59 9.62" />
  <polygon class="cls-4" points="8.39 9.98 7.89 9.6 7.29 9.59 7.18 9.86 7.29 10.05 7.81 10.02 8.15 10.33 7.86 10.65 8.15 10.72 8.55 10.97 8.55 10.72 8.43 10.49 8.71 10.42 8.39 9.98" />
  <polygon class="cls-4" points="5.96 9.5 6.46 9.39 6.26 9.24 5.97 9.24 5.75 9.07 5.42 9.29 5.76 9.35 5.96 9.5" />
  <polygon class="cls-4" points="6.11 9.14 6.22 8.86 5.84 9.02 6 9.14 6.11 9.14" />
  <polygon class="cls-4" points="6.46 9.24 6.64 9.43 7.68 9.5 7.86 9.14 8.08 8.81 8.78 8.4 7.94 8.26 7.07 8.48 6.81 8.7 7.27 9 6.46 9.24" />
  <polygon class="cls-4" points="6.69 9.07 6.61 8.88 6.37 8.86 6.46 9.05 6.69 9.07" />
  <polygon class="cls-4" points="7.03 9 6.78 8.86 6.82 9 7.03 9" />
  <polygon class="cls-4" points="11.52 8.52 10.9 8.34 9.52 8.34 8.45 8.71 8.44 8.88 8.13 9 8.29 9.29 8.83 9.29 9.26 9.87 9.28 10.79 9.73 11.13 9.99 10.58 10.88 10.03 11.14 9.41 10.94 8.93 11.52 8.52" />
  <path class="cls-4" d="M21.44,10.06h-.58l-.93-.35-.7.23-.15-.23-.84-.15L18,9.19l-1.47.4-.38.27L16,9.68l-.44.41-1.1.37L13.58,10l-.67.29-.5.69v.35h.33l0,.16-.38.29-.51.43.18.22-.06.2-.33,0L11.6,13l.22.1L12.1,13l.25-.45.31-.1.34.43.09-.08-.25-.39.1,0,.4.64.07-.09,0-.17.1,0,.09.08.1,0,0-.2.07-.21.66.18-.07.2-.52.07-.24.22.16.1.35-.07-.09.38-.17.1-.57-.18-.07.18-.52-.28V13l-1,.28-.44.76v.71l.54.56.6-.14.34.14v.43l.18.5-.08.59L13.18,18h.46l.45-.76v-.3l.26-.3-.1-.65.54-.6.15-.56-.48.14-.5-1,.08-.18.49,1,.84-.42-.21-.3h-.23l-.2-.4.1,0,.12.19.81.16.3.37.26.82.26-.62.5-.41.43.71v.31l.27.48.1-.08-.3-.45,0-.26.26.27.22-.35-.21-.35.21-.17.41-.11.33-.49-.15-.37.15-.33.24.33h.17l-.16-.32.41-.25.31-.49v-.5h-.24l.36-.38.56-.09L20.8,11h.28l-.46.52.08.47.3-.45v-.23l.25-.22.25,0,.38-.27,0-.2.3-.11.47.16.34-.31Zm-6.65,3,0-.3-.15-.27.34-.25.11.82Z" />
  <polygon class="cls-4" points="19.89 12.44 19.85 12.68 20.06 12.58 19.89 12.44" />
  <polygon class="cls-4" points="19.67 13.09 19.24 13.31 19.24 13.49 19.85 13.2 19.91 12.78 19.77 12.82 19.67 13.09" />
  <polygon class="cls-4" points="17.36 15.23 17.23 15.23 17.79 16.03 17.95 15.83 17.36 15.23" />
  <polygon class="cls-4" points="18.45 16.11 17.95 15.99 17.85 16.12 18.51 16.22 18.45 16.11" />
  <polygon class="cls-4" points="18.18 15.51 18.04 15.52 18.18 15.82 18.45 15.89 18.63 15.52 18.55 15.38 18.68 15.23 18.51 15.14 18.18 15.51" />
  <polygon class="cls-4" points="18.68 14.66 18.8 14.73 18.9 14.44 18.68 14.36 18.68 14.66" />
  <polygon class="cls-4" points="18.87 15.14 18.95 15.3 19.07 15.23 19.01 14.98 18.73 15.14 18.87 15.14" />
  <polygon class="cls-4" points="18.62 15.75 18.65 15.99 18.73 15.99 18.73 15.81 18.84 15.99 18.94 15.93 18.79 15.75 18.9 15.69 18.9 15.63 18.73 15.69 18.73 15.59 18.9 15.51 18.9 15.4 18.68 15.51 18.62 15.75" />
  <polygon class="cls-4" points="19.24 15.73 19.38 15.81 19.43 15.93 19.62 15.93 19.71 16.03 19.74 16.16 19.96 16.22 20.06 16.11 20.18 16.27 20.33 16.27 20.21 16.16 20.18 15.99 20 15.81 19.63 15.69 19.51 15.84 19.44 15.63 19.24 15.63 19.24 15.73" />
  <polygon class="cls-4" points="20.17 16.88 20.06 16.56 20 16.55 19.96 16.32 19.91 16.32 19.79 16.72 19.53 16.61 19.53 16.45 19.32 16.4 19.14 16.58 19.07 16.52 18.84 16.72 18.78 16.93 18.31 17.11 18.51 18.02 19.29 17.75 19.53 17.96 19.64 17.89 19.79 18.27 20.06 18.33 20.33 18.17 20.5 17.66 20.44 17.26 20.17 16.88" />
  <polygon class="cls-4" points="20.12 18.7 20.24 18.48 20.01 18.48 20.12 18.7" />
  <polygon class="cls-4" points="21.16 18.81 21.4 18.95 21.64 18.48 21.51 18.48 21.16 18.81" />
  <polygon class="cls-4" points="21.64 17.96 21.7 18.48 21.83 18.33 21.91 18.22 21.77 18.22 21.64 17.96" />
  <path class="cls-5" d="M8.78,16.81c.81-2.17,4.68-4.66,4.68-4.66a10.09,10.09,0,0,0-6.59,0" />
  <path class="cls-5" d="M19.41,10.7a8.94,8.94,0,0,0-5.95,1.45,5.67,5.67,0,0,1,0,5.18" />
  <path class="cls-5" d="M19.64,17.9s-1.41-6.08-6.18-5.75" />
</svg>