<?xml version="1.0" encoding="UTF-8"?>
<svg width="18px" height="18px" viewBox="0 0 18 18" version="1.1" xmlns="http://www.w3.org/2000/svg" xmlns:xlink="http://www.w3.org/1999/xlink">
    <!-- Generator: sketchtool 58 (101010) - https://sketch.com -->
    <title>99F3B28B-E969-460E-887A-CDE6B30A5D8C</title>
    <desc>Created with sketchtool.</desc>
    <g id="Page-1" stroke="none" stroke-width="1" fill="none" fill-rule="evenodd">
        <g id="In-App-Promo-&quot;Upgrade&quot;-(Insights)" transform="translate(-319.000000, -283.000000)" fill="#167AA4">
            <g id="Group-7" transform="translate(31.000000, 26.000000)">
                <path d="M297,257 C301.970563,257 306,261.029437 306,266 C306,270.970563 301.970563,275 297,275 C292.029437,275 288,270.970563 288,266 C288,261.029437 292.029437,257 297,257 Z M300.34456,262.528846 C298.942616,264.091702 297.550032,265.641971 296.157449,267.194338 C295.261993,266.492626 294.381098,265.802452 293.491883,265.104936 C293.178838,265.50981 292.877233,265.902097 292.567308,266.303825 C293.830929,267.293983 295.07791,268.272604 296.336332,269.259615 C298.048201,267.351673 299.750709,265.454219 301.461538,263.546276 C301.086092,263.204336 300.721046,262.871835 300.34456,262.528846 Z" id="Combined-Shape-Copy-3"></path>
            </g>
        </g>
    </g>
</svg>