<svg width="26" height="26" viewBox="0 0 26 26" xmlns="http://www.w3.org/2000/svg">
  <g transform="translate(1 1)" fill="none" fill-rule="evenodd">
    <ellipse stroke="#2093BF" fill="#43B7C5" cx="11.865" cy="11.865" rx="11.865" ry="11.865"/>
    <path d="M16.986 7.68H6.952c-.92 0-1.672.766-1.672 1.684v5.847c0 .92.753 1.668 1.672 1.668h.836v3.344l3.37-3.344h5.828c.92 0 1.673-.75 1.673-1.667V9.34c0-.928-.754-1.66-1.674-1.66" fill="#FFFDF6"/>
    <path fill="#2D2E2B" d="M7.2 13.94h5.017v-.5H7.2M7.2 12.98h9.198v-.5H7.2M7.2 11.54h9.198v-.5H7.2M7.2 10.1h9.198v-.5H7.2"/>
    <path d="M17.017 16.67H12v-2.72h.418v-.417H12v-.836h4.6v-.418H12v-.837h4.6v-.418H12v-.837h4.6V9.77H12V7.68h5.017c.92 0 1.672.732 1.672 1.66v5.662c0 .54-.262 1.024-.665 1.328-.036.028-.074.054-.112.078-.26.165-.567.26-.896.26" fill="#E4E4E0"/>
    <path fill="#282927" d="M12 13.44h.5v.5H12M12 12.48h4.6v.5H12M12 11.04h4.6v.5H12M12 9.6h4.6v.5H12"/>
    <path d="M5.28 9.573v-.21c0-.917.753-1.683 1.672-1.683h5.017v.21H6.95c-.92 0-1.672.765-1.672 1.683" fill="#E8E8E8"/>
    <path d="M18.69 9.55c0-.93-.754-1.66-1.673-1.66H12v-.21h5.017c.92 0 1.672.732 1.672 1.66v.21" fill="#C2C2C2"/>
  </g>
</svg>
