<svg id="Layer_1" data-name="Layer 1" width="26" height="26" xmlns="http://www.w3.org/2000/svg" viewBox="0 0 26 26">
  <defs>
    <style>.cls-1{fill:#ff868f;stroke:#b26859;}.cls-2{fill:#ebc894;}.cls-3{fill:#d6b687;}.cls-4{fill:#ededed;}.cls-5{fill:#c4c4c4;}.cls-6{fill:#fce1b4;}.cls-7{fill:#a8916a;}</style>
  </defs>
  <title>Email3</title>
  <circle class="cls-1" cx="13" cy="13" r="11.86" />
  <path class="cls-2" d="M20.39,10.74v0a2.4,2.4,0,0,0-1-1.88L13,4.33,6.64,8.84a2.4,2.4,0,0,0-1,1.88v0L7.89,10l-.1-.33H18.21l-.1.33Z" />
  <path class="cls-3" d="M20.09,10a1,1,0,0,0-.76-.33H6.67a1,1,0,0,0-.76.33L13,15Z" />
  <polygon class="cls-4" points="14.73 6.33 8.3 6.33 8.3 18.87 17.7 18.87 17.7 9.31 14.73 6.33" />
  <polygon class="cls-5" points="14.73 9.31 17.7 9.31 14.73 6.33 14.73 9.31" />
  <path class="cls-6" d="M20.39,10.74a1.07,1.07,0,0,0-.3-.73L13,15,5.91,10a1.07,1.07,0,0,0-.3.73v7.87a1.08,1.08,0,0,0,.23.63l4.58-5.91.35.27-4.6,5.93a1.07,1.07,0,0,0,.5.14H19.33a1.07,1.07,0,0,0,.5-.14l-4.6-5.93.35-.27,4.58,5.91a1.08,1.08,0,0,0,.23-.63Z" />
  <path class="cls-7" d="M20.16,19.24l-4.52-5.83,4.48-3.36,0,0L13,15,5.91,10l0,0,4.48,3.36L5.84,19.24a1.32,1.32,0,0,0,.33.29l4.54-5.86L13,15.39l2.29-1.72,4.54,5.86A1.32,1.32,0,0,0,20.16,19.24Z" />
</svg>
