<svg xmlns="http://www.w3.org/2000/svg" width="24" height="14" viewBox="0 0 24 14">
    <g fill="#00AEF0" fill-rule="nonzero">
        <path d="M12 14c5.753 0 10.414-4.783 11.712-6.27.384-.438.384-1.08 0-1.488C22.414 4.783 17.752 0 12 0 6.247 0 1.586 4.783.288 6.242c-.384.437-.384 1.079 0 1.487C1.586 9.217 6.248 14 12 14zm0-12.542c4.927 0 9.205 4.23 10.414 5.542-1.21 1.313-5.487 5.542-10.414 5.542S2.795 8.312 1.586 7C2.796 5.687 7.073 1.458 12 1.458z"/>
        <path d="M12 12c2.744 0 5-2.256 5-5s-2.256-5-5-5-5 2.256-5 5 2.256 5 5 5zm0-8.476A3.474 3.474 0 0 1 15.476 7 3.474 3.474 0 0 1 12 10.476 3.474 3.474 0 0 1 8.524 7 3.474 3.474 0 0 1 12 3.524z"/>
    </g>
</svg>
