<svg width="20" height="16" viewBox="0 0 20 16" xmlns="http://www.w3.org/2000/svg">
  <g fill="#9B9B9B" fill-rule="evenodd">
    <path d="M12.135 12.65c0-.067-.024-.135-.072-.203-.385-.455-.695-.845-.93-1.17.146-.28.256-.537.33-.775l1.6-.244c.062-.007.117-.043.165-.107s.072-.13.072-.198V8.068c0-.074-.024-.14-.072-.198-.048-.058-.107-.094-.175-.107l-1.568-.234c-.076-.232-.193-.51-.35-.837.102-.15.257-.353.463-.61.207-.26.35-.442.434-.55.048-.068.072-.133.072-.194 0-.184-.495-.728-1.485-1.63-.07-.055-.142-.082-.218-.082-.082 0-.15.024-.206.07l-1.217.908c-.283-.143-.54-.248-.775-.316l-.237-1.558c-.006-.068-.04-.128-.103-.178-.062-.05-.13-.077-.206-.077H5.74c-.157 0-.26.082-.31.245-.08.312-.16.835-.236 1.568-.295.095-.56.204-.794.326L3.214 3.7c-.07-.048-.14-.072-.216-.072-.13 0-.403.2-.815.6-.413.402-.695.704-.846.907-.048.055-.072.123-.072.204 0 .06.024.128.072.203.385.455.694.845.928 1.17-.144.28-.254.537-.33.775l-1.598.244c-.062.007-.117.042-.165.107-.048.064-.073.13-.073.197v1.884c0 .076.024.143.072.2.048.058.106.09.175.097l1.568.244c.082.26.203.538.36.836-.11.15-.27.357-.484.622-.212.264-.353.445-.422.54-.048.067-.072.132-.072.193 0 .184.495.727 1.485 1.63.07.055.142.082.218.082.09 0 .158-.024.206-.072l1.217-.906c.283.143.54.248.774.316l.237 1.558c.008.068.043.127.104.178.062.05.13.076.207.076h1.92c.157 0 .26-.08.308-.244.083-.32.162-.845.237-1.579.275-.082.54-.187.794-.316l1.186.916c.068.048.14.072.216.072.13 0 .4-.202.81-.606.41-.404.692-.708.85-.912.05-.047.073-.112.073-.193zm-3.57-1.812c-.514.51-1.136.764-1.865.764-.73 0-1.35-.255-1.867-.764-.515-.51-.773-1.123-.773-1.843s.258-1.334.773-1.843c.516-.51 1.138-.764 1.867-.764.73 0 1.35.254 1.866.764s.774 1.123.774 1.843-.258 1.334-.774 1.843zM18.364 2.752c-.09-.197-.193-.373-.31-.53.35-.767.526-1.235.526-1.405 0-.027-.013-.05-.04-.07-.826-.476-1.252-.714-1.28-.714l-.062.02c-.28.28-.598.66-.948 1.14-.138-.013-.24-.02-.31-.02-.068 0-.17.007-.31.02-.095-.142-.274-.37-.535-.687-.26-.315-.42-.473-.474-.473-.013 0-.116.054-.31.163-.19.11-.394.224-.607.346l-.36.204c-.03.02-.043.044-.043.07 0 .17.176.64.526 1.407-.117.156-.22.332-.31.53-1.024.1-1.536.206-1.536.315v1.425c0 .11.512.214 1.537.316.082.182.186.36.31.53-.35.766-.527 1.234-.527 1.404 0 .027.014.05.042.07.838.483 1.265.724 1.28.724.054 0 .212-.16.473-.478.26-.32.44-.55.536-.693.138.014.242.02.31.02.07 0 .172-.006.31-.02.096.143.275.374.536.693.26.32.42.478.474.478.014 0 .44-.24 1.28-.723.027-.02.04-.044.04-.07 0-.17-.175-.64-.525-1.406.123-.17.226-.348.31-.53 1.023-.103 1.536-.208 1.536-.316V3.067c0-.11-.512-.214-1.536-.316zm-1.49 1.95c-.258.255-.57.382-.934.382-.364 0-.675-.127-.933-.382-.258-.254-.387-.56-.387-.92 0-.354.13-.66.392-.918.26-.258.57-.387.928-.387.358 0 .667.13.93.387.26.258.39.564.39.917 0 .36-.128.668-.386.922z"/>
  </g>
</svg>
