<svg xmlns="http://www.w3.org/2000/svg" width="27" height="28" viewBox="0 0 27 28">
    <defs>
        <linearGradient id="a" x1="0%" y1="0%" y2="100%">
            <stop offset="0%" stop-color="#DEC852"/>
            <stop offset="100%" stop-color="#BA9829"/>
        </linearGradient>
    </defs>
    <g fill="none" fill-rule="evenodd">
        <g fill="url(#a)" fill-rule="nonzero">
            <path d="M13.5 4.748C8.362 4.748 4.18 8.898 4.18 14c0 5.1 4.182 9.249 9.318 9.249 5.14 0 9.318-4.15 9.318-9.249 0-5.103-4.179-9.252-9.318-9.252z"/>
            <path d="M26.681 9.746c-.432-1.325-2.19-1.99-2.997-3.092-.816-1.114-.918-2.975-2.037-3.788-1.11-.802-2.922-.325-4.257-.754-1.287-.417-2.463-1.87-3.89-1.87-1.426 0-2.605 1.453-3.889 1.87-1.335.429-3.147-.048-4.257.754-1.122.812-1.22 2.674-2.037 3.788C2.51 7.757.75 8.421.317 9.746-.1 11.024.914 12.582.914 14c0 1.415-1.014 2.973-.597 4.25.432 1.326 2.193 1.99 3 3.096.816 1.11.915 2.976 2.037 3.786 1.11.801 2.922.324 4.257.756 1.284.414 2.463 1.871 3.888 1.871 1.428 0 2.604-1.457 3.891-1.87 1.335-.433 3.147.044 4.257-.757 1.12-.81 1.221-2.675 2.037-3.79.807-1.101 2.565-1.766 2.997-3.091.42-1.278-.597-2.836-.597-4.251 0-1.418 1.017-2.976.597-4.254zM13.5 23.88c-5.496 0-9.954-4.423-9.954-9.88 0-5.46 4.458-9.883 9.954-9.883 5.5 0 9.954 4.423 9.954 9.883 0 5.457-4.455 9.88-9.954 9.88z"/>
        </g>
        <path fill="#FFF" d="M8.701 11.92c-.365-.04-.57-.212-.677-.424-.054-.11-.033-.17.107-.18.893-.092 1.7-.515 2.43-.545.55-.02 1.022.14 1.28.836.226.605.044 1.19-.322 1.724-.538.786-1.7 1.542-3.108 1.793-.248.04-.484 0-.667-.1-.301.554-.624 1.22-1 2.056-.043.1-.097.1-.172.03-.15-.151-.258-.454-.097-.998.28-.917 1.29-2.812 2.226-4.192zm4.507 4.269c.021-.155.062-.315.118-.47.236-.665.785-1.653 1.484-2.57.086-.11.193-.1.28-.01.236.333.182.786-.205 1.36-.398.595-.613.998-.839 1.482-.226.494-.193.857.054.877.42.03 1.01-.675 1.592-1.552.677-1.028.99-1.723 1.333-2.157.108-.14.183-.161.27-.06.16.181.246.625-.012 1.128-.236.454-.774 1.21-1.021 1.724-.28.574-.237.998.15.977.34-.015.735-.396 1.089-.884-.065-.378.025-.777.288-.98.129-.1.215-.06.226.1.01.081.01.162.021.243.441-.565.925-1.22 1.237-1.734.054-.393.161-.584.387-.776.237-.201.484-.242.58-.151.108.1.055.212-.085.443-.043.06-.075.121-.118.192-.076.927.129 1.713.096 2.409-.021.393-.096.816-.484 1.058.72-.252 1.173-.857 1.441-1.401.054-.11.162-.08.205 0 .043.09.032.353-.15.665-.41.695-1.14 1.078-1.904 1.109-.606.02-1.192-.123-1.56-.704-.351.408-.868.724-1.366.724-.699 0-.978-.413-.892-.998-.377.474-.947.988-1.549.947-.356-.023-.55-.198-.633-.445-.324.247-.74.456-1.174.445-.742-.02-1.14-.504-.892-1.592.398-1.753 1.624-3.578 2.72-4.646.162-.161.313-.181.463-.05.312.262.377.635.247 1.108-.333 1.24-1.537 2.45-2.495 3.034-.43.987-.548 1.824-.064 1.864.34.027.78-.278 1.162-.71zm-5.152-1.73c.323-.564.624-1.028.903-1.491.301-.484.409-.837.409-1.109.71-.191 1.785-.715 2.011-.161.29.705-.914 2.338-3.323 2.761zm4.248.141c1.473-1.118 2.076-2.73 1.936-2.811-.14-.08-.936 1.038-1.678 2.328a5.283 5.283 0 0 0-.258.483zm6.947-.292c-.311.534-.71 1.089-1.118 1.633.161.584.473.998.828.897.495-.141.333-1.724.29-2.53z"/>
    </g>
</svg>
