<svg xmlns="http://www.w3.org/2000/svg" width="34" height="35" viewBox="0 0 34 35">
    <defs>
        <linearGradient id="a" x1="0%" x2="79.066%" y1="0%" y2="100%">
            <stop offset="0%" stop-color="#ECD868"/>
            <stop offset="100%" stop-color="#D4AF37"/>
        </linearGradient>
    </defs>
    <g fill="none" fill-rule="evenodd">
        <g fill="url(#a)" fill-rule="nonzero">
            <path d="M17 5.935c-6.468 0-11.735 5.187-11.735 11.565 0 6.374 5.267 11.561 11.734 11.561 6.472 0 11.734-5.187 11.734-11.561 0-6.378-5.262-11.565-11.734-11.565z"/>
            <path d="M33.599 12.183c-.544-1.657-2.758-2.487-3.774-3.865-1.028-1.392-1.157-3.72-2.565-4.736-1.398-1.002-3.68-.406-5.361-.942-1.62-.521-3.102-2.338-4.9-2.338-1.794 0-3.279 1.817-4.896 2.338-1.68.536-3.963-.06-5.36.942C5.33 4.598 5.205 6.925 4.177 8.318 3.161 9.696.944 10.526.4 12.183c-.525 1.597.751 3.545.751 5.317 0 1.769-1.276 3.716-.751 5.314.544 1.656 2.761 2.487 3.777 3.868 1.028 1.39 1.153 3.72 2.566 4.733 1.397 1.001 3.68.406 5.36.945C13.72 32.878 15.205 34.7 17 34.7c1.798 0 3.28-1.821 4.9-2.339 1.681-.54 3.963.056 5.36-.945 1.41-1.013 1.538-3.344 2.566-4.736 1.016-1.378 3.23-2.209 3.774-3.865.528-1.598-.752-3.545-.752-5.314 0-1.772 1.28-3.72.752-5.317zm-16.6 17.668c-6.92 0-12.534-5.53-12.534-12.351 0-6.825 5.613-12.354 12.534-12.354 6.925 0 12.535 5.529 12.535 12.354 0 6.821-5.61 12.35-12.535 12.35z"/>
        </g>
        <path fill="#FFF" d="M10.957 14.9c-.46-.05-.718-.265-.853-.53-.068-.138-.04-.214.135-.226 1.124-.114 2.14-.643 3.061-.68.69-.026 1.287.176 1.612 1.045.284.756.054 1.487-.407 2.154-.677.983-2.14 1.928-3.914 2.243-.311.05-.609 0-.84-.126-.378.692-.785 1.524-1.259 2.57-.054.125-.122.125-.216.037-.19-.189-.325-.567-.122-1.247.352-1.146 1.625-3.515 2.803-5.24zm5.676 5.336c.026-.193.078-.393.147-.587.298-.832.99-2.066 1.87-3.212.108-.139.243-.126.351-.013.298.416.23.983-.257 1.7a12.613 12.613 0 0 0-1.056 1.852c-.285.618-.244 1.071.068 1.096.528.038 1.273-.844 2.004-1.94.853-1.285 1.246-2.154 1.68-2.695.135-.177.23-.202.338-.076.203.227.311.781-.014 1.41-.298.568-.975 1.513-1.286 2.155-.352.718-.298 1.247.19 1.222.428-.019.925-.495 1.37-1.106-.082-.471.032-.971.363-1.225.162-.126.27-.075.284.126.014.101.014.202.027.303.555-.706 1.165-1.525 1.558-2.167.067-.491.203-.73.487-.97.298-.252.61-.302.731-.189.136.126.068.265-.108.554-.054.076-.095.151-.149.24-.095 1.159.163 2.141.122 3.01-.027.492-.122 1.02-.61 1.323.908-.315 1.477-1.07 1.815-1.75.068-.14.203-.102.258 0 .054.113.04.44-.19.83-.515.87-1.435 1.348-2.397 1.386-.763.025-1.501-.153-1.965-.88-.441.51-1.092.905-1.719.905-.88 0-1.232-.516-1.124-1.247-.474.592-1.191 1.235-1.95 1.184-.448-.029-.693-.247-.797-.556-.408.309-.931.57-1.478.556-.935-.025-1.436-.63-1.124-1.99.501-2.192 2.045-4.472 3.426-5.807.203-.202.393-.227.583-.063.392.327.474.793.311 1.385-.42 1.55-1.937 3.062-3.142 3.792-.542 1.235-.69 2.28-.081 2.33.427.034.983-.346 1.464-.886zm-6.489-2.162c.407-.705.786-1.285 1.138-1.864.38-.605.515-1.046.515-1.386.894-.24 2.248-.894 2.532-.201.366.881-1.15 2.922-4.185 3.451zm5.35.177c1.855-1.399 2.614-3.414 2.438-3.515-.176-.1-1.179 1.297-2.113 2.91-.122.201-.23.403-.325.605zm8.749-.366c-.393.668-.894 1.36-1.409 2.041.203.73.596 1.247 1.043 1.121.623-.176.42-2.154.366-3.162z"/>
    </g>
</svg>
