<?xml version="1.0" encoding="utf-8"?>
<svg width="27" height="28" viewBox="0 0 27 28" xmlns="http://www.w3.org/2000/svg">
  <defs>
    <linearGradient id="a" x1="0" y1="0" y2="1" x2="1">
      <stop offset="0" stop-color="#DEC852"/>
      <stop offset="1" stop-color="#BA9829"/>
    </linearGradient>
  </defs>
  <g fill="none" fill-rule="evenodd">
    <g fill="url(#a)" fill-rule="nonzero">
      <path d="M13.5 4.748C8.362 4.748 4.18 8.898 4.18 14c0 5.1 4.182 9.249 9.318 9.249 5.14 0 9.318-4.15 9.318-9.249 0-5.103-4.179-9.252-9.318-9.252z"/>
      <path d="M26.681 9.746c-.432-1.325-2.19-1.99-2.997-3.092-.816-1.114-.918-2.975-2.037-3.788-1.11-.802-2.922-.325-4.257-.754-1.287-.417-2.463-1.87-3.89-1.87-1.426 0-2.605 1.453-3.889 1.87-1.335.429-3.147-.048-4.257.754-1.122.812-1.22 2.674-2.037 3.788C2.51 7.757.75 8.421.317 9.746-.1 11.024.914 12.582.914 14c0 1.415-1.014 2.973-.597 4.25.432 1.326 2.193 1.99 3 3.096.816 1.11.915 2.976 2.037 3.786 1.11.801 2.922.324 4.257.756 1.284.414 2.463 1.871 3.888 1.871 1.428 0 2.604-1.457 3.891-1.87 1.335-.433 3.147.044 4.257-.757 1.12-.81 1.221-2.675 2.037-3.79.807-1.101 2.565-1.766 2.997-3.091.42-1.278-.597-2.836-.597-4.251 0-1.418 1.017-2.976.597-4.254zM13.5 23.88c-5.496 0-9.954-4.423-9.954-9.88 0-5.46 4.458-9.883 9.954-9.883 5.5 0 9.954 4.423 9.954 9.883 0 5.457-4.455 9.88-9.954 9.88z"/>
    </g>
    <path fill="#FFF" d="M 8.177 11.443 C 7.812 11.403 7.607 11.231 7.5 11.019 C 7.446 10.909 7.467 10.849 7.607 10.839 C 8.5 10.747 9.307 10.324 10.037 10.294 C 10.587 10.274 11.059 10.434 11.317 11.13 C 11.543 11.735 11.361 12.32 10.995 12.854 C 10.457 13.64 9.295 14.396 7.887 14.647 C 7.639 14.687 7.403 14.647 7.22 14.547 C 6.919 15.101 6.596 15.767 6.22 16.603 C 6.177 16.703 6.123 16.703 6.048 16.633 C 5.898 16.482 5.79 16.179 5.951 15.635 C 6.231 14.718 7.241 12.823 8.177 11.443 Z M 12.684 15.712 C 12.705 15.557 12.746 15.397 12.802 15.242 C 13.038 14.577 13.587 13.589 14.286 12.672 C 14.372 12.562 14.479 12.572 14.566 12.662 C 14.802 12.995 14.748 13.448 14.361 14.022 C 13.963 14.617 13.748 15.02 13.522 15.504 C 13.296 15.998 13.329 16.361 13.576 16.381 C 13.996 16.411 14.586 15.706 15.168 14.829 C 15.845 13.801 16.158 13.106 16.501 12.672 C 16.609 12.532 16.684 12.511 16.771 12.612 C 16.931 12.793 17.017 13.237 16.759 13.74 C 16.523 14.194 15.985 14.95 15.738 15.464 C 15.458 16.038 15.501 16.462 15.888 16.441 C 16.228 16.426 16.623 16.045 16.977 15.557 C 16.912 15.179 17.002 14.78 17.265 14.577 C 17.394 14.477 17.48 14.517 17.491 14.677 C 17.501 14.758 17.501 14.839 17.512 14.92 C 17.953 14.355 18.437 13.7 18.749 13.186 C 18.803 12.793 18.91 12.602 19.136 12.41 C 19.373 12.209 19.62 12.168 19.716 12.259 C 19.824 12.359 19.771 12.471 19.631 12.702 C 19.588 12.762 19.556 12.823 19.513 12.894 C 19.437 13.821 19.642 14.607 19.609 15.303 C 19.588 15.696 19.513 16.119 19.125 16.361 C 19.845 16.109 20.298 15.504 20.566 14.96 C 20.62 14.85 20.728 14.88 20.771 14.96 C 20.814 15.05 20.803 15.313 20.621 15.625 C 20.211 16.32 19.481 16.703 18.717 16.734 C 18.111 16.754 17.525 16.611 17.157 16.03 C 16.806 16.438 16.289 16.754 15.791 16.754 C 15.092 16.754 14.813 16.341 14.899 15.756 C 14.522 16.23 13.952 16.744 13.35 16.703 C 12.994 16.68 12.8 16.505 12.717 16.258 C 12.393 16.505 11.977 16.714 11.543 16.703 C 10.801 16.683 10.403 16.199 10.651 15.111 C 11.049 13.358 12.275 11.533 13.371 10.465 C 13.533 10.304 13.684 10.284 13.834 10.415 C 14.146 10.677 14.211 11.05 14.081 11.523 C 13.748 12.763 12.544 13.973 11.586 14.557 C 11.156 15.544 11.038 16.381 11.522 16.421 C 11.862 16.448 12.302 16.143 12.684 15.711 Z M 7.532 13.982 C 7.855 13.418 8.156 12.954 8.435 12.491 C 8.736 12.007 8.844 11.654 8.844 11.382 C 9.554 11.191 10.629 10.667 10.855 11.221 C 11.145 11.926 9.941 13.559 7.532 13.982 Z M 11.78 14.123 C 13.253 13.005 13.856 11.393 13.716 11.312 C 13.576 11.232 12.78 12.35 12.038 13.64 C 11.944 13.796 11.857 13.958 11.78 14.123 Z M 18.727 13.831 C 18.416 14.365 18.017 14.92 17.609 15.464 C 17.77 16.048 18.082 16.462 18.437 16.361 C 18.932 16.22 18.77 14.637 18.727 13.831 Z"/>
  </g>
</svg>