<svg xmlns="http://www.w3.org/2000/svg" width="36" height="32" viewBox="0 0 36 32">
    <defs>
        <linearGradient id="a" x1="90.881%" x2="0%" y1="0%" y2="100%">
            <stop offset="0%" stop-color="#9ECC42"/>
            <stop offset="100%" stop-color="#429321"/>
        </linearGradient>
    </defs>
    <g fill="none" fill-rule="evenodd">
        <path fill="url(#a)" fill-rule="nonzero" stroke="#FFF" d="M33.09 30.918l-15.623-7.16a.973.973 0 0 0-.86 0l-15.5 7.16c-.369.201-1.107 0-1.107-.267V.335C0 .134.246 0 .615 0h32.72c.37 0 .616.134.616.335V30.65c.246.267-.492.468-.861.267z" transform="translate(1)"/>
        <path fill="#FFF" d="M10.966 9.67c-.49-.057-.763-.302-.907-.604-.072-.159-.043-.245.144-.26 1.195-.13 2.275-.734 3.255-.777.734-.029 1.368.201 1.713 1.195.303.864.058 1.7-.432 2.462-.72 1.124-2.275 2.204-4.161 2.564-.332.057-.648 0-.893-.144a45.597 45.597 0 0 0-1.34 2.937c-.057.144-.129.144-.23.043-.201-.216-.345-.648-.13-1.425.375-1.31 1.729-4.018 2.981-5.99zm12.023 6.554c-.469.584-1.161 1.035-1.827 1.035-.936 0-1.31-.59-1.196-1.425-.504.676-1.267 1.41-2.073 1.353-.477-.033-.738-.283-.848-.636-.434.353-.99.65-1.571.636-.994-.029-1.527-.72-1.196-2.275.533-2.506 2.175-5.112 3.644-6.638.216-.23.417-.26.619-.072.417.374.504.907.331 1.584-.446 1.77-2.06 3.499-3.34 4.334-.577 1.411-.735 2.606-.087 2.664.454.038 1.045-.397 1.556-1.014a3.57 3.57 0 0 1 .157-.67c.317-.951 1.052-2.362 1.988-3.673.115-.158.259-.144.374-.014.317.475.245 1.123-.274 1.944-.532.85-.82 1.425-1.123 2.117-.302.705-.259 1.224.072 1.252.562.044 1.354-.964 2.131-2.217.908-1.469 1.325-2.463 1.786-3.082.144-.201.245-.23.36-.086.216.259.331.893-.014 1.613-.317.648-1.037 1.728-1.368 2.462-.375.82-.317 1.426.201 1.397.456-.022.985-.566 1.458-1.264-.088-.54.034-1.11.385-1.4.173-.144.288-.087.303.144.014.115.014.23.029.345.59-.806 1.238-1.742 1.656-2.476.072-.562.216-.836.518-1.11.317-.287.648-.345.778-.215.144.144.072.302-.116.633-.057.087-.1.173-.158.274-.1 1.325.173 2.448.13 3.442-.03.561-.13 1.166-.648 1.512.964-.36 1.57-1.224 1.93-2.002.071-.158.215-.115.273 0 .057.13.043.504-.202.95a3.034 3.034 0 0 1-2.549 1.584c-.811.028-1.596-.175-2.089-1.006zM10.102 13.3c.432-.806.836-1.469 1.21-2.131.403-.691.547-1.195.547-1.584.95-.274 2.39-1.022 2.693-.23.389 1.008-1.224 3.34-4.45 3.945zm5.688.202c1.973-1.599 2.78-3.903 2.592-4.018-.187-.115-1.252 1.483-2.246 3.327-.13.23-.245.46-.346.69zm9.303-.418c-.418.763-.95 1.555-1.498 2.333.216.835.634 1.426 1.109 1.282.662-.202.446-2.463.389-3.615z"/>
    </g>
</svg>
