<?xml version="1.0" encoding="utf-8"?>
<svg width="103" height="20" viewBox="0 0 103 20" xmlns="http://www.w3.org/2000/svg">
  <defs>
    <linearGradient id="a" x1="0.9088099670410156" x2="0" y1="0" y2="1">
      <stop offset="0" stop-color="#9ECC42"/>
      <stop offset="1" stop-color="#429321"/>
    </linearGradient>
  </defs>
  <g fill="none" fill-rule="evenodd">
    <path fill="url(#a)" d="M101.815 0L94.2 9l8.63 10.2H0V0h101.815z"/>
    <path fill="#FFF" d="M 68.014 6.66 C 67.484 6.597 67.187 6.332 67.031 6.004 C 66.953 5.833 66.984 5.739 67.187 5.724 C 68.482 5.584 69.652 4.928 70.712 4.881 C 71.508 4.85 72.194 5.1 72.569 6.176 C 72.896 7.112 72.631 8.016 72.101 8.844 C 71.321 10.06 69.636 11.23 67.592 11.62 C 67.234 11.683 66.89 11.62 66.625 11.464 C 66.188 12.322 65.72 13.352 65.175 14.647 C 65.112 14.803 65.034 14.803 64.925 14.694 C 64.706 14.46 64.55 13.992 64.785 13.149 C 65.19 11.729 66.656 8.797 68.014 6.659 L 68.014 6.66 Z M 74.551 13.267 C 74.581 13.029 74.641 12.781 74.721 12.541 C 75.065 11.511 75.861 9.982 76.874 8.563 C 76.999 8.391 77.155 8.407 77.28 8.547 C 77.623 9.062 77.545 9.764 76.984 10.653 C 76.517 11.383 76.11 12.15 75.767 12.946 C 75.439 13.711 75.486 14.272 75.845 14.304 C 76.453 14.35 77.311 13.258 78.154 11.901 C 79.136 10.31 79.589 9.234 80.088 8.563 C 80.244 8.344 80.353 8.313 80.478 8.469 C 80.712 8.75 80.837 9.436 80.462 10.216 C 80.119 10.918 79.339 12.088 78.98 12.884 C 78.575 13.774 78.637 14.428 79.199 14.397 C 79.692 14.374 80.265 13.784 80.778 13.028 C 80.683 12.444 80.815 11.825 81.196 11.511 C 81.383 11.355 81.508 11.418 81.523 11.667 C 81.539 11.792 81.539 11.917 81.554 12.042 C 82.194 11.168 82.896 10.154 83.348 9.358 C 83.426 8.75 83.582 8.454 83.91 8.158 C 84.253 7.845 84.612 7.783 84.752 7.923 C 84.908 8.079 84.83 8.251 84.628 8.61 C 84.565 8.703 84.518 8.797 84.456 8.906 C 84.346 10.341 84.643 11.558 84.596 12.634 C 84.566 13.243 84.456 13.898 83.894 14.272 C 84.94 13.882 85.594 12.946 85.984 12.104 C 86.063 11.932 86.219 11.979 86.281 12.104 C 86.344 12.244 86.328 12.65 86.063 13.134 C 85.51 14.153 84.461 14.805 83.302 14.85 C 82.422 14.88 81.572 14.66 81.039 13.76 C 80.53 14.392 79.779 14.88 79.059 14.88 C 78.044 14.88 77.639 14.241 77.764 13.336 C 77.218 14.07 76.391 14.866 75.517 14.803 C 75.001 14.766 74.718 14.496 74.599 14.113 C 74.129 14.496 73.526 14.819 72.896 14.803 C 71.82 14.772 71.243 14.023 71.602 12.338 C 72.179 9.624 73.957 6.8 75.548 5.146 C 75.782 4.896 76.001 4.866 76.219 5.068 C 76.672 5.474 76.765 6.051 76.578 6.784 C 76.094 8.704 74.348 10.575 72.958 11.48 C 72.335 13.009 72.163 14.304 72.865 14.366 C 73.357 14.407 73.997 13.936 74.551 13.267 L 74.551 13.267 Z M 67.078 10.591 C 67.546 9.717 67.982 9 68.388 8.282 C 68.825 7.533 68.981 6.987 68.981 6.566 C 70.011 6.27 71.571 5.458 71.898 6.316 C 72.319 7.408 70.572 9.936 67.078 10.591 L 67.078 10.591 Z M 73.24 10.809 C 75.377 9.078 76.25 6.582 76.048 6.457 C 75.845 6.332 74.69 8.064 73.614 10.06 C 73.474 10.31 73.349 10.56 73.24 10.81 L 73.24 10.809 Z M 83.317 10.357 C 82.865 11.184 82.287 12.042 81.695 12.884 C 81.929 13.789 82.381 14.428 82.896 14.272 C 83.614 14.054 83.38 11.605 83.317 10.357 Z"/>
  </g>
</svg>