<svg xmlns="http://www.w3.org/2000/svg" width="14" height="14" viewBox="0 0 14 14">
    <g fill="none" fill-rule="evenodd">
        <path d="M10.101 1.922l3.183 3.473-.206 4.706-3.473 3.183-4.706-.206-3.183-3.473.206-4.706 3.473-3.183z"/>
        <path fill="#FFF" stroke="#FFF" d="M3.527 11.132c.416.417.83.833 1.247 1.246.03.03.09.046.137.046 1.424.003 2.847.003 4.272 0a.245.245 0 0 0 .154-.064c1.009-1.004 2.015-2.011 3.02-3.02a.244.244 0 0 0 .067-.154c.004-1.428.003-2.856.002-4.285 0-.039-.01-.09-.034-.116-.418-.424-.839-.845-1.255-1.263l-7.61 7.61m-.577-.572l7.608-7.609c-.408-.408-.821-.824-1.24-1.237a.21.21 0 0 0-.134-.047 937.737 937.737 0 0 0-4.272 0 .241.241 0 0 0-.156.062 1000.334 1000.334 0 0 0-3.03 3.029.211.211 0 0 0-.059.131 1227.38 1227.38 0 0 0 0 4.31.17.17 0 0 0 .04.113c.416.421.835.84 1.243 1.248M13.2 7.053c0 .769-.003 1.536.002 2.304a.536.536 0 0 1-.168.412c-1.091 1.086-2.18 2.175-3.266 3.265a.527.527 0 0 1-.4.168 997.623 997.623 0 0 0-4.644 0 .53.53 0 0 1-.4-.166C3.237 11.942 2.145 10.85 1.05 9.76a.508.508 0 0 1-.16-.389C.892 7.824.892 6.276.889 4.727c0-.162.049-.286.163-.4 1.095-1.09 2.187-2.181 3.276-3.275.11-.11.23-.163.387-.163 1.553.003 3.105.003 4.658 0 .158 0 .278.05.388.161 1.093 1.097 2.188 2.191 3.285 3.285a.498.498 0 0 1 .156.377c-.004.78-.002 1.56-.002 2.341"/>
    </g>
</svg>
