<svg width="21" height="21" viewBox="0 0 21 21" xmlns="http://www.w3.org/2000/svg">
  <g stroke="#4A4A4A" stroke-width=".5" fill="#4A4A4A" fill-rule="evenodd">
    <path d="M19.272 17.852c0 .45-.003.902.002 1.354.001.14-.04.21-.194.209-.909-.003-1.818-.003-2.727 0-.15 0-.2-.06-.2-.205.004-.895.005-1.791 0-2.686 0-.16.061-.212.215-.211.896.005 1.791.005 2.687 0 .17-.002.222.062.22.226-.008.438-.003.876-.003 1.313m-3.844.023l.001 1.394c.001.507.341.879.85.886.957.013 1.914.013 2.87 0 .511-.007.85-.377.85-.886v-2.81c0-.508-.343-.88-.85-.885-.957-.013-1.914-.013-2.87 0-.507.006-.849.379-.85.886-.002.472 0 .943 0 1.415M16.155 3.3c0-.432.008-.863-.003-1.294-.005-.189.049-.262.249-.26.876.01 1.751.008 2.626.001.18-.002.251.047.249.24-.009.875-.007 1.75-.001 2.625.001.171-.046.241-.228.24a169.23 169.23 0 0 0-2.666 0c-.182.001-.232-.07-.228-.24.008-.438.002-.876.002-1.313m-.727.015v1.374c.002.523.336.894.856.901.957.014 1.913.015 2.87 0 .512-.009.844-.379.845-.89v-2.79c-.001-.532-.345-.897-.875-.902-.943-.009-1.886-.01-2.829 0-.521.007-.865.375-.866.893-.002.471-.001.942-.001 1.414M17.714 12.131h-1.292c-.258 0-.267-.009-.267-.256 0-.862.004-1.724-.003-2.586-.002-.188.048-.262.25-.26.874.008 1.75.007 2.625 0 .18 0 .25.047.25.24-.01.875-.01 1.75 0 2.626 0 .192-.07.243-.25.24-.437-.01-.875-.004-1.313-.004M20 10.582c0-.465.002-.93 0-1.395-.002-.522-.34-.89-.86-.896-.95-.012-1.9-.012-2.85 0-.519.006-.86.376-.86.896a864.9 864.9 0 0 0 0 2.79c0 .52.341.89.86.896.95.011 1.9.011 2.85 0 .52-.007.858-.375.86-.897v-1.394M7.579 3.663h5.946c.246 0 .396-.094.439-.273a.365.365 0 0 0-.338-.453c-.033-.002-.067-.001-.101-.001-3.977 0-7.955 0-11.933-.002-.205 0-.362.056-.432.256-.08.223.088.459.33.47.169.009.338.003.506.003h5.583zM7.56 10.219H1.632c-.06 0-.122-.004-.182.003a.359.359 0 0 0-.305.349.36.36 0 0 0 .304.371c.046.006.094.004.141.004h11.933c.041 0 .081.002.121-.002a.359.359 0 0 0 .325-.371.355.355 0 0 0-.323-.352c-.06-.006-.12-.002-.182-.002H7.56zM7.558 17.501H1.571c-.27 0-.43.142-.425.374.005.184.14.332.325.351.04.004.08.002.121.002h11.933c.255 0 .408-.103.442-.293a.36.36 0 0 0-.36-.433c-.25-.005-.5 0-.75 0H7.558z"/>
  </g>
</svg>
