<?xml version="1.0" encoding="UTF-8"?>
<svg width="21px" height="21px" viewBox="0 0 21 21" version="1.1" xmlns="http://www.w3.org/2000/svg" xmlns:xlink="http://www.w3.org/1999/xlink">
    <!-- Generator: Sketch 47.1 (45422) - http://www.bohemiancoding.com/sketch -->
    <title>icon- List view</title>
    <desc>Created with Sketch.</desc>
    <defs></defs>
    <g id="Page-1" stroke="none" stroke-width="1" fill="none" fill-rule="evenodd">
        <g id="Detailed-View-Panel---Main-Specs" transform="translate(-3089.000000, -1591.000000)" stroke="#4A4A4A" stroke-width="0.5" fill="#4A4A4A">
            <g id="Group-8" transform="translate(3080.000000, 1592.000000)">
                <g id="icon--List-view" transform="translate(19.500000, 10.000000) scale(-1, 1) translate(-19.500000, -10.000000) translate(10.000000, 0.000000)">
                    <path d="M0.7278,16.8518 C0.7278,17.3028 0.7308,17.7538 0.7258,18.2058 C0.7248,18.3468 0.7658,18.4158 0.9198,18.4148 C1.8288,18.4118 2.7378,18.4118 3.6468,18.4148 C3.7968,18.4158 3.8478,18.3548 3.8468,18.2098 C3.8428,17.3148 3.8418,16.4188 3.8468,15.5238 C3.8478,15.3638 3.7858,15.3118 3.6318,15.3128 C2.7358,15.3178 1.8408,15.3178 0.9448,15.3128 C0.7748,15.3108 0.7228,15.3748 0.7258,15.5388 C0.7328,15.9768 0.7278,16.4148 0.7278,16.8518 M4.5718,16.8748 C4.5718,17.3398 4.5728,17.8048 4.5708,18.2688 C4.5698,18.7758 4.2298,19.1478 3.7208,19.1548 C2.7638,19.1678 1.8068,19.1678 0.8508,19.1548 C0.3398,19.1478 0.0018,18.7778 0.0008,18.2688 C-0.0002,17.3318 -0.0002,16.3958 0.0008,15.4588 C0.0018,14.9508 0.3438,14.5798 0.8508,14.5738 C1.8078,14.5608 2.7648,14.5608 3.7208,14.5738 C4.2278,14.5798 4.5698,14.9528 4.5708,15.4598 C4.5728,15.9318 4.5718,16.4028 4.5718,16.8748" id="Fill-1"></path>
                    <path d="M3.845,2.2991 C3.845,1.8681 3.837,1.4371 3.848,1.0061 C3.853,0.8171 3.799,0.7441 3.599,0.7461 C2.723,0.7551 1.848,0.7541 0.973,0.7471 C0.793,0.7451 0.722,0.7941 0.724,0.9871 C0.733,1.8621 0.731,2.7371 0.725,3.6121 C0.724,3.7831 0.771,3.8531 0.953,3.8511 C1.842,3.8441 2.731,3.8441 3.619,3.8511 C3.801,3.8531 3.851,3.7821 3.847,3.6121 C3.839,3.1741 3.845,2.7361 3.845,2.2991 M4.572,2.3141 C4.572,2.7721 4.573,3.2301 4.572,3.6881 C4.57,4.2111 4.236,4.5821 3.716,4.5891 C2.759,4.6031 1.803,4.6041 0.846,4.5881 C0.334,4.5801 0.002,4.2101 0.001,3.6981 C5.42101086e-20,2.7691 5.42101086e-20,1.8391 0.001,0.9091 C0.002,0.3771 0.346,0.0121 0.876,0.0071 C1.819,-0.0019 2.762,-0.0029 3.705,0.0071 C4.226,0.0141 4.57,0.3821 4.571,0.9001 C4.573,1.3711 4.572,1.8421 4.572,2.3141" id="Fill-3"></path>
                    <path d="M2.2859,11.1311 C2.7169,11.1311 3.1479,11.1311 3.5779,11.1311 C3.8359,11.1311 3.8449,11.1221 3.8449,10.8751 C3.8449,10.0131 3.8409,9.1511 3.8479,8.2891 C3.8499,8.1011 3.7999,8.0271 3.5989,8.0281 C2.7239,8.0371 1.8489,8.0361 0.9729,8.0291 C0.7939,8.0281 0.7229,8.0761 0.7239,8.2681 C0.7329,9.1441 0.7329,10.0191 0.7239,10.8951 C0.7229,11.0871 0.7929,11.1381 0.9729,11.1341 C1.4099,11.1251 1.8479,11.1311 2.2859,11.1311 M0.0009,9.5821 C0.0009,9.1171 -0.0011,8.6521 0.0009,8.1871 C0.0029,7.6651 0.3419,7.2971 0.8609,7.2911 C1.8109,7.2791 2.7609,7.2791 3.7109,7.2911 C4.2299,7.2971 4.5709,7.6671 4.5709,8.1871 C4.5729,9.1171 4.5719,10.0471 4.5709,10.9771 C4.5709,11.4971 4.2299,11.8671 3.7109,11.8731 C2.7609,11.8841 1.8109,11.8841 0.8609,11.8731 C0.3419,11.8661 0.0029,11.4981 0.0009,10.9761 C-0.0001,10.5111 0.0009,10.0471 0.0009,9.5821" id="Fill-5"></path>
                    <path d="M12.4211,2.6629 L6.4751,2.6629 C6.2291,2.6629 6.0791,2.5689 6.0361,2.3899 C5.9821,2.1629 6.1381,1.9539 6.3741,1.9369 C6.4071,1.9349 6.4411,1.9359 6.4751,1.9359 C10.4521,1.9359 14.4301,1.9369 18.4081,1.9339 C18.6131,1.9339 18.7701,1.9899 18.8401,2.1899 C18.9191,2.4129 18.7521,2.6489 18.5091,2.6609 C18.3411,2.6689 18.1721,2.6629 18.0041,2.6629 L12.4211,2.6629 Z" id="Fill-7"></path>
                    <path d="M12.4407,9.219 L18.3667,9.219 C18.4277,9.219 18.4887,9.215 18.5487,9.222 C18.7207,9.245 18.8487,9.395 18.8537,9.571 C18.8577,9.757 18.7297,9.916 18.5497,9.942 C18.5037,9.948 18.4557,9.946 18.4087,9.946 L6.4757,9.946 C6.4347,9.946 6.3947,9.948 6.3547,9.944 C6.1627,9.924 6.0257,9.767 6.0297,9.573 C6.0337,9.387 6.1687,9.239 6.3527,9.221 C6.4127,9.215 6.4737,9.219 6.5347,9.219 L12.4407,9.219 Z" id="Fill-10"></path>
                    <path d="M12.4416,16.5012 C14.4376,16.5012 16.4326,16.5012 18.4286,16.5012 C18.6996,16.5012 18.8586,16.6432 18.8536,16.8752 C18.8486,17.0592 18.7136,17.2072 18.5286,17.2262 C18.4886,17.2302 18.4486,17.2282 18.4076,17.2282 L6.4746,17.2282 C6.2196,17.2282 6.0666,17.1252 6.0326,16.9352 C5.9926,16.7042 6.1506,16.5082 6.3936,16.5022 C6.6436,16.4972 6.8926,16.5012 7.1426,16.5012 L12.4416,16.5012 Z" id="Fill-12"></path>
                </g>
            </g>
        </g>
    </g>
</svg>