<?xml version="1.0" encoding="UTF-8"?>
<svg width="177px" height="94px" viewBox="0 0 177 94" version="1.1" xmlns="http://www.w3.org/2000/svg" xmlns:xlink="http://www.w3.org/1999/xlink">
    <!-- Generator: sketchtool 58 (101010) - https://sketch.com -->
    <title>C5C3BC26-5012-417D-8D3B-1AEC48935928</title>
    <desc>Created with sketchtool.</desc>
    <defs>
        <linearGradient x1="41.7315531%" y1="46.1957158%" x2="100%" y2="99.7412682%" id="linearGradient-1">
            <stop stop-color="#070E18" offset="0%"></stop>
            <stop stop-color="#1678A0" offset="100%"></stop>
        </linearGradient>
        <linearGradient x1="41.7315531%" y1="48.9198629%" x2="100%" y2="64.1228639%" id="linearGradient-2">
            <stop stop-color="#070E18" offset="0%"></stop>
            <stop stop-color="#1678A0" offset="100%"></stop>
        </linearGradient>
        <linearGradient x1="41.7315531%" y1="48.0880891%" x2="100%" y2="74.9983614%" id="linearGradient-3">
            <stop stop-color="#070E18" offset="0%"></stop>
            <stop stop-color="#1678A0" offset="100%"></stop>
        </linearGradient>
        <linearGradient x1="42.0735136%" y1="46.1759276%" x2="97.9321358%" y2="100%" id="linearGradient-4">
            <stop stop-color="#070E18" offset="0%"></stop>
            <stop stop-color="#1678A0" offset="100%"></stop>
        </linearGradient>
        <linearGradient x1="20.7464625%" y1="11.8647301%" x2="89.8552731%" y2="93.1683263%" id="linearGradient-5">
            <stop stop-color="#2B5993" offset="0%"></stop>
            <stop stop-color="#00AEF0" offset="100%"></stop>
        </linearGradient>
    </defs>
    <g id="Page-1" stroke="none" stroke-width="1" fill="none" fill-rule="evenodd">
        <g id="In-App-Promo-&quot;Upgrade&quot;-(Insights)" transform="translate(-203.000000, -60.000000)">
            <g id="Group-7" transform="translate(31.000000, 26.000000)">
                <g id="Group-24">
                    <g id="Group-55" transform="translate(172.000000, 34.000000)">
                        <g id="Group-22">
                            <path d="M137.254011,85.3511202 L136.606943,85.997386 L137.254011,86.6436517 C137.38162,86.769663 137.431897,86.9542743 137.385778,87.1274815 C137.339658,87.3006887 137.204204,87.4359682 137.030779,87.4820222 C136.857354,87.5280762 136.672516,87.4778523 136.546355,87.3503955 L135.899286,86.7041298 L135.252217,87.3503955 C135.126201,87.4785561 134.941014,87.5293142 134.767153,87.4833474 C134.593291,87.4373805 134.457502,87.3017605 134.411479,87.1281147 C134.365455,86.9544688 134.416276,86.7695116 134.544596,86.6436517 L135.191664,85.997386 L134.544596,85.3511202 C134.351089,85.1556267 134.351996,84.8407472 134.546625,84.6463687 C134.741255,84.4519902 135.056526,84.4511001 135.252252,84.6443764 L135.899321,85.2906422 L136.54639,84.6443764 C136.742302,84.4522196 137.056659,84.4536414 137.250821,84.6475626 C137.444983,84.8414837 137.446407,85.1554507 137.254011,85.3511202 Z" id="Path" fill="url(#linearGradient-1)"></path>
                            <g id="Group-21">
                                <path d="M158.953247,46.6189451 L158.953247,46.6186995 C159.230106,46.6186995 159.454545,46.3942704 159.454545,46.1174232 C159.454545,45.8405759 159.230106,45.6161468 158.953247,45.6161468 C156.185963,45.6129811 153.943426,43.3705439 153.94026,40.6033834 C153.94026,40.3265362 153.715821,40.1021071 153.438961,40.1021071 C153.162101,40.1021071 152.937662,40.3265362 152.937662,40.6033834 C152.934514,43.3564422 150.713991,45.5930309 147.960904,45.6161468 L147.924675,45.6161468 L147.924675,45.6163925 C147.647816,45.6163925 147.423377,45.8408215 147.423377,46.1176688 C147.423377,46.3945161 147.647816,46.6189451 147.924675,46.6189451 C150.691876,46.6220803 152.934391,48.8643858 152.937662,51.6314629 C152.937662,51.9083102 153.162101,52.1327392 153.438961,52.1327392 C153.715821,52.1327392 153.94026,51.9083102 153.94026,51.6314629 C153.943515,48.8784906 156.164013,46.6420357 158.917013,46.6189451 L158.953247,46.6189451 Z M153.541767,49.3304391 C152.931704,47.940219 151.821451,46.8300151 150.431169,46.2199793 C151.821483,45.6101149 152.931766,44.4999694 153.541767,43.1097651 C154.151829,44.4999861 155.262083,45.6101904 156.652366,46.2202249 C155.262052,46.8300905 154.15177,47.9402356 153.541767,49.3304391 Z M18.8055541,83.6517219 C14.0300444,83.6463847 10.1600601,79.776573 10.1547226,75.0012763 C10.1547226,74.7244291 9.9302835,74.5 9.65342387,74.5 C9.37656424,74.5 9.15212517,74.7244291 9.15212517,75.0012763 C9.14678768,79.776571 5.27680643,83.6463819 0.501298701,83.6517219 C0.224439073,83.6517219 2.7000624e-13,83.876151 2.7000624e-13,84.1529983 C2.7000624e-13,84.4298455 0.224439073,84.6542746 0.501298701,84.6542746 C5.27680643,84.6596146 9.14678768,88.5294255 9.15212517,93.3047202 C9.15212517,93.5815674 9.37656424,93.8059965 9.65342387,93.8059965 C9.9302835,93.8059965 10.1547226,93.5815674 10.1547226,93.3047202 C10.1600601,88.5294235 14.0300444,84.6596118 18.8055541,84.6542746 C19.0824137,84.6542746 19.3068528,84.4298455 19.3068528,84.1529983 C19.3068528,83.876151 19.0824137,83.6517219 18.8055541,83.6517219 L18.8055541,83.6517219 Z M9.58831519,90.1668656 C8.61981614,87.3040585 6.37202575,85.0563684 3.50909091,84.0879125 C6.37204089,83.1194581 8.61984258,80.8717566 9.58834026,78.0089344 C10.5568313,80.8717449 12.8046134,83.1194435 15.6675445,84.0879125 C12.8046094,85.0563698 10.556818,87.3040591 9.58831519,90.1668656 L9.58831519,90.1668656 Z M118.849351,19.0012763 L118.849351,21.0063817 L120.854545,21.0063817 C121.131405,21.0063817 121.355844,21.2308108 121.355844,21.507658 C121.355844,21.7845053 121.131405,22.0089344 120.854545,22.0089344 L118.849351,22.0089344 L118.849351,24.0140397 C118.849351,24.290887 118.624912,24.5153161 118.348052,24.5153161 C118.071192,24.5153161 117.846753,24.290887 117.846753,24.0140397 L117.846753,22.0089344 L115.841558,22.0089344 C115.564699,22.0089344 115.34026,21.7845053 115.34026,21.507658 C115.34026,21.2308108 115.564699,21.0063817 115.841558,21.0063817 L117.846753,21.0063817 L117.846753,19.0012763 C117.846753,18.7244291 118.071192,18.5 118.348052,18.5 C118.624912,18.5 118.849351,18.7244291 118.849351,19.0012763 Z M44.3058916,19.6945746 L45.4553695,18.545148 L44.3058916,17.3957214 C44.1120527,17.1996577 44.1129611,16.88386 44.3079248,16.6889147 C44.5028884,16.4939694 44.8187003,16.4930767 45.014763,16.6869166 L46.164241,17.8363433 L47.3137189,16.6869166 C47.5099678,16.4941994 47.8248644,16.4956254 48.0193597,16.690112 C48.213855,16.8845987 48.215281,17.1994812 48.0225552,17.3957214 L46.8730773,18.545148 L48.0225552,19.6945746 C48.1503832,19.8209534 48.2007465,20.0061031 48.1545476,20.1798154 C48.1083486,20.3535276 47.9726619,20.4892016 47.7989396,20.5353899 C47.6252173,20.5815782 47.4400618,20.5312079 47.3136838,20.4033794 L46.1642059,19.2539527 L45.014728,20.4033794 C44.8884955,20.5319137 44.7029906,20.5828198 44.5288306,20.5367189 C44.3546706,20.490618 44.218649,20.3546026 44.1725461,20.1804503 C44.1264432,20.0062981 44.1773515,19.8208015 44.3058916,19.6945746 Z M2.90567213,63.0118682 L2.25749291,63.6600185 L2.90567213,64.3081688 C3.03350008,64.4345475 3.08386342,64.6196972 3.03766447,64.7934095 C2.99146552,64.9671218 2.85577882,65.1027957 2.6820565,65.148984 C2.50833419,65.1951723 2.32317871,65.144802 2.19680068,65.0169735 L1.54862146,64.3688232 L0.900442236,65.0169735 C0.774209742,65.1455079 0.58870489,65.196414 0.414544869,65.1503131 C0.240384848,65.1042122 0.104363323,64.9681967 0.0582603821,64.7940445 C0.0121574412,64.6198922 0.063065796,64.4343957 0.191605873,64.3081688 L0.839785094,63.6600185 L0.191605873,63.0118682 C-0.00223300989,62.8158046 -0.00132459527,62.5000068 0.193639052,62.3050615 C0.3886027,62.1101162 0.704414559,62.1092235 0.900477327,62.3030634 L1.54865655,62.9512137 L2.19683577,62.3030634 C2.39308466,62.1103463 2.70798124,62.1117722 2.90247656,62.3062589 C3.09697187,62.5007455 3.09839791,62.815628 2.90567213,63.0118682 Z M176.355023,79.052711 L175.706844,79.7008613 L176.355023,80.3490116 C176.482851,80.4753904 176.533214,80.6605401 176.487015,80.8342524 C176.440816,81.0079646 176.305129,81.1436386 176.131407,81.1898269 C175.957685,81.2360151 175.772529,81.1856449 175.646151,81.0578164 L174.997972,80.4096661 L174.349793,81.0578164 C174.22356,81.1863507 174.038056,81.2372568 173.863896,81.1911559 C173.689735,81.145055 173.553714,81.0090396 173.507611,80.8348873 C173.461508,80.6607351 173.512416,80.4752385 173.640957,80.3490116 L174.289136,79.7008613 L173.640957,79.052711 C173.447118,78.8566474 173.448026,78.5408497 173.64299,78.3459044 C173.837953,78.1509591 174.153765,78.1500663 174.349828,78.3439063 L174.998007,78.9920566 L175.646186,78.3439063 C175.842435,78.1511891 176.157332,78.1526151 176.351827,78.3471017 C176.546323,78.5415884 176.547749,78.8564709 176.355023,79.052711 Z M43.3032942,88.3587075 L42.655115,87.7105572 L42.0069357,88.3587075 C41.8807032,88.4872419 41.6951984,88.538148 41.5210384,88.4920471 C41.3468784,88.4459462 41.2108568,88.3099307 41.1647539,88.1357785 C41.1186509,87.9616262 41.1695593,87.7761296 41.2980994,87.6499028 L41.9462786,87.0017525 L41.2980994,86.3536022 C41.1042605,86.1575386 41.1051689,85.8417408 41.3001326,85.6467955 C41.4950962,85.4518502 41.8109081,85.4509575 42.0069708,85.6447974 L42.6551501,86.2929477 L43.3033293,85.6447974 C43.4995782,85.4520802 43.8144747,85.4535062 44.0089701,85.6479929 C44.2034654,85.8424795 44.2048914,86.157362 44.0121656,86.3536022 L43.3639864,87.0017525 L44.0121656,87.6499028 C44.1399936,87.7762815 44.1903569,87.9614312 44.144158,88.1351435 C44.097959,88.3088558 43.9622723,88.4445297 43.78855,88.490718 C43.6148277,88.5369063 43.4296722,88.486536 43.3032942,88.3587075 L43.3032942,88.3587075 Z M8.56363636,35.5906201 L8.56363636,39.6008308 L12.574026,39.6008308 C12.8508856,39.6008308 13.0753247,39.8252598 13.0753247,40.1021071 C13.0753247,40.3789544 12.8508856,40.6033834 12.574026,40.6033834 L8.56363636,40.6033834 L8.56363636,44.6135942 C8.56363636,44.8904414 8.33919729,45.1148705 8.06233766,45.1148705 C7.78547803,45.1148705 7.56103896,44.8904414 7.56103896,44.6135942 L7.56103896,40.6033834 L3.55064935,40.6033834 C3.27378972,40.6033834 3.04935065,40.3789544 3.04935065,40.1021071 C3.04935065,39.8252598 3.27378972,39.6008308 3.55064935,39.6008308 L7.56103896,39.6008308 L7.56103896,35.5906201 C7.56103896,35.3137728 7.78547803,35.0893437 8.06233766,35.0893437 C8.33919729,35.0893437 8.56363636,35.3137728 8.56363636,35.5906201 Z M141.909091,3.00765803 C141.909091,3.14061579 141.856323,3.26813826 141.762304,3.36215359 C141.668284,3.45616893 141.540756,3.50897028 141.407792,3.50893437 L139.402597,3.50893437 L139.402597,5.51403973 C139.402597,5.790887 139.178158,6.01531607 138.901299,6.01531607 C138.624439,6.01531607 138.4,5.790887 138.4,5.51403973 L138.4,3.50893437 L136.394805,3.50893437 C136.117946,3.50893437 135.893506,3.28450531 135.893506,3.00765803 C135.893506,2.73081076 136.117946,2.50638169 136.394805,2.50638169 L138.4,2.50638169 L138.4,0.501276339 C138.4,0.224429061 138.624439,6.39488462e-14 138.901299,6.39488462e-14 C139.178158,6.39488462e-14 139.402597,0.224429061 139.402597,0.501276339 L139.402597,2.50638169 L141.407792,2.50638169 C141.540759,2.50634711 141.668289,2.55915165 141.762309,2.65317103 C141.856329,2.74719042 141.909091,2.87471726 141.909091,3.00767808 L141.909091,3.00765803 Z" id="Shape" fill="url(#linearGradient-2)" fill-rule="nonzero"></path>
                                <g id="Group-26" transform="translate(35.000000, 9.000000)">
                                    <g id="Group" fill-rule="nonzero">
                                        <path d="M106.776623,18.884101 L85.742815,18.884101 C85.538753,17.3978786 85.124697,15.9348975 84.2182821,14.651731 C82.5525668,12.2921236 79.8511182,11.3416752 77.4664403,10.5037638 C76.0308879,9.99979376 74.6760112,9.52273472 73.7624778,8.83772687 C72.8691134,8.16739776 72.0232053,6.99676827 71.1262816,5.75763799 C69.61124,3.66102467 67.8945092,1.28551529 65.1669597,0.372986977 C62.5414411,-0.505290949 59.8482974,0.347299182 57.4742971,1.09958459 C55.9877293,1.57052749 54.5853963,2.01455937 53.3894981,2.01455937 C52.1947863,2.01455937 50.7912669,1.57052749 49.304699,1.09958459 C46.9295124,0.347299182 44.2351823,-0.505290949 41.6120365,0.371763748 C38.8833006,1.28551529 37.164197,3.6622479 35.6491553,5.75886122 C34.7546045,6.99676827 33.9086964,8.16739776 33.0165184,8.83650364 C32.102985,9.5215115 30.7481083,9.99857054 29.3125559,10.5025406 C26.9290644,11.340452 24.225243,12.2909004 22.5607141,14.6492846 C21.6542992,15.9324511 21.2402432,17.3966553 21.0361812,18.8816545 L0,18.8816545 L6.87166892,37.7499512 L0,56.6145781 L21.0349948,56.6145781 C21.2378704,58.1008005 21.6531128,59.5637816 22.5583413,60.8481713 C24.2240566,63.2065555 26.9266916,64.1570039 29.3101831,64.9949153 C30.7457355,65.5001086 32.1017986,65.9759444 33.0153319,66.6609522 C33.9063235,67.3312814 34.7522317,68.5006876 35.6479689,69.7398179 C37.1630106,71.8364312 38.8821142,74.2131638 41.6108501,75.1269154 C44.2304366,76.0039701 46.9271396,75.1513799 49.3035126,74.4003178 C50.7900805,73.9305981 52.1924135,73.485343 53.3883117,73.485343 C54.5842099,73.485343 55.9865429,73.9293749 57.4731107,74.4003178 C59.1317076,74.9263059 60.9445374,75.5 62.7810953,75.5 C63.5748016,75.5 64.3732534,75.3923559 65.1645868,75.1269154 C67.8933228,74.214387 69.6100536,71.8388777 71.1250952,69.7422644 C72.0208325,68.5031341 72.8667406,67.3325046 73.7612914,66.6621755 C74.6748248,65.9771676 76.0297015,65.5001086 77.4652539,64.9961385 C79.8499318,64.1582271 82.5525668,63.2077787 84.2170957,60.8481713 C85.1235106,59.5637816 85.5375666,58.1008005 85.7404422,56.6158014 L106.776623,56.6158014 L99.9049545,37.7499512 L106.776623,18.884101 Z M6.87285532,51.7069862 L11.9577954,37.7499512 L6.87285532,23.7929162 L20.7917814,23.7929162 C20.7561892,24.8803661 20.6743271,25.887083 20.4168768,26.7041995 C20.0870557,27.7525062 19.2814854,28.9231357 18.4296452,30.1634892 C16.953755,32.3090317 15.2809212,34.743256 15.2809212,37.7499512 C15.2809212,40.7578696 16.953755,43.1896475 18.4296452,45.3364131 C19.2814854,46.5755434 20.0870557,47.7473961 20.4168768,48.7957028 C20.6743271,49.6128193 20.7561892,50.6195362 20.7917814,51.7069862 L6.87285532,51.7069862 L6.87285532,51.7069862 Z M84.4650547,42.4973002 C83.4435584,43.9835226 82.3864698,45.5198974 81.8324177,47.2801229 C81.2546376,49.1137422 81.2249774,51.0464429 81.1953172,52.916759 C81.1632842,54.9546573 81.1324377,56.8800187 80.369578,57.9613525 C79.5912951,59.0647044 77.8128711,59.6897741 75.9312297,60.3515406 C74.2228037,60.9521457 72.4574302,61.5723225 70.9613711,62.6952461 C69.4842945,63.8034909 68.3785632,65.3325263 67.3096106,66.8101861 C66.112526,68.465214 64.9830666,70.0284998 63.6946287,70.4590761 C62.4999169,70.8578486 60.7357298,70.3000565 58.8718845,69.7092372 C57.1148158,69.1526683 55.2984268,68.577751 53.3883117,68.577751 C51.4793829,68.577751 49.6618075,69.1526683 47.9059253,69.7092372 C46.0373344,70.3000565 44.2743337,70.860295 43.0796219,70.4590761 C41.7935568,70.0284998 40.6617246,68.4639908 39.4634536,66.8077396 C38.3956874,65.3300798 37.2911425,63.8022677 35.8152523,62.6952461 C34.3191932,61.5723225 32.5526332,60.9521457 30.8453937,60.3515406 C28.9625659,59.6897741 27.1841419,59.0647044 26.405859,57.9613525 C25.6418129,56.8787955 25.6121527,54.9534341 25.5801197,52.9155357 C25.551646,51.0464429 25.5207994,49.1137422 24.9442056,47.2813462 C24.3901536,45.5211206 23.333065,43.9847459 22.3115687,42.4997467 C21.1441442,40.8006826 20.0407858,39.195807 20.0407858,37.7511744 C20.0407858,36.307765 21.1441442,34.7016662 22.3115687,33.0026021 C23.333065,31.5176029 24.3901536,29.9812282 24.9442056,28.2210026 C25.5207994,26.3886066 25.5504596,24.4571291 25.5813061,22.5880363 C25.6121527,20.5489147 25.6441857,18.6235533 26.4070454,17.5409963 C27.1853283,16.4376444 28.9637523,15.8125747 30.8465801,15.1508082 C32.5538197,14.5502031 34.3191932,13.9300263 35.8152523,12.8071027 C37.2911425,11.7000811 38.3956874,10.1710457 39.4634536,8.69460916 C40.6617246,7.03835803 41.7923704,5.47384902 43.0796219,5.04327266 C43.3608003,4.94908408 43.6740118,4.90871754 44.0109513,4.90871754 C45.1095642,4.90871754 46.4774913,5.34174037 47.9059253,5.79433484 C49.6629939,6.35090372 51.4793829,6.92582103 53.3894981,6.92582103 C55.2984268,6.92582103 57.1160023,6.35090372 58.8730709,5.79433484 C60.7416618,5.20351557 62.5034761,4.64572346 63.6970015,5.04449589 C64.9830666,5.47507225 66.1137124,7.03958126 67.310797,8.69338593 C68.3797496,10.172269 69.4854809,11.7013043 70.9625575,12.808326 C72.4586166,13.9300263 74.2239901,14.5514263 75.9324161,15.1520314 C77.8140575,15.8137979 79.5924815,16.4388676 80.3707644,17.5422195 C81.1359969,18.6247766 81.1656571,20.5489147 81.1965036,22.5868131 C81.2249774,24.4559059 81.255824,26.3886066 81.8336042,28.2210026 C82.3876562,29.9824514 83.4447448,31.5188262 84.4662411,33.0050486 C85.6336655,34.7028895 86.737024,36.307765 86.737024,37.7511744 C86.7358376,39.1933606 85.6324791,40.7982361 84.4650547,42.4973002 Z M99.9037681,51.7069862 L85.984842,51.7069862 C86.0216206,50.6195362 86.1022963,49.6128193 86.3597466,48.7957028 C86.6895677,47.7473961 87.495138,46.5755434 88.3481646,45.3351899 C89.8228684,43.1896475 91.4957022,40.7566464 91.4957022,37.7499512 C91.4957022,34.743256 89.8228684,32.3114781 88.3481646,30.1659357 C87.495138,28.9255822 86.6895677,27.7549527 86.3597466,26.7041995 C86.1022963,25.887083 86.0204342,24.8803661 85.984842,23.7929162 L99.9025816,23.7929162 L94.818828,37.7499512 L99.9037681,51.7069862 Z" id="Shape" fill="url(#linearGradient-3)"></path>
                                        <path d="M53.3889096,12.117284 C39.5497965,12.117284 28.2912421,23.6154561 28.2912421,37.7506107 C28.2912421,51.8845439 39.5497965,63.382716 53.3889096,63.382716 C67.2268269,63.382716 78.4853813,51.8845439 78.4853813,37.7506107 C78.4853813,23.6166774 67.2268269,12.117284 53.3889096,12.117284 Z M53.3889096,59.1921245 C41.8134655,59.1921245 32.396459,49.5736727 32.396459,37.7506107 C32.396459,25.9275487 41.8134655,16.3090969 53.3889096,16.3090969 C64.9631579,16.3090969 74.3801644,25.9275487 74.3801644,37.7506107 C74.3801644,49.5736727 64.9643537,59.1921245 53.3889096,59.1921245 Z" id="Shape" fill="url(#linearGradient-4)"></path>
                                    </g>
                                    <g id="Group-3" transform="translate(43.000000, 25.000000)">
                                        <g id="Group" fill="url(#linearGradient-5)">
                                            <path d="M19.7198148,15.0287483 L19.7198148,8.72251391 C19.7198148,3.90503444 15.7151791,0 10.7755131,0 C5.83529593,0 1.83052245,3.90503444 1.83052245,8.72251391 L1.83052245,15.1199106 C1.79222299,15.9443464 1.59149524,17.835449 0.609623814,20.0480185 C-0.71060544,23.0211417 0.381755799,22.6669113 1.36045857,22.4222126 C2.3388858,22.1786106 4.52402158,21.223806 5.20679902,22.4001417 C5.88902539,23.5757921 6.45828212,24.5970834 8.05129171,23.9311192 C9.64443906,23.2658404 10.395136,23.043898 10.6225908,23.043898 L10.9318796,23.043898 C11.1591965,23.043898 11.910169,23.2658404 13.5030409,23.9311192 C15.0961882,24.5970834 15.6653072,23.5757921 16.3479468,22.4001417 C17.030311,21.223806 19.215309,22.1786106 20.1940118,22.4222126 C21.1725768,22.6669113 22.2645247,23.0211417 20.9447087,20.0480185 C19.9231602,17.7457947 19.7473684,15.7951967 19.7198148,15.0287483 Z" id="Fill-3"></path>
                                        </g>
                                        <g id="noun_Line-Graph_1553628_000000" transform="translate(10.752086, 9.401915) scale(-1, -1) translate(-10.752086, -9.401915) translate(5.752086, 5.401915)" fill="#FFFFFF" fill-rule="nonzero" stroke="#FFFFFF" stroke-width="0.998843988">
                                            <path d="M8.82860276,0 C8.21060057,0 7.70610898,0.502242015 7.70610898,1.11748848 C7.70610898,1.40627764 7.81961959,1.65739865 7.98357935,1.85829545 L6.57100291,4.10582847 C6.47010459,4.08071637 6.36920628,4.06816032 6.25569567,4.06816032 C6.05389903,4.06816032 5.86471469,4.11838452 5.70075492,4.21883292 L4.60348572,3.16412469 C4.69177175,3.01345209 4.72960862,2.82511133 4.72960862,2.63677058 C4.72960862,2.02152411 4.22511703,1.51928209 3.60711484,1.51928209 C2.98911265,1.51928209 2.48462106,2.02152411 2.48462106,2.63677058 C2.48462106,2.92555974 2.58551938,3.17668074 2.76209143,3.37757755 L1.42518873,5.53721821 C1.32429041,5.51210611 1.2233921,5.49955006 1.12249378,5.49955006 C0.504491586,5.49955006 0,6.00179208 0,6.61703854 C0,7.23228501 0.504491586,7.73452703 1.12249378,7.73452703 C1.74049597,7.73452703 2.24498756,7.23228501 2.24498756,6.61703854 C2.24498756,6.32824939 2.14408924,6.07712838 1.96751719,5.87623157 L3.32964447,3.72914696 C3.43054279,3.75425906 3.5314411,3.76681511 3.63233942,3.76681511 C3.83413606,3.76681511 4.0233204,3.71659091 4.18728017,3.61614251 L5.28454937,4.67085074 C5.19626334,4.82152334 5.15842647,4.99730805 5.15842647,5.1856488 C5.15842647,5.80089527 5.66291806,6.30313729 6.28092025,6.30313729 C6.89892244,6.30313729 7.40341403,5.80089527 7.40341403,5.1856488 C7.40341403,4.89685964 7.30251571,4.64573864 7.12594366,4.44484183 L8.55113239,2.19730881 C8.6520307,2.22242092 8.75292902,2.23497697 8.85382734,2.23497697 C9.47182953,2.23497697 9.97632112,1.73273495 9.97632112,1.11748848 C9.96370883,0.502242015 9.45921724,0 8.82860276,0 Z" id="Shape"></path>
                                        </g>
                                    </g>
                                </g>
                            </g>
                        </g>
                    </g>
                </g>
            </g>
        </g>
    </g>
</svg>