<svg xmlns="http://www.w3.org/2000/svg" width="219" height="219" viewBox="0 0 219 219">
    <g fill="none" fill-rule="evenodd">
        <path d="M0 0h219v219H0z"/>
        <g transform="translate(3 17)">
            <ellipse cx="106.429" cy="92.408" fill="#EBEBEB" rx="90.429" ry="90.408"/>
            <path fill="#4A4A4A" d="M54.675 10.37c1.466-.265 2.437-1.077 2.371-2.709-.066-1.677-1.149-2.437-2.694-2.377-1.486.072-2.397 1.05-2.344 2.53.053 1.564.997 2.45 2.667 2.555m-.085 5.198c-4.45.02-7.845-3.296-7.878-7.681C46.686 3.494 50.073.04 54.438 0c4.331-.033 7.818 3.415 7.844 7.76.027 4.498-3.215 7.787-7.692 7.807"/>
            <path fill="#9B9B9B" d="M192.416 162.446c1.465-.265 2.436-1.077 2.37-2.708-.066-1.678-1.149-2.437-2.694-2.378-1.486.073-2.397 1.05-2.344 2.53.053 1.565.997 2.45 2.668 2.556m-.086 5.197c-4.45.02-7.845-3.295-7.878-7.68-.026-4.393 3.361-7.847 7.726-7.886 4.332-.033 7.818 3.414 7.844 7.76.027 4.497-3.215 7.786-7.692 7.806"/>
            <path fill="#E0E0E0" stroke="#979797" stroke-width="1.2" d="M41.147 43.933c-1.877-.15-4.054-.012-4.017-2.641.044-2.473 2.121-2.386 3.973-2.51.306-1.8-.068-4.193 2.77-4.05 2.488.131 2.307 2.205 2.457 4.018 1.859.224 4.18-.05 3.96 2.822-.18 2.392-2.132 2.218-3.929 2.317-.262 1.795.063 4.106-2.775 4.006-2.614-.093-2.17-2.274-2.439-3.962"/>
            <path fill="#C8C7C2" stroke="#979797" stroke-width="1.2" d="M177.894 68.847c-.854-.068-1.843-.005-1.826-1.2.02-1.124.964-1.085 1.806-1.141.139-.819-.031-1.906 1.259-1.84 1.13.059 1.049 1.002 1.117 1.826.845.101 1.9-.023 1.8 1.282-.082 1.088-.97 1.008-1.786 1.054-.12.815.028 1.866-1.262 1.82-1.188-.042-.986-1.033-1.108-1.8"/>
            <path fill="#F7F7F7" stroke="#979797" stroke-width="1.2" d="M205.38 95.29c1.188 1.335 2.739 2.583 1.09 4.501-1.108 1.292-2.302 1.025-4.64-.912-2.338 1.918-3.532 2.172-4.652.9-1.674-1.906-.074-3.16 1.083-4.52-1.157-1.416-2.88-2.819-.99-4.669 1.771-1.732 3.144-.223 4.491 1.05 1.416-1.093 2.8-2.875 4.634-1.025 1.877 1.894.062 3.253-1.015 4.675"/>
            <path fill="#E7ECEE" stroke="#4A4A4A" stroke-width="1.2" d="M209 140.102c-1.541-.013-3.001-1.499-2.989-3.028.013-1.567 1.448-2.966 3.02-2.96 1.597.007 2.981 1.412 2.969 2.997-.013 1.574-1.454 3.003-3 2.99z"/>
            <path fill="#C8C7C2" stroke="#4A4A4A" stroke-width="1.2" d="M64.073 53.885c-1.54-.012-3-1.498-2.988-3.028.012-1.567 1.447-2.965 3.019-2.959 1.597.006 2.982 1.411 2.97 2.997-.013 1.573-1.454 3.003-3.001 2.99z"/>
            <path fill="#9B9B9B" d="M3.146 124.527c1.7-.046 3.175 1.35 3.221 3.043.046 1.666-1.39 3.18-3.063 3.233-1.62.053-3.202-1.449-3.254-3.082-.046-1.653 1.403-3.148 3.096-3.194"/>
            <path fill="#4A4A4A" d="M51.625 84.946c0 1.771-1.364 3.095-3.162 3.069-1.68-.027-3.01-1.31-3.07-2.97-.066-1.733 1.324-3.162 3.083-3.182 1.792-.026 3.149 1.304 3.149 3.083"/>
            <path fill="#9B9B9B" d="M205.375 38.318c-1.575-.025-2.988-1.487-2.956-3.063.03-1.627 1.406-2.949 3.05-2.923 1.637.019 2.968 1.385 2.937 3.018-.025 1.62-1.425 2.994-3.031 2.968"/>
            <path fill="#4A4A4A" d="M146.725 185.605c-1.638.006-2.909-1.194-2.991-2.83-.095-1.724 1.15-3.097 2.851-3.155 1.734-.064 3.087 1.195 3.131 2.906a3.009 3.009 0 0 1-2.99 3.08z"/>
            <g>
                <path fill="#00AEF0" d="M154.599 131.682c-3.98-9.111-4.666-16.83-4.773-19.864V86.862c0-19.064-15.604-34.518-34.851-34.518-19.25 0-34.854 15.454-34.854 34.518v25.317c-.148 3.263-.93 10.747-4.757 19.503-5.144 11.765-.887 10.363 2.926 9.395 3.812-.964 12.326-4.743 14.986-.088 2.659 4.653 4.877 8.695 11.084 6.06 6.208-2.634 9.133-3.512 10.02-3.512h1.205c.885 0 3.811.878 10.018 3.512 6.207 2.635 8.424-1.407 11.085-6.06 2.658-4.655 11.172-.876 14.986.088 3.813.968 8.067 2.37 2.925-9.395"/>
                <path stroke="#4A4A4A" stroke-width="3.6" d="M148.61 131.682c-3.98-9.111-4.666-16.83-4.773-19.864V86.862c0-19.064-15.604-34.518-34.85-34.518-19.25 0-34.854 15.454-34.854 34.518v25.317c-.15 3.263-.931 10.747-4.758 19.503-5.144 11.765-.887 10.363 2.926 9.395 3.812-.964 12.327-4.743 14.987-.088 2.658 4.653 4.876 8.695 11.083 6.06 6.208-2.634 9.133-3.512 10.02-3.512h1.205c.885 0 3.811.878 10.018 3.512 6.208 2.635 8.425-1.407 11.085-6.06 2.659-4.655 11.172-.876 14.986.088 3.813.968 8.068 2.37 2.925-9.395"/>
                <path fill="#9B9B9B" d="M154.599 131.682c-3.98-9.111-4.666-16.83-4.773-19.864V86.862c0-19.064-15.604-34.518-34.851-34.518-19.25 0-34.854 15.454-34.854 34.518v25.317c-.148 3.263-.93 10.747-4.757 19.503-5.144 11.765-.887 10.363 2.926 9.395 3.812-.964 12.326-4.743 14.986-.088 2.659 4.653 4.877 8.695 11.084 6.06 6.208-2.634 9.133-3.512 10.02-3.512h1.205c.885 0 3.811.878 10.018 3.512 6.207 2.635 8.424-1.407 11.085-6.06 2.658-4.655 11.172-.876 14.986.088 3.813.968 8.067 2.37 2.925-9.395"/>
                <path stroke="#4A4A4A" stroke-width="3.6" d="M148.61 131.682c-3.98-9.111-4.666-16.83-4.773-19.864V86.862c0-19.064-15.604-34.518-34.85-34.518-19.25 0-34.854 15.454-34.854 34.518v25.317c-.15 3.263-.931 10.747-4.758 19.503-5.144 11.765-.887 10.363 2.926 9.395 3.812-.964 12.327-4.743 14.987-.088 2.658 4.653 4.876 8.695 11.083 6.06 6.208-2.634 9.133-3.512 10.02-3.512h1.205c.885 0 3.811.878 10.018 3.512 6.208 2.635 8.425-1.407 11.085-6.06 2.659-4.655 11.172-.876 14.986.088 3.813.968 8.068 2.37 2.925-9.395"/>
                <g fill="#4A4A4A">
                    <path d="M97.785 66.713c3.772 0 6.83 4.736 6.83 10.58 0 5.843-3.058 10.58-6.83 10.58-3.772 0-6.83-4.737-6.83-10.58 0-5.844 3.058-10.58 6.83-10.58M108.372 108.614c-8.312 0-15.309-8.007-17.417-16.915 4.072 5.48 10.358 9 17.417 9 7.059 0 13.344-3.52 17.417-9-2.109 8.908-9.107 16.915-17.417 16.915M119.658 87.873c-3.775 0-6.831-4.737-6.831-10.58 0-5.844 3.056-10.58 6.83-10.58 3.775 0 6.83 4.736 6.83 10.58 0 5.843-3.055 10.58-6.83 10.58"/>
                </g>
                <path fill="#4A4A4A" stroke="#4A4A4A" stroke-width="2.4" d="M145.31 66.598h-.757c-2.007 0-4.013.01-6.022-.004-.842-.006-1.446-.566-1.444-1.286.002-.74.577-1.238 1.45-1.25.574-.007 1.15-.002 1.72-.002.092-12.955-8.573-24.584-20.257-28.394v.74c0 2.862-.006 5.727.006 8.59.004.593-.177 1.057-.726 1.323-.936.454-1.832-.228-1.834-1.398-.002-5.1 0-10.202 0-15.303v-.764h-6.319v12.493h-2.561v-5.19c0-2.237-.006-4.475.005-6.71.002-.414-.042-.687-.572-.653-.606.04-1.217.01-1.826.01h-3.91v15.828c0 1.19-.46 1.835-1.3 1.83-.831-.009-1.256-.61-1.256-1.782v-9.099c-6.95 2.553-12.294 6.866-16.04 13.083-2.841 4.719-4.211 9.848-4.246 15.398.697 0 1.302-.002 1.908 0 .584.004.984.281 1.19.819.337.883-.307 1.707-1.373 1.717-2.004.015-4.011.004-6.02.004h-.712v4.942h70.896v-4.942zM120 32.774c14.423 5.577 22.032 15.947 22.97 31.282 1.051 0 2.17-.002 3.29 0 1.262.004 1.65.385 1.652 1.64.004 2.284.004 4.564-.002 6.847-.004 1.161-.43 1.589-1.581 1.589H73.345c-1.106 0-1.545-.436-1.549-1.554-.008-2.326-.006-4.652 0-6.978.004-1.126.421-1.538 1.545-1.542 1.143-.005 2.288-.002 3.445-.002.106-1.284.174-2.506.312-3.721.728-6.458 3.208-12.188 7.38-17.184 3.915-4.688 8.795-8.023 14.596-10.01.48-.163.664-.36.648-.883-.043-1.475-.015-2.954-.014-4.428 0-1.132.445-1.577 1.601-1.577 5.413-.004 10.823-.002 16.234-.002.34 0 .677-.008 1.015.002.966.033 1.44.512 1.442 1.469.004 1.721 0 3.44 0 5.052z"/>
                <path fill="#FEFEFE" d="M109.472 61.678c3.515.007 6.368-2.746 6.372-6.147.004-3.403-2.853-6.206-6.33-6.206-3.452-.002-6.32 2.777-6.334 6.132-.014 3.43 2.805 6.215 6.292 6.22zm.012 2.465v.002l-17.18.001c-.248 0-.498-.005-.742.023-.624.077-1.052.547-1.073 1.153-.033.87.534 1.32 1.687 1.32l34.566.001c1.134 0 1.772-.458 1.772-1.264-.002-.81-.613-1.234-1.78-1.234-5.749-.002-11.5-.002-17.25-.002zm35.37 2.515v4.845H74.185v-4.845h.712c2 0 4 .012 6-.005 1.06-.008 1.703-.816 1.368-1.682-.205-.528-.605-.8-1.188-.802-.603-.004-1.207 0-1.9 0 .036-5.441 1.401-10.47 4.233-15.095 3.732-6.096 9.059-10.321 15.987-12.824v8.918c0 1.15.422 1.738 1.252 1.745.837.008 1.296-.624 1.296-1.79V29.604h3.898c.607 0 1.214.03 1.82-.01.528-.034.572.234.568.64-.01 2.193-.003 4.386-.003 6.58v5.087h2.553V29.654h6.296v.75c0 5-.002 10.002.002 15 0 1.147.896 1.815 1.828 1.372.547-.26.725-.716.723-1.297-.013-2.808-.005-5.615-.005-8.421v-.727c11.646 3.737 20.281 15.135 20.188 27.836-.567 0-1.14-.007-1.712 0-.872.011-1.443.5-1.445 1.227-.002.706.598 1.253 1.44 1.259 2 .015 4 .005 6 .005h.756z"/>
                <path fill="#4A4A4A" d="M110.104 64.318h17.387c1.175 0 1.791.409 1.791 1.184 0 .772-.643 1.211-1.783 1.211l-34.843-.001c-1.16 0-1.731-.43-1.7-1.264.023-.58.454-1.03 1.082-1.104.248-.027.497-.024.747-.024h17.319v-.002zM110.132 59.514a3.557 3.557 0 0 0 3.564-3.551 3.588 3.588 0 0 0-3.593-3.604 3.583 3.583 0 0 0-3.56 3.57 3.546 3.546 0 0 0 3.59 3.585m-.052 2.41c-3.298-.006-5.964-2.706-5.951-6.03.013-3.254 2.726-5.947 5.991-5.945 3.288 0 5.99 2.717 5.986 6.017-.003 3.297-2.702 5.965-6.026 5.958"/>
                <path fill="#FEFEFE" d="M110.733 60.726c-2.36.004-4.214-1.85-4.208-4.2a4.198 4.198 0 0 1 4.173-4.182c2.325-.01 4.22 1.888 4.212 4.222a4.168 4.168 0 0 1-4.177 4.16"/>
                <g>
                    <path fill="#4A4A4A" stroke="#4A4A4A" stroke-width="1.2" d="M161.509 101.281c-.296-.309-.606-.717-.992-1.021-1.302-1.024-2.75-1.4-4.28-.59-2.29 1.222-4.353 2.772-6.066 4.74-1.702 1.955-2.467 4.224-2.166 6.83.206 1.736.87 3.289 1.766 4.763.456.753.454.755-.155 1.36l-26.32 26.314c-.172.173-.346.339-.511.517a4.003 4.003 0 0 0 .24 5.686c1.622 1.47 3.996 1.374 5.62-.248 6.44-6.43 12.872-12.866 19.307-19.298 2.531-2.534 5.068-5.063 7.595-7.604.245-.248.416-.29.728-.096.6.376 1.214.736 1.854 1.032 3.452 1.581 6.77 1.461 9.804-.97 2.18-1.748 3.817-3.975 5.087-6.45.278-.536.342-1.243.312-1.864-.072-1.443-.979-2.44-2.131-3.443-.785.827-1.532 1.699-2.367 2.475-1.208 1.125-2.537 2.093-4.09 2.707-2.237.885-4.32.723-6.167-.944a15.34 15.34 0 0 1-1.192-1.2c-1.12-1.267-1.582-2.737-1.326-4.425.237-1.574.923-2.96 1.897-4.177 1.125-1.405 2.358-2.725 3.553-4.094zm-2.726-5.238c.322.086.643.174.965.262 1.009.272 1.958.701 2.727 1.402 1.31 1.195 2.55 2.46 3.865 3.74-.57.506-1.099.973-1.624 1.44-1.465 1.293-2.9 2.616-4.055 4.206-.673.928-1.308 1.885-1.425 3.075-.016.19-.01.387.013.576.206 1.526 2.375 2.966 3.842 2.54 1.331-.39 2.454-1.17 3.43-2.108 1.35-1.29 2.61-2.678 3.906-4.027.246-.254.47-.523.723-.81.107.09.197.148.275.226.97.968 1.95 1.928 2.908 2.91 1.53 1.573 2.387 3.448 2.235 5.664-.059.848-.253 1.753-.64 2.5-1.553 2.986-3.524 5.694-6.216 7.75-3.945 3.019-8.246 3.211-12.727 1.301-.192-.08-.38-.168-.635-.282-.12.149-.232.306-.366.445-8.339 8.34-16.68 16.674-25.017 25.017-1.54 1.542-3.378 2.302-5.563 2.254-3.262-.067-6.306-2.715-6.8-5.945-.386-2.52.32-4.68 2.124-6.484 8.352-8.35 16.702-16.698 25.055-25.046.136-.136.301-.245.448-.368-.05-.01-.107-.019-.157-.03-.382-1.272-.875-2.525-1.118-3.824-.774-4.134.43-7.702 3.319-10.722a25.636 25.636 0 0 1 6.333-4.806c.723-.389 1.552-.576 2.334-.856h1.84z"/>
                    <path fill="#FEFEFE" d="M161.797 101.087c-1.192 1.363-2.422 2.679-3.545 4.079-.972 1.211-1.656 2.593-1.892 4.16-.256 1.682.205 3.146 1.322 4.408.373.42.772.818 1.19 1.196 1.842 1.66 3.92 1.822 6.153.94 1.55-.611 2.875-1.575 4.08-2.697.833-.773 1.578-1.642 2.36-2.465 1.15.999 2.056 1.992 2.127 3.43.03.619-.034 1.323-.311 1.857-1.267 2.466-2.901 4.684-5.075 6.424-3.026 2.423-6.337 2.543-9.781.967a16.779 16.779 0 0 1-1.85-1.028c-.311-.194-.482-.151-.726.096-2.52 2.532-5.052 5.05-7.578 7.574-6.419 6.409-12.836 12.82-19.26 19.225-1.621 1.616-3.99 1.711-5.608.247a3.983 3.983 0 0 1-.24-5.664c.166-.178.339-.343.512-.516l26.257-26.212c.607-.603.61-.606.155-1.355-.895-1.469-1.557-3.015-1.762-4.745-.301-2.596.463-4.857 2.16-6.804 1.71-1.96 3.767-3.504 6.053-4.721 1.525-.808 2.97-.433 4.269.587.386.303.694.71.99 1.017"/>
                </g>
            </g>
        </g>
    </g>
</svg>
