<svg xmlns="http://www.w3.org/2000/svg" width="20" height="12" viewBox="0 0 20 12">
    <g fill="none" fill-rule="evenodd">
        <path fill="#4A4A4A" fill-rule="nonzero" d="M3.459 3.1v1.942h.457c.22 0 .391-.056.515-.168.124-.112.186-.315.186-.609v-.41c0-.266-.048-.458-.143-.577-.096-.12-.247-.179-.452-.179h-.563zm0 2.993V8.35h.67c.198 0 .348-.053.45-.158.104-.105.155-.294.155-.567v-.64c0-.344-.059-.578-.175-.704-.117-.126-.31-.19-.58-.19h-.52zm.595-4.044c.609 0 1.05.14 1.323.42.272.28.409.704.409 1.271v.263c0 .378-.06.69-.18.934-.121.246-.313.428-.575.547.32.119.544.313.675.583.131.27.197.6.197.992v.599c0 .567-.15 1-.447 1.297-.297.298-.74.446-1.328.446H2.29V2.05h1.764zm3.719 3.098h1.604v1.05H7.773v2.154H9.79v1.05H6.604V2.05H9.79v1.05H7.773v2.048zm2.422-3.098h3.613v1.05h-1.222v6.302h-1.169V3.1h-1.222V2.05zm4.856 5.02h1.126l-.563-3.718-.563 3.719zm2.667 2.332h-1.18l-.201-1.334h-1.435L14.7 9.401h-1.073l1.19-7.352h1.71l1.19 7.352z"/>
        <rect width="18.923" height="10.486" x=".482" y=".482" stroke="#4A4A4A" stroke-width=".964" rx=".771"/>
    </g>
</svg>
