<svg xmlns="http://www.w3.org/2000/svg" width="51" height="51">
  <g fill="none" fill-rule="evenodd" transform="translate(1 1)">
    <circle cx="24.719" cy="24.719" r="24.719" fill="#8459A5" stroke="#86449B"/>
    <path fill="#86449B" d="M35.734 14.265C34.891 13.422 33.875 13 32.688 13H18.312c-1.187 0-2.203.422-3.047 1.265-.843.844-1.265 1.86-1.265 3.047v14.375c0 1.188.422 2.204 1.265 3.048.844.843 1.86 1.265 3.047 1.265h14.375c1.188 0 2.204-.422 3.047-1.265.844-.844 1.266-1.86 1.266-3.048V17.312c0-1.187-.422-2.203-1.266-3.047zm-12.21 12.481a3.06 3.06 0 0 1-2.247.929 3.06 3.06 0 0 1-2.246-.929 3.06 3.06 0 0 1-.928-2.246c0-.879.31-1.627.928-2.246a3.06 3.06 0 0 1 2.246-.929c.879 0 1.627.31 2.246.929a3.06 3.06 0 0 1 .929 2.246 3.06 3.06 0 0 1-.929 2.246zm8.444 0a3.059 3.059 0 0 1-2.246.929 3.06 3.06 0 0 1-2.246-.929 3.06 3.06 0 0 1-.928-2.246c0-.879.31-1.627.928-2.246a3.06 3.06 0 0 1 2.246-.929c.879 0 1.628.31 2.246.929a3.06 3.06 0 0 1 .93 2.246 3.06 3.06 0 0 1-.93 2.246z"/>
    <path fill="#F5A623" d="M34.734 13.265C33.891 12.422 32.875 12 31.688 12H17.312c-1.187 0-2.203.422-3.047 1.265-.843.844-1.265 1.86-1.265 3.047v14.375c0 1.188.422 2.204 1.265 3.048.844.843 1.86 1.265 3.047 1.265h14.375c1.188 0 2.204-.422 3.047-1.265.844-.844 1.266-1.86 1.266-3.048V16.312c0-1.187-.422-2.203-1.266-3.047zm-12.21 12.481a3.06 3.06 0 0 1-2.247.929 3.06 3.06 0 0 1-2.246-.929 3.06 3.06 0 0 1-.928-2.246c0-.879.31-1.627.928-2.246a3.06 3.06 0 0 1 2.246-.929c.879 0 1.627.31 2.246.929a3.06 3.06 0 0 1 .929 2.246 3.06 3.06 0 0 1-.929 2.246zm8.444 0a3.059 3.059 0 0 1-2.246.929 3.06 3.06 0 0 1-2.246-.929 3.06 3.06 0 0 1-.928-2.246c0-.879.31-1.627.928-2.246a3.06 3.06 0 0 1 2.246-.929c.879 0 1.628.31 2.246.929a3.06 3.06 0 0 1 .93 2.246 3.06 3.06 0 0 1-.93 2.246z"/>
  </g>
</svg>
