<svg xmlns="http://www.w3.org/2000/svg" width="25" height="25">
  <g fill="none" fill-rule="evenodd">
    <g transform="translate(1 1)">
      <circle cx="11.865" cy="11.865" r="11.865" fill="#8459A5" stroke="#00AEF0" stroke-width=".5"/>
      <path fill="#D2D2CC" d="M18.48 11.748L15.36 8.64l3.116 3.103.005.005"/>
      <path fill="#4D4D4B" d="M7.2 14.282l.363-.362-.363.362"/>
      <path fill="#64849B" d="M7.326 14.408l-.126-.126.363-.362.126.126-.363.362"/>
    </g>
    <path fill="#FFFFFE" stroke="#1DAFED" stroke-width="1.6" d="M13.149 6.022a.505.505 0 0 0-.298 0l-6.404 1.7A.574.574 0 0 0 6 8.286c.03 4.56 2.472 8.792 6.672 11.624.09.06.209.089.328.089.12 0 .238-.03.328-.09 4.2-2.83 6.642-7.063 6.672-11.623a.574.574 0 0 0-.447-.566L13.15 6.022z"/>
  </g>
</svg>
