<svg xmlns="http://www.w3.org/2000/svg" width="32" height="29"><path fill="#4A4A4A" d="M16.262 19.557c-4.13-.004-7.476-3.603-7.48-8.043 0-.26-.195-.466-.434-.466-.24 0-.434.208-.434.466-.004 4.44-3.35 8.038-7.48 8.043-.24 0-.434.21-.434.467s.195.467.434.467c4.13.004 7.476 3.602 7.48 8.042 0 .258.195.467.434.467.24 0 .434-.209.434-.467.004-4.44 3.35-8.037 7.48-8.042.24 0 .434-.21.434-.467s-.195-.467-.434-.467zm15.449-5.38c-2.754-.003-4.984-2.494-4.987-5.568 0-.18-.13-.323-.29-.323-.16 0-.289.145-.289.323-.002 3.074-2.233 5.565-4.986 5.568-.16 0-.29.145-.29.323 0 .18.13.323.29.323 2.753.003 4.984 2.494 4.986 5.568 0 .18.13.323.29.323.16 0 .29-.145.29-.323.002-3.074 2.232-5.565 4.986-5.568.16 0 .289-.145.289-.323 0-.18-.13-.323-.29-.323zM20.689 3.273c-1.72-.002-3.115-1.386-3.117-3.093a.181.181 0 00-.362 0c-.002 1.707-1.396 3.09-3.116 3.093a.18.18 0 10-.001.359c1.721.002 3.115 1.386 3.117 3.093 0 .1.081.18.181.18.1 0 .181-.08.181-.18.002-1.707 1.396-3.09 3.117-3.093a.18.18 0 100-.36z"/></svg>