<svg xmlns="http://www.w3.org/2000/svg" width="18" height="22" viewBox="0 0 18 22">
    <path fill="#00AEF0" fill-rule="evenodd" stroke="#00AEF0" stroke-width=".5" d="M7.633 9.847h2.756v-3.34H7.633v3.34zm2.502-4.64c.012.036.026.07.04.106 1.12-.076 2.258-.053 3.356-.255 1.298-.238 1.79-1.608 1.09-2.72-.606-.96-2.15-1.157-2.77-.292-.53.739-.947 1.559-1.394 2.356-.14.25-.217.536-.322.805zm-2.213.083c-.169-.558-1.107-2.375-1.487-2.898a3.492 3.492 0 0 0-.144-.191 1.795 1.795 0 0 0-3.086.445c-.4.966.168 2.197 1.11 2.402 1.182.257 2.386.166 3.607.242zm3.588 4.54h4.821V6.503h-4.82V9.83zm-9.806.02h4.833V6.5H1.704v3.35zm5.92 10.028h2.755v-8.92H7.624v8.92zm3.895.046h4.007v-8.972h-4.007v8.972zm-9.01-.046h4.024v-8.93H2.508v8.93zm-1.082-8.867c-.711-.188-.856-.092-.848-1.108.009-1.245.002-2.49.003-3.737 0-.584.157-.74.744-.74.41 0 .82.001 1.228-.001.085 0 .168-.01.228-.014-.208-.365-.456-.697-.596-1.069A2.87 2.87 0 0 1 3.534.807c1.308-.68 2.851-.296 3.705.938.648.94 1.146 1.961 1.598 3.007.045.103.096.205.17.364.106-.223.192-.392.267-.565.411-.935.843-1.86 1.433-2.702.513-.73 1.166-1.229 2.08-1.347 1.485-.192 2.915.87 3.161 2.353.144.868-.074 1.636-.577 2.34l-.161.221c.087.013.149.03.212.03.472-.002.944-.005 1.415-.012.353-.007.58.193.58.545a745.66 745.66 0 0 1 0 4.405c0 .297-.184.491-.487.534-.104.016-.21.018-.344.03v9.161c0 .106.003.214-.005.32-.028.364-.16.506-.519.56-.114.017-.231.017-.347.017l-13.427.001c-.072 0-.144.001-.214-.002-.489-.029-.647-.192-.647-.686v-9.308z"/>
</svg>
