<svg xmlns="http://www.w3.org/2000/svg" width="217" height="93"><defs><linearGradient id="a" x1="80.357%" x2="35.84%" y1="47.536%" y2="53.388%"><stop offset="0%" stop-color="#396618"/><stop offset="100%" stop-color="#5E9822"/></linearGradient><linearGradient id="b" x1="80.357%" x2="35.84%" y1="19.818%" y2="91.497%"><stop offset="0%" stop-color="#396618"/><stop offset="100%" stop-color="#5E9822"/></linearGradient><linearGradient id="c" x1="79.052%" x2="36.449%" y1="19.818%" y2="91.497%"><stop offset="0%" stop-color="#396618"/><stop offset="100%" stop-color="#5E9822"/></linearGradient><linearGradient id="d" x1="72.569%" x2="39.473%" y1="19.818%" y2="91.497%"><stop offset="0%" stop-color="#396618"/><stop offset="100%" stop-color="#5E9822"/></linearGradient></defs><g fill="none" fill-rule="evenodd"><g fill-rule="nonzero"><path d="M29.416 81.232c.344.247.632.56.861.914 1.197-.742 2.297-1.531 2.654-2.102a2.57 2.57 0 00.323-2.007 2.64 2.64 0 00-1.229-1.656A2.803 2.803 0 0030.617 76a2.7 2.7 0 00-2.313 1.27c-.356.569-.57 1.88-.7 3.255.413.042.815.152 1.18.327.201.088.409.213.632.38zm1.415 2.5c.013.082.023.208.023.345 0 .103-.007.214-.015.317a3.664 3.664 0 01-.34 1.206c1.29.614 2.572 1.13 3.245 1.13 1.5 0 2.718-1.188 2.718-2.653s-1.218-2.66-2.718-2.66c-.676 0-1.954.516-3.242 1.13.174.369.29.768.33 1.185zm2.099 4.378c-.3-.487-1.194-1.195-2.656-2.106a3.5 3.5 0 01-.87.934 3.663 3.663 0 01-1.798.696c.125 1.304.337 2.672.698 3.256a2.71 2.71 0 002.313 1.264 2.75 2.75 0 001.408-.387 2.628 2.628 0 001.229-1.65 2.561 2.561 0 00-.323-2.007zm-7.9-1.193a3.47 3.47 0 01-.849-.91c-1.46.91-2.352 1.615-2.656 2.097a2.607 2.607 0 00-.329 2.002 2.65 2.65 0 001.235 1.661c.427.254.911.387 1.407.387.947 0 1.812-.473 2.32-1.27.36-.576.57-1.945.694-3.25a3.751 3.751 0 01-1.169-.321 3.465 3.465 0 01-.653-.396zm-1.406-2.495a4.582 4.582 0 01-.016-.345 3.508 3.508 0 01.352-1.527c-1.289-.616-2.572-1.133-3.248-1.133-1.495 0-2.712 1.195-2.712 2.66s1.217 2.654 2.712 2.654c.676 0 1.956-.516 3.243-1.128a3.524 3.524 0 01-.33-1.18zm.562-2.272c.237-.364.537-.687.899-.947.103-.083.337-.245.636-.373a3.345 3.345 0 011.131-.305c-.13-1.375-.344-2.686-.7-3.256A2.703 2.703 0 0023.838 76c-.496 0-.98.133-1.401.38a2.666 2.666 0 00-1.24 1.662 2.594 2.594 0 00.328 2.002c.357.572 1.463 1.362 2.66 2.105zm4.534 3.86a2.425 2.425 0 00.98-1.933c0-.08-.006-.156-.017-.237a2.362 2.362 0 00-.958-1.684 2.05 2.05 0 00-.421-.254 2.502 2.502 0 00-2.129-.012c-.162.07-.306.162-.415.248a2.39 2.39 0 00-.987 2.175c.064.67.421 1.293.97 1.697.132.103.276.184.42.253.34.156.699.237 1.068.237.369 0 .727-.08 1.061-.237.15-.069.295-.15.427-.253z" fill="#5D9822"/><path d="M28.182 37.4c.314.237.569.537.761.876.727-.5 1.187-.907 1.372-1.213a2.028 2.028 0 00-.669-2.769A2.025 2.025 0 0028.602 34c-.704 0-1.344.363-1.708.97-.186.307-.333.913-.438 1.803.426.017.843.118 1.214.303.149.065.335.18.512.324zm2.508.35c-.348 0-.929.186-1.729.552a2.97 2.97 0 01.373 1.467c0 .094-.001.197-.01.291-.043.416-.17.814-.366 1.172.802.366 1.383.55 1.732.55 1.102 0 2.002-.9 2.002-2.013s-.9-2.019-2.002-2.019zm-1.752 3.51a2.984 2.984 0 01-.774.9 2.97 2.97 0 01-1.705.615c.092.765.228 1.452.435 1.794.358.6 1.016.97 1.708.97a2 2 0 001.044-.295 2.03 2.03 0 00.67-2.769c-.077-.132-.277-.461-1.378-1.215zm-6.561-4.197c.182.307.644.715 1.373 1.216.196-.343.458-.65.779-.892a2.878 2.878 0 011.703-.615c-.106-.89-.251-1.496-.434-1.803a1.997 1.997 0 00-2.752-.675 2.022 2.022 0 00-.67 2.77zm.991 2.988a3.13 3.13 0 01-.016-.282c0-.1.007-.192.016-.283.038-.42.164-.822.365-1.182-.8-.367-1.382-.554-1.731-.554A2.01 2.01 0 0020 39.77c0 1.113.894 2.013 2.002 2.013.349 0 .93-.184 1.73-.55a2.975 2.975 0 01-.364-1.182zm1.184 2.131a3.125 3.125 0 01-.8-.92c-1.1.752-1.298 1.08-1.375 1.213a2.016 2.016 0 001.708 3.063c.692 0 1.35-.369 1.713-.969.204-.342.339-1.029.43-1.795a2.984 2.984 0 01-1.18-.29c-.2-.094-.37-.211-.496-.302zm2.908-.936c.403-.311.663-.784.715-1.298.006-.058.006-.121.006-.179 0-.063 0-.12-.006-.179a1.793 1.793 0 00-.704-1.28 1.366 1.366 0 00-.317-.202 1.846 1.846 0 00-1.598-.012 1.48 1.48 0 00-.312.196c-.415.306-.68.78-.727 1.298-.005.058-.011.116-.011.18 0 .057.006.12.011.178a1.85 1.85 0 001.027 1.494c.254.121.525.185.802.185a1.832 1.832 0 001.114-.381z" fill="#558C20"/><path d="M137.091 20.7c.157.118.284.269.38.438.364-.25.594-.453.687-.606a1.016 1.016 0 00-.335-1.385 1.014 1.014 0 00-.522-.147.99.99 0 00-.854.485c-.093.153-.167.457-.219.902.213.008.422.058.607.15.074.033.167.091.256.163zm1.254.175c-.174 0-.464.093-.865.276a1.493 1.493 0 01.187.733c0 .048 0 .1-.005.146a1.545 1.545 0 01-.183.586c.4.183.692.275.866.275.551 0 1.001-.45 1.001-1.006 0-.557-.45-1.01-1-1.01zm-.875 1.755c-.099.173-.23.327-.388.45a1.488 1.488 0 01-.852.307c.045.383.114.726.217.898a1 1 0 001.376.337c.47-.288.62-.909.335-1.384-.039-.067-.138-.231-.689-.608zm-3.282-2.098c.092.153.323.357.687.607.098-.171.229-.324.39-.446a1.416 1.416 0 01.851-.306c-.053-.447-.126-.75-.216-.903a1.003 1.003 0 00-1.377-.337 1.011 1.011 0 00-.335 1.385zm.496 1.494a1.576 1.576 0 01-.008-.141 1.577 1.577 0 01.191-.733c-.4-.184-.691-.277-.866-.277-.554 0-1.001.453-1.001 1.01 0 .555.447 1.005 1.001 1.005.174 0 .465-.092.865-.275a1.505 1.505 0 01-.182-.59zm.592 1.065a1.549 1.549 0 01-.4-.46c-.55.376-.65.54-.688.607a1.009 1.009 0 00.854 1.531c.346 0 .675-.184.857-.484.102-.172.17-.515.215-.898a1.494 1.494 0 01-.838-.295zm1.454-.468a.936.936 0 00.357-.649c.003-.029.003-.06.003-.09 0-.031 0-.06-.003-.089a.895.895 0 00-.351-.64.923.923 0 00-.958-.107.76.76 0 00-.156.098.905.905 0 00-.363.65.813.813 0 000 .178.933.933 0 00.354.65.93.93 0 00.56.189.907.907 0 00.557-.19z" fill="#3F6E19"/><path d="M173.182 43.4c.314.237.569.537.761.876.727-.5 1.187-.907 1.372-1.213a2.028 2.028 0 00-.669-2.769 2.025 2.025 0 00-1.044-.294c-.704 0-1.344.363-1.708.97-.186.307-.333.913-.438 1.803.426.017.843.118 1.214.303.149.065.335.18.512.324zm2.508.35c-.348 0-.929.186-1.729.552a2.97 2.97 0 01.373 1.467c0 .094-.001.197-.01.291-.043.416-.17.814-.366 1.172.802.366 1.383.55 1.732.55 1.102 0 2.002-.9 2.002-2.013s-.9-2.019-2.002-2.019zm-1.752 3.51a2.984 2.984 0 01-.774.9 2.97 2.97 0 01-1.705.615c.092.765.228 1.452.435 1.794.358.6 1.016.97 1.708.97a2 2 0 001.044-.295 2.03 2.03 0 00.67-2.769c-.077-.132-.277-.461-1.378-1.215zm-6.561-4.197c.182.307.644.715 1.373 1.216.196-.343.458-.65.779-.892a2.878 2.878 0 011.703-.615c-.106-.89-.251-1.496-.434-1.803a1.997 1.997 0 00-2.752-.675 2.022 2.022 0 00-.67 2.77zm.991 2.988a3.13 3.13 0 01-.016-.282c0-.1.007-.192.016-.283.038-.42.164-.822.365-1.182-.8-.367-1.382-.554-1.731-.554A2.01 2.01 0 00165 45.77c0 1.113.894 2.013 2.002 2.013.349 0 .93-.184 1.73-.55a2.975 2.975 0 01-.364-1.182zm1.184 2.131a3.125 3.125 0 01-.8-.92c-1.1.752-1.298 1.08-1.375 1.213a2.016 2.016 0 001.708 3.063c.692 0 1.35-.369 1.713-.969.204-.342.339-1.029.43-1.795a2.984 2.984 0 01-1.18-.29c-.2-.094-.37-.211-.496-.302zm2.908-.936c.403-.311.663-.784.715-1.298.006-.058.006-.121.006-.179 0-.063 0-.12-.006-.179a1.793 1.793 0 00-.704-1.28 1.366 1.366 0 00-.317-.202 1.846 1.846 0 00-1.598-.012 1.48 1.48 0 00-.312.196c-.415.306-.68.78-.727 1.298-.005.058-.011.116-.011.18 0 .057.006.12.011.178a1.85 1.85 0 001.027 1.494c.254.121.525.185.802.185a1.832 1.832 0 001.114-.381z" fill="#43741B"/><path d="M2.455 58.02c.094.071.17.161.228.263.218-.15.356-.272.412-.364A.608.608 0 002.58 57a.595.595 0 00-.513.29c-.056.093-.1.275-.131.542a.9.9 0 01.518.188zm.752.105c-.104 0-.279.056-.519.166a.899.899 0 01.112.44c0 .028 0 .059-.003.087a.917.917 0 01-.11.352c.24.11.415.165.52.165a.604.604 0 000-1.21zm-.526 1.053a.882.882 0 01-.743.454c.027.23.068.436.13.539a.6.6 0 101.026-.628c-.022-.04-.082-.139-.413-.365zM.713 57.919c.055.092.193.214.412.365a.882.882 0 01.234-.268.829.829 0 01.511-.184c-.032-.267-.076-.45-.13-.541a.602.602 0 00-.827-.203.607.607 0 00-.199.832zm.297.896a1.101 1.101 0 010-.169.91.91 0 01.11-.355c-.24-.11-.415-.166-.52-.166-.332 0-.6.272-.6.606 0 .334.268.604.6.604.105 0 .28-.055.52-.165a.925.925 0 01-.11-.355zm.356.64a.94.94 0 01-.24-.276c-.33.225-.39.324-.413.364a.605.605 0 00.512.919.605.605 0 00.514-.291c.062-.103.102-.309.13-.539a.9.9 0 01-.503-.177zm.872-.281a.564.564 0 00.216-.443c0-.02 0-.037-.002-.054a.535.535 0 00-.306-.444.554.554 0 00-.48-.004.413.413 0 00-.093.059.543.543 0 00-.218.496.56.56 0 00.308.449.562.562 0 00.48 0 .561.561 0 00.095-.06zM55.455 86.02c.094.071.17.161.228.263.218-.15.356-.272.412-.364A.608.608 0 0055.58 85a.595.595 0 00-.513.29c-.056.093-.1.275-.131.542a.9.9 0 01.518.188zm.752.105c-.104 0-.279.056-.519.166a.899.899 0 01.112.44c0 .028 0 .059-.003.087a.917.917 0 01-.11.352c.24.11.415.165.52.165a.604.604 0 000-1.21zm-.526 1.053a.882.882 0 01-.743.454c.027.23.068.436.13.539a.6.6 0 101.026-.628c-.022-.04-.082-.139-.413-.365zm-1.968-1.259c.055.092.193.214.412.365a.882.882 0 01.234-.268.829.829 0 01.511-.184c-.032-.267-.076-.45-.13-.541a.602.602 0 00-.827-.203.607.607 0 00-.199.832zm.297.896a1.101 1.101 0 010-.169.91.91 0 01.11-.355c-.24-.11-.415-.166-.52-.166-.332 0-.6.272-.6.606 0 .334.268.604.6.604.105 0 .28-.055.52-.165a.925.925 0 01-.11-.355zm.356.64a.94.94 0 01-.24-.276c-.33.225-.39.324-.413.364a.605.605 0 00.512.919.605.605 0 00.514-.291c.062-.103.102-.309.13-.539a.9.9 0 01-.503-.177zm.872-.281a.564.564 0 00.216-.443c0-.02 0-.037-.002-.054a.535.535 0 00-.306-.444.554.554 0 00-.48-.004.413.413 0 00-.093.059.543.543 0 00-.218.496.56.56 0 00.308.449.562.562 0 00.48 0 .561.561 0 00.095-.06z" fill="#548A20"/><path d="M65.091 17.7c.157.118.284.269.38.438.364-.25.594-.453.687-.606a1.016 1.016 0 00-.335-1.385 1.014 1.014 0 00-.522-.147.99.99 0 00-.854.485c-.093.153-.167.457-.219.902.213.008.422.058.607.15.074.033.167.091.256.163zm1.254.175c-.174 0-.464.093-.865.276a1.493 1.493 0 01.187.733c0 .048 0 .1-.005.146a1.545 1.545 0 01-.183.586c.4.183.692.275.866.275.551 0 1.001-.45 1.001-1.006 0-.557-.45-1.01-1-1.01zm-.875 1.755c-.099.173-.23.327-.388.45a1.488 1.488 0 01-.852.307c.045.383.114.726.217.898a1 1 0 001.376.337c.47-.288.62-.909.335-1.384-.039-.067-.138-.231-.689-.608zm-3.282-2.098c.092.153.323.357.687.607.098-.171.229-.324.39-.446a1.416 1.416 0 01.851-.306c-.053-.447-.126-.75-.216-.903a1.003 1.003 0 00-1.377-.337 1.011 1.011 0 00-.335 1.385zm.496 1.494a1.576 1.576 0 01-.008-.141 1.577 1.577 0 01.191-.733c-.4-.184-.691-.277-.866-.277-.554 0-1.001.453-1.001 1.01 0 .555.447 1.005 1.001 1.005.174 0 .465-.092.865-.275a1.505 1.505 0 01-.182-.59zm.592 1.065a1.549 1.549 0 01-.4-.46c-.55.376-.65.54-.688.607a1.009 1.009 0 00.854 1.531c.346 0 .675-.184.857-.484.102-.172.17-.515.215-.898a1.494 1.494 0 01-.838-.295zm1.454-.468a.936.936 0 00.357-.649c.003-.029.003-.06.003-.09 0-.031 0-.06-.003-.089a.895.895 0 00-.351-.64.923.923 0 00-.958-.107.76.76 0 00-.156.098.905.905 0 00-.363.65.813.813 0 000 .178.933.933 0 00.354.65.93.93 0 00.56.189.907.907 0 00.557-.19z" fill="#4F841E"/><path d="M158.091 1.7c.157.118.284.269.38.438.364-.25.594-.453.687-.606a1.016 1.016 0 00-.335-1.385 1.014 1.014 0 00-.522-.147.99.99 0 00-.854.485c-.093.153-.167.457-.219.902.213.008.422.058.607.15.074.033.167.091.256.163zm1.254.175c-.174 0-.464.093-.865.276a1.493 1.493 0 01.187.733c0 .048 0 .1-.005.146a1.545 1.545 0 01-.183.586c.4.183.692.275.866.275.551 0 1.001-.45 1.001-1.006 0-.557-.45-1.01-1-1.01zm-.875 1.755c-.099.173-.23.327-.388.45a1.488 1.488 0 01-.852.307c.045.383.114.726.217.898a1 1 0 001.376.337c.47-.288.62-.909.335-1.384-.039-.067-.138-.231-.689-.608zm-3.282-2.098c.092.153.323.357.687.607.098-.171.229-.324.39-.446a1.416 1.416 0 01.851-.306c-.053-.447-.126-.75-.216-.903a1.003 1.003 0 00-1.377-.337 1.011 1.011 0 00-.335 1.385zm.496 1.494a1.576 1.576 0 01-.008-.141 1.577 1.577 0 01.191-.733c-.4-.184-.691-.277-.866-.277-.554 0-1.001.453-1.001 1.01 0 .555.447 1.005 1.001 1.005.174 0 .465-.092.865-.275a1.505 1.505 0 01-.182-.59zm.592 1.065a1.549 1.549 0 01-.4-.46c-.55.376-.65.54-.688.607a1.009 1.009 0 00.854 1.531c.346 0 .675-.184.857-.484.102-.172.17-.515.215-.898a1.494 1.494 0 01-.838-.295zm1.454-.468a.936.936 0 00.357-.649c.003-.029.003-.06.003-.09 0-.031 0-.06-.003-.089a.895.895 0 00-.351-.64.923.923 0 00-.958-.107.76.76 0 00-.156.098.905.905 0 00-.363.65.813.813 0 000 .178.933.933 0 00.354.65.93.93 0 00.56.189.907.907 0 00.557-.19z" fill="#396618"/><path d="M167.455 85.02c.094.071.17.161.228.263.218-.15.356-.272.412-.364a.608.608 0 00-.515-.919.595.595 0 00-.513.29c-.056.093-.1.275-.131.542a.9.9 0 01.518.188zm.752.105c-.104 0-.279.056-.519.166a.899.899 0 01.112.44c0 .028 0 .059-.003.087a.917.917 0 01-.11.352c.24.11.415.165.52.165a.604.604 0 000-1.21zm-.526 1.053a.882.882 0 01-.743.454c.027.23.068.436.13.539a.6.6 0 101.026-.628c-.022-.04-.082-.139-.413-.365zm-1.968-1.259c.055.092.193.214.412.365a.882.882 0 01.234-.268.829.829 0 01.511-.184c-.032-.267-.076-.45-.13-.541a.602.602 0 00-.827-.203.607.607 0 00-.199.832zm.297.896a1.101 1.101 0 010-.169.91.91 0 01.11-.355c-.24-.11-.415-.166-.52-.166-.332 0-.6.272-.6.606 0 .334.268.604.6.604.105 0 .28-.055.52-.165a.925.925 0 01-.11-.355zm.356.64a.94.94 0 01-.24-.276c-.33.225-.39.324-.413.364a.605.605 0 00.512.919.605.605 0 00.514-.291c.062-.103.102-.309.13-.539a.9.9 0 01-.503-.177zm.872-.281a.564.564 0 00.216-.443c0-.02 0-.037-.002-.054a.535.535 0 00-.306-.444.554.554 0 00-.48-.004.413.413 0 00-.093.059.543.543 0 00-.218.496.56.56 0 00.308.449.562.562 0 00.48 0 .561.561 0 00.095-.06z" fill="#44751B"/><path d="M212.364 75.06c.282.213.512.484.685.788.654-.45 1.068-.816 1.235-1.09a1.827 1.827 0 00-.602-2.493 1.82 1.82 0 00-.94-.265c-.634 0-1.21.327-1.537.872-.168.277-.3.823-.395 1.624.384.015.76.106 1.093.272.134.059.301.163.461.292zm2.257.315c-.313 0-.836.167-1.556.497a2.68 2.68 0 01.337 1.32c0 .085-.003.178-.01.262a2.794 2.794 0 01-.33 1.055c.722.33 1.245.495 1.56.495.991 0 1.801-.81 1.801-1.812s-.81-1.817-1.802-1.817zm-1.577 3.159a2.678 2.678 0 01-1.172 1.103c-.337.16-.694.246-1.059.26.083.69.206 1.307.392 1.615a1.8 1.8 0 001.537.873c.332 0 .66-.094.94-.265a1.827 1.827 0 00.602-2.492c-.07-.12-.249-.415-1.24-1.094zm-5.904-3.777c.163.276.58.643 1.235 1.094.177-.309.412-.584.7-.803a2.582 2.582 0 011.534-.553c-.095-.8-.226-1.346-.39-1.623a1.803 1.803 0 00-1.544-.872c-.332 0-.654.093-.934.265a1.818 1.818 0 00-.603 2.492zm.891 2.689a2.903 2.903 0 01-.014-.254c0-.09.006-.173.014-.255.034-.378.148-.74.329-1.064-.72-.33-1.244-.498-1.558-.498-.997 0-1.802.815-1.802 1.817s.805 1.812 1.802 1.812c.314 0 .837-.165 1.557-.495a2.676 2.676 0 01-.328-1.063zm1.066 1.918c-.3-.231-.54-.515-.72-.828-.99.677-1.169.973-1.238 1.092a1.816 1.816 0 001.537 2.757c.623 0 1.215-.333 1.542-.873.184-.308.305-.926.388-1.615a2.702 2.702 0 01-1.509-.532zm2.617-.842c.363-.28.597-.707.643-1.169.006-.052.006-.109.006-.16 0-.058 0-.11-.006-.162a1.611 1.611 0 00-.633-1.152 1.243 1.243 0 00-.286-.182 1.66 1.66 0 00-1.438-.01 1.258 1.258 0 00-.28.176 1.626 1.626 0 00-.654 1.168 1.378 1.378 0 000 .322c.041.462.275.888.638 1.169a1.653 1.653 0 001.724.176c.099-.047.197-.109.286-.176z" fill="#45761B"/></g><path stroke="url(#a)" stroke-width="4" d="M0 23h105l-7 15 7 15H0l6-15z" transform="translate(54.5 9)"/><path fill="#F7F7F7" stroke="url(#b)" stroke-width="5.412" d="M49.951 67.183l-7.996 1.378a10 10 0 01-11.083-6.398l-2.804-7.615a14.987 14.987 0 00-2.548-4.414L20.328 43.9a10 10 0 010-12.798l5.192-6.235a14.987 14.987 0 002.548-4.414l2.804-7.615A10 10 0 0141.955 6.44l7.996 1.378c1.687.291 3.41.291 5.098 0l7.996-1.378a10 10 0 0111.083 6.398l2.804 7.615a14.987 14.987 0 002.548 4.414l5.192 6.235a10 10 0 010 12.798l-5.192 6.235a14.987 14.987 0 00-2.548 4.414l-2.804 7.615a10 10 0 01-11.083 6.398l-7.996-1.378a14.994 14.994 0 00-5.098 0z" transform="translate(54.5 9)"/><path fill="url(#c)" fill-rule="nonzero" d="M53.5 15C41.095 15 31 25.317 31 38s10.094 23 22.5 23S76 50.683 76 38c0-12.682-10.094-23-22.5-23zm0 42.24c-10.377 0-18.82-8.63-18.82-19.24 0-10.608 8.443-19.239 18.82-19.239s18.82 8.63 18.82 19.24c0 10.608-8.442 19.239-18.82 19.239z" transform="translate(54.5 9)"/><path fill="url(#d)" d="M62.946 45.76c-1.021-2.384-1.197-4.403-1.225-5.197v-6.53c0-4.99-4.005-9.033-8.945-9.033s-8.945 4.044-8.945 9.033v6.624c-.039.854-.24 2.812-1.221 5.104-1.32 3.078-.228 2.711.75 2.458.98-.252 3.164-1.24 3.847-.023.682 1.218 1.252 2.275 2.845 1.586 1.593-.69 2.344-.92 2.571-.92h.31c.227 0 .978.23 2.571.92 1.593.69 2.163-.368 2.845-1.586.683-1.218 2.868-.23 3.847.023.978.253 2.07.62.75-2.458m-12.93-15.836c.963 0 1.744 1.248 1.744 2.788 0 1.54-.781 2.788-1.745 2.788-.963 0-1.745-1.248-1.745-2.788 0-1.54.782-2.788 1.745-2.788m2.761 11.144c-2.123 0-3.91-2.11-4.449-4.458 1.04 1.444 2.646 2.372 4.45 2.372 1.802 0 3.408-.928 4.448-2.372-.538 2.348-2.326 4.458-4.449 4.458m2.762-5.568c-.965 0-1.746-1.248-1.746-2.788 0-1.54.781-2.788 1.746-2.788.963 0 1.744 1.248 1.744 2.788 0 1.54-.78 2.788-1.744 2.788" transform="translate(54.5 9)"/></g></svg>