<svg width="347" height="438" viewBox="0 0 347 438" xmlns="http://www.w3.org/2000/svg">
  <g fill="none" fill-rule="evenodd">
    <path d="M314.962 392.546c-6.533-14.876-7.66-27.48-7.834-32.434v-40.75c0-31.13-25.614-56.362-57.208-56.362-31.597 0-57.212 25.233-57.212 56.363V360.7c-.244 5.33-1.528 17.55-7.81 31.846-8.443 19.212-1.455 16.922 4.804 15.342 6.258-1.575 20.234-7.745 24.6-.144 4.364 7.598 8.005 14.196 18.194 9.894 10.19-4.3 14.99-5.734 16.446-5.734h1.98c1.452 0 6.256 1.433 16.444 5.734 10.19 4.302 13.83-2.296 18.196-9.894 4.364-7.6 18.34-1.43 24.6.144 6.258 1.58 13.242 3.87 4.8-15.342m-82.7-98.813c6.162 0 11.157 7.788 11.157 17.397 0 9.608-4.996 17.398-11.158 17.398-6.162 0-11.158-7.79-11.158-17.398 0-9.61 4.996-17.397 11.158-17.397m17.658 69.535c-13.578 0-25.01-13.166-28.453-27.815 6.652 9.01 16.92 14.8 28.453 14.8 11.532 0 21.8-5.79 28.453-14.8-3.444 14.65-14.877 27.815-28.453 27.815m17.66-34.74c-6.168 0-11.16-7.79-11.16-17.398 0-9.61 4.992-17.397 11.16-17.397 6.164 0 11.156 7.788 11.156 17.397 0 9.608-4.992 17.398-11.157 17.398" fill-opacity=".35" fill="#FFF"/>
  </g>
</svg>
