<?xml version="1.0" encoding="utf-8"?>
<svg width="11" height="11" viewBox="0 0 11 11" xmlns="http://www.w3.org/2000/svg">
  <g fill="none" fill-rule="evenodd">
    <path fill="#FFF" d="M7.49 1.234L9.922 3.89l-.157 3.6L7.11 9.922l-3.6-.157L1.078 7.11l.157-3.6L3.89 1.078z"/>
    <path fill="#1DAFED" stroke="#1DAFED" stroke-width=".5" d="M2.788 8.54c.315.315.628.63.944.943.023.023.067.035.103.035 1.077.001 2.153.002 3.23-.001.04 0 .09-.02.117-.048a820.63 820.63 0 0 0 2.285-2.285.184.184 0 0 0 .05-.116c.003-1.08.003-2.16.002-3.24-.001-.03-.008-.068-.026-.088-.316-.321-.635-.64-.95-.956L2.789 8.54m-.436-.433l5.754-5.754c-.308-.309-.621-.623-.937-.936a.16.16 0 0 0-.102-.036 709.213 709.213 0 0 0-3.231 0c-.04 0-.09.02-.118.048-.765.762-1.53 1.525-2.291 2.29a.16.16 0 0 0-.045.1 928.271 928.271 0 0 0 0 3.26c0 .029.01.065.03.085.314.318.631.634.94.943m7.752-2.652c0 .581-.002 1.162.002 1.743a.405.405 0 0 1-.127.31 879.44 879.44 0 0 0-2.47 2.47.398.398 0 0 1-.303.128c-1.17-.003-2.341-.003-3.512 0a.4.4 0 0 1-.302-.126A884.3 884.3 0 0 0 .915 7.503a.385.385 0 0 1-.121-.294c.002-1.17.002-2.342 0-3.513 0-.122.036-.216.123-.303.827-.824 1.653-1.65 2.477-2.477a.388.388 0 0 1 .293-.123c1.174.002 2.348.002 3.523 0 .119 0 .21.038.293.122.827.83 1.655 1.657 2.484 2.484.081.08.12.17.119.285-.004.59-.002 1.181-.002 1.771"/>
  </g>
</svg>