<svg xmlns="http://www.w3.org/2000/svg" width="25" height="25"><g fill="none" transform="translate(1 1)"><circle cx="11.865" cy="11.865" r="11.865" fill="#8459A5" stroke="#86449B" stroke-width=".5"/><path fill="#86449B" d="M17.152 6.847a1.994 1.994 0 0 0-1.462-.607h-6.9c-.57 0-1.058.203-1.463.607A1.995 1.995 0 0 0 6.72 8.31v6.9c0 .57.203 1.058.607 1.463.405.404.893.607 1.463.607h6.9c.57 0 1.058-.203 1.462-.607.405-.405.608-.893.608-1.463v-6.9c0-.57-.203-1.058-.608-1.463zm-5.86 5.991a1.469 1.469 0 0 1-1.079.446 1.469 1.469 0 0 1-1.078-.446 1.469 1.469 0 0 1-.446-1.078c0-.422.15-.781.446-1.078a1.469 1.469 0 0 1 1.078-.446c.422 0 .78.149 1.078.446.291.282.453.672.446 1.078.007.406-.155.796-.446 1.078zm4.053 0a1.468 1.468 0 0 1-1.078.446 1.469 1.469 0 0 1-1.079-.446 1.469 1.469 0 0 1-.445-1.078c0-.422.149-.781.445-1.078a1.469 1.469 0 0 1 1.079-.446c.421 0 .781.149 1.078.446.29.282.452.672.446 1.078.006.406-.155.796-.446 1.078z"/><path fill="#F5A623" d="M16.672 6.367a1.994 1.994 0 0 0-1.462-.607h-6.9c-.57 0-1.058.203-1.463.607A1.995 1.995 0 0 0 6.24 7.83v6.9c0 .57.203 1.058.607 1.463.405.404.893.607 1.463.607h6.9c.57 0 1.058-.203 1.462-.607.405-.405.608-.893.608-1.463v-6.9c0-.57-.203-1.058-.608-1.463zm-5.86 5.991a1.469 1.469 0 0 1-1.079.446 1.469 1.469 0 0 1-1.078-.446 1.469 1.469 0 0 1-.446-1.078c0-.422.15-.781.446-1.078a1.469 1.469 0 0 1 1.078-.446c.422 0 .78.149 1.078.446.291.282.453.672.446 1.078.007.406-.155.796-.446 1.078zm4.053 0a1.468 1.468 0 0 1-1.078.446 1.469 1.469 0 0 1-1.079-.446 1.469 1.469 0 0 1-.445-1.078c0-.422.149-.781.445-1.078a1.469 1.469 0 0 1 1.079-.446c.421 0 .781.149 1.078.446.29.282.452.672.446 1.078.006.406-.155.796-.446 1.078z"/></g></svg>
