<svg width="18" height="18" viewBox="0 0 18 18" xmlns="http://www.w3.org/2000/svg">
  <g fill="none" fill-rule="evenodd">
    <rect fill="#FFE7C0" width="18" height="18" rx="4"/>
    <path d="M2.866 14.328c.9 0 1.65-.635 1.83-1.345.18.71.93 1.247 1.83 1.247s1.654-.53 1.83-1.245c.177.714.93 1.264 1.83 1.264.898 0 1.648-.507 1.83-1.215.18.708.93 1.292 1.827 1.292.437 0 .84-.133 1.157-.34C12.29 9.78 13.972 3 13.972 3 6.276 4.62 2.9 11.827 2 14.145c.26.114.553.183.866.183z" fill="#FFF"/>
  </g>
</svg>
