<svg width="18" height="18" viewBox="0 0 18 18" xmlns="http://www.w3.org/2000/svg">
  <g fill="none" fill-rule="evenodd">
    <rect fill="#FFE7C0" width="18" height="18" rx="4"/>
    <path d="M13.13 12.327c1.074-.717 1.783-1.94 1.783-3.327 0-2.205-1.794-4-4-4-2.205 0-4 1.795-4 4 0 .637.15 1.24.416 1.773.25.05.896.173 1.92.346 1.14.193 1.893.037 2.52-.52.39-.35.624-.83.653-1.353.03-.524-.144-1.028-.493-1.42-.56-.63-1.528-.685-2.16-.125-.503.448-.566 1.23-.14 1.712.335.375.952.418 1.32.09.136-.12.217-.282.225-.454.008-.14-.034-.272-.115-.36-.073-.08-.19-.125-.308-.124-.1.003-.232.043-.317.127-.02.02-.046.03-.075.03-.062 0-.112-.055-.112-.123 0-.042.017-.073.04-.103.127-.175.307-.276.486-.29.243-.022.44.048.595.218.154.17.234.397.22.646-.015.284-.144.547-.364.743-.543.483-1.415.425-1.906-.125-.576-.648-.496-1.7.174-2.298.8-.712 2.033-.64 2.744.16.422.474.635 1.085.598 1.72-.037.634-.318 1.215-.793 1.637-.533.475-1.156.704-1.954.704-.28 0-.584-.028-.912-.083-1.13-.192-2.335-.407-2.497-.43-.812-.108-1.487-.66-1.51-1.47l.207-3.55c0-.23-.185-.415-.415-.415-.23 0-.414.185-.414.414l.135 2.428c.026.517-.45.932-.974.932-.538 0-1.017-.437-.974-.974.023-.297.048-.604.072-.89l.086-1.47c0-.23-.185-.415-.415-.415-.23 0-.415.185-.415.415l.202 3.477C2.267 12.02 3.66 14 6.093 14c2.456-.003 9.418 0 9.418 0 .202 0 .364-.163.364-.362 0-.2-.172-.3-.362-.362-.092-.028-1.084-.503-2.382-.95z" fill="#FFF"/>
  </g>
</svg>
