<?xml version="1.0" encoding="UTF-8"?>
<svg width="10px" height="10px" viewBox="0 0 10 10" version="1.1" xmlns="http://www.w3.org/2000/svg" xmlns:xlink="http://www.w3.org/1999/xlink">
    <!-- Generator: Sketch 48.2 (47327) - http://www.bohemiancoding.com/sketch -->
    <title>Fill 2</title>
    <desc>Created with Sketch.</desc>
    <defs></defs>
    <g id="strong-rewards-notification-Main-Copy-2" stroke="none" stroke-width="1" fill="none" fill-rule="evenodd" transform="translate(-2782.000000, -2929.000000)">
        <g id="Group-25" transform="translate(2176.000000, 2563.000000)" fill="#9B9B9B">
            <path d="M612.718565,371 L615.642492,368.075748 C616.11744,367.601125 616.11744,366.831159 615.642492,366.356211 C615.167545,365.881263 614.397578,365.881263 613.924252,366.356211 L611,369.281435 L608.075748,366.356211 C607.601125,365.881263 606.831159,365.881263 606.356211,366.356211 C605.881263,366.831159 605.881263,367.601125 606.356211,368.075748 L609.280138,371 L606.356211,373.924252 C605.881263,374.398875 605.881263,375.168841 606.356211,375.643789 C606.831159,376.118737 607.601125,376.118737 608.074776,375.643789 L611,372.718565 L613.924252,375.642492 C614.398875,376.11744 615.168841,376.11744 615.643789,375.642492 C616.118737,375.167545 616.118737,374.397578 615.643789,373.922955 L612.718565,371 Z" id="Fill-2"></path>
        </g>
    </g>
</svg>