<?xml version="1.0" encoding="UTF-8" standalone="no"?>
<svg width="13px" height="12px" viewBox="0 0 13 12" version="1.1" xmlns="http://www.w3.org/2000/svg" xmlns:xlink="http://www.w3.org/1999/xlink" style="background: #FFFFFF;">
    <!-- Generator: Sketch 48.2 (47327) - http://www.bohemiancoding.com/sketch -->
    <title>exclusive-icon13x12</title>
    <desc>Created with Sketch.</desc>
    <defs>
        <polygon id="path-1" points="0.332977422 0.202651114 3.91222893 0.202651114 3.91222893 2.79994542 0.332977422 2.79994542"></polygon>
        <polygon id="path-3" points="2.13315318e-20 0.202769163 2.13315318e-20 11.0179246 8.5658855 11.0179246 8.5658855 0.202769163"></polygon>
    </defs>
    <g id="Page-1" stroke="none" stroke-width="1" fill="none" fill-rule="evenodd">
        <g id="exclusive-icon13x12">
            <g id="Group-28" transform="translate(0.277527, 0.369629)">
                <g id="Group-3" transform="translate(7.200810, 0.313421)">
                    <mask id="mask-2" fill="white">
                        <use xlink:href="#path-1"></use>
                    </mask>
                    <g id="Clip-2"></g>
                    <path d="M1.26871402,2.4486944 C1.39542015,2.75326131 1.54809711,2.83274777 1.87666736,2.78867607 C2.55505672,2.69856519 3.23344608,2.61160228 3.91222893,2.52385238 L2.51059152,0.202611764 L0.332977422,0.202611764 C0.645414284,0.951043644 0.957064152,1.69986902 1.26871402,2.4486944" id="Fill-1" fill="#DD9C19" mask="url(#mask-2)"></path>
                </g>
                <path d="M9.33411658,4.13782151 C9.03387813,4.26256016 8.95596567,4.39752973 8.99767638,4.71901703 C9.1113971,5.59415505 9.22511783,6.46929306 9.33765806,7.34443107 L11.8835856,4.11342468 L11.3830571,3.28471935 C10.7003392,3.5692179 10.0168344,3.85332296 9.33411658,4.13782151" id="Fill-4" fill="#DD9C19"></path>
                <g id="Group-8" transform="translate(0.511356, 0.313421)">
                    <mask id="mask-4" fill="white">
                        <use xlink:href="#path-3"></use>
                    </mask>
                    <g id="Clip-7"></g>
                    <path d="M8.55801555,7.34395831 C8.18655409,6.4530804 7.81587963,5.5622025 7.44520516,4.67132459 C7.32951696,4.39430249 7.16778956,4.30891357 6.86637062,4.3490503 C5.9046632,4.47614993 4.94216879,4.60128207 3.97888738,4.72208574 C3.87933256,4.73467766 3.73649304,4.78032335 3.70147178,4.63590983 C3.669205,4.50330124 3.80929004,4.47614993 3.89861393,4.43837419 C4.79696828,4.06061677 5.69689663,3.68679433 6.59643147,3.31218489 C6.88722598,3.19059422 6.97064741,3.05090268 6.93011719,2.73925281 C6.82033144,1.8932336 6.7093652,1.04800138 6.59879246,0.202769163 L2.17194774,0.202769163 L-0.000157398923,3.79972805 L5.6858787,11.0180427 L8.5658855,7.36245268 C8.56352451,7.35615672 8.56077003,7.34986077 8.55801555,7.34395831" id="Fill-6" fill="#DD9C19" mask="url(#mask-4)"></path>
                </g>
            </g>
        </g>
    </g>
</svg>