<svg width="15" height="16" viewBox="0 0 15 16" xmlns="http://www.w3.org/2000/svg">
  <path d="M14.576 13.287c-.711-1.526-.833-2.819-.853-3.327V5.78C13.723 2.589 10.937 0 7.5 0S1.274 2.588 1.274 5.78v4.24c-.027.547-.166 1.8-.85 3.267-.919 1.97-.158 1.735.523 1.573.68-.161 2.201-.794 2.677-.014.474.779.87 1.456 1.98 1.014 1.108-.44 1.63-.588 1.788-.588h.216c.158 0 .68.147 1.79.588 1.108.442 1.504-.235 1.979-1.014.475-.78 1.995-.147 2.676.014.681.162 1.441.397.523-1.573M5.578 3.152c.67 0 1.214.799 1.214 1.784 0 .986-.544 1.785-1.214 1.785-.67 0-1.215-.8-1.215-1.785 0-.985.544-1.784 1.215-1.784m1.92 7.132c-1.477 0-2.72-1.35-3.095-2.853a3.925 3.925 0 0 0 3.096 1.518 3.925 3.925 0 0 0 3.096-1.518c-.375 1.503-1.619 2.853-3.096 2.853M9.42 6.72c-.67 0-1.214-.8-1.214-1.785 0-.985.543-1.784 1.214-1.784.671 0 1.214.799 1.214 1.784 0 .986-.543 1.785-1.214 1.785" fill="#C8C7C2" fill-rule="evenodd"/>
</svg>
