<?xml version="1.0" encoding="UTF-8"?>
<svg width="15px" height="16px" viewBox="0 0 15 16" version="1.1" xmlns="http://www.w3.org/2000/svg" xmlns:xlink="http://www.w3.org/1999/xlink">
    <!-- Generator: Sketch 48.2 (47327) - http://www.bohemiancoding.com/sketch -->
    <title>Fill 3</title>
    <desc>Created with Sketch.</desc>
    <defs></defs>
    <g id="strong-rewards-notification-Main-Copy-2" stroke="none" stroke-width="1" fill="none" fill-rule="evenodd" transform="translate(-2775.000000, -3410.000000)">
        <g id="Group-25" transform="translate(2176.000000, 2563.000000)" fill="#C8C7C2">
            <path d="M613.575874,860.286737 C612.864956,858.760949 612.742619,857.468198 612.723444,856.960238 L612.723444,852.780808 C612.723444,849.588045 609.936532,847 606.498912,847 C603.060908,847 600.2739,849.588045 600.2739,852.780808 L600.2739,857.020655 C600.247247,857.567046 600.107556,858.820367 599.42425,860.286737 C598.505474,862.257162 599.265672,862.022397 599.946772,861.860224 C600.627681,861.698778 602.148364,861.065985 602.623524,861.845597 C603.0983,862.624754 603.494458,863.30161 604.603067,862.860246 C605.711773,862.419335 606.234199,862.272244 606.39249,862.272244 L606.60773,862.272244 C606.765925,862.272244 607.288543,862.419335 608.397057,862.860246 C609.505763,863.30161 609.901825,862.624754 610.376888,861.845597 C610.85176,861.065985 612.372347,861.698778 613.053448,861.860224 C613.734452,862.022397 614.494362,862.257162 613.575874,860.286737 M604.577564,850.152152 C605.248023,850.152152 605.791637,850.950843 605.791637,851.936328 C605.791637,852.921903 605.248023,853.720776 604.577564,853.720776 C603.907106,853.720776 603.363396,852.921903 603.363396,851.936328 C603.363396,850.950843 603.907106,850.152152 604.577564,850.152152 M606.498912,857.283948 C605.021469,857.283948 603.77777,855.933597 603.402992,854.430975 C604.126757,855.355225 605.244092,855.949042 606.498912,855.949042 C607.75354,855.949042 608.870874,855.355225 609.594735,854.430975 C609.219957,855.933597 607.976067,857.283948 606.498912,857.283948 M608.420355,853.720776 C607.749321,853.720776 607.205994,852.921903 607.205994,851.936328 C607.205994,850.950843 607.749321,850.152152 608.420355,850.152152 C609.091101,850.152152 609.634236,850.950843 609.634236,851.936328 C609.634236,852.921903 609.091101,853.720776 608.420355,853.720776" id="Fill-3"></path>
        </g>
    </g>
</svg>