<svg width="28" height="28" viewBox="0 0 28 28" xmlns="http://www.w3.org/2000/svg">
  <g fill="#FFF" fill-rule="evenodd">
    <path d="M21.054 19.727c-1.027-2.266-1.204-4.185-1.232-4.94V8.584c0-4.74-4.025-8.583-8.99-8.583C5.866 0 1.84 3.842 1.84 8.583v6.295c-.038.81-.24 2.672-1.227 4.849-1.327 2.925-.23 2.577.755 2.336.983-.24 3.18-1.18 3.866-.022.686 1.157 1.258 2.162 2.86 1.507 1.6-.655 2.355-.873 2.584-.873h.31c.23 0 .984.218 2.585.873 1.602.655 2.174-.35 2.86-1.507.686-1.157 2.882-.218 3.866.022s2.081.59.755-2.336M8.056 4.68c.969 0 1.754 1.186 1.754 2.649s-.785 2.65-1.754 2.65c-.968 0-1.753-1.187-1.753-2.65 0-1.463.785-2.649 1.753-2.649m2.776 10.588c-2.134 0-3.93-2.004-4.472-4.235 1.045 1.372 2.66 2.254 4.472 2.254 1.812 0 3.426-.882 4.471-2.254-.541 2.23-2.338 4.235-4.471 4.235m2.775-5.29c-.97 0-1.754-1.186-1.754-2.65 0-1.462.785-2.648 1.754-2.648s1.753 1.186 1.753 2.649-.784 2.65-1.753 2.65"/>
    <path d="M26.278 19.193l-3.242 2.593a.66.66 0 0 0-.222.652l.973 3.914a.936.936 0 0 1-.905 1.154.902.902 0 0 1-.494-.15l-3.533-2.125a.63.63 0 0 0-.682 0l-3.498 2.124a.958.958 0 0 1-.512.15c-.563 0-1.075-.518-.905-1.153l.973-3.914a.612.612 0 0 0-.222-.636l-3.157-2.609c-.648-.552-.273-1.606.563-1.656l4.13-.284a.67.67 0 0 0 .563-.402l1.57-3.763a.966.966 0 0 1 1.775 0l1.57 3.763c.085.218.307.368.563.402l4.13.284c.852.05 1.228 1.104.562 1.656z" fill-rule="nonzero" stroke="#5B005C" stroke-width=".887"/>
  </g>
</svg>
