<svg width="16" height="16" viewBox="0 0 16 16" fill="none" xmlns="http://www.w3.org/2000/svg">
	<path d="M2.66732 8.74342L3.71708 12.9425C3.7466 13.0606 3.76136 13.1196 3.77883 13.1712C3.94943 13.6748 4.403 14.029 4.933 14.0724C4.98725 14.0768 5.04812 14.0768 5.16984 14.0768C5.32228 14.0768 5.3985 14.0768 5.4627 14.0706C6.09732 14.009 6.59954 13.5068 6.66109 12.8722C6.66732 12.808 6.66732 12.7317 6.66732 12.5793V3.07676M12.334 8.41009C13.6227 8.41009 14.6673 7.36542 14.6673 6.07676C14.6673 4.7881 13.6227 3.74343 12.334 3.74343M6.83398 3.07676H4.33398C2.67713 3.07676 1.33398 4.41991 1.33398 6.07676C1.33398 7.73362 2.67713 9.07676 4.33398 9.07676H6.83398C8.01158 9.07676 9.45212 9.70802 10.5635 10.3139C11.2119 10.6673 11.536 10.844 11.7484 10.818C11.9452 10.7939 12.0941 10.7055 12.2095 10.5442C12.334 10.3702 12.334 10.0221 12.334 9.32589V2.82762C12.334 2.13143 12.334 1.78333 12.2095 1.60936C12.0941 1.44803 11.9452 1.35963 11.7484 1.33552C11.536 1.30951 11.2119 1.48623 10.5635 1.83967C9.45212 2.4455 8.01158 3.07676 6.83398 3.07676Z" stroke="#CB55CD" stroke-width="1.5" stroke-linecap="round" stroke-linejoin="round"/>
</svg>
