<svg width="16" height="16" viewBox="0 0 16 16" fill="none" xmlns="http://www.w3.org/2000/svg">
	<path d="M6.33398 5.97691C6.33398 5.65872 6.33398 5.49963 6.40048 5.41081C6.45842 5.3334 6.54712 5.28498 6.64357 5.27809C6.75425 5.27019 6.88805 5.35621 7.15572 5.52828L10.3028 7.55142C10.5351 7.70069 10.6512 7.77535 10.6913 7.87029C10.7263 7.95322 10.7263 8.04682 10.6913 8.12975C10.6512 8.22469 10.5351 8.29935 10.3028 8.44862L7.15572 10.4718C6.88805 10.6438 6.75425 10.7299 6.64357 10.722C6.54712 10.7151 6.45842 10.6666 6.40048 10.5892C6.33398 10.5004 6.33398 10.3414 6.33398 10.0232V5.97691Z" stroke="#4ECB4E" stroke-width="1.5" stroke-linecap="round" stroke-linejoin="round"/>
	<path d="M1 5.2C1 4.07989 1 3.51984 1.25432 3.09202C1.47802 2.71569 1.83498 2.40973 2.27402 2.21799C2.77315 2 3.42654 2 4.73333 2H11.2667C12.5735 2 13.2268 2 13.726 2.21799C14.1651 2.40973 14.522 2.71569 14.7457 3.09202C15 3.51984 15 4.07989 15 5.2V10.8C15 11.9201 15 12.4801 14.7457 12.908C14.522 13.2843 14.1651 13.5903 13.726 13.782C13.2268 14 12.5735 14 11.2667 14H4.73333C3.42654 14 2.77315 14 2.27402 13.782C1.83498 13.5903 1.47802 13.2843 1.25432 12.908C1 12.4801 1 11.9201 1 10.8V5.2Z" stroke="#4ECB4E" stroke-width="1.5" stroke-linecap="round" stroke-linejoin="round"/>
</svg>
