<svg width="16" height="16" viewBox="0 0 16 16" fill="none" xmlns="http://www.w3.org/2000/svg">
	<path d="M8.00065 1.33325C9.66818 3.15882 10.6159 5.52794 10.6673 7.99992C10.6159 10.4719 9.66818 12.841 8.00065 14.6666M8.00065 1.33325C6.33313 3.15882 5.38548 5.52794 5.33398 7.99992C5.38548 10.4719 6.33313 12.841 8.00065 14.6666M8.00065 1.33325C4.31875 1.33325 1.33398 4.31802 1.33398 7.99992C1.33398 11.6818 4.31875 14.6666 8.00065 14.6666M8.00065 1.33325C11.6825 1.33325 14.6673 4.31802 14.6673 7.99992C14.6673 11.6818 11.6825 14.6666 8.00065 14.6666M1.66733 5.99992H14.334M1.66732 9.99992H14.334" stroke="#4ECBA1" stroke-width="1.5" stroke-linecap="round" stroke-linejoin="round"/>
</svg>
