<svg width="16" height="16" viewBox="0 0 16 16" fill="none" xmlns="http://www.w3.org/2000/svg">
	<path d="M4.06356 7.48578C4.02212 7.21872 4.00062 6.94518 4.00062 6.66658C4.00062 3.72107 6.40415 1.33325 9.36905 1.33325C12.3339 1.33325 14.7375 3.72107 14.7375 6.66658C14.7375 7.33198 14.6148 7.96892 14.3908 8.55625C14.3442 8.67825 14.3209 8.73925 14.3104 8.78685C14.2999 8.83405 14.2958 8.86725 14.2947 8.91558C14.2936 8.96432 14.3002 9.01805 14.3135 9.12545L14.5818 11.3056C14.6109 11.5416 14.6254 11.6596 14.5861 11.7454C14.5517 11.8206 14.4906 11.8803 14.4147 11.9129C14.328 11.9502 14.2104 11.9329 13.9751 11.8985L11.8517 11.5872C11.7407 11.5709 11.6853 11.5628 11.6348 11.5631C11.5849 11.5634 11.5503 11.5671 11.5014 11.5773C11.452 11.5877 11.3889 11.6114 11.2627 11.6587C10.6738 11.8793 10.0356 11.9999 9.36905 11.9999C9.09025 11.9999 8.81645 11.9788 8.54912 11.9381M5.08837 14.6666C7.06498 14.6666 8.66732 13.025 8.66732 10.9999C8.66732 8.97485 7.06498 7.33325 5.08837 7.33325C3.11177 7.33325 1.50942 8.97485 1.50942 10.9999C1.50942 11.407 1.57417 11.7985 1.69368 12.1644C1.7442 12.3191 1.76946 12.3964 1.77776 12.4492C1.78641 12.5044 1.78792 12.5353 1.7847 12.5911C1.78162 12.6445 1.76826 12.7048 1.74154 12.8255L1.33398 14.6666L3.33052 14.3939C3.4395 14.3791 3.49398 14.3716 3.54156 14.3719C3.59166 14.3723 3.61826 14.375 3.66739 14.3848C3.71405 14.3941 3.78342 14.4185 3.92216 14.4675C4.28771 14.5965 4.68006 14.6666 5.08837 14.6666Z" stroke="#4EA1CB" stroke-width="1.5" stroke-linecap="round" stroke-linejoin="round"/>
</svg>
