<svg width="16" height="16" viewBox="0 0 16 16" fill="none" xmlns="http://www.w3.org/2000/svg">
	<path d="M9.33268 1.51294V4.26663C9.33268 4.64 9.33268 4.82669 9.40535 4.96929C9.46928 5.09473 9.57122 5.19672 9.69668 5.26064C9.83928 5.3333 10.0259 5.3333 10.3993 5.3333H13.153M5.99935 10.6666L7.33268 11.9999L10.3327 8.99992M9.33268 1.33325H5.86602C4.74591 1.33325 4.18586 1.33325 3.75804 1.55124C3.38171 1.74299 3.07575 2.04895 2.884 2.42527C2.66602 2.85309 2.66602 3.41315 2.66602 4.53325V11.4666C2.66602 12.5867 2.66602 13.1467 2.884 13.5746C3.07575 13.9509 3.38171 14.2569 3.75804 14.4486C4.18586 14.6666 4.74591 14.6666 5.86602 14.6666H10.1327C11.2528 14.6666 11.8128 14.6666 12.2407 14.4486C12.617 14.2569 12.9229 13.9509 13.1147 13.5746C13.3327 13.1467 13.3327 12.5867 13.3327 11.4666V5.33325L9.33268 1.33325Z" stroke="#556FCD" stroke-width="1.5" stroke-linecap="round" stroke-linejoin="round"/>
</svg>
