<svg width="16" height="16" viewBox="0 0 16 16" fill="none" xmlns="http://www.w3.org/2000/svg">
	<path d="M6.00065 2.33301V1.33301M3.37442 3.37345L2.66732 2.66634M3.37442 8.66634L2.66732 9.37347M8.66732 3.37345L9.37445 2.66634M2.33398 5.99967H1.33398M10.577 10.7927L8.91578 13.8777C8.72605 14.2301 8.63112 14.4063 8.51698 14.4509C8.41792 14.4896 8.30632 14.4787 8.21665 14.4215C8.11325 14.3557 8.05438 14.1644 7.93652 13.7819L5.63078 6.29651C5.53452 5.98401 5.48638 5.82776 5.52511 5.72223C5.55884 5.63031 5.63128 5.55787 5.7232 5.52414C5.82874 5.48541 5.98498 5.53354 6.29748 5.6298L13.7828 7.93554C14.1653 8.05341 14.3566 8.11234 14.4225 8.21567C14.4797 8.30541 14.4905 8.41694 14.4519 8.51601C14.4073 8.63021 14.231 8.72507 13.8786 8.91487L10.7937 10.576C10.7413 10.6042 10.7151 10.6183 10.6923 10.6364C10.6719 10.6525 10.6535 10.6709 10.6374 10.6913C10.6193 10.7141 10.6052 10.7403 10.577 10.7927Z" stroke="#EF671E" stroke-width="1.5" stroke-linecap="round" stroke-linejoin="round"/>
</svg>
