<svg width="16" height="16" viewBox="0 0 16 16" fill="none" xmlns="http://www.w3.org/2000/svg">
	<path d="M9.33268 7.33301H5.33268M6.66602 9.99967H5.33268M10.666 4.66634H5.33268M13.3327 4.53301V11.4663C13.3327 12.5865 13.3327 13.1465 13.1147 13.5743C12.9229 13.9507 12.617 14.2566 12.2407 14.4483C11.8128 14.6663 11.2528 14.6663 10.1327 14.6663H5.86602C4.74591 14.6663 4.18586 14.6663 3.75804 14.4483C3.38171 14.2566 3.07575 13.9507 2.884 13.5743C2.66602 13.1465 2.66602 12.5865 2.66602 11.4663V4.53301C2.66602 3.4129 2.66602 2.85285 2.884 2.42503C3.07575 2.0487 3.38171 1.74274 3.75804 1.55099C4.18586 1.33301 4.74591 1.33301 5.86602 1.33301H10.1327C11.2528 1.33301 11.8128 1.33301 12.2407 1.55099C12.617 1.74274 12.9229 2.0487 13.1147 2.42503C13.3327 2.85285 13.3327 3.4129 13.3327 4.53301Z" stroke="#FC9734" stroke-width="1.5" stroke-linecap="round" stroke-linejoin="round"/>
</svg>
