<svg width="16" height="16" viewBox="0 0 16 16" fill="none" xmlns="http://www.w3.org/2000/svg">
	<path d="M5.00065 3.00004C5.00065 2.07957 5.74684 1.33337 6.66732 1.33337C7.58778 1.33337 8.33398 2.07957 8.33398 3.00004V4.00004H9.00065C9.93252 4.00004 10.3985 4.00004 10.7661 4.15228C11.2561 4.35527 11.6455 4.74462 11.8484 5.23467C12.0007 5.60221 12.0007 6.06816 12.0007 7.00004H13.0007C13.9211 7.00004 14.6673 7.74624 14.6673 8.66671C14.6673 9.58717 13.9211 10.3334 13.0007 10.3334H12.0007V11.4667C12.0007 12.5868 12.0007 13.1468 11.7827 13.5747C11.5909 13.951 11.285 14.257 10.9087 14.4487C10.4808 14.6667 9.92078 14.6667 8.80065 14.6667H8.33398V13.5C8.33398 12.6716 7.66238 12 6.83398 12C6.00556 12 5.33398 12.6716 5.33398 13.5V14.6667H4.53398C3.41388 14.6667 2.85382 14.6667 2.426 14.4487C2.04968 14.257 1.74372 13.951 1.55197 13.5747C1.33398 13.1468 1.33398 12.5868 1.33398 11.4667V10.3334H2.33398C3.25446 10.3334 4.00065 9.58717 4.00065 8.66671C4.00065 7.74624 3.25446 7.00004 2.33398 7.00004H1.33398C1.33398 6.06816 1.33398 5.60221 1.48622 5.23467C1.68921 4.74462 2.07856 4.35527 2.56862 4.15228C2.93616 4.00004 3.4021 4.00004 4.33398 4.00004H5.00065V3.00004Z" stroke="#A14ECB" stroke-width="1.5" stroke-linecap="round" stroke-linejoin="round"/>
</svg>
