<svg width="16" height="16" viewBox="0 0 16 16" fill="none" xmlns="http://www.w3.org/2000/svg">
	<path d="M4.00065 3.99992H4.00732M4.00065 11.9999H4.00732M3.46732 6.66658H12.534C13.2807 6.66658 13.6541 6.66659 13.9393 6.52126C14.1902 6.39343 14.3942 6.18946 14.522 5.93857C14.6673 5.65336 14.6673 5.27999 14.6673 4.53325V3.46659C14.6673 2.71985 14.6673 2.34648 14.522 2.06127C14.3942 1.81038 14.1902 1.60641 13.9393 1.47858C13.6541 1.33325 13.2807 1.33325 12.534 1.33325H3.46732C2.72058 1.33325 2.34721 1.33325 2.062 1.47858C1.81111 1.60641 1.60714 1.81038 1.47931 2.06127C1.33398 2.34648 1.33398 2.71985 1.33398 3.46659V4.53325C1.33398 5.27999 1.33398 5.65336 1.47931 5.93857C1.60714 6.18946 1.81111 6.39343 2.062 6.52126C2.34721 6.66659 2.72058 6.66658 3.46732 6.66658ZM3.46732 14.6666H12.534C13.2807 14.6666 13.6541 14.6666 13.9393 14.5213C14.1902 14.3935 14.3942 14.1895 14.522 13.9386C14.6673 13.6534 14.6673 13.28 14.6673 12.5333V11.4666C14.6673 10.7199 14.6673 10.3465 14.522 10.0613C14.3942 9.81038 14.1902 9.60639 13.9393 9.47859C13.6541 9.33325 13.2807 9.33325 12.534 9.33325H3.46732C2.72058 9.33325 2.34721 9.33325 2.062 9.47859C1.81111 9.60639 1.60714 9.81038 1.47931 10.0613C1.33398 10.3465 1.33398 10.7199 1.33398 11.4666V12.5333C1.33398 13.28 1.33398 13.6534 1.47931 13.9386C1.60714 14.1895 1.81111 14.3935 2.062 14.5213C2.34721 14.6666 2.72058 14.6666 3.46732 14.6666Z" stroke="#8459A5" stroke-width="1.5" stroke-linecap="round" stroke-linejoin="round"/>
</svg>
