<svg width="16" height="16" viewBox="0 0 16 16" fill="none" xmlns="http://www.w3.org/2000/svg">
	<path d="M5 8H5.00667M8 8H8.00667M11 8H11.0067M5.33333 8C5.33333 8.18407 5.18409 8.33333 5 8.33333C4.81591 8.33333 4.66667 8.18407 4.66667 8C4.66667 7.81593 4.81591 7.66667 5 7.66667C5.18409 7.66667 5.33333 7.81593 5.33333 8ZM8.33333 8C8.33333 8.18407 8.18407 8.33333 8 8.33333C7.81593 8.33333 7.66667 8.18407 7.66667 8C7.66667 7.81593 7.81593 7.66667 8 7.66667C8.18407 7.66667 8.33333 7.81593 8.33333 8ZM11.3333 8C11.3333 8.18407 11.1841 8.33333 11 8.33333C10.8159 8.33333 10.6667 8.18407 10.6667 8C10.6667 7.81593 10.8159 7.66667 11 7.66667C11.1841 7.66667 11.3333 7.81593 11.3333 8ZM14 8C14 11.3137 11.3137 14 8 14C4.68629 14 2 11.3137 2 8C2 4.68629 4.68629 2 8 2C11.3137 2 14 4.68629 14 8Z" stroke="#CB4EA1" stroke-width="1.5" stroke-linecap="round" stroke-linejoin="round"/>
</svg>
