<svg width="16" height="16" viewBox="0 0 16 16" fill="none" xmlns="http://www.w3.org/2000/svg">
	<path d="M1.33398 6.2V9.8C1.33398 10.9201 1.33398 11.4801 1.55197 11.908C1.74372 12.2843 2.04968 12.5903 2.426 12.782C2.85382 13 3.41388 13 4.53398 13H11.4673C12.5875 13 13.1474 13 13.5753 12.782C13.9516 12.5903 14.2576 12.2843 14.4493 11.908C14.6673 11.4801 14.6673 10.9201 14.6673 9.8V6.2C14.6673 5.07989 14.6673 4.51985 14.4493 4.09202C14.2576 3.71569 13.9516 3.40973 13.5753 3.21799C13.1474 3 12.5875 3 11.4673 3H4.53398C3.41388 3 2.85382 3 2.426 3.21799C2.04968 3.40973 1.74372 3.71569 1.55197 4.09202C1.33398 4.51984 1.33398 5.07989 1.33398 6.2Z" stroke="#CB4E4E" stroke-width="1.5" stroke-linecap="round" stroke-linejoin="round"/>
	<path d="M3.5 7L5.3 9" stroke="#CB4E4E" stroke-width="1.5" stroke-linecap="round" stroke-linejoin="round"/>
	<path d="M7.10156 7L8.90156 9" stroke="#CB4E4E" stroke-width="1.5" stroke-linecap="round" stroke-linejoin="round"/>
	<path d="M10.6992 7L12.4992 9" stroke="#CB4E4E" stroke-width="1.5" stroke-linecap="round" stroke-linejoin="round"/>
	<path d="M5.30078 7L3.50078 9" stroke="#CB4E4E" stroke-width="1.5" stroke-linecap="round" stroke-linejoin="round"/>
	<path d="M8.89844 7L7.09844 9" stroke="#CB4E4E" stroke-width="1.5" stroke-linecap="round" stroke-linejoin="round"/>
	<path d="M12.5 7L10.7 9" stroke="#CB4E4E" stroke-width="1.5" stroke-linecap="round" stroke-linejoin="round"/>
</svg>
