<svg width="16" height="16" viewBox="0 0 16 16" fill="none" xmlns="http://www.w3.org/2000/svg">
	<path d="M14 14H3.06667C2.6933 14 2.50661 14 2.36401 13.9273C2.23857 13.8634 2.13658 13.7615 2.07266 13.636C2 13.4934 2 13.3067 2 12.9333V2M14 4.66667L10.3771 8.28953C10.2451 8.42153 10.1791 8.48753 10.103 8.51227C10.0361 8.53407 9.96393 8.53407 9.897 8.51227C9.82087 8.48753 9.75487 8.42153 9.62287 8.28953L8.37713 7.0438C8.24513 6.9118 8.17913 6.8458 8.103 6.82107C8.03607 6.79927 7.96393 6.79927 7.897 6.82107C7.82087 6.8458 7.75487 6.9118 7.62287 7.0438L4.66667 10M14 4.66667H11.3333M14 4.66667V7.33333" stroke="#87D7EF" stroke-width="1.5" stroke-linecap="round" stroke-linejoin="round"/>
</svg>
