<svg width="16" height="16" viewBox="0 0 16 16" fill="none" xmlns="http://www.w3.org/2000/svg">
	<path d="M5.66667 8.33333C5.66667 8.33333 6.54167 9.33333 8 9.33333C9.45833 9.33333 10.3333 8.33333 10.3333 8.33333M9.83333 5H9.84M6.16667 5H6.17333M4.66667 12V13.557C4.66667 13.9123 4.66667 14.0899 4.73949 14.1811C4.80281 14.2604 4.89885 14.3066 5.00036 14.3065C5.11709 14.3063 5.25578 14.1954 5.53317 13.9735L7.12347 12.7012C7.44833 12.4413 7.6108 12.3114 7.79167 12.219C7.95213 12.137 8.12293 12.0771 8.29947 12.0409C8.49847 12 8.70647 12 9.12247 12H10.8C11.9201 12 12.4801 12 12.908 11.782C13.2843 11.5903 13.5903 11.2843 13.782 10.908C14 10.4801 14 9.92013 14 8.8V5.2C14 4.07989 14 3.51984 13.782 3.09202C13.5903 2.71569 13.2843 2.40973 12.908 2.21799C12.4801 2 11.9201 2 10.8 2H5.2C4.07989 2 3.51984 2 3.09202 2.21799C2.71569 2.40973 2.40973 2.71569 2.21799 3.09202C2 3.51984 2 4.07989 2 5.2V9.33333C2 9.95333 2 10.2633 2.06815 10.5177C2.25308 11.2078 2.79218 11.7469 3.48236 11.9319C3.73669 12 4.04669 12 4.66667 12ZM10.1667 5C10.1667 5.18409 10.0174 5.33333 9.83333 5.33333C9.64927 5.33333 9.5 5.18409 9.5 5C9.5 4.81591 9.64927 4.66667 9.83333 4.66667C10.0174 4.66667 10.1667 4.81591 10.1667 5ZM6.5 5C6.5 5.18409 6.35076 5.33333 6.16667 5.33333C5.98257 5.33333 5.83333 5.18409 5.83333 5C5.83333 4.81591 5.98257 4.66667 6.16667 4.66667C6.35076 4.66667 6.5 4.81591 6.5 5Z" stroke="#CBA14E" stroke-width="1.5" stroke-linecap="round" stroke-linejoin="round"/>
</svg>
