<svg width="16" height="16" viewBox="0 0 16 16" fill="none" xmlns="http://www.w3.org/2000/svg">
	<path d="M8.66732 4.66667L7.92365 3.17928C7.70958 2.7512 7.60258 2.53715 7.44292 2.38077C7.30172 2.24249 7.13152 2.13731 6.94472 2.07287C6.73345 2 6.49412 2 6.01551 2H3.46732C2.72058 2 2.34721 2 2.062 2.14533C1.81111 2.27315 1.60714 2.47713 1.47931 2.72801C1.33398 3.01323 1.33398 3.3866 1.33398 4.13333V4.66667M6.56738 7.8348C6.68485 7.50093 6.91672 7.21933 7.22185 7.04C7.52705 6.8606 7.88585 6.79507 8.23472 6.85493C8.58358 6.91473 8.90005 7.09613 9.12798 7.36693C9.35598 7.63773 9.48072 7.98047 9.48018 8.33447C9.48018 9.33373 7.98132 9.83333 7.98132 9.83333M8.00065 11.8333H8.00732M1.33398 4.66667H11.4673C12.5875 4.66667 13.1475 4.66667 13.5753 4.88465C13.9516 5.0764 14.2576 5.38236 14.4493 5.75869C14.6673 6.18651 14.6673 6.74653 14.6673 7.86667V10.8C14.6673 11.9201 14.6673 12.4801 14.4493 12.908C14.2576 13.2843 13.9516 13.5903 13.5753 13.782C13.1475 14 12.5875 14 11.4673 14H4.53398C3.41388 14 2.85382 14 2.426 13.782C2.04968 13.5903 1.74372 13.2843 1.55197 12.908C1.33398 12.4801 1.33398 11.9201 1.33398 10.8V4.66667Z" stroke="#818181" stroke-width="1.5" stroke-linecap="round" stroke-linejoin="round"/>
</svg>
