<?xml version="1.0" encoding="UTF-8"?>
<svg width="777px" height="353px" viewBox="0 0 777 353" version="1.1" xmlns="http://www.w3.org/2000/svg" xmlns:xlink="http://www.w3.org/1999/xlink">
    <!-- Generator: Sketch 51.2 (57519) - http://www.bohemiancoding.com/sketch -->
    <title>group-37</title>
    <desc>Created with Sketch.</desc>
    <defs></defs>
    <g id="Page-1" stroke="none" stroke-width="1" fill="none" fill-rule="evenodd">
        <g id="group-37" transform="translate(-17.000000, -5.000000)" fill-rule="nonzero">
            <polygon id="Shape" points="0 0 822 0 822 362 0 362"></polygon>
            <path d="M454,28.23 C454.552,28.23 455,27.78 455,27.227 C455,26.673 454.552,26.224 454,26.224 C448.48,26.218 444.006,21.734 444,16.2 C444.016459,15.8320657 443.829541,15.4848132 443.513361,15.2959299 C443.197182,15.1070466 442.802818,15.1070466 442.486639,15.2959299 C442.170459,15.4848132 441.983541,15.8320657 442,16.2 C441.994,21.705 437.564,26.178 432.072,26.224 L432,26.224 C431.448,26.224 431,26.674 431,27.227 C431,27.781 431.448,28.23 432,28.23 C437.52,28.236 441.993,32.72 442,38.254 C441.983541,38.6219343 442.170459,38.9691868 442.486639,39.1580701 C442.802818,39.3469534 443.197182,39.3469534 443.513361,39.1580701 C443.829541,38.9691868 444.016459,38.6219343 444,38.254 C444.006,32.748 448.436,28.276 453.928,28.23 L454,28.23 Z M443.205,33.652 C441.989852,30.8739065 439.775151,28.6538523 437,27.432 C439.77532,26.2103941 441.990099,23.9902617 443.205,21.212 C444.420148,23.9900935 446.634849,26.2101477 449.41,27.432 C446.63468,28.6536059 444.419901,30.8737383 443.205,33.652 Z M54.514,165.676 C44.987,165.666 37.267,157.926 37.257,148.376 C37.2734586,148.008066 37.0865412,147.660813 36.7703614,147.47193 C36.4541817,147.283047 36.0598183,147.283047 35.7436386,147.47193 C35.4274588,147.660813 35.2405414,148.008066 35.257,148.376 C35.247,157.926 27.527,165.666 18,165.676 C17.448,165.676 17,166.126 17,166.679 C17,167.232 17.448,167.681 18,167.681 C27.526,167.691 35.246,175.431 35.257,184.981 C35.2405414,185.348934 35.4274588,185.696187 35.7436386,185.88507 C36.0598183,186.073953 36.4541817,186.073953 36.7703614,185.88507 C37.0865412,185.696187 37.2734586,185.348934 37.257,184.981 C37.267,175.431 44.987,167.691 54.514,167.681 C55.0676655,167.681 55.5165,167.232165 55.5165,166.6785 C55.5165,166.124835 55.0676655,165.676 54.514,165.676 Z M36.127,178.706 C34.2000741,172.985028 29.7160338,168.489525 24,166.548 C29.7158111,164.606683 34.1998109,160.11159 36.127,154.391 C38.0541891,160.11159 42.5381889,164.606683 48.254,166.548 C42.5384115,168.48911 38.0544524,172.983791 36.127,178.704 L36.127,178.706 Z M693,314.001 L693,318.011 L697,318.011 C697.552,318.011 698,318.461 698,319.014 C698,319.567 697.552,320.016 697,320.016 L693,320.016 L693,324.026 C693.016459,324.393934 692.829541,324.741187 692.513361,324.93007 C692.197182,325.118953 691.802818,325.118953 691.486639,324.93007 C691.170459,324.741187 690.983541,324.393934 691,324.026 L691,320.016 L687,320.016 C686.446335,320.016 685.9975,319.567165 685.9975,319.0135 C685.9975,318.459835 686.446335,318.011 687,318.011 L691,318.011 L691,314.001 C690.983541,313.633066 691.170459,313.285813 691.486639,313.09693 C691.802818,312.908047 692.197182,312.908047 692.513361,313.09693 C692.829541,313.285813 693.016459,313.633066 693,314.001 Z M759.3,83.303 L761.592,81.005 L759.299,78.706 C758.912577,78.3136162 758.914362,77.6831897 759.303,77.293 C759.69148,76.9030719 760.322314,76.9012823 760.713,77.289 L763.006,79.587 L765.299,77.289 C765.690002,76.9031623 766.3193,76.905844 766.707,77.295 C767.095,77.684 767.097,78.314 766.713,78.706 L764.42,81.005 L766.713,83.303 C766.967875,83.5559722 767.068233,83.9258096 766.976193,84.2729192 C766.884153,84.6200289 766.613733,84.8915506 766.267,84.985 C765.920336,85.0773859 765.55076,84.9765924 765.299,84.721 L763.006,82.422 L760.713,84.721 C760.461509,84.9786093 760.090765,85.0808013 759.742804,84.9884258 C759.394842,84.8960503 759.123603,84.6234273 759.033,84.275 C758.941,83.927 759.043,83.555 759.299,83.303 L759.3,83.303 Z M81.712,351.013 L80.419,352.309 L81.712,353.605 C81.9663491,353.858011 82.0663661,354.227514 81.9743639,354.574276 C81.8823616,354.921038 81.6123226,355.192358 81.266,355.286 C80.9193365,355.378386 80.5497603,355.277592 80.298,355.022 L79.005,353.726 L77.712,355.022 C77.4606497,355.279617 77.0900573,355.381937 76.7421345,355.289779 C76.3942117,355.197621 76.1228644,354.925263 76.032,354.577 C75.94,354.228 76.042,353.857 76.298,353.605 L77.591,352.309 L76.298,351.013 C75.9109161,350.620497 75.9127017,349.989306 76.302,349.599 C76.6904803,349.209072 77.3213136,349.207282 77.712,349.595 L79.005,350.891 L80.298,349.595 C80.6890021,349.209162 81.3183004,349.211844 81.706,349.601 C82.094,349.991 82.096,350.621 81.712,351.013 Z M437.712,353.091 L436.419,354.388 L437.712,355.684 C437.966349,355.937011 438.066366,356.306514 437.974364,356.653276 C437.882362,357.000038 437.612323,357.271358 437.266,357.365 C436.919336,357.457386 436.54976,357.356592 436.298,357.101 L435.005,355.805 L433.712,357.101 C433.460509,357.358609 433.089765,357.460801 432.741804,357.368426 C432.393842,357.27605 432.122603,357.003427 432.032,356.655 C431.94,356.307 432.042,355.936 432.298,355.684 L433.591,354.388 L432.298,353.091 C431.911577,352.698616 431.913362,352.06819 432.302,351.678 C432.69048,351.288072 433.321314,351.286282 433.712,351.674 L435.005,352.97 L436.298,351.674 C436.689002,351.288162 437.3183,351.290844 437.706,351.68 C438.094,352.07 438.096,352.699 437.712,353.091 Z M188.3,293.717 L187.007,292.421 L185.714,293.717 C185.462509,293.974609 185.091765,294.076801 184.743804,293.984426 C184.395842,293.89205 184.124603,293.619427 184.034,293.271 C183.942,292.923 184.044,292.551 184.3,292.299 L185.593,291.003 L184.3,289.707 C183.913577,289.314616 183.915362,288.68419 184.304,288.294 C184.69248,287.904072 185.323314,287.902282 185.714,288.29 L187.007,289.586 L188.3,288.29 C188.691002,287.904162 189.3203,287.906844 189.708,288.296 C190.096,288.685 190.098,289.315 189.714,289.707 L188.421,291.003 L189.714,292.299 C189.968875,292.551972 190.069233,292.92181 189.977193,293.268919 C189.885153,293.616029 189.614733,293.887551 189.268,293.981 C188.921336,294.073386 188.55176,293.972592 188.3,293.717 Z M785,187.002 L785,195.022 L793,195.022 C793.552,195.022 794,195.471 794,196.025 C794,196.578 793.552,197.027 793,197.027 L785,197.027 L785,205.047 C785.016459,205.414934 784.829541,205.762187 784.513361,205.95107 C784.197182,206.139953 783.802818,206.139953 783.486639,205.95107 C783.170459,205.762187 782.983541,205.414934 783,205.047 L783,197.027 L775,197.027 C774.446335,197.027 773.9975,196.578165 773.9975,196.0245 C773.9975,195.470835 774.446335,195.022 775,195.022 L783,195.022 L783,187.002 C782.983541,186.634066 783.170459,186.286813 783.486639,186.09793 C783.802818,185.909047 784.197182,185.909047 784.513361,186.09793 C784.829541,186.286813 785.016459,186.634066 785,187.002 Z M379,11.015 C378.999452,11.5673818 378.55238,12.0153481 378,12.017 L374,12.017 L374,16.027 C374.016459,16.3949343 373.829541,16.7421868 373.513361,16.9310701 C373.197182,17.1199534 372.802818,17.1199534 372.486639,16.9310701 C372.170459,16.7421868 371.983541,16.3949343 372,16.027 L372,12.017 L368,12.017 C367.446335,12.017 366.9975,11.5681655 366.9975,11.0145 C366.9975,10.4608345 367.446335,10.012 368,10.012 L372,10.012 L372,6.002 C371.983541,5.63406575 372.170459,5.28681316 372.486639,5.0979299 C372.802818,4.90904665 373.197182,4.90904665 373.513361,5.0979299 C373.829541,5.28681316 374.016459,5.63406575 374,6.002 L374,10.012 L378,10.012 C378.265901,10.0114638 378.521022,10.1170609 378.708761,10.3053631 C378.8965,10.4936654 379.001333,10.7491017 379,11.015 Z" id="Shape" fill="#FFFFFF" opacity="0.599"></path>
        </g>
    </g>
</svg>