<svg xmlns="http://www.w3.org/2000/svg" width="26" height="26" viewBox="0 0 26 26">
  <defs>
    <style>.cls-1{isolation:isolate;}.cls-2{fill:#becfb3;stroke:#818c7a;}.cls-3{fill:#f3c29f;}.cls-4{fill:#ebab83;}.cls-5{fill:#c9a085;}.cls-6{opacity:0.5;}.cls-15,.cls-6{mix-blend-mode:multiply;}.cls-7{fill:#fff;}.cls-8{fill:#f1f1f1;}.cls-9{fill:#3f4857;}.cls-10{fill:#4e596b;}.cls-11{fill:#d9d9d9;}.cls-12{fill:#c7c7c7;}.cls-13{fill:#333a47;}.cls-14{fill:#252a33;}.cls-15{opacity:0.1;}</style>
  </defs>
  <title>Consent</title>
  <g class="cls-1">
    <g id="Layer_1" data-name="Layer 1">
      <circle class="cls-2" cx="13" cy="13" r="11.86" />
      <path class="cls-3" d="M12.18,15.77c.66.52,1.66,1.25,2.3,1.73a.84.84,0,0,0,1.15-.16h0a.84.84,0,0,0-.1-1.14,15.87,15.87,0,0,0-1.86-1.44,17.29,17.29,0,0,1,2,1.52.81.81,0,0,0,1.14-.08l0,0a.78.78,0,0,0,0-1c-4.05-4.35-6.71-4.88-6.71-4.88L7.4,14.1a14.12,14.12,0,0,0,4.8,5.17.59.59,0,0,0,.7-.06h0a.59.59,0,0,0,0-.91l-1.34-1,1.8,1.36a.75.75,0,0,0,1.09-.19h0a.75.75,0,0,0-.16-1Z" />
      <path class="cls-4" d="M15.73,10.37s-.28.4-1,0a4.12,4.12,0,0,0-2.54-.53c-.36.18-2,1.44-2.89,2.09a.51.51,0,0,0,.13.88,1.86,1.86,0,0,0,1.3,0c1.31-.46.95-1.2,2.36-1a35.86,35.86,0,0,1,3.79,3.45l1.62-1.21Z" />
      <path class="cls-5" d="M15.59,16.26a19,19,0,0,1-2-1.56,6.25,6.25,0,0,1,2.06,1.58Z" />
      <path class="cls-5" d="M14.06,17.21a18.79,18.79,0,0,1-2-1.55,6.14,6.14,0,0,1,2.06,1.57Z" />
      <path class="cls-5" d="M12.93,18.33a18.79,18.79,0,0,1-2-1.55A6.14,6.14,0,0,1,13,18.35Z" />
      <g class="cls-6">
        <path d="M12.53,18a.05.05,0,0,1,0,0,.6.6,0,0,0-.28-.33h0a.56.56,0,0,0-.21-.06h0a.59.59,0,0,0-.54.3l-.32.59q.45.35,1,.69l.41-.69A.59.59,0,0,0,12.53,18Z" />
        <path d="M11.41,16.1l0,0a.59.59,0,0,0-.77.25L10,17.52c.28.26.58.53.9.79l.75-1.39A.57.57,0,0,0,11.41,16.1Z" />
        <path d="M10.42,14.87l0,0a.63.63,0,0,0-.83.26l-.63,1.25c.26.31.55.63.88,1l0,0,.83-1.53A.62.62,0,0,0,10.42,14.87Z" />
        <path d="M8.85,14.9l0,0a.57.57,0,0,0-.76.24l0,0c.2.3.45.65.76,1l0,0,.27-.44A.59.59,0,0,0,8.85,14.9Z" />
      </g>
      <path class="cls-4" d="M11.28,17.81l-.51.93a.59.59,0,0,0,.23.79h0a.58.58,0,0,0,.78-.21l.55-.92a.58.58,0,0,0-.25-.82h0A.58.58,0,0,0,11.28,17.81Z" />
      <path class="cls-4" d="M10.47,16.25l-.74,1.44a.58.58,0,0,0,.23.79h0a.58.58,0,0,0,.78-.21l.77-1.43a.57.57,0,0,0-.24-.82l0,0A.59.59,0,0,0,10.47,16.25Z" />
      <path class="cls-4" d="M9.42,15l-.79,1.55a.63.63,0,0,0,.25.85h0a.62.62,0,0,0,.83-.23l.83-1.53a.62.62,0,0,0-.26-.88l0,0A.63.63,0,0,0,9.42,15Z" />
      <path class="cls-4" d="M7.9,15l-.23.46a.59.59,0,0,0,.23.79h0a.58.58,0,0,0,.78-.21L9,15.64a.59.59,0,0,0-.24-.82l0,0A.58.58,0,0,0,7.9,15Z" />
      <path class="cls-3" d="M8,15.28l.74.43S9,15.18,8.62,15,8,15.28,8,15.28Z" />
      <path class="cls-3" d="M9.54,15.28l.74.43s.35-.53-.08-.74S9.54,15.28,9.54,15.28Z" />
      <path class="cls-3" d="M10.53,16.51l.74.43s.35-.53-.07-.74S10.53,16.51,10.53,16.51Z" />
      <path class="cls-3" d="M11.35,18l.74.43s.35-.53-.08-.74S11.35,18,11.35,18Z" />
      <polygon class="cls-7" points="9.76 9.37 7.49 12.46 8.31 13 10.51 9.93 9.76 9.37" />
      <polygon class="cls-8" points="6.43 13.9 7.26 14.46 8.31 13 7.49 12.46 6.43 13.9" />
      <polygon class="cls-9" points="7.43 12.42 3.97 10.13 2.5 12.11 5.91 14.6 6.43 13.9 7.49 12.46 7.43 12.42" />
      <polygon class="cls-10" points="6.76 6.41 3.97 10.13 7.43 12.42 7.49 12.46 9.76 9.37 10.19 8.79 6.76 6.41" />
      <polygon class="cls-11" points="16.19 9.41 15.45 9.99 17.44 12.66 18.25 12.11 16.19 9.41" />
      <polygon class="cls-12" points="17.44 12.66 18.79 14.46 19.61 13.88 18.25 12.11 17.44 12.66" />
      <polygon class="cls-13" points="18.32 12.07 21.75 9.76 19.14 6.4 15.75 8.84 16.19 9.41 16.29 9.33 18.32 12.07" />
      <polygon class="cls-14" points="21.75 9.76 18.32 12.07 18.25 12.11 19.61 13.88 20.14 14.57 23.5 12.02 21.75 9.76" />
      <polygon class="cls-13" points="18.32 12.07 16.29 9.33 16.19 9.41 18.25 12.11 18.32 12.07" />
      <path class="cls-15" d="M13.11,11.86a39,39,0,0,1,3.79,3.45l.41-.31A28.24,28.24,0,0,0,13.11,11.86Z" />
    </g>
  </g>
</svg>