<?xml version="1.0" encoding="UTF-8" standalone="no"?>
<svg width="20px" height="20px" viewBox="0 0 20 20" version="1.1" xmlns="http://www.w3.org/2000/svg" xmlns:xlink="http://www.w3.org/1999/xlink">
    <!-- Generator: Sketch 50.2 (55047) - http://www.bohemiancoding.com/sketch -->
    <title>information-outline</title>
    <desc>Created with Sketch.</desc>
    <defs></defs>
    <g id="Android_Ghostery" stroke="none" stroke-width="1" fill="none" fill-rule="evenodd">
        <g id="Cliqz:-Home" transform="translate(-30.000000, -450.000000)" fill="#9B9B9B" fill-rule="nonzero">
            <g id="Group-8" transform="translate(0.000000, 336.000000)">
                <g id="Group-7">
                    <g id="Group-17" transform="translate(30.000000, 106.000000)">
                        <g id="information-outline" transform="translate(0.000000, 8.000000)">
                            <path d="M8.73529431,6.79411779 L10.6764708,6.79411779 L10.6764708,4.85294128 L8.73529431,4.85294128 L8.73529431,6.79411779 Z M9.70588256,17.4705886 C5.42558835,17.4705886 1.94117651,13.9861768 1.94117651,9.70588256 C1.94117651,5.42558835 5.42558835,1.94117651 9.70588256,1.94117651 C13.9861768,1.94117651 17.4705886,5.42558835 17.4705886,9.70588256 C17.4705886,13.9861768 13.9861768,17.4705886 9.70588256,17.4705886 Z M9.70588256,-1.3061438e-17 C4.34547164,-2.1682003e-15 -1.3061438e-17,4.34547164 -4.4408921e-16,9.70588256 C-1.73717253e-15,12.2800427 1.02258112,14.7487719 2.84278719,16.5689779 C4.66299325,18.389184 7.13172246,19.4117651 9.70588256,19.4117651 C12.2800427,19.4117651 14.7487719,18.389184 16.5689779,16.5689779 C18.389184,14.7487719 19.4117651,12.2800427 19.4117651,9.70588256 C19.4117651,7.13172246 18.389184,4.66299325 16.5689779,2.84278719 C14.7487719,1.02258112 12.2800427,-2.28575324e-16 9.70588256,-4.4408921e-16 Z M8.73529431,14.5588238 L10.6764708,14.5588238 L10.6764708,8.73529431 L8.73529431,8.73529431 L8.73529431,14.5588238 Z" id="Shape"></path>
                        </g>
                    </g>
                </g>
            </g>
        </g>
    </g>
</svg>
