<svg xmlns="http://www.w3.org/2000/svg" width="225" height="87"><defs><linearGradient id="a" x1="-559.602%" x2="190.787%" y1="-62.407%" y2="75.961%"><stop offset="0%" stop-color="#EAB969"/><stop offset="100%" stop-color="#F1D89E"/></linearGradient><linearGradient id="b" x1="-3.39%" x2="97.76%" y1="40.332%" y2="63.762%"><stop offset="0%" stop-color="#B8860B"/><stop offset="100%" stop-color="#F1D89E"/></linearGradient><linearGradient id="c" x1="4.668%" x2="95.82%" y1="32.389%" y2="67.805%"><stop offset="0%" stop-color="#B8860B"/><stop offset="100%" stop-color="#F1D89E"/></linearGradient><linearGradient id="d" x1="-47.502%" x2="148.439%" y1="-4.56%" y2="105.092%"><stop offset="0%" stop-color="#B8860B"/><stop offset="100%" stop-color="#F1D89E"/></linearGradient><linearGradient id="e" x1="-133.018%" x2="232.701%" y1="-60.827%" y2="171.234%"><stop offset="0%" stop-color="#B8860B"/><stop offset="100%" stop-color="#F1D89E"/></linearGradient><linearGradient id="f" x1="-16.153%" x2="617.453%" y1="37.881%" y2="154.004%"><stop offset="0%" stop-color="#B8860B"/><stop offset="100%" stop-color="#F1D89E"/></linearGradient><linearGradient id="g" x1="-1.877%" x2="103.227%" y1="34.398%" y2="65.249%"><stop offset="0%" stop-color="#B0800B"/><stop offset="100%" stop-color="#F1D89E"/></linearGradient><linearGradient id="h" x1="-32.744%" x2="88.407%" y1="47.549%" y2="51.098%"><stop offset="0%" stop-color="#B8860B"/><stop offset="100%" stop-color="#F1D89E"/></linearGradient><linearGradient id="i" x1=".001%" x2="100.054%" y1="49.927%" y2="49.927%"><stop offset="0%" stop-color="#B8860B"/><stop offset="100%" stop-color="#F1D89E"/></linearGradient></defs><g fill="none"><path fill="#FFF" d="M141.768 80.685v-8.697h-15.215v8.697c0 2.29-2.842 4.228-5.892 5.626h26.994c-3.045-1.398-5.887-3.336-5.887-5.626z"/><path fill="#4A4A4A" d="M142.454 81.027v-9.821a.617.617 0 00-.582-.639h-15.428a.628.628 0 00-.61.639v9.82c0 2.098-3.95 4.173-6.48 5.285h2.815c2.25-1.2 4.878-3.071 4.878-5.284v-9.232h14.222v9.232c0 2.202 2.628 4.084 4.877 5.284h2.81c-2.54-1.112-6.502-3.187-6.502-5.284z"/><path fill="url(#a)" d="M219.065 2.626H208.3c-1.9.012-3.434 1.561-3.434 3.468S206.4 9.55 208.3 9.562h10.765c1.899-.015 3.43-1.563 3.43-3.468s-1.531-3.453-3.43-3.468z"/><path fill="url(#b)" d="M89.688.49h96.649a3.066 3.066 0 013.028 3.088V16.02h11.095a5.326 5.326 0 014.756 2.62c.99 1.68.99 3.766 0 5.445a5.322 5.322 0 01-4.756 2.62h-11.095v6.364h17.772c2.94 0 5.322 2.39 5.322 5.34 0 2.949-2.383 5.34-5.322 5.34h-4.938c-1.415 0-2.77.57-3.766 1.578a5.334 5.334 0 00-1.534 3.794 5.399 5.399 0 001.536 3.75 5.202 5.202 0 003.764 1.331h10.123c2.836 0 5.136 2.307 5.136 5.153 0 2.846-2.3 5.152-5.136 5.152h-22.957l-102.69.617V3.578c-.01-.81.302-1.592.868-2.172A3.034 3.034 0 0189.688.49z"/><path fill="#FFF" d="M91.46 5.048h92.984v55.467H91.46zm97.664 59.762v3.572a2.929 2.929 0 01-2.996 2.813H90.516a2.916 2.916 0 01-3-2.813v-3.573h101.608z"/><path fill="#FFF" d="M157.087 29.066c.763 1.1 1.646 2.312 1.646 3.716 0 1.403-.867 2.631-1.646 3.716a8.933 8.933 0 00-1.224 2.119 5.86 5.86 0 00-.23 1.398h7.237l-2.271-7.233 2.271-7.228h-7.237c.017.481.095.958.23 1.42a8.92 8.92 0 001.224 2.092zm-38.248 7.432c-.763-1.101-1.646-2.318-1.646-3.716 0-1.399.861-2.626 1.646-3.71a8.749 8.749 0 001.224-2.098c.133-.453.21-.92.23-1.393h-7.215l2.354 7.228-2.354 7.234h7.215a5.82 5.82 0 00-.23-1.399 8.614 8.614 0 00-1.224-2.146z"/><path fill="url(#c)" d="M166.634 22.78h-11.122a4.554 4.554 0 00-.762-2.236c-.796-1.1-2.135-1.558-3.43-2.003a8.952 8.952 0 01-2.298-1.035 8.715 8.715 0 01-1.646-1.856c-.829-1.1-1.685-2.251-2.99-2.675a3.654 3.654 0 00-1.098-.165 9.74 9.74 0 00-2.743.55 9.116 9.116 0 01-2.535.55 9.183 9.183 0 01-2.546-.55 9.533 9.533 0 00-2.744-.55 3.611 3.611 0 00-1.097.165c-1.306.43-2.162 1.574-2.99 2.681a8.71 8.71 0 01-1.646 1.85 9.12 9.12 0 01-2.3 1.035c-1.294.445-2.633.908-3.428 2.003a4.576 4.576 0 00-.758 2.235h-11.225l3.248 10.003-3.248 10.002h11.143c.052.8.313 1.57.757 2.235.796 1.101 2.135 1.558 3.43 2.01.811.23 1.586.576 2.298 1.029a8.589 8.589 0 011.647 1.855c.828 1.101 1.684 2.251 2.99 2.675.355.111.725.167 1.097.166a9.685 9.685 0 002.744-.551 6.29 6.29 0 015.086 0c.883.315 1.807.5 2.743.55.372.004.743-.052 1.097-.165 1.3-.424 2.157-1.569 2.985-2.68a8.98 8.98 0 011.646-1.85 8.866 8.866 0 012.305-1.035c1.295-.446 2.628-.908 3.423-2.004a4.47 4.47 0 00.758-2.235h11.127l-3.062-10.002 3.144-10.003zm-53.556 17.235l2.354-7.233-2.354-7.228h7.215a5.82 5.82 0 01-.23 1.393 8.71 8.71 0 01-1.23 2.124c-.757 1.101-1.646 2.312-1.646 3.71 0 1.399.862 2.627 1.647 3.717a8.623 8.623 0 011.223 2.119c.134.455.211.924.23 1.398h-7.21zm41.326-5.411a11.384 11.384 0 00-1.646 2.984 9.518 9.518 0 00-.395 2.416c0 .374-.033.743-.038 1.101.006.565-.03 1.13-.11 1.69a.937.937 0 01-.099.297c-.187.26-1.223.617-1.844.832-1.123.33-2.19.83-3.165 1.48-.906.726-1.7 1.584-2.354 2.544-.417.55-1.054 1.415-1.372 1.52h-.104a7.919 7.919 0 01-1.81-.425 9.382 9.382 0 00-6.985 0 7.672 7.672 0 01-1.8.419h-.104c-.313-.105-.95-.953-1.372-1.52a11.729 11.729 0 00-2.354-2.543 11.83 11.83 0 00-3.16-1.48c-.664-.227-1.646-.551-1.85-.832a.888.888 0 01-.098-.297 12.027 12.027 0 01-.11-1.696c0-.347 0-.704-.038-1.1a9.268 9.268 0 00-.395-2.418 11.384 11.384 0 00-1.646-2.994c-.384-.55-1.026-1.464-1.026-1.822 0-.358.642-1.272 1.026-1.822a11.69 11.69 0 001.646-2.995c.238-.783.37-1.594.395-2.411 0-.37.033-.732.038-1.101-.003-.567.033-1.134.11-1.696a.946.946 0 01.099-.297c.186-.259 1.185-.6 1.849-.831a11.567 11.567 0 003.16-1.481 11.529 11.529 0 002.36-2.549c.417-.55 1.053-1.41 1.366-1.514h.104c.616.07 1.221.211 1.805.419 1.124.401 2.303.63 3.495.677a11.925 11.925 0 003.484-.644 8.013 8.013 0 011.794-.419h.105c.312.105.949.958 1.371 1.52.655.96 1.448 1.817 2.354 2.543.975.65 2.043 1.15 3.166 1.48.658.232 1.646.551 1.844.832.05.093.083.193.098.297.08.56.116 1.125.11 1.69 0 .347 0 .71.038 1.101.028.818.16 1.628.396 2.411a11.39 11.39 0 001.646 2.995c.384.55 1.026 1.464 1.026 1.822 0 .358-.626 1.272-1.01 1.817zm8.466 5.411h-7.237a5.86 5.86 0 01.23-1.398c.309-.76.72-1.473 1.224-2.12.763-1.1 1.646-2.312 1.646-3.715 0-1.404-.867-2.632-1.646-3.716a8.92 8.92 0 01-1.224-2.092 5.812 5.812 0 01-.23-1.393h7.237l-2.271 7.228 2.271 7.206z"/><path fill="url(#d)" d="M146.673 22.78a13.206 13.206 0 00-17.4-.052c-4.998 4.346-6.033 11.726-2.423 17.287a13.399 13.399 0 002.403 2.753 13.136 13.136 0 0017.42 0 13.455 13.455 0 002.403-2.753c3.592-5.543 2.567-12.894-2.403-17.236zm-1.097 17.235a10.498 10.498 0 01-4.346 2.753 10.337 10.337 0 01-6.523 0c-4.305-1.423-7.213-5.456-7.213-10.003s2.908-8.58 7.213-10.002a10.323 10.323 0 016.523 0 10.495 10.495 0 016.912 7.415 10.532 10.532 0 01-2.566 9.82v.017z"/><path fill="url(#e)" d="M142.536 33.894V30.59a4.593 4.593 0 00-4.584-4.443 4.593 4.593 0 00-4.584 4.443v3.374a7.404 7.404 0 01-.604 2.571c-.675 1.569-.115 1.382.39 1.255.505-.126 1.618-.633 1.97 0 .35.633.636 1.156 1.454.804.417-.21.86-.368 1.316-.468h.16c.456.1.899.257 1.316.468.818.352 1.098-.187 1.46-.804.362-.616 1.465-.12 1.97 0 .504.121 1.059.314.384-1.255a7.37 7.37 0 01-.648-2.642zm-5.997-5.417c.494 0 .895.638.895 1.42 0 .782-.401 1.42-.895 1.42s-.894-.633-.894-1.42c0-.787.411-1.42.894-1.42zm1.41 5.653c-1.097 0-2.002-1.073-2.277-2.268a2.742 2.742 0 002.28 1.222c.915 0 1.77-.458 2.28-1.222-.28 1.217-1.19 2.268-2.283 2.268zm1.4-2.813c-.494 0-.895-.633-.895-1.42 0-.787.4-1.42.894-1.42s.895.638.895 1.42c0 .782-.384 1.42-.895 1.42z"/><path fill="url(#f)" d="M3.585 34.774a2.622 2.622 0 00-1.854.787 2.638 2.638 0 00-.753 1.872 2.612 2.612 0 002.607 2.61H15.15a2.616 2.616 0 002.606-2.61 2.636 2.636 0 00-.753-1.872 2.617 2.617 0 00-1.853-.787H3.585z"/><path fill="url(#g)" d="M14.52 73.766a3.904 3.904 0 002.843-1.116 3.932 3.932 0 001.178-2.826 3.778 3.778 0 00-1.185-2.752 4.08 4.08 0 00-2.26-1.14H11.7a4.028 4.028 0 01-4.022-4.035c0-2.228 1.8-4.035 4.022-4.035h13.716v-7.465h-5.86a4.056 4.056 0 01-3.9-4.06 4.058 4.058 0 013.9-4.06H25.4v-7.156a4.614 4.614 0 011.31-3.272 4.583 4.583 0 013.233-1.385h70.57a4.57 4.57 0 013.224 1.388 4.602 4.602 0 011.298 3.27v46.202H25.4v-2.329H6.493c-.692.006-1.358-.267-1.848-.757s-.763-1.158-.759-1.852a2.622 2.622 0 012.607-2.62h8.027z"/><path fill="#FFF" d="M29.378 34.874h71.706v42.878H29.378z"/><path fill="url(#h)" d="M109.106 81.313v2.202a2.143 2.143 0 01-.6 1.553c-.401.415-.953.65-1.53.649h-83.49a2.126 2.126 0 01-1.529-.649 2.14 2.14 0 01-.6-1.553v-2.202h87.75z"/><path fill="#4A4A4A" d="M208.3 10.289h10.765c2.129 0 3.797-1.822 3.797-4.146 0-2.323-1.646-4.145-3.797-4.145H208.3a4.1 4.1 0 00-4.038 4.145 4.101 4.101 0 004.038 4.146zm0-7.08h10.765c1.712 0 2.612 1.454 2.612 2.885 0 1.431-.916 3.022-2.612 3.022H208.3a2.952 2.952 0 01-2.82-2.953 2.954 2.954 0 012.82-2.954zm15.983 20.154h-12.12a.617.617 0 00-.582.627.605.605 0 00.582.584h12.12a.6.6 0 00.431-1.023.61.61 0 00-.43-.188z"/><path fill="#4A4A4A" d="M224.283 24.574h-12.12a.605.605 0 01-.582-.584.615.615 0 01.582-.627h12.12a.616.616 0 01.604.628.6.6 0 01-.604.583zm-123.199 9.71H29.378a.59.59 0 00-.609.584v42.883a.576.576 0 00.608.584h71.707c.16.016.32-.039.437-.151a.552.552 0 00.166-.433V34.868a.582.582 0 00-.603-.584zm-.582 25.169v17.698H29.96V35.457h70.543v23.996z"/><path fill="#4A4A4A" d="M109.106 80.73h-3.841V35.11c0-2.945-1.942-4.998-4.724-4.998H29.943c-2.743 0-4.653 2.053-4.653 4.998v6.177h-5.733c-2.558 0-4.631 2.08-4.631 4.646s2.073 4.646 4.63 4.646h5.734v6.903H11.7a4.567 4.567 0 00-4.582 4.509 4.702 4.702 0 001.297 3.357 4.676 4.676 0 003.285 1.449h3.357a2.45 2.45 0 011.888.743c.68.66 1.015 1.14 1.015 2.048 0 2.108-1.783 3.071-3.44 3.071H6.493c-1.838 0-3.21 1.932-3.21 3.667 0 1.734 1.399 3.622 3.21 3.622h17.502l-2.803.809a.605.605 0 00-.445.55v2.202a2.78 2.78 0 002.744 2.813h83.486a2.74 2.74 0 001.961-.827c.516-.53.798-1.245.783-1.986v-2.202a.613.613 0 00-.615-.578zM6.493 78.72c-.993 0-1.998-1.216-1.998-2.411s.988-2.455 1.998-2.455h8.027c2.677 0 4.625-1.8 4.625-4.283a3.739 3.739 0 00-1.344-2.89 3.696 3.696 0 00-2.744-1.101H11.7a3.524 3.524 0 01-3.397-3.545 3.345 3.345 0 013.397-3.364h14.172a.604.604 0 00.609-.583v-8.12a.578.578 0 00-.609-.584h-6.315c-1.9 0-3.44-1.545-3.44-3.451a3.415 3.415 0 01.995-2.452 3.399 3.399 0 012.445-1h6.315a.616.616 0 00.609-.643V35.11c0-2.3 1.36-3.787 3.462-3.787h70.57c2.113 0 3.534 1.52 3.534 3.787v45.62H26.48v-1.366a.62.62 0 00-.61-.644H6.494zm102.004 4.762a1.546 1.546 0 01-1.52 1.596H23.485a1.539 1.539 0 01-1.097-.476 1.556 1.556 0 01-.43-1.12V81.93h86.54v1.552z"/><path fill="#4A4A4A" d="M90.857 4.464v25.648h1.212V5.632h91.766v54.25H105.237v1.217h79.788V4.464z"/><path fill="#4A4A4A" d="M217.809 59.332c.033-3.08-2.417-5.61-5.487-5.665h-10.107c-1.486 0-2.573-.368-3.32-1.1a4.375 4.375 0 01-1.387-3.26 4.55 4.55 0 011.39-3.285 4.526 4.526 0 013.328-1.262h4.938c3.205 0 5.91-2.83 5.91-6.182 0-3.352-2.705-6.187-5.91-6.187h-17.623v-4.866h10.919c3.22 0 5.936-2.835 5.936-6.188.008-3.324-2.625-6.048-5.936-6.143h-10.92V3.578c0-2.141-1.29-3.578-3.204-3.578H89.688c-1.975 0-3.292 1.437-3.292 3.578v26.534h1.19V3.578c0-1.1.55-2.405 2.118-2.405h96.633c1.487 0 2.019 1.244 2.019 2.405v12.205a.583.583 0 00.603.589h11.523c2.736 0 4.954 2.225 4.954 4.97 0 2.746-2.218 4.971-4.954 4.971h-11.523a.608.608 0 00-.43.189.612.612 0 00-.173.439v6.088a.61.61 0 00.603.584h18.178c2.736 0 4.955 2.226 4.955 4.97 0 2.746-2.219 4.972-4.955 4.972h-4.938c-1.55-.039-3.05.55-4.162 1.635s-1.742 2.573-1.747 4.128c0 1.547.64 3.024 1.766 4.08 1.01 1.018 2.338 1.497 4.181 1.497h10.085a4.468 4.468 0 014.304 4.473 4.468 4.468 0 01-4.304 4.472l-107.085.083v1.162l83.52-.078v3.502a2.45 2.45 0 01-.687 1.761c-.455.471-1.08.74-1.733.743h-81.1v1.217h81.1a3.672 3.672 0 003.61-3.721v-3.496h22.375c1.469 0 2.876-.59 3.907-1.64a5.517 5.517 0 001.58-3.942l.411-.083-.411-.016zM3.585 40.439H15.15a3.17 3.17 0 003.237-2.929v-.22a.246.246 0 010-.137 3.24 3.24 0 00-3.232-2.962H3.585a3.074 3.074 0 00-2.266.86 3.092 3.092 0 00-.944 2.24c0 .847.34 1.659.944 2.251a3.133 3.133 0 002.266.897zm0-5.075H15.15a2.06 2.06 0 012.046 2.025 1.937 1.937 0 01-2.046 1.839H3.585a1.896 1.896 0 01-1.42-.533 1.953 1.953 0 01.018-2.788c.376-.363.88-.558 1.402-.543zm-.928 18.232H14.8a.589.589 0 100-1.173H2.657a.589.589 0 100 1.173zm2.014 14.026H.644a.587.587 0 00-.556.897.59.59 0 00.556.276H4.67a.589.589 0 100-1.173zM17.8 28.284h4.05a.599.599 0 00.582-.583.616.616 0 00-.582-.628H17.8a.604.604 0 00.001 1.211zm56.772 24.899h-3.001v-2.466a6.37 6.37 0 00-3.115-5.667 6.323 6.323 0 00-6.45 0 6.368 6.368 0 00-3.115 5.667v2.466H55.89a.55.55 0 00-.549.55V65.73a2.539 2.539 0 002.53 2.537h14.814a2.404 2.404 0 001.701-.711c.45-.455.703-1.07.702-1.71V53.732a.55.55 0 00-.516-.55zm-14.611-2.466c0-2.919 2.358-5.285 5.267-5.285 2.91 0 5.267 2.366 5.267 5.285v2.466H59.961v-2.466zm14.534 15.678a.985.985 0 01-.987 1.002H57.09a1.127 1.127 0 01-1.097-1.129V54.053h18.501v12.342z"/><path fill="url(#i)" d="M56.18 68.228a.899.899 0 01-.883-.914V53.177h19.857V67.49a.74.74 0 01-.736.76l-18.238-.022z"/><path fill="#4A4A4A" d="M74.605 53.728V67.49a.191.191 0 01-.187.209H56.18a.35.35 0 01-.243-.11.35.35 0 01-.091-.253V53.728h18.759m1.097-1.101H54.748v14.687c-.006.8.635 1.455 1.432 1.464h18.25a1.282 1.282 0 001.283-1.31V52.605l-.01.022z"/><path fill="#FFF" d="M64.257 60.978v2.549c0 .336.179.647.47.815.29.168.647.168.937 0 .29-.168.47-.48.47-.815v-2.55a2.097 2.097 0 001.153-2.352 2.091 2.091 0 00-2.037-1.644 2.122 2.122 0 00-2.129 2.109 2.204 2.204 0 001.136 1.888z"/></g></svg>
