<svg xmlns="http://www.w3.org/2000/svg" width="55" height="65"><defs><linearGradient id="a" x1=".065%" x2="99.87%" y1="49.916%" y2="49.916%"><stop offset="0%" stop-color="#4CAEEA"/><stop offset="100%" stop-color="#91D4F8"/></linearGradient><linearGradient id="b" x1="5274.865%" x2="5375.148%" y1="49.907%" y2="49.907%"><stop offset="0%" stop-color="#4CAEEA"/><stop offset="100%" stop-color="#91D4F8"/></linearGradient></defs><g fill="#FFF" fill-rule="evenodd"><path d="M40.278 5.148a114.33 114.33 0 00-13.04-1.137c-2.642 0-7.261.415-13.739 1.245a20.585 20.585 0 01-9.34 13.068c.465 3.852 1.198 8.13 2.125 12.392A76.878 76.878 0 009.46 41.591c2.153 5.21 8.136 11.364 17.778 18.37 9.63-6.972 15.614-13.154 17.778-18.376a73.963 73.963 0 003.177-10.966c.8-3.562 1.545-7.778 2.119-11.931a20.096 20.096 0 01-10.034-13.54z"/><path fill="#FFF" fill-rule="nonzero" d="M40.727 4.636A116.36 116.36 0 0027.21 3.432c-2.784 0-7.716.466-14.205 1.301a19.89 19.89 0 01-9.477 13.29c.506 4.272 1.295 8.733 2.176 12.812.796 3.732 1.87 7.4 3.21 10.972 2.216 5.386 8.352 11.699 18.296 18.88 9.943-7.153 16.068-13.465 18.306-18.852a75.791 75.791 0 003.205-11.062c.875-3.904 1.625-8.267 2.176-12.353a19.6 19.6 0 01-10.17-13.784zm7.437 25.983a74.08 74.08 0 01-3.176 10.966C42.823 46.807 36.84 52.99 27.21 59.96c-9.66-6.983-15.625-13.159-17.78-18.37a76.958 76.958 0 01-3.176-10.874c-.926-4.261-1.659-8.523-2.125-12.392A20.583 20.583 0 0013.47 5.256c6.477-.83 11.097-1.245 13.739-1.245 4.364.13 8.718.51 13.04 1.137a20.09 20.09 0 0010.034 13.557c-.574 4.136-1.319 8.352-2.12 11.914z"/><path fill="#FFF" fill-rule="nonzero" d="M41.29 4.534l-.08-.403-.41-.057c-4.503-.666-9.04-1.07-13.59-1.21-2.745 0-7.551.437-14.284 1.306l-.404.052-.08.397a19.393 19.393 0 01-9.203 12.887l-.324.187.046.375c.466 3.977 1.227 8.432 2.187 12.875A77.592 77.592 0 008.38 42c2.273 5.466 8.483 11.892 18.5 19.102l.33.239.335-.239C37.539 53.903 43.766 47.466 46.039 42a75.094 75.094 0 003.233-11.153c.83-3.7 1.608-8.103 2.188-12.392l.056-.398-.352-.182a18.967 18.967 0 01-9.875-13.34zm7.431 26.21a75.804 75.804 0 01-3.205 11.063c-2.238 5.386-8.363 11.699-18.306 18.88-9.944-7.153-16.08-13.465-18.301-18.852a76.827 76.827 0 01-3.21-10.971c-.881-4.08-1.671-8.523-2.177-12.813a19.885 19.885 0 009.483-13.318C19.5 3.898 24.431 3.432 27.21 3.432c4.525.138 9.038.54 13.517 1.204a19.604 19.604 0 0010.17 13.756c-.551 4.085-1.301 8.449-2.176 12.352z"/><path fill="#4A4A4A" fill-rule="nonzero" d="M53.55 15.938A16.277 16.277 0 0143.891 2.75a1.35 1.35 0 00-1.198-1.256C35.562.506 30.369 0 27.227 0c-3.012 0-8.301.517-16.182 1.574a1.375 1.375 0 00-1.182 1.267A16.403 16.403 0 01.812 15.653a1.432 1.432 0 00-.801 1.466c.596 5.04 1.454 10.165 2.409 14.432a72.8 72.8 0 003.34 11.523c2.58 6.25 9.296 13.159 20.53 21.148l.101.045h.057l.142.097c.184.123.399.19.62.193.296.01.587-.082.824-.262 11.295-8.028 18.04-14.971 20.625-21.221a72.14 72.14 0 003.357-11.523c.978-4.363 1.83-9.392 2.41-14.159a1.359 1.359 0 00-.875-1.454zM50.67 31.21a79.729 79.729 0 01-3.301 11.335c-3.483 8.364-14.585 16.631-20.16 20.625-5.573-3.977-16.675-12.26-20.107-20.625A68.007 68.007 0 013.8 31.21a139.745 139.745 0 01-2.42-14.312 17.497 17.497 0 009.846-13.926c6.136-.836 12.409-1.58 15.983-1.58 3.437 0 9.38.648 15.278 1.483a17.473 17.473 0 0010.551 14.313 149.671 149.671 0 01-2.37 14.022z"/><path fill="#FFF" fill-rule="nonzero" d="M42.488 2.875C36.59 2.04 30.648 1.392 27.21 1.392c-3.574 0-9.847.744-15.983 1.58A17.494 17.494 0 011.38 16.898c.56 4.81 1.367 9.586 2.42 14.312a68.007 68.007 0 003.302 11.335C10.51 50.91 21.636 59.176 27.21 63.17c5.574-3.977 16.676-12.26 20.159-20.625a79.464 79.464 0 003.3-11.335c.972-4.454 1.808-9.29 2.37-14.023a17.467 17.467 0 01-10.55-14.312z"/><path fill="url(#a)" fill-rule="nonzero" d="M30.431 43.142a13.704 13.704 0 00-2.574-1.006h-.443a13.54 13.54 0 00-2.568 1.006 2.786 2.786 0 01-1.136.284c-1.216 0-1.847-1.176-2.398-2.216l-.028-.05a1 1 0 00-.978-.461 7.34 7.34 0 00-2.09.483c-.24.08-.46.153-.648.204h-.097a3.652 3.652 0 01-.92.17.872.872 0 01-.728-.312 1.241 1.241 0 01-.216-.875c.025-.353.094-.703.205-1.04.114-.38.273-.823.483-1.335a17.242 17.242 0 001.256-5.602v-7.5a10.966 10.966 0 012.948-7.557l.24-.233c-.46.342-.89.722-1.285 1.137a10.857 10.857 0 00-2.926 7.494v7.506a17.257 17.257 0 01-1.296 5.681c-.062.154-.119.307-.176.45-.147.391-.261.732-.346 1.04-.228.834-.21 1.363.045 1.675.358.45 1.006.273 1.574.12h.09c.188-.052.416-.125.649-.205 1.062-.358 2.67-.892 3.153 0l.028.051c.569 1.074 1.137 2.176 2.33 2.176.394-.01.782-.104 1.136-.278 2.176-.989 2.614-1.017 2.654-1.017h.335c.045 0 .483.028 2.66 1.017a2.71 2.71 0 001.135.278 1.903 1.903 0 001.512-.824c-.135.03-.272.045-.41.046a2.78 2.78 0 01-1.17-.307z"/><path fill="url(#b)" fill-rule="nonzero" d="M37.829 38.91a18.865 18.865 0 01-.676-1.99 16.433 16.433 0 01-.62-3.79v-7.386a11.377 11.377 0 00-.357-2.84 10.74 10.74 0 00-2.569-4.671 9.658 9.658 0 00-7.073-3.108h-.216c-4.495.682-7.955 4.79-7.955 9.744v7.54a18.034 18.034 0 01-1.38 5.943c-.154.375-.273.71-.376 1.006a7.055 7.055 0 00-.193.705l-.074.335-.096.454.744-.182.256-.068.09-.028c.16-.04.353-.102.569-.176h.045a7.819 7.819 0 012.341-.523 1.806 1.806 0 011.398.568c.1.105.185.223.25.352l.028.046c.569 1.136.989 1.79 1.705 1.79.289-.011.572-.085.83-.216 1.079-.489 2.465-1.074 2.937-1.074h.335c.466 0 1.852.568 2.938 1.074.255.13.536.205.824.216.732 0 1.136-.676 1.704-1.79v-.046c.07-.126.153-.245.25-.352.36-.384.871-.592 1.398-.568.62.028 1.233.146 1.818.352l.523.17c.238.08.443.148.613.194l.103.028.244.069.165.04a11.052 11.052 0 00-.523-1.819z"/><path fill="#FFF" fill-rule="nonzero" d="M24.647 25.347c1.046 0 1.887-1.42 1.887-3.17s-.841-3.166-1.887-3.166c-1.045 0-1.886 1.42-1.886 3.165 0 1.744.846 3.17 1.886 3.17zm5.972-6.336c-1.04 0-1.887 1.42-1.887 3.165 0 1.744.847 3.17 1.887 3.17s1.892-1.42 1.892-3.17-.847-3.165-1.892-3.165zm-2.983 10.29a5.884 5.884 0 01-4.813-2.704c.568 2.664 2.517 5.062 4.813 5.062 2.295 0 4.227-2.398 4.812-5.062a5.88 5.88 0 01-4.812 2.704z"/><path fill="#4A4A4A" fill-rule="nonzero" d="M39.852 40.347a8.97 8.97 0 00-.71-2.387 16.933 16.933 0 01-1.273-5.625v-7.443c0-1.22-.192-2.431-.568-3.59a10.965 10.965 0 00-1.006-2.217 10.655 10.655 0 00-1.455-1.937 9.937 9.937 0 00-14.403-.21l-.046.045-.193.199a10.875 10.875 0 00-1.3 1.67 11.72 11.72 0 00-.95 1.881c-.125.33-.238.665-.335 1.006a11.492 11.492 0 00-.443 3.187v7.5a16.979 16.979 0 01-1.267 5.534c-.108.262-.199.506-.284.727-.085.222-.125.37-.176.569l-.034.096c0 .108-.057.21-.08.307s-.051.193-.068.284c-.017.091-.046.29-.063.455v.057c-.023.269.018.54.12.79.143.352.46.606.835.67.177.031.357.031.534 0 .103-.012.205-.029.307-.051l.432-.108h.09c.108-.027.214-.06.319-.097l.346-.114.375-.125.114-.034c.165-.05.34-.108.523-.153.914-.239 1.454-.205 1.704.09a.399.399 0 01.04.069l.034.063c.068.125.136.255.21.38l.085.16c.086.153.177.3.268.443a2.55 2.55 0 002.08 1.369c.208-.002.416-.03.618-.08.223-.058.44-.136.648-.233a30.852 30.852 0 011.875-.79l.256-.085.096-.034c.091-.03.184-.056.279-.074h.466l.369.12c.17.056.392.142.665.25l.221.09 1.137.495c.397.195.83.301 1.272.312a1.35 1.35 0 00.472-.04c.892-.215 1.443-1.005 1.87-1.755l.158-.284.171-.318.045-.069a.796.796 0 01.682-.244 5.972 5.972 0 011.63.341l.37.125c.245.08.477.16.67.21h.092c.237.067.478.12.721.16a1.28 1.28 0 001.222-.398c.069-.084.124-.178.165-.279.095-.283.118-.586.068-.88zm-17.188 1.3a5.276 5.276 0 01-.324-.567l-.238-.438c-.08-.15-.18-.29-.296-.415l-.085-.085a1.954 1.954 0 00-.824-.455 2.203 2.203 0 00-.449-.073 4.739 4.739 0 00-1.517.17c-.34.085-.67.193-.977.296l-.227.073a7.93 7.93 0 01-.568.177l-.108.028-.233.062-.307.074.074-.346c0-.097.05-.205.08-.313.028-.108.067-.238.113-.363.045-.125.102-.302.159-.466l.204-.523c.194-.472.37-.96.523-1.443.097-.296.188-.602.267-.904.04-.147.074-.29.108-.431.063-.256.114-.506.165-.745.051-.238.057-.307.085-.449.038-.25.072-.483.102-.699.035-.221.057-.431.074-.619.017-.187.04-.505.051-.744v-7.557a9.94 9.94 0 011.086-4.551c.068-.125.13-.25.199-.37a9.426 9.426 0 011.204-1.659c.178-.2.368-.39.568-.568.197-.185.402-.361.614-.528a8.927 8.927 0 011.045-.688 8.669 8.669 0 013.046-1.08 9.034 9.034 0 011.273-.096 9.006 9.006 0 018.278 5.813c.479 1.192.724 2.465.722 3.75v7.437c.03.74.11 1.476.238 2.205a19.385 19.385 0 001.137 3.949c.238.537.428 1.094.568 1.664l.074.347-.307-.074-.125-.034-.216-.057a8.274 8.274 0 01-.597-.193l-.216-.068-.312-.102a6.534 6.534 0 00-1.898-.364 2.125 2.125 0 00-1.517.54l-.068.074a1.19 1.19 0 00-.153.187c-.051.069-.097.14-.137.216l-.165.313c-.159.284-.284.5-.403.676-.07.113-.148.22-.233.324-.403.465-.756.488-1.415.193l-.852-.381-.438-.182-.142-.057-.284-.113-.568-.21a2.793 2.793 0 00-.756-.165h-.335a2.54 2.54 0 00-.704.153l-.114.034-.466.165-.335.136-.142.057-.438.182-.858.38c-.22.112-.463.176-.71.188a.823.823 0 01-.29-.062 1.03 1.03 0 01-.181-.108l-.057-.034a1.763 1.763 0 01-.17-.176 3.018 3.018 0 01-.302-.307z"/></g></svg>
