<svg xmlns="http://www.w3.org/2000/svg" width="29" height="31"><g fill="#FFF"><path d="M14.809 15.701c-2.186-.002-3.958-1.922-3.96-4.29 0-.138-.103-.249-.23-.249-.126 0-.23.112-.23.25-.002 2.367-1.773 4.286-3.96 4.29-.127 0-.229.111-.229.248s.103.25.23.25c2.186.001 3.957 1.92 3.96 4.289 0 .138.103.249.23.249.126 0 .23-.111.23-.25.001-2.367 1.773-4.286 3.959-4.289.127 0 .23-.112.23-.249s-.103-.249-.23-.249zm8.179-2.87c-1.458 0-2.639-1.33-2.64-2.97 0-.095-.069-.172-.153-.172-.085 0-.154.078-.154.173-.001 1.64-1.182 2.968-2.64 2.97-.084 0-.153.077-.153.172 0 .096.069.172.154.172 1.457.002 2.638 1.33 2.64 2.97 0 .096.068.172.153.172.084 0 .153-.077.153-.172.001-1.64 1.182-2.968 2.64-2.97.084 0 .153-.077.153-.172 0-.096-.069-.172-.153-.172zm-5.835-5.815a1.653 1.653 0 01-1.65-1.65.096.096 0 00-.192 0 1.653 1.653 0 01-1.65 1.65.095.095 0 00-.095.095c0 .053.042.096.095.096.911.001 1.649.74 1.65 1.65a.096.096 0 00.192 0 1.652 1.652 0 011.65-1.65.095.095 0 00.095-.096.095.095 0 00-.095-.095z"/><path d="M14.462 30.569l-.549-.316a1.44 1.44 0 01-.11-.07l-.009-.005C5.844 24.992 1.096 17.04.068 7.187a23.608 23.608 0 01-.063-.767A2.059 2.059 0 011.47 4.294C2.58 3.96 7.77 2.061 12.256.395a6.34 6.34 0 014.412.001c4.487 1.666 9.677 3.564 10.785 3.898a2.063 2.063 0 011.466 2.13c-.02.3-.044.585-.062.763-1.029 9.855-5.776 17.805-13.73 22.992l-.005.004c-.023.015-.062.042-.11.07l-.55.316zM2.207 6.37c.017.237.036.455.05.587.933 8.948 5.15 16.202 12.205 21.02 7.058-4.82 11.272-12.073 12.206-21.02.013-.132.032-.35.049-.587-1.658-.52-8.668-3.114-10.815-3.91a4.142 4.142 0 00-2.88-.002C10.876 3.256 3.87 5.85 2.207 6.37z"/></g></svg>