<svg width="221" height="221" viewBox="0 0 221 221" fill="none" xmlns="http://www.w3.org/2000/svg">
	<circle cx="110.502" cy="110.5" r="101.292" fill="#DFE3EB" />
	<path d="M83.4931 53.3051L82.1578 40.0815C81.8972 39.821 81.6041 39.5604 81.3109 39.2673C80.3338 38.2901 79.3893 37.313 78.4447 36.3033C73.494 31.9715 63.2017 31.1246 58.479 26.5648C56.6551 29.5287 55.0591 32.232 54.4728 35.3588C52.4209 46.2373 53.4306 57.8324 55.7105 63.4671C58.8047 71.1863 68.5107 82.6511 88.5741 80.4363C108.638 78.2216 83.4931 53.3051 83.4931 53.3051Z" fill="white" />
	<path d="M83.5553 81.5769C63.1336 81.5769 56.1635 66.9202 54.8933 63.7608C52.6459 58.1261 51.4734 46.4985 53.6231 35.164C54.2419 31.9069 55.8704 29.1384 57.7595 26.0768L58.3458 25.1322L59.1275 25.8814C61.4074 28.0962 65.2833 29.4315 69.0289 30.7669C72.7094 32.0698 76.5201 33.3726 79.0606 35.5874L79.1257 35.6525C80.2331 36.825 81.1125 37.7696 81.9594 38.5839C82.0897 38.7141 82.2525 38.8444 82.3828 39.0073L83.0342 39.6261L84.3696 52.8497C86.3564 54.8691 99.58 68.6464 96.8766 76.3656C95.9321 79.1015 93.1636 80.7626 88.7015 81.2512C86.8775 81.5117 85.1513 81.5769 83.5553 81.5769ZM58.704 27.9333C57.1407 30.4738 55.8704 32.884 55.3493 35.5222C53.2973 46.4008 54.4047 57.8656 56.5218 63.142C57.7921 66.3339 65.3484 82.098 88.4735 79.5575C92.2191 79.1341 94.4664 77.8964 95.183 75.8445C97.2349 69.9492 87.0078 58.0284 82.8713 53.9571L82.6434 53.7291L81.308 40.5055L81.1451 40.3427C80.9823 40.2124 80.852 40.0495 80.6891 39.9192C79.8423 39.0724 78.8977 38.1279 77.8229 36.9553C75.543 34.9685 71.9277 33.7309 68.41 32.4932C64.8924 31.2555 61.2445 29.9853 58.704 27.9333Z" fill="#49556E" />
	<path d="M54.473 35.3582C61.5082 3.99287 85.4801 7.9339 95.6095 15.1645C103.492 20.7667 108.279 33.632 112.807 40.9604C112.807 40.9604 113.882 41.9375 117.204 48.0282C119.614 52.4252 119.842 55.2914 116.976 56.1708C114.533 56.9199 112.351 56.1708 109.745 52.0018C108.117 49.3961 106.39 47.1488 106.39 47.1488C106.39 47.1488 106.618 49.3635 102.417 50.4709C98.2152 51.5783 96.6843 48.7121 96.6843 48.7121C94.8278 51.7738 90.1051 51.1549 85.7081 49.559C82.6465 48.419 77.6306 45.8134 77.5655 41.3186" fill="white" />
	<path d="M115.445 57.3109C113.1 57.3109 111.081 55.7475 109.029 52.4579C108.182 51.09 107.303 49.8523 106.684 48.9729C106.097 49.8197 104.925 50.7317 102.71 51.318C99.8439 52.0671 97.8571 51.1551 96.7823 50.1129C94.6978 52.2299 90.8219 52.3276 85.4803 50.3408C82.8747 49.3963 76.8166 46.5952 76.7514 41.2863L78.5102 41.2537C78.5754 45.4553 83.8192 47.8329 86.0991 48.6798C89.0631 49.7546 94.2743 51.1551 96.0006 48.2238L96.7823 46.8884L97.5314 48.2563C97.564 48.354 98.8342 50.5037 102.254 49.5917C104.892 48.9077 105.576 47.7026 105.576 47.1815L105.511 44.4782L107.14 46.5952C107.205 46.693 108.898 48.9077 110.527 51.5134C113.165 55.7475 115.087 55.8453 116.748 55.3241C117.66 55.031 117.953 54.575 118.083 54.2819C118.376 53.5328 118.376 51.8717 116.455 48.4518C113.328 42.7519 112.253 41.6445 112.221 41.612L112.058 41.4165C110.788 39.3646 109.517 36.8892 108.149 34.2836C104.632 27.5089 100.626 19.7897 95.0886 15.8487C89.4539 11.81 80.0085 9.20433 71.703 12.3637C63.6907 15.4253 57.9908 23.6982 55.2875 35.7818L53.5612 35.391C57.144 19.3663 65.0912 13.0151 71.0842 10.7351C80.0085 7.31524 90.1053 10.1163 96.1309 14.4156C101.994 18.6172 106.097 26.4993 109.713 33.4693C111.048 36.0098 112.286 38.4201 113.491 40.4069C113.849 40.7977 115.087 42.3611 117.986 47.5724C119.842 50.9271 120.363 53.2722 119.679 54.9333C119.288 55.943 118.442 56.6269 117.237 57.0178C116.65 57.2132 116.031 57.3109 115.445 57.3109Z" fill="#49556E" />
	<path d="M107.303 46.334C105.544 43.6958 103.785 41.025 102.026 38.3868C101.408 37.4422 99.8767 38.3216 100.496 39.2662C102.254 41.9044 104.013 44.5752 105.772 47.2134C106.391 48.1579 107.922 47.2785 107.303 46.334Z" fill="#49556E" />
	<path d="M97.4318 47.4087C96.6827 45.487 95.673 43.7282 94.305 42.1974C93.5559 41.3506 92.3182 42.5882 93.0674 43.4351C94.2073 44.7379 95.1193 46.2361 95.7381 47.8646C96.129 48.9069 97.8552 48.4509 97.4318 47.4087Z" fill="#49556E" />
	<path d="M78.2489 40.5698C75.0244 38.1922 71.1811 37.1499 67.2075 37.5733C66.1001 37.7036 66.0675 39.4624 67.2075 39.3321C70.9205 38.9413 74.373 39.8533 77.3695 42.068C78.2815 42.7846 79.1609 41.2538 78.2489 40.5698Z" fill="#49556E" />
	<path d="M116.259 53.7287C115.087 54.4127 114.142 53.1099 114.37 52.035C114.598 50.9276 115.575 50.2437 116.585 49.8528C117.627 49.462 117.171 47.7357 116.129 48.1592C114.11 48.9083 112.286 50.6345 112.644 52.9796C112.97 55.0967 115.282 56.3669 117.171 55.2595C118.116 54.6733 117.237 53.1424 116.259 53.7287Z" fill="#49556E" />
	<path d="M87.9245 46.5622C86.2308 45.3897 84.7652 43.9566 83.5926 42.2955C82.9412 41.3835 81.4104 42.2629 82.0618 43.1749C83.4298 45.0966 85.0909 46.7251 87.0451 48.093C87.9571 48.7444 88.8365 47.2136 87.9245 46.5622Z" fill="#49556E" />
	<path d="M169.348 52.4936C167.687 48.0966 164.137 36.306 164.137 36.306L177.849 41.2568L184.721 29.4662L194.037 42.6247L210.778 40.9636L201.169 58.2586L205.013 68.1274L189.379 65.3915L181.171 78.8431L177.035 70.4725L170.26 71.2216L169.088 61.5156L160.587 58.5517L169.348 52.4936Z" fill="#00AEF0" />
	<path d="M30.434 156.003L27.6981 172.125C27.6655 172.418 27.9587 172.614 28.2192 172.451L47.2404 161.54C47.4358 161.442 47.6312 161.507 47.7289 161.67L60.3989 185.87C60.5291 186.098 60.8874 186.098 61.0177 185.87L79.8434 156.459C79.9411 156.296 80.1366 156.231 80.2994 156.296L96.5195 162.517C96.7475 162.614 97.0407 162.419 97.0407 162.158L96.3892 131.575C96.3892 131.412 96.5195 131.249 96.715 131.216L109.385 128.904C109.515 128.871 109.613 128.806 109.678 128.676L111.991 123.595C112.056 123.432 111.991 123.237 111.828 123.172L93.6533 114.475C93.523 114.41 93.4579 114.28 93.4579 114.15L95.1841 99.3951C95.2167 99.1671 94.9887 98.9717 94.7607 99.0368L83.1982 101.577C83.1005 101.61 83.0353 101.577 82.9702 101.545L64.5679 92.3599C64.5353 92.3599 64.5027 92.3273 64.4702 92.3273L48.8038 89.5588C48.5758 89.5262 48.3478 89.6891 48.3478 89.9171L47.9244 102.033C47.9244 102.261 47.6964 102.424 47.4684 102.392L22.096 97.9294C21.8354 97.8969 21.6074 98.1248 21.64 98.3528L25.353 116.169C25.3856 116.332 25.3204 116.462 25.1576 116.56L10.338 124.865C10.0775 124.995 10.0775 125.321 10.3055 125.451L23.8874 133.366C24.1153 133.496 24.1153 133.79 23.8874 133.952L4.76847 147.599C4.50791 147.762 4.57305 148.121 4.83362 148.218L30.1735 155.644C30.3689 155.677 30.4666 155.84 30.434 156.003Z" fill="#00AEF0" />
	<path d="M54.5595 100.831L48.4621 89.3139C48.4292 89.2518 48.3354 89.2728 48.3321 89.343L47.7289 102.213L21.5092 98.0845C21.4613 98.0769 21.4207 98.1199 21.431 98.1674L25.3529 116.169C25.3855 116.332 25.3204 116.462 25.1575 116.56L10.338 124.866C10.0774 124.996 10.0774 125.322 10.3054 125.452L23.8873 133.367C24.1153 133.497 24.1153 133.79 23.8873 133.953L4.7684 147.6C4.50783 147.763 4.57298 148.121 4.83354 148.219L30.1734 155.645C30.3688 155.677 30.4665 155.84 30.4339 156.003L27.698 172.125C27.6654 172.419 27.9586 172.614 28.2191 172.451L47.2403 161.54C47.4357 161.442 47.6311 161.507 47.7289 161.67L60.3988 185.87C60.5291 186.098 60.8873 186.098 61.0176 185.87L80.0824 156.05C80.1 156.023 80.1346 156.011 80.1651 156.023L96.5941 162.261C96.6393 162.279 96.6876 162.245 96.6876 162.197V148.219" stroke="#49556E" stroke-width="1.84167" stroke-linecap="round" />
	<path d="M169.381 101.187C178.501 93.5328 179.966 82.9474 176.449 75.9121C172.931 68.8444 169.544 61.6463 173.517 55.2625C178.892 46.5987 184.396 48.8787 184.396 52.1031C184.396 55.3276 179.478 57.0213 180.129 60.7669C180.878 64.9685 187.327 67.3787 190.259 65.3267C193.19 63.2748 191.724 55.6207 188.5 55.0345C185.275 54.4482 184.103 51.5169 185.275 49.1392C186.448 46.7941 193.809 45.6216 198.206 54.4156C198.206 54.4156 197.62 47.0547 201.723 47.641C205.827 48.2272 206.414 53.2431 206.121 66.7598C206.121 66.7598 208.172 52.95 213.188 55.295C218.204 57.6401 213.775 62.0697 212.309 76.1727C210.843 90.2757 215.533 105.877 201.723 121.153C187.914 136.428 164.984 133.79 164.984 133.79L169.381 101.187Z" fill="white" />
	<path d="M168.76 134.832C166.382 134.832 164.916 134.669 164.851 134.669C164.623 134.636 164.395 134.506 164.265 134.343C164.135 134.148 164.069 133.92 164.102 133.692L168.499 101.056C168.532 100.828 168.629 100.633 168.792 100.502C177.944 92.8158 178.759 82.5561 175.632 76.3026C172.407 69.8536 168.369 61.8087 172.733 54.8061C177.163 47.6731 181.267 48.1943 182.439 48.52C183.123 48.7154 183.709 49.0737 184.165 49.5296C184.231 49.2691 184.361 49.0411 184.459 48.7805C185.11 47.4451 186.934 46.5983 189.051 46.5983C190.647 46.5983 194.295 47.1194 197.422 51.4513C197.617 50.0833 198.04 48.5851 199.05 47.6731C199.799 46.9891 200.776 46.696 201.884 46.8263C205.89 47.4126 206.965 51.4187 207.095 59.5939C207.909 57.4117 209.049 55.4249 210.547 54.6106C211.492 54.0895 212.567 54.0895 213.577 54.5781C217.355 56.3694 216.638 59.3334 215.4 64.2841C214.684 67.1503 213.739 71.1239 213.186 76.3352C212.827 79.8202 212.827 83.3378 212.86 87.0508C212.925 98.3854 212.99 110.078 202.372 121.804C191.852 133.399 176.023 134.832 168.76 134.832ZM165.958 133.008C170.29 133.268 189.246 133.659 201.069 120.566C211.199 109.362 211.134 97.9945 211.101 87.0183C211.069 83.2401 211.069 79.6573 211.427 76.1072C211.981 70.7656 212.958 66.7594 213.674 63.8281C214.944 58.6494 215.172 57.2488 212.795 56.1089C212.274 55.8483 211.818 55.8483 211.362 56.1089C208.919 57.4117 207.388 64.3492 206.997 66.8897C206.932 67.3457 206.541 67.6714 206.053 67.6388C205.597 67.6063 205.238 67.2154 205.238 66.7269C205.532 52.8844 204.75 48.9759 201.591 48.52C201.004 48.4222 200.581 48.5525 200.223 48.8782C199.018 50.0182 198.985 53.2752 199.05 54.3175C199.083 54.7409 198.822 55.1318 198.399 55.2295C198.008 55.3598 197.552 55.1643 197.389 54.7735C194.458 48.9108 190.582 48.292 189.018 48.292C187.455 48.292 186.315 48.9108 186.022 49.4971C185.566 50.409 185.566 51.4513 185.989 52.2981C186.445 53.2427 187.39 53.8941 188.628 54.0895C190.745 54.4804 191.982 56.8906 192.471 59.0077C192.959 61.3202 192.829 64.5121 190.745 65.9777C189.116 67.1177 186.543 67.1828 184.035 66.1406C181.397 65.0658 179.606 63.079 179.215 60.8316C178.791 58.3888 180.289 56.7277 181.592 55.2295C182.569 54.1546 183.449 53.145 183.449 52.005C183.449 51.1256 182.863 50.3765 181.918 50.1159C180.159 49.6274 177.195 50.7999 174.199 55.6529C170.649 61.3853 173.319 67.7365 177.163 75.4557C180.583 82.263 179.801 93.3044 170.16 101.577L165.958 133.008ZM184.849 53.8289C184.393 54.8061 183.644 55.6529 182.928 56.4672C181.723 57.8025 180.68 58.9751 180.973 60.571C181.267 62.1996 182.7 63.6978 184.719 64.5446C186.641 65.3263 188.595 65.3263 189.735 64.5446C190.81 63.7955 191.233 61.6784 190.745 59.3985C190.321 57.4443 189.344 56.0112 188.334 55.8483C186.836 55.6203 185.631 54.9038 184.849 53.8289Z" fill="#49556E" />
	<path d="M185.341 68.1593C184.364 67.573 183.484 69.1038 184.461 69.6901C188.663 72.1655 191.073 76.6276 190.845 81.4806C190.78 82.6206 192.571 82.6206 192.604 81.4806C192.865 75.9762 190.064 70.9278 185.341 68.1593Z" fill="#49556E" />
	<path d="M197.327 54.7087C197.033 59.692 196.708 64.7078 196.415 69.6911C196.349 70.8311 198.108 70.8311 198.173 69.6911C198.467 64.7078 198.792 59.692 199.085 54.7087C199.151 53.6013 197.392 53.6013 197.327 54.7087Z" fill="#49556E" />
	<path d="M205.27 66.0435C205.173 68.2908 205.075 70.5382 204.977 72.8181C204.912 73.9581 206.703 73.9581 206.736 72.8181C206.834 70.5708 206.931 68.3234 207.029 66.0435C207.094 64.9035 205.336 64.9035 205.27 66.0435Z" fill="#49556E" />
	<path d="M180.843 50.1809C180.648 49.0736 178.954 49.5295 179.149 50.6369C179.443 52.3306 177.781 53.3729 176.283 52.8192C175.208 52.4283 174.752 54.122 175.827 54.5128C178.693 55.5877 181.332 53.0797 180.843 50.1809Z" fill="#49556E" />
	<path d="M107.723 151.54C45.5788 152.615 51.0832 147.208 50.3015 112.651C49.8129 91.0568 45.8068 75.9441 61.9291 69.5603C71.6026 65.7495 89.9723 66.5964 116.55 66.8244C160.097 67.2152 169.184 62.4274 171.724 80.5691C171.789 81.1228 171.887 81.7091 171.952 82.3279C172.538 87.7021 172.571 101.772 172.897 111.283C174.46 156.686 169.868 150.465 107.723 151.54Z" fill="white" />
	<path d="M94.7584 152.55C72.5779 152.55 60.4291 151.052 54.7293 145.515C49.6483 140.564 49.5832 132.617 49.4854 120.566C49.4529 118.123 49.4529 115.485 49.3877 112.651C49.3226 109.133 49.1272 105.811 48.9643 102.619C48.1175 86.1712 47.4986 74.283 61.5691 68.746C70.1025 65.3912 85.2478 65.5541 106.223 65.8472C109.513 65.8798 112.965 65.9449 116.548 65.9775C125.375 66.0426 132.931 65.9123 138.989 65.8146C163.775 65.3587 170.452 65.2284 172.602 80.5039C172.667 81.0902 172.765 81.6765 172.83 82.2953C173.221 85.8455 173.384 93.2716 173.514 100.47C173.579 104.215 173.677 108.059 173.774 111.316C174.458 130.89 173.872 140.531 168.693 145.938C162.7 152.159 151.04 152.192 127.85 152.289C121.955 152.322 115.245 152.322 107.754 152.452C103.064 152.485 98.7646 152.55 94.7584 152.55ZM91.3059 67.4757C78.1475 67.4757 68.3437 67.9969 62.2531 70.4071C49.3552 75.4881 49.9414 86.2689 50.7883 102.554C50.9511 105.779 51.114 109.101 51.2117 112.651C51.2768 115.485 51.3094 118.123 51.3094 120.598C51.4071 132.617 51.4722 139.847 55.9995 144.277C62.2531 150.368 77.6589 151.182 107.721 150.661C115.245 150.53 121.922 150.498 127.85 150.498C150.552 150.433 161.984 150.368 167.456 144.7C172.211 139.782 172.7 130.434 172.048 111.381C171.95 108.124 171.853 104.248 171.788 100.502C171.657 93.3693 171.494 85.9758 171.104 82.4907C171.038 81.9045 170.973 81.3182 170.876 80.7645C168.954 67.0523 163.775 67.15 139.054 67.606C132.964 67.7037 125.407 67.8666 116.548 67.7689C112.965 67.7363 109.513 67.7037 106.223 67.6386C100.849 67.5409 95.8658 67.4757 91.3059 67.4757Z" fill="#49556E" />
	<path d="M171.952 82.3607C134.886 82.5887 97.8211 82.8493 60.7559 83.0773C59.6159 83.0773 59.6159 81.3185 60.7559 81.3185C97.7559 81.0579 134.723 80.8299 171.724 80.6019C171.789 81.1556 171.854 81.7419 171.952 82.3607Z" fill="#49556E" />
	<rect x="103.594" y="103.594" width="55.25" height="5.525" rx="2.7625" fill="#49556E" />
	<rect x="103.594" y="113.262" width="55.25" height="5.525" rx="2.7625" fill="#49556E" />
	<rect x="103.594" y="122.931" width="37.2938" height="5.525" rx="2.7625" fill="#49556E" />
	<rect x="66.3001" y="100.831" width="30.3875" height="30.3875" rx="15.1938" fill="#00AEF0" />
	<path fill-rule="evenodd" clip-rule="evenodd" d="M87.0224 113.034C87.0224 116.213 84.4453 118.79 81.2663 118.79C78.0873 118.79 75.5102 116.213 75.5102 113.034C75.5102 109.855 78.0873 107.278 81.2663 107.278C84.4453 107.278 87.0224 109.855 87.0224 113.034Z" fill="#00AEF0" />
	<path fill-rule="evenodd" clip-rule="evenodd" d="M88.8677 121.652C88.1038 119.896 87.9723 118.407 87.9518 117.823V113.011C87.9518 109.336 84.9573 106.356 81.2637 106.356C77.5697 106.356 74.5751 109.336 74.5751 113.011V117.892C74.5466 118.521 74.3965 119.964 73.6621 121.652C72.675 123.921 73.4919 123.65 74.2236 123.464C74.9552 123.278 76.5892 122.549 77.0996 123.447C77.6098 124.344 78.0355 125.123 79.2267 124.615C80.4179 124.107 80.9793 123.938 81.1494 123.938H81.3807C81.5506 123.938 82.1121 124.107 83.3033 124.615C84.4945 125.123 84.9199 124.344 85.4305 123.447C85.9407 122.549 87.5745 123.278 88.3064 123.464C89.0381 123.65 89.8546 123.921 88.8677 121.652ZM79.1995 109.985C79.9198 109.985 80.5038 110.904 80.5038 112.039C80.5038 113.173 79.9198 114.093 79.1995 114.093C78.4791 114.093 77.895 113.173 77.895 112.039C77.895 110.904 78.4791 109.985 79.1995 109.985ZM81.2646 118.195C79.6771 118.195 78.3408 116.641 77.9381 114.911C78.7159 115.975 79.9163 116.658 81.2646 116.658C82.6128 116.658 83.8131 115.975 84.591 114.911C84.1883 116.641 82.8518 118.195 81.2646 118.195ZM83.3272 114.093C82.6063 114.093 82.0225 113.173 82.0225 112.039C82.0225 110.904 82.6063 109.985 83.3272 109.985C84.048 109.985 84.6316 110.904 84.6316 112.039C84.6316 113.173 84.048 114.093 83.3272 114.093Z" fill="white" />
	<rect x="121.588" y="56.6689" width="32.4594" height="32.4594" rx="9.66477" fill="white" />
	<rect x="121.588" y="56.6689" width="32.4594" height="32.4594" rx="9.66477" stroke="#49556E" stroke-width="2.07188" />
	<g filter="url(#filter0_d_1831_1179)">
		<rect x="122.624" y="57.7049" width="30.3875" height="30.3875" rx="8.97812" fill="white" />
		<g clip-path="url(#clip0_1831_1179)">
			<path d="M142.376 71.8857C142.376 71.8857 141.36 70.5022 140.535 69.6766C139.71 68.8511 138.57 68.3405 137.311 68.3405C134.794 68.3405 132.753 70.3812 132.753 72.8986C132.753 75.416 134.794 77.4567 137.311 77.4567C139.389 77.4567 141.142 76.0662 141.691 74.1648M142.376 71.8857V68.8469M142.376 71.8857H139.337" stroke="#202225" stroke-width="1.13953" stroke-linecap="round" stroke-linejoin="round" />
		</g>
	</g>
	<defs>
		<filter id="filter0_d_1831_1179" x="116.547" y="53.9064" width="42.5425" height="42.5425" filterUnits="userSpaceOnUse" color-interpolation-filters="sRGB">
			<feFlood flood-opacity="0" result="BackgroundImageFix" />
			<feColorMatrix in="SourceAlpha" type="matrix" values="0 0 0 0 0 0 0 0 0 0 0 0 0 0 0 0 0 0 127 0" result="hardAlpha" />
			<feOffset dy="2.27906" />
			<feGaussianBlur stdDeviation="3.03875" />
			<feColorMatrix type="matrix" values="0 0 0 0 0 0 0 0 0 0 0 0 0 0 0 0 0 0 0.06 0" />
			<feBlend mode="normal" in2="BackgroundImageFix" result="effect1_dropShadow_1831_1179" />
			<feBlend mode="normal" in="SourceGraphic" in2="effect1_dropShadow_1831_1179" result="shape" />
		</filter>
		<clipPath id="clip0_1831_1179">
			<rect width="12.155" height="12.155" fill="white" transform="translate(131.74 66.8211)" />
		</clipPath>
	</defs>
</svg>
