<svg width="606" height="833" xmlns="http://www.w3.org/2000/svg" xmlns:xlink="http://www.w3.org/1999/xlink">
  <defs>
    <path id="a" d="M.19.516h15.486v15.602H.19z"/>
  </defs>
  <g fill="none" fill-rule="evenodd">
    <path d="M502.847 275.732c0 109.068-88.417 197.485-197.484 197.485-109.067 0-197.484-88.417-197.484-197.485 0-109.067 88.417-197.484 197.484-197.484 109.067 0 197.484 88.417 197.484 197.484" fill="#FFF"/>
    <path d="M577.478 544.922c-27.63-62.576-32.384-115.595-33.13-136.428V237.085C544.349 106.142 436.039 0 302.439 0 168.823 0 60.508 106.142 60.508 237.085v173.887c-1.035 22.409-6.464 73.81-33.02 133.95-35.707 80.812-6.163 71.184 20.307 64.532 26.463-6.62 85.563-32.573 104.03-.6 18.452 31.956 33.848 59.715 76.933 41.614 43.089-18.083 63.392-24.116 69.544-24.116h8.365c6.148 0 26.46 6.033 69.54 24.116 43.09 18.101 58.482-9.658 76.945-41.613 18.455-31.974 77.552-6.022 104.022.6 26.467 6.65 56 16.279 20.304-64.533M227.767 129.278c26.056 0 47.184 32.756 47.184 73.173 0 40.42-21.128 73.185-47.184 73.185-26.057 0-47.188-32.764-47.188-73.185 0-40.417 21.131-73.173 47.188-73.173m74.671 292.492c-57.42 0-105.754-55.381-120.32-117.007 28.129 37.905 71.553 62.26 120.32 62.26 48.76 0 92.184-24.355 120.316-62.26-14.565 61.626-62.908 117.007-120.316 117.007m74.675-146.134c-26.079 0-47.195-32.764-47.195-73.185 0-40.417 21.116-73.173 47.195-73.173 26.068 0 47.176 32.756 47.176 73.173 0 40.42-21.108 73.185-47.176 73.185" fill="#00AEF0"/>
    <g>
      <path d="M33.236 757.532h29.42v41.559c0 20.967-10.7 32.95-31.332 32.95C10.696 832.04 0 820.057 0 799.09v-68.146C0 709.976 10.696 698 31.324 698c20.632 0 31.332 11.976 31.332 32.945v12.733H42.79v-14.042c0-9.358-4.199-12.913-10.888-12.913-6.687 0-10.89 3.555-10.89 12.913v70.767c0 9.362 4.203 12.733 10.89 12.733 6.69 0 10.888-3.371 10.888-12.733v-24.15h-9.553v-18.721zM98.008 830.467h-21.01V699.426h21.01v56.16h23.874v-56.16h21.395v131.041h-21.395v-56.162H98.008zM156.847 730.948c0-20.965 11.272-32.948 31.9-32.948 20.635 0 31.903 11.983 31.903 32.948v68.146c0 20.966-11.268 32.952-31.903 32.952-20.628 0-31.9-11.986-31.9-32.952v-68.146zm21.012 69.457c0 9.361 4.21 12.919 10.888 12.919 6.689 0 10.888-3.558 10.888-12.919v-70.768c0-9.359-4.2-12.918-10.888-12.918-6.679 0-10.888 3.559-10.888 12.918v70.768zM262.513 698c20.442 0 30.948 11.985 30.948 32.952v4.115h-19.867v-5.43c0-9.359-3.824-12.915-10.516-12.915-6.68 0-10.506 3.556-10.506 12.915 0 26.957 41.076 32.016 41.076 69.457 0 20.969-10.693 32.946-31.328 32.946-20.626 0-31.327-11.977-31.327-32.946v-8.05h19.865v9.359c0 9.358 4.205 12.728 10.89 12.728 6.684 0 10.885-3.37 10.885-12.728 0-26.962-41.067-32.016-41.067-69.45 0-20.968 10.503-32.953 30.947-32.953M298.01 699.426h64.943v18.726h-21.96v112.32h-21.016v-112.32h-21.968zM394.586 754.652h28.845v18.72h-28.845v38.378h36.297v18.724h-57.302V699.426h57.302v18.722h-36.297zM487.382 830.467c-1.14-3.37-1.91-5.432-1.91-16.095v-20.595c0-12.169-4.201-16.662-13.756-16.662h-7.253v53.352h-21.014V699.426h31.713c21.772 0 31.14 9.924 31.14 30.142v10.296c0 13.473-4.397 22.276-13.758 26.58 10.502 4.303 13.94 14.227 13.94 27.893v20.219c0 6.368.192 11.048 2.29 15.911h-21.392zm-22.92-112.32v40.245h8.214c7.836 0 12.6-3.365 12.6-13.853v-12.917c0-9.362-3.242-13.474-10.687-13.474h-10.126zM538.443 787.038l-26.551-87.612h21.963l16.056 59.72 16.042-59.72h20.059l-26.553 87.612v43.43h-21.016z" fill="#1D1D1B"/>
      <g transform="translate(590.315 699.426)">
        <mask id="b" fill="#fff">
          <use xlink:href="#a"/>
        </mask>
        <path d="M7.944.516c4.396 0 7.733 3.266 7.733 7.801 0 4.527-3.337 7.801-7.733 7.801-4.409 0-7.754-3.274-7.754-7.8C.19 3.781 3.535.515 7.944.515zm0 14.075c3.503 0 6.13-2.633 6.13-6.274 0-3.639-2.627-6.282-6.13-6.282-3.52 0-6.146 2.643-6.146 6.282 0 3.64 2.627 6.274 6.146 6.274zm1.108-1.618c-.118-.277-.163-.43-.163-1.302V10.67c0-1.002-.352-1.35-1.129-1.35h-.576v3.653h-1.69V3.652h2.574c1.741 0 2.52.81 2.52 2.444v.194c0 1.11-.363 1.81-1.162 2.157.866.347 1.162 1.132 1.162 2.247v1c0 .502.017.891.198 1.279H9.052zM7.184 5.18v2.611h.679c.633 0 1.026-.26 1.026-1.11V6.29c0-.762-.266-1.11-.906-1.11h-.799z" fill="#1D1D1B" mask="url(#b)"/>
      </g>
    </g>
  </g>
</svg>
