<svg width="595" height="177" xmlns="http://www.w3.org/2000/svg" xmlns:xlink="http://www.w3.org/1999/xlink">
	<defs>
		<path id="a" d="M.133.362h10.861v10.942H.134z"/>
	</defs>
	<g fill="none" fill-rule="evenodd">
		<path d="M132 74c0 29.271-23.729 53-53 53s-53-23.729-53-53 23.729-53 53-53 53 23.729 53 53" fill="#FFF"/>
		<path d="M152.029 146.244c-7.415-16.794-8.691-31.023-8.891-36.614V63.628C143.138 28.486 114.07 0 78.215 0 42.356 0 13.287 28.486 13.287 63.628v46.667c-.278 6.014-1.735 19.809-8.862 35.949-9.583 21.688-1.654 19.104 5.45 17.319 7.102-1.777 22.963-8.742 27.919-.161 4.952 8.576 9.084 16.026 20.647 11.168 11.564-4.853 17.013-6.472 18.664-6.472h2.245c1.65 0 7.101 1.619 18.663 6.472 11.564 4.858 15.695-2.592 20.65-11.168 4.953-8.581 20.813-1.616 27.917.161 7.103 1.785 15.029 4.369 5.449-17.319M58.175 34.695c6.993 0 12.663 8.791 12.663 19.638 0 10.848-5.67 19.641-12.663 19.641s-12.664-8.793-12.664-19.641c0-10.847 5.671-19.638 12.664-19.638m20.04 78.498c-15.41 0-28.382-14.863-32.291-31.402C53.473 91.964 65.127 98.5 78.215 98.5c13.086 0 24.74-6.536 32.29-16.709-3.909 16.539-16.883 31.402-32.29 31.402m20.041-39.219c-6.999 0-12.666-8.793-12.666-19.641 0-10.847 5.667-19.638 12.666-19.638 6.996 0 12.661 8.791 12.661 19.638 0 10.848-5.665 19.641-12.661 19.641" fill="#00AEF0"/>
		<path d="M193.309 74.751h20.633v29.146c0 14.705-7.504 23.108-21.974 23.108-14.467 0-21.968-8.403-21.968-23.108V56.105C170 41.399 177.501 33 191.968 33c14.47 0 21.974 8.399 21.974 23.105v8.93h-13.933v-9.848c0-6.563-2.945-9.056-7.636-9.056-4.69 0-7.638 2.493-7.638 9.056v49.63c0 6.566 2.948 8.93 7.638 8.93 4.691 0 7.636-2.364 7.636-8.93V87.881h-6.7v-13.13zM238.735 125.902H224V34h14.735v39.386h16.743V34h15.005v91.902h-15.005V86.514h-16.743zM280 56.107C280 41.404 287.905 33 302.372 33c14.472 0 22.374 8.404 22.374 23.107v47.792c0 14.704-7.902 23.11-22.374 23.11-14.467 0-22.372-8.406-22.372-23.11V56.107zm14.736 48.712c0 6.565 2.952 9.06 7.636 9.06 4.691 0 7.636-2.495 7.636-9.06V55.188c0-6.564-2.945-9.06-7.636-9.06-4.684 0-7.636 2.496-7.636 9.06v49.631zM354.106 33c14.336 0 21.704 8.405 21.704 23.11v2.886h-13.933v-3.808c0-6.564-2.682-9.058-7.375-9.058-4.685 0-7.368 2.494-7.368 9.058 0 18.905 28.807 22.453 28.807 48.711 0 14.706-7.499 23.106-21.971 23.106-14.465 0-21.97-8.4-21.97-23.106v-5.646h13.932v6.564c0 6.563 2.949 8.927 7.637 8.927s7.634-2.364 7.634-8.927c0-18.909-28.801-22.453-28.801-48.707 0-14.705 7.366-23.11 21.704-23.11M379 34h45.546v13.133h-15.401v78.772h-14.739V47.133H379zM446.731 72.731h20.23V85.86h-20.23v26.915h25.456v13.132H432V34h40.187v13.13h-25.456zM511.811 125.902c-.8-2.364-1.34-3.81-1.34-11.288V100.17c0-8.534-2.946-11.685-9.647-11.685h-5.087v37.417H481V34h22.241c15.269 0 21.839 6.96 21.839 21.139v7.221c0 9.449-3.084 15.623-9.649 18.641 7.365 3.018 9.776 9.978 9.776 19.562v14.18c0 4.466.135 7.748 1.607 11.159h-15.003zM495.737 47.13v28.224h5.76c5.496 0 8.837-2.36 8.837-9.715V56.58c0-6.566-2.274-9.45-7.495-9.45h-7.102zM547.621 95.444L529 34h15.403l11.261 41.883L566.914 34h14.068L562.36 95.444v30.458h-14.739z" fill="#1D1D1B"/>
		<g transform="translate(584 34)">
			<mask id="b" fill="#fff">
				<use xlink:href="#a"/>
			</mask>
			<path d="M5.571.362c3.083 0 5.423 2.29 5.423 5.471 0 3.175-2.34 5.471-5.423 5.471-3.092 0-5.438-2.296-5.438-5.47C.133 2.651 2.48.361 5.571.361zm0 9.871c2.457 0 4.3-1.847 4.3-4.4 0-2.552-1.843-4.406-4.3-4.406-2.468 0-4.31 1.854-4.31 4.406 0 2.553 1.842 4.4 4.31 4.4zm.777-1.135c-.083-.194-.114-.302-.114-.913v-.702c0-.703-.247-.947-.792-.947h-.404v2.562H3.853V2.561h1.805c1.221 0 1.767.568 1.767 1.714v.136c0 .78-.254 1.27-.815 1.513.608.243.815.794.815 1.576v.701c0 .352.012.625.14.897H6.347zm-1.31-5.465v1.831h.476c.444 0 .72-.183.72-.778v-.275c0-.534-.187-.778-.636-.778h-.56z" fill="#1D1D1B" mask="url(#b)"/>
		</g>
	</g>
</svg>
