<svg width="128" height="128" viewBox="0 0 128 128" fill="none" xmlns="http://www.w3.org/2000/svg">
<path fill-rule="evenodd" clip-rule="evenodd" d="M101.5 56.5C101.5 77.2106 84.7106 94 64 94C43.2894 94 26.5 77.2106 26.5 56.5C26.5 35.7894 43.2894 19 64 19C84.7106 19 101.5 35.7894 101.5 56.5Z" fill="#FFFFFE"/>
<path fill-rule="evenodd" clip-rule="evenodd" d="M113.531 103.651C108.555 92.2075 107.698 82.5112 107.564 78.7015V47.3559C107.564 23.4103 88.0557 4 63.9924 4C39.9264 4 20.4173 23.4103 20.4173 47.3559V79.1547C20.2314 83.2533 19.2536 92.6531 14.4691 103.651C8.03837 118.429 13.3604 116.668 18.1275 115.452C22.8938 114.242 33.5386 109.494 36.8641 115.341C40.1881 121.186 42.9612 126.261 50.7215 122.952C58.4824 119.644 62.1394 118.542 63.2475 118.542H64.7548C65.8615 118.542 69.5198 119.644 77.2801 122.952C85.0403 126.261 87.8121 121.186 91.1382 115.341C94.4623 109.494 105.107 114.242 109.874 115.452C114.641 116.668 119.96 118.429 113.531 103.651ZM50.5432 27.6426C55.2364 27.6426 59.0411 33.6328 59.0411 41.0245C59.0411 48.4157 55.2364 54.4079 50.5432 54.4079C45.85 54.4079 42.0448 48.4157 42.0448 41.0245C42.0448 33.6328 45.85 27.6426 50.5432 27.6426ZM63.9927 81.1302C53.6506 81.1302 44.9446 71.0026 42.3212 59.7336C47.3882 66.6648 55.2089 71.1191 63.9927 71.1191C72.7757 71.1191 80.5957 66.6648 85.6634 59.7336C83.04 71.0026 74.3327 81.1302 63.9927 81.1302ZM77.4419 54.4079C72.7453 54.4079 68.942 48.4157 68.942 41.0245C68.942 33.6328 72.7453 27.6426 77.4419 27.6426C82.1377 27.6426 85.9396 33.6328 85.9396 41.0245C85.9396 48.4157 82.1377 54.4079 77.4419 54.4079Z" fill="#88898C"/>
</svg>
