<svg width="128" height="128" viewBox="0 0 128 128" fill="none" xmlns="http://www.w3.org/2000/svg">
	<path fill-rule="evenodd" clip-rule="evenodd" d="M99 57C99 76.3299 83.3299 92 64 92C44.6701 92 29 76.3299 29 57C29 37.6701 44.6701 22 64 22C83.3299 22 99 37.6701 99 57Z" fill="#FFFFFE" />
	<path fill-rule="evenodd" clip-rule="evenodd" d="M110.229 101.007C105.584 90.327 104.785 81.2771 104.659 77.7214V48.4655C104.659 26.1163 86.452 8 63.9929 8C41.5313 8 23.3228 26.1163 23.3228 48.4655V78.1444C23.1493 81.9697 22.2367 90.7429 17.7712 101.007C11.7691 114.801 16.7364 113.157 21.1856 112.022C25.6342 110.892 35.5693 106.461 38.6731 111.918C41.7756 117.373 44.3638 122.111 51.6068 119.022C58.8503 115.935 62.2635 114.906 63.2976 114.906H64.7045C65.7374 114.906 69.1518 115.935 76.3947 119.022C83.6376 122.111 86.2246 117.373 89.329 111.918C92.4315 106.461 102.366 110.892 106.815 112.022C111.265 113.157 116.23 114.801 110.229 101.007ZM51.4403 30.0664C55.8207 30.0664 59.3717 35.6573 59.3717 42.5562C59.3717 49.4546 55.8207 55.0473 51.4403 55.0473C47.06 55.0473 43.5085 49.4546 43.5085 42.5562C43.5085 35.6573 47.06 30.0664 51.4403 30.0664ZM63.9932 79.9882C54.3405 79.9882 46.215 70.5357 43.7665 60.018C48.4957 66.4872 55.7949 70.6445 63.9932 70.6445C72.1907 70.6445 79.4893 66.4872 84.2191 60.018C81.7706 70.5357 73.6439 79.9882 63.9932 79.9882ZM76.5457 55.0473C72.1623 55.0473 68.6126 49.4546 68.6126 42.5562C68.6126 35.6573 72.1623 30.0664 76.5457 30.0664C80.9285 30.0664 84.477 35.6573 84.477 42.5562C84.477 49.4546 80.9285 55.0473 76.5457 55.0473Z" fill="#00AEF0" />
</svg>
