<svg xmlns="http://www.w3.org/2000/svg" width="71" height="71"><g fill="none" fill-rule="evenodd"><path d="M0 0h71v71H0z"/><path fill="#4A4A4A" fill-rule="nonzero" d="M18.347 22.814l2.491.242c.27.024.495.213.565.474l.049.19a.646.646 0 01-.252.691l-2.033 1.456.322.739v.022c.132.32.273.626.423.917l.02.038c.145.297.303.588.464.875l.023.039c.064.116.129.229.2.342a16.35 16.35 0 001.004 1.497l.5.646 2.278-1.036a.646.646 0 01.727.126l.138.142a.645.645 0 01.126.723l-1.036 2.304.646.497a17.363 17.363 0 003.72 2.127l.762.322 1.456-2.036a.645.645 0 01.687-.265l.19.052c.261.07.45.296.475.565l.239 2.491.823.1c1.42.177 2.856.177 4.276 0l.823-.103.242-2.491a.647.647 0 01.474-.562l.19-.052a.645.645 0 01.691.252l1.456 2.037.762-.323c.762-.324 1.5-.7 2.21-1.127.515-.31 1.012-.647 1.491-1.01l.665-.474-1.033-2.279a.645.645 0 01.13-.726l.138-.138a.644.644 0 01.723-.126l2.279 1.036.506-.672a17.02 17.02 0 001.236-1.878c.162-.29.323-.58.465-.878l.02-.038c.145-.297.283-.598.413-.9v-.03l.322-.732-2.036-1.456a.644.644 0 01-.252-.69c.016-.065.036-.127.052-.191a.643.643 0 01.561-.471l2.492-.242.103-.823c.133-1.054.167-2.119.103-3.18-.02-.364-.055-.732-.097-1.096v-.088l-.09-.732-1.936-.19-.546-.055a.647.647 0 01-.555-.446v-.029l-.048-.19a.644.644 0 01.252-.69l.119-.085 1.914-1.368-.323-.765c-.323-.763-.7-1.502-1.13-2.21a16.79 16.79 0 00-1.039-1.498l-.497-.646-2.278 1.036a.645.645 0 01-.723-.129l-.142-.138a.646.646 0 01-.126-.727l1.036-2.278-.662-.5a17.487 17.487 0 00-3.708-2.153l-.761-.323-1.456 2.037a.645.645 0 01-.687.245l-.19-.052a.644.644 0 01-.475-.561l-.239-2.492-.823-.103a17.38 17.38 0 00-4.276 0l-.823.1-.242 2.492a.644.644 0 01-.471.564l-.207.052a.644.644 0 01-.69-.252L29.48 3.521l-.762.323a17.572 17.572 0 00-3.701 2.136l-.646.497 1.033 2.279a.645.645 0 01-.126.723c-.045.048-.093.093-.142.142a.647.647 0 01-.723.129L22.13 8.714l-.506.661a17.404 17.404 0 00-2.13 3.705l-.323.762 1.92 1.375.116.083c.22.156.32.431.252.691 0 .061-.035.123-.051.187v.036a.646.646 0 01-.552.439l-.533.051-1.959.19-.093.74v.08a17.4 17.4 0 00-.007 4.277l.084.823zm2.698-4.096a2.718 2.718 0 002.362-2.004c0-.055.03-.11.046-.165.016-.054.022-.093.032-.138.08-.375.08-.762 0-1.136a2.757 2.757 0 00-1.075-1.65l-.671-.477c.309-.642.663-1.262 1.062-1.853l.758.34a2.719 2.719 0 003.05-.559l.122-.12a2.717 2.717 0 00.559-3.05l-.342-.748A13.683 13.683 0 0128.793 6.1l.472.677a2.714 2.714 0 002.904 1.043l.165-.042a2.728 2.728 0 002.01-2.366l.081-.82a15.1 15.1 0 012.127 0l.08.823a2.723 2.723 0 002.008 2.363l.161.045a2.723 2.723 0 002.94-1.046l.481-.671c.639.31 1.254.666 1.843 1.062l-.342.752a2.719 2.719 0 00.558 3.053l.12.122a2.722 2.722 0 003.04.546l.749-.323a15.062 15.062 0 011.055 1.846l-.668.478a2.733 2.733 0 00-1.078 1.662 2.7 2.7 0 000 1.132c0 .049.02.097.032.146l.045.164a2.718 2.718 0 002.385 1.972l.82.08c.05.709.05 1.42 0 2.128l-.82.08a2.723 2.723 0 00-2.365 2.008c0 .055-.03.106-.045.161-.149.549-.12 1.13.08 1.662 0 .023 0 .042.023.061.193.481.519.897.939 1.201l.671.48c0 .036-.035.075-.055.11l-.019.04a15.07 15.07 0 01-.474.874l-.023.035c-.155.268-.323.53-.49.785l-.762-.346a2.711 2.711 0 00-3.05.555l-.12.12a2.717 2.717 0 00-.56 3.053l.341.748c-.213.143-.429.278-.645.41-.387.236-.79.452-1.2.646l-.478-.668a2.719 2.719 0 00-2.905-1.043l-.164.046a2.718 2.718 0 00-2.011 2.362l-.08.82c-.709.05-1.42.05-2.128 0l-.08-.82a2.722 2.722 0 00-2.014-2.356l-.165-.042a2.72 2.72 0 00-2.924 1.04l-.48.674a15.334 15.334 0 01-1.843-1.065l.342-.752a2.722 2.722 0 00-.558-3.05l-.12-.12a2.719 2.719 0 00-3.04-.558l-.749.323c-.142-.213-.277-.43-.41-.645-.025-.042-.048-.088-.077-.133l-.02-.038a15.244 15.244 0 01-.474-.872l-.02-.039a1.322 1.322 0 01-.06-.119l.668-.478c.418-.3.743-.713.936-1.19l.012-.036a2.71 2.71 0 00.081-1.672c-.016-.055-.029-.11-.045-.164a2.718 2.718 0 00-2.362-2.008l-.82-.08c-.05-.71-.05-1.421 0-2.13l.826-.078z"/><path fill="#4A4A4A" fill-rule="nonzero" d="M61.463 31.598l6.055-6.935a1.03 1.03 0 00-.352-1.62l-12.364-5.616v.039a19.926 19.926 0 01.142 2.301l10.095 4.576-5.238 6.016-6.396-2.905-.02.042c-.129.304-.267.604-.41.9l-.019.04c-.148.296-.3.587-.461.877l-.023.039 4.973 2.275-21.945 9.94-21.945-9.94 4.98-2.259a11.807 11.807 0 01-.482-.916l-.025-.052a19.094 19.094 0 01-.414-.897l-.019-.042-6.396 2.904-5.245-6.015 10.095-4.577c0-.384 0-.77.039-1.155.039-.384.061-.774.11-1.158v-.033L3.834 23.043a1.04 1.04 0 00-.584.723c-.07.319.017.652.232.897l6.055 6.935-6.042 6.923a1.033 1.033 0 00.352 1.614l6.045 2.743v13.386c.011.43.248.82.622 1.03l24.55 11.134c.134.06.28.093.426.093h.01c.147 0 .292-.032.426-.093l24.55-11.134c.375-.21.611-.6.623-1.03v-13.38l6.044-2.743a1.034 1.034 0 00.352-1.614l-6.032-6.929zm-.355 9.014l-1.02.462-1.02.464L44.62 48.09l-1.252.568-.878.397-1.18-1.291-1.64-1.879-2.456-2.81 21.839-9.905.745-.339.274.323 1.02 1.168v.016l3.925 4.496-3.909 1.778zM12.09 55.745l-.116-.052V43.826l11.941 5.419 1.259.568 1.249.568 1.978.894a1.028 1.028 0 001.204-.262l3.001-3.437 1.643-1.881.21-.239v20.432l-21.116-9.575-1.253-.568zM9.892 34.338l.016-.016 1.02-1.168.274-.323.745.339 21.84 9.904-2.457 2.811-1.64 1.879-1.151 1.316-.878-.397-1.252-.568-14.436-6.557-1.02-.465-1.02-.462h-.016l-3.924-1.778 3.899-4.515zm26.65 31.55V45.456l.21.239 1.643 1.881 3.001 3.438a1.029 1.029 0 001.204.261l1.978-.894 1.25-.568 1.251-.568 11.941-5.419v11.867l-.116.052-1.252.568-21.11 9.575z"/><path fill="#4A4A4A" fill-rule="nonzero" d="M35.5 29.785a9.928 9.928 0 113.795-19.099 9.926 9.926 0 016.129 9.171c-.005 5.48-4.445 9.92-9.924 9.928zm0-17.996a8.069 8.069 0 10.001 16.135A8.069 8.069 0 0035.5 11.79z"/><path fill="#4A4A4A" fill-rule="nonzero" d="M38.217 14.749c-.948 0-1.717 1.216-1.717 2.717 0 1.5.769 2.72 1.717 2.72.95 0 1.717-1.22 1.717-2.72 0-1.5-.768-2.717-1.717-2.717zM35.5 23.578a5.426 5.426 0 01-4.38-2.31c.53 2.291 2.289 4.344 4.38 4.344 2.091 0 3.85-2.053 4.38-4.344a5.426 5.426 0 01-4.38 2.31zm-2.717-3.391c.948 0 1.717-1.22 1.717-2.721 0-1.5-.769-2.717-1.717-2.717-.95 0-1.717 1.216-1.717 2.717 0 1.5.768 2.72 1.717 2.72z"/></g></svg>