<svg xmlns="http://www.w3.org/2000/svg" width="71" height="71"><g fill="none" fill-rule="evenodd"><path d="M0 0h71v71H0z"/><path fill="#4A4A4A" fill-rule="nonzero" d="M66.888 20.977H30.146a.884.884 0 000 1.769h34.4l-3.247 2.833H49.86a.888.888 0 00-.887.885.887.887 0 00.887.884h9.392l-3.892 3.408h-9.64a.884.884 0 00-.884.871c0 .235.093.46.258.626a.889.889 0 00.626.259h7.613l-4.647 4.056h-7.123a.884.884 0 000 1.769h5.093l-5.603 4.908-10.77-9.4a.884.884 0 10-1.161 1.332l7.762 6.778-20.778 14.658v-15.23a.881.881 0 00-.887-.884.884.884 0 00-.884.884V58.32c0 .488.395.884.884.884h51.668a.884.884 0 00.885-.884V21.871a.887.887 0 00-.885-.894zM40.473 45.085a.887.887 0 001.162 0l2.214-1.936 6.929 4.886a.886.886 0 001.233-.213c.28-.4.185-.95-.213-1.233l-6.574-4.634 20.78-18.138v32.796l-9.624-6.777a.88.88 0 00-1.232.213.88.88 0 00.213 1.232l8.736 6.164H18.01l20.25-14.283 2.214 1.923z"/><rect width="5.648" height="1.769" x="58.498" y="15.827" fill="#4A4A4A" fill-rule="nonzero" rx=".884"/><rect width="23.514" height="1.769" x="30.265" y="15.827" fill="#4A4A4A" fill-rule="nonzero" rx=".884"/><path fill="#4A4A4A" fill-rule="nonzero" d="M15.623 38.692a.834.834 0 00.158 0 14.925 14.925 0 0012.235-14.694v-9.827a.887.887 0 00-1.123-.852l-1.82.516a8.712 8.712 0 01-6.161-.545l-2.905-1.407a.898.898 0 00-.752 0l-3.227 1.455a8.692 8.692 0 01-5.674.523l-2.03-.513a.886.886 0 00-1.097.852v9.798a14.941 14.941 0 003.037 9.036.887.887 0 101.404-1.084 13.164 13.164 0 01-2.672-7.946v-8.668l.949.232c2.282.564 4.687.343 6.829-.626l2.836-1.29 2.53 1.226a10.473 10.473 0 007.423.645l.697-.193v8.668a13.152 13.152 0 01-10.624 12.91 13.033 13.033 0 01-4.518-1.805.886.886 0 10-.968 1.485 14.737 14.737 0 005.328 2.09c.048.01.097.013.145.014z"/><path fill="#4A4A4A" fill-rule="nonzero" d="M20.36 22.346c0-1.614-.822-2.905-1.835-2.905-1.014 0-1.834 1.291-1.834 2.905 0 1.613.82 2.904 1.834 2.904 1.013 0 1.836-1.3 1.836-2.904zm-9.416 4.056c.564 2.447 2.446 4.644 4.68 4.644 2.232 0 4.11-2.197 4.676-4.644a5.663 5.663 0 01-9.36 0h.004zm1.775-6.961c-1.014 0-1.837 1.291-1.837 2.905 0 1.613.823 2.904 1.837 2.904 1.013 0 1.833-1.29 1.833-2.904 0-1.614-.82-2.905-1.833-2.905z"/></g></svg>