<svg xmlns="http://www.w3.org/2000/svg" width="71" height="71"><g fill="none" fill-rule="evenodd"><path d="M0 0h71v71H0z"/><path fill="#4A4A4A" fill-rule="nonzero" d="M41.66 61.14c0 .562.456 1.017 1.017 1.017h4.267a3.737 3.737 0 003.724-3.743V46.53a1.016 1.016 0 10-2.033 0v11.883a1.7 1.7 0 01-1.7 1.7h-4.258c-.27.001-.53.11-.72.303a1.013 1.013 0 00-.296.724zm9.008-22.974a3.736 3.736 0 00-3.734-3.737h-2.998a1.017 1.017 0 000 2.033h2.998c.94.002 1.701.764 1.701 1.704v4.657a1.016 1.016 0 002.033 0v-4.657zm-10.263-3.737H24.056a3.737 3.737 0 00-3.724 3.737v3.43a1.016 1.016 0 102.033 0v-3.43a1.705 1.705 0 011.691-1.698h16.35a1.017 1.017 0 00-.001-2.033v-.006zM21.339 51.162a1.016 1.016 0 001.016-1.017V44.66a1.017 1.017 0 00-2.033 0v5.486a1.018 1.018 0 001.017 1.017zm-1.007 7.252a3.737 3.737 0 003.724 3.743h3.657a1.019 1.019 0 000-2.036h-3.657a1.702 1.702 0 01-1.701-1.707v-4.809a1.014 1.014 0 00-1.525-.88 1.016 1.016 0 00-.508.88l.01 4.809zm24.63-5.109v-2.498a1.017 1.017 0 00-2.033 0v2.498a1.016 1.016 0 002.033 0zm-8.1-13.367a1.016 1.016 0 100 2.033h2.995a3.079 3.079 0 013.072 3.075v2.36a1.017 1.017 0 002.033-.001v-2.359a5.11 5.11 0 00-5.105-5.108h-2.995z"/><path fill="#4A4A4A" fill-rule="nonzero" d="M31.143 41.97h2.42a1.016 1.016 0 10.001-2.033h-2.42a5.113 5.113 0 00-5.106 5.11v8.258a1.016 1.016 0 002.033 0v-8.259a3.079 3.079 0 013.072-3.075zM24.85 18.654c.561 0 1.017-.456 1.017-1.017v-4.312c.47-4.518 4.698-8.068 9.65-8.068a10.395 10.395 0 013.226.507 1.022 1.022 0 00.646-1.936 12.313 12.313 0 00-3.889-.6 12.132 12.132 0 00-7.92 2.904 10.682 10.682 0 00-3.756 7.045v4.46a1.019 1.019 0 001.026 1.017zM41.019 6.861c.372.239.728.503 1.065.79.274.25.661.33 1.011.21a1.018 1.018 0 00.312-1.752 11.374 11.374 0 00-1.291-.968 1.02 1.02 0 00-1.101 1.714l.004.006zm2.73 2.656a8.434 8.434 0 011.4 3.808v9.014a1.017 1.017 0 002.034 0V13.177a10.47 10.47 0 00-1.746-4.786 1.017 1.017 0 10-1.688 1.136v-.01z"/><path fill="#4A4A4A" fill-rule="nonzero" d="M29.178 10.53a6.432 6.432 0 00-1.343 3.915v11.399a1.017 1.017 0 002.033 0V14.445c.005-.971.33-1.914.927-2.682a1.015 1.015 0 00-.662-1.666 1.014 1.014 0 00-.952.434h-.003zm13.987 3.915c0-3.814-3.437-6.916-7.665-6.916a8.367 8.367 0 00-3.611.813 1.018 1.018 0 10.884 1.83 6.32 6.32 0 012.727-.61c3.105 0 5.632 2.192 5.632 4.883v4.696a1.017 1.017 0 002.033 0v-4.696zm-1.017 6.878c-.561 0-1.016.455-1.016 1.016v3.505a1.017 1.017 0 002.033 0v-3.505c0-.561-.455-1.016-1.017-1.016zm-9.875 33.344c-.562 0-1.017.455-1.017 1.016v8.54a1.51 1.51 0 01-1.513 1.517h-2.84a1.016 1.016 0 100 2.033h2.84a3.55 3.55 0 003.55-3.55v-8.54a1.016 1.016 0 00-1.02-1.016zM23.298 65.74h-4.083a3.053 3.053 0 01-3.053-3.05V50.6a1.018 1.018 0 00-2.033 0v12.09a5.092 5.092 0 005.086 5.083h4.083a1.016 1.016 0 000-2.033z"/><path fill="#4A4A4A" fill-rule="nonzero" d="M15.146 47.877a1.02 1.02 0 001.016-1.02v-12.97a3.053 3.053 0 013.053-3.05h12.16a1.017 1.017 0 00.001-2.034H25.85v-7.442a1.016 1.016 0 00-2.033 0v7.452h-4.602a5.093 5.093 0 00-5.086 5.073v12.961a1.019 1.019 0 001.017 1.03zm36.639-19.064h-4.602v-2.969a1.017 1.017 0 00-2.033 0v2.97H35.5a1.016 1.016 0 100 2.032h16.294a3.053 3.053 0 013.053 3.05v4.273a1.018 1.018 0 002.034 0v-4.283a5.093 5.093 0 00-5.096-5.073zm4.069 11.893c-.561 0-1.016.455-1.016 1.016v14.11a1.016 1.016 0 002.033 0v-14.11c0-.561-.455-1.016-1.017-1.016zm0 17.275c-.561 0-1.016.455-1.016 1.017v3.692a3.053 3.053 0 01-3.053 3.05H41.338a1.52 1.52 0 01-1.517-1.514 1.014 1.014 0 00-1.525-.88 1.016 1.016 0 00-.508.88 3.55 3.55 0 003.55 3.55h10.447a5.094 5.094 0 005.086-5.083v-3.695a1.02 1.02 0 00-1.017-1.017zm-17.127 3.773c.562 0 1.017-.455 1.017-1.017v-1.74a1.019 1.019 0 00-1.525-.88 1.017 1.017 0 00-.508.88v1.74c0 .27.107.528.297.72.191.19.45.297.72.297zm-2.459-15c0 1.152.59 2.084 1.317 2.084.726 0 1.32-.932 1.32-2.084 0-1.153-.59-2.089-1.32-2.089-.73 0-1.317.933-1.317 2.089zm-.768 4.689a4.17 4.17 0 01-3.363-1.775c.407 1.759 1.759 3.337 3.363 3.337s2.956-1.578 3.363-3.337a4.17 4.17 0 01-3.363 1.775zm-2.085-2.605c.726 0 1.317-.932 1.317-2.084 0-1.153-.59-2.089-1.317-2.089-.726 0-1.32.933-1.32 2.089 0 1.155.59 2.084 1.32 2.084z"/></g></svg>