<svg xmlns="http://www.w3.org/2000/svg" width="71" height="71"><g fill="none" fill-rule="evenodd"><path d="M0 0h70.4v70.4H0z"/><path d="M38.646 24.87c1.204 0 2.18 1.546 2.18 3.45 0 1.904-.96 3.446-2.18 3.446-1.219 0-2.166-1.542-2.166-3.446 0-1.904.96-3.45 2.166-3.45zm-3.45 11.2a6.888 6.888 0 005.56-2.934c-.676 2.902-2.906 5.514-5.56 5.514-2.652 0-4.88-2.612-5.554-5.514a6.881 6.881 0 005.558 2.938l-.003-.004zm-3.446-11.2c1.204 0 2.18 1.546 2.18 3.45 0 1.904-.96 3.446-2.18 3.446-1.219 0-2.179-1.542-2.179-3.446 0-1.904.976-3.45 2.18-3.45z"/><path fill="#4A4A4A" fill-rule="nonzero" d="M58.96 12.893a1.036 1.036 0 00-.726-.298 33.94 33.94 0 01-16.372-4.22 28.047 28.047 0 01-5.9-4.237 1.08 1.08 0 00-1.488 0 28.12 28.12 0 01-5.904 4.236 33.93 33.93 0 01-16.372 4.221c-.57 0-1.033.463-1.033 1.034v8.537c0 7.79-.023 18.42-.023 20.724 0 3.744 1.498 7.084 4.714 10.512 3.68 3.926 9.856 8.188 18.88 13.036.301.156.659.156.96 0 8.656-4.646 14.72-8.848 18.483-12.844 3.38-3.568 5.021-7.066 5.021-10.714 0-4.62.07-29.184.07-29.26 0-.274-.108-.536-.3-.73l-.01.003zM57.13 42.88c0 3.126-1.415 6.08-4.445 9.28-3.52 3.715-9.127 7.645-17.162 12.02a.643.643 0 01-.614 0C15.83 53.818 13.203 47.824 13.203 42.88c0-3.152.023-21.904.029-27.626a.64.64 0 01.611-.64 36.078 36.078 0 0015.792-4.48 32.98 32.98 0 005.168-3.52c.239-.2.587-.2.826 0a32.934 32.934 0 005.168 3.52 36.05 36.05 0 0015.785 4.48.641.641 0 01.612.64c-.016 5.517-.064 23.786-.064 27.626z"/><path fill="#4A4A4A" fill-rule="nonzero" d="M23.078 29.952v8.15a17.409 17.409 0 01-1.45 5.975c-.64 1.475-1.25 3.126-.463 4.051.307.346.754.534 1.216.512a4.79 4.79 0 001.158-.195c.32-.087.563-.157.864-.25a8.412 8.412 0 012.279-.515c.259 0 .617.029.768.298.672 1.187 1.507 2.659 3.2 2.659a3.874 3.874 0 001.523-.349 26.57 26.57 0 012.531-.98.12.12 0 01.026-.04.115.115 0 01.09-.042h.585c.969.277 1.915.63 2.829 1.056.477.22.994.338 1.52.348 1.692 0 2.544-1.5 3.228-2.707.103-.176.32-.259.701-.259.766.063 1.52.229 2.24.493.368.115.602.189.8.24.416.13.846.207 1.28.23.46.017.905-.172 1.213-.515.787-.922.173-2.576-.464-4.051A17.418 17.418 0 0147.299 38v-8.048c0-6.693-5.425-12.118-12.118-12.118-6.693 0-12.119 5.425-12.119 12.118h.016zM35.2 19.728c5.65 0 10.231 4.575 10.24 10.224v8.102a19.192 19.192 0 001.6 6.775c.199.445.372.901.518 1.366l.1.32a.127.127 0 01-.03.119.12.12 0 01-.118.032l-.32-.084-.547-.16c-.96-.32-1.961-.624-2.947-.624-1.453 0-2.122.79-2.39 1.264-.71 1.28-1.056 1.719-1.568 1.719a1.95 1.95 0 01-.736-.208c-2.845-1.223-3.392-1.223-3.6-1.223h-.384c-.205 0-.752 0-3.588 1.216-1.068.458-1.42.09-2.352-1.558-.259-.454-.905-1.22-2.332-1.22-.98 0-2.061.343-2.932.618-.22.07-.419.135-.592.176l-.32.08a.118.118 0 01-.115-.035.125.125 0 01-.029-.118l.096-.304c.143-.468.312-.927.506-1.376a19.332 19.332 0 001.6-6.682v-8.195c.009-5.65 4.59-10.224 10.24-10.224z"/><path fill="#4A4A4A" fill-rule="nonzero" d="M38.646 31.766c1.204 0 2.18-1.542 2.18-3.446 0-1.904-.96-3.45-2.18-3.45-1.219 0-2.166 1.546-2.166 3.45 0 1.904.96 3.446 2.166 3.446zm-9.004 1.374c.675 2.902 2.905 5.513 5.555 5.513s4.883-2.611 5.558-5.514a6.72 6.72 0 01-11.113.001zm2.108-1.374c1.204 0 2.18-1.542 2.18-3.446 0-1.904-.96-3.45-2.18-3.45-1.219 0-2.179 1.546-2.179 3.45 0 1.904.976 3.446 2.18 3.446z"/></g></svg>