<svg width="128" height="128" viewBox="0 0 128 128" fill="none" xmlns="http://www.w3.org/2000/svg">
	<path fill-rule="evenodd" clip-rule="evenodd" d="M104 56C104 78.0913 86.0913 96 64 96C41.9087 96 24 78.0913 24 56C24 33.9087 41.9087 16 64 16C86.0913 16 104 33.9087 104 56" fill="#FFFFFE" />
	<path fill-rule="evenodd" clip-rule="evenodd" d="M116.833 106.294C111.525 94.088 110.611 83.7453 110.468 79.6816V46.2463C110.468 20.7043 89.6594 0 63.9919 0C38.3215 0 17.5118 20.7043 17.5118 46.2463V80.165C17.3135 84.5368 16.2705 94.5633 11.1671 106.294C4.3076 122.058 9.98446 120.179 15.0693 118.882C20.1534 117.591 31.5078 112.527 35.055 118.764C38.6007 124.998 41.5586 130.412 49.8363 126.882C58.1146 123.354 62.0154 122.178 63.1973 122.178H64.8051C65.9856 122.178 69.8878 123.354 78.1654 126.882C86.443 130.412 89.3996 124.998 92.9474 118.764C96.4931 112.527 107.847 117.591 112.932 118.882C118.017 120.179 123.691 122.058 116.833 106.294M49.6461 25.2188C54.6522 25.2188 58.7105 31.6083 58.7105 39.4928C58.7105 47.3767 54.6522 53.7684 49.6461 53.7684C44.64 53.7684 40.5811 47.3767 40.5811 39.4928C40.5811 31.6083 44.64 25.2188 49.6461 25.2188M63.9922 82.2722C52.9606 82.2722 43.6743 71.4694 40.876 59.4492C46.2808 66.8425 54.6228 71.5937 63.9922 71.5937C73.3608 71.5937 81.7021 66.8425 87.1076 59.4492C84.3093 71.4694 75.0216 82.2722 63.9922 82.2722M78.338 53.7684C73.3283 53.7684 69.2715 47.3767 69.2715 39.4928C69.2715 31.6083 73.3283 25.2188 78.338 25.2188C83.3469 25.2188 87.4023 31.6083 87.4023 39.4928C87.4023 47.3767 83.3469 53.7684 78.338 53.7684" fill="#00AEF0" />
</svg>
