<?xml version="1.0" encoding="UTF-8"?>
<svg width="76px" height="38px" viewBox="0 0 76 38" version="1.1" xmlns="http://www.w3.org/2000/svg" xmlns:xlink="http://www.w3.org/1999/xlink">
    <!-- Generator: Sketch 51.2 (57519) - http://www.bohemiancoding.com/sketch -->
    <title>group-26</title>
    <desc>Created with Sketch.</desc>
    <defs></defs>
    <g id="Page-1" stroke="none" stroke-width="1" fill="none" fill-rule="evenodd">
        <g id="group-26" fill="#D4AF37" fill-rule="nonzero">
            <path d="M67,1.994 L67,10.014 L75,10.014 C75.5536655,10.014 76.0025,10.4628345 76.0025,11.0165 C76.0025,11.5701655 75.5536655,12.019 75,12.019 L67,12.019 L67,20.039 C67.0164586,20.4069343 66.8295412,20.7541868 66.5133614,20.9430701 C66.1971817,21.1319534 65.8028183,21.1319534 65.4866386,20.9430701 C65.1704588,20.7541868 64.9835414,20.4069343 65,20.039 L65,12.019 L57,12.019 C56.448,12.019 56,11.569 56,11.016 C56,10.463 56.448,10.014 57,10.014 L65,10.014 L65,1.994 C64.9835414,1.62606575 65.1704588,1.27881316 65.4866386,1.0899299 C65.8028183,0.901046648 66.1971817,0.901046648 66.5133614,1.0899299 C66.8295412,1.27881316 67.0164586,1.62606575 67,1.994 Z" id="Path"></path>
            <path d="M5.712,33.013 L4.42,34.309 L5.713,35.605 C5.96734905,35.8580114 6.06736611,36.227514 5.97536385,36.5742759 C5.88336159,36.9210378 5.6133226,37.1923577 5.267,37.286 C4.92033647,37.3783859 4.55076034,37.2775924 4.299,37.022 L3.006,35.726 L1.713,37.022 C1.46164966,37.2796167 1.09105727,37.3819369 0.7431345,37.2897787 C0.395211733,37.1976206 0.123864372,36.9252629 0.033,36.577 C-0.059,36.228 0.043,35.857 0.299,35.605 L1.592,34.309 L0.3,33.013 C-0.0870838531,32.6204973 -0.0852983062,31.9893065 0.304,31.599 C0.69248032,31.2090719 1.32331359,31.2072823 1.714,31.595 L3.007,32.891 L4.3,31.595 C4.6910021,31.2091623 5.32030043,31.211844 5.708,31.601 C6.096,31.991 6.098,32.621 5.714,33.013 L5.712,33.013 Z" id="Path"></path>
        </g>
    </g>
</svg>