<?xml version="1.0" encoding="UTF-8"?>
<svg width="91px" height="115px" viewBox="0 0 91 115" version="1.1" xmlns="http://www.w3.org/2000/svg" xmlns:xlink="http://www.w3.org/1999/xlink">
    <!-- Generator: Sketch 51.2 (57519) - http://www.bohemiancoding.com/sketch -->
    <title>group-10</title>
    <desc>Created with Sketch.</desc>
    <defs></defs>
    <g id="Page-1" stroke="none" stroke-width="1" fill="none" fill-rule="evenodd">
        <g id="group-10" fill="#D4AF37">
            <path d="M78.33,60.51 L81.697,60.51 L81.697,56.607 L78.329,56.607 L78.329,60.51 L78.33,60.51 Z M81.387,55.086 C81.402,55.128 81.419,55.169 81.435,55.211 C82.805,55.121 84.196,55.148 85.538,54.912 C87.125,54.634 87.726,53.032 86.87,51.732 C86.13,50.61 84.242,50.381 83.484,51.392 C82.838,52.255 82.327,53.213 81.781,54.145 C81.61,54.437 81.516,54.772 81.387,55.086 Z M78.682,55.183 C78.476,54.531 77.33,52.407 76.865,51.796 C76.8089257,51.7196569 76.7502238,51.6452789 76.689,51.573 C75.613,50.295 73.571,50.576 72.917,52.093 C72.427,53.223 73.123,54.66 74.274,54.901 C75.719,55.201 77.191,55.095 78.682,55.183 Z M83.068,60.489 L88.96,60.489 L88.96,56.601 L83.068,56.601 L83.068,60.489 Z M71.083,60.512 L76.989,60.512 L76.989,56.598 L71.083,56.598 L71.083,60.512 Z M78.319,72.234 L81.685,72.234 L81.685,61.807 L78.319,61.807 L78.319,72.234 Z M83.079,72.288 L87.976,72.288 L87.976,61.801 L83.078,61.801 L83.078,72.288 L83.079,72.288 Z M72.066,72.234 L76.985,72.234 L76.985,61.796 L72.065,61.796 L72.065,72.234 L72.066,72.234 Z M70.744,61.869 C69.874,61.651 69.697,61.762 69.708,60.575 C69.718,59.119 69.71,57.664 69.711,56.207 C69.711,55.525 69.903,55.342 70.621,55.342 C71.122,55.342 71.622,55.344 72.122,55.341 C72.225,55.341 72.326,55.329 72.401,55.325 C72.146,54.898 71.843,54.51 71.672,54.075 C71.052,52.494 71.782,50.709 73.32,49.943 C74.917,49.148 76.804,49.597 77.848,51.04 C78.64,52.137 79.248,53.332 79.801,54.555 C79.856,54.675 79.918,54.793 80.009,54.98 C80.138,54.72 80.244,54.521 80.334,54.32 C80.837,53.226 81.366,52.146 82.087,51.161 C82.713,50.307 83.512,49.725 84.627,49.587 C86.443,49.363 88.191,50.604 88.492,52.337 C88.668,53.351 88.402,54.249 87.787,55.072 L87.59,55.331 C87.696,55.345 87.772,55.366 87.849,55.366 C88.426,55.363 89.003,55.36 89.579,55.351 C90.009,55.344 90.287,55.577 90.289,55.988 C90.2943015,57.7043292 90.2943015,59.4206708 90.289,61.137 C90.289,61.484 90.063,61.712 89.692,61.761 C89.565,61.78 89.436,61.783 89.272,61.796 L89.272,72.504 C89.272,72.628 89.275,72.754 89.266,72.877 C89.231,73.303 89.071,73.47 88.632,73.533 C88.492,73.553 88.348,73.553 88.208,73.553 L71.796,73.553 C71.709,73.553 71.621,73.555 71.534,73.551 C70.938,73.518 70.744,73.326 70.744,72.75 C70.742,69.245 70.744,65.74 70.744,62.234 L70.744,61.869 Z" id="Shape"></path>
            <path d="M36,103.238 C36.552,103.238 37,102.788 37,102.235 C37,101.681 36.552,101.232 36,101.232 C30.48,101.226 26.006,96.742 26,91.207 C26,90.653 25.552,90.204 25,90.204 C24.448,90.204 24,90.654 24,91.207 C23.994,96.713 19.564,101.187 14.072,101.232 L14,101.232 C13.448,101.232 13,101.682 13,102.235 C13,102.789 13.448,103.238 14,103.238 C19.52,103.244 23.993,107.728 24,113.263 C24,113.817 24.448,114.265 25,114.265 C25.552,114.265 26,113.817 26,113.263 C26.006,107.757 30.436,103.284 35.928,103.238 L36,103.238 Z M25.205,108.661 C23.9900574,105.88253 21.7753317,103.662094 19,102.44 C21.7753203,101.218394 23.9900986,98.9982617 25.205,96.22 C26.4201482,98.9980935 28.6348485,101.218148 31.41,102.44 C28.6346797,103.661606 26.4199014,105.881738 25.205,108.66 L25.205,108.661 Z" id="Shape"></path>
            <path d="M12,6.015 C11.999454,6.5675453 11.5525412,7.01579889 11,7.018 L7,7.018 L7,11.028 C7,11.582 6.552,12.031 6,12.031 C5.448,12.031 5,11.581 5,11.028 L5,7.018 L1,7.018 C0.448,7.018 0,6.569 0,6.015 C0,5.462 0.448,5.013 1,5.013 L5,5.013 L5,1.003 C5,0.449 5.448,0 6,0 C6.552,0 7,0.449 7,1.003 L7,5.013 L11,5.013 C11.265727,5.01246534 11.5206953,5.1179254 11.7084052,5.30601075 C11.8961152,5.4940961 12.0010656,5.74927462 12,6.015 Z" id="Path"></path>
        </g>
    </g>
</svg>