<svg xmlns="http://www.w3.org/2000/svg" width="72" height="75" viewBox="0 0 72 75">
    <g fill="none" fill-rule="evenodd">
        <path fill="#DAF4FF" d="M29.636 30.903L36.152 18l5.212 12.903L57 34.774l-6.515 9.032V58l-14.333-3.871L23.122 58V43.806L14 34.774l15.636-3.87z"/>
        <path fill="#4A4A4A" fill-rule="nonzero" d="M35.751.002c-.86.095-1.505.839-1.486 1.713v5.061a1.69 1.69 0 0 0 .827 1.481c.52.307 1.163.307 1.683 0a1.69 1.69 0 0 0 .827-1.48V1.714a1.697 1.697 0 0 0-.488-1.22 1.66 1.66 0 0 0-1.206-.493 1.651 1.651 0 0 0-.157 0zm-22.53 7.591a1.67 1.67 0 0 0-1.413 1.048 1.701 1.701 0 0 0 .292 1.746l7.51 9.278a1.677 1.677 0 0 0 2.882-.48 1.72 1.72 0 0 0-.274-1.68l-7.51-9.28a1.662 1.662 0 0 0-1.33-.632 1.651 1.651 0 0 0-.157 0zm45.06 0a1.665 1.665 0 0 0-1.122.633l-7.51 9.278a1.72 1.72 0 0 0-.274 1.682 1.677 1.677 0 1 0 2.882.48l7.51-9.279a1.702 1.702 0 0 0 .246-1.84 1.667 1.667 0 0 0-1.576-.954 1.651 1.651 0 0 0-.156 0zM35.803 17.741c-.535.037-1.02.331-1.304.791l-6.31 10.359-11.786 2.372c-.6.128-1.083.578-1.257 1.172a1.7 1.7 0 0 0 .422 1.675l8.605 8.698-1.564 11.836a1.696 1.696 0 0 0 .645 1.549c.473.364 1.1.446 1.65.217l11.03-4.771 11.03 4.77c.548.23 1.177.148 1.65-.216.472-.364.717-.954.644-1.55l-.782-5.983a1.674 1.674 0 0 0-1.877-1.45 1.685 1.685 0 0 0-1.434 1.898l.417 3.031-8.996-3.9a1.653 1.653 0 0 0-1.304 0l-8.997 3.9 1.278-9.726a1.698 1.698 0 0 0-.47-1.397l-6.961-7.038 9.465-1.924a1.67 1.67 0 0 0 1.095-.764l5.242-8.62 5.24 8.62a1.67 1.67 0 0 0 1.096.764l9.466 1.924-6.963 7.038a1.697 1.697 0 0 0-.579 1.692c.143.63.63 1.121 1.252 1.266a1.66 1.66 0 0 0 1.674-.586L56.3 34.11a1.7 1.7 0 0 0 .423-1.675 1.676 1.676 0 0 0-1.257-1.172l-11.787-2.372-6.31-10.359a1.664 1.664 0 0 0-1.565-.79zm34.42 10.096a1.653 1.653 0 0 0-.234.026 1.653 1.653 0 0 0-.13.026l-5.007.844a1.673 1.673 0 0 0-1.34 1.071 1.701 1.701 0 0 0 .294 1.701c.4.47 1.02.68 1.62.55l5.006-.844a1.684 1.684 0 0 0 1.565-1.793 1.679 1.679 0 0 0-1.773-1.581zm-68.736.026A1.68 1.68 0 0 0 0 29.513a1.682 1.682 0 0 0 1.435 1.698l5.007.843c.598.131 1.22-.08 1.62-.549.399-.47.511-1.122.293-1.7a1.673 1.673 0 0 0-1.34-1.072l-5.006-.844a1.651 1.651 0 0 0-.522-.026zM56.69 44.706a1.652 1.652 0 0 0-.182.027 1.679 1.679 0 0 0-1.407 1.449 1.69 1.69 0 0 0 .99 1.766l10.847 5.061a1.654 1.654 0 0 0 1.694-.116c.502-.348.777-.944.717-1.556a1.686 1.686 0 0 0-1.003-1.385L57.498 44.89a1.654 1.654 0 0 0-.808-.185zm-41.721.027a1.655 1.655 0 0 0-.6.158L3.52 49.95c-.559.243-.943.774-1.003 1.386-.06.612.215 1.208.717 1.556a1.654 1.654 0 0 0 1.694.116l10.848-5.06c.73-.341 1.117-1.16.92-1.948a1.671 1.671 0 0 0-1.728-1.268zM35.75 59.045c-.86.096-1.505.84-1.486 1.714v11.808a1.69 1.69 0 0 0 .827 1.481c.52.307 1.163.307 1.683 0a1.69 1.69 0 0 0 .827-1.48v-11.81a1.697 1.697 0 0 0-.488-1.219 1.66 1.66 0 0 0-1.206-.494 1.651 1.651 0 0 0-.157 0zm-16.61 1.687a1.667 1.667 0 0 0-1.33.844l-2.503 4.217a1.707 1.707 0 0 0-.029 1.69c.29.529.837.86 1.435.87a1.669 1.669 0 0 0 1.462-.82l2.503-4.217c.337-.54.344-1.225.019-1.772a1.664 1.664 0 0 0-1.557-.812zm33.377 0a1.668 1.668 0 0 0-1.398.907 1.703 1.703 0 0 0 .068 1.677l2.503 4.217c.308.518.865.83 1.463.82a1.67 1.67 0 0 0 1.434-.87c.29-.527.28-1.172-.028-1.69l-2.504-4.217a1.665 1.665 0 0 0-1.538-.844z"/>
    </g>
</svg>
