<svg xmlns="http://www.w3.org/2000/svg" width="73" height="73" viewBox="0 0 73 73">
    <g fill="none" fill-rule="evenodd">
        <path fill="#DAF4FF" d="M10 34.895C19 21.632 28 15 37 15s18 6.632 27 19.895C55 49.632 46 57 37 57s-18-7.368-27-22.105z"/>
        <g fill="#4A4A4A" fill-rule="nonzero">
            <path d="M69.503 35.592a51.943 51.943 0 0 1-1.133 1.618c-.09.126-.18.252-.279.369-.045.063-.206.35-.278.368 0 0 .206-.27.08-.107-.053.071-.107.134-.161.206-.108.135-.216.279-.333.414a41.593 41.593 0 0 1-6.095 6.077c-.135.108-.27.225-.414.333-.054.045-.108.08-.153.126l-.107.08c-.108.082-.072.055.098-.08.018.063-.665.494-.737.548-.27.198-.53.387-.809.575a41.458 41.458 0 0 1-6.742 3.803l-.486.216c-.297.135.297-.126-.126.054-.305.126-.62.252-.935.369-.602.233-1.213.45-1.834.656a39.909 39.909 0 0 1-3.848 1.07 49.54 49.54 0 0 1-1.941.395c-.342.063-.675.117-1.016.171-.135.018-.27.036-.414.063-.332.045.01 0 .072-.009-.117.018-.225.027-.342.045-1.366.17-2.733.27-4.108.297a41.173 41.173 0 0 1-6.158-.306l-.207-.027c-.26-.036.333.045.063.009-.162-.027-.315-.045-.477-.072-.341-.054-.683-.108-1.016-.17a40.736 40.736 0 0 1-7.614-2.122 17.654 17.654 0 0 1-.872-.351c-.081-.036-.162-.063-.243-.099.045.018.36.153.063.027l-.485-.216c-.585-.26-1.17-.54-1.745-.827a39.805 39.805 0 0 1-3.407-1.924c-.54-.341-1.07-.692-1.6-1.052-.252-.18-.504-.35-.755-.539-.126-.09-.252-.18-.369-.27-.072-.054-.144-.108-.207-.161-.045-.036-.341-.261-.134-.1.197.153-.19-.152-.234-.18-.117-.098-.243-.188-.36-.287-.252-.207-.512-.413-.764-.63a47.94 47.94 0 0 1-1.43-1.267 43.832 43.832 0 0 1-2.714-2.769c-.441-.494-.864-.989-1.277-1.501-.081-.099-.162-.207-.252-.306-.054-.072-.108-.135-.162-.207-.152-.188-.054.027.036.054-.063-.018-.197-.26-.242-.314-.117-.162-.234-.315-.351-.477a40.638 40.638 0 0 1-1.097-1.573v1.816c.369-.548.746-1.088 1.133-1.618.09-.126.18-.252.279-.369.045-.063.206-.35.278-.368 0 0-.206.27-.08.107.053-.071.107-.134.161-.206.108-.135.216-.279.333-.414a41.593 41.593 0 0 1 6.095-6.077c.135-.108.27-.225.414-.333.054-.045.108-.08.153-.126l.107-.08c.108-.082.072-.055-.098.08-.018-.063.665-.494.737-.548.27-.198.53-.387.809-.575A41.458 41.458 0 0 1 21 22.86c.297-.134-.297.127.126-.053.306-.126.62-.252.935-.369.602-.233 1.213-.45 1.834-.656a39.909 39.909 0 0 1 3.848-1.07 49.54 49.54 0 0 1 1.941-.395c.342-.063.675-.117 1.016-.171.135-.018.27-.036.414-.063.333-.045-.01 0-.072.009.117-.018.225-.027.342-.045 1.366-.17 2.733-.27 4.108-.297a41.173 41.173 0 0 1 6.158.306l.207.027c.26.036-.333-.045-.063-.009.162.027.315.045.477.072.341.054.683.108 1.016.17a40.736 40.736 0 0 1 7.614 2.122c.288.108.585.225.872.351.081.036.162.063.243.099a2316394.546 2316394.546 0 0 1 .423.189c.584.26 1.168.54 1.744.827a39.805 39.805 0 0 1 3.407 1.924c.54.341 1.07.692 1.6 1.052.252.18.504.35.755.539.126.09.252.18.369.27.072.054.144.108.207.161.045.036.341.261.135.1-.198-.153.188.152.233.18.117.098.243.188.36.287.252.207.512.413.764.63.486.413.962.835 1.43 1.267a43.832 43.832 0 0 1 2.714 2.769c.441.494.864.989 1.277 1.501.081.099.162.207.252.306.054.072.108.135.162.207.152.188.054-.027-.036-.054.063.018.197.26.242.314.117.162.234.315.351.477.378.512.737 1.034 1.097 1.573.521.782 1.61 1.196 2.463.647.782-.503 1.205-1.618.647-2.463a44.326 44.326 0 0 0-11.48-11.75A42.784 42.784 0 0 0 46.2 17.234a44.059 44.059 0 0 0-17.387-.404 42.764 42.764 0 0 0-15.292 5.915c-4.675 2.949-8.73 6.77-11.993 11.22-.386.53-.764 1.07-1.132 1.618-.333.503-.333 1.313 0 1.816a44.326 44.326 0 0 0 11.48 11.75 42.784 42.784 0 0 0 14.933 6.608 44.059 44.059 0 0 0 17.387.404 42.829 42.829 0 0 0 15.292-5.915c4.675-2.949 8.73-6.77 11.993-11.22.386-.53.764-1.07 1.132-1.618.522-.782.18-2.023-.647-2.463-.908-.477-1.906-.19-2.463.647z"/>
            <path d="M36.5 44.555c-.333 0-.665-.018-.998-.054l-.243-.027c.28.036.315.045.117.01a7.464 7.464 0 0 1-.476-.09 12.13 12.13 0 0 1-.818-.216c-.153-.045-.306-.1-.459-.153-.072-.027-.153-.054-.225-.081-.18-.072-.143-.054.1.045-.198.027-.675-.324-.855-.423a9.14 9.14 0 0 1-.701-.431c-.135-.09-.26-.18-.387-.27a4.36 4.36 0 0 0 .081.063 1.467 1.467 0 0 1-.18-.153 10.122 10.122 0 0 1-1.24-1.24l-.153-.18c.162.206.18.233.063.08a11.289 11.289 0 0 1-.701-1.088c-.1-.17-.45-.655-.423-.853.1.242.117.278.045.099-.027-.072-.054-.153-.08-.225-.055-.153-.109-.306-.154-.459-.08-.27-.152-.539-.215-.818-.036-.162-.063-.323-.09-.476-.027-.198-.027-.162.009.117l-.027-.243c-.036-.333-.045-.665-.054-.998-.01-.944-.827-1.843-1.798-1.798-.971.045-1.807.791-1.798 1.798.027 4.918 3.128 9.233 7.695 10.959 1.25.476 2.616.683 3.956.692.944.01 1.843-.827 1.798-1.798-.036-.97-.782-1.78-1.789-1.789zM36.5 28.445c.333 0 .665.018.998.054l.243.027c-.28-.036-.315-.045-.117-.01.162.028.323.055.476.09.279.064.549.136.818.216.153.045.306.1.459.153.072.027.153.054.225.081.18.072.143.054-.1-.045.198-.027.675.324.855.423.243.135.476.278.701.431.135.09.26.18.387.27.152.117.125.09-.081-.063.063.045.126.099.18.153a10.122 10.122 0 0 1 1.24 1.24l.153.18c-.162-.206-.18-.233-.063-.08a11.289 11.289 0 0 1 .701 1.088c.1.17.45.655.423.853-.1-.242-.117-.278-.045-.099.027.072.054.153.08.225.055.153.109.306.154.459.08.27.152.539.215.818.036.162.063.323.09.476.027.198.027.162-.009-.117l.027.243c.036.333.045.665.054.998.01.944.827 1.843 1.798 1.798.971-.045 1.807-.791 1.798-1.798-.027-4.918-3.128-9.233-7.695-10.959-1.25-.476-2.616-.683-3.956-.692-.944-.01-1.843.827-1.798 1.798.036.97.782 1.78 1.789 1.789zM.54 3.084l1.86 1.86 5.062 5.062 7.48 7.48 9.098 9.098L34 36.545l10.088 10.087 9.403 9.404 7.92 7.92 5.7 5.7c.9.899 1.798 1.816 2.706 2.706l.117.117c.666.665 1.888.719 2.545 0 .656-.72.71-1.834 0-2.545l-1.861-1.86-5.062-5.062-7.48-7.48-9.098-9.098-9.96-9.961L28.93 26.386l-9.403-9.404-7.92-7.92-5.7-5.7C5.007 2.463 4.108 1.546 3.2.656L3.084.54C2.418-.126 1.196-.18.539.54c-.656.72-.71 1.834 0 2.545z"/>
        </g>
    </g>
</svg>
