<svg xmlns="http://www.w3.org/2000/svg" width="72" height="80" viewBox="0 0 72 80">
    <g fill="none" fill-rule="evenodd">
        <circle cx="36" cy="36" r="36" fill="#DAF4FF"/>
        <g fill="#4A4A4A" fill-rule="nonzero">
            <path d="M11.918 16.192C17.24 10.63 24.253 7.045 31.751 6.057c.604 1.977 2.297 3.584 4.474 3.584 2.54 0 4.716-2.101 4.716-4.82C40.941 2.1 38.885 0 36.225 0c-2.419 0-4.353 1.854-4.595 4.203-7.982.988-15.48 4.82-21.042 10.63l1.33 1.36zM36.225 1.854c1.572 0 2.902 1.36 2.902 2.967 0 1.606-1.33 2.966-2.902 2.966s-2.902-1.36-2.902-2.966c0-1.73 1.33-2.967 2.902-2.967zM1.49 49.984L3.23 49.5c-.994-3.153-1.366-6.307-1.366-9.582 0-4.487.87-8.975 2.608-13.099.372.121.869.121 1.242.121 1.738 0 3.353-.849 4.222-2.304 1.366-2.305.497-5.094-1.739-6.428-.745-.364-1.614-.607-2.483-.607-1.74 0-3.353.85-4.223 2.305-.497.97-.745 2.304-.372 3.517.248.97.869 1.82 1.738 2.426A35.511 35.511 0 0 0 0 39.796c0 3.396.497 6.913 1.49 10.188zm1.739-29.23c.497-.85 1.49-1.456 2.608-1.456.496 0 .993.121 1.49.364 1.366.849 1.863 2.547 1.118 4.003-.87 1.334-2.732 1.819-4.099.97-.745-.364-1.117-.97-1.366-1.82-.248-.606-.124-1.455.249-2.061zM8.783 60.758a4.409 4.409 0 0 0 1.227-2.05c.369-1.205.123-2.411-.49-3.496-.86-1.447-2.455-2.412-4.173-2.412-.86 0-1.595.241-2.332.603-2.209 1.206-2.945 4.1-1.718 6.39.86 1.448 2.455 2.412 4.173 2.412a5 5 0 0 0 1.84-.362c4.787 6.15 11.414 10.732 19.023 12.781l.49-1.688c-7.117-2.05-13.499-6.39-18.04-12.178zm-5.89-1.929c-.737-1.326-.246-3.135 1.104-3.979.49-.241.982-.362 1.473-.362 1.104 0 2.086.603 2.577 1.447.368.724.49 1.447.245 2.17a3.128 3.128 0 0 1-1.35 1.689c-1.35.964-3.19.361-4.05-.965zM60.31 64.064a34.522 34.522 0 0 1-19.827 9.68c-.245-.726-.612-1.452-1.224-2.057-.857-.847-2.08-1.452-3.427-1.452-2.57 0-4.773 2.057-4.773 4.598s2.08 4.72 4.65 4.72c2.448 0 4.407-1.816 4.652-4.115 7.955-.968 15.298-4.598 21.05-10.285l-1.1-1.089zM35.954 77.98v.847-.847c-1.59 0-2.937-1.33-2.937-2.904 0-1.573 1.346-2.904 2.937-2.904.735 0 1.47.363 2.081.847.49.605.857 1.331.857 2.057 0 1.573-1.346 2.904-2.938 2.904zM63.336 19.341c-1.442 1.454-1.923 3.755-.841 5.693.841 1.453 2.403 2.422 4.085 2.422.842 0 1.563-.242 2.284-.605 2.283-1.212 3.124-4.118 1.802-6.42-.841-1.453-2.403-2.422-4.086-2.422-.6 0-1.201.121-1.682.363-4.926-6.661-12.016-11.506-19.947-13.444l-.48 1.817c7.57 1.817 14.299 6.298 18.865 12.596zm5.768 1.938c.72 1.332.24 3.15-1.082 3.876-1.321.727-3.124.242-3.845-1.09-.72-1.332-.24-3.15 1.082-3.876a3.18 3.18 0 0 1 1.442-.363c.96 0 1.922.605 2.403 1.453zM69.13 54.281C71.042 49.791 72 45.056 72 40.08c0-3.035-.359-6.19-1.196-9.104l-1.794.486a34.712 34.712 0 0 1 1.076 8.618c0 4.612-.957 9.103-2.75 13.351-.36-.12-.838-.12-1.317-.12-1.674 0-3.11.849-3.947 2.305-1.316 2.185-.598 5.098 1.555 6.433.718.486 1.555.607 2.392.607 1.675 0 3.11-.85 3.948-2.306.598-1.092.837-2.306.478-3.52.12-.97-.478-1.82-1.316-2.549zm-.48 5.22c-.717 1.335-2.63 1.82-3.946.97-1.316-.85-1.795-2.548-.957-4.005a2.908 2.908 0 0 1 2.512-1.457c.478 0 .956.122 1.435.365.598.364 1.076.97 1.316 1.82.239.85.12 1.578-.36 2.306zM39.802 64.768c1.573 0 2.782-1.087 3.145-2.657 0-.363.12-.725.12-1.33h1.694V58.97H43.19c0-.121.242-1.088.242-1.57h2.902v-1.813h-2.418c.967-4.228 2.54-8.215 4.595-11.718.121-.242.242-.363.363-.604 1.452-2.416 2.056-5.195 1.935-8.094-.362-7.49-6.289-13.53-13.787-14.014-8.709-.604-15.845 6.282-15.845 14.86 0 1.69.242 3.261.847 4.952l1.33 2.537c.242.363.363.604.605.967l.121.12c1.935 3.383 3.266 7.128 4.233 10.994h-2.66v1.812h3.023c.121.363.121.967.242 1.57h-1.572v1.813h1.814v.604l.12.966v.242a3.296 3.296 0 0 0 3.025 2.054h7.498v.12zM25.41 43.506c-.242-.362-.363-.725-.605-.966l-1.21-2.416c-.483-1.33-.725-2.779-.725-4.35 0-7.49 6.289-13.53 13.909-13.046 6.53.483 11.731 5.677 12.094 12.322a13.602 13.602 0 0 1-1.572 7.007l-.12.12c-.122.242-.243.363-.364.604-2.177 3.746-3.87 8.095-4.959 12.685H29.764c-.726-4.228-2.298-8.215-4.354-11.96zM30.368 57.4h11.249c-.121.363-.242 1.329-.242 1.57H30.61c-.12-.603-.242-1.087-.242-1.57zm.484 4.712l-.12-.846v-.483h10.522c0 .483-.121.845-.121 1.087-.121.604-.726 1.087-1.33 1.087h-7.62c-.605 0-1.089-.362-1.33-.845z"/>
            <path d="M48.936 50.676l-1.972-2.02 1.51-1.476 1.974 2.02zM54.721 42.583l-2.719-.763.57-2.034 2.72.763zM52.724 30.654l2.736-.699.522 2.047-2.736.698zM51.16 22.649l-2.02 1.973-1.476-1.51 2.02-1.974zM41.933 19.946l-2.039-.572.761-2.712 2.04.573zM32.786 18.702l-2.052.524-.697-2.728 2.052-.524zM24.683 22.796l-1.516 1.48L21.2 22.26l1.515-1.48zM16.358 31.615l.572-2.039 2.712.761-.573 2.04zM16.898 41.503l-.524-2.052 2.728-.697.524 2.052zM20.84 49.162l2.018-1.976 1.478 1.509-2.018 1.976z"/>
        </g>
    </g>
</svg>
