<svg xmlns="http://www.w3.org/2000/svg" width="106" height="114" viewBox="0 0 106 114">
    <g fill="#D4AF37" fill-rule="evenodd">
        <path fill-rule="nonzero" d="M347-.77c.552 0 1-.45 1-1.003 0-.554-.448-1.003-1-1.003-5.52-.006-9.994-4.49-10-10.024a1.001 1.001 0 1 0-2 0c-.006 5.505-4.436 9.978-9.928 10.024H325c-.552 0-1 .45-1 1.003 0 .554.448 1.003 1 1.003 5.52.006 9.993 4.49 10 10.024a1.001 1.001 0 1 0 2 0c.006-5.506 4.436-9.978 9.928-10.024H347zm-10.795 5.422A12.09 12.09 0 0 0 330-1.568a12.087 12.087 0 0 0 6.205-6.22 12.09 12.09 0 0 0 6.205 6.22 12.087 12.087 0 0 0-6.205 6.22zM421 28.301v4.01h4a1.001 1.001 0 1 1 0 2.005h-4v4.01a1.001 1.001 0 1 1-2 0v-4.01h-4c-.552 0-1-.45-1-1.003 0-.554.448-1.003 1-1.003h4V28.3a1.001 1.001 0 1 1 2 0zM118.3-54.614l2.292-2.299-2.293-2.299a1.004 1.004 0 0 1 .004-1.413.998.998 0 0 1 1.41-.004l2.293 2.299 2.293-2.3a.998.998 0 0 1 1.408.007c.388.39.39 1.019.006 1.411l-2.293 2.299 2.293 2.299a1.004 1.004 0 0 1-.446 1.681.998.998 0 0 1-.968-.264l-2.293-2.299-2.293 2.3a.998.998 0 0 1-1.68-.447c-.092-.348.01-.719.266-.971zM35.712 32.013l-1.293 1.296 1.293 1.296a1.004 1.004 0 0 1-.446 1.681.998.998 0 0 1-.968-.264l-1.293-1.296-1.293 1.296a.998.998 0 0 1-1.68-.445c-.092-.349.01-.72.266-.972l1.293-1.296-1.293-1.296a1.004 1.004 0 0 1 .004-1.414.998.998 0 0 1 1.41-.004l1.293 1.296 1.293-1.296a.998.998 0 0 1 1.408.006c.388.39.39 1.02.006 1.412zm346 32.078l-1.293 1.297 1.293 1.296a1.004 1.004 0 0 1-.446 1.681.998.998 0 0 1-.968-.264l-1.293-1.296-1.293 1.296a.998.998 0 0 1-1.68-.446c-.092-.348.01-.719.266-.971l1.293-1.296-1.293-1.297a1.004 1.004 0 0 1 .004-1.413.998.998 0 0 1 1.41-.004l1.293 1.296 1.293-1.296a.998.998 0 0 1 1.408.006c.388.39.39 1.019.006 1.411zM97.3 102.7l-1.293-1.296-1.293 1.296a.998.998 0 0 1-1.68-.446c-.092-.348.01-.72.266-.972l1.293-1.296L93.3 98.69a1.004 1.004 0 0 1 .004-1.413.998.998 0 0 1 1.41-.004l1.293 1.296 1.293-1.296a.998.998 0 0 1 1.408.006c.388.389.39 1.019.006 1.411l-1.293 1.296 1.293 1.296a1.004 1.004 0 0 1-.446 1.682.998.998 0 0 1-.968-.264zM97 .994v8.02h8a1.001 1.001 0 1 1 0 2.005h-8v8.02a1.001 1.001 0 1 1-2 0v-8.02h-8c-.552 0-1-.45-1-1.003 0-.553.448-1.002 1-1.002h8V.994a1.001 1.001 0 1 1 2 0zm216-88.98a1.003 1.003 0 0 1-1 1.003h-4v4.01a1.001 1.001 0 1 1-2 0v-4.01h-4a1.001 1.001 0 1 1 0-2.005h4v-4.01a1.001 1.001 0 1 1 2 0v4.01h4a.998.998 0 0 1 1 1.003z"/>
        <path d="M12.146 95.113h4.746V89.65h-4.746v5.464zm4.308-7.593c.022.06.045.116.069.175 1.929-.126 3.89-.087 5.78-.418 2.237-.39 3.084-2.632 1.878-4.452-1.043-1.572-3.704-1.892-4.771-.477-.911 1.209-1.63 2.55-2.4 3.855-.242.41-.374.877-.556 1.317zm-3.81.136c-.291-.912-1.906-3.886-2.562-4.742a5.749 5.749 0 0 0-.247-.312c-1.517-1.789-4.394-1.395-5.316.728-.689 1.581.29 3.594 1.912 3.93 2.036.42 4.11.273 6.212.396zm6.179 7.429h8.303v-5.444h-8.303v5.444zm-16.888.032h8.322v-5.48H1.935v5.48zm10.196 16.411h4.744V96.93H12.13v14.598zm6.707.075h6.9V96.922h-6.9v14.681zm-15.518-.075h6.931V96.914h-6.93v14.614zm-1.863-14.51c-1.225-.307-1.474-.15-1.46-1.813.016-2.038.003-4.076.005-6.115 0-.955.271-1.21 1.282-1.21.707 0 1.41.001 2.115-.003.145 0 .288-.016.393-.022-.359-.598-.786-1.142-1.027-1.75-.875-2.214.156-4.712 2.322-5.784 2.251-1.113 4.91-.485 6.38 1.535 1.116 1.536 1.974 3.21 2.753 4.92.077.169.164.335.292.596.182-.365.331-.642.46-.924.708-1.53 1.452-3.043 2.468-4.422.884-1.196 2.008-2.011 3.58-2.204 2.56-.314 5.022 1.423 5.446 3.85.248 1.42-.128 2.676-.994 3.828l-.277.363c.15.02.256.049.365.049.813-.004 1.626-.008 2.436-.02.609-.01 1 .316 1.001.892.009 2.402.007 4.805 0 7.207 0 .487-.318.805-.84.874-.18.027-.361.03-.592.049V111.905c0 .175.005.351-.008.523-.05.596-.275.83-.894.919-.197.026-.4.026-.598.026-7.71.002-15.417.002-23.125.002-.123 0-.247.002-.369-.004-.84-.046-1.114-.314-1.114-1.121-.002-4.907 0-9.815 0-14.722v-.51z"/>
    </g>
</svg>
