<svg xmlns="http://www.w3.org/2000/svg" width="308" height="163" viewBox="0 0 308 163">
    <g fill="#D4AF37" fill-rule="evenodd">
        <path fill-rule="nonzero" d="M219 103.238c.552 0 1-.45 1-1.003 0-.554-.448-1.003-1-1.003-5.52-.006-9.994-4.49-10-10.025 0-.554-.448-1.003-1-1.003s-1 .45-1 1.003c-.006 5.506-4.436 9.98-9.928 10.025H197c-.552 0-1 .45-1 1.003 0 .554.448 1.003 1 1.003 5.52.006 9.993 4.49 10 10.025 0 .554.448 1.002 1 1.002s1-.448 1-1.002c.006-5.506 4.436-9.979 9.928-10.025H219zm-10.795 5.423A12.09 12.09 0 0 0 202 102.44a12.087 12.087 0 0 0 6.205-6.22 12.09 12.09 0 0 0 6.205 6.22 12.087 12.087 0 0 0-6.205 6.22zm-337.691 62.03c-9.527-.01-17.247-7.75-17.257-17.3 0-.554-.448-1.003-1-1.003s-1 .449-1 1.003c-.01 9.55-7.73 17.29-17.257 17.3-.552 0-1 .45-1 1.003 0 .554.448 1.003 1 1.003 9.526.01 17.246 7.75 17.257 17.3 0 .554.448 1.003 1 1.003s1-.449 1-1.003c.01-9.55 7.73-17.29 17.257-17.3.552 0 1-.45 1-1.003 0-.554-.448-1.003-1-1.003zm-18.387 13.03A19.372 19.372 0 0 0-160 171.565a19.372 19.372 0 0 0 12.127-12.158 19.372 19.372 0 0 0 12.127 12.158 19.372 19.372 0 0 0-12.127 12.158zM303 122.312v4.01h4c.552 0 1 .45 1 1.003 0 .554-.448 1.003-1 1.003h-4v4.01c0 .554-.448 1.003-1 1.003s-1-.45-1-1.003v-4.01h-4c-.552 0-1-.45-1-1.003 0-.554.448-1.002 1-1.002h4v-4.01c0-.554.448-1.003 1-1.003s1 .449 1 1.002zM.3 39.39l2.292-2.299L.3 34.791a1.004 1.004 0 0 1 .004-1.413.998.998 0 0 1 1.41-.004l2.293 2.299 2.293-2.3a.998.998 0 0 1 1.408.007c.388.39.39 1.019.006 1.411l-2.293 2.3 2.293 2.298a1.004 1.004 0 0 1-.446 1.682.998.998 0 0 1-.968-.264l-2.293-2.3-2.293 2.3a.998.998 0 0 1-1.68-.446c-.092-.348.01-.72.266-.972zm-82.587 86.635l-1.293 1.296 1.293 1.296a1.004 1.004 0 0 1-.446 1.682.998.998 0 0 1-.968-.264l-1.293-1.296-1.293 1.296a.998.998 0 0 1-1.68-.446c-.092-.348.01-.72.266-.972l1.293-1.296-1.293-1.296a1.004 1.004 0 0 1 .004-1.414.998.998 0 0 1 1.41-.004l1.293 1.296 1.293-1.296a.998.998 0 0 1 1.408.007c.388.388.39 1.018.006 1.41zm346 32.081l-1.293 1.297 1.293 1.296a1.004 1.004 0 0 1-.446 1.682.998.998 0 0 1-.968-.264l-1.293-1.297-1.293 1.297a.998.998 0 0 1-1.68-.446c-.092-.349.01-.72.266-.972l1.293-1.296-1.293-1.297a1.004 1.004 0 0 1 .004-1.413.998.998 0 0 1 1.41-.004l1.293 1.296 1.293-1.296a.998.998 0 0 1 1.408.006c.388.39.39 1.019.006 1.411zM-223.7 32.786l-1.293-1.296-1.293 1.296a.998.998 0 0 1-1.68-.446c-.092-.348.01-.719.266-.971l1.293-1.297-1.293-1.296a1.004 1.004 0 0 1 .004-1.413.998.998 0 0 1 1.41-.004l1.293 1.296 1.293-1.296a.998.998 0 0 1 1.408.006c.388.389.39 1.019.006 1.411l-1.293 1.296 1.293 1.297a1.004 1.004 0 0 1-.446 1.681.998.998 0 0 1-.968-.264zM-71 71.181v8.02h8c.552 0 1 .45 1 1.003 0 .554-.448 1.003-1 1.003h-8v8.02c0 .554-.448 1.003-1 1.003s-1-.45-1-1.003v-8.02h-8c-.552 0-1-.45-1-1.003 0-.553.448-1.002 1-1.002h8v-8.02c0-.554.448-1.003 1-1.003s1 .449 1 1.002zM195 6.015a1.004 1.004 0 0 1-1 1.003h-4v4.01c0 .554-.448 1.003-1 1.003s-1-.45-1-1.003v-4.01h-4c-.552 0-1-.449-1-1.003 0-.553.448-1.002 1-1.002h4v-4.01c0-.554.448-1.003 1-1.003s1 .449 1 1.003v4.01h4a.998.998 0 0 1 1 1.002z"/>
        <path d="M261.33 60.51h3.367v-3.903h-3.368v3.903zm3.057-5.424c.015.042.032.083.048.125 1.37-.09 2.761-.063 4.103-.299 1.587-.278 2.188-1.88 1.332-3.18-.74-1.122-2.628-1.351-3.386-.34-.646.863-1.157 1.821-1.703 2.753-.171.292-.265.627-.394.941zm-2.705.097c-.206-.652-1.352-2.776-1.817-3.387a4.102 4.102 0 0 0-.176-.223c-1.076-1.278-3.118-.997-3.772.52-.49 1.13.206 2.567 1.357 2.808 1.445.3 2.917.194 4.408.282zm4.386 5.306h5.892v-3.888h-5.892v3.888zm-11.985.023h5.906v-3.914h-5.906v3.914zm7.236 11.722h3.366V61.807h-3.366v10.427zm4.76.054h4.897V61.801h-4.898v10.487zm-11.013-.054h4.919V61.796h-4.92v10.438zm-1.322-10.365c-.87-.218-1.047-.107-1.036-1.294.01-1.456.002-2.911.003-4.368 0-.682.192-.865.91-.865.501 0 1.001.002 1.501-.001.103 0 .204-.012.279-.016-.255-.427-.558-.815-.729-1.25-.62-1.581.11-3.366 1.648-4.132 1.597-.795 3.484-.346 4.528 1.097.792 1.097 1.4 2.292 1.953 3.515.055.12.117.238.208.425.129-.26.235-.459.325-.66.503-1.094 1.032-2.174 1.753-3.159.626-.854 1.425-1.436 2.54-1.574 1.816-.224 3.564 1.017 3.865 2.75.176 1.014-.09 1.912-.705 2.735l-.197.259c.106.014.182.035.259.035.577-.003 1.154-.006 1.73-.015.43-.007.708.226.71.637a833.48 833.48 0 0 1 0 5.149c0 .347-.226.575-.597.624-.127.019-.256.022-.42.035v10.708c0 .124.003.25-.006.373-.035.426-.195.593-.634.656-.14.02-.284.02-.424.02h-16.412c-.087 0-.175.002-.262-.002-.596-.033-.79-.225-.79-.801-.002-3.505 0-7.01 0-10.516v-.365z"/>
    </g>
</svg>
