<svg width="58" height="119" viewBox="0 0 58 119" xmlns="http://www.w3.org/2000/svg">
  <g fill="none" fill-rule="evenodd">
    <g fill="#00AEF0">
      <path d="M26.673 14.542V77h6.556V14.403c6.835 6.82 13.543 13.512 20.198 20.147 1.61-1.615 3.114-3.132 4.572-4.6L29.963 2C20.708 11.23 11.31 20.61 2 29.893c1.41 1.41 2.92 2.91 4.36 4.345l19.96-19.913c.118.074.238.143.353.217zM33 82v5h-6v-5M33 93v5h-6v-5M33 103v5h-6v-5M33 114v5h-6v-5"/>
    </g>
    <g fill="#4A4A4A">
      <path d="M24.673 12.542V75h6.556V12.403c6.835 6.82 13.543 13.512 20.198 20.147 1.61-1.615 3.114-3.132 4.572-4.6L27.963 0C18.708 9.23 9.31 18.61 0 27.893c1.41 1.41 2.92 2.91 4.36 4.345l19.96-19.913c.118.074.238.143.353.217zM31 80v5h-6v-5M31 91v5h-6v-5M31 101v5h-6v-5M31 112v5h-6v-5"/>
    </g>
  </g>
</svg>
