<svg xmlns="http://www.w3.org/2000/svg" width="273" height="296" viewBox="0 0 273 296">
    <g fill="none" fill-rule="evenodd">
        <path fill="#D4AF37" fill-rule="nonzero" d="M134.995 242.958c.552 0 1-.45 1-1.003 0-.554-.448-1.002-1-1.002-5.52-.007-9.994-4.491-10-10.025a1.001 1.001 0 0 0-2 0c-.006 5.505-4.435 9.978-9.927 10.025h-.072c-.553 0-1 .449-1 1.003 0 .553.447 1.002 1 1.002 5.52.006 9.993 4.49 10 10.024a1.001 1.001 0 0 0 2 0c.006-5.505 4.435-9.978 9.926-10.024h.073zm-10.795 5.407a12.09 12.09 0 0 0-6.205-6.22 12.087 12.087 0 0 0 6.205-6.22 12.09 12.09 0 0 0 6.205 6.22 12.087 12.087 0 0 0-6.205 6.22zM71.997 52.031c.552 0 1-.45 1-1.003 0-.554-.448-1.003-1-1.003-5.52-.006-9.993-4.49-10-10.025a1.001 1.001 0 0 0-2 0c-.006 5.506-4.435 9.979-9.927 10.025h-.072c-.552 0-1 .45-1 1.003 0 .554.448 1.003 1 1.003 5.52.006 9.993 4.49 10 10.024a1.001 1.001 0 0 0 2 0c.006-5.506 4.435-9.978 9.927-10.024h.072zm-10.794 5.407a12.09 12.09 0 0 0-6.205-6.22 12.087 12.087 0 0 0 6.205-6.22 12.09 12.09 0 0 0 6.205 6.22 12.087 12.087 0 0 0-6.205 6.22zm129.79 197.55v4.01h4a1.001 1.001 0 1 1 0 2.005h-4v4.01a1.001 1.001 0 0 1-2 0v-4.01h-4c-.553 0-1-.45-1-1.003 0-.554.447-1.003 1-1.003h4v-4.01a1.001 1.001 0 0 1 2 0zM130.294 69.3l2.293-2.299-2.293-2.299a1.004 1.004 0 0 1 .004-1.413.998.998 0 0 1 1.41-.004l2.293 2.299 2.293-2.3a.998.998 0 0 1 1.408.007c.388.39.39 1.019.006 1.411l-2.293 2.3 2.293 2.298a1.004 1.004 0 0 1-.446 1.681.998.998 0 0 1-.968-.264l-2.293-2.298-2.293 2.298a.998.998 0 0 1-1.68-.445c-.092-.349.01-.72.266-.972zM78.71 118.7l-1.293 1.295 1.293 1.297a1.004 1.004 0 0 1-.446 1.681.998.998 0 0 1-.968-.264l-1.293-1.296-1.293 1.296a.998.998 0 0 1-1.68-.446c-.092-.348.01-.719.266-.971l1.293-1.297-1.293-1.296a1.004 1.004 0 0 1 .005-1.413.998.998 0 0 1 1.41-.004l1.292 1.296 1.293-1.296a.998.998 0 0 1 1.408.006c.388.389.39 1.019.006 1.411zM5.713 145.698l-1.293 1.296 1.293 1.296a1.004 1.004 0 0 1-.446 1.682.998.998 0 0 1-.968-.264l-1.293-1.297-1.293 1.297a.998.998 0 0 1-1.68-.446c-.092-.349.01-.72.266-.972l1.293-1.296L.3 145.699a1.004 1.004 0 0 1 .004-1.414.998.998 0 0 1 1.41-.004l1.293 1.296 1.293-1.296a.998.998 0 0 1 1.408.006c.388.39.39 1.02.006 1.412zM150.707 291.69l-1.292 1.296 1.292 1.296a1.004 1.004 0 0 1-.446 1.682.998.998 0 0 1-.968-.264l-1.292-1.296-1.293 1.296a.998.998 0 0 1-1.68-.446c-.092-.348.01-.72.266-.972l1.293-1.296-1.293-1.296a1.004 1.004 0 0 1 .004-1.414.998.998 0 0 1 1.41-.004L148 291.57l1.293-1.297a.998.998 0 0 1 1.407.007c.388.389.39 1.019.006 1.411zm3-289.983l-1.293 1.296 1.293 1.297a1.004 1.004 0 0 1-.446 1.681.998.998 0 0 1-.968-.264L151 4.421l-1.293 1.296a.998.998 0 0 1-1.68-.446c-.091-.348.01-.719.267-.971l1.292-1.297-1.292-1.296a1.004 1.004 0 0 1 .004-1.413.998.998 0 0 1 1.41-.004L151 1.586 152.293.29a.998.998 0 0 1 1.408.006c.388.389.39 1.019.006 1.411zM261.29 30.716l-1.293-1.297-1.293 1.297a.998.998 0 0 1-1.68-.446c-.092-.349.01-.72.266-.972l1.293-1.296-1.293-1.296a1.004 1.004 0 0 1 .004-1.414.998.998 0 0 1 1.41-.004l1.293 1.296 1.293-1.296a.998.998 0 0 1 1.408.006c.388.39.39 1.02.006 1.412l-1.293 1.296 1.293 1.296a1.004 1.004 0 0 1-.446 1.682.998.998 0 0 1-.968-.264zM66.997 189.99v8.02h8c.552 0 1 .45 1 1.003 0 .553-.448 1.002-1 1.002h-8v8.02a1.001 1.001 0 0 1-2 0v-8.02h-8a1.001 1.001 0 1 1 0-2.005h8v-8.02a1.001 1.001 0 0 1 2 0zm189.993-36.985a1.004 1.004 0 0 1-1 1.003h-4v4.01a1.001 1.001 0 0 1-2 0v-4.01h-4c-.552 0-1-.45-1-1.003 0-.553.448-1.002 1-1.002h4v-4.01a1.001 1.001 0 0 1 2 0v4.01h4a.998.998 0 0 1 1 1.002z"/>
        <circle cx="151.5" cy="147.5" r="58.5" fill="#9ECC42"/>
        <g fill-rule="nonzero">
            <path fill="#000" d="M127.025 200.617h-.637c-.254 0-.509-.141-.764-.282-.254-.141-.509-.423-.764-.705-.636-.705-1.655-.846-2.291-.282-.637.705-.764 1.833-.255 2.537.51.705 1.146 1.27 1.783 1.551.509.282 1.145.564 1.782.564H127.152c.255 0 .51-.141.637-.141.89-.282 1.4-1.269 1.145-2.115-.127-.704-1.018-1.41-1.91-1.127zM120.575 202.646h-.238s-.237 0-.356-.129-.713-.516-.95-1.29c-.238-.903-1.07-1.419-1.9-1.16-.832.257-1.307 1.16-1.07 2.063a5.364 5.364 0 0 0 2.376 3.225c.475.258.95.516 1.187.516.238.129.476.129.594.129h.238c.713 0 1.425-.645 1.544-1.419-.119-1.032-.594-1.806-1.425-1.935zM114.15 200.818s-.125 0-.125-.127c-.126 0-.251-.127-.377-.382-.126-.254-.252-.509-.378-.636-.125-.255-.125-.637-.125-.891v-.127c0-.891-.63-1.655-1.51-1.655s-1.635.636-1.635 1.527v.255c0 .636.126 1.4.377 2.036.252.51.504 1.018.88 1.527.252.382.63.764 1.007 1.019.252.127.378.254.503.381.252.128.503.255.755.255.503 0 1.132-.255 1.384-.764.251-1.018 0-1.909-.755-2.418zM108.478 198.478c-.116-.126-.232-.252-.232-.504-.116-.378-.232-.757-.232-1.135 0-.252 0-.504.116-.757.232-.882-.231-1.765-1.043-2.017-.812-.252-1.623.252-1.855 1.135-.116.504-.232 1.008-.232 1.513 0 .756.116 1.513.464 2.27.232.504.464.882.58 1.134.115.253.347.379.347.379.232.378.696.504 1.044.504.348 0 .695-.126 1.043-.504.696-.253.696-1.261 0-2.018.116.126.116.126 0 0zM104.567 193.429c0-.122-.128-.245-.128-.49s-.127-.49-.127-.612v-.122c0-.245.127-.49.255-.98.382-.734 0-1.714-.764-2.08-.765-.368-1.784 0-2.166.734-.382.734-.51 1.346-.637 2.08v.368c0 .49 0 .857.127 1.347.128.49.255.857.383 1.224.382.123.382.367.51.367.254.49.89.735 1.4.735.255 0 .637-.122.892-.245.764-.49.892-1.469.382-2.204 0 0 0-.122-.127-.122zM100.15 188.886c0-.249-.117-.373-.117-.498v-.124c0-.622.234-1.12.584-1.617.583-.621.466-1.616-.117-2.238-.583-.622-1.517-.498-2.1.124-.817.995-1.283 2.239-1.4 3.607v.124c0 .497.117.87.117 1.12v.124c.116.248.116.497.116.497.234.622.817.995 1.4.995.117 0 .35 0 .467-.124.933-.25 1.283-1.12 1.05-1.99zM97.643 183.198l.36-.493v-.123c0-.123 0-.37.12-.493.241-.494.481-.863.962-1.11.72-.37 1.081-1.233.84-1.973-.36-.863-1.32-1.233-2.042-.863-1.201.616-2.162 1.603-2.643 2.96-.12.37-.24.74-.24 1.232v.617s0 .123.12.37c.36.863 1.922.986 2.523-.124zM95.135 175.023c-.396.814.132 1.628.924 1.86.264.117.396.117.66.117.66 0 1.32-.349 1.584-.93 0 0 0-.117.132-.117 0 0 .132-.232.396-.348a2.371 2.371 0 0 1 1.585-.582c.924 0 1.584-.697 1.584-1.628 0-.93-.792-1.395-1.848-1.395-1.98.116-3.301 1.047-3.83 1.512-.263.232-.527.581-.791.93-.264.349-.264.581-.396.581zM99.665 117.659c.141-.257.423-.514.705-.771.705-.643.846-1.671.282-2.314-.705-.642-1.833-.77-2.537-.257-.705.514-1.27 1.157-1.551 1.8-.282.513-.564 1.156-.564 1.799V119.2c0 .257.141.514.141.642.14.771.987 1.157 1.692 1.157h.423c.986-.257 1.55-1.157 1.268-1.928v-.128-.257-.257c-.14-.257 0-.514.141-.771zM95.431 114h.258c.772 0 1.543-.606 1.672-1.333v-.242s0-.243.129-.364c.128-.121.514-.727 1.286-.97.9-.242 1.415-1.09 1.158-1.938-.258-.848-1.158-1.333-2.058-1.09-1.415.363-2.573 1.332-3.216 2.423-.258.485-.515.97-.515 1.212-.129.242-.129.484-.129.606-.128.848.515 1.575 1.415 1.696zM96.887 106.744c.26.128.52.256.78.256.52 0 1.171-.256 1.431-.77 0 0 0-.127.13-.127 0-.129.13-.257.39-.385s.52-.256.65-.385c.26-.128.651-.128.911-.128h.13c.91 0 1.691-.64 1.691-1.538s-.65-1.667-1.56-1.667c-.781 0-1.561.128-2.212.385-.52.256-1.04.512-1.56.897a3.93 3.93 0 0 0-1.04 1.026c-.131.256-.261.384-.391.513-.52.512-.13 1.538.65 1.923zM100.337 101c.374 0 .747-.115 1.12-.46l.125-.116c.124-.115.248-.23.497-.23.622-.23 1.244-.23 1.866-.115.871.23 1.742-.23 1.99-1.036.25-.806-.248-1.612-1.119-1.842-1.244-.346-2.488-.23-3.857.23-.497.23-.87.46-1.12.576a.89.89 0 0 0-.372.345 1.384 1.384 0 0 0 0 2.072c0 .46.497.576.87.576zM105.534 96c.248 0 .619-.129.866-.258 0 0 .124 0 .124-.13.124 0 .247-.128.495-.128.247 0 .495-.13.619-.13h.123c.248 0 .495.13.99.259.742.387 1.732 0 2.103-.774.372-.774 0-1.807-.742-2.194s-1.36-.516-2.103-.645c-.619 0-1.114 0-1.732.129a15.1 15.1 0 0 0-1.238.387c-.123.387-.37.516-.37.516-.743.516-.867 1.549-.372 2.323.247.387.742.645 1.237.645zM111.128 92.059h.62c.62 0 1.116.235 1.612.588.248.235.744.353 1.116.353.372 0 .868-.118 1.116-.47.62-.589.496-1.53-.124-2.118-.992-.824-2.232-1.294-3.596-1.412-.496 0-.992.118-1.24.118h-.124c-.248.117-.496.117-.496.117-.868.236-1.24 1.177-.868 1.883.248.823 1.116 1.294 1.984.94zM115.014 88.594c.13.73.782 1.338 1.563 1.338h.39c.131 0 .392 0 .522.122.52.243 1.042.608 1.302 1.095.26.608.912.851 1.563.851.26 0 .651-.122.912-.243.781-.365.911-1.217.52-1.946-.65-1.217-1.692-2.068-2.995-2.554-.39-.122-.781-.244-1.302-.244h-.521-.26c-1.043-.121-1.824.608-1.694 1.581zM122.85 90.303s.12 0 .12.132c0 0 .236.132.355.396.237.264.593.793.593 1.585 0 .924.711 1.584 1.54 1.584h.12c.83 0 1.422-.792 1.422-1.848 0-2.113-.948-3.301-1.541-3.961-.237-.264-.593-.528-.949-.792l-.474-.264c-.83-.396-1.66.132-1.896.924-.356.924 0 1.848.71 2.244zM181.065 91.354h.625c.25 0 .5.137.75.274s.5.412.75.686c.376.412.75.686 1.251.686.375 0 .75-.137 1-.412.625-.686.75-1.783.25-2.47-.5-.685-1.125-1.234-1.75-1.508-.5-.275-1.125-.549-1.75-.549-.376 0-.876-.137-1.376 0-.25 0-.5.137-.625.137-.876.275-1.376 1.235-1.126 2.058.25.686 1.126 1.372 2.001 1.098zM187.333 89.454h.242s.243 0 .364.127.727.51.97 1.273c.242.764.847 1.146 1.453 1.146.122 0 .243 0 .485-.127.848-.255 1.333-1.146 1.09-2.037-.363-1.4-1.332-2.547-2.423-3.183-.485-.255-.97-.51-1.212-.51-.242-.127-.484-.127-.606-.127-.848-.127-1.575.51-1.696 1.4 0 1.147.485 1.91 1.333 2.038zM193.893 91.138s.125 0 .125.129c.124 0 .249.129.373.386.124.258.249.515.373.644.125.257.125.643.125.9v.13c0 .9.622 1.673 1.493 1.673.871 0 1.618-.644 1.618-1.545v-.257c0-.644-.124-1.416-.373-2.06-.25-.515-.498-1.03-.871-1.545a3.855 3.855 0 0 0-.996-1.03c-.249-.257-.373-.257-.498-.386-.747-.386-1.742-.128-2.116.644-.373.901 0 1.931.747 2.317zM199.551 93.525c.119.128.238.256.238.512.119.383.238.767.238 1.15 0 .256 0 .512-.12.767-.237.895.239 1.79 1.071 2.046h.357c.714 0 1.308-.511 1.427-1.15.12-.512.238-1.024.238-1.535 0-.767-.119-1.534-.476-2.301-.238-.512-.475-.895-.594-1.151-.12-.256-.357-.384-.357-.384a1.434 1.434 0 0 0-2.14 0c-.596.256-.596 1.279.118 2.046-.119-.128-.119-.128 0 0zM204.19 97.61c0 .122.137.244.137.488 0 .243.136.487.136.61v.121c0 .244-.136.488-.273.976-.408.732 0 1.707.817 2.073.272.122.544.122.68.122.68 0 1.225-.366 1.633-.854.408-.731.544-1.341.68-2.073v-.366c0-.487 0-.853-.136-1.341a14.185 14.185 0 0 0-.408-1.22l-.272-.487c-.545-.732-1.633-.854-2.45-.366-.816.487-.952 1.463-.407 2.195-.273 0-.273.122-.137.122zM207.85 103.139c0 .249.117.374.117.498v.125c0 .623-.234 1.122-.584 1.62-.583.624-.466 1.62.117 2.244.233.25.7.374 1.05.374.35 0 .817-.125 1.05-.499.817-.997 1.283-2.243 1.4-3.614v-.125c0-.499-.117-.873-.117-1.122v-.124c-.116-.25-.116-.5-.116-.5-.234-.872-1.167-1.246-1.867-.872-.933.125-1.283.998-1.05 1.995 0-.125 0-.125 0 0zM210.117 108.885c0 .134 0 .134 0 0 0 .269-.12.538-.12.673-.24.538-.601.942-1.082 1.211-.72.404-1.081 1.212-.84 2.02.24.807.84 1.211 1.44 1.211.241 0 .481 0 .602-.135a5.627 5.627 0 0 0 2.643-3.23c.12-.404.24-.808.24-1.347v-.673c0-.942-.72-1.615-1.562-1.615h-.12c-.6.404-1.201 1.077-1.201 1.885zM212.865 115.978c.396-.813-.132-1.627-.924-1.86-.792-.348-1.848.117-2.244.814 0 0 0 .116-.132.116 0 0-.132.233-.396.349a2.372 2.372 0 0 1-1.585.581c-.924 0-1.584.698-1.584 1.627 0 .814.792 1.395 1.716 1.395h.132c1.98-.116 3.301-1.046 3.83-1.51.263-.233.527-.582.791-.93.264-.35.264-.582.396-.582zM208.335 174.343c-.141.253-.423.505-.705.757-.705.63-.846 1.64-.282 2.27.423.378.846.63 1.41.63.423 0 .845-.126 1.127-.378.705-.505 1.27-1.135 1.551-1.766.282-.504.564-1.134.564-1.765v-.63-.63c0-.253-.141-.505-.141-.631-.282-.883-1.269-1.387-2.115-1.135-.986.252-1.55 1.135-1.268 1.891v.631c.14.252 0 .504-.141.756zM212.452 178.016a1.589 1.589 0 0 0-1.806 1.343v.244s0 .245-.129.367-.516.732-1.29.977c-.903.244-1.419 1.099-1.16 1.954.257.733.902 1.099 1.547 1.099.13 0 .258 0 .516-.122 1.42-.367 2.58-1.344 3.225-2.443.258-.488.516-.977.516-1.221.129-.244.129-.489.129-.61 0-.734-.645-1.466-1.548-1.588zM211.073 185.229c-.776-.503-1.81-.126-2.197.627 0 0 0 .126-.129.126 0 .126-.13.251-.388.377-.258.125-.516.25-.646.376-.258.126-.646.126-.904.126h-.13c-.904 0-1.679.628-1.679 1.507 0 .879.646 1.632 1.55 1.632h.259c.646 0 1.421-.126 2.067-.377.517-.25 1.034-.502 1.55-.879a3.879 3.879 0 0 0 1.034-1.004c.13-.251.259-.377.388-.502.388-.628 0-1.633-.775-2.01zM206.418 191.42c-.248.115-.373.23-.497.346-.622.231-1.244.231-1.866.116-.871-.231-1.742.23-1.99 1.04-.25.808.248 1.616 1.119 1.847.497.116.995.231 1.493.231.746 0 1.493-.115 2.24-.462.497-.231.87-.462 1.119-.577.249-.116.373-.347.497-.347a1.391 1.391 0 0 0 0-2.079c-.497-.693-1.492-.693-2.115-.115zM201.52 196.292s-.122 0-.122.128c0 0-.243.128-.486.128s-.486.128-.608.128h-.122c-.243 0-.486-.128-.972-.256-.73-.384-1.702 0-2.067.767-.365.767 0 1.79.73 2.174.729.383 1.337.511 2.066.639h.365c.486 0 .851 0 1.337-.128.487-.128.851-.256 1.216-.383l.486-.256c.73-.512.852-1.534.365-2.302-.608-1.022-1.459-1.15-2.188-.639zM196.834 199.967h-.616c-.615 0-1.107-.234-1.599-.584-.615-.583-1.6-.466-2.215.117-.615.583-.492 1.517.123 2.1.985.817 2.215 1.283 3.568 1.4h.123c.493 0 .862-.117 1.108-.117h.123c.246-.116.492-.116.492-.116.861-.234 1.23-1.167.984-1.984-.369-.816-1.23-1.166-2.091-.816zM191.642 202.237l-1.077-.12h0c-.12 0-.359 0-.598-.12-.478-.24-.837-.601-1.077-1.082-.359-.72-1.196-1.081-1.914-.84-.837.36-1.196 1.32-.837 2.042.598 1.201 1.555 2.162 2.871 2.643.359.12.718.24 1.196.24h.719l.717-.12c.718-.12 1.556-1.081 1.316-1.802-.239-.36-.718-.841-1.316-.841zM184.106 201.77s-.117 0-.117-.135c0 0-.235-.135-.352-.404a2.432 2.432 0 0 1-.587-1.616c0-.942-.704-1.615-1.642-1.615-.821 0-1.408.808-1.408 1.885.117 2.019 1.056 3.365 1.525 3.903.235.27.587.674.939.808l.47.27c.234.134.351.134.586.134.586 0 1.173-.404 1.408-1.077.234-.808-.118-1.75-.822-2.154z"/>
            <path fill="#4A4A4A" d="M178.529 198.797a2.403 2.403 0 0 1-.255-1.02v-.127c11.57-5.477 20.85-14.52 26.572-25.857.127.382.381.637.763.892.254.127.508.255.763.255.508 0 1.144-.255 1.398-.892.509-.892.763-1.783.763-2.802 0-.382 0-.764-.127-1.147-.254-1.019-.636-1.655-.763-1.783-.127-.127-.127-.255-.254-.255 4.958-13.374 4.831-27.895-.509-41.269.382-.127.89-.255 1.272-.382.89-.51 1.398-1.019 1.525-1.146.636-.637.509-1.656-.127-2.293-.636-.637-1.653-.51-2.288.127 0 0-.255.255-.509.382a2.392 2.392 0 0 1-1.017.255c-5.594-11.718-14.62-21.017-26.063-26.748.381-.128.763-.383.89-.765.509-.764.127-1.783-.636-2.165-.89-.51-1.78-.764-2.797-.764-.381 0-.763 0-1.144.127-1.017.255-1.653.637-1.78.764l-.381.382C167.468 90.146 160.73 89 153.99 89c-7.246 0-14.366 1.401-21.231 4.076-.128-.51-.255-.892-.509-1.274-.509-.891-1.017-1.4-1.144-1.528-.636-.637-1.653-.51-2.289.127-.635.637-.508 1.656.127 2.293 0 0 .255.255.382.51.127.254.254.636.254 1.018v.128c-11.442 5.477-20.723 14.52-26.444 25.857a1.98 1.98 0 0 0-.763-1.02c-.763-.381-1.78-.127-2.161.638-.509.891-.763 1.783-.763 2.802 0 .382 0 .764.127 1.146.254 1.02.636 1.656.763 1.783l.381.383c-5.085 13.374-4.958 27.895.381 41.269-.38.127-.89.255-1.27.382-.89.51-1.4 1.019-1.527 1.146-.635.637-.508 1.656.128 2.293.254.255.635.382 1.017.382.381 0 .89-.127 1.144-.51 0 0 .254-.254.508-.381a2.392 2.392 0 0 1 1.018-.255c5.466 11.59 14.493 20.89 25.808 26.621-.381.127-.635.382-.89.764-.381.765-.127 1.784.636 2.166.89.51 1.78.764 2.797.764.381 0 .763 0 1.144-.127 1.017-.255 1.653-.637 1.78-.765.127-.127.254-.127.254-.254 6.357 2.42 13.096 3.566 19.961 3.566 7.247 0 14.366-1.401 21.105-4.076.127.382.254.892.381 1.274.509.891 1.017 1.4 1.144 1.528.255.255.763.382 1.145.382.508 0 .89-.127 1.27-.51.637-.636.51-1.655-.126-2.292.381 0 .254-.127 0-.51zm-2.289-99.862c10.934 5.095 19.58 13.884 24.792 24.838l-26.699 11.082c-1.017-1.91-2.288-3.694-3.941-5.223-1.526-1.528-3.306-2.802-5.213-3.948l11.061-26.749zm-44.37 0l6.738 16.304 4.322 10.445c-1.907 1.019-3.686 2.293-5.212 3.948-1.526 1.529-2.797 3.312-3.941 5.223l-26.7-11.082c5.086-10.954 13.859-19.615 24.793-24.838zm0 94.002c-10.934-5.095-19.58-13.883-24.792-24.838l26.699-11.081c1.017 1.91 2.288 3.694 3.94 5.222 1.527 1.529 3.306 2.802 5.213 3.949l-11.06 26.748zm28.987-30.315c-2.162.892-4.45 1.401-6.866 1.401-2.415 0-4.704-.509-6.865-1.4-2.161-.892-4.196-2.166-5.848-3.95-1.653-1.655-2.924-3.566-3.942-5.858-.89-2.166-1.398-4.586-1.398-6.879 0-2.42.509-4.713 1.398-6.878.89-2.165 2.162-4.203 3.942-5.86 1.652-1.655 3.56-2.929 5.848-3.948 2.161-.891 4.45-1.4 6.865-1.4 2.416 0 4.704.509 6.866 1.4 2.161.892 4.195 2.166 5.848 3.949 1.653 1.656 2.924 3.566 3.941 5.86.89 2.164 1.399 4.585 1.399 6.877 0 2.42-.509 4.713-1.399 6.879-.89 2.165-2.161 4.203-3.94 5.859-1.654 1.656-3.56 3.057-5.85 3.948zm15.383 30.315l-8.518-20.507-2.543-6.241c1.907-1.02 3.687-2.293 5.213-3.949 1.526-1.528 2.797-3.312 3.941-5.222l26.699 11.081c-5.213 11.082-13.858 19.743-24.792 24.838z"/>
        </g>
        <circle cx="154" cy="146" r="18" fill="#FFF"/>
        <path fill="#F7F7F7" stroke="#4A4A4A" stroke-width="5" d="M228.38 58.187l30.657 2.201c1.264 0 2.212.944 2.844 2.202.317 1.257 0 2.2-.948 3.144l-23.387 19.81 7.269 29.559c.316 1.258-.316 2.515-1.264 3.144-.949.944-2.213.944-3.477.315l-25.916-16.037-26.232 16.037c-1.264.629-2.528.629-3.477-.315-.948-.629-1.264-1.886-.948-3.144l6.953-29.559-23.387-19.81c-.948-.943-1.265-1.887-.948-3.144.632-1.258 1.58-2.202 2.844-2.202l30.657-2.2 11.694-28.301c.316-1.258 1.58-1.887 2.844-1.887 1.264 0 2.212.629 2.528 1.887l11.694 28.3z"/>
        <path fill="#D4AF37" d="M271.987 224.487c-9.646-.01-17.464-7.828-17.474-17.474a1.013 1.013 0 1 0-2.026 0c-.01 9.646-7.828 17.464-17.474 17.474a1.013 1.013 0 1 0 0 2.026c9.646.01 17.464 7.828 17.474 17.474a1.013 1.013 0 0 0 2.026 0c.01-9.646 7.828-17.464 17.474-17.474a1.013 1.013 0 1 0 0-2.026z"/>
        <path fill="#F7F7F7" d="M241 225a19.144 19.144 0 0 0 12-12 19.144 19.144 0 0 0 12 12 19.144 19.144 0 0 0-12 12 19.144 19.144 0 0 0-12-12z"/>
    </g>
</svg>
