<svg xmlns="http://www.w3.org/2000/svg" width="375" height="179" viewBox="0 0 375 179">
    <g fill="none" fill-rule="evenodd">
        <ellipse cx="65.433" cy="65.399" fill="#9ECC42" rx="65.433" ry="65.399" transform="translate(123.133 37)"/>
        <path fill="#FFF" d="M229.118 107.172l-10.14 10.252-3.234-10.252h-12.231a8.294 8.294 0 0 1-8.294-8.295V64.718a8.294 8.294 0 0 1 8.294-8.294h47.411a8.294 8.294 0 0 1 8.295 8.294v34.16a8.294 8.294 0 0 1-8.295 8.294h-21.806zM197.43 163.666c-3.05-7.009-3.575-12.948-3.657-15.281v-19.2c0-14.666-11.955-26.555-26.702-26.555-14.748 0-26.704 11.89-26.704 26.556v19.476c-.114 2.51-.713 8.268-3.645 15.004-3.94 9.052-.68 7.973 2.242 7.228 2.92-.741 9.444-3.648 11.482-.067 2.037 3.58 3.737 6.688 8.492 4.661 4.756-2.026 6.997-2.701 7.677-2.701h.923c.678 0 2.92.675 7.676 2.701 4.756 2.027 6.454-1.082 8.493-4.661 2.037-3.581 8.56-.674 11.481.067 2.922.745 6.182 1.824 2.241-7.228"/>
        <path fill="#FFF" d="M201.783 163.666c-3.05-7.009-3.575-12.948-3.657-15.281v-19.2c0-14.666-11.955-26.555-26.701-26.555-14.749 0-26.704 11.89-26.704 26.556v19.476c-.114 2.51-.713 8.268-3.645 15.004-3.941 9.052-.68 7.973 2.241 7.228 2.921-.741 9.445-3.648 11.483-.067 2.037 3.58 3.736 6.688 8.492 4.661 4.756-2.026 6.997-2.701 7.676-2.701h.924c.678 0 2.92.675 7.675 2.701 4.756 2.027 6.455-1.082 8.493-4.661 2.037-3.581 8.56-.674 11.482.067 2.921.745 6.181 1.824 2.24-7.228"/>
        <path stroke="#4A4A4A" stroke-width="4.592" d="M198.197 163.666c-3.05-7.009-3.575-12.948-3.657-15.281v-19.2c0-14.666-11.955-26.555-26.702-26.555-14.748 0-26.703 11.89-26.703 26.556v19.476c-.114 2.51-.714 8.268-3.646 15.004-3.94 9.052-.68 7.973 2.242 7.228 2.921-.741 9.445-3.648 11.482-.067 2.037 3.58 3.737 6.688 8.493 4.661 4.756-2.026 6.997-2.701 7.676-2.701h.923c.679 0 2.92.675 7.676 2.701 4.756 2.027 6.455-1.082 8.493-4.661 2.037-3.581 8.56-.674 11.482.067 2.921.745 6.18 1.824 2.24-7.228"/>
        <g fill="#4A4A4A">
            <path d="M159.296 113.655c2.895 0 5.242 3.634 5.242 8.117 0 4.483-2.347 8.118-5.242 8.118-2.894 0-5.242-3.635-5.242-8.118 0-4.483 2.348-8.117 5.242-8.117M167.422 145.803c-6.38 0-11.75-6.143-13.368-12.978 3.126 4.204 7.95 6.906 13.368 6.906 5.417 0 10.24-2.702 13.367-6.906-1.619 6.835-6.99 12.978-13.367 12.978M176.083 129.89c-2.897 0-5.243-3.635-5.243-8.118 0-4.483 2.346-8.117 5.243-8.117 2.897 0 5.242 3.634 5.242 8.117 0 4.483-2.345 8.118-5.242 8.118"/>
        </g>
        <path fill="#4A4A4A" stroke="#4A4A4A" d="M214.464 119.91c-.139-.375-.205-.521-.246-.675-.942-3.248-1.877-6.495-2.815-9.743-.34-1.184-.827-1.559-2.06-1.562-2.78 0-5.56.003-8.337-.004-.467 0-.948.01-1.409-.068-4.376-.74-7.274-4.128-7.277-8.508-.004-9.026-.004-18.05.007-27.076.003-.669.066-1.35.214-2 .928-3.99 4.235-6.563 8.48-6.566 13.657-.014 27.315-.007 40.97-.003.589.003 1.184.01 1.759.116 4.248.78 7.07 4.151 7.077 8.463.013 9.003-.025 18.005.013 27.008.028 5.199-4.244 8.764-8.776 8.665-4.944-.113-9.891-.014-14.832-.038-.865-.006-1.52.263-2.119.88-3.348 3.46-6.72 6.892-10.078 10.34-.194.198-.332.444-.571.771m-6.052-8.528c.575 2.003 1.142 3.978 1.707 5.956.46 1.604.907 3.21 1.367 4.814.537 1.89 2.631 2.487 4.106 1.163.385-.345.727-.727 1.09-1.095 3.38-3.46 6.77-6.915 10.138-10.384.319-.324.637-.464 1.101-.46 4.802.013 9.607.013 14.413.006 6.595-.007 11.879-5.216 11.882-11.718.003-9.166.003-18.333 0-27.5-.003-6.546-5.28-11.738-11.93-11.738-13.804-.003-27.608-.003-41.408 0-6.682 0-11.94 5.192-11.944 11.797-.004 9.122-.004 18.24 0 27.362.003 6.602 5.262 11.794 11.948 11.797 2.492.003 4.989 0 7.53 0"/>
        <path fill="#D4AF37" d="M285.987 157.487c-9.646-.01-17.464-7.828-17.474-17.474a1.013 1.013 0 1 0-2.026 0c-.01 9.646-7.828 17.464-17.474 17.474a1.013 1.013 0 1 0 0 2.026c9.646.01 17.464 7.828 17.474 17.474a1.013 1.013 0 0 0 2.026 0c.01-9.646 7.828-17.464 17.474-17.474a1.013 1.013 0 1 0 0-2.026z"/>
        <path fill="#F7F7F7" d="M255 158a19.144 19.144 0 0 0 12-12 19.144 19.144 0 0 0 12 12 19.144 19.144 0 0 0-12 12 19.144 19.144 0 0 0-12-12z"/>
        <path fill="#D4AF37" fill-rule="nonzero" d="M139 11.023a1.001 1.001 0 0 0 0 2.005c5.52.006 9.994 4.489 10 10.02a1.001 1.001 0 1 0 2 0c.006-5.503 4.436-9.974 9.928-10.02H161a1.001 1.001 0 0 0 0-2.005c-5.52-.006-9.993-4.49-10-10.02a1.001 1.001 0 1 0-2 0c-.006 5.503-4.436 9.974-9.927 10.02H139zm10.795-5.406A12.087 12.087 0 0 0 156 11.835a12.084 12.084 0 0 0-6.205 6.218 12.087 12.087 0 0 0-6.205-6.218 12.085 12.085 0 0 0 6.205-6.218zm-108.8 116.365a1.001 1.001 0 0 0 0 2.005c5.52.006 9.993 4.489 10 10.02a1.001 1.001 0 1 0 2 0c.006-5.503 4.435-9.974 9.927-10.02h.072a1.001 1.001 0 0 0 0-2.005c-5.52-.006-9.993-4.49-10-10.02a1.001 1.001 0 1 0-2 0c-.006 5.503-4.435 9.974-9.927 10.02h-.072zm10.794-5.406a12.087 12.087 0 0 0 6.205 6.218 12.084 12.084 0 0 0-6.205 6.218 12.087 12.087 0 0 0-6.205-6.218 12.085 12.085 0 0 0 6.205-6.218zM88 114.01v-4.008H84a1.001 1.001 0 0 1 0-2.005h4v-4.008a1.001 1.001 0 1 1 2 0v4.008h4a1.001 1.001 0 0 1 0 2.005h-4v4.008a1.001 1.001 0 1 1-2 0zm258.702-1.304l-2.293 2.298 2.293 2.298a1.004 1.004 0 0 1-.004 1.413.998.998 0 0 1-1.41.004l-2.293-2.298-2.293 2.298a.998.998 0 0 1-1.408-.006 1.004 1.004 0 0 1-.006-1.411l2.293-2.298-2.293-2.298a1.003 1.003 0 0 1 .446-1.68.998.998 0 0 1 .968.263l2.293 2.298 2.293-2.298a.998.998 0 0 1 1.68.446c.092.348-.01.719-.266.971zM52.286 73.32l1.293-1.295-1.293-1.296a1.003 1.003 0 0 1 .446-1.681.998.998 0 0 1 .968.264l1.293 1.296 1.293-1.296a.998.998 0 0 1 1.68.446c.092.348-.01.719-.266.971l-1.293 1.296 1.293 1.295a1.004 1.004 0 0 1-.004 1.413.998.998 0 0 1-1.41.004l-1.293-1.295-1.293 1.295a.998.998 0 0 1-1.407-.006 1.004 1.004 0 0 1-.007-1.41zm27.025 86.975l1.293-1.296-1.293-1.296a1.003 1.003 0 0 1 .446-1.68.998.998 0 0 1 .968.263l1.293 1.296 1.293-1.296a.998.998 0 0 1 1.68.446c.092.348-.01.719-.266.971l-1.293 1.296 1.293 1.296a1.004 1.004 0 0 1-.004 1.413.998.998 0 0 1-1.41.004l-1.293-1.296-1.293 1.296a.998.998 0 0 1-1.408-.007 1.004 1.004 0 0 1-.006-1.41zm.975-118.957l1.293-1.295-1.293-1.296a1.003 1.003 0 0 1 .447-1.68.998.998 0 0 1 .967.263l1.293 1.296 1.293-1.296a.998.998 0 0 1 1.68.446c.092.348-.01.719-.266.971l-1.293 1.296 1.293 1.295a1.004 1.004 0 0 1-.004 1.413.998.998 0 0 1-1.41.004l-1.293-1.295-1.293 1.295a.998.998 0 0 1-1.407-.006 1.004 1.004 0 0 1-.007-1.41zm149-2.998l1.294-1.296-1.293-1.296a1.003 1.003 0 0 1 .446-1.68.998.998 0 0 1 .968.263l1.293 1.296 1.293-1.296a.998.998 0 0 1 1.68.446c.091.348-.01.719-.266.971l-1.293 1.296 1.293 1.296a1.004 1.004 0 0 1-.005 1.413.998.998 0 0 1-1.41.004l-1.292-1.296-1.293 1.296a.998.998 0 0 1-1.408-.007 1.004 1.004 0 0 1-.006-1.41zm141.415-4.009l1.293 1.296 1.293-1.296a.998.998 0 0 1 1.68.446c.092.348-.01.719-.266.971l-1.293 1.296 1.293 1.296a1.004 1.004 0 0 1-.004 1.413.998.998 0 0 1-1.41.004l-1.293-1.296-1.293 1.296a.998.998 0 0 1-1.408-.007 1.004 1.004 0 0 1-.006-1.41l1.293-1.296-1.293-1.296a1.003 1.003 0 0 1 .446-1.68.998.998 0 0 1 .968.263zM300 88.025v-8.017h-8a1.001 1.001 0 0 1 0-2.004h8v-8.017a1.001 1.001 0 1 1 2 0v8.017H310a1.001 1.001 0 0 1 0 2.004h-8v8.017a1.001 1.001 0 1 1-2 0zM0 110.995a1.003 1.003 0 0 1 1-1.002h4v-4.008a1.001 1.001 0 1 1 2 0v4.008h4a1.001 1.001 0 0 1 0 2.004H7v4.009a1.001 1.001 0 1 1-2 0v-4.009H1a.999.999 0 0 1-1-1.002z"/>
        <g fill="#9ECC42" fill-rule="nonzero">
            <path d="M211.907 90.894h24.186v2.198h-24.186zM214.104 83.198h2.198v6.597h-2.198zM218.502 84.311h2.198v5.485h-2.198zM222.899 73.304h2.198v16.491h-2.198zM227.298 77.702h2.198v12.093h-2.198zM231.695 68.907h2.198v20.888h-2.198z"/>
        </g>
        <g fill="#000" fill-rule="nonzero">
            <path d="M209.907 92.894h24.186v2.198h-24.186zM212.104 85.198h2.198v6.597h-2.198zM216.502 86.311h2.198v5.485h-2.198zM220.899 75.304h2.198v16.491h-2.198zM225.298 79.702h2.198v12.093h-2.198zM229.695 70.907h2.198v20.888h-2.198z"/>
        </g>
        <g transform="translate(115 45)">
            <rect width="47.183" height="48" x=".817" y="1" fill="#FFF" rx="2"/>
            <g fill="#010101" fill-rule="nonzero">
                <path stroke="#4A4A4A" stroke-width="2" d="M45.211 0H1.268C.563 0 0 .565 0 1.27v44.118c0 .706.563 1.27 1.268 1.27h44.014c.704 0 1.267-.564 1.267-1.27V1.271C46.48.565 45.915 0 45.211 0zm-.14 1.412v8.047H1.407V1.412H45.07zM1.407 45.176V10.871H45.07v34.305H1.408z"/>
                <path d="M5.634 8.047a2.528 2.528 0 0 0 2.535-2.541 2.528 2.528 0 0 0-2.535-2.541 2.528 2.528 0 0 0-2.535 2.54 2.528 2.528 0 0 0 2.535 2.542zm0-3.67c.634 0 1.127.494 1.127 1.129s-.493 1.13-1.127 1.13a1.114 1.114 0 0 1-1.127-1.13c-.07-.635.493-1.13 1.127-1.13zM11.972 8.047a2.528 2.528 0 0 0 2.535-2.541 2.528 2.528 0 0 0-2.535-2.541 2.528 2.528 0 0 0-2.535 2.54 2.528 2.528 0 0 0 2.535 2.542zm0-3.67c.634 0 1.127.494 1.127 1.129s-.493 1.13-1.127 1.13a1.114 1.114 0 0 1-1.127-1.13c-.07-.635.493-1.13 1.127-1.13zM18.31 8.047a2.528 2.528 0 0 0 2.535-2.541 2.528 2.528 0 0 0-2.535-2.541 2.528 2.528 0 0 0-2.535 2.54 2.528 2.528 0 0 0 2.535 2.542zm0-3.67c.634 0 1.127.494 1.127 1.129s-.493 1.13-1.127 1.13a1.114 1.114 0 0 1-1.127-1.13c-.07-.635.493-1.13 1.127-1.13zM23.24 7.765h19.718c.422 0 .704-.283.704-.706V3.953c0-.424-.282-.706-.704-.706H23.239c-.422 0-.704.282-.704.706v3.106c0 .423.282.706.704.706zm.704-3.106h18.31v1.694h-18.31V4.659zM15.282 15.953l-2.958-.424-1.338-2.753c-.14-.211-.352-.423-.634-.423-.282 0-.493.141-.634.423L8.38 15.53l-3.028.424c-.282.07-.493.212-.563.494-.07.282 0 .565.211.706l2.183 2.118-.493 2.964c-.07.283.07.565.282.706.211.141.493.212.774.07l2.677-1.411 2.676 1.412c.21.14.493.07.774-.07a.672.672 0 0 0 .282-.707l-.493-2.964 2.183-2.118c.211-.212.282-.494.211-.706-.281-.282-.493-.423-.774-.494zm-3.028 2.541c-.141.141-.212.424-.212.635l.352 1.977-1.76-.918a.527.527 0 0 0-.634 0l-1.76.918.352-1.977c.07-.211-.07-.494-.212-.635l-1.408-1.412 1.972-.282c.21 0 .422-.212.563-.353l.845-1.765.845 1.765c.07.212.282.353.564.353l1.971.282-1.478 1.412z"/>
                <path d="M15.282 26.47l-3.028-.423-1.268-2.753c-.14-.212-.352-.423-.634-.423-.282 0-.493.14-.634.423L8.38 26.047l-3.028.424c-.282.07-.493.211-.563.494-.07.282 0 .564.211.706l2.183 2.117-.493 2.965c-.07.282.07.565.282.706.211.141.493.212.774.07l2.677-1.411 2.676 1.411c.21.142.493.071.774-.07a.672.672 0 0 0 .282-.706l-.493-2.965 2.183-2.117c.211-.212.282-.495.211-.706-.281-.283-.493-.494-.774-.494zm-3.028 2.542c-.141.14-.212.423-.212.635l.352 1.977-1.76-.918a.527.527 0 0 0-.634 0l-1.76.918.352-1.977c.07-.212-.07-.494-.212-.635L6.972 27.6l1.972-.282c.21 0 .422-.212.563-.353l.845-1.765.845 1.765c.07.211.282.353.564.353l1.971.282-1.478 1.412z"/>
                <path d="M15.282 36.918l-3.028-.424-1.339-2.753c-.14-.212-.352-.423-.633-.423-.282 0-.493.14-.634.423L8.31 36.494l-3.028.424c-.282.07-.493.211-.564.494-.07.282 0 .564.212.706l2.183 2.117L6.62 43.2c-.07.282.07.565.281.706.212.141.493.212.775.07l2.676-1.411 2.676 1.411c.211.142.493.071.775-.07a.672.672 0 0 0 .282-.706l-.564-2.965 2.183-2.117c.211-.212.282-.494.211-.706-.14-.212-.352-.424-.633-.494zm-3.028 2.611c-.141.142-.212.424-.212.636l.352 1.976-1.76-.917a.527.527 0 0 0-.634 0l-1.76.917.352-1.976c.07-.212-.07-.494-.212-.636l-1.408-1.411 1.972-.283c.21 0 .422-.211.563-.353l.845-1.764.845 1.764c.07.212.282.353.564.353l1.971.283-1.478 1.411z"/>
            </g>
        </g>
        <path fill="#9ECC42" d="M134 81h25v5h-25zM134 71h18v5h-18zM134 60h13v5h-13z"/>
        <path fill="#010101" fill-rule="nonzero" d="M157.306 82h-23.612c-.416 0-.694.276-.694.69v4.62c0 .414.278.69.694.69h23.612c.416 0 .694-.276.694-.69v-4.62c0-.414-.278-.69-.694-.69zm-.695 4.552H134.39V83.31h22.222v3.242zM133.714 78h17.572c.428 0 .714-.276.714-.69v-4.62c0-.414-.286-.69-.714-.69h-17.572c-.428 0-.714.276-.714.69v4.62c0 .345.286.69.714.69zm.715-4.62h16.142v3.24H134.43v-3.24zM133.699 67H145.3c.42 0 .699-.276.699-.69v-4.62c0-.414-.28-.69-.699-.69H133.7c-.42 0-.699.276-.699.69v4.62c0 .414.28.69.699.69zm.699-4.62h10.204v3.24h-10.204v-3.24z"/>
    </g>
</svg>
