<svg xmlns="http://www.w3.org/2000/svg" width="526" height="191"><defs><linearGradient id="a" x1="80.357%" x2="35.84%" y1="19.818%" y2="91.497%"><stop offset="0%" stop-color="#ECD868"/><stop offset="100%" stop-color="#D4AF37"/></linearGradient><linearGradient id="b" x1="78.916%" x2="78.916%" y1="17.554%" y2="79.445%"><stop offset="0%" stop-color="#ECD868"/><stop offset="100%" stop-color="#D4AF37"/></linearGradient><linearGradient id="c" x1="100%" x2="0%" y1="0%" y2="100%"><stop offset="0%" stop-color="#ECD868"/><stop offset="100%" stop-color="#D4AF37"/></linearGradient></defs><g fill="none" fill-rule="evenodd"><path fill="#D4AF37" d="M525.704 44.702l-1.291 1.293 1.29 1.292a1 1 0 0 1-.445 1.677.997.997 0 0 1-.966-.263l-1.29-1.293-1.292 1.293a.997.997 0 0 1-1.677-.445 1 1 0 0 1 .266-.969l1.29-1.292-1.29-1.293a1 1 0 0 1 .004-1.41.997.997 0 0 1 1.407-.003l1.291 1.292 1.291-1.292a.997.997 0 0 1 1.405.006 1 1 0 0 1 .007 1.407z"/><path fill="#D4AF37" fill-rule="nonzero" d="M443 93.238a1.002 1.002 0 0 0 0-2.006c-5.52-.006-9.994-4.49-10-10.025 0-.554-.448-1.003-1-1.003s-1 .45-1 1.003c-.006 5.506-4.436 9.98-9.928 10.025H421a1.002 1.002 0 0 0 0 2.006c5.52.006 9.993 4.49 10 10.025a1 1 0 1 0 2 0c.006-5.506 4.436-9.979 9.928-10.025H443zm-10.795 5.423A12.09 12.09 0 0 0 426 92.44a12.087 12.087 0 0 0 6.205-6.22 12.09 12.09 0 0 0 6.205 6.22 12.087 12.087 0 0 0-6.205 6.22zM84.514 170.69c-9.527-.01-17.247-7.75-17.257-17.3 0-.554-.448-1.003-1-1.003s-1 .449-1 1.003c-.01 9.55-7.73 17.29-17.257 17.3a1.002 1.002 0 0 0 0 2.006c9.526.01 17.246 7.75 17.257 17.3 0 .554.448 1.003 1 1.003s1-.449 1-1.003c.01-9.55 7.73-17.29 17.257-17.3a1.002 1.002 0 0 0 0-2.006zm-18.387 13.03A19.372 19.372 0 0 0 54 171.565a19.372 19.372 0 0 0 12.127-12.158 19.372 19.372 0 0 0 12.127 12.158 19.372 19.372 0 0 0-12.127 12.158zM517 122.312v4.01h4a1.002 1.002 0 0 1 0 2.006h-4v4.01c0 .554-.448 1.003-1 1.003s-1-.45-1-1.003v-4.01h-4a1.002 1.002 0 0 1 0-2.005h4v-4.01c0-.554.448-1.003 1-1.003s1 .449 1 1.002zM214.3 39.39l2.292-2.299-2.293-2.299a1.004 1.004 0 0 1 .004-1.413.998.998 0 0 1 1.41-.004l2.293 2.299 2.293-2.3a.998.998 0 0 1 1.408.007c.388.39.39 1.019.006 1.411l-2.293 2.3 2.293 2.298a1.004 1.004 0 0 1-.446 1.682.998.998 0 0 1-.968-.264l-2.293-2.3-2.293 2.3a.998.998 0 0 1-1.68-.446c-.092-.348.01-.72.266-.972zm-82.587 86.635l-1.293 1.296 1.293 1.296a1.004 1.004 0 0 1-.446 1.682.998.998 0 0 1-.968-.264l-1.293-1.296-1.293 1.296a.998.998 0 0 1-1.68-.446c-.092-.348.01-.72.266-.972l1.293-1.296-1.293-1.296a1.004 1.004 0 0 1 .004-1.414.998.998 0 0 1 1.41-.004l1.293 1.296 1.293-1.296a.998.998 0 0 1 1.408.007c.388.388.39 1.018.006 1.41zm346 32.081l-1.293 1.297 1.293 1.296a1.004 1.004 0 0 1-.446 1.682.998.998 0 0 1-.968-.264l-1.293-1.297-1.293 1.297a.998.998 0 0 1-1.68-.446c-.092-.349.01-.72.266-.972l1.293-1.296-1.293-1.297a1.004 1.004 0 0 1 .004-1.413.998.998 0 0 1 1.41-.004l1.293 1.296 1.293-1.296a.998.998 0 0 1 1.408.006c.388.39.39 1.019.006 1.411zM4.3 85.717l-1.293-1.296-1.293 1.296a.998.998 0 0 1-1.68-.445c-.092-.349.01-.72.266-.972l1.293-1.296L.3 81.707a1.004 1.004 0 0 1 .004-1.413.998.998 0 0 1 1.41-.004l1.293 1.296L4.3 80.29a.998.998 0 0 1 1.408.006c.388.389.39 1.019.006 1.411L4.42 83.004 5.713 84.3a1.004 1.004 0 0 1-.446 1.681.998.998 0 0 1-.968-.264zM143 71.181v8.02h8a1.002 1.002 0 0 1 0 2.006h-8v8.02c0 .554-.448 1.003-1 1.003s-1-.45-1-1.003v-8.02h-8a1.002 1.002 0 0 1 0-2.005h8v-8.02c0-.554.448-1.003 1-1.003s1 .449 1 1.002zM409 6.015a1.004 1.004 0 0 1-1 1.003h-4v4.01c0 .554-.448 1.003-1 1.003s-1-.45-1-1.003v-4.01h-4a1.002 1.002 0 0 1 0-2.005h4v-4.01c0-.554.448-1.003 1-1.003s1 .449 1 1.003v4.01h4a.998.998 0 0 1 1 1.002z"/><g fill-rule="nonzero"><path fill="url(#a)" d="M213 37.768h-41.959c-.407-2.972-1.233-5.898-3.04-8.465-3.324-4.719-8.713-6.62-13.47-8.295-2.863-1.008-5.566-1.963-7.388-3.333-1.782-1.34-3.47-3.681-5.259-6.16-3.022-4.193-6.447-8.944-11.888-10.769-5.237-1.757-10.61-.051-15.345 1.453-2.966.942-5.763 1.83-8.149 1.83-2.383 0-5.183-.888-8.148-1.83C93.616.695 88.24-1.01 83.008.744c-5.443 1.827-8.872 6.58-11.894 10.774-1.785 2.476-3.472 4.817-5.252 6.155-1.822 1.37-4.525 2.324-7.389 3.332-4.754 1.676-10.148 3.577-13.468 8.294-1.809 2.566-2.635 5.494-3.042 8.464H0L13.708 75.5 0 113.23h41.961c.405 2.972 1.233 5.898 3.039 8.466 3.323 4.717 8.714 6.618 13.468 8.294 2.864 1.01 5.57 1.962 7.392 3.332 1.777 1.34 3.464 3.68 5.251 6.158 3.022 4.193 6.452 8.946 11.895 10.774 5.226 1.754 10.605.049 15.346-1.453 2.965-.94 5.762-1.83 8.148-1.83s5.183.888 8.148 1.83c3.309 1.052 6.925 2.199 10.589 2.199 1.583 0 3.176-.215 4.755-.746 5.443-1.825 8.867-6.576 11.89-10.77 1.786-2.478 3.474-4.819 5.258-6.16 1.823-1.37 4.525-2.324 7.39-3.332 4.756-1.676 10.147-3.576 13.468-8.296 1.808-2.568 2.634-5.494 3.039-8.464H213L199.292 75.5 213 37.768zM13.71 103.414L23.854 75.5 13.71 47.586h27.766c-.071 2.175-.234 4.188-.748 5.822-.658 2.097-2.265 4.438-3.964 6.919-2.944 4.291-6.281 9.16-6.281 15.173 0 6.016 3.337 10.88 6.28 15.173 1.7 2.478 3.307 4.822 3.965 6.918.514 1.635.677 3.648.748 5.823H13.71zm154.782-18.42c-2.037 2.973-4.146 6.046-5.251 9.566-1.153 3.667-1.212 7.533-1.271 11.274-.064 4.075-.125 7.926-1.647 10.089-1.553 2.206-5.1 3.457-8.854 4.78-3.408 1.201-6.93 2.442-9.914 4.687-2.946 2.217-5.152 5.275-7.285 8.23-2.388 3.31-4.64 6.437-7.21 7.298-2.384.798-5.903-.318-9.621-1.5-3.505-1.113-7.129-2.262-10.939-2.262-3.808 0-7.434 1.15-10.936 2.262-3.728 1.182-7.245 2.303-9.628 1.5-2.565-.861-4.823-3.99-7.214-7.303-2.13-2.955-4.333-6.01-7.277-8.225-2.984-2.245-6.508-3.486-9.914-4.687-3.756-1.323-7.304-2.574-8.856-4.78-1.524-2.165-1.583-6.016-1.647-10.092-.057-3.738-.119-7.604-1.269-11.268-1.105-3.52-3.214-6.594-5.251-9.564-2.33-3.398-4.53-6.607-4.53-9.497 0-2.886 2.2-6.099 4.53-9.497 2.037-2.97 4.146-6.043 5.251-9.563 1.15-3.665 1.21-7.528 1.271-11.266.062-4.078.126-7.929 1.647-10.094 1.553-2.207 5.1-3.457 8.856-4.78 3.406-1.202 6.928-2.442 9.912-4.688 2.944-2.214 5.147-5.272 7.277-8.225 2.39-3.312 4.646-6.441 7.214-7.302.56-.189 1.186-.27 1.858-.27 2.191 0 4.92.866 7.77 1.772 3.505 1.113 7.128 2.263 10.938 2.263 3.808 0 7.434-1.15 10.94-2.263 3.727-1.182 7.241-2.298 9.622-1.5 2.565.861 4.82 3.99 7.209 7.298 2.132 2.958 4.338 6.016 7.284 8.23 2.985 2.243 6.506 3.486 9.914 4.687 3.754 1.324 7.302 2.574 8.854 4.78 1.527 2.166 1.586 6.014 1.647 10.09.057 3.738.119 7.603 1.271 11.268 1.105 3.523 3.214 6.596 5.252 9.568 2.329 3.396 4.53 6.606 4.53 9.492-.003 2.885-2.204 6.094-4.533 9.493zm30.798 18.42h-27.766c.074-2.175.234-4.188.748-5.823.658-2.096 2.265-4.44 3.967-6.92 2.941-4.292 6.278-9.158 6.278-15.171s-3.337-10.877-6.278-15.168c-1.702-2.48-3.309-4.822-3.967-6.924-.514-1.634-.677-3.647-.748-5.822h27.764L189.146 75.5l10.144 27.914z" transform="translate(178 29)"/><path fill="url(#b)" d="M106.501 24.235c-27.606 0-50.065 22.996-50.065 51.266 0 28.268 22.459 51.264 50.065 51.264 27.604 0 50.063-22.996 50.063-51.264 0-28.268-22.459-51.266-50.063-51.266zm0 94.15c-23.09 0-41.876-19.238-41.876-42.884s18.785-42.883 41.876-42.883c23.089 0 41.874 19.237 41.874 42.883 0 23.646-18.783 42.883-41.874 42.883z" transform="translate(178 29)"/></g><path fill="url(#c)" d="M127.784 91.521c-2.038-4.768-2.388-8.808-2.443-10.395V68.065c0-9.977-7.99-18.065-17.844-18.065-9.856 0-17.845 8.088-17.845 18.065v13.25c-.077 1.707-.477 5.624-2.436 10.206-2.634 6.158-.454 5.424 1.498 4.917 1.952-.504 6.311-2.482 7.673-.046 1.361 2.435 2.497 4.55 5.675 3.171 3.178-1.378 4.676-1.837 5.13-1.837h.617c.453 0 1.951.46 5.13 1.837 3.178 1.38 4.313-.736 5.675-3.17 1.361-2.437 5.72-.46 7.673.045 1.952.507 4.13 1.24 1.497-4.917m-25.795-31.67c1.922 0 3.48 2.495 3.48 5.575s-1.558 5.576-3.48 5.576-3.48-2.496-3.48-5.576c0-3.08 1.558-5.576 3.48-5.576m5.508 22.287c-4.235 0-7.8-4.22-8.875-8.915 2.075 2.888 5.278 4.744 8.875 4.744 3.596 0 6.8-1.856 8.875-4.744-1.075 4.695-4.64 8.915-8.875 8.915m5.508-11.135c-1.924 0-3.481-2.496-3.481-5.576 0-3.08 1.557-5.576 3.481-5.576 1.923 0 3.48 2.496 3.48 5.576 0 3.08-1.557 5.576-3.48 5.576" transform="translate(178 29)"/></g></svg>