<svg xmlns="http://www.w3.org/2000/svg" width="252.8" height="74.825" viewBox="0 0 252.8 74.825">
  <g id="ghostery-logo" transform="translate(-0.181 -0.515)">
    <path id="Fill-1" d="M49.9,26.419A22.519,22.519,0,1,1,27.382,3.9,22.519,22.519,0,0,1,49.9,26.419" transform="translate(6.313 5.432)" fill="#fffffe"/>
    <path id="Fill-2" d="M64.594,62.136a43.528,43.528,0,0,1-3.778-15.557V27.034C60.816,12.1,48.466,0,33.232,0S5.645,12.1,5.645,27.034V46.862A43.807,43.807,0,0,1,1.88,62.136c-4.071,9.215-.7,8.117,2.316,7.359s9.756-3.715,11.862-.069,3.86,6.809,8.773,4.746,7.229-2.75,7.93-2.75h.954c.7,0,3.017.687,7.929,2.75s6.668-1.1,8.773-4.746,8.843-.686,11.861.069,6.386,1.856,2.315-7.359m-39.877-47.4c2.971,0,5.38,3.735,5.38,8.344s-2.409,8.345-5.38,8.345-5.38-3.736-5.38-8.345,2.409-8.344,5.38-8.344m8.515,33.352c-6.547,0-12.059-6.315-13.72-13.342a16.806,16.806,0,0,0,27.439,0c-1.661,7.027-7.173,13.342-13.719,13.342M41.746,31.43c-2.973,0-5.381-3.736-5.381-8.345s2.408-8.344,5.381-8.344,5.38,3.735,5.38,8.344-2.407,8.345-5.38,8.345" transform="translate(0.181 0.515)" fill="#00aef0"/>
    <path id="Fill-3" d="M41.947,24.031h8.766V36.415c0,6.247-3.188,9.818-9.336,9.818s-9.334-3.571-9.334-9.818V16.109c0-6.249,3.187-9.817,9.334-9.817s9.336,3.569,9.336,9.817V19.9h-5.92V15.718c0-2.788-1.251-3.848-3.244-3.848S38.3,12.93,38.3,15.718V36.805c0,2.789,1.252,3.794,3.245,3.794s3.244-1,3.244-3.794v-7.2H41.947V24.031" transform="translate(40.578 8.447)" fill="#fff"/>
    <path id="Fill-4" d="M48.35,45.537H42.09V6.489H48.35V23.224h7.114V6.489H61.84V45.537H55.464V28.8H48.35V45.537" transform="translate(53.244 8.696)" fill="#fff"/>
    <path id="Fill-5" d="M52.614,16.11c0-6.247,3.359-9.818,9.506-9.818s9.506,3.571,9.506,9.818V36.415c0,6.247-3.357,9.819-9.506,9.819s-9.506-3.571-9.506-9.819Zm6.261,20.7c0,2.789,1.254,3.85,3.245,3.85s3.244-1.061,3.244-3.85V15.719c0-2.789-1.251-3.849-3.244-3.849s-3.245,1.06-3.245,3.849V36.806Z" transform="translate(66.511 8.447)" fill="#fff"/>
    <path id="Fill-6" d="M71.776,6.292C77.867,6.292,81,9.863,81,16.111v1.226h-5.92V15.719c0-2.789-1.14-3.849-3.133-3.849s-3.131,1.06-3.131,3.849c0,8.032,12.239,9.539,12.239,20.7,0,6.249-3.186,9.817-9.335,9.817s-9.335-3.569-9.335-9.817v-2.4H68.3v2.789c0,2.789,1.253,3.793,3.245,3.793s3.243-1,3.243-3.793c0-8.034-12.236-9.54-12.236-20.695,0-6.248,3.13-9.819,9.222-9.819" transform="translate(78.828 8.447)" fill="#fff"/>
    <path id="Fill-7" d="M71.209,6.489H90.561v5.58H84.017V45.537H77.755V12.069H71.209V6.489" transform="translate(89.954 8.696)" fill="#fff"/>
    <path id="Fill-8" d="M87.452,22.945h8.6v5.578h-8.6V39.959H98.268v5.58H81.193V6.489H98.268v5.579H87.452V22.945" transform="translate(102.541 8.696)" fill="#fff"/>
    <path id="Fill-9" d="M103.549,45.537c-.34-1-.569-1.619-.569-4.8V34.6c0-3.626-1.252-4.965-4.1-4.965H96.72v15.9H90.459V6.489h9.449c6.488,0,9.279,2.957,9.279,8.981v3.068c0,4.015-1.311,6.638-4.1,7.92,3.129,1.283,4.154,4.24,4.154,8.312V40.8a11.3,11.3,0,0,0,.682,4.741ZM96.72,12.068V24.06h2.447c2.335,0,3.755-1,3.755-4.128V16.083c0-2.789-.966-4.015-3.184-4.015Z" transform="translate(114.222 8.696)" fill="#fff"/>
    <path id="Fill-10" d="M107.334,32.6,99.422,6.489h6.544l4.786,17.8,4.779-17.8h5.977L113.6,32.6V45.537h-6.262V32.6" transform="translate(125.522 8.696)" fill="#fff"/>
    <path id="Fill-11" d="M112.093,6.479A2.25,2.25,0,0,1,114.4,8.8a2.307,2.307,0,1,1-4.614,0,2.253,2.253,0,0,1,2.31-2.325Zm0,4.194A1.8,1.8,0,0,0,113.92,8.8a1.829,1.829,0,1,0-3.658,0,1.8,1.8,0,0,0,1.831,1.869Zm.33-.482a.84.84,0,0,1-.047-.389V9.5c0-.3-.106-.4-.337-.4h-.172v1.089h-.5V7.413h.766c.52,0,.753.241.753.728V8.2a.616.616,0,0,1-.348.642c.26.1.348.338.348.67v.3a.855.855,0,0,0,.059.382Zm-.556-2.322v.778h.2c.19,0,.307-.078.307-.331V8.2c0-.227-.081-.331-.271-.331Z" transform="translate(138.584 8.683)" fill="#fff"/>
  </g>
</svg>
