<svg xmlns="http://www.w3.org/2000/svg" width="46.5" height="46.5" viewBox="0 0 46.5 46.5">
  <path id="green-check" d="M0-41.25A23.25,23.25,0,0,0-23.25-18,23.25,23.25,0,0,0,0,5.25,23.25,23.25,0,0,0,23.25-18,23.25,23.25,0,0,0,0-41.25Zm0,4.5A18.74,18.74,0,0,1,18.75-18,18.74,18.74,0,0,1,0,.75,18.74,18.74,0,0,1-18.75-18,18.74,18.74,0,0,1,0-36.75ZM13.144-24.538l-2.113-2.13a1.125,1.125,0,0,0-1.591-.006L-3.811-13.528l-5.605-5.651a1.125,1.125,0,0,0-1.591-.007l-2.13,2.113a1.125,1.125,0,0,0-.006,1.591L-4.633-6.9A1.125,1.125,0,0,0-3.042-6.9l16.18-16.05A1.125,1.125,0,0,0,13.144-24.538Z" transform="translate(23.25 41.25)" fill="#43ac3c"/>
</svg>
