<svg xmlns="http://www.w3.org/2000/svg" width="20.515" height="21.312" viewBox="0 0 20.515 21.312">
  <path id="Settings_icon" data-name="Settings icon" d="M9.741-6.39,8.34-7.2a8.454,8.454,0,0,0,.066-1.059A8.178,8.178,0,0,0,8.34-9.3l1.4-.809a1.029,1.029,0,0,0,.475-1.182,10.638,10.638,0,0,0-2.472-4.279,1.031,1.031,0,0,0-1.265-.184l-1.4.808A8.346,8.346,0,0,0,3.26-16v-1.616a1.032,1.032,0,0,0-.794-1,10.732,10.732,0,0,0-4.932,0,1.032,1.032,0,0,0-.794,1V-16a8.346,8.346,0,0,0-1.819,1.052l-1.4-.808a1.031,1.031,0,0,0-1.265.184,10.638,10.638,0,0,0-2.472,4.279,1.029,1.029,0,0,0,.475,1.182l1.4.809a8.454,8.454,0,0,0-.066,1.059A8.178,8.178,0,0,0-8.34-7.2l-1.4.809a1.029,1.029,0,0,0-.475,1.182A10.638,10.638,0,0,0-7.743-.929a1.032,1.032,0,0,0,1.265.184l1.4-.808A8.345,8.345,0,0,0-3.26-.5V1.115a1.032,1.032,0,0,0,.794,1,10.732,10.732,0,0,0,4.932,0,1.032,1.032,0,0,0,.794-1V-.5A8.346,8.346,0,0,0,5.079-1.553l1.4.808A1.031,1.031,0,0,0,7.743-.929a10.638,10.638,0,0,0,2.472-4.279A1.029,1.029,0,0,0,9.741-6.39ZM6.927-2.074,4.937-3.223A7.424,7.424,0,0,1,1.885-1.459v2.3a9.359,9.359,0,0,1-1.892.192A9.224,9.224,0,0,1-1.885.839v-2.3A7.425,7.425,0,0,1-4.937-3.223l-1.99,1.149A9.282,9.282,0,0,1-8.815-5.338l1.991-1.149a7.487,7.487,0,0,1,0-3.527l-1.991-1.149a9.288,9.288,0,0,1,1.888-3.264l1.99,1.15a7.414,7.414,0,0,1,3.052-1.765v-2.3a9.343,9.343,0,0,1,1.892-.193,9.209,9.209,0,0,1,1.878.193v2.3a7.414,7.414,0,0,1,3.052,1.765l1.99-1.15a9.287,9.287,0,0,1,1.888,3.264L6.824-10.013a7.486,7.486,0,0,1,0,3.527L8.815-5.338A9.282,9.282,0,0,1,6.927-2.074ZM0-12.375A4.13,4.13,0,0,0-4.125-8.25,4.13,4.13,0,0,0,0-4.125,4.13,4.13,0,0,0,4.125-8.25,4.13,4.13,0,0,0,0-12.375ZM0-5.5A2.753,2.753,0,0,1-2.75-8.25,2.753,2.753,0,0,1,0-11,2.753,2.753,0,0,1,2.75-8.25,2.753,2.753,0,0,1,0-5.5Z" transform="translate(10.258 18.906)" fill="#aaa"/>
</svg>
