<svg width="96" height="96" viewBox="0 0 96 96" fill="none" xmlns="http://www.w3.org/2000/svg">
	<g clip-path="url(#clip0_1627_22694)">
		<circle cx="48" cy="48" r="44" fill="#DFE3EB" />
		<path fill-rule="evenodd" clip-rule="evenodd" d="M51.1886 39.1132C51.0679 39.5636 50.8227 39.9474 50.4999 40.2374L55.9152 41.6884C56.342 41.8027 56.5952 42.2414 56.4809 42.6682L51.8511 59.9467C51.7368 60.3734 51.2981 60.6267 50.8713 60.5123L36.282 56.6031C35.8552 56.4888 35.602 56.0501 35.7163 55.6233L37.4187 49.2698C36.9872 49.4266 36.505 49.4572 36.0279 49.3293C34.7903 48.9977 34.0558 47.7256 34.3874 46.4879C34.7191 45.2503 35.9912 44.5158 37.2288 44.8475C37.7059 44.9753 38.1083 45.2429 38.4036 45.5944L40.3461 38.3449C40.4604 37.9181 40.8991 37.6648 41.3259 37.7792L46.7411 39.2302C46.6065 38.8177 46.586 38.3627 46.7067 37.9123C47.0383 36.6747 48.3105 35.9402 49.5481 36.2718C50.7858 36.6035 51.5202 37.8756 51.1886 39.1132Z" fill="#00AEF0" />
		<path fill-rule="evenodd" clip-rule="evenodd" d="M46.3219 37.8104C46.7107 36.3594 48.2022 35.4983 49.6532 35.8871C51.1043 36.2759 51.9654 37.7674 51.5766 39.2184C51.4985 39.5099 51.3756 39.7779 51.2175 40.0167L56.0203 41.3036C56.6605 41.4752 57.0404 42.1332 56.8688 42.7733L52.2391 60.0518C52.0676 60.692 51.4095 61.0719 50.7694 60.9003L36.1801 56.9911C35.5399 56.8196 35.16 56.1616 35.3315 55.5214L36.8644 49.8005C36.5573 49.8271 36.2405 49.8016 35.926 49.7173C34.475 49.3285 33.6139 47.8371 34.0027 46.386C34.3915 44.935 35.8829 44.0739 37.334 44.4627C37.6485 44.547 37.9356 44.6833 38.1883 44.8599L39.9613 38.243C40.1328 37.6028 40.7908 37.2229 41.431 37.3944L46.2338 38.6813C46.2162 38.3954 46.2438 38.1019 46.3219 37.8104ZM49.4462 36.6598C48.4219 36.3854 47.3691 36.9932 47.0947 38.0175C46.9947 38.3908 47.0117 38.7667 47.123 39.1078L47.3517 39.8091L41.2239 38.1672C41.0105 38.11 40.7912 38.2366 40.734 38.45L38.5928 46.4412L38.0989 45.8533C37.8546 45.5626 37.5222 45.3414 37.1269 45.2354C36.1026 44.961 35.0498 45.5688 34.7754 46.5931C34.5009 47.6173 35.1088 48.6701 36.133 48.9446C36.5284 49.0505 36.9268 49.0252 37.2837 48.8955L38.0054 48.6333L36.1043 55.7285C36.0471 55.9419 36.1737 56.1612 36.3871 56.2184L50.9764 60.1276C51.1898 60.1848 51.4092 60.0581 51.4663 59.8447L56.0961 42.5663C56.1533 42.3529 56.0266 42.1336 55.8132 42.0764L49.6854 40.4344L50.2342 39.9414C50.5011 39.7016 50.7038 39.3846 50.8038 39.0113C51.0783 37.9871 50.4704 36.9343 49.4462 36.6598Z" fill="#49556E" />
		<path fill-rule="evenodd" clip-rule="evenodd" d="M60.7211 25.9363L59.2843 31.2984C59.6968 31.1638 60.1518 31.1433 60.6021 31.264C61.8398 31.5956 62.5742 32.8678 62.2426 34.1054C61.911 35.343 60.6388 36.0775 59.4012 35.7459C58.9508 35.6252 58.5671 35.38 58.2771 35.0572L56.466 41.8164C56.3516 42.2432 55.913 42.4965 55.4862 42.3821L40.8969 38.4729C40.4701 38.3586 40.2168 37.9199 40.3312 37.4931L42.1424 30.7336C41.7299 30.8681 41.275 30.8886 40.8246 30.7679C39.587 30.4363 38.8525 29.1642 39.1841 27.9265C39.5158 26.6889 40.7879 25.9544 42.0255 26.286C42.4759 26.4067 42.8596 26.6519 43.1496 26.9747L44.6069 21.5359C47.3354 21.1325 50.1913 21.2687 53.0277 22.0287C55.9319 22.8069 58.5269 24.1619 60.7211 25.9363Z" fill="#00AEF0" />
		<path fill-rule="evenodd" clip-rule="evenodd" d="M23.8762 53.5203L35.4059 56.6096C35.8327 56.724 36.2713 56.4707 36.3857 56.044L41.0154 38.7655C41.1298 38.3387 40.8765 37.9001 40.4498 37.7857L37.0742 36.8812C37.397 36.5912 37.6422 36.2075 37.7629 35.7571C38.0945 34.5194 37.36 33.2473 36.1224 32.9157C34.8847 32.5841 33.6126 33.3185 33.281 34.5562C33.1603 35.0066 33.1808 35.4615 33.3154 35.874L29.2433 34.7829C29.0678 35.2813 28.9101 35.7901 28.771 36.3089L24.8568 50.9171C24.6577 51.545 24.3427 52.4393 23.8762 53.5203Z" fill="#00AEF0" />
		<path fill-rule="evenodd" clip-rule="evenodd" d="M68.0152 44.5112L63.9387 43.4189C64.2902 43.1236 64.5578 42.7213 64.6856 42.2442C65.0173 41.0066 64.2828 39.7344 63.0452 39.4028C61.8075 39.0712 60.5354 39.8056 60.2038 41.0433C60.0759 41.5203 60.1065 42.0026 60.2632 42.434L56.9854 41.5558C56.5587 41.4414 56.12 41.6947 56.0057 42.1214L54.2412 48.7063C53.9989 48.5128 53.7135 48.365 53.3948 48.2796C52.1572 47.948 50.885 48.6825 50.5534 49.9201C50.2218 51.1578 50.9563 52.4299 52.1939 52.7615C52.5126 52.8469 52.8336 52.8616 53.1403 52.8152L51.3759 59.3999C51.2615 59.8267 51.5148 60.2653 51.9416 60.3797L63.303 63.424C63.4553 62.1182 63.6549 61.1094 63.8028 60.4684L67.6613 46.0684C67.8002 45.5497 67.918 45.0303 68.0152 44.5112Z" fill="#00AEF0" />
		<path fill-rule="evenodd" clip-rule="evenodd" d="M63.3267 63.2164C63.0593 65.5091 62.9374 68.7173 63.4965 72.4572C64.5982 79.8178 62.5305 78.651 60.5418 77.5286C60.4824 77.4951 60.4231 77.4616 60.3639 77.4284C60.0183 77.2349 59.6079 76.9741 59.1535 76.6853C56.9239 75.2686 53.6368 73.18 51.7703 75.0714C51.7437 75.0984 51.7171 75.1254 51.6905 75.1522C49.9713 76.8935 48.4468 78.4376 46.3889 77.8927L50.9855 60.7378C51.0999 60.311 51.5385 60.0578 51.9653 60.1721L55.6294 61.1539C55.4727 60.7225 55.4421 60.2402 55.5699 59.7632C55.9016 58.5255 57.1737 57.7911 58.4113 58.1227C59.649 58.4543 60.3835 59.7265 60.0518 60.9641C59.924 61.4412 59.6564 61.8435 59.3049 62.1388L63.3267 63.2164Z" fill="#00AEF0" />
		<path fill-rule="evenodd" clip-rule="evenodd" d="M46.3956 77.8871L49.3695 70.1191C49.6648 70.4706 50.0671 70.7382 50.5442 70.866C51.7819 71.1977 53.054 70.4632 53.3856 69.2256C53.7172 67.9879 52.9828 66.7158 51.7451 66.3842C51.2681 66.2563 50.7859 66.2869 50.3544 66.4436L51.8662 60.8014C51.9806 60.3746 51.7273 59.9359 51.3005 59.8216L45.8436 58.3594C46.1951 58.0641 46.4627 57.6618 46.5905 57.1847C46.9221 55.9471 46.1877 54.6749 44.95 54.3433C43.7124 54.0117 42.4402 54.7461 42.1086 55.9838C41.9808 56.4609 42.0114 56.9431 42.1681 57.3745L36.7112 55.9124C36.2844 55.798 35.8458 56.0513 35.7314 56.4781L31.1357 73.6294C31.6919 73.7527 32.3531 73.7691 33.1471 73.6561C37.1196 73.0917 38.9353 73.0354 39.4443 73.1718L40.1368 73.3573C40.6452 73.4935 41.5066 73.9637 44.6644 76.4387C45.3604 76.9844 45.8048 77.7306 46.3956 77.8871Z" fill="#00AEF0" />
		<path fill-rule="evenodd" clip-rule="evenodd" d="M43.7799 36.0889C45.5825 36.5792 46.4182 39.2774 45.646 42.1166C44.874 44.9555 42.7867 46.8597 40.984 46.3694C39.1814 45.8792 38.3457 43.1801 39.1178 40.3412C39.8899 37.502 41.9772 35.5987 43.7799 36.0889ZM43.3585 58.0388C39.3861 56.9585 37.1001 52.1591 37.2696 47.5566C38.4918 50.7482 41.0304 53.276 44.4043 54.1935C47.7778 55.111 51.2468 54.217 53.9173 52.0841C51.7325 56.1384 47.3301 59.1189 43.3585 58.0388ZM49.4494 43.1513C48.6773 45.9902 49.5122 48.6891 51.3162 49.1796C53.1198 49.6702 55.2061 47.7657 55.9782 44.9268C56.7503 42.0876 55.9157 39.3897 54.112 38.8991C52.3081 38.4086 50.2215 40.3121 49.4494 43.1513Z" fill="white" />
		<path fill-rule="evenodd" clip-rule="evenodd" d="M25.7155 78.6515L31.0041 69.1345C31.4368 69.9078 32.2638 70.4306 33.213 70.4306C34.6099 70.4306 35.7423 69.2981 35.7423 67.9012C35.7423 66.5043 34.6099 65.3718 33.213 65.3718C33.1729 65.3718 33.133 65.3728 33.0934 65.3746L34.8412 62.2293C35.2705 61.4569 34.9923 60.4828 34.2198 60.0535L31.3546 58.4613C32.2223 58.0605 32.8244 57.1825 32.8244 56.1639C32.8244 54.767 31.6919 53.6345 30.295 53.6345C28.8981 53.6345 27.7656 54.767 27.7656 56.1639C27.7656 56.2702 27.7722 56.3749 27.7849 56.4777L23.3857 54.0331C21.844 56.0495 19.4881 58.6767 16.191 61.2001C14.0835 62.8128 12.9259 63.9715 12.4067 64.8226L12.269 65.0703C11.4887 66.6366 13.0896 67.0543 14.6501 67.4615C14.7225 67.4804 14.7948 67.4992 14.8668 67.5182C15.2871 67.6293 15.8101 67.7369 16.3891 67.856C19.2313 68.4408 23.4229 69.3033 23.4518 72.2229C23.4522 72.2634 23.4526 72.304 23.453 72.3444C23.48 75.1065 23.5038 77.5481 25.7155 78.6515Z" fill="#00AEF0" />
		<path d="M25.7155 78.6515L25.537 79.0094L25.8793 79.1802L26.0652 78.8458L25.7155 78.6515ZM31.0041 69.1345L31.3532 68.9391L31.0029 68.3131L30.6544 68.9402L31.0041 69.1345ZM33.213 70.4306L33.213 70.8306L33.213 70.4306ZM33.213 65.3718L33.213 65.7718L33.213 65.7718L33.213 65.3718ZM33.0934 65.3746L32.7438 65.1803L32.3952 65.8075L33.112 65.7742L33.0934 65.3746ZM34.8412 62.2293L34.4916 62.035L34.8412 62.2293ZM31.3546 58.4613L31.1868 58.0982L30.4719 58.4285L31.1603 58.811L31.3546 58.4613ZM32.8244 56.1639L33.2244 56.1639L33.2244 56.1639L32.8244 56.1639ZM27.7656 56.1639L27.3656 56.1639L27.7656 56.1639ZM27.7849 56.4777L27.5906 56.8273L28.2785 57.2096L28.1819 56.4286L27.7849 56.4777ZM23.3857 54.0331L23.58 53.6834L23.2779 53.5156L23.0679 53.7901L23.3857 54.0331ZM16.191 61.2001L16.434 61.5178L16.4341 61.5178L16.191 61.2001ZM12.4067 64.8226L12.0652 64.6143L12.061 64.6212L12.057 64.6283L12.4067 64.8226ZM12.269 65.0703L11.9194 64.876L11.915 64.8839L11.911 64.8919L12.269 65.0703ZM14.6501 67.4615L14.5491 67.8485L14.5491 67.8485L14.6501 67.4615ZM14.8668 67.5182L14.969 67.1315L14.9686 67.1314L14.8668 67.5182ZM16.3891 67.856L16.3085 68.2478L16.3085 68.2478L16.3891 67.856ZM23.4518 72.2229L23.0518 72.2268L23.0518 72.2268L23.4518 72.2229ZM23.453 72.3444L23.053 72.3483L23.053 72.3483L23.453 72.3444ZM26.0652 78.8458L31.3537 69.3287L30.6544 68.9402L25.3659 78.4572L26.0652 78.8458ZM30.655 69.3298C31.1555 70.2244 32.1132 70.8306 33.213 70.8306L33.213 70.0306C32.4144 70.0306 31.718 69.5912 31.3532 68.9391L30.655 69.3298ZM33.213 70.8306C34.8308 70.8306 36.1423 69.5191 36.1423 67.9012L35.3423 67.9012C35.3423 69.0772 34.389 70.0306 33.213 70.0306L33.213 70.8306ZM36.1423 67.9012C36.1423 66.2834 34.8308 64.9718 33.213 64.9718L33.213 65.7718C34.389 65.7718 35.3424 66.7252 35.3423 67.9012L36.1423 67.9012ZM33.213 64.9718C33.1667 64.9718 33.1206 64.9729 33.0748 64.975L33.112 65.7742C33.1454 65.7726 33.1791 65.7718 33.213 65.7718L33.213 64.9718ZM33.443 65.5689L35.1909 62.4236L34.4916 62.035L32.7438 65.1803L33.443 65.5689ZM35.1909 62.4236C35.7274 61.4581 35.3796 60.2404 34.4141 59.7039L34.0255 60.4032C34.6049 60.7251 34.8135 61.4557 34.4916 62.035L35.1909 62.4236ZM34.4141 59.7039L31.5489 58.1117L31.1603 58.811L34.0255 60.4032L34.4141 59.7039ZM31.5223 58.8245C32.5264 58.3606 33.2244 57.3442 33.2244 56.1639L32.4244 56.1639C32.4244 57.0208 31.9182 57.7603 31.1868 58.0982L31.5223 58.8245ZM33.2244 56.1639C33.2244 54.5461 31.9129 53.2345 30.295 53.2345L30.295 54.0345C31.471 54.0345 32.4244 54.9879 32.4244 56.1639L33.2244 56.1639ZM30.295 53.2345C28.6771 53.2345 27.3656 54.5461 27.3656 56.1639L28.1656 56.1639C28.1656 54.9879 29.119 54.0345 30.295 54.0345L30.295 53.2345ZM27.3656 56.1639C27.3656 56.2866 27.3732 56.4077 27.3879 56.5268L28.1819 56.4286C28.1712 56.342 28.1656 56.2537 28.1656 56.1639L27.3656 56.1639ZM27.9792 56.128L23.58 53.6834L23.1914 54.3827L27.5906 56.8273L27.9792 56.128ZM23.0679 53.7901C21.5435 55.784 19.2119 58.3844 15.9478 60.8825L16.4341 61.5178C19.7643 58.969 22.1445 56.315 23.7035 54.276L23.0679 53.7901ZM15.9479 60.8825C13.8364 62.4981 12.6261 63.6948 12.0652 64.6143L12.7482 65.0309C13.2257 64.2481 14.3305 63.1274 16.434 61.5178L15.9479 60.8825ZM12.057 64.6283L11.9194 64.876L12.6187 65.2646L12.7563 65.0169L12.057 64.6283ZM11.911 64.8919C11.6898 65.336 11.6095 65.7549 11.7038 66.1421C11.7986 66.5314 12.0523 66.8166 12.3512 67.0274C12.6464 67.2357 13.0107 67.3897 13.3818 67.5153C13.7551 67.6415 14.162 67.7475 14.5491 67.8485L14.7511 67.0744C14.358 66.9719 13.9796 66.873 13.6382 66.7575C13.2946 66.6412 13.0149 66.5166 12.8123 66.3737C12.6135 66.2335 12.5157 66.0951 12.4811 65.9528C12.4459 65.8085 12.4581 65.5878 12.6271 65.2487L11.911 64.8919ZM14.5491 67.8485C14.6216 67.8674 14.6934 67.8862 14.7649 67.905L14.9686 67.1314C14.8961 67.1123 14.8234 67.0933 14.7511 67.0744L14.5491 67.8485ZM14.7645 67.9049C15.198 68.0195 15.7332 68.1295 16.3085 68.2478L16.4697 67.4642C15.887 67.3444 15.3763 67.2391 14.969 67.1315L14.7645 67.9049ZM16.3085 68.2478C17.7402 68.5424 19.4502 68.8963 20.8069 69.5267C22.1693 70.1597 23.0397 71.0042 23.0518 72.2268L23.8518 72.2189C23.835 70.5219 22.5951 69.4754 21.144 68.8011C19.687 68.1242 17.8802 67.7545 16.4697 67.4642L16.3085 68.2478ZM23.0518 72.2268C23.0522 72.2674 23.0526 72.3079 23.053 72.3483L23.853 72.3405C23.8526 72.3 23.8522 72.2595 23.8518 72.2189L23.0518 72.2268ZM23.053 72.3483C23.0664 73.7149 23.0772 75.0699 23.378 76.2211C23.6854 77.3974 24.3038 78.3942 25.537 79.0094L25.8941 78.2936C24.9156 77.8054 24.4162 77.0297 24.152 76.0188C23.8812 74.9828 23.8666 73.7359 23.853 72.3405L23.053 72.3483Z" fill="#49556E" />
		<path d="M28.69 69.2928C25.796 67.7345 22.0114 74.9439 20.5216 73.6938C21.0525 71.5532 22.2169 67.2721 23.33 65.9022C24.837 64.0527 25.9158 61.1929 23.6896 61.0046C20.5901 60.7306 18.8777 63.8643 16.0864 70.56C15.5041 67.94 18.3297 63.6588 18.6208 62.1861C18.6208 62.1861 18.8263 59.7373 16.5658 59.8743C14.3225 60.0113 10.8805 67.2892 10.8805 67.2892C10.8805 67.2892 13.7232 59.7031 10.4181 59.5661C9.03106 59.4976 7.16449 61.5697 5.67466 66.4501C3.80809 72.478 1.34216 81.0745 0.828426 88.9689C0.742804 90.3559 18.929 92.2225 19.9051 91.2978C20.8983 90.3731 20.984 86.0235 22.6622 82.1019C24.3746 78.1633 32.0122 71.0738 28.69 69.2928Z" fill="white" />
		<path d="M17.5244 92.0001C12.6953 92.0001 3.1741 90.75 1.11916 89.791C0.930791 89.7054 0.36568 89.4485 0.399929 88.9348C0.896539 81.2117 3.25972 72.7864 5.26329 66.2962C6.68462 61.7068 8.61969 58.984 10.4691 59.0868C11.137 59.121 11.685 59.4122 12.0275 59.943C12.5926 60.7992 12.5926 62.2035 12.37 63.5734C13.5858 61.5698 15.1784 59.4978 16.5483 59.4122C17.3189 59.3779 17.9354 59.5663 18.3807 60.0286C19.1855 60.8506 19.0828 62.1692 19.0828 62.2206C19.0828 62.2377 19.0828 62.2548 19.0828 62.272C18.98 62.8028 18.6375 63.5563 18.1923 64.4981C17.8327 65.2859 17.4046 66.1935 17.0621 67.1011C19.0485 62.7514 20.8295 60.2855 23.7235 60.5253C24.6825 60.6109 25.0935 61.1075 25.2647 61.5185C25.7784 62.7514 24.8366 64.755 23.6721 66.1763C22.9529 67.0668 22.0111 69.6697 21.0692 73.3344C21.5658 73.1631 22.5248 72.2213 23.1926 71.5534C24.8708 69.8924 26.96 67.8374 28.8951 68.8649C29.4431 69.156 29.7856 69.5841 29.9054 70.1492C30.3164 71.9644 28.2957 74.6872 26.1552 77.5813C24.9222 79.2423 23.6379 80.9719 23.0899 82.2563C22.2508 84.2084 21.8227 86.3148 21.4631 87.993C21.0863 89.7739 20.8295 91.0583 20.2301 91.6234C19.9904 91.8974 18.9629 92.0001 17.5244 92.0001ZM1.34178 88.8663C2.74599 89.9109 18.2437 91.6747 19.665 90.9213C20.0075 90.5959 20.2986 89.2431 20.5897 87.8046C20.9493 86.075 21.3946 83.9345 22.2679 81.8966C22.8673 80.5096 24.1174 78.8142 25.436 77.0333C27.2683 74.5673 29.3403 71.7589 29.0321 70.3547C28.9636 70.0636 28.7924 69.8581 28.4841 69.6869C27.1655 68.9848 25.4188 70.6972 23.8776 72.2213C22.4563 73.6426 21.2062 74.8585 20.2472 74.0365C20.1102 73.9166 20.0589 73.7454 20.0931 73.5741C20.6753 71.2109 21.8398 67.0154 22.9871 65.6112C24.1002 64.2413 24.7338 62.6144 24.4427 61.8952C24.3742 61.724 24.2201 61.5014 23.6721 61.4671C20.9665 61.2274 19.3568 64.0015 16.5483 70.7315C16.4627 70.9198 16.2743 71.0397 16.086 71.0226C15.8805 71.0055 15.7264 70.8513 15.675 70.663C15.2469 68.7279 16.4798 66.0736 17.3874 64.1214C17.7813 63.2823 18.1238 62.5459 18.2094 62.135C18.2094 61.9808 18.2265 61.1589 17.7642 60.6965C17.5073 60.4396 17.1477 60.3198 16.6511 60.354C15.2126 60.4396 12.6439 64.7893 11.3596 67.4949C11.2569 67.7175 10.9829 67.8203 10.7603 67.7175C10.5376 67.6148 10.4178 67.3579 10.5034 67.1353C11.0171 65.7482 12.1816 61.8267 11.2911 60.4739C11.1027 60.1999 10.8459 60.0458 10.452 60.0286C10.4349 60.0286 10.4178 60.0286 10.4178 60.0286C9.30467 60.0286 7.5751 62.0493 6.17089 66.5873C4.16732 72.9748 1.85551 81.2802 1.34178 88.8663Z" fill="#9BA3B4" />
		<path d="M23.9432 61.8096C23.5836 62.7172 22.4876 63.0425 21.6827 62.5117C21.1861 62.1863 20.7751 63.0254 21.2717 63.3508C22.4876 64.1385 24.2514 63.5563 24.7823 62.2205C25.0049 61.6726 24.1658 61.2616 23.9432 61.8096Z" fill="#9BA3B4" />
		<path d="M10.554 60.6635C10.5882 61.5198 9.74912 61.965 9.02989 61.554C8.51615 61.2629 8.10516 62.0849 8.6189 62.3931C9.97174 63.1637 11.5472 62.1191 11.4787 60.6122C11.4616 60.0128 10.5197 60.0642 10.554 60.6635Z" fill="#9BA3B4" />
		<path d="M18.0221 61.3135C17.8338 60.7484 16.9604 61.0566 17.1488 61.6217C17.4228 62.478 16.498 63.2314 15.7274 62.7006C15.248 62.3581 14.6315 63.0431 15.111 63.4027C15.7959 63.8822 16.7207 63.9678 17.4056 63.4369C18.0564 62.9232 18.2619 62.067 18.0221 61.3135Z" fill="#9BA3B4" />
		<path d="M28.176 72.2378C26.9602 72.255 26.9259 70.4911 28.1417 70.4911C28.7411 70.4911 28.7582 69.5664 28.1589 69.5664C27.1828 69.5664 26.2752 70.337 26.258 71.3645C26.2409 72.3748 27.1656 73.1797 28.1417 73.1797C28.7411 73.1625 28.7754 72.2207 28.176 72.2378Z" fill="#9BA3B4" />
		<path d="M11.1354 65.9368C10.4675 67.067 10.0223 68.3 9.83392 69.6015C9.7483 70.1837 10.6388 70.4406 10.7244 69.8412C10.9128 68.6082 11.3066 67.478 11.9402 66.3992C12.2485 65.8854 11.4436 65.4231 11.1354 65.9368Z" fill="#9BA3B4" />
		<path d="M34.768 12.1448C26.954 3.15999 15.1624 0.933393 5.42847 0.567157C4.98186 0.547628 4.54252 0.622463 4.14466 0.857015C3.74597 1.09205 3.42943 1.46358 3.18784 1.96718C2.71536 2.95206 2.49387 4.51836 2.52482 6.86007C2.53636 7.73343 2.51229 8.58591 2.4891 9.40714C2.48164 9.67143 2.47427 9.93249 2.46821 10.19C2.44357 11.2362 2.44038 12.2272 2.55192 13.0816C2.66288 13.9317 2.89427 14.7088 3.38808 15.281C3.8986 15.8727 4.63452 16.1837 5.61367 16.2057L34.768 12.1448ZM34.768 12.1448C36.7341 14.4055 37.5924 16.4584 37.6692 18.2942M34.768 12.1448L37.6692 18.2942M37.6692 18.2942C37.7462 20.1346 37.0348 21.6886 35.9966 22.941M37.6692 18.2942L35.9966 22.941M35.9966 22.941C34.9625 24.1886 33.5946 25.1505 32.3143 25.832M35.9966 22.941L32.3143 25.832M32.3143 25.832C31.0365 26.5121 29.8124 26.9304 29.0411 27.0706M32.3143 25.832L29.0411 27.0706M29.0411 27.0706C27.5083 27.3493 26.0459 27.4124 24.8921 27.1022M29.0411 27.0706L24.8921 27.1022M24.8921 27.1022C23.8316 26.8171 22.9999 26.2018 22.6648 25.1533M24.8921 27.1022L22.6648 25.1533M22.6648 25.1533C22.6193 25.1522 22.5706 25.1504 22.5191 25.1477C22.2074 25.1308 21.781 25.0767 21.3344 24.9239C20.4846 24.633 19.5656 23.9794 19.2474 22.6136C19.137 22.5885 19.0036 22.5542 18.8561 22.5085C18.458 22.385 17.9304 22.1696 17.4782 21.8023C17.0182 21.4287 16.6254 20.8871 16.549 20.1341C16.4874 19.528 16.6361 18.8326 17.0463 18.0337C16.8304 17.9879 16.5621 17.9315 16.2516 17.8673C15.3924 17.6895 14.2105 17.4517 12.9194 17.2115C10.3237 16.7286 7.33001 16.2445 5.61371 16.2057L22.6648 25.1533Z" fill="white" stroke="#9BA3B4" stroke-width="0.9" />
		<path fill-rule="evenodd" clip-rule="evenodd" d="M28.5524 9.6477L35.6185 15.9186C35.6124 15.8492 35.6093 15.779 35.6093 15.708C35.6093 14.3825 36.6839 13.308 38.0093 13.308C39.3348 13.308 40.4093 14.3825 40.4093 15.708C40.4093 17.0084 39.375 18.0673 38.0841 18.1068L41.5634 21.1947C42.2244 21.7812 42.2847 22.7925 41.6981 23.4534L39.8175 25.5725C39.4527 24.7122 38.6003 24.1088 37.607 24.1088C36.2815 24.1088 35.207 25.1833 35.207 26.5088C35.207 27.6028 35.939 28.5258 36.9399 28.8148L33.7322 32.4293C27.7879 26.2773 25.9908 17.4473 28.5524 9.6477Z" fill="#00AEF0" />
		<path d="M28.5524 9.6477L28.8179 9.34852C28.7172 9.2591 28.5782 9.22641 28.4481 9.26154C28.3181 9.29666 28.2144 9.3949 28.1724 9.52289L28.5524 9.6477ZM35.6185 15.9186L35.3529 16.2178C35.4754 16.3265 35.6518 16.3496 35.7981 16.276C35.9444 16.2024 36.0311 16.0471 36.017 15.884L35.6185 15.9186ZM35.6093 15.708L36.0093 15.708L36.0093 15.708L35.6093 15.708ZM40.4093 15.708L40.8093 15.708L40.4093 15.708ZM38.0841 18.1068L38.0719 17.707C37.9081 17.712 37.7639 17.8165 37.708 17.9706C37.6522 18.1247 37.696 18.2972 37.8186 18.406L38.0841 18.1068ZM41.5634 21.1947L41.829 20.8955L41.5634 21.1947ZM39.8175 25.5725L39.4492 25.7286C39.5028 25.855 39.6174 25.945 39.7528 25.9672C39.8882 25.9894 40.0256 25.9406 40.1167 25.838L39.8175 25.5725ZM37.607 24.1088L37.607 23.7088L37.607 24.1088ZM35.207 26.5088L35.607 26.5088L35.207 26.5088ZM36.9399 28.8148L37.2391 29.0804C37.3302 28.9777 37.3623 28.8354 37.3242 28.7036C37.286 28.5717 37.1828 28.4686 37.0509 28.4305L36.9399 28.8148ZM33.7322 32.4293L33.4445 32.7073C33.5219 32.7874 33.6293 32.8316 33.7407 32.8292C33.852 32.8269 33.9574 32.7782 34.0313 32.6948L33.7322 32.4293ZM28.2869 9.94687L35.3529 16.2178L35.884 15.6195L28.8179 9.34852L28.2869 9.94687ZM36.017 15.884C36.0119 15.8261 36.0093 15.7674 36.0093 15.708L35.2093 15.708C35.2093 15.7905 35.2129 15.8724 35.22 15.9533L36.017 15.884ZM36.0093 15.708C36.0093 14.6034 36.9048 13.708 38.0093 13.708L38.0093 12.908C36.4629 12.908 35.2093 14.1616 35.2093 15.708L36.0093 15.708ZM38.0093 13.708C39.1139 13.708 40.0093 14.6034 40.0093 15.708L40.8093 15.708C40.8093 14.1616 39.5557 12.908 38.0093 12.908L38.0093 13.708ZM40.0093 15.708C40.0093 16.7916 39.1474 17.6741 38.0719 17.707L38.0963 18.5066C39.6026 18.4606 40.8093 17.2253 40.8093 15.708L40.0093 15.708ZM37.8186 18.406L41.2979 21.4938L41.829 20.8955L38.3496 17.8077L37.8186 18.406ZM41.2979 21.4938C41.7936 21.9338 41.8388 22.6922 41.3989 23.1879L41.9973 23.7189C42.7305 22.8928 42.6551 21.6287 41.829 20.8955L41.2979 21.4938ZM41.3989 23.1879L39.5183 25.3069L40.1167 25.838L41.9973 23.7189L41.3989 23.1879ZM40.1857 25.4163C39.7604 24.4134 38.7665 23.7088 37.607 23.7088L37.607 24.5088C38.4341 24.5088 39.1449 25.0109 39.4492 25.7286L40.1857 25.4163ZM37.607 23.7088C36.0606 23.7088 34.807 24.9624 34.807 26.5088L35.607 26.5088C35.607 25.4042 36.5024 24.5088 37.607 24.5088L37.607 23.7088ZM34.807 26.5088C34.807 27.7857 35.6615 28.862 36.829 29.1991L37.0509 28.4305C36.2166 28.1896 35.607 27.4199 35.607 26.5088L34.807 26.5088ZM36.6408 28.5493L33.433 32.1638L34.0313 32.6948L37.2391 29.0804L36.6408 28.5493ZM28.1724 9.52289C25.5661 17.4586 27.3936 26.4449 33.4445 32.7073L34.0198 32.1514C28.1822 26.1097 26.4156 17.436 28.9325 9.77251L28.1724 9.52289Z" fill="#49556E" />
		<path d="M22.8975 24.3904C23.1474 23.3432 23.9838 22.5047 25.0304 22.2661C25.5048 22.1539 25.7151 22.8794 25.2406 22.9917C24.4313 23.1741 23.8179 23.7751 23.6235 24.5849C23.5124 25.0596 22.7724 24.8651 22.8975 24.3904Z" fill="#9BA3B4" />
		<path d="M24.1659 12.7022C32.1998 19.3919 33.501 21.8887 31.4927 23.1753C29.4983 24.4619 22.8764 19.6408 17.0085 15.0699C11.1406 10.4991 24.1659 12.7022 24.1659 12.7022Z" fill="white" />
		<path d="M25.1146 12.0601C26.4704 13.6077 27.8123 15.1693 29.1681 16.7169C29.4896 17.0794 28.9599 17.6244 28.6384 17.2619C27.2826 15.7143 25.9407 14.1527 24.5849 12.6051C24.2773 12.2286 24.7931 11.6836 25.1146 12.0601Z" fill="#9BA3B4" />
		<path d="M16.9117 15.1819C19.7055 16.979 22.5133 18.79 25.307 20.5871C25.7121 20.8518 25.35 21.5083 24.931 21.2436C22.1372 19.4465 19.3295 17.6355 16.5357 15.8384C16.1306 15.5737 16.4927 14.9173 16.9117 15.1819Z" fill="#9BA3B4" />
		<path d="M28.7541 19.3688C28.9909 18.9497 29.6474 19.3118 29.4106 19.7448C28.7421 20.946 30.0558 22.2424 31.2413 21.5431C31.6597 21.2913 32.0514 21.9469 31.6329 22.1847C30.824 22.6602 29.7631 22.5917 29.0783 21.9226C28.4075 21.2535 28.3085 20.1789 28.7541 19.3688Z" fill="#9BA3B4" />
		<path d="M19.516 21.9361C19.9334 20.819 20.7698 19.9805 21.8999 19.5743C22.3603 19.4063 22.5705 20.1318 22.1101 20.2999C21.2591 20.608 20.562 21.2788 20.2421 22.1306C20.0751 22.5775 19.3491 22.3969 19.516 21.9361Z" fill="#9BA3B4" />
		<path d="M17.2383 17.7798C17.7403 17.3465 18.3121 17.0387 18.968 16.8983C19.4424 16.8 19.6527 17.5255 19.1783 17.6238C18.662 17.7361 18.1877 17.9461 17.7833 18.3095C17.4069 18.617 16.8619 18.1013 17.2383 17.7798Z" fill="#9BA3B4" />
		<path d="M29.402 32.0702C28.3978 31.8142 27.3739 31.56 26.3697 31.304C25.9033 31.1876 26.0144 30.4442 26.4808 30.5606C27.485 30.8166 28.5089 31.0708 29.5132 31.3269C29.9885 31.4325 29.8773 32.1759 29.402 32.0702Z" fill="white" />
		<path d="M30.1404 34.6485C29.2895 35.1021 28.4476 35.5449 27.586 35.9895C27.1606 36.2162 26.8982 35.5066 27.3236 35.2799C28.1745 34.8263 29.0164 34.3835 29.878 33.9389C30.3034 33.7122 30.5658 34.4218 30.1404 34.6485Z" fill="white" />
		<path d="M90.5803 6.15113C85.0095 6.3676 80.0613 6.86821 75.3926 8.60692L68.5285 34.9978L68.4485 35.4407C68.4485 35.4407 68.4485 35.4407 68.4485 35.4407C70.2024 35.7574 71.8676 35.8258 73.1761 35.4723C74.3902 35.1442 75.3299 34.4376 75.695 33.2335C75.7595 33.2325 75.8306 33.2303 75.9072 33.226C76.2604 33.2065 76.7428 33.1446 77.2472 32.9713C78.2127 32.6395 79.2548 31.8942 79.6028 30.327C79.7351 30.2977 79.9011 30.256 80.0867 30.1982C80.5388 30.0574 81.1344 29.8129 81.6433 29.3985C82.1599 28.9778 82.5979 28.3713 82.6822 27.5293C82.7523 26.8303 82.5733 26.0197 82.0739 25.0782C82.1465 25.0624 82.2252 25.0455 82.3095 25.0277C82.8339 24.9165 83.5754 24.7671 84.442 24.6147C86.1792 24.3092 88.4031 23.9948 90.3859 23.9476C91.4943 23.9213 92.318 23.5689 92.8876 22.9072C93.4405 22.2649 93.7023 21.3889 93.8277 20.4192C93.9536 19.4451 93.9487 18.3136 93.919 17.1142C93.9117 16.8197 93.9029 16.5208 93.894 16.2181C93.8662 15.2764 93.8373 14.2972 93.8493 13.2945C93.8815 10.6115 93.6248 8.82944 93.0888 7.71566C92.8154 7.14762 92.46 6.73338 92.0163 6.47256C91.5735 6.21223 91.0831 6.12849 90.5803 6.15113Z" fill="white" stroke="#9BA3B4" stroke-width="0.9" />
		<path fill-rule="evenodd" clip-rule="evenodd" d="M71.467 38.4588H65.8448C65.9471 38.1921 66.0031 37.9025 66.0031 37.5998C66.0031 36.2743 64.9286 35.1998 63.6031 35.1998C62.2776 35.1998 61.2031 36.2743 61.2031 37.5998C61.2031 37.9025 61.2592 38.1921 61.3614 38.4588H58.0023C57.1187 38.4588 56.4023 37.7425 56.4023 36.8588V31.0636C56.6532 31.1525 56.9233 31.2009 57.2047 31.2009C58.5302 31.2009 59.6047 30.1264 59.6047 28.8009C59.6047 27.4755 58.5302 26.4009 57.2047 26.4009C56.9233 26.4009 56.6532 26.4494 56.4023 26.5383V17.2012C64.7537 20.9136 70.7358 28.955 71.467 38.4588Z" fill="#00AEF0" />
		<path d="M71.467 38.4588V38.8588H71.899L71.8658 38.4281L71.467 38.4588ZM65.8448 38.4588L65.4713 38.3156L65.263 38.8588H65.8448V38.4588ZM61.3614 38.4588V38.8588H61.9432L61.7349 38.3156L61.3614 38.4588ZM56.4023 31.0636L56.536 30.6866L56.0023 30.4973V31.0636H56.4023ZM56.4023 26.5383H56.0023V27.1046L56.536 26.9153L56.4023 26.5383ZM56.4023 17.2012L56.5648 16.8357L56.0023 16.5856V17.2012H56.4023ZM71.467 38.0588H65.8448V38.8588H71.467V38.0588ZM66.2183 38.602C66.3378 38.2903 66.4031 37.9522 66.4031 37.5998H65.6031C65.6031 37.8528 65.5563 38.0939 65.4713 38.3156L66.2183 38.602ZM66.4031 37.5998C66.4031 36.0534 65.1495 34.7998 63.6031 34.7998V35.5998C64.7077 35.5998 65.6031 36.4952 65.6031 37.5998H66.4031ZM63.6031 34.7998C62.0567 34.7998 60.8031 36.0534 60.8031 37.5998H61.6031C61.6031 36.4952 62.4986 35.5998 63.6031 35.5998V34.7998ZM60.8031 37.5998C60.8031 37.9522 60.8684 38.2903 60.988 38.602L61.7349 38.3156C61.6499 38.0939 61.6031 37.8528 61.6031 37.5998H60.8031ZM61.3614 38.0588H58.0023V38.8588H61.3614V38.0588ZM58.0023 38.0588C57.3396 38.0588 56.8023 37.5216 56.8023 36.8588H56.0023C56.0023 37.9634 56.8978 38.8588 58.0023 38.8588V38.0588ZM56.8023 36.8588V31.0636H56.0023V36.8588H56.8023ZM56.2687 31.4406C56.5619 31.5445 56.8771 31.6009 57.2047 31.6009V30.8009C56.9695 30.8009 56.7446 30.7605 56.536 30.6866L56.2687 31.4406ZM57.2047 31.6009C58.7511 31.6009 60.0047 30.3473 60.0047 28.8009H59.2047C59.2047 29.9055 58.3093 30.8009 57.2047 30.8009V31.6009ZM60.0047 28.8009C60.0047 27.2546 58.7511 26.0009 57.2047 26.0009V26.8009C58.3093 26.8009 59.2047 27.6964 59.2047 28.8009H60.0047ZM57.2047 26.0009C56.8771 26.0009 56.5619 26.0574 56.2687 26.1613L56.536 26.9153C56.7446 26.8414 56.9695 26.8009 57.2047 26.8009V26.0009ZM56.8023 26.5383V17.2012H56.0023V26.5383H56.8023ZM71.8658 38.4281C71.123 28.7727 65.0458 20.6057 56.5648 16.8357L56.2399 17.5667C64.4617 21.2215 70.3487 29.1373 71.0682 38.4895L71.8658 38.4281Z" fill="#49556E" />
		<path d="M75.4759 32.422C75.1879 31.222 74.2278 30.2619 73.0278 29.9899C72.4837 29.8619 72.2437 30.6939 72.7877 30.822C73.7158 31.03 74.4198 31.718 74.6438 32.6461C74.7719 33.1901 75.6199 32.9661 75.4759 32.422Z" fill="#9BA3B4" />
		<path d="M74.0007 19.0286C64.8002 26.709 63.3121 29.5732 65.6162 31.0453C67.9043 32.5174 75.4888 26.9811 82.2092 21.7328C88.9295 16.4845 74.0007 19.0286 74.0007 19.0286Z" fill="white" />
		<path d="M72.9106 18.2923C71.3586 20.0684 69.8225 21.8605 68.2704 23.6366C67.9024 24.0526 68.5104 24.6767 68.8784 24.2607C70.4305 22.4846 71.9666 20.6925 73.5187 18.9164C73.8707 18.4843 73.2787 17.8603 72.9106 18.2923Z" fill="#9BA3B4" />
		<path d="M82.3226 21.8601C79.1224 23.9242 75.9062 26.0043 72.7061 28.0684C72.242 28.3724 72.6581 29.1245 73.1381 28.8205C76.3383 26.7563 79.5544 24.6762 82.7546 22.6121C83.2186 22.3081 82.8026 21.556 82.3226 21.8601Z" fill="#9BA3B4" />
		<path d="M68.7518 26.6773C68.4798 26.1972 67.7278 26.6133 67.9998 27.1093C68.7678 28.4854 67.2638 29.9734 65.9037 29.1734C65.4237 28.8854 64.9756 29.6374 65.4557 29.9094C66.3837 30.4535 67.5998 30.3735 68.3838 29.6054C69.1519 28.8374 69.2639 27.6053 68.7518 26.6773Z" fill="#9BA3B4" />
		<path d="M79.3462 29.6058C78.8662 28.3257 77.9061 27.3656 76.61 26.9016C76.082 26.7096 75.842 27.5416 76.37 27.7337C77.3461 28.0857 78.1461 28.8537 78.5142 29.8298C78.7062 30.3418 79.5382 30.1338 79.3462 29.6058Z" fill="#9BA3B4" />
		<path d="M81.9533 24.8368C81.3772 24.3407 80.7212 23.9887 79.9692 23.8287C79.4251 23.7167 79.1851 24.5487 79.7291 24.6608C80.3212 24.7888 80.8652 25.0288 81.3292 25.4448C81.7613 25.7968 82.3853 25.2048 81.9533 24.8368Z" fill="#9BA3B4" />
		<path d="M73.8965 39.4025C75.0663 39.6098 76.2558 39.8284 77.4257 40.0357C77.9678 40.1346 78.2031 39.3057 77.661 39.2068C76.4912 38.9994 75.3017 38.7809 74.1318 38.5736C73.5855 38.4592 73.3501 39.2881 73.8965 39.4025Z" fill="white" />
		<path d="M71.9071 41.746C72.5813 42.6219 73.2513 43.4824 73.9409 44.354C74.278 44.792 74.8875 44.1749 74.5504 43.737C73.8761 42.8611 73.2062 42.0006 72.5165 41.129C72.1794 40.691 71.57 41.3081 71.9071 41.746Z" fill="white" />
	</g>
	<defs>
		<clipPath id="clip0_1627_22694">
			<rect width="96" height="96" fill="white" />
		</clipPath>
	</defs>
</svg>
