<svg width="128" height="128" viewBox="0 0 128 128" fill="none" xmlns="http://www.w3.org/2000/svg">
	<path d="M16 16L112 112" stroke="#9BA3B4" stroke-width="4" stroke-linecap="round" stroke-linejoin="round" />
	<path d="M113.166 49.25H68.3332M14.833 49.25H47.5M105.113 106.642C101.957 108.25 97.8273 108.25 89.5664 108.25H38.433C30.1722 108.25 26.0418 108.25 22.8867 106.642C20.1112 105.228 17.8548 102.972 16.4407 100.196C14.833 97.041 14.833 92.911 14.833 84.65V43.35C14.833 35.0892 14.833 30.9588 16.4407 27.8036C17.5187 25.6879 19.0862 23.8737 21 22.5044M37.5 19.75H89.5664C97.8273 19.75 101.957 19.75 105.113 21.3577C107.888 22.7718 110.145 25.0282 111.559 27.8036C113.166 30.9589 113.166 35.0892 113.166 43.35V84.65C113.166 86.2467 113.166 89.6891 113.155 91" stroke="#9BA3B4" stroke-width="4" stroke-linecap="round" stroke-linejoin="round" />
</svg>
