<svg width="160" height="160" viewBox="0 0 160 160" fill="none" xmlns="http://www.w3.org/2000/svg">
	<circle cx="79.9994" cy="80.0013" r="73.3333" fill="#DFE3EB" />
	<path d="M58.4676 30.0626L58.4702 30.0618C66.364 27.9608 74.8564 26.0312 80.0002 26.0312C85.1364 26.0312 93.6364 27.9608 101.53 30.0618L101.533 30.0625C108.601 31.9712 115.622 34.0477 122.592 36.2903M58.4676 30.0626L122.363 37.0045M58.4676 30.0626C51.4003 31.9712 44.3787 34.0476 37.409 36.29M58.4676 30.0626L37.6371 37.0045M122.592 36.2903C122.593 36.2904 122.593 36.2904 122.593 36.2905L122.363 37.0045M122.592 36.2903C122.592 36.2903 122.592 36.2902 122.592 36.2902L122.363 37.0045M122.592 36.2903C126.866 37.658 130.09 41.3628 130.714 45.9361L130.715 45.9366C135.091 78.1797 124.938 102.105 112.61 117.945M122.363 37.0045C126.368 38.2862 129.387 41.7575 129.971 46.0375C134.318 78.0576 124.237 101.785 112.017 117.486M112.61 117.945C112.61 117.944 112.611 117.944 112.611 117.944L112.017 117.486M112.61 117.945C112.61 117.945 112.61 117.946 112.609 117.946L112.017 117.486M112.61 117.945C107.357 124.742 101.121 130.709 94.1081 135.646M112.017 117.486C106.81 124.224 100.628 130.139 93.6763 135.033M93.6763 135.033L94.1083 135.646C94.1082 135.646 94.1081 135.646 94.1081 135.646M93.6763 135.033C91.2593 136.736 88.7042 138.231 86.038 139.504C83.99 140.45 81.8055 141.22 80.0002 141.22C78.195 141.22 76.0104 140.45 73.9624 139.504C71.2957 138.232 68.7406 136.737 66.3242 135.033M93.6763 135.033L94.1081 135.646M94.1081 135.646C91.6567 137.373 89.0652 138.89 86.361 140.181L86.3526 140.185L86.3525 140.185C84.2904 141.137 81.9793 141.97 80.0002 141.97C78.0211 141.97 75.71 141.137 73.6479 140.185L73.6397 140.181C70.9347 138.891 68.3429 137.374 65.892 135.646M65.892 135.646C65.8921 135.646 65.8922 135.646 65.8922 135.646L66.3242 135.033M65.892 135.646L66.3242 135.033M65.892 135.646C58.8825 130.708 52.6486 124.741 47.3979 117.945M66.3242 135.033C59.3757 130.138 53.1959 124.223 47.9908 117.486M47.9908 117.486L47.3992 117.947C47.3988 117.946 47.3984 117.946 47.3979 117.945M47.9908 117.486C35.7559 101.785 25.6828 78.0576 30.0291 46.0375C30.3197 43.9629 31.1885 42.0135 32.5349 40.4149C33.8813 38.8163 35.6503 37.6338 37.6371 37.0045M47.9908 117.486L47.3973 117.944C47.3975 117.944 47.3977 117.945 47.3979 117.945M47.3979 117.945C35.0553 102.105 24.9094 78.1796 29.286 45.9366L29.2864 45.9335C29.5965 43.7194 30.5237 41.6385 31.9613 39.9317C33.3985 38.2253 35.2871 36.9625 37.409 36.29M37.409 36.29C37.4084 36.2902 37.4079 36.2903 37.4074 36.2905L37.6371 37.0045M37.409 36.29C37.4095 36.2898 37.41 36.2897 37.4106 36.2895L37.6371 37.0045" fill="#F0F2F7" stroke="#9BA3B4" stroke-width="1.5" />
	<path d="M60.976 35.8464L60.9786 35.8457C67.9415 33.9737 75.4469 32.25 80.0002 32.25C84.5468 32.25 92.0589 33.9737 99.0218 35.8457L99.0244 35.8464C105.262 37.548 111.459 39.3993 117.611 41.3986M60.976 35.8464L117.379 42.112M60.976 35.8464C54.7387 37.548 48.5419 39.3991 42.3907 41.3982M60.976 35.8464L42.6209 42.112M117.611 41.3986C117.611 41.3986 117.611 41.3987 117.611 41.3987L117.379 42.112M117.611 41.3986C117.611 41.3985 117.61 41.3984 117.61 41.3984L117.379 42.112M117.611 41.3986C121.415 42.6288 124.281 45.9585 124.836 50.0628L124.836 50.0633C128.7 78.8241 119.734 100.169 108.845 114.302M117.379 42.112C120.913 43.2544 123.577 46.3484 124.092 50.1632C127.927 78.7028 119.033 99.8508 108.25 113.845M108.845 114.302C108.845 114.302 108.846 114.301 108.846 114.301L108.25 113.845M108.845 114.302C108.845 114.302 108.845 114.303 108.845 114.303L108.25 113.845M108.845 114.302C104.205 120.367 98.6964 125.691 92.502 130.096M108.25 113.845C103.656 119.851 98.2008 125.123 92.0673 129.485M92.0673 129.485L92.5022 130.096C92.5021 130.096 92.5021 130.096 92.502 130.096M92.0673 129.485C89.9346 131.003 87.6801 132.336 85.3277 133.47C83.5206 134.313 81.5931 135 80.0002 135C78.4073 135 76.4798 134.313 74.6727 133.47C72.3198 132.337 70.0652 131.004 67.9331 129.485M92.0673 129.485L92.502 130.096M92.502 130.096C90.335 131.639 88.044 132.993 85.6533 134.146L85.6448 134.15L85.6448 134.15C83.8238 134.999 81.7686 135.75 80.0002 135.75C78.2318 135.75 76.1766 134.999 74.3556 134.15L74.3473 134.146C71.956 132.994 69.6649 131.64 67.4983 130.096M67.4983 130.096L67.9331 129.485M67.4983 130.096C67.4982 130.096 67.4981 130.096 67.498 130.096L67.9331 129.485M67.4983 130.096C61.3064 125.69 55.8 120.366 51.1622 114.302M67.9331 129.485C61.8021 125.122 56.3494 119.85 51.7566 113.845M51.7566 113.845L51.1628 114.303C51.1626 114.303 51.1624 114.303 51.1622 114.302M51.7566 113.845C40.9611 99.8508 32.0731 78.7028 35.9081 50.1632C36.1645 48.3141 36.931 46.5765 38.119 45.1517C39.307 43.7269 40.8679 42.673 42.6209 42.112M51.7566 113.845L51.1609 114.301C51.1613 114.301 51.1617 114.302 51.1622 114.302M51.1622 114.302C40.2596 100.169 31.3001 78.8239 35.1648 50.0633L35.1652 50.0602L35.1652 50.0602C35.4407 48.0731 36.2646 46.2047 37.543 44.6714C38.8211 43.1385 40.5015 42.0031 42.3907 41.3982M42.3907 41.3982C42.3902 41.3984 42.3897 41.3986 42.3891 41.3987L42.6209 42.112M42.3907 41.3982C42.3913 41.398 42.3918 41.3979 42.3924 41.3977L42.6209 42.112" fill="white" stroke="#9BA3B4" stroke-width="1.5" />
	<g clip-path="url(#clip0_1585_22092)">
		<rect x="46" y="43" width="67.9998" height="67.9998" rx="33.9999" fill="#DFE3EB" />
		<path fill-rule="evenodd" clip-rule="evenodd" d="M97.7109 75.1385C97.7109 85.2025 89.5524 93.361 79.4884 93.361C69.4244 93.361 61.2659 85.2025 61.2659 75.1385C61.2659 65.0745 69.4244 56.916 79.4884 56.916C89.5524 56.916 97.7109 65.0745 97.7109 75.1385Z" fill="white" />
		<path fill-rule="evenodd" clip-rule="evenodd" d="M103.557 102.424C101.139 96.8629 100.722 92.1512 100.658 90.2999V75.0681C100.658 63.4321 91.1778 54 79.4847 54C67.7902 54 58.3101 63.4321 58.3101 75.0681V90.5201C58.2198 92.5118 57.7446 97.0795 55.4197 102.424C52.2948 109.605 54.8809 108.749 57.1974 108.158C59.5135 107.57 64.6861 105.263 66.3021 108.105C67.9174 110.945 69.2649 113.411 73.0359 111.803C76.8072 110.195 78.5842 109.659 79.1227 109.659H79.8551C80.3929 109.659 82.1706 110.195 85.9416 111.803C89.7125 113.411 91.0594 110.945 92.6757 108.105C94.291 105.263 99.4633 107.57 101.78 108.158C104.097 108.749 106.681 109.605 103.557 102.424ZM72.9486 65.4884C75.2292 65.4884 77.0779 68.3992 77.0779 71.9911C77.0779 75.5827 75.2292 78.4945 72.9486 78.4945C70.668 78.4945 68.8189 75.5827 68.8189 71.9911C68.8189 68.3992 70.668 65.4884 72.9486 65.4884ZM79.4823 91.4803C74.4568 91.4803 70.2263 86.559 68.9515 81.083C71.4137 84.4511 75.214 86.6156 79.4823 86.6156C83.7503 86.6156 87.5503 84.4511 90.0129 81.083C88.7381 86.559 84.5069 91.4803 79.4823 91.4803ZM86.0213 78.4934C83.7391 78.4934 81.8909 75.5816 81.8909 71.99C81.8909 68.3981 83.7391 65.4873 86.0213 65.4873C88.3032 65.4873 90.1507 68.3981 90.1507 71.99C90.1507 75.5816 88.3032 78.4934 86.0213 78.4934Z" fill="#00AEF0" />
	</g>
	<rect x="46.75" y="43.75" width="66.4998" height="66.4998" rx="33.2499" stroke="#9BA3B4" stroke-width="1.5" />
	<defs>
		<clipPath id="clip0_1585_22092">
			<rect x="46" y="43" width="67.9998" height="67.9998" rx="33.9999" fill="white" />
		</clipPath>
	</defs>
</svg>
