<svg width="120" height="80" viewBox="0 0 120 80" fill="none" xmlns="http://www.w3.org/2000/svg">
	<g clip-path="url(#clip0_1156_24761)">
		<rect width="120" height="80" fill="white" />
		<rect width="144" height="24" transform="translate(-24 31)" fill="#E4EBF2" />
		<g clip-path="url(#clip1_1156_24761)">
			<rect width="144" height="31" transform="translate(-24.0002)" fill="#8FA1B2" />
			<rect x="-14.2454" y="7.31641" width="21.6432" height="8.53533" rx="4.26766" fill="#8FA1B3" />
			<rect x="30.0538" y="8.63603" width="228.48" height="14.2538" rx="7.12691" stroke="#B8C2CC" stroke-width="0.83846" />
			<rect x="35.9225" y="14.5059" width="61.6268" height="2.51538" rx="1.25769" fill="#E4EBF2" />
		</g>
		<g clip-path="url(#clip2_1156_24761)">
			<rect width="144" height="24" transform="translate(-24 31)" fill="#E4EBF2" />
		</g>
		<rect x="10" y="59" width="110" height="34" rx="1.829" fill="#8FA1B3" />
		<g clip-path="url(#clip3_1156_24761)">
			<rect width="144" height="31" transform="translate(-24.0002)" fill="#8FA1B2" />
			<rect x="-14.2454" y="7.31641" width="21.6432" height="8.53533" rx="4.26766" fill="#8FA1B3" />
			<rect x="30.0538" y="8.63603" width="228.48" height="14.2538" rx="7.12691" stroke="#B8C2CC" stroke-width="0.83846" />
			<rect x="35.9225" y="14.5059" width="61.6268" height="2.51538" rx="1.25769" fill="#E4EBF2" />
		</g>
		<rect opacity="0.5" width="120" height="80" fill="#04192D" />
		<path fill-rule="evenodd" clip-rule="evenodd" d="M20.1842 15.1387C20.1842 16.8646 18.7851 18.2637 17.0592 18.2637C15.3333 18.2637 13.9342 16.8646 13.9342 15.1387C13.9342 13.4128 15.3333 12.0137 17.0592 12.0137C18.7851 12.0137 20.1842 13.4128 20.1842 15.1387Z" fill="#495D6F" />
		<path fill-rule="evenodd" clip-rule="evenodd" d="M21.1868 19.0679C20.7721 18.1143 20.7007 17.3063 20.6895 16.9888V14.3767C20.6895 12.3812 19.0638 10.7637 17.0586 10.7637C15.0531 10.7637 13.4273 12.3812 13.4273 14.3767V17.0266C13.4118 17.3681 13.3303 18.1514 12.9316 19.0679C12.3957 20.2994 12.8392 20.1526 13.2365 20.0513C13.6337 19.9504 14.5208 19.5549 14.7979 20.0421C15.0749 20.5292 15.306 20.9521 15.9527 20.6763C16.5994 20.4007 16.9042 20.3088 16.9965 20.3088H17.1221C17.2143 20.3088 17.5192 20.4007 18.1659 20.6763C18.8126 20.9521 19.0435 20.5292 19.3207 20.0421C19.5977 19.5549 20.4847 19.9504 20.882 20.0513C21.2793 20.1526 21.7226 20.2994 21.1868 19.0679ZM15.9378 12.7338C16.3289 12.7338 16.6459 13.2329 16.6459 13.8489C16.6459 14.4648 16.3289 14.9642 15.9378 14.9642C15.5467 14.9642 15.2296 14.4648 15.2296 13.8489C15.2296 13.2329 15.5467 12.7338 15.9378 12.7338ZM17.0586 17.1911C16.1967 17.1911 15.4712 16.3472 15.2526 15.4081C15.6749 15.9857 16.3266 16.3569 17.0586 16.3569C17.7905 16.3569 18.4422 15.9857 18.8645 15.4081C18.6458 16.3472 17.9202 17.1911 17.0586 17.1911ZM18.1794 14.9642C17.788 14.9642 17.471 14.4648 17.471 13.8489C17.471 13.2329 17.788 12.7338 18.1794 12.7338C18.5707 12.7338 18.8875 13.2329 18.8875 13.8489C18.8875 14.4648 18.5707 14.9642 18.1794 14.9642Z" fill="white" />
		<rect x="9.72268" y="8.42641" width="14.6731" height="14.6731" rx="3.2498" stroke="white" stroke-width="0.41923" />
		<rect x="8.64784" y="7.35194" width="16.822" height="16.822" rx="4.32427" stroke="white" stroke-opacity="0.2" stroke-width="1.72971" />
		<path opacity="0.3" d="M20 24.5L27.5 19L56 30L19 38L20 24.5Z" fill="white" />
		<rect x="19.6846" y="18.6846" width="8.63085" height="8.63085" rx="1.00618" fill="white" />
		<rect x="19.6846" y="18.6846" width="8.63085" height="8.63085" rx="1.00618" stroke="#495D6F" stroke-width="0.630853" />
		<rect x="19" y="30" width="40" height="40" rx="4" fill="white" />
		<path d="M24.2226 59.5V57.0333L30.7668 50.6179C31.3927 49.9859 31.9143 49.4245 32.3315 48.9336C32.7488 48.4427 33.0617 47.9671 33.2704 47.5069C33.479 47.0467 33.5833 46.5558 33.5833 46.0342C33.5833 45.439 33.4483 44.9297 33.1783 44.5063C32.9083 44.0768 32.5371 43.7454 32.0646 43.5123C31.5921 43.2791 31.0552 43.1625 30.4539 43.1625C29.8341 43.1625 29.2911 43.2914 28.8247 43.5491C28.3584 43.8007 27.9964 44.1596 27.7386 44.626C27.4871 45.0923 27.3613 45.6477 27.3613 46.2919H24.1122C24.1122 45.0954 24.3852 44.0553 24.9314 43.1717C25.4775 42.2881 26.2291 41.6039 27.1864 41.1192C28.1498 40.6344 29.2543 40.392 30.4999 40.392C31.764 40.392 32.8746 40.6283 33.8318 41.1008C34.7891 41.5733 35.5315 42.2206 36.0593 43.0429C36.5931 43.8651 36.86 44.8039 36.86 45.8593C36.86 46.565 36.725 47.2584 36.455 47.9395C36.185 48.6206 35.7095 49.3754 35.0284 50.2037C34.3534 51.0321 33.4054 52.0354 32.1843 53.2135L28.9352 56.5178V56.6467H37.1454V59.5H24.2226ZM47.224 59.7577C46.322 59.7516 45.4414 59.5951 44.5824 59.2883C43.7233 58.9754 42.9501 58.4691 42.2629 57.7696C41.5756 57.064 41.0295 56.1282 40.6245 54.9623C40.2196 53.7903 40.0201 52.3391 40.0263 50.6087C40.0263 48.9949 40.1981 47.556 40.5417 46.2919C40.8853 45.0279 41.3793 43.9602 42.0236 43.0889C42.6679 42.2114 43.4441 41.5426 44.3523 41.0824C45.2665 40.6222 46.2882 40.392 47.4173 40.392C48.6015 40.392 49.6508 40.6252 50.5651 41.0916C51.4855 41.5579 52.228 42.1961 52.7925 43.006C53.357 43.8099 53.7068 44.718 53.8418 45.7305H50.4823C50.3104 45.0064 49.9576 44.4296 49.4238 44.0001C48.8961 43.5644 48.2272 43.3466 47.4173 43.3466C46.1103 43.3466 45.1039 43.9142 44.3983 45.0494C43.6988 46.1846 43.3459 47.7431 43.3398 49.7251H43.4686C43.7693 49.1851 44.159 48.7219 44.6376 48.3353C45.1162 47.9487 45.6562 47.6511 46.2575 47.4425C46.865 47.2277 47.5062 47.1203 48.1812 47.1203C49.2857 47.1203 50.2767 47.3842 51.1542 47.9119C52.0378 48.4396 52.7373 49.1667 53.2527 50.0933C53.7682 51.0137 54.0228 52.0691 54.0167 53.2595C54.0228 54.499 53.7406 55.6128 53.1699 56.6007C52.5992 57.5825 51.8046 58.3556 50.786 58.9201C49.7674 59.4847 48.5801 59.7639 47.224 59.7577ZM47.2056 56.9965C47.8744 56.9965 48.4727 56.8338 49.0004 56.5086C49.5281 56.1834 49.9453 55.7447 50.2522 55.1924C50.559 54.6402 50.7093 54.0204 50.7032 53.3332C50.7093 52.6582 50.562 52.0477 50.2614 51.5015C49.9668 50.9554 49.5588 50.5228 49.0372 50.2037C48.5156 49.8847 47.9204 49.7251 47.2516 49.7251C46.7546 49.7251 46.2913 49.8202 45.8617 50.0105C45.4322 50.2007 45.0579 50.4645 44.7388 50.802C44.4197 51.1334 44.1682 51.5199 43.9841 51.9617C43.8061 52.3974 43.7141 52.8638 43.708 53.3608C43.7141 54.0174 43.8675 54.6218 44.1682 55.174C44.4688 55.7263 44.883 56.1681 45.4107 56.4994C45.9384 56.8308 46.5367 56.9965 47.2056 56.9965Z" fill="#202C44" />
		<rect x="62.5" y="30.5" width="39" height="39" rx="3.5" fill="#00AEF0" />
		<path fill-rule="evenodd" clip-rule="evenodd" d="M88.25 48.75C88.25 52.2018 85.4518 55 82 55C78.5482 55 75.75 52.2018 75.75 48.75C75.75 45.2982 78.5482 42.5 82 42.5C85.4518 42.5 88.25 45.2982 88.25 48.75Z" fill="#00AEF0" />
		<path fill-rule="evenodd" clip-rule="evenodd" d="M90.2552 56.6085C89.4258 54.7013 89.2829 53.0852 89.2607 52.4503V47.226C89.2607 43.235 86.0093 40 81.9987 40C77.9877 40 74.7362 43.235 74.7362 47.226V52.5258C74.7052 53.2089 74.5423 54.7755 73.7449 56.6085C72.6731 59.0715 73.5601 58.7779 74.3546 58.5753C75.149 58.3735 76.9231 57.5824 77.4773 58.5569C78.0314 59.531 78.4935 60.3769 79.7869 59.8254C81.0804 59.274 81.6899 59.0902 81.8746 59.0902H82.1258C82.3102 59.0902 82.92 59.274 84.2133 59.8254C85.5067 60.3769 85.9687 59.531 86.523 58.5569C87.0771 57.5824 88.8511 58.3735 89.6457 58.5753C90.4402 58.7779 91.3268 59.0715 90.2552 56.6085ZM79.7572 43.9402C80.5394 43.9402 81.1735 44.9386 81.1735 46.1706C81.1735 47.4024 80.5394 48.4011 79.7572 48.4011C78.975 48.4011 78.3407 47.4024 78.3407 46.1706C78.3407 44.9386 78.975 43.9402 79.7572 43.9402ZM81.9987 52.855C80.275 52.855 78.8241 51.167 78.3868 49.2889C79.2313 50.4441 80.5348 51.1864 81.9987 51.1864C83.4626 51.1864 84.7659 50.4441 85.6105 49.2889C85.1733 51.167 83.7221 52.855 81.9987 52.855ZM84.2403 48.4011C83.4575 48.4011 82.8237 47.4024 82.8237 46.1706C82.8237 44.9386 83.4575 43.9402 84.2403 43.9402C85.0229 43.9402 85.6566 44.9386 85.6566 46.1706C85.6566 47.4024 85.0229 48.4011 84.2403 48.4011Z" fill="white" />
		<rect x="62.5" y="30.5" width="39" height="39" rx="3.5" stroke="white" />
	</g>
	<defs>
		<clipPath id="clip0_1156_24761">
			<rect width="120" height="80" fill="white" />
		</clipPath>
		<clipPath id="clip1_1156_24761">
			<rect width="144" height="31" fill="white" transform="translate(-24.0002)" />
		</clipPath>
		<clipPath id="clip2_1156_24761">
			<rect width="144" height="24" fill="white" transform="translate(-24 31)" />
		</clipPath>
		<clipPath id="clip3_1156_24761">
			<rect width="144" height="31" fill="white" transform="translate(-24.0002)" />
		</clipPath>
	</defs>
</svg>
