<svg width="1200" height="800" viewBox="0 0 1200 800" fill="none" xmlns="http://www.w3.org/2000/svg">
	<g clip-path="url(#clip0_1156_25046)">
		<rect width="1200" height="800" fill="white" />
		<rect width="1200" height="79" transform="translate(0 103)" fill="#E4EBF2" />
		<rect x="110" y="142" width="120" height="20" rx="10" fill="#8FA1B3" />
		<rect x="697" y="149" width="68" height="6" rx="3" fill="#8FA1B3" />
		<rect x="769" y="149" width="46" height="6" rx="3" fill="#8FA1B3" />
		<rect opacity="0.5" x="831" y="146" width="1" height="12" rx="0.5" fill="#8FA1B3" />
		<rect x="848" y="149" width="44" height="6" rx="3" fill="#8FA1B3" />
		<rect x="896" y="149" width="56" height="6" rx="3" fill="#8FA1B3" />
		<rect x="980" y="149" width="44" height="6" rx="3" fill="#8FA1B3" />
		<rect x="968.5" y="134.5" width="67" height="35" rx="7.5" stroke="#B8C2CC" />
		<rect x="1064" y="145" width="14" height="14" rx="7" fill="#8FA1B3" />
		<rect x="1052.5" y="134.5" width="37" height="35" rx="7.5" stroke="#B8C2CC" />
		<rect x="110" y="114" width="68" height="6" rx="3" fill="#8FA1B3" />
		<rect x="182" y="114" width="46" height="6" rx="3" fill="#8FA1B3" />
		<rect x="232" y="114" width="33" height="6" rx="3" fill="#8FA1B3" />
		<rect opacity="0.5" x="281" y="111" width="1" height="12" rx="0.5" fill="#8FA1B3" />
		<rect x="298" y="114" width="36" height="6" rx="3" fill="#8FA1B3" />
		<rect x="338" y="114" width="68" height="6" rx="3" fill="#8FA1B3" />
		<rect x="410" y="114" width="33" height="6" rx="3" fill="#8FA1B3" />
		<rect opacity="0.5" x="459" y="111" width="1" height="12" rx="0.5" fill="#8FA1B3" />
		<rect x="476" y="114" width="33" height="6" rx="3" fill="#8FA1B3" />
		<rect x="513" y="114" width="68" height="6" rx="3" fill="#8FA1B3" />
		<rect opacity="0.5" x="597" y="111" width="1" height="12" rx="0.5" fill="#8FA1B3" />
		<rect x="614" y="114" width="68" height="6" rx="3" fill="#8FA1B3" />
		<rect x="686" y="114" width="90" height="6" rx="3" fill="#8FA1B3" />
		<rect x="780" y="114" width="46" height="6" rx="3" fill="#8FA1B3" />
		<rect x="830" y="114" width="33" height="6" rx="3" fill="#8FA1B3" />
		<rect x="110" y="194" width="980" height="111" rx="6" fill="#8FA1B3" />
		<path d="M587.12 264.046L598.114 253.052C598.774 252.392 599.104 252.062 599.485 251.939C599.82 251.83 600.18 251.83 600.515 251.939C600.895 252.062 601.226 252.392 601.886 253.052L612.806 263.973M603.333 254.5L608.114 249.719C608.774 249.059 609.104 248.729 609.485 248.605C609.82 248.496 610.18 248.496 610.515 248.605C610.895 248.729 611.226 249.059 611.886 249.719L616.667 254.5M596.667 244.5C596.667 246.341 595.174 247.833 593.333 247.833C591.492 247.833 590 246.341 590 244.5C590 242.659 591.492 241.167 593.333 241.167C595.174 241.167 596.667 242.659 596.667 244.5ZM591.333 264.5H608.667C611.467 264.5 612.867 264.5 613.937 263.955C614.877 263.476 615.642 262.711 616.122 261.77C616.667 260.7 616.667 259.3 616.667 256.5V242.5C616.667 239.7 616.667 238.3 616.122 237.23C615.642 236.289 614.877 235.524 613.937 235.045C612.867 234.5 611.467 234.5 608.667 234.5H591.333C588.533 234.5 587.133 234.5 586.063 235.045C585.122 235.524 584.358 236.289 583.878 237.23C583.333 238.3 583.333 239.7 583.333 242.5V256.5C583.333 259.3 583.333 260.7 583.878 261.77C584.358 262.711 585.122 263.476 586.063 263.955C587.133 264.5 588.533 264.5 591.333 264.5Z" stroke="white" stroke-width="2" stroke-linecap="round" stroke-linejoin="round" />
		<rect x="110" y="317" width="181" height="197" rx="8" fill="#E4EBF2" />
		<rect x="167" y="345" width="66" height="6" rx="3" fill="#8FA1B3" />
		<rect x="126.5" y="333.5" width="147" height="29" rx="7.5" stroke="#B8C2CC" />
		<rect x="150" y="379" width="124" height="6" rx="3" fill="#8FA1B3" />
		<rect x="150" y="389" width="92" height="6" rx="3" fill="#8FA1B3" />
		<rect x="126" y="379" width="16" height="16" rx="3" fill="#8FA1B3" />
		<rect x="126" y="407" width="149" height="1" fill="#E4EBF2" />
		<rect x="150" y="424" width="124" height="6" rx="3" fill="#8FA1B3" />
		<rect x="150" y="434" width="92" height="6" rx="3" fill="#8FA1B3" />
		<rect x="126" y="424" width="16" height="16" rx="3" fill="#8FA1B3" />
		<rect x="126" y="452" width="149" height="1" fill="#E4EBF2" />
		<rect x="150" y="469" width="124" height="6" rx="3" fill="#8FA1B3" />
		<rect x="150" y="479" width="92" height="6" rx="3" fill="#8FA1B3" />
		<rect x="126" y="469" width="16" height="16" rx="3" fill="#8FA1B3" />
		<rect x="110" y="526" width="180" height="349" rx="8" fill="#E4EBF2" />
		<rect x="150" y="595" width="124" height="6" rx="3" fill="#8FA1B3" />
		<rect x="150" y="605" width="92" height="6" rx="3" fill="#8FA1B3" />
		<rect x="126" y="595" width="16" height="16" rx="3" fill="#8FA1B3" />
		<rect x="126" y="623" width="149" height="1" fill="#E4EBF2" />
		<rect x="150" y="640" width="124" height="6" rx="3" fill="#8FA1B3" />
		<rect x="150" y="650" width="92" height="6" rx="3" fill="#8FA1B3" />
		<rect x="126" y="640" width="16" height="16" rx="3" fill="#8FA1B3" />
		<rect x="126" y="668" width="149" height="1" fill="#E4EBF2" />
		<rect x="150" y="685" width="124" height="6" rx="3" fill="#8FA1B3" />
		<rect x="150" y="695" width="92" height="6" rx="3" fill="#8FA1B3" />
		<rect x="126" y="685" width="16" height="16" rx="3" fill="#8FA1B3" />
		<rect x="126" y="713" width="149" height="1" fill="#E4EBF2" />
		<rect x="150" y="730" width="124" height="6" rx="3" fill="#8FA1B3" />
		<rect x="150" y="740" width="92" height="6" rx="3" fill="#8FA1B3" />
		<rect x="126" y="730" width="16" height="16" rx="3" fill="#8FA1B3" />
		<rect x="126" y="758" width="149" height="1" fill="#E4EBF2" />
		<rect x="150" y="775" width="124" height="6" rx="3" fill="#8FA1B3" />
		<rect x="150" y="785" width="92" height="6" rx="3" fill="#8FA1B3" />
		<rect x="126" y="775" width="16" height="16" rx="3" fill="#8FA1B3" />
		<rect x="126" y="550" width="112" height="12" rx="6" fill="#8FA1B3" />
		<rect x="126" y="578" width="149" height="1" fill="#E4EBF2" />
		<rect x="860" y="317" width="230" height="235" rx="8" fill="#E4EBF2" />
		<rect x="876" y="333" width="112" height="12" rx="6" fill="#8FA1B3" />
		<rect x="876" y="361" width="198" height="1" fill="#E4EBF2" />
		<circle cx="879" cy="381" r="3" fill="#8FA1B3" />
		<rect x="890" y="378" width="177" height="6" rx="3" fill="#8FA1B3" />
		<rect x="890" y="388" width="137" height="6" rx="3" fill="#8FA1B3" />
		<circle cx="879" cy="413" r="3" fill="#8FA1B3" />
		<rect x="890" y="410" width="175" height="6" rx="3" fill="#8FA1B3" />
		<circle cx="879" cy="435" r="3" fill="#8FA1B3" />
		<rect x="890" y="432" width="158" height="6" rx="3" fill="#8FA1B3" />
		<circle cx="879" cy="457" r="3" fill="#8FA1B3" />
		<rect x="890" y="454" width="184" height="6" rx="3" fill="#8FA1B3" />
		<rect x="890" y="464" width="137" height="6" rx="3" fill="#8FA1B3" />
		<circle cx="879" cy="489" r="3" fill="#8FA1B3" />
		<rect x="890" y="486" width="95" height="6" rx="3" fill="#8FA1B3" />
		<circle cx="879" cy="511" r="3" fill="#8FA1B3" />
		<rect x="890" y="508" width="132" height="6" rx="3" fill="#8FA1B3" />
		<circle cx="879" cy="533" r="3" fill="#8FA1B3" />
		<rect x="890" y="530" width="130" height="6" rx="3" fill="#8FA1B3" />
		<rect x="860" y="564" width="230" height="178" rx="8" fill="#E4EBF2" />
		<rect x="868" y="576" width="63" height="12" rx="6" fill="#8FA1B3" />
		<rect x="868" y="596" width="214" height="134" rx="6" fill="#8FA1B3" />
		<path d="M962.12 677.546L973.114 666.552C973.774 665.892 974.104 665.562 974.485 665.439C974.82 665.33 975.18 665.33 975.515 665.439C975.895 665.562 976.226 665.892 976.886 666.552L987.806 677.473M978.333 668L983.114 663.219C983.774 662.559 984.104 662.229 984.485 662.105C984.82 661.996 985.18 661.996 985.515 662.105C985.895 662.229 986.226 662.559 986.886 663.219L991.667 668M971.667 658C971.667 659.841 970.174 661.333 968.333 661.333C966.492 661.333 965 659.841 965 658C965 656.159 966.492 654.667 968.333 654.667C970.174 654.667 971.667 656.159 971.667 658ZM966.333 678H983.667C986.467 678 987.867 678 988.937 677.455C989.877 676.976 990.642 676.211 991.122 675.27C991.667 674.2 991.667 672.8 991.667 670V656C991.667 653.2 991.667 651.8 991.122 650.73C990.642 649.789 989.877 649.024 988.937 648.545C987.867 648 986.467 648 983.667 648H966.333C963.533 648 962.133 648 961.063 648.545C960.122 649.024 959.358 649.789 958.878 650.73C958.333 651.8 958.333 653.2 958.333 656V670C958.333 672.8 958.333 674.2 958.878 675.27C959.358 676.211 960.122 676.976 961.063 677.455C962.133 678 963.533 678 966.333 678Z" stroke="white" stroke-width="2" stroke-linecap="round" stroke-linejoin="round" />
		<rect x="860" y="754" width="230" height="178" rx="8" fill="#E4EBF2" />
		<rect x="868" y="766" width="63" height="12" rx="6" fill="#8FA1B3" />
		<rect x="868" y="786" width="214" height="134" rx="6" fill="#8FA1B3" />
		<rect x="306" y="317" width="538" height="306" rx="8" fill="#E4EBF2" />
		<rect x="322" y="333" width="506" height="186" rx="6" fill="#8FA1B3" />
		<path d="M562.12 440.546L573.114 429.552C573.774 428.892 574.104 428.562 574.485 428.439C574.82 428.33 575.18 428.33 575.515 428.439C575.895 428.562 576.226 428.892 576.886 429.552L587.806 440.473M578.333 431L583.114 426.219C583.774 425.559 584.104 425.229 584.485 425.105C584.82 424.996 585.18 424.996 585.515 425.105C585.895 425.229 586.226 425.559 586.886 426.219L591.667 431M571.667 421C571.667 422.841 570.174 424.333 568.333 424.333C566.492 424.333 565 422.841 565 421C565 419.159 566.492 417.667 568.333 417.667C570.174 417.667 571.667 419.159 571.667 421ZM566.333 441H583.667C586.467 441 587.867 441 588.937 440.455C589.877 439.976 590.642 439.211 591.122 438.27C591.667 437.2 591.667 435.8 591.667 433V419C591.667 416.2 591.667 414.8 591.122 413.73C590.642 412.789 589.877 412.024 588.937 411.545C587.867 411 586.467 411 583.667 411H566.333C563.533 411 562.133 411 561.063 411.545C560.122 412.024 559.358 412.789 558.878 413.73C558.333 414.8 558.333 416.2 558.333 419V433C558.333 435.8 558.333 437.2 558.878 438.27C559.358 439.211 560.122 439.976 561.063 440.455C562.133 441 563.533 441 566.333 441Z" stroke="white" stroke-width="2" stroke-linecap="round" stroke-linejoin="round" />
		<rect x="322" y="543" width="229" height="12" rx="6" fill="#8FA1B3" />
		<rect x="322" y="567" width="418" height="8" rx="3" fill="#8FA1B3" />
		<rect x="322" y="581" width="418" height="8" rx="3" fill="#8FA1B3" />
		<rect x="322" y="601" width="29" height="6" rx="3" fill="#E4EBF2" />
		<rect x="306" y="635" width="538" height="106" rx="8" fill="#E4EBF2" />
		<rect x="314" y="643" width="120" height="90" rx="6" fill="#8FA1B3" />
		<path d="M361.12 702.546L372.114 691.552C372.774 690.892 373.105 690.562 373.485 690.439C373.82 690.33 374.18 690.33 374.515 690.439C374.896 690.562 375.226 690.892 375.886 691.552L386.807 702.473M377.333 693L382.114 688.219C382.774 687.559 383.105 687.229 383.485 687.105C383.82 686.996 384.18 686.996 384.515 687.105C384.896 687.229 385.226 687.559 385.886 688.219L390.667 693M370.667 683C370.667 684.841 369.174 686.333 367.333 686.333C365.492 686.333 364 684.841 364 683C364 681.159 365.492 679.667 367.333 679.667C369.174 679.667 370.667 681.159 370.667 683ZM365.333 703H382.667C385.467 703 386.867 703 387.937 702.455C388.878 701.976 389.642 701.211 390.122 700.27C390.667 699.2 390.667 697.8 390.667 695V681C390.667 678.2 390.667 676.8 390.122 675.73C389.642 674.789 388.878 674.024 387.937 673.545C386.867 673 385.467 673 382.667 673H365.333C362.533 673 361.133 673 360.063 673.545C359.123 674.024 358.358 674.789 357.878 675.73C357.333 676.8 357.333 678.2 357.333 681V695C357.333 697.8 357.333 699.2 357.878 700.27C358.358 701.211 359.123 701.976 360.063 702.455C361.133 703 362.533 703 365.333 703Z" stroke="white" stroke-width="2" stroke-linecap="round" stroke-linejoin="round" />
		<rect x="450" y="646" width="229" height="12" rx="6" fill="#8FA1B3" />
		<rect x="450" y="674" width="371" height="6" rx="3" fill="#8FA1B3" />
		<rect x="450" y="688" width="379" height="6" rx="3" fill="#8FA1B3" />
		<rect x="450" y="702" width="304" height="6" rx="3" fill="#8FA1B3" />
		<rect x="450" y="724" width="29" height="6" rx="3" fill="#E4EBF2" />
		<rect x="306" y="753" width="128.5" height="160" rx="8" fill="#E4EBF2" />
		<rect x="312" y="759" width="116.5" height="80" rx="6" fill="#8FA1B3" />
		<path d="M357.37 813.546L368.364 802.552C369.024 801.892 369.355 801.562 369.735 801.439C370.07 801.33 370.43 801.33 370.765 801.439C371.146 801.562 371.476 801.892 372.136 802.552L383.057 813.473M373.583 804L378.364 799.219C379.024 798.559 379.355 798.229 379.735 798.105C380.07 797.996 380.43 797.996 380.765 798.105C381.146 798.229 381.476 798.559 382.136 799.219L386.917 804M366.917 794C366.917 795.841 365.424 797.333 363.583 797.333C361.742 797.333 360.25 795.841 360.25 794C360.25 792.159 361.742 790.667 363.583 790.667C365.424 790.667 366.917 792.159 366.917 794ZM361.583 814H378.917C381.717 814 383.117 814 384.187 813.455C385.128 812.976 385.892 812.211 386.372 811.27C386.917 810.2 386.917 808.8 386.917 806V792C386.917 789.2 386.917 787.8 386.372 786.73C385.892 785.789 385.128 785.024 384.187 784.545C383.117 784 381.717 784 378.917 784H361.583C358.783 784 357.383 784 356.313 784.545C355.373 785.024 354.608 785.789 354.128 786.73C353.583 787.8 353.583 789.2 353.583 792V806C353.583 808.8 353.583 810.2 354.128 811.27C354.608 812.211 355.373 812.976 356.313 813.455C357.383 814 358.783 814 361.583 814Z" stroke="white" stroke-width="2" stroke-linecap="round" stroke-linejoin="round" />
		<rect x="442.5" y="753" width="128.5" height="160" rx="8" fill="#E4EBF2" />
		<rect x="448.5" y="759" width="116.5" height="80" rx="6" fill="#8FA1B3" />
		<path d="M493.87 813.546L504.864 802.552C505.524 801.892 505.854 801.562 506.235 801.439C506.57 801.33 506.93 801.33 507.265 801.439C507.645 801.562 507.976 801.892 508.636 802.552L519.556 813.473M510.083 804L514.864 799.219C515.524 798.559 515.854 798.229 516.235 798.105C516.57 797.996 516.93 797.996 517.265 798.105C517.645 798.229 517.976 798.559 518.636 799.219L523.417 804M503.417 794C503.417 795.841 501.924 797.333 500.083 797.333C498.242 797.333 496.75 795.841 496.75 794C496.75 792.159 498.242 790.667 500.083 790.667C501.924 790.667 503.417 792.159 503.417 794ZM498.083 814H515.417C518.217 814 519.617 814 520.687 813.455C521.627 812.976 522.392 812.211 522.872 811.27C523.417 810.2 523.417 808.8 523.417 806V792C523.417 789.2 523.417 787.8 522.872 786.73C522.392 785.789 521.627 785.024 520.687 784.545C519.617 784 518.217 784 515.417 784H498.083C495.283 784 493.883 784 492.813 784.545C491.872 785.024 491.108 785.789 490.628 786.73C490.083 787.8 490.083 789.2 490.083 792V806C490.083 808.8 490.083 810.2 490.628 811.27C491.108 812.211 491.872 812.976 492.813 813.455C493.883 814 495.283 814 498.083 814Z" stroke="white" stroke-width="2" stroke-linecap="round" stroke-linejoin="round" />
		<rect x="579" y="753" width="128.5" height="160" rx="8" fill="#E4EBF2" />
		<rect x="585" y="759" width="116.5" height="80" rx="6" fill="#8FA1B3" />
		<path d="M630.37 813.546L641.364 802.552C642.024 801.892 642.354 801.562 642.735 801.439C643.07 801.33 643.43 801.33 643.765 801.439C644.145 801.562 644.476 801.892 645.136 802.552L656.056 813.473M646.583 804L651.364 799.219C652.024 798.559 652.354 798.229 652.735 798.105C653.07 797.996 653.43 797.996 653.765 798.105C654.145 798.229 654.476 798.559 655.136 799.219L659.917 804M639.917 794C639.917 795.841 638.424 797.333 636.583 797.333C634.742 797.333 633.25 795.841 633.25 794C633.25 792.159 634.742 790.667 636.583 790.667C638.424 790.667 639.917 792.159 639.917 794ZM634.583 814H651.917C654.717 814 656.117 814 657.187 813.455C658.127 812.976 658.892 812.211 659.372 811.27C659.917 810.2 659.917 808.8 659.917 806V792C659.917 789.2 659.917 787.8 659.372 786.73C658.892 785.789 658.127 785.024 657.187 784.545C656.117 784 654.717 784 651.917 784H634.583C631.783 784 630.383 784 629.313 784.545C628.372 785.024 627.608 785.789 627.128 786.73C626.583 787.8 626.583 789.2 626.583 792V806C626.583 808.8 626.583 810.2 627.128 811.27C627.608 812.211 628.372 812.976 629.313 813.455C630.383 814 631.783 814 634.583 814Z" stroke="white" stroke-width="2" stroke-linecap="round" stroke-linejoin="round" />
		<rect x="715.5" y="753" width="128.5" height="160" rx="8" fill="#E4EBF2" />
		<rect x="721.5" y="759" width="116.5" height="80" rx="6" fill="#8FA1B3" />
		<path d="M766.87 813.546L777.864 802.552C778.524 801.892 778.854 801.562 779.235 801.439C779.57 801.33 779.93 801.33 780.265 801.439C780.645 801.562 780.976 801.892 781.636 802.552L792.556 813.473M783.083 804L787.864 799.219C788.524 798.559 788.854 798.229 789.235 798.105C789.57 797.996 789.93 797.996 790.265 798.105C790.645 798.229 790.976 798.559 791.636 799.219L796.417 804M776.417 794C776.417 795.841 774.924 797.333 773.083 797.333C771.242 797.333 769.75 795.841 769.75 794C769.75 792.159 771.242 790.667 773.083 790.667C774.924 790.667 776.417 792.159 776.417 794ZM771.083 814H788.417C791.217 814 792.617 814 793.687 813.455C794.627 812.976 795.392 812.211 795.872 811.27C796.417 810.2 796.417 808.8 796.417 806V792C796.417 789.2 796.417 787.8 795.872 786.73C795.392 785.789 794.627 785.024 793.687 784.545C792.617 784 791.217 784 788.417 784H771.083C768.283 784 766.883 784 765.813 784.545C764.872 785.024 764.108 785.789 763.628 786.73C763.083 787.8 763.083 789.2 763.083 792V806C763.083 808.8 763.083 810.2 763.628 811.27C764.108 812.211 764.872 812.976 765.813 813.455C766.883 814 768.283 814 771.083 814Z" stroke="white" stroke-width="2" stroke-linecap="round" stroke-linejoin="round" />
		<rect width="1200" height="103" fill="#8FA1B2" />
		<rect x="32" y="24" width="71" height="28" rx="14" fill="#8FA1B3" />
		<rect x="799" y="26" width="1" height="23" fill="#E4EBF2" />
		<rect x="327" y="21" width="545" height="34" rx="17" stroke="#B8C2CC" stroke-width="2" />
		<rect x="341" y="35" width="147" height="6" rx="3" fill="#E4EBF2" />
		<rect x="774" y="31" width="12" height="12" rx="3" fill="#E4EBF2" />
		<rect x="813" y="31" width="12" height="12" rx="3" fill="#E4EBF2" />
		<rect x="843" y="31" width="12" height="12" rx="3" fill="#E4EBF2" />
		<rect opacity="0.5" width="1200" height="800" fill="#04192D" />
		<path fill-rule="evenodd" clip-rule="evenodd" d="M303.5 36.5C303.5 40.6421 300.142 44 296 44C291.858 44 288.5 40.6421 288.5 36.5C288.5 32.3579 291.858 29 296 29C300.142 29 303.5 32.3579 303.5 36.5Z" fill="#495D6F" />
		<path fill-rule="evenodd" clip-rule="evenodd" d="M305.906 45.9302C304.911 43.6415 304.74 41.7022 304.713 40.9403V34.6712C304.713 29.8821 300.811 26 295.998 26C291.185 26 287.283 29.8821 287.283 34.6712V41.0309C287.246 41.8507 287.051 43.7306 286.094 45.9302C284.808 48.8858 285.872 48.5335 286.825 48.2904C287.779 48.0482 289.908 47.0989 290.573 48.2683C291.238 49.4372 291.792 50.4523 293.344 49.7904C294.896 49.1288 295.628 48.9083 295.849 48.9083H296.151C296.372 48.9083 297.104 49.1288 298.656 49.7904C300.208 50.4523 300.762 49.4372 301.428 48.2683C302.092 47.0989 304.221 48.0482 305.175 48.2904C306.128 48.5335 307.192 48.8858 305.906 45.9302ZM293.309 30.7282C294.247 30.7282 295.008 31.9262 295.008 33.4046C295.008 34.8828 294.247 36.0813 293.309 36.0813C292.37 36.0813 291.609 34.8828 291.609 33.4046C291.609 31.9262 292.37 30.7282 293.309 30.7282ZM295.998 41.4259C293.93 41.4259 292.189 39.4004 291.664 37.1466C292.678 38.5328 294.242 39.4237 295.998 39.4237C297.755 39.4237 299.319 38.5328 300.333 37.1466C299.808 39.4004 298.066 41.4259 295.998 41.4259ZM298.688 36.0813C297.749 36.0813 296.988 34.8828 296.988 33.4046C296.988 31.9262 297.749 30.7282 298.688 30.7282C299.628 30.7282 300.388 31.9262 300.388 33.4046C300.388 34.8828 299.628 36.0813 298.688 36.0813Z" fill="white" />
		<rect x="278.5" y="20.5" width="35" height="35" rx="7.5" stroke="white" />
		<rect x="298" y="45" width="140" height="140" rx="12" fill="white" />
		<path d="M326.19 141.5V134.521L344.706 116.37C346.477 114.582 347.952 112.993 349.133 111.604C350.313 110.215 351.199 108.87 351.789 107.568C352.379 106.266 352.674 104.877 352.674 103.401C352.674 101.717 352.293 100.276 351.529 99.0781C350.765 97.8628 349.714 96.9253 348.378 96.2656C347.041 95.6059 345.522 95.276 343.82 95.276C342.067 95.276 340.53 95.6406 339.211 96.3698C337.891 97.0816 336.867 98.0972 336.138 99.4167C335.426 100.736 335.07 102.307 335.07 104.13H325.878C325.878 100.745 326.65 97.8021 328.195 95.3021C329.74 92.8021 331.867 90.8663 334.576 89.4948C337.301 88.1233 340.426 87.4375 343.951 87.4375C347.527 87.4375 350.669 88.1059 353.378 89.4427C356.086 90.7795 358.187 92.6111 359.68 94.9375C361.19 97.2639 361.945 99.9201 361.945 102.906C361.945 104.903 361.563 106.865 360.799 108.792C360.036 110.719 358.69 112.854 356.763 115.198C354.853 117.542 352.171 120.38 348.716 123.714L339.523 133.062V133.427H362.753V141.5H326.19ZM391.268 142.229C388.716 142.212 386.225 141.769 383.794 140.901C381.364 140.016 379.176 138.583 377.232 136.604C375.287 134.608 373.742 131.96 372.596 128.661C371.451 125.345 370.886 121.24 370.904 116.344C370.904 111.778 371.39 107.707 372.362 104.13C373.334 100.554 374.732 97.533 376.555 95.0677C378.378 92.5851 380.574 90.6927 383.143 89.3906C385.73 88.0885 388.621 87.4375 391.815 87.4375C395.166 87.4375 398.135 88.0972 400.721 89.4167C403.326 90.7361 405.426 92.5417 407.023 94.8333C408.621 97.1076 409.61 99.6771 409.992 102.542H400.487C400.001 100.493 399.003 98.8611 397.492 97.6458C395.999 96.4132 394.107 95.7969 391.815 95.7969C388.117 95.7969 385.27 97.4028 383.273 100.615C381.294 103.826 380.296 108.236 380.279 113.844H380.643C381.494 112.316 382.596 111.005 383.951 109.911C385.305 108.818 386.832 107.976 388.534 107.385C390.253 106.778 392.067 106.474 393.977 106.474C397.102 106.474 399.905 107.22 402.388 108.714C404.888 110.207 406.867 112.264 408.326 114.885C409.784 117.49 410.504 120.476 410.487 123.844C410.504 127.351 409.706 130.502 408.091 133.297C406.477 136.075 404.228 138.262 401.346 139.859C398.464 141.457 395.105 142.247 391.268 142.229ZM391.216 134.417C393.109 134.417 394.801 133.957 396.294 133.036C397.787 132.116 398.968 130.875 399.836 129.312C400.704 127.75 401.129 125.997 401.112 124.052C401.129 122.142 400.713 120.415 399.862 118.87C399.029 117.325 397.874 116.101 396.398 115.198C394.923 114.295 393.239 113.844 391.346 113.844C389.94 113.844 388.629 114.113 387.414 114.651C386.199 115.189 385.14 115.936 384.237 116.891C383.334 117.828 382.622 118.922 382.102 120.172C381.598 121.405 381.338 122.724 381.32 124.13C381.338 125.988 381.772 127.698 382.622 129.26C383.473 130.823 384.645 132.073 386.138 133.01C387.631 133.948 389.324 134.417 391.216 134.417Z" fill="#202C44" />
		<rect x="450" y="49" width="312" height="132" rx="8" fill="#00AEF0" />
		<path fill-rule="evenodd" clip-rule="evenodd" d="M616 87C616 92.5228 611.523 97 606 97C600.477 97 596 92.5228 596 87C596 81.4772 600.477 77 606 77C611.523 77 616 81.4772 616 87Z" fill="#00AEF0" />
		<path fill-rule="evenodd" clip-rule="evenodd" d="M619.208 99.5736C617.881 96.522 617.653 93.9363 617.617 92.9204V84.5616C617.617 78.1761 612.415 73 605.998 73C599.58 73 594.378 78.1761 594.378 84.5616V93.0412C594.328 94.1342 594.068 96.6408 592.792 99.5736C591.077 103.514 592.496 103.045 593.767 102.721C595.038 102.398 597.877 101.132 598.764 102.691C599.65 104.25 600.39 105.603 602.459 104.721C604.529 103.838 605.504 103.544 605.799 103.544H606.201C606.496 103.544 607.472 103.838 609.541 104.721C611.611 105.603 612.35 104.25 613.237 102.691C614.123 101.132 616.962 102.398 618.233 102.721C619.504 103.045 620.923 103.514 619.208 99.5736ZM602.411 79.3043C603.663 79.3043 604.678 80.9017 604.678 82.8728C604.678 84.8438 603.663 86.4417 602.411 86.4417C601.16 86.4417 600.145 84.8438 600.145 82.8728C600.145 80.9017 601.16 79.3043 602.411 79.3043ZM605.998 93.5678C603.24 93.5678 600.919 90.8671 600.219 87.8621C601.57 89.7104 603.656 90.8982 605.998 90.8982C608.34 90.8982 610.425 89.7104 611.777 87.8621C611.077 90.8671 608.755 93.5678 605.998 93.5678ZM609.584 86.4417C608.332 86.4417 607.318 84.8438 607.318 82.8728C607.318 80.9017 608.332 79.3043 609.584 79.3043C610.837 79.3043 611.851 80.9017 611.851 82.8728C611.851 84.8438 610.837 86.4417 609.584 86.4417Z" fill="white" />
		<path d="M499.904 122.045C499.78 121.657 499.614 121.31 499.405 121.003C499.201 120.692 498.956 120.428 498.67 120.21C498.385 119.989 498.059 119.82 497.692 119.705C497.33 119.59 496.932 119.533 496.497 119.533C495.76 119.533 495.095 119.722 494.503 120.102C493.91 120.481 493.442 121.037 493.097 121.77C492.756 122.499 492.585 123.391 492.585 124.448C492.585 125.509 492.758 126.406 493.103 127.139C493.448 127.872 493.921 128.428 494.522 128.808C495.123 129.187 495.807 129.376 496.574 129.376C497.285 129.376 497.905 129.232 498.434 128.942C498.967 128.652 499.378 128.243 499.668 127.714C499.962 127.182 500.109 126.555 500.109 125.835L500.62 125.931H496.874V124.301H502.02V125.79C502.02 126.89 501.785 127.844 501.317 128.654C500.852 129.46 500.209 130.082 499.386 130.521C498.568 130.96 497.631 131.179 496.574 131.179C495.389 131.179 494.349 130.906 493.454 130.361C492.564 129.815 491.869 129.042 491.371 128.04C490.872 127.035 490.623 125.842 490.623 124.461C490.623 123.417 490.768 122.479 491.057 121.648C491.347 120.817 491.754 120.112 492.278 119.533C492.807 118.949 493.427 118.504 494.138 118.197C494.854 117.886 495.636 117.73 496.484 117.73C497.192 117.73 497.85 117.835 498.459 118.043C499.073 118.252 499.619 118.548 500.096 118.932C500.577 119.315 500.976 119.771 501.291 120.3C501.606 120.824 501.82 121.406 501.93 122.045H499.904ZM506.285 125.17V131H504.374V117.909H506.259V122.78H506.381C506.611 122.251 506.962 121.832 507.435 121.521C507.908 121.21 508.526 121.054 509.289 121.054C509.962 121.054 510.551 121.192 511.053 121.469C511.56 121.746 511.953 122.16 512.229 122.71C512.511 123.255 512.651 123.937 512.651 124.755V131H510.74V124.985C510.74 124.265 510.555 123.707 510.184 123.31C509.813 122.91 509.298 122.71 508.637 122.71C508.185 122.71 507.781 122.805 507.423 122.997C507.069 123.189 506.79 123.47 506.585 123.841C506.385 124.207 506.285 124.651 506.285 125.17ZM519.337 131.198C518.417 131.198 517.614 130.987 516.928 130.565C516.242 130.143 515.709 129.553 515.33 128.795C514.95 128.036 514.761 127.15 514.761 126.136C514.761 125.117 514.95 124.227 515.33 123.464C515.709 122.701 516.242 122.109 516.928 121.687C517.614 121.265 518.417 121.054 519.337 121.054C520.258 121.054 521.061 121.265 521.747 121.687C522.433 122.109 522.966 122.701 523.345 123.464C523.725 124.227 523.914 125.117 523.914 126.136C523.914 127.15 523.725 128.036 523.345 128.795C522.966 129.553 522.433 130.143 521.747 130.565C521.061 130.987 520.258 131.198 519.337 131.198ZM519.344 129.594C519.94 129.594 520.435 129.436 520.827 129.121C521.219 128.805 521.509 128.386 521.696 127.862C521.888 127.337 521.984 126.76 521.984 126.129C521.984 125.503 521.888 124.928 521.696 124.403C521.509 123.875 521.219 123.451 520.827 123.131C520.435 122.812 519.94 122.652 519.344 122.652C518.743 122.652 518.244 122.812 517.848 123.131C517.456 123.451 517.164 123.875 516.972 124.403C516.785 124.928 516.691 125.503 516.691 126.129C516.691 126.76 516.785 127.337 516.972 127.862C517.164 128.386 517.456 128.805 517.848 129.121C518.244 129.436 518.743 129.594 519.344 129.594ZM533.405 123.579L531.672 123.886C531.6 123.664 531.485 123.453 531.327 123.253C531.174 123.053 530.965 122.888 530.701 122.761C530.437 122.633 530.106 122.569 529.71 122.569C529.169 122.569 528.717 122.69 528.355 122.933C527.993 123.172 527.812 123.481 527.812 123.86C527.812 124.188 527.933 124.452 528.176 124.653C528.419 124.853 528.811 125.017 529.352 125.145L530.912 125.503C531.815 125.712 532.489 126.033 532.932 126.468C533.375 126.903 533.597 127.467 533.597 128.162C533.597 128.75 533.426 129.274 533.085 129.734C532.748 130.19 532.278 130.548 531.672 130.808C531.072 131.068 530.375 131.198 529.582 131.198C528.483 131.198 527.586 130.964 526.891 130.495C526.197 130.022 525.771 129.351 525.613 128.482L527.46 128.2C527.575 128.682 527.812 129.046 528.17 129.293C528.528 129.536 528.994 129.658 529.57 129.658C530.196 129.658 530.697 129.528 531.072 129.268C531.447 129.004 531.634 128.682 531.634 128.303C531.634 127.996 531.519 127.738 531.289 127.529C531.063 127.32 530.716 127.163 530.247 127.056L528.585 126.692C527.669 126.483 526.991 126.151 526.552 125.695C526.118 125.239 525.9 124.661 525.9 123.962C525.9 123.383 526.062 122.876 526.386 122.441C526.71 122.006 527.158 121.668 527.729 121.425C528.3 121.178 528.954 121.054 529.691 121.054C530.752 121.054 531.587 121.284 532.197 121.744C532.806 122.2 533.209 122.812 533.405 123.579ZM540.281 121.182V122.716H534.918V121.182H540.281ZM536.356 118.83H538.267V128.117C538.267 128.488 538.323 128.767 538.434 128.955C538.544 129.138 538.687 129.263 538.862 129.332C539.041 129.396 539.235 129.428 539.444 129.428C539.597 129.428 539.731 129.417 539.846 129.396C539.961 129.374 540.051 129.357 540.115 129.344L540.46 130.923C540.349 130.966 540.191 131.009 539.987 131.051C539.782 131.098 539.527 131.124 539.22 131.128C538.717 131.136 538.248 131.047 537.814 130.859C537.379 130.672 537.027 130.382 536.759 129.99C536.491 129.598 536.356 129.106 536.356 128.513V118.83ZM546.521 131.198C545.554 131.198 544.721 130.991 544.022 130.578C543.327 130.161 542.79 129.575 542.411 128.82C542.036 128.062 541.849 127.173 541.849 126.155C541.849 125.149 542.036 124.263 542.411 123.496C542.79 122.729 543.319 122.13 543.996 121.7C544.678 121.269 545.475 121.054 546.387 121.054C546.941 121.054 547.478 121.146 547.998 121.329C548.518 121.512 548.984 121.8 549.398 122.192C549.811 122.584 550.137 123.093 550.376 123.719C550.614 124.342 550.734 125.098 550.734 125.989V126.666H542.929V125.234H548.861C548.861 124.732 548.758 124.286 548.554 123.898C548.349 123.506 548.062 123.197 547.691 122.972C547.324 122.746 546.894 122.633 546.4 122.633C545.863 122.633 545.394 122.765 544.994 123.029C544.597 123.289 544.29 123.63 544.073 124.052C543.86 124.469 543.753 124.923 543.753 125.413V126.532C543.753 127.188 543.869 127.746 544.099 128.207C544.333 128.667 544.659 129.018 545.077 129.261C545.494 129.5 545.982 129.619 546.54 129.619C546.903 129.619 547.233 129.568 547.531 129.466C547.829 129.359 548.087 129.202 548.305 128.993C548.522 128.784 548.688 128.526 548.803 128.219L550.612 128.545C550.467 129.078 550.207 129.545 549.832 129.945C549.462 130.342 548.995 130.651 548.432 130.872C547.874 131.089 547.237 131.198 546.521 131.198ZM552.854 131V121.182H554.701V122.741H554.804C554.983 122.213 555.298 121.798 555.75 121.495C556.206 121.188 556.721 121.035 557.297 121.035C557.416 121.035 557.557 121.039 557.718 121.048C557.885 121.056 558.015 121.067 558.108 121.08V122.908C558.032 122.886 557.895 122.863 557.699 122.837C557.503 122.808 557.307 122.793 557.111 122.793C556.66 122.793 556.257 122.888 555.903 123.08C555.554 123.268 555.277 123.53 555.072 123.866C554.868 124.199 554.765 124.578 554.765 125.004V131H552.854ZM561.269 134.682C560.984 134.682 560.724 134.658 560.489 134.612C560.255 134.569 560.08 134.522 559.965 134.471L560.426 132.905C560.775 132.999 561.086 133.039 561.359 133.026C561.631 133.013 561.872 132.911 562.081 132.719C562.294 132.528 562.482 132.214 562.644 131.78L562.88 131.128L559.288 121.182H561.333L563.82 128.801H563.922L566.408 121.182H568.46L564.414 132.31C564.227 132.822 563.988 133.254 563.698 133.608C563.408 133.966 563.063 134.234 562.663 134.413C562.262 134.592 561.798 134.682 561.269 134.682ZM582.377 123.579L580.645 123.886C580.573 123.664 580.458 123.453 580.3 123.253C580.147 123.053 579.938 122.888 579.674 122.761C579.409 122.633 579.079 122.569 578.683 122.569C578.142 122.569 577.69 122.69 577.328 122.933C576.965 123.172 576.784 123.481 576.784 123.86C576.784 124.188 576.906 124.452 577.149 124.653C577.392 124.853 577.784 125.017 578.325 125.145L579.884 125.503C580.788 125.712 581.461 126.033 581.904 126.468C582.348 126.903 582.569 127.467 582.569 128.162C582.569 128.75 582.399 129.274 582.058 129.734C581.721 130.19 581.25 130.548 580.645 130.808C580.044 131.068 579.348 131.198 578.555 131.198C577.456 131.198 576.559 130.964 575.864 130.495C575.169 130.022 574.743 129.351 574.585 128.482L576.433 128.2C576.548 128.682 576.784 129.046 577.142 129.293C577.5 129.536 577.967 129.658 578.542 129.658C579.169 129.658 579.669 129.528 580.044 129.268C580.419 129.004 580.607 128.682 580.607 128.303C580.607 127.996 580.492 127.738 580.262 127.529C580.036 127.32 579.688 127.163 579.22 127.056L577.558 126.692C576.642 126.483 575.964 126.151 575.525 125.695C575.09 125.239 574.873 124.661 574.873 123.962C574.873 123.383 575.035 122.876 575.359 122.441C575.683 122.006 576.13 121.668 576.701 121.425C577.272 121.178 577.926 121.054 578.664 121.054C579.725 121.054 580.56 121.284 581.169 121.744C581.779 122.2 582.181 122.812 582.377 123.579ZM586.582 125.17V131H584.671V117.909H586.556V122.78H586.678C586.908 122.251 587.259 121.832 587.732 121.521C588.205 121.21 588.823 121.054 589.586 121.054C590.259 121.054 590.847 121.192 591.35 121.469C591.857 121.746 592.249 122.16 592.526 122.71C592.808 123.255 592.948 123.937 592.948 124.755V131H591.037V124.985C591.037 124.265 590.852 123.707 590.481 123.31C590.11 122.91 589.595 122.71 588.934 122.71C588.482 122.71 588.078 122.805 587.72 122.997C587.366 123.189 587.087 123.47 586.882 123.841C586.682 124.207 586.582 124.651 586.582 125.17ZM599.634 131.198C598.714 131.198 597.911 130.987 597.225 130.565C596.538 130.143 596.006 129.553 595.627 128.795C595.247 128.036 595.058 127.15 595.058 126.136C595.058 125.117 595.247 124.227 595.627 123.464C596.006 122.701 596.538 122.109 597.225 121.687C597.911 121.265 598.714 121.054 599.634 121.054C600.555 121.054 601.358 121.265 602.044 121.687C602.73 122.109 603.263 122.701 603.642 123.464C604.021 124.227 604.211 125.117 604.211 126.136C604.211 127.15 604.021 128.036 603.642 128.795C603.263 129.553 602.73 130.143 602.044 130.565C601.358 130.987 600.555 131.198 599.634 131.198ZM599.641 129.594C600.237 129.594 600.732 129.436 601.124 129.121C601.516 128.805 601.805 128.386 601.993 127.862C602.185 127.337 602.281 126.76 602.281 126.129C602.281 125.503 602.185 124.928 601.993 124.403C601.805 123.875 601.516 123.451 601.124 123.131C600.732 122.812 600.237 122.652 599.641 122.652C599.04 122.652 598.541 122.812 598.145 123.131C597.753 123.451 597.461 123.875 597.269 124.403C597.082 124.928 596.988 125.503 596.988 126.129C596.988 126.76 597.082 127.337 597.269 127.862C597.461 128.386 597.753 128.805 598.145 129.121C598.541 129.436 599.04 129.594 599.641 129.594ZM608.174 131L605.285 121.182H607.26L609.184 128.392H609.28L611.21 121.182H613.185L615.103 128.36H615.199L617.11 121.182H619.085L616.203 131H614.253L612.259 123.911H612.112L610.117 131H608.174ZM628.256 123.579L626.524 123.886C626.452 123.664 626.337 123.453 626.179 123.253C626.025 123.053 625.817 122.888 625.552 122.761C625.288 122.633 624.958 122.569 624.562 122.569C624.021 122.569 623.569 122.69 623.207 122.933C622.844 123.172 622.663 123.481 622.663 123.86C622.663 124.188 622.785 124.452 623.028 124.653C623.271 124.853 623.663 125.017 624.204 125.145L625.763 125.503C626.667 125.712 627.34 126.033 627.783 126.468C628.226 126.903 628.448 127.467 628.448 128.162C628.448 128.75 628.278 129.274 627.937 129.734C627.6 130.19 627.129 130.548 626.524 130.808C625.923 131.068 625.226 131.198 624.434 131.198C623.334 131.198 622.437 130.964 621.743 130.495C621.048 130.022 620.622 129.351 620.464 128.482L622.312 128.2C622.427 128.682 622.663 129.046 623.021 129.293C623.379 129.536 623.846 129.658 624.421 129.658C625.047 129.658 625.548 129.528 625.923 129.268C626.298 129.004 626.486 128.682 626.486 128.303C626.486 127.996 626.371 127.738 626.141 127.529C625.915 127.32 625.567 127.163 625.099 127.056L623.437 126.692C622.521 126.483 621.843 126.151 621.404 125.695C620.969 125.239 620.752 124.661 620.752 123.962C620.752 123.383 620.914 122.876 621.238 122.441C621.562 122.006 622.009 121.668 622.58 121.425C623.151 121.178 623.805 121.054 624.543 121.054C625.604 121.054 626.439 121.284 627.048 121.744C627.658 122.2 628.06 122.812 628.256 123.579ZM637.224 125.17V131H635.313V121.182H637.148V122.78H637.269C637.495 122.26 637.849 121.842 638.33 121.527C638.816 121.212 639.427 121.054 640.165 121.054C640.834 121.054 641.42 121.195 641.922 121.476C642.425 121.753 642.815 122.166 643.092 122.716C643.369 123.266 643.508 123.945 643.508 124.755V131H641.597V124.985C641.597 124.273 641.411 123.717 641.04 123.317C640.67 122.912 640.16 122.71 639.513 122.71C639.07 122.71 638.675 122.805 638.33 122.997C637.989 123.189 637.719 123.47 637.518 123.841C637.322 124.207 637.224 124.651 637.224 125.17ZM652.29 126.928V121.182H654.208V131H652.329V129.3H652.226C652.001 129.824 651.638 130.261 651.14 130.61C650.646 130.955 650.03 131.128 649.293 131.128C648.662 131.128 648.104 130.989 647.618 130.712C647.136 130.431 646.757 130.016 646.48 129.466C646.207 128.916 646.071 128.237 646.071 127.427V121.182H647.982V127.197C647.982 127.866 648.168 128.398 648.538 128.795C648.909 129.191 649.391 129.389 649.983 129.389C650.341 129.389 650.697 129.3 651.05 129.121C651.408 128.942 651.704 128.671 651.939 128.309C652.177 127.947 652.295 127.487 652.29 126.928ZM656.776 131V121.182H658.611V122.78H658.732C658.937 122.239 659.271 121.817 659.736 121.514C660.2 121.207 660.756 121.054 661.404 121.054C662.06 121.054 662.61 121.207 663.053 121.514C663.5 121.821 663.831 122.243 664.044 122.78H664.146C664.38 122.256 664.753 121.838 665.265 121.527C665.776 121.212 666.385 121.054 667.093 121.054C667.983 121.054 668.71 121.333 669.272 121.891C669.839 122.45 670.123 123.291 670.123 124.416V131H668.211V124.595C668.211 123.93 668.03 123.449 667.668 123.151C667.306 122.852 666.873 122.703 666.37 122.703C665.748 122.703 665.265 122.895 664.919 123.278C664.574 123.658 664.402 124.146 664.402 124.742V131H662.497V124.474C662.497 123.941 662.331 123.513 661.998 123.189C661.666 122.865 661.233 122.703 660.701 122.703C660.339 122.703 660.004 122.799 659.697 122.991C659.395 123.178 659.15 123.44 658.962 123.777C658.779 124.114 658.687 124.504 658.687 124.947V131H656.776ZM672.838 131V117.909H674.749V122.773H674.864C674.975 122.569 675.134 122.332 675.343 122.064C675.552 121.795 675.842 121.561 676.213 121.361C676.583 121.156 677.073 121.054 677.683 121.054C678.475 121.054 679.183 121.254 679.805 121.655C680.427 122.055 680.915 122.633 681.269 123.387C681.627 124.141 681.806 125.049 681.806 126.11C681.806 127.171 681.629 128.081 681.275 128.839C680.921 129.594 680.436 130.175 679.818 130.585C679.2 130.989 678.495 131.192 677.702 131.192C677.105 131.192 676.617 131.092 676.238 130.891C675.863 130.691 675.569 130.457 675.356 130.188C675.143 129.92 674.979 129.681 674.864 129.472H674.704V131H672.838ZM674.71 126.091C674.71 126.781 674.811 127.386 675.011 127.906C675.211 128.426 675.501 128.833 675.88 129.127C676.259 129.417 676.724 129.562 677.274 129.562C677.845 129.562 678.322 129.411 678.706 129.108C679.089 128.801 679.379 128.386 679.575 127.862C679.775 127.337 679.875 126.747 679.875 126.091C679.875 125.443 679.777 124.862 679.581 124.346C679.389 123.83 679.1 123.423 678.712 123.125C678.328 122.827 677.849 122.678 677.274 122.678C676.72 122.678 676.251 122.82 675.867 123.106C675.488 123.391 675.201 123.79 675.005 124.301C674.809 124.812 674.71 125.409 674.71 126.091ZM688.183 131.198C687.216 131.198 686.383 130.991 685.684 130.578C684.989 130.161 684.453 129.575 684.073 128.82C683.698 128.062 683.511 127.173 683.511 126.155C683.511 125.149 683.698 124.263 684.073 123.496C684.453 122.729 684.981 122.13 685.658 121.7C686.34 121.269 687.137 121.054 688.049 121.054C688.603 121.054 689.14 121.146 689.66 121.329C690.18 121.512 690.646 121.8 691.06 122.192C691.473 122.584 691.799 123.093 692.038 123.719C692.276 124.342 692.396 125.098 692.396 125.989V126.666H684.591V125.234H690.523C690.523 124.732 690.421 124.286 690.216 123.898C690.011 123.506 689.724 123.197 689.353 122.972C688.987 122.746 688.556 122.633 688.062 122.633C687.525 122.633 687.056 122.765 686.656 123.029C686.259 123.289 685.953 123.63 685.735 124.052C685.522 124.469 685.416 124.923 685.416 125.413V126.532C685.416 127.188 685.531 127.746 685.761 128.207C685.995 128.667 686.321 129.018 686.739 129.261C687.156 129.5 687.644 129.619 688.203 129.619C688.565 129.619 688.895 129.568 689.193 129.466C689.492 129.359 689.749 129.202 689.967 128.993C690.184 128.784 690.35 128.526 690.465 128.219L692.274 128.545C692.129 129.078 691.869 129.545 691.494 129.945C691.124 130.342 690.657 130.651 690.095 130.872C689.536 131.089 688.899 131.198 688.183 131.198ZM694.516 131V121.182H696.364V122.741H696.466C696.645 122.213 696.96 121.798 697.412 121.495C697.868 121.188 698.383 121.035 698.959 121.035C699.078 121.035 699.219 121.039 699.381 121.048C699.547 121.056 699.677 121.067 699.771 121.08V122.908C699.694 122.886 699.557 122.863 699.361 122.837C699.165 122.808 698.969 122.793 698.773 122.793C698.322 122.793 697.919 122.888 697.565 123.08C697.216 123.268 696.939 123.53 696.734 123.866C696.53 124.199 696.427 124.578 696.427 125.004V131H694.516ZM710.324 131.198C709.403 131.198 708.6 130.987 707.914 130.565C707.228 130.143 706.695 129.553 706.316 128.795C705.937 128.036 705.747 127.15 705.747 126.136C705.747 125.117 705.937 124.227 706.316 123.464C706.695 122.701 707.228 122.109 707.914 121.687C708.6 121.265 709.403 121.054 710.324 121.054C711.244 121.054 712.047 121.265 712.734 121.687C713.42 122.109 713.952 122.701 714.332 123.464C714.711 124.227 714.9 125.117 714.9 126.136C714.9 127.15 714.711 128.036 714.332 128.795C713.952 129.553 713.42 130.143 712.734 130.565C712.047 130.987 711.244 131.198 710.324 131.198ZM710.33 129.594C710.927 129.594 711.421 129.436 711.813 129.121C712.205 128.805 712.495 128.386 712.682 127.862C712.874 127.337 712.97 126.76 712.97 126.129C712.97 125.503 712.874 124.928 712.682 124.403C712.495 123.875 712.205 123.451 711.813 123.131C711.421 122.812 710.927 122.652 710.33 122.652C709.729 122.652 709.231 122.812 708.834 123.131C708.442 123.451 708.15 123.875 707.959 124.403C707.771 124.928 707.677 125.503 707.677 126.129C707.677 126.76 707.771 127.337 707.959 127.862C708.15 128.386 708.442 128.805 708.834 129.121C709.231 129.436 709.729 129.594 710.33 129.594ZM721.706 121.182V122.716H716.158V121.182H721.706ZM717.679 131V120.044C717.679 119.43 717.814 118.921 718.082 118.516C718.351 118.107 718.706 117.803 719.15 117.602C719.593 117.398 720.074 117.295 720.594 117.295C720.978 117.295 721.306 117.327 721.579 117.391C721.851 117.451 722.054 117.506 722.186 117.558L721.738 119.104C721.649 119.079 721.534 119.049 721.393 119.015C721.253 118.977 721.082 118.957 720.882 118.957C720.417 118.957 720.085 119.072 719.885 119.303C719.689 119.533 719.591 119.865 719.591 120.3V131H717.679ZM485.991 143.182V144.716H480.628V143.182H485.991ZM482.066 140.83H483.977V150.117C483.977 150.488 484.033 150.767 484.144 150.955C484.254 151.138 484.397 151.263 484.572 151.332C484.751 151.396 484.945 151.428 485.154 151.428C485.307 151.428 485.441 151.417 485.556 151.396C485.671 151.374 485.761 151.357 485.825 151.344L486.17 152.923C486.059 152.966 485.901 153.009 485.697 153.051C485.492 153.098 485.237 153.124 484.93 153.128C484.427 153.136 483.958 153.047 483.524 152.859C483.089 152.672 482.737 152.382 482.469 151.99C482.2 151.598 482.066 151.106 482.066 150.513V140.83ZM488.105 153V143.182H489.952V144.741H490.055C490.234 144.213 490.549 143.798 491.001 143.495C491.457 143.188 491.972 143.035 492.548 143.035C492.667 143.035 492.808 143.039 492.969 143.048C493.136 143.056 493.266 143.067 493.359 143.08V144.908C493.283 144.886 493.146 144.863 492.95 144.837C492.754 144.808 492.558 144.793 492.362 144.793C491.911 144.793 491.508 144.888 491.154 145.08C490.805 145.268 490.528 145.53 490.323 145.866C490.119 146.199 490.016 146.578 490.016 147.004V153H488.105ZM497.783 153.217C497.161 153.217 496.598 153.102 496.095 152.872C495.592 152.638 495.194 152.299 494.9 151.856C494.61 151.413 494.465 150.869 494.465 150.226C494.465 149.672 494.572 149.216 494.785 148.858C494.998 148.5 495.286 148.217 495.648 148.008C496.01 147.799 496.415 147.641 496.862 147.535C497.31 147.428 497.766 147.347 498.23 147.292C498.818 147.224 499.295 147.168 499.662 147.126C500.028 147.079 500.295 147.004 500.461 146.902C500.627 146.8 500.71 146.634 500.71 146.403V146.359C500.71 145.8 500.553 145.368 500.237 145.061C499.926 144.754 499.462 144.601 498.844 144.601C498.2 144.601 497.693 144.744 497.322 145.029C496.956 145.31 496.702 145.624 496.562 145.969L494.766 145.56C494.979 144.963 495.29 144.482 495.699 144.115C496.112 143.744 496.587 143.476 497.124 143.31C497.661 143.139 498.226 143.054 498.818 143.054C499.21 143.054 499.626 143.101 500.065 143.195C500.508 143.284 500.921 143.45 501.305 143.693C501.692 143.936 502.01 144.283 502.257 144.735C502.504 145.183 502.628 145.764 502.628 146.48V153H500.761V151.658H500.685C500.561 151.905 500.376 152.148 500.129 152.386C499.881 152.625 499.564 152.823 499.176 152.981C498.788 153.138 498.324 153.217 497.783 153.217ZM498.198 151.683C498.727 151.683 499.178 151.579 499.553 151.37C499.933 151.161 500.22 150.888 500.416 150.552C500.616 150.211 500.717 149.847 500.717 149.459V148.193C500.648 148.261 500.516 148.325 500.32 148.385C500.129 148.44 499.909 148.489 499.662 148.532C499.415 148.57 499.174 148.607 498.94 148.641C498.705 148.67 498.509 148.696 498.352 148.717C497.981 148.764 497.642 148.843 497.335 148.954C497.033 149.065 496.79 149.224 496.607 149.433C496.428 149.638 496.338 149.911 496.338 150.251C496.338 150.724 496.513 151.082 496.862 151.325C497.212 151.564 497.657 151.683 498.198 151.683ZM509.309 153.198C508.359 153.198 507.541 152.983 506.855 152.553C506.173 152.118 505.649 151.519 505.282 150.756C504.916 149.994 504.732 149.12 504.732 148.136C504.732 147.138 504.92 146.259 505.295 145.496C505.67 144.729 506.198 144.13 506.88 143.7C507.562 143.269 508.365 143.054 509.29 143.054C510.036 143.054 510.7 143.192 511.284 143.469C511.868 143.742 512.339 144.126 512.697 144.62C513.059 145.114 513.274 145.692 513.343 146.352H511.482C511.38 145.892 511.146 145.496 510.779 145.163C510.417 144.831 509.931 144.665 509.322 144.665C508.789 144.665 508.323 144.805 507.922 145.087C507.526 145.364 507.217 145.76 506.995 146.276C506.774 146.787 506.663 147.392 506.663 148.091C506.663 148.807 506.771 149.425 506.989 149.945C507.206 150.464 507.513 150.867 507.909 151.153C508.31 151.438 508.781 151.581 509.322 151.581C509.684 151.581 510.012 151.515 510.306 151.383C510.605 151.246 510.854 151.053 511.054 150.801C511.259 150.55 511.401 150.247 511.482 149.893H513.343C513.274 150.528 513.068 151.095 512.722 151.594C512.377 152.092 511.915 152.484 511.335 152.77C510.76 153.055 510.085 153.198 509.309 153.198ZM517.144 149.67L517.131 147.337H517.464L521.376 143.182H523.664L519.202 147.912H518.902L517.144 149.67ZM515.386 153V139.909H517.298V153H515.386ZM521.587 153L518.071 148.334L519.388 146.998L523.933 153H521.587ZM529.233 153.198C528.266 153.198 527.433 152.991 526.734 152.578C526.039 152.161 525.502 151.575 525.123 150.82C524.748 150.062 524.561 149.173 524.561 148.155C524.561 147.149 524.748 146.263 525.123 145.496C525.502 144.729 526.031 144.13 526.708 143.7C527.39 143.269 528.187 143.054 529.099 143.054C529.653 143.054 530.19 143.146 530.71 143.329C531.23 143.512 531.696 143.8 532.11 144.192C532.523 144.584 532.849 145.093 533.088 145.719C533.326 146.342 533.445 147.098 533.445 147.989V148.666H525.641V147.234H531.573C531.573 146.732 531.47 146.286 531.266 145.898C531.061 145.506 530.774 145.197 530.403 144.972C530.036 144.746 529.606 144.633 529.112 144.633C528.575 144.633 528.106 144.765 527.705 145.029C527.309 145.289 527.002 145.63 526.785 146.052C526.572 146.469 526.465 146.923 526.465 147.413V148.532C526.465 149.188 526.58 149.746 526.811 150.207C527.045 150.667 527.371 151.018 527.789 151.261C528.206 151.5 528.694 151.619 529.252 151.619C529.615 151.619 529.945 151.568 530.243 151.466C530.541 151.359 530.799 151.202 531.017 150.993C531.234 150.784 531.4 150.526 531.515 150.219L533.324 150.545C533.179 151.078 532.919 151.545 532.544 151.945C532.173 152.342 531.707 152.651 531.144 152.872C530.586 153.089 529.949 153.198 529.233 153.198ZM535.566 153V143.182H537.413V144.741H537.516C537.695 144.213 538.01 143.798 538.462 143.495C538.918 143.188 539.433 143.035 540.009 143.035C540.128 143.035 540.268 143.039 540.43 143.048C540.597 143.056 540.727 143.067 540.82 143.08V144.908C540.744 144.886 540.607 144.863 540.411 144.837C540.215 144.808 540.019 144.793 539.823 144.793C539.371 144.793 538.969 144.888 538.615 145.08C538.266 145.268 537.989 145.53 537.784 145.866C537.58 146.199 537.477 146.578 537.477 147.004V153H535.566ZM549.831 145.579L548.099 145.886C548.027 145.664 547.912 145.453 547.754 145.253C547.601 145.053 547.392 144.888 547.128 144.761C546.863 144.633 546.533 144.569 546.137 144.569C545.596 144.569 545.144 144.69 544.782 144.933C544.42 145.172 544.238 145.481 544.238 145.86C544.238 146.188 544.36 146.452 544.603 146.653C544.846 146.853 545.238 147.017 545.779 147.145L547.339 147.503C548.242 147.712 548.915 148.033 549.358 148.468C549.802 148.903 550.023 149.467 550.023 150.162C550.023 150.75 549.853 151.274 549.512 151.734C549.175 152.19 548.704 152.548 548.099 152.808C547.498 153.068 546.802 153.198 546.009 153.198C544.91 153.198 544.013 152.964 543.318 152.495C542.623 152.022 542.197 151.351 542.04 150.482L543.887 150.2C544.002 150.682 544.238 151.046 544.596 151.293C544.954 151.536 545.421 151.658 545.996 151.658C546.623 151.658 547.123 151.528 547.498 151.268C547.873 151.004 548.061 150.682 548.061 150.303C548.061 149.996 547.946 149.738 547.716 149.529C547.49 149.32 547.143 149.163 546.674 149.056L545.012 148.692C544.096 148.483 543.418 148.151 542.979 147.695C542.545 147.239 542.327 146.661 542.327 145.962C542.327 145.383 542.489 144.876 542.813 144.441C543.137 144.006 543.584 143.668 544.155 143.425C544.726 143.178 545.381 143.054 546.118 143.054C547.179 143.054 548.014 143.284 548.623 143.744C549.233 144.2 549.635 144.812 549.831 145.579ZM556.888 153V143.182H558.8V153H556.888ZM557.854 141.667C557.521 141.667 557.236 141.556 556.997 141.335C556.763 141.109 556.645 140.84 556.645 140.529C556.645 140.214 556.763 139.945 556.997 139.724C557.236 139.498 557.521 139.385 557.854 139.385C558.186 139.385 558.469 139.498 558.704 139.724C558.942 139.945 559.062 140.214 559.062 140.529C559.062 140.84 558.942 141.109 558.704 141.335C558.469 141.556 558.186 141.667 557.854 141.667ZM563.282 147.17V153H561.371V143.182H563.205V144.78H563.327C563.553 144.26 563.906 143.842 564.388 143.527C564.874 143.212 565.485 143.054 566.222 143.054C566.891 143.054 567.477 143.195 567.98 143.476C568.483 143.753 568.873 144.166 569.15 144.716C569.427 145.266 569.565 145.945 569.565 146.755V153H567.654V146.985C567.654 146.273 567.469 145.717 567.098 145.317C566.727 144.912 566.218 144.71 565.57 144.71C565.127 144.71 564.733 144.805 564.388 144.997C564.047 145.189 563.776 145.47 563.576 145.841C563.38 146.207 563.282 146.651 563.282 147.17ZM578.1 156.682C577.815 156.682 577.555 156.658 577.32 156.612C577.086 156.569 576.911 156.522 576.796 156.471L577.257 154.905C577.606 154.999 577.917 155.039 578.19 155.026C578.463 155.013 578.703 154.911 578.912 154.719C579.125 154.528 579.313 154.214 579.475 153.78L579.711 153.128L576.119 143.182H578.164L580.651 150.801H580.753L583.24 143.182H585.291L581.245 154.31C581.058 154.822 580.819 155.254 580.529 155.608C580.24 155.966 579.894 156.234 579.494 156.413C579.093 156.592 578.629 156.682 578.1 156.682ZM590.889 153.198C589.969 153.198 589.165 152.987 588.479 152.565C587.793 152.143 587.261 151.553 586.881 150.795C586.502 150.036 586.312 149.15 586.312 148.136C586.312 147.117 586.502 146.227 586.881 145.464C587.261 144.701 587.793 144.109 588.479 143.687C589.165 143.265 589.969 143.054 590.889 143.054C591.81 143.054 592.613 143.265 593.299 143.687C593.985 144.109 594.518 144.701 594.897 145.464C595.276 146.227 595.466 147.117 595.466 148.136C595.466 149.15 595.276 150.036 594.897 150.795C594.518 151.553 593.985 152.143 593.299 152.565C592.613 152.987 591.81 153.198 590.889 153.198ZM590.896 151.594C591.492 151.594 591.987 151.436 592.379 151.121C592.771 150.805 593.06 150.386 593.248 149.862C593.44 149.337 593.536 148.76 593.536 148.129C593.536 147.503 593.44 146.928 593.248 146.403C593.06 145.875 592.771 145.451 592.379 145.131C591.987 144.812 591.492 144.652 590.896 144.652C590.295 144.652 589.796 144.812 589.4 145.131C589.008 145.451 588.716 145.875 588.524 146.403C588.337 146.928 588.243 147.503 588.243 148.129C588.243 148.76 588.337 149.337 588.524 149.862C588.716 150.386 589.008 150.805 589.4 151.121C589.796 151.436 590.295 151.594 590.896 151.594ZM603.819 148.928V143.182H605.736V153H603.857V151.3H603.755C603.529 151.824 603.167 152.261 602.668 152.61C602.174 152.955 601.558 153.128 600.821 153.128C600.19 153.128 599.632 152.989 599.146 152.712C598.665 152.431 598.285 152.016 598.008 151.466C597.736 150.916 597.599 150.237 597.599 149.427V143.182H599.51V149.197C599.51 149.866 599.696 150.398 600.067 150.795C600.437 151.191 600.919 151.389 601.511 151.389C601.869 151.389 602.225 151.3 602.579 151.121C602.937 150.942 603.233 150.671 603.467 150.309C603.706 149.947 603.823 149.487 603.819 148.928ZM608.304 153V143.182H610.152V144.741H610.254C610.433 144.213 610.748 143.798 611.2 143.495C611.656 143.188 612.172 143.035 612.747 143.035C612.866 143.035 613.007 143.039 613.169 143.048C613.335 143.056 613.465 143.067 613.559 143.08V144.908C613.482 144.886 613.346 144.863 613.15 144.837C612.953 144.808 612.757 144.793 612.561 144.793C612.11 144.793 611.707 144.888 611.353 145.08C611.004 145.268 610.727 145.53 610.522 145.866C610.318 146.199 610.216 146.578 610.216 147.004V153H608.304ZM620.13 153V139.909H622.041V144.773H622.156C622.267 144.569 622.426 144.332 622.635 144.064C622.844 143.795 623.134 143.561 623.505 143.361C623.875 143.156 624.365 143.054 624.975 143.054C625.767 143.054 626.475 143.254 627.097 143.655C627.719 144.055 628.207 144.633 628.561 145.387C628.919 146.141 629.098 147.049 629.098 148.11C629.098 149.171 628.921 150.081 628.567 150.839C628.213 151.594 627.728 152.175 627.11 152.585C626.492 152.989 625.787 153.192 624.994 153.192C624.397 153.192 623.909 153.092 623.53 152.891C623.155 152.691 622.861 152.457 622.648 152.188C622.435 151.92 622.271 151.681 622.156 151.472H621.996V153H620.13ZM622.002 148.091C622.002 148.781 622.103 149.386 622.303 149.906C622.503 150.426 622.793 150.833 623.172 151.127C623.551 151.417 624.016 151.562 624.566 151.562C625.137 151.562 625.614 151.411 625.998 151.108C626.381 150.801 626.671 150.386 626.867 149.862C627.067 149.337 627.167 148.747 627.167 148.091C627.167 147.443 627.069 146.862 626.873 146.346C626.681 145.83 626.392 145.423 626.004 145.125C625.62 144.827 625.141 144.678 624.566 144.678C624.012 144.678 623.543 144.82 623.159 145.106C622.78 145.391 622.493 145.79 622.297 146.301C622.1 146.812 622.002 147.409 622.002 148.091ZM631.244 153V143.182H633.091V144.741H633.193C633.372 144.213 633.688 143.798 634.139 143.495C634.595 143.188 635.111 143.035 635.686 143.035C635.806 143.035 635.946 143.039 636.108 143.048C636.274 143.056 636.404 143.067 636.498 143.08V144.908C636.421 144.886 636.285 144.863 636.089 144.837C635.893 144.808 635.697 144.793 635.501 144.793C635.049 144.793 634.646 144.888 634.293 145.08C633.943 145.268 633.666 145.53 633.462 145.866C633.257 146.199 633.155 146.578 633.155 147.004V153H631.244ZM641.936 153.198C641.016 153.198 640.212 152.987 639.526 152.565C638.84 152.143 638.308 151.553 637.928 150.795C637.549 150.036 637.359 149.15 637.359 148.136C637.359 147.117 637.549 146.227 637.928 145.464C638.308 144.701 638.84 144.109 639.526 143.687C640.212 143.265 641.016 143.054 641.936 143.054C642.857 143.054 643.66 143.265 644.346 143.687C645.032 144.109 645.565 144.701 645.944 145.464C646.323 146.227 646.513 147.117 646.513 148.136C646.513 149.15 646.323 150.036 645.944 150.795C645.565 151.553 645.032 152.143 644.346 152.565C643.66 152.987 642.857 153.198 641.936 153.198ZM641.942 151.594C642.539 151.594 643.033 151.436 643.425 151.121C643.817 150.805 644.107 150.386 644.295 149.862C644.487 149.337 644.582 148.76 644.582 148.129C644.582 147.503 644.487 146.928 644.295 146.403C644.107 145.875 643.817 145.451 643.425 145.131C643.033 144.812 642.539 144.652 641.942 144.652C641.342 144.652 640.843 144.812 640.447 145.131C640.055 145.451 639.763 145.875 639.571 146.403C639.384 146.928 639.29 147.503 639.29 148.129C639.29 148.76 639.384 149.337 639.571 149.862C639.763 150.386 640.055 150.805 640.447 151.121C640.843 151.436 641.342 151.594 641.942 151.594ZM650.476 153L647.587 143.182H649.562L651.486 150.392H651.582L653.512 143.182H655.487L657.405 150.36H657.501L659.412 143.182H661.387L658.504 153H656.555L654.56 145.911H654.413L652.419 153H650.476ZM670.558 145.579L668.826 145.886C668.753 145.664 668.638 145.453 668.481 145.253C668.327 145.053 668.118 144.888 667.854 144.761C667.59 144.633 667.26 144.569 666.863 144.569C666.322 144.569 665.871 144.69 665.508 144.933C665.146 145.172 664.965 145.481 664.965 145.86C664.965 146.188 665.086 146.452 665.329 146.653C665.572 146.853 665.964 147.017 666.506 147.145L668.065 147.503C668.969 147.712 669.642 148.033 670.085 148.468C670.528 148.903 670.75 149.467 670.75 150.162C670.75 150.75 670.579 151.274 670.238 151.734C669.902 152.19 669.431 152.548 668.826 152.808C668.225 153.068 667.528 153.198 666.736 153.198C665.636 153.198 664.739 152.964 664.045 152.495C663.35 152.022 662.924 151.351 662.766 150.482L664.613 150.2C664.729 150.682 664.965 151.046 665.323 151.293C665.681 151.536 666.148 151.658 666.723 151.658C667.349 151.658 667.85 151.528 668.225 151.268C668.6 151.004 668.787 150.682 668.787 150.303C668.787 149.996 668.672 149.738 668.442 149.529C668.216 149.32 667.869 149.163 667.4 149.056L665.738 148.692C664.822 148.483 664.145 148.151 663.706 147.695C663.271 147.239 663.054 146.661 663.054 145.962C663.054 145.383 663.216 144.876 663.54 144.441C663.863 144.006 664.311 143.668 664.882 143.425C665.453 143.178 666.107 143.054 666.844 143.054C667.905 143.054 668.741 143.284 669.35 143.744C669.959 144.2 670.362 144.812 670.558 145.579ZM677.083 153.198C676.115 153.198 675.282 152.991 674.583 152.578C673.889 152.161 673.352 151.575 672.973 150.82C672.598 150.062 672.41 149.173 672.41 148.155C672.41 147.149 672.598 146.263 672.973 145.496C673.352 144.729 673.88 144.13 674.558 143.7C675.24 143.269 676.037 143.054 676.949 143.054C677.502 143.054 678.039 143.146 678.559 143.329C679.079 143.512 679.546 143.8 679.959 144.192C680.373 144.584 680.699 145.093 680.937 145.719C681.176 146.342 681.295 147.098 681.295 147.989V148.666H673.49V147.234H679.422C679.422 146.732 679.32 146.286 679.115 145.898C678.911 145.506 678.623 145.197 678.252 144.972C677.886 144.746 677.456 144.633 676.961 144.633C676.424 144.633 675.956 144.765 675.555 145.029C675.159 145.289 674.852 145.63 674.635 146.052C674.422 146.469 674.315 146.923 674.315 147.413V148.532C674.315 149.188 674.43 149.746 674.66 150.207C674.895 150.667 675.221 151.018 675.638 151.261C676.056 151.5 676.544 151.619 677.102 151.619C677.464 151.619 677.794 151.568 678.093 151.466C678.391 151.359 678.649 151.202 678.866 150.993C679.083 150.784 679.25 150.526 679.365 150.219L681.174 150.545C681.029 151.078 680.769 151.545 680.394 151.945C680.023 152.342 679.556 152.651 678.994 152.872C678.436 153.089 677.799 153.198 677.083 153.198ZM683.416 153V143.182H685.263V144.741H685.365C685.544 144.213 685.86 143.798 686.311 143.495C686.767 143.188 687.283 143.035 687.858 143.035C687.977 143.035 688.118 143.039 688.28 143.048C688.446 143.056 688.576 143.067 688.67 143.08V144.908C688.593 144.886 688.457 144.863 688.261 144.837C688.065 144.808 687.869 144.793 687.673 144.793C687.221 144.793 686.818 144.888 686.465 145.08C686.115 145.268 685.838 145.53 685.634 145.866C685.429 146.199 685.327 146.578 685.327 147.004V153H683.416ZM697.681 145.579L695.949 145.886C695.876 145.664 695.761 145.453 695.604 145.253C695.45 145.053 695.241 144.888 694.977 144.761C694.713 144.633 694.383 144.569 693.987 144.569C693.445 144.569 692.994 144.69 692.631 144.933C692.269 145.172 692.088 145.481 692.088 145.86C692.088 146.188 692.21 146.452 692.452 146.653C692.695 146.853 693.087 147.017 693.629 147.145L695.188 147.503C696.092 147.712 696.765 148.033 697.208 148.468C697.651 148.903 697.873 149.467 697.873 150.162C697.873 150.75 697.702 151.274 697.362 151.734C697.025 152.19 696.554 152.548 695.949 152.808C695.348 153.068 694.651 153.198 693.859 153.198C692.759 153.198 691.862 152.964 691.168 152.495C690.473 152.022 690.047 151.351 689.889 150.482L691.737 150.2C691.852 150.682 692.088 151.046 692.446 151.293C692.804 151.536 693.271 151.658 693.846 151.658C694.472 151.658 694.973 151.528 695.348 151.268C695.723 151.004 695.911 150.682 695.911 150.303C695.911 149.996 695.795 149.738 695.565 149.529C695.339 149.32 694.992 149.163 694.523 149.056L692.862 148.692C691.945 148.483 691.268 148.151 690.829 147.695C690.394 147.239 690.177 146.661 690.177 145.962C690.177 145.383 690.339 144.876 690.663 144.441C690.987 144.006 691.434 143.668 692.005 143.425C692.576 143.178 693.23 143.054 693.967 143.054C695.028 143.054 695.864 143.284 696.473 143.744C697.082 144.2 697.485 144.812 697.681 145.579ZM704.891 153V139.909H706.803V144.773H706.918C707.028 144.569 707.188 144.332 707.397 144.064C707.606 143.795 707.896 143.561 708.266 143.361C708.637 143.156 709.127 143.054 709.737 143.054C710.529 143.054 711.237 143.254 711.859 143.655C712.481 144.055 712.969 144.633 713.322 145.387C713.68 146.141 713.859 147.049 713.859 148.11C713.859 149.171 713.683 150.081 713.329 150.839C712.975 151.594 712.489 152.175 711.871 152.585C711.254 152.989 710.548 153.192 709.756 153.192C709.159 153.192 708.671 153.092 708.292 152.891C707.917 152.691 707.623 152.457 707.41 152.188C707.197 151.92 707.033 151.681 706.918 151.472H706.758V153H704.891ZM706.764 148.091C706.764 148.781 706.864 149.386 707.065 149.906C707.265 150.426 707.555 150.833 707.934 151.127C708.313 151.417 708.778 151.562 709.327 151.562C709.898 151.562 710.376 151.411 710.759 151.108C711.143 150.801 711.433 150.386 711.629 149.862C711.829 149.337 711.929 148.747 711.929 148.091C711.929 147.443 711.831 146.862 711.635 146.346C711.443 145.83 711.153 145.423 710.766 145.125C710.382 144.827 709.903 144.678 709.327 144.678C708.773 144.678 708.305 144.82 707.921 145.106C707.542 145.391 707.254 145.79 707.058 146.301C706.862 146.812 706.764 147.409 706.764 148.091ZM718.863 153.217C718.241 153.217 717.678 153.102 717.175 152.872C716.672 152.638 716.274 152.299 715.98 151.856C715.69 151.413 715.545 150.869 715.545 150.226C715.545 149.672 715.652 149.216 715.865 148.858C716.078 148.5 716.366 148.217 716.728 148.008C717.09 147.799 717.495 147.641 717.942 147.535C718.39 147.428 718.846 147.347 719.31 147.292C719.898 147.224 720.376 147.168 720.742 147.126C721.108 147.079 721.375 147.004 721.541 146.902C721.707 146.8 721.79 146.634 721.79 146.403V146.359C721.79 145.8 721.633 145.368 721.317 145.061C721.006 144.754 720.542 144.601 719.924 144.601C719.28 144.601 718.773 144.744 718.403 145.029C718.036 145.31 717.782 145.624 717.642 145.969L715.846 145.56C716.059 144.963 716.37 144.482 716.779 144.115C717.192 143.744 717.667 143.476 718.204 143.31C718.741 143.139 719.306 143.054 719.898 143.054C720.29 143.054 720.706 143.101 721.145 143.195C721.588 143.284 722.001 143.45 722.385 143.693C722.773 143.936 723.09 144.283 723.337 144.735C723.584 145.183 723.708 145.764 723.708 146.48V153H721.841V151.658H721.765C721.641 151.905 721.456 152.148 721.209 152.386C720.961 152.625 720.644 152.823 720.256 152.981C719.868 153.138 719.404 153.217 718.863 153.217ZM719.278 151.683C719.807 151.683 720.258 151.579 720.633 151.37C721.013 151.161 721.3 150.888 721.496 150.552C721.697 150.211 721.797 149.847 721.797 149.459V148.193C721.729 148.261 721.596 148.325 721.4 148.385C721.209 148.44 720.989 148.489 720.742 148.532C720.495 148.57 720.254 148.607 720.02 148.641C719.785 148.67 719.589 148.696 719.432 148.717C719.061 148.764 718.722 148.843 718.415 148.954C718.113 149.065 717.87 149.224 717.687 149.433C717.508 149.638 717.418 149.911 717.418 150.251C717.418 150.724 717.593 151.082 717.942 151.325C718.292 151.564 718.737 151.683 719.278 151.683ZM726.254 153V143.182H728.101V144.741H728.203C728.382 144.213 728.697 143.798 729.149 143.495C729.605 143.188 730.121 143.035 730.696 143.035C730.815 143.035 730.956 143.039 731.118 143.048C731.284 143.056 731.414 143.067 731.508 143.08V144.908C731.431 144.886 731.295 144.863 731.099 144.837C730.903 144.808 730.707 144.793 730.511 144.793C730.059 144.793 729.656 144.888 729.303 145.08C728.953 145.268 728.676 145.53 728.472 145.866C728.267 146.199 728.165 146.578 728.165 147.004V153H726.254Z" fill="white" />
		<rect x="450" y="49" width="312" height="132" rx="8" stroke="white" stroke-width="8" />
	</g>
	<defs>
		<clipPath id="clip0_1156_25046">
			<rect width="1200" height="800" fill="white" />
		</clipPath>
	</defs>
</svg>
