<svg width="1200" height="800" viewBox="0 0 1200 800" fill="none" xmlns="http://www.w3.org/2000/svg">
	<g clip-path="url(#clip0_1295_21451)">
		<rect width="1200" height="800" fill="white" />
		<g clip-path="url(#clip1_1295_21451)">
			<rect x="41" y="40" width="1119" height="338" rx="40" fill="#8FA1B2" />
			<rect x="342.975" y="140.975" width="753.051" height="136.051" rx="68.0254" stroke="#B8C2CC" stroke-width="7.94911" />
			<rect x="398" y="185" width="380" height="48" rx="24" fill="#E4EBF2" />
			<rect x="976" y="177" width="64" height="64" rx="32" fill="#E4EBF2" />
			<rect x="894" y="177" width="64" height="64" rx="32" fill="#E4EBF2" />
		</g>
		<g clip-path="url(#clip2_1295_21451)">
			<rect x="41" y="418" width="1119" height="338" rx="40" fill="#8FA1B2" />
			<rect x="342.975" y="518.975" width="753.051" height="136.051" rx="68.0254" stroke="#B8C2CC" stroke-width="7.94911" />
			<rect x="398" y="563" width="380" height="48" rx="24" fill="#E4EBF2" />
			<rect x="976" y="555" width="64" height="64" rx="32" fill="#E4EBF2" />
			<rect x="894" y="555" width="64" height="64" rx="32" fill="#E4EBF2" />
		</g>
		<rect opacity="0.5" width="1200" height="800" fill="#04192D" />
		<path d="M141 254H237C237 254 301.5 427.553 301.5 553.331C301.5 679.108 78.5 670.333 78.5 552.355C78.5 434.378 141 254 141 254Z" fill="url(#paint0_linear_1295_21451)" />
		<path fill-rule="evenodd" clip-rule="evenodd" d="M224.375 202.125C224.375 221.11 208.985 236.5 190 236.5C171.015 236.5 155.625 221.11 155.625 202.125C155.625 183.14 171.015 167.75 190 167.75C208.985 167.75 224.375 183.14 224.375 202.125Z" fill="#495D6F" />
		<path fill-rule="evenodd" clip-rule="evenodd" d="M235.404 245.347C230.842 234.857 230.056 225.969 229.934 222.476V193.743C229.934 171.793 212.051 154 189.993 154C167.933 154 150.049 171.793 150.049 193.743V222.892C149.879 226.649 148.983 235.265 144.597 245.347C138.702 258.893 143.58 257.279 147.95 256.164C152.319 255.054 162.077 250.703 165.125 256.063C168.173 261.42 170.715 266.073 177.828 263.039C184.942 260.007 188.295 258.996 189.31 258.996H190.692C191.706 258.996 195.06 260.007 202.173 263.039C209.287 266.073 211.828 261.42 214.877 256.063C217.924 250.703 227.681 255.054 232.051 256.164C236.421 257.279 241.297 258.893 235.404 245.347ZM177.664 175.671C181.967 175.671 185.454 181.162 185.454 187.938C185.454 194.713 181.967 200.206 177.664 200.206C173.362 200.206 169.874 194.713 169.874 187.938C169.874 181.162 173.362 175.671 177.664 175.671ZM189.993 224.702C180.513 224.702 172.532 215.418 170.128 205.088C174.772 211.442 181.941 215.525 189.993 215.525C198.044 215.525 205.213 211.442 209.858 205.088C207.453 215.418 199.471 224.702 189.993 224.702ZM202.322 200.206C198.017 200.206 194.53 194.713 194.53 187.938C194.53 181.162 198.017 175.671 202.322 175.671C206.626 175.671 210.111 181.162 210.111 187.938C210.111 194.713 206.626 200.206 202.322 200.206Z" fill="white" />
		<rect x="102.592" y="121.592" width="174.816" height="174.816" rx="40.187" stroke="white" stroke-width="5.1842" />
		<rect x="100" y="507" width="180" height="180" rx="42.7791" fill="white" />
		<path d="M190 547.002C181.223 547.002 172.601 549.312 165 553.701C157.399 558.089 151.087 564.401 146.699 572.002" stroke="#FC9734" stroke-width="28.2355" />
		<path d="M146.699 572.002C143.416 577.688 141.285 583.966 140.428 590.476C139.571 596.986 140.004 603.601 141.704 609.943" stroke="#556FCD" stroke-width="28.2355" />
		<path d="M141.704 609.943C143.403 616.286 146.335 622.231 150.332 627.44C154.33 632.65 159.314 637.021 165 640.304" stroke="#87D7EF" stroke-width="28.2355" />
		<path d="M165 640.304C171.642 644.138 179.077 646.394 186.73 646.895C194.383 647.397 202.049 646.131 209.134 643.196C216.22 640.261 222.536 635.736 227.592 629.97C232.649 624.203 236.312 617.351 238.297 609.943C240.282 602.535 240.536 594.77 239.04 587.248C237.543 579.726 234.337 572.649 229.668 566.564C224.999 560.479 218.993 555.55 212.115 552.158C205.236 548.766 197.67 547.002 190 547.002" stroke="#CB55CD" stroke-width="28.2355" />
		<rect x="102.592" y="509.592" width="174.816" height="174.816" rx="40.187" stroke="white" stroke-width="5.1842" />
		<rect x="89.3052" y="496.305" width="201.39" height="201.39" rx="53.4739" stroke="white" stroke-opacity="0.2" stroke-width="21.3896" />
	</g>
	<defs>
		<linearGradient id="paint0_linear_1295_21451" x1="190" y1="254" x2="190" y2="621.094" gradientUnits="userSpaceOnUse">
			<stop stop-color="#6D7D8C" />
			<stop offset="1" stop-color="#6D7D8C" stop-opacity="0" />
		</linearGradient>
		<clipPath id="clip0_1295_21451">
			<rect width="1200" height="800" fill="white" />
		</clipPath>
		<clipPath id="clip1_1295_21451">
			<rect x="41" y="40" width="1119" height="338" rx="40" fill="white" />
		</clipPath>
		<clipPath id="clip2_1295_21451">
			<rect x="41" y="418" width="1119" height="338" rx="40" fill="white" />
		</clipPath>
	</defs>
</svg>
