<svg width="120" height="80" viewBox="0 0 120 80" fill="none" xmlns="http://www.w3.org/2000/svg">
	<g clip-path="url(#clip0_1295_21493)">
		<rect width="120" height="80" fill="white" />
		<rect width="144" height="24" transform="translate(-24 31)" fill="#E4EBF2" />
		<g clip-path="url(#clip1_1295_21493)">
			<rect width="144" height="31" transform="translate(-24.0002)" fill="#8FA1B2" />
			<rect x="-14.2453" y="7.31641" width="21.6432" height="8.53533" rx="4.26766" fill="#8FA1B3" />
			<rect x="30.0539" y="8.63603" width="228.48" height="14.2538" rx="7.12691" stroke="#B8C2CC" stroke-width="0.83846" />
			<rect x="35.9226" y="14.5059" width="61.6268" height="2.51538" rx="1.25769" fill="#E4EBF2" />
		</g>
		<g clip-path="url(#clip2_1295_21493)">
			<rect width="144" height="24" transform="translate(-24 31)" fill="#E4EBF2" />
		</g>
		<rect x="10" y="59" width="110" height="34" rx="1.829" fill="#8FA1B3" />
		<g clip-path="url(#clip3_1295_21493)">
			<rect width="144" height="31" transform="translate(-24.0002)" fill="#8FA1B2" />
			<rect x="-14.2453" y="7.31641" width="21.6432" height="8.53533" rx="4.26766" fill="#8FA1B3" />
			<rect x="30.0539" y="8.63603" width="228.48" height="14.2538" rx="7.12691" stroke="#B8C2CC" stroke-width="0.83846" />
			<rect x="35.9226" y="14.5059" width="61.6268" height="2.51538" rx="1.25769" fill="#E4EBF2" />
		</g>
		<rect opacity="0.5" width="120" height="80" fill="#04192D" />
		<path fill-rule="evenodd" clip-rule="evenodd" d="M20.1842 15.1387C20.1842 16.8646 18.7851 18.2637 17.0592 18.2637C15.3333 18.2637 13.9342 16.8646 13.9342 15.1387C13.9342 13.4128 15.3333 12.0137 17.0592 12.0137C18.7851 12.0137 20.1842 13.4128 20.1842 15.1387Z" fill="#495D6F" />
		<path fill-rule="evenodd" clip-rule="evenodd" d="M21.1868 19.0679C20.7721 18.1143 20.7007 17.3063 20.6896 16.9888V14.3767C20.6896 12.3812 19.0639 10.7637 17.0586 10.7637C15.0531 10.7637 13.4273 12.3812 13.4273 14.3767V17.0266C13.4119 17.3681 13.3304 18.1514 12.9317 19.0679C12.3958 20.2994 12.8393 20.1526 13.2365 20.0513C13.6337 19.9504 14.5208 19.5549 14.7979 20.0421C15.0749 20.5292 15.306 20.9521 15.9527 20.6763C16.5994 20.4007 16.9042 20.3088 16.9965 20.3088H17.1221C17.2144 20.3088 17.5192 20.4007 18.1659 20.6763C18.8126 20.9521 19.0436 20.5292 19.3207 20.0421C19.5978 19.5549 20.4848 19.9504 20.8821 20.0513C21.2793 20.1526 21.7226 20.2994 21.1868 19.0679ZM15.9378 12.7338C16.3289 12.7338 16.646 13.2329 16.646 13.8489C16.646 14.4648 16.3289 14.9642 15.9378 14.9642C15.5467 14.9642 15.2296 14.4648 15.2296 13.8489C15.2296 13.2329 15.5467 12.7338 15.9378 12.7338ZM17.0586 17.1911C16.1968 17.1911 15.4713 16.3472 15.2526 15.4081C15.6749 15.9857 16.3266 16.3569 17.0586 16.3569C17.7905 16.3569 18.4422 15.9857 18.8645 15.4081C18.6459 16.3472 17.9203 17.1911 17.0586 17.1911ZM18.1794 14.9642C17.788 14.9642 17.4711 14.4648 17.4711 13.8489C17.4711 13.2329 17.788 12.7338 18.1794 12.7338C18.5707 12.7338 18.8875 13.2329 18.8875 13.8489C18.8875 14.4648 18.5707 14.9642 18.1794 14.9642Z" fill="white" />
		<rect x="9.7227" y="8.42641" width="14.6731" height="14.6731" rx="3.2498" stroke="white" stroke-width="0.41923" />
		<rect x="8.64784" y="7.35194" width="16.822" height="16.822" rx="4.32427" stroke="white" stroke-opacity="0.2" stroke-width="1.72971" />
		<path opacity="0.3" d="M9.5 20.5L23.5 9L73.5 20.5L41.5 56L9.5 20.5Z" fill="url(#paint0_linear_1295_21493)" />
		<rect x="40" y="20" width="40" height="40" rx="9.50647" fill="white" />
		<path d="M60.0002 28.8887C58.0497 28.8887 56.1337 29.4021 54.4446 30.3773C52.7555 31.3525 51.3528 32.7551 50.3776 34.4443" stroke="#FC9734" stroke-width="6.27456" />
		<path d="M50.3776 34.4443C49.648 35.7079 49.1745 37.1029 48.9841 38.5495C48.7936 39.9962 48.89 41.4662 49.2676 42.8756" stroke="#556FCD" stroke-width="6.27456" />
		<path d="M49.2676 42.8756C49.6453 44.285 50.2968 45.6063 51.1851 46.7639C52.0734 47.9215 53.1809 48.8928 54.4446 49.6224" stroke="#87D7EF" stroke-width="6.27456" />
		<path d="M54.4446 49.6224C55.9206 50.4745 57.5728 50.9757 59.2735 51.0872C60.9741 51.1987 62.6776 50.9174 64.2522 50.2652C65.8268 49.613 67.2302 48.6073 68.354 47.3259C69.4777 46.0446 70.2916 44.5219 70.7327 42.8756C71.1738 41.2294 71.2303 39.5037 70.8978 37.8322C70.5653 36.1606 69.8528 34.5879 68.8152 33.2358C67.7777 31.8837 66.4431 30.7883 64.9145 30.0345C63.3859 29.2807 61.7045 28.8887 60.0002 28.8887" stroke="#CB55CD" stroke-width="6.27456" />
		<rect x="40.5761" y="20.576" width="38.848" height="38.848" rx="8.93045" stroke="white" stroke-width="1.15204" />
		<rect x="37.6234" y="17.6234" width="44.7532" height="44.7532" rx="11.8831" stroke="white" stroke-opacity="0.2" stroke-width="4.75324" />
	</g>
	<defs>
		<linearGradient id="paint0_linear_1295_21493" x1="38.5" y1="33.5" x2="17.5" y2="15" gradientUnits="userSpaceOnUse">
			<stop stop-color="white" />
			<stop offset="1" stop-color="white" stop-opacity="0" />
		</linearGradient>
		<clipPath id="clip0_1295_21493">
			<rect width="120" height="80" fill="white" />
		</clipPath>
		<clipPath id="clip1_1295_21493">
			<rect width="144" height="31" fill="white" transform="translate(-24.0002)" />
		</clipPath>
		<clipPath id="clip2_1295_21493">
			<rect width="144" height="24" fill="white" transform="translate(-24 31)" />
		</clipPath>
		<clipPath id="clip3_1295_21493">
			<rect width="144" height="31" fill="white" transform="translate(-24.0002)" />
		</clipPath>
	</defs>
</svg>
