<svg width="120" height="80" viewBox="0 0 120 80" fill="none" xmlns="http://www.w3.org/2000/svg">
	<g clip-path="url(#clip0_819_9707)">
		<rect width="120" height="80" fill="white" />
		<g clip-path="url(#clip1_819_9707)">
			<rect width="120" height="80" fill="white" />
			<rect x="10" y="3.3335" width="4.66667" height="4.66667" rx="1.4" fill="#8FA1B3" />
			<rect x="15.6667" y="3.66699" width="8" height="1" rx="0.5" fill="#B8C2CC" />
			<rect x="15.6667" y="5.66699" width="34" height="2" rx="1" fill="#8FA1B3" />
			<rect x="87.9999" y="3" width="9" height="4" rx="1" fill="#8FA1B3" />
			<rect x="97.9999" y="3" width="11" height="4" rx="1" fill="#8FA1B3" />
			<rect x="16" y="12.9004" width="54" height="1.2" rx="0.6" fill="#B8C2CC" />
			<rect x="16" y="15.9004" width="54" height="1.2" rx="0.6" fill="#B8C2CC" />
			<rect x="16" y="18.9004" width="44" height="1.2" rx="0.6" fill="#B8C2CC" />
			<rect x="10" y="28" width="23" height="9" rx="0.8" fill="#E4EBF2" />
			<rect x="9.69995" y="46.0996" width="29" height="1" rx="0.5" fill="#B8C2CC" />
			<rect x="61" y="46.0996" width="29" height="1" rx="0.5" fill="#B8C2CC" />
			<rect x="9.69995" y="48" width="29" height="1" rx="0.5" fill="#B8C2CC" />
			<path d="M24.6666 62.0002C24.6666 62.8756 24.4942 63.7425 24.1592 64.5514C23.8241 65.3602 23.3331 66.0952 22.714 66.7142C22.095 67.3333 21.36 67.8243 20.5512 68.1594C19.7424 68.4944 18.8755 68.6668 18 68.6668C17.1245 68.6668 16.2576 68.4944 15.4488 68.1594C14.6399 67.8243 13.905 67.3333 13.2859 66.7142C12.6669 66.0952 12.1758 65.3602 11.8408 64.5514C11.5058 63.7425 11.3333 62.8756 11.3333 62.0002C11.3333 61.1247 11.5058 60.2578 11.8408 59.4489C12.1758 58.6401 12.6669 57.9052 13.2859 57.2861C13.905 56.6671 14.6399 56.176 15.4488 55.841C16.2576 55.5059 17.1245 55.3335 18 55.3335C18.8755 55.3335 19.7424 55.5059 20.5512 55.841C21.36 56.176 22.095 56.6671 22.714 57.2861C23.3331 57.9052 23.8241 58.6401 24.1592 59.4489C24.4942 60.2578 24.6666 61.1247 24.6666 62.0002L24.6666 62.0002Z" stroke="white" stroke-width="2.66667" stroke-linecap="round" stroke-linejoin="round" />
			<path d="M18 55.3335C16.8297 55.3335 15.6801 55.6415 14.6666 56.2267C13.6532 56.8118 12.8116 57.6534 12.2265 58.6668" stroke="#D5DBE5" stroke-width="1.33333" stroke-linecap="round" stroke-linejoin="round" />
			<path d="M11.5605 60.2747C11.2576 61.4051 11.2576 62.5953 11.5605 63.7256" stroke="#EF671E" stroke-width="1.33333" stroke-linecap="round" stroke-linejoin="round" />
			<path d="M12.2265 65.3335C12.5178 65.838 12.874 66.3022 13.2859 66.7142" stroke="#8459A5" stroke-width="1.33333" stroke-linecap="round" stroke-linejoin="round" />
			<path d="M14.6666 67.7737C15.4248 68.2114 16.2618 68.4955 17.1298 68.6098C17.9978 68.7241 18.8798 68.6663 19.7254 68.4397" stroke="#FC9734" stroke-width="1.33333" stroke-linecap="round" stroke-linejoin="round" />
			<path d="M21.3333 67.7737C22.3468 67.1885 23.1884 66.347 23.7735 65.3335" stroke="#556FCD" stroke-width="1.33333" stroke-linecap="round" stroke-linejoin="round" />
			<path d="M24.4395 63.7256C24.6661 62.88 24.7239 61.998 24.6096 61.13C24.4953 60.262 24.2112 59.425 23.7735 58.6668" stroke="#87D7EF" stroke-width="1.33333" stroke-linecap="round" stroke-linejoin="round" />
			<path d="M22.714 57.2861C21.8865 56.4586 20.8558 55.8635 19.7254 55.5607" stroke="#CB55CD" stroke-width="1.33333" stroke-linecap="round" stroke-linejoin="round" />
			<rect x="14" y="60" width="8" height="4" rx="1.4" fill="#8FA1B3" />
			<rect x="28" y="54.75" width="1" height="0.5" rx="0.25" fill="#CB55CD" />
			<rect x="31" y="54.5" width="8.80628" height="1.3" rx="0.65" fill="#8FA1B3" />
			<rect x="54" y="54.5" width="2.5" height="1" rx="0.5" fill="#8FA1B3" />
			<rect x="29.9999" y="56.6665" width="26.6667" height="0.0833333" fill="#DFE3EB" />
			<rect x="28" y="58.1665" width="1" height="0.5" rx="0.25" fill="#87D7EF" />
			<rect x="31" y="57.9165" width="8.80628" height="1.3" rx="0.65" fill="#8FA1B3" />
			<rect x="54" y="57.9165" width="2.5" height="1" rx="0.5" fill="#8FA1B3" />
			<rect x="29.9999" y="60.083" width="26.6667" height="0.0833333" fill="#DFE3EB" />
			<rect x="28" y="61.5835" width="1" height="0.5" rx="0.25" fill="#556FCD" />
			<rect x="31" y="61.3335" width="8.80628" height="1.3" rx="0.65" fill="#8FA1B3" />
			<rect x="54" y="61.3335" width="2.5" height="1" rx="0.5" fill="#8FA1B3" />
			<rect x="29.9999" y="63.5" width="26.6667" height="0.0833333" fill="#DFE3EB" />
			<rect x="28" y="65" width="1" height="0.5" rx="0.25" fill="#FC9734" />
			<rect x="31" y="64.75" width="8.80628" height="1.3" rx="0.65" fill="#8FA1B3" />
			<rect x="54" y="64.75" width="2.5" height="1" rx="0.5" fill="#8FA1B3" />
			<rect x="29.9999" y="66.9165" width="26.6667" height="0.0833333" fill="#DFE3EB" />
			<rect x="28" y="68.4165" width="1" height="0.5" rx="0.25" fill="#EF671E" />
			<rect x="31" y="68.1665" width="8.80628" height="1.3" rx="0.65" fill="#8FA1B3" />
			<rect x="54" y="68.1665" width="2.5" height="1" rx="0.5" fill="#8FA1B3" />
			<rect x="29.9999" y="70.333" width="26.6667" height="0.0833333" fill="#DFE3EB" />
			<rect x="28" y="71.8335" width="1" height="0.5" rx="0.25" fill="#D5DBE5" />
			<rect x="31" y="71.5835" width="8.80628" height="1.3" rx="0.65" fill="#8FA1B3" />
			<rect x="54" y="71.5835" width="2.5" height="1" rx="0.5" fill="#8FA1B3" />
			<rect x="61" y="48" width="29" height="1" rx="0.5" fill="#B8C2CC" />
			<line x1="63.6538" y1="54.7497" x2="107.178" y2="54.7497" stroke="#8FA1B2" stroke-width="0.057332" stroke-linecap="round" />
			<line x1="63.6538" y1="59.4508" x2="107.178" y2="59.4508" stroke="#8FA1B2" stroke-width="0.057332" stroke-linecap="round" />
			<line x1="63.6538" y1="64.1515" x2="107.178" y2="64.1515" stroke="#8FA1B2" stroke-width="0.057332" stroke-linecap="round" />
			<line x1="63.6538" y1="68.8527" x2="107.178" y2="68.8527" stroke="#8FA1B2" stroke-width="0.057332" stroke-linecap="round" />
			<line x1="63.6538" y1="73.0416" x2="107.178" y2="73.0416" stroke="#8FA1B2" stroke-width="0.057332" stroke-linecap="round" />
			<line x1="63.6538" y1="76.7165" x2="107.178" y2="76.7165" stroke="#8FA1B2" stroke-width="0.057332" stroke-linecap="round" />
			<path d="M62.9165 71.0166L64.5208 68.554L65.7028 69.6094L66.9694 68.554L68.2359 67.4986L69.8401 68.554L71.0222 67.4986L72.1199 65.3877L73.5975 63.2769L75.0751 61.5178H76.5527L78.1147 60.4624L79.2124 61.5178H79.8456L80.901 63.2769L82.1253 65.8055L83.3919 65.5856H83.8562L84.9117 63.2769L86.0093 61.5178L86.9803 60.4624L88.8801 59.407L89.5134 56.9443L90.9065 55.8889L92.5108 54.8335H93.1863C93.4536 55.1853 94.0053 55.8889 94.0728 55.8889C94.1404 55.8889 95.0016 56.5925 95.4238 56.9443L96.5214 59.407H97.8302L99.0967 56.9443L99.9832 57.9998L101.672 59.407L102.727 57.9998L104.543 56.9443C104.754 56.5925 105.193 55.8889 105.26 55.8889C105.328 55.8889 106.02 55.6602 106.02 55.6602H106.865L107.498 55.2029" stroke="#8FA1B2" stroke-width="0.6" stroke-linecap="round" stroke-linejoin="round" />
			<path d="M107 69.6957L105.417 68.4783L104.25 69L103 68.4783L101.75 67.9565L100.167 68.4783L98.9999 67.9565L97.9165 66.913L96.4582 65.8696L94.9999 65L93.5415 68.4783L91.9999 67.9565L90.9165 68.4783H90.2915L89.2499 70.5652L88.0415 71.8152L86.7915 71.7065H86.3332L85.2915 73.1739L84.2082 72.3043L83.2499 71.7826L81.3749 71.2609L80.7499 70.0435L79.3749 69.5217L77.7915 69H77.1249C76.861 69.1739 76.3165 69.5217 76.2499 69.5217C76.1832 69.5217 75.3332 69.8696 74.9165 70.0435L73.8332 71.2609H72.5415L71.2915 70.0435L70.4165 70.5652L68.7499 71.2609L67.7082 70.5652L65.9165 70.0435C65.7082 69.8696 65.2749 69.5217 65.2082 69.5217C65.1415 69.5217 64.4582 69.4087 64.4582 69.4087H63.6249L62.9999 69.1826" stroke="#8FA1B2" stroke-width="0.6" stroke-linecap="round" stroke-linejoin="round" />
			<path d="M62.9999 82.0005L64.5832 80.6309L65.7499 81.2179L66.9999 80.6309L68.2499 80.044L69.8332 80.6309L70.9999 80.044L72.0832 78.8701L73.5415 77.6961L74.9999 76.7179H76.4582L77.9999 76.1309L79.0832 76.7179H79.7082L80.7499 77.6961L81.9582 79.1024L83.2082 78.9801H83.6665L84.7082 77.6961L85.7915 76.7179L86.7499 76.1309L88.6249 75.544L89.2499 74.1744L90.6249 73.5874L92.2082 73.0005H92.8749C93.1388 73.1961 93.6832 73.5874 93.7499 73.5874C93.8165 73.5874 94.6665 73.9787 95.0832 74.1744L96.1665 75.544H97.4582L98.7082 74.1744L99.5832 74.7614L101.25 75.544L102.292 74.7614L104.083 74.1744C104.292 73.9787 104.725 73.5874 104.792 73.5874C104.858 73.5874 105.542 73.4603 105.542 73.4603H106.375L107 73.2059" stroke="#8FA1B2" stroke-width="0.6" stroke-linecap="round" stroke-linejoin="round" />
			<rect x="9.69995" y="44" width="8.80628" height="1.3" rx="0.65" fill="#8FA1B3" />
			<rect x="61" y="44" width="8.80628" height="1.3" rx="0.65" fill="#8FA1B3" />
			<rect x="36" y="28" width="23" height="9" rx="0.8" fill="#E4EBF2" />
			<rect x="61" y="28" width="23" height="9" rx="0.8" fill="#E4EBF2" />
			<rect x="87" y="28" width="23" height="9" rx="0.8" fill="#E4EBF2" />
		</g>
		<rect opacity="0.5" width="120" height="80" fill="#04192D" />
		<rect x="40" y="20" width="40" height="40" rx="9.50647" fill="white" />
		<rect x="37.6234" y="17.6234" width="44.7532" height="44.7532" rx="11.8831" stroke="white" stroke-opacity="0.2" stroke-width="4.75324" />
		<rect x="40.5761" y="20.576" width="38.848" height="38.848" rx="8.93045" stroke="white" stroke-width="1.15204" />
		<path d="M62 39H56M58 43H56M64 35H56M68 38V34.8C68 33.1198 68 32.2798 67.673 31.638C67.3854 31.0735 66.9265 30.6146 66.362 30.327C65.7202 30 64.8802 30 63.2 30H56.8C55.1198 30 54.2798 30 53.638 30.327C53.0735 30.6146 52.6146 31.0735 52.327 31.638C52 32.2798 52 33.1198 52 34.8V45.2C52 46.8802 52 47.7202 52.327 48.362C52.6146 48.9265 53.0735 49.3854 53.638 49.673C54.2798 50 55.1198 50 56.8 50H60.5M66 49C66 49 69 47.5701 69 45.4252V42.9229L66.8124 42.1412C66.2868 41.9529 65.712 41.9529 65.1864 42.1412L63 42.9229V45.4252C63 47.5701 66 49 66 49Z" stroke="#0077CC" stroke-width="2" stroke-linecap="round" stroke-linejoin="round" />
	</g>
	<defs>
		<clipPath id="clip0_819_9707">
			<rect width="120" height="80" fill="white" />
		</clipPath>
		<clipPath id="clip1_819_9707">
			<rect width="120" height="80" fill="white" />
		</clipPath>
	</defs>
</svg>
