<svg width="161" height="160" viewBox="0 0 161 160" fill="none" xmlns="http://www.w3.org/2000/svg">
	<rect width="160" height="160" transform="translate(0.5)" fill="white" />
	<circle cx="80.5" cy="80" r="70" fill="#DFE3EB" />
	<path d="M121 80C121 85.2529 119.965 90.4543 117.955 95.3073C115.945 100.16 112.999 104.57 109.284 108.284C105.57 111.999 101.16 114.945 96.3073 116.955C91.4543 118.965 86.2529 120 81 120C75.7471 120 70.5457 118.965 65.6927 116.955C60.8396 114.945 56.4301 111.999 52.7157 108.284C49.0014 104.57 46.055 100.16 44.0448 95.3073C42.0346 90.4543 41 85.2529 41 80C41 74.7471 42.0346 69.5457 44.0448 64.6927C46.055 59.8396 49.0014 55.4301 52.7157 51.7157C56.4301 48.0014 60.8396 45.055 65.6927 43.0448C70.5457 41.0346 75.7471 40 81 40C86.2529 40 91.4543 41.0346 96.3073 43.0448C101.16 45.055 105.57 48.0014 109.284 51.7157C112.999 55.4301 115.945 59.8396 117.955 64.6927C119.965 69.5457 121 74.7471 121 80L121 80Z" stroke="white" stroke-width="16" stroke-linecap="round" stroke-linejoin="round" />
	<path d="M81 40C73.9785 40 67.0808 41.8483 61 45.359C54.9192 48.8697 49.8697 53.9192 46.359 60" stroke="#C3CAD9" stroke-width="8" stroke-linecap="round" stroke-linejoin="round" />
	<path d="M42.363 69.6472C40.5457 76.4295 40.5457 83.5705 42.363 90.3528" stroke="#EF671E" stroke-width="8" stroke-linecap="round" stroke-linejoin="round" />
	<path d="M46.359 100C48.1068 103.027 50.2439 105.812 52.7157 108.284" stroke="#8459A5" stroke-width="8" stroke-linecap="round" stroke-linejoin="round" />
	<path d="M61 114.641C65.5491 117.267 70.571 118.972 75.779 119.658C80.9869 120.343 86.2789 119.997 91.3528 118.637" stroke="#FC9734" stroke-width="8" stroke-linecap="round" stroke-linejoin="round" />
	<path d="M101 114.641C107.081 111.13 112.13 106.081 115.641 100" stroke="#556FCD" stroke-width="8" stroke-linecap="round" stroke-linejoin="round" />
	<path d="M119.637 90.3528C120.997 85.2789 121.343 79.9869 120.658 74.779C119.972 69.571 118.267 64.5491 115.641 60" stroke="#87D7EF" stroke-width="8" stroke-linecap="round" stroke-linejoin="round" />
	<path d="M109.284 51.7157C104.319 46.7508 98.135 43.1803 91.3528 41.363" stroke="#CB55CD" stroke-width="8" stroke-linecap="round" stroke-linejoin="round" />
	<path fill-rule="evenodd" clip-rule="evenodd" d="M93.5 77.5C93.5 84.4035 87.9035 90 81 90C74.0965 90 68.5 84.4035 68.5 77.5C68.5 70.5965 74.0965 65 81 65C87.9035 65 93.5 70.5965 93.5 77.5Z" fill="white" />
	<path fill-rule="evenodd" clip-rule="evenodd" d="M97.5104 93.217C95.8516 89.4025 95.5659 86.1704 95.5214 84.9005V74.452C95.5214 66.4701 89.0186 60 80.9975 60C72.9755 60 66.4724 66.4701 66.4724 74.452V85.0516C66.4105 86.4178 66.0845 89.551 64.4897 93.217C62.3461 98.143 64.1201 97.5559 65.7092 97.1507C67.2979 96.747 70.8462 95.1648 71.9547 97.1139C73.0627 99.062 73.9871 100.754 76.5738 99.6507C79.1608 98.548 80.3798 98.1805 80.7491 98.1805H81.2516C81.6205 98.1805 82.8399 98.548 85.4267 99.6507C88.0134 100.754 88.9374 99.062 90.0461 97.1139C91.1541 95.1648 94.7021 96.747 96.2914 97.1507C97.8804 97.5559 99.6535 98.143 97.5104 93.217ZM76.5143 67.8803C78.0787 67.8803 79.3469 69.8771 79.3469 72.341C79.3469 74.8047 78.0787 76.8021 76.5143 76.8021C74.9499 76.8021 73.6815 74.8047 73.6815 72.341C73.6815 69.8771 74.9499 67.8803 76.5143 67.8803ZM80.9975 85.7098C77.5501 85.7098 74.6481 82.3339 73.7737 78.5776C75.4627 80.888 78.0696 82.3728 80.9975 82.3728C83.9251 82.3728 86.5318 80.888 88.221 78.5776C87.3466 82.3339 84.4442 85.7098 80.9975 85.7098ZM85.4806 76.8021C83.9151 76.8021 82.6473 74.8047 82.6473 72.341C82.6473 69.8771 83.9151 67.8803 85.4806 67.8803C87.0459 67.8803 88.3132 69.8771 88.3132 72.341C88.3132 74.8047 87.0459 76.8021 85.4806 76.8021Z" fill="#00AEF0" />
	<circle cx="81" cy="80" r="56" stroke="#202C44" stroke-width="4" />
	<path d="M41 40L121 120" stroke="#202C44" stroke-width="4" />
</svg>
