<svg width="205" height="205" viewBox="0 0 205 205" xmlns="http://www.w3.org/2000/svg" xmlns:xlink="http://www.w3.org/1999/xlink">
	<defs>
		<path id="a" d="M54.924.674V38H0V.673h54.924z"/>
	</defs>
	<g transform="translate(27 27)" fill="none" fill-rule="evenodd">
		<circle fill="#DAF4FF" cx="75.5" cy="75.5" r="75.5"/>
		<path d="M33.65 14.66c1.223-.22 2.033-.9 1.978-2.262-.055-1.4-.96-2.035-2.25-1.986-1.24.06-2 .877-1.956 2.113.044 1.307.832 2.046 2.227 2.134M33.576 19c-3.716.016-6.55-2.752-6.577-6.414-.022-3.668 2.806-6.553 6.45-6.586 3.617-.027 6.528 2.852 6.55 6.48.022 3.757-2.685 6.503-6.423 6.52" fill="#930194"/>
		<path d="M128.65 137.66c1.223-.22 2.033-.9 1.978-2.262-.055-1.4-.96-2.035-2.25-1.986-1.24.06-2 .877-1.956 2.113.044 1.307.832 2.046 2.227 2.134m-.073 4.34c-3.716.016-6.55-2.752-6.577-6.414-.022-3.668 2.806-6.553 6.45-6.586 3.617-.027 6.528 2.852 6.55 6.48.022 3.757-2.685 6.503-6.423 6.52" fill="#CD5ACF"/>
		<path d="M9.354 42.69C7.787 42.563 5.97 42.677 6 40.482c.037-2.065 1.77-1.992 3.318-2.096.255-1.504-.058-3.502 2.312-3.382 2.077.11 1.926 1.842 2.05 3.356 1.553.188 3.49-.04 3.308 2.357-.15 1.998-1.78 1.852-3.28 1.935-.22 1.5.05 3.43-2.318 3.345-2.182-.078-1.812-1.898-2.036-3.308M68.525 38.495c-.713-.057-1.54-.005-1.525-1.003.017-.938.805-.905 1.508-.953.116-.684-.026-1.592 1.05-1.538.945.05.877.837.934 1.526.705.085 1.585-.02 1.503 1.07-.07.91-.81.843-1.492.88-.1.68.024 1.56-1.053 1.52-.992-.035-.824-.862-.925-1.503M121.473 85.577c.992 1.115 2.287 2.157.91 3.76-.925 1.078-1.922.855-3.874-.763-1.953 1.602-2.95 1.815-3.885.752-1.397-1.592-.062-2.64.904-3.775-.967-1.18-2.405-2.352-.828-3.898 1.48-1.446 2.625-.186 3.75.877 1.182-.914 2.338-2.402 3.87-.857 1.566 1.582.05 2.717-.85 3.904" fill="#00AEF0"/>
		<path d="M114.495 130c-1.287-.01-2.505-1.25-2.495-2.53.01-1.307 1.208-2.475 2.52-2.47 1.334.005 2.49 1.178 2.48 2.503-.01 1.313-1.214 2.507-2.505 2.497zM29.495 53c-1.287-.01-2.505-1.25-2.495-2.53.01-1.307 1.208-2.475 2.52-2.47 1.334.005 2.49 1.178 2.48 2.503-.01 1.313-1.214 2.507-2.505 2.497z" stroke="#4A4A4A" fill="#00AEF0"/>
		<path d="M5.627 103.993c1.418-.038 2.65 1.128 2.69 2.54.037 1.393-1.162 2.658-2.56 2.702-1.352.044-2.671-1.21-2.716-2.574-.037-1.38 1.173-2.628 2.586-2.667" fill="#00AEF0"/>
		<path d="M87.102 18.94c0 1.478-1.14 2.584-2.64 2.562-1.403-.022-2.514-1.095-2.563-2.48-.056-1.447 1.104-2.64 2.573-2.657 1.496-.022 2.63 1.09 2.63 2.574" fill="#4A4A4A"/>
		<path d="M160.47 46c-1.316-.022-2.496-1.242-2.47-2.558.027-1.36 1.175-2.463 2.547-2.442 1.367.016 2.48 1.157 2.453 2.52-.02 1.355-1.19 2.5-2.53 2.48" fill="#80D8ED"/>
		<path d="M105.502 147c-1.368.005-2.43-.997-2.498-2.363-.08-1.44.96-2.587 2.38-2.635 1.45-.053 2.578.997 2.615 2.427.036 1.402-1.098 2.565-2.498 2.57z" fill="#9ECC42"/>
		<g transform="translate(73 28)">
			<mask id="b" fill="#fff">
				<use xlink:href="#a"/>
			</mask>
			<path d="M28.75 35.62c5.356 0 10.708-.017 16.064.005 2.18.01 3.908-.855 5.274-2.503 3.26-3.936 3.335-10.607.173-14.65-1.144-1.46-2.583-2.466-4.47-2.66-.892-.09-1.8-.04-2.705-.042-1.146-.008-1.406-.215-1.69-1.33-.683-2.696-1.937-5.08-3.823-7.133C32.98 2.31 25.898 1.615 20.51 5.65c-2.147 1.61-3.713 3.684-4.777 6.138-.31.714-.785 1.026-1.542.993-.515-.018-1.03.004-1.55 0-2.653-.03-4.917.94-6.77 2.802-2.905 2.92-3.882 6.49-3.35 10.518.602 4.56 4.31 9.71 10.813 9.544 5.136-.128 10.277-.025 15.418-.025m14.812-22.263c1.192.095 2.343.073 3.448.304 2.244.473 3.943 1.838 5.287 3.654 3.816 5.155 3.428 13.25-.855 17.776-1.802 1.903-3.98 2.885-6.645 2.877-10.47-.027-20.943-.13-31.412.03-6.76.106-11.718-4.63-12.99-10.502-.99-4.546-.134-8.767 2.8-12.442 2.468-3.086 5.714-4.674 9.693-4.63.638.005.972-.166 1.284-.758 2.318-4.364 5.757-7.448 10.64-8.57 5.638-1.302 10.418.476 14.4 4.548 2.003 2.05 3.324 4.516 4.193 7.236.057.178.117.36.157.477" fill="#4A4A4A" mask="url(#b)"/>
		</g>
		<path d="M91.897 48.045c-.165-.27-.254-.442-.362-.596-.376-.544-.982-.7-1.52-.404-.554.305-.8.975-.486 1.565.707 1.34 1.437 2.665 2.205 3.97.4.678 1.243.796 1.76.222 1.035-1.156 2.02-2.362 2.992-3.573.33-.413.29-.9-.008-1.338-.3-.448-.76-.6-1.242-.448-.324.104-.597.376-.913.588.01-.09.013-.176.032-.256.838-3.504 4.296-5.38 7.683-4.17.805.287 1.433.043 1.69-.652.24-.654-.09-1.26-.86-1.563-1.738-.675-3.517-.75-5.28-.164-3.192 1.063-5.012 3.376-5.693 6.82m16.177 1.927c.184.297.273.467.384.62.367.506 1.03.66 1.538.366.524-.306.77-.965.476-1.517-.725-1.354-1.476-2.697-2.266-4.015-.378-.632-1.25-.747-1.722-.21-1.043 1.18-2.04 2.404-3.017 3.64-.348.442-.21 1.104.195 1.483.438.413 1.03.433 1.52.048.134-.11.26-.225.434-.376-.097 2.018-1.878 4.084-3.992 4.71-1.368.406-2.706.302-4.01-.27-.462-.203-.943-.194-1.238.19-.232.308-.427.813-.346 1.154.087.346.482.72.83.878 3.174 1.437 7.075.465 9.313-2.26 1.03-1.25 1.63-2.688 1.9-4.44m-6.81 13.995c-5.12 0-10.24-.106-15.354.026-6.478.165-10.174-5.045-10.77-9.656-.534-4.078.442-7.687 3.335-10.642 1.846-1.887 4.1-2.867 6.745-2.84.516.006 1.03-.016 1.543.006.754.03 1.228-.286 1.536-1.008 1.058-2.48 2.618-4.58 4.757-6.21 5.366-4.08 12.416-3.38 16.993 1.678 1.88 2.077 3.128 4.488 3.81 7.215.28 1.13.54 1.336 1.68 1.345.9.002 1.806-.05 2.696.044 1.878.196 3.31 1.213 4.452 2.69 3.15 4.09 3.07 10.843-.173 14.822-1.36 1.667-3.082 2.546-5.253 2.535-5.333-.025-10.667-.008-15.998-.008" fill="#FEFEFE"/>
		<path d="M108.405 49.91c-.28 1.687-.896 3.073-1.955 4.28-2.302 2.62-6.316 3.557-9.577 2.173-.36-.15-.768-.51-.854-.844-.084-.33.116-.818.355-1.112.3-.373.798-.378 1.273-.185 1.338.55 2.714.65 4.12.26 2.177-.604 4.01-2.59 4.11-4.537-.18.145-.312.26-.448.362-.503.373-1.115.355-1.565-.045-.415-.365-.556-1.002-.198-1.425 1-1.193 2.027-2.37 3.1-3.508.49-.52 1.382-.407 1.774.204.813 1.267 1.583 2.56 2.33 3.864.304.535.048 1.17-.49 1.46-.524.284-1.205.138-1.58-.35-.115-.15-.21-.313-.395-.6M92.434 48.017c.66-3.35 2.428-5.6 5.53-6.632 1.71-.572 3.438-.497 5.126.16.748.294 1.07.884.835 1.52-.25.676-.86.913-1.64.633-3.29-1.175-6.648.65-7.462 4.057-.02.078-.02.16-.032.25.308-.207.574-.472.89-.573.466-.147.912 0 1.204.435.288.428.328.9.008 1.3-.946 1.18-1.9 2.352-2.907 3.476-.5.558-1.32.443-1.71-.216-.744-1.27-1.453-2.56-2.14-3.86-.306-.574-.067-1.226.472-1.522.522-.29 1.11-.137 1.475.392.105.15.192.315.352.58" fill="#4A4A4A"/>
		<g>
			<path d="M90.235 109.78c-3.01-6.943-3.528-12.825-3.61-15.136V75.628c0-14.526-11.796-26.3-26.347-26.3-14.553 0-26.35 11.774-26.35 26.3v19.29c-.113 2.487-.704 8.19-3.597 14.86-3.888 8.966-.67 7.897 2.213 7.16 2.882-.735 9.32-3.614 11.33-.067 2.01 3.546 3.687 6.625 8.38 4.618 4.693-2.007 6.905-2.676 7.575-2.676h.91c.67 0 2.883.67 7.575 2.676 4.693 2.007 6.37-1.072 8.38-4.617 2.01-3.546 8.447-.667 11.33.068 2.883.737 6.1 1.806 2.212-7.16" fill="#00AEF0"/>
			<path d="M85.7 109.78c-3.01-6.943-3.528-12.825-3.61-15.136V75.628c0-14.526-11.796-26.3-26.347-26.3-14.553 0-26.35 11.774-26.35 26.3v19.29c-.113 2.487-.704 8.19-3.598 14.86-3.888 8.966-.67 7.897 2.213 7.16 2.882-.735 9.32-3.614 11.33-.067 2.01 3.546 3.687 6.625 8.38 4.618 4.693-2.007 6.904-2.676 7.574-2.676h.912c.67 0 2.88.67 7.574 2.676 4.693 2.007 6.37-1.072 8.38-4.617 2.01-3.546 8.447-.667 11.33.068 2.883.737 6.1 1.806 2.21-7.16" stroke="#4A4A4A" stroke-width="3"/>
			<path d="M90.235 109.78c-3.01-6.943-3.528-12.825-3.61-15.136V75.628c0-14.526-11.796-26.3-26.347-26.3-14.553 0-26.35 11.774-26.35 26.3v19.29c-.113 2.487-.704 8.19-3.597 14.86-3.888 8.966-.67 7.897 2.213 7.16 2.882-.735 9.32-3.614 11.33-.067 2.01 3.546 3.687 6.625 8.38 4.618 4.693-2.007 6.905-2.676 7.575-2.676h.91c.67 0 2.883.67 7.575 2.676 4.693 2.007 6.37-1.072 8.38-4.617 2.01-3.546 8.447-.667 11.33.068 2.883.737 6.1 1.806 2.212-7.16" fill="#00AEF0"/>
			<path d="M85.7 109.78c-3.01-6.943-3.528-12.825-3.61-15.136V75.628c0-14.526-11.796-26.3-26.347-26.3-14.553 0-26.35 11.774-26.35 26.3v19.29c-.113 2.487-.704 8.19-3.598 14.86-3.888 8.966-.67 7.897 2.213 7.16 2.882-.735 9.32-3.614 11.33-.067 2.01 3.546 3.687 6.625 8.38 4.618 4.693-2.007 6.904-2.676 7.574-2.676h.912c.67 0 2.88.67 7.574 2.676 4.693 2.007 6.37-1.072 8.38-4.617 2.01-3.546 8.447-.667 11.33.068 2.883.737 6.1 1.806 2.21-7.16" stroke="#4A4A4A" stroke-width="3"/>
			<g fill="#4A4A4A">
				<path d="M47.314 60.247c2.856 0 5.172 3.598 5.172 8.04 0 4.44-2.316 8.04-5.172 8.04-2.857 0-5.173-3.6-5.173-8.04 0-4.442 2.317-8.04 5.174-8.04M55.332 92.087c-6.295 0-11.594-6.084-13.19-12.854 3.083 4.164 7.843 6.84 13.19 6.84 5.346 0 10.105-2.676 13.19-6.84-1.597 6.77-6.897 12.854-13.19 12.854M63.88 76.326c-2.86 0-5.175-3.6-5.175-8.04 0-4.44 2.315-8.04 5.174-8.04 2.857 0 5.17 3.6 5.17 8.04 0 4.44-2.313 8.04-5.17 8.04"/>
			</g>
		</g>
	</g>
</svg>
