<svg width="205" height="205" viewBox="0 0 205 205" xmlns="http://www.w3.org/2000/svg" xmlns:xlink="http://www.w3.org/1999/xlink">
	<defs>
		<path id="a" d="M3 3h89v50H3z"/>
	</defs>
	<g fill="none" fill-rule="evenodd">
		<circle cx="75.5" cy="75.5" r="75.5" transform="translate(27 27)" fill="#DAF4FF"/>
		<path fill="#FFF" d="M78.856 36.864h82.91v49.384h-82.91z"/>
		<path d="M119.242 85.25c12.145 0 24.29.002 36.438 0 3.097-.003 4.157-1.033 4.157-4.005 0-12.863 0-25.728-.003-38.59 0-2.77-1.144-3.914-3.953-3.914-24.327-.002-48.652-.002-72.977 0-2.893 0-4.05 1.138-4.054 3.93v38.69c0 .308-.013.622.016.928.16 1.695 1.26 2.774 2.99 2.917.488.042.985.044 1.48.044h35.906m9.842 3.792c-6.386-.002-12.774.01-19.163-.022l-4.752.017h-1.263c-6.99 0-13.986.003-20.98 0-5.074-.003-7.92-2.777-7.92-7.746-.005-12.9-.01-25.803.004-38.704.002-4.24 2.08-6.735 6.17-7.484.483-.085.983-.096 1.478-.096 24.508-.006 49.017-.01 73.528-.003 4.43 0 7.46 2.802 7.474 7.115.045 13.278.045 26.56 0 39.837-.015 4.258-3.072 7.065-7.528 7.08-7.1.016-14.198.002-21.296.002h-1.36l-4.288.005" fill="#4A4A4A"/>
		<path d="M130.4 57.362c0 5.145-4.316 9.318-9.64 9.318-5.323 0-9.64-4.173-9.64-9.318s4.317-9.317 9.64-9.317c5.324 0 9.64 4.172 9.64 9.317" stroke="#CD5ACF" stroke-width="3"/>
		<path d="M128.023 57.362c0 5.145-4.317 9.318-9.64 9.318-5.324 0-9.64-4.173-9.64-9.318s4.316-9.317 9.64-9.317c5.323 0 9.64 4.172 9.64 9.317z" stroke="#4A4A4A" stroke-width="3"/>
		<g fill="#4A4A4A">
			<path d="M143.018 75.07c1.688 0 3.373-.012 5.06.004 1.252.016 2.102.765 2.12 1.82.013 1.085-.882 1.885-2.176 1.89-3.372.012-6.745.012-10.117 0-1.297-.005-2.186-.802-2.17-1.89.018-1.055.87-1.806 2.116-1.82 1.723-.016 3.447-.003 5.168-.003M96.743 75.07c1.688 0 3.373-.012 5.06.004 1.252.016 2.102.765 2.12 1.82.013 1.085-.882 1.885-2.176 1.89-3.372.012-6.745.012-10.117 0-1.297-.005-2.186-.802-2.17-1.89.018-1.055.87-1.806 2.116-1.82 1.722-.016 3.446-.003 5.167-.003M118.917 75.07c1.687 0 3.372-.012 5.06.004 1.252.016 2.1.765 2.118 1.82.014 1.085-.88 1.885-2.174 1.89-3.372.012-6.744.012-10.117 0-1.297-.005-2.185-.802-2.168-1.89.016-1.055.87-1.806 2.115-1.82 1.72-.016 3.445-.003 5.167-.003"/>
		</g>
		<g>
			<g transform="translate(72 101)">
				<use fill="#FFF" xlink:href="#a"/>
				<path stroke="#979797" d="M3.5 3.5h88v49h-88z"/>
			</g>
			<path d="M118.646 152.917c12.734 0 25.47 0 38.204-.003 3.25-.003 4.358-1.062 4.36-4.13 0-13.272 0-26.543-.002-39.816 0-2.854-1.2-4.036-4.144-4.036-25.51-.005-51.015-.005-76.52 0-3.032 0-4.25 1.17-4.25 4.05-.002 13.307-.002 26.612 0 39.92 0 .32-.014.64.015.96.168 1.746 1.324 2.862 3.134 3.007.515.044 1.034.044 1.552.044 12.55.003 25.1.003 37.65.003m10.32 3.913c-6.7-.003-13.395.01-20.094-.025l-4.983.02h-1.325c-7.333 0-14.666.002-21.998 0-5.324-.003-8.305-2.87-8.308-7.992-.004-13.313-.01-26.623.002-39.934.006-4.374 2.187-6.952 6.474-7.722.506-.09 1.03-.102 1.546-.102 25.702-.006 51.4-.006 77.1-.003 4.647.003 7.823 2.894 7.838 7.34.047 13.7.047 27.405 0 41.105-.015 4.393-3.22 7.287-7.893 7.3-7.445.02-14.887.006-22.33.006h-1.43l-4.492.006" fill="#4A4A4A"/>
			<path d="M137.863 115.59c4.828 0 9.652-.006 14.477.005 1.162.003 1.99.63 2.15 1.625.15.963-.286 1.71-1.19 2.078-.45.184-1.004.172-1.51.172-8.29.006-16.578.003-24.867.003-1.215 0-2.433.012-3.648-.003-1.386-.014-2.3-.794-2.298-1.93.003-1.142.93-1.945 2.3-1.948 4.863-.008 9.726-.003 14.586-.003M137.677 149.62c-4.884 0-9.768-.006-14.65.005-.905 0-1.698-.298-1.944-1.123-.175-.58-.145-1.418.184-1.88.33-.463 1.15-.847 1.753-.85 9.767-.05 19.53-.037 29.3-.032 1.29 0 2.196.837 2.2 1.94.002 1.103-.892 1.928-2.195 1.934-4.88.014-9.768.005-14.648.005M134.192 131.143c-3.708 0-7.416.014-11.124-.01-1.224-.007-2.094-.854-2.09-1.924 0-1.068.88-1.89 2.087-1.95.112-.004.225 0 .335 0 7.194 0 14.388-.004 21.58 0 1.47 0 2.42.776 2.424 1.946 0 1.17-.932 1.934-2.423 1.937-3.594.008-7.192.003-10.788.003v-.003zM131.147 137.952c-2.583 0-5.167.008-7.75-.003-1.488-.007-2.417-.758-2.42-1.925-.003-1.173.94-1.956 2.404-1.956 5.17-.006 10.337-.006 15.504 0 1.47 0 2.416.768 2.422 1.938.006 1.17-.926 1.935-2.407 1.94-2.585.012-5.17.004-7.753.004M128.657 108.785c1.78 0 3.556-.014 5.336.006 1.32.015 2.216.796 2.23 1.898.018 1.133-.928 1.97-2.29 1.974-3.556.01-7.115.01-10.672-.003-1.363 0-2.3-.837-2.282-1.972.017-1.102.913-1.883 2.23-1.897 1.815-.02 3.63-.005 5.45-.005" fill="#4A4A4A"/>
			<path d="M102.682 120.45c0 5.37-4.552 9.725-10.164 9.725-5.613 0-10.164-4.356-10.164-9.726 0-5.372 4.55-9.725 10.164-9.725 5.612 0 10.164 4.353 10.164 9.724z" stroke="#4A4A4A" stroke-width="3"/>
			<path d="M111.83 102.945v49.597" stroke="#4A4A4A"/>
			<path d="M93.08 137.96c1.78 0 3.56-.014 5.335.006 1.323.014 2.216.798 2.234 1.9.014 1.132-.93 1.968-2.29 1.97-3.56.012-7.117.012-10.676 0-1.364-.002-2.302-.838-2.28-1.974.014-1.098.913-1.882 2.23-1.896 1.812-.02 3.63-.006 5.445-.006M93.08 145.74c1.78 0 3.56-.014 5.335.006 1.323.014 2.216.795 2.234 1.897.014 1.133-.93 1.97-2.29 1.97-3.56.016-7.117.016-10.676 0-1.364 0-2.302-.834-2.28-1.97.014-1.102.913-1.883 2.23-1.897 1.812-.02 3.63-.006 5.445-.006" fill="#4A4A4A"/>
		</g>
		<g>
			<path d="M35.137 53.993c1.13-.203 1.878-.83 1.827-2.087-.05-1.293-.885-1.88-2.076-1.833-1.145.056-1.847.81-1.807 1.95.042 1.207.77 1.89 2.057 1.97M35.07 58c-3.43.015-6.044-2.54-6.07-5.92-.02-3.387 2.59-6.05 5.954-6.08 3.34-.025 6.026 2.632 6.046 5.982.02 3.467-2.478 6.003-5.93 6.018" fill="#930194"/>
			<path d="M54.137 161.993c1.13-.203 1.878-.83 1.827-2.087-.05-1.293-.885-1.88-2.076-1.833-1.145.056-1.847.81-1.807 1.95.042 1.207.77 1.89 2.057 1.97M54.07 166c-3.43.015-6.044-2.54-6.07-5.92-.02-3.387 2.59-6.05 5.954-6.08 3.34-.025 6.026 2.632 6.046 5.982.02 3.467-2.478 6.003-5.93 6.018" fill="#CD5ACF"/>
			<path d="M64.05 52.99c-1.426-.114-3.078-.01-3.05-2.005.033-1.878 1.61-1.812 3.016-1.906.232-1.368-.052-3.184 2.102-3.075 1.89.1 1.75 1.674 1.865 3.05 1.41.17 3.172-.038 3.006 2.142-.138 1.816-1.62 1.684-2.983 1.76-.2 1.362.047 3.116-2.107 3.04-1.983-.07-1.647-1.726-1.85-3.007M132.525 29.495c-.713-.057-1.54-.005-1.525-1.003.017-.938.805-.905 1.508-.953.116-.684-.026-1.592 1.05-1.538.945.05.877.837.934 1.526.705.085 1.585-.02 1.503 1.07-.07.91-.81.843-1.492.88-.1.68.024 1.56-1.053 1.52-.992-.035-.824-.862-.925-1.503M174.643 89.07c.88.99 2.032 1.916.808 3.34-.82.96-1.707.76-3.442-.677-1.735 1.424-2.62 1.613-3.452.668-1.243-1.414-.055-2.345.803-3.354-.86-1.05-2.138-2.093-.736-3.466 1.315-1.286 2.334-.166 3.334.78 1.05-.812 2.078-2.135 3.44-.762 1.39 1.406.044 2.415-.755 3.47" fill="#00AEF0"/>
			<path d="M154.495 178c-1.287-.01-2.505-1.25-2.495-2.53.01-1.307 1.208-2.475 2.52-2.47 1.334.005 2.49 1.178 2.48 2.503-.01 1.313-1.214 2.507-2.505 2.497zM66.495 85c-1.287-.01-2.505-1.25-2.495-2.53.01-1.307 1.208-2.475 2.52-2.47 1.334.005 2.49 1.178 2.48 2.503-.01 1.313-1.214 2.507-2.505 2.497z" stroke="#4A4A4A" fill="#00AEF0"/>
			<path d="M68.462 22.93c1.33-.035 2.486 1.058 2.522 2.383.036 1.305-1.088 2.49-2.398 2.532-1.268.04-2.506-1.134-2.547-2.413-.037-1.294 1.097-2.465 2.422-2.5" fill="#00AEF0"/>
			<path d="M109.72 24.755c0 1.387-1.067 2.423-2.475 2.403-1.315-.02-2.356-1.026-2.402-2.326-.052-1.356 1.036-2.475 2.413-2.49 1.402-.02 2.464 1.02 2.464 2.413" fill="#4A4A4A"/>
			<path d="M182.47 102c-1.316-.022-2.496-1.242-2.47-2.558.027-1.36 1.175-2.463 2.547-2.442 1.367.016 2.48 1.157 2.453 2.52-.02 1.355-1.19 2.5-2.53 2.48" fill="#80D8ED"/>
			<path d="M125.502 168c-1.368.005-2.43-.997-2.498-2.363-.08-1.44.96-2.587 2.38-2.635 1.45-.053 2.578.997 2.615 2.427.036 1.402-1.098 2.565-2.498 2.57z" fill="#9ECC42"/>
		</g>
		<g>
			<path d="M59.514 118.767c-2.486-5.715-2.914-10.557-2.98-12.46V90.653C56.533 78.693 46.79 69 34.773 69c-12.02 0-21.763 9.694-21.763 21.653v15.88c-.092 2.047-.58 6.742-2.97 12.234-3.21 7.38-.554 6.5 1.827 5.894 2.38-.604 7.697-2.974 9.358-.054 1.66 2.92 3.045 5.454 6.92 3.8 3.876-1.65 5.703-2.202 6.256-2.202h.754c.552 0 2.38.55 6.255 2.203 3.875 1.653 5.26-.882 6.92-3.8 1.66-2.92 6.976-.55 9.357.054 2.38.608 5.037 1.488 1.827-5.893" fill="#FFF"/>
			<path d="M63.06 118.767c-2.484-5.715-2.912-10.557-2.98-12.46V90.653C60.08 78.693 50.34 69 38.32 69c-12.018 0-21.76 9.694-21.76 21.653v15.88c-.094 2.047-.582 6.742-2.972 12.234-3.212 7.38-.554 6.5 1.827 5.894 2.38-.604 7.697-2.974 9.357-.054 1.66 2.92 3.046 5.454 6.92 3.8 3.877-1.65 5.703-2.202 6.257-2.202h.752c.552 0 2.38.55 6.255 2.203 3.876 1.653 5.26-.882 6.92-3.8 1.66-2.92 6.977-.55 9.358.054 2.38.608 5.037 1.488 1.826-5.893" fill="#00AEF0"/>
			<path d="M60.14 118.767c-2.487-5.715-2.915-10.557-2.98-12.46V90.653C57.16 78.693 47.415 69 35.397 69c-12.02 0-21.762 9.694-21.762 21.653v15.88c-.093 2.047-.58 6.742-2.97 12.234-3.212 7.38-.554 6.5 1.826 5.894 2.38-.604 7.697-2.974 9.358-.054 1.66 2.92 3.045 5.454 6.92 3.8 3.876-1.65 5.703-2.202 6.256-2.202h.753c.552 0 2.38.55 6.254 2.203 3.876 1.653 5.26-.882 6.92-3.8 1.66-2.92 6.977-.55 9.358.054 2.38.608 5.038 1.488 1.827-5.893" stroke="#4A4A4A" stroke-width="3"/>
			<g fill="#4A4A4A">
				<path d="M28.437 77.99c2.36 0 4.272 2.962 4.272 6.618 0 3.655-1.914 6.62-4.273 6.62-2.36 0-4.272-2.965-4.272-6.62 0-3.656 1.913-6.618 4.272-6.618M35.06 104.202c-5.2 0-9.576-5.008-10.895-10.582 2.547 3.428 6.478 5.63 10.894 5.63 4.414 0 8.345-2.202 10.892-5.63-1.32 5.574-5.696 10.582-10.893 10.582M42.118 91.227c-2.36 0-4.273-2.964-4.273-6.62 0-3.655 1.912-6.617 4.273-6.617 2.36 0 4.27 2.962 4.27 6.618 0 3.655-1.91 6.62-4.27 6.62"/>
			</g>
		</g>
	</g>
</svg>
