<svg width="125" height="100" viewBox="0 0 125 100" xmlns="http://www.w3.org/2000/svg"><title>lines</title><g fill="none" fill-rule="evenodd"><ellipse fill="#DAF4FF" fill-rule="nonzero" cx="62" cy="49.857" rx="50" ry="49.857"/><g transform="translate(32.86 39.04)" fill-rule="nonzero" fill="#4A4A4A"><rect x="19.971" width="25.769" height="2.57" rx="1.285"/><rect x="1.933" y="29.55" width="35.433" height="2.57" rx="1.285"/><rect x=".644" y="14.775" width="38.654" height="2.57" rx="1.285"/></g><path d="M26.16 84.94c-1.01-.08-2.18-.008-2.16-1.418.024-1.326 1.14-1.28 2.137-1.347.165-.965-.037-2.25 1.49-2.172 1.338.07 1.24 1.183 1.322 2.156.997.12 2.245-.03 2.13 1.512-.1 1.283-1.15 1.19-2.116 1.243-.14.962.034 2.202-1.493 2.15-1.404-.052-1.166-1.22-1.31-2.127" fill="#CD5ACF" fill-rule="nonzero"/><path d="M63.553 81.218c.788-.14 1.31-.577 1.275-1.452-.036-.9-.618-1.308-1.45-1.276-.8.04-1.29.563-1.26 1.357.028.84.536 1.315 1.435 1.37m-.047 2.79c-2.393.01-4.22-1.768-4.237-4.12-.016-2.357 1.806-4.21 4.154-4.23 2.33-.02 4.205 1.83 4.22 4.162.013 2.41-1.73 4.175-4.14 4.186" fill="#00AEF0" fill-rule="nonzero"/><path d="M92.43 24.636c.64.716 1.473 1.385.586 2.414-.596.693-1.238.55-2.496-.49-1.257 1.03-1.9 1.167-2.502.484-.9-1.023-.04-1.696.583-2.425-.62-.76-1.547-1.514-.53-2.507.952-.93 1.69-.12 2.415.563.76-.586 1.506-1.542 2.492-.55 1.01 1.017.033 1.746-.546 2.51" fill="#930194" fill-rule="nonzero"/><path d="M66.694 31.007c-.46-.037-.99-.003-.982-.644.01-.603.518-.582.97-.613.076-.44-.016-1.022.678-.987.61.032.564.538.6.98.455.055 1.023-.012.97.688-.045.585-.522.543-.96.567-.066.438.014 1-.68.977-.64-.023-.53-.555-.596-.966" fill="#4A4A4A" fill-rule="nonzero"/><path d="M.982 59.272c-.46-.037-.99-.003-.982-.644.01-.604.52-.582.97-.613.076-.44-.015-1.022.68-.987.607.032.563.538.6.98.454.054 1.02-.012.968.688-.045.583-.522.54-.96.565-.065.44.014 1.003-.68.98-.64-.024-.53-.556-.596-.967" fill="#930194" fill-rule="nonzero"/><path d="M68.607 23.622c-.83-.006-1.614-.803-1.607-1.624.007-.84.778-1.59 1.624-1.587.86.005 1.604.76 1.597 1.61-.005.843-.78 1.61-1.612 1.603z" stroke="#4A4A4A"/><path d="M42.585 46.71c0 .95-.734 1.66-1.7 1.645-.905-.014-1.62-.703-1.652-1.593-.036-.93.712-1.696 1.658-1.707.966-.014 1.696.7 1.696 1.654" fill="#9ECC42" fill-rule="nonzero"/><path d="M122.078 26.192c-.828-.007-1.614-.804-1.607-1.624.01-.84.78-1.59 1.626-1.588.86.003 1.604.757 1.597 1.608-.006.844-.782 1.61-1.614 1.604h-.002z" stroke="#4A4A4A"/><path d="M27.133 42.894c-.853-.053-1.336-.5-1.363-1.29-.027-.748.44-1.24 1.198-1.278.79-.03 1.343.354 1.377 1.2.033.824-.463 1.235-1.212 1.368" fill="#930194" fill-rule="nonzero"/><path d="M118.728 75.352c-2.133-4.864-2.5-8.985-2.558-10.604V51.426C116.17 41.25 107.81 33 97.497 33c-10.314 0-18.675 8.25-18.675 18.426V64.94c-.08 1.743-.5 5.738-2.55 10.412-2.756 6.28-.475 5.532 1.568 5.015 2.043-.515 6.605-2.532 8.03-.047 1.425 2.484 2.613 4.64 5.94 3.235 3.325-1.406 4.893-1.875 5.367-1.875h.646c.475 0 2.043.47 5.368 1.875 3.328 1.406 4.516-.75 5.94-3.235 1.426-2.485 5.988-.468 8.03.047 2.044.517 4.324 1.265 1.57-5.015" fill="#00AEF0" fill-rule="nonzero"/><path d="M118.728 75.352c-2.133-4.864-2.5-8.985-2.558-10.604V51.426C116.17 41.25 107.81 33 97.497 33c-10.314 0-18.675 8.25-18.675 18.426V64.94c-.08 1.743-.5 5.738-2.55 10.412-2.756 6.28-.475 5.532 1.568 5.015 2.043-.515 6.605-2.532 8.03-.047 1.425 2.484 2.613 4.64 5.94 3.235 3.325-1.406 4.893-1.875 5.367-1.875h.646c.475 0 2.043.47 5.368 1.875 3.328 1.406 4.516-.75 5.94-3.235 1.426-2.485 5.988-.468 8.03.047 2.044.517 4.324 1.265 1.57-5.015" fill="#00AEF0" fill-rule="nonzero"/><path d="M121.728 75.352c-2.133-4.864-2.5-8.985-2.558-10.604V51.426C119.17 41.25 110.81 33 100.497 33c-10.314 0-18.675 8.25-18.675 18.426V64.94c-.08 1.743-.5 5.738-2.55 10.412-2.756 6.28-.475 5.532 1.568 5.015 2.043-.515 6.605-2.532 8.03-.047 1.425 2.484 2.613 4.64 5.94 3.235 3.325-1.406 4.893-1.875 5.367-1.875h.646c.475 0 2.043.47 5.368 1.875 3.328 1.406 4.516-.75 5.94-3.235 1.426-2.485 5.988-.468 8.03.047 2.044.517 4.324 1.265 1.57-5.015" stroke="#4A4A4A" stroke-width="3"/><path d="M94.612 40c1.994 0 3.61 2.486 3.61 5.553 0 3.067-1.616 5.554-3.61 5.554-1.995 0-3.612-2.487-3.612-5.554S92.617 40 94.612 40m5.598 21.994c-4.395 0-8.095-4.202-9.21-8.88 2.153 2.878 5.477 4.726 9.21 4.726 3.732 0 7.056-1.848 9.21-4.725-1.116 4.677-4.816 8.88-9.21 8.88m5.967-10.888c-1.995 0-3.612-2.487-3.612-5.554S104.182 40 106.177 40c1.996 0 3.612 2.486 3.612 5.553 0 3.067-1.618 5.554-3.614 5.554" fill-rule="nonzero" fill="#4A4A4A"/></g></svg>