<svg width="180" height="154" viewBox="0 0 180 154" xmlns="http://www.w3.org/2000/svg" xmlns:xlink="http://www.w3.org/1999/xlink">
	<defs>
		<path id="a" d="M0 59.047V.14h48.276v58.907z"/>
	</defs>
	<g transform="translate(-12 -24)" fill="none" fill-rule="evenodd">
		<circle cx="102.5" cy="102.5" r="102.5"/>
		<circle fill="#DAF4FF" cx="102.5" cy="102.5" r="75.5"/>
		<path d="M137.033 112.17c-2.866-6.61-3.36-12.213-3.437-14.414v-18.11c0-13.834-11.235-25.05-25.093-25.05-13.86 0-25.096 11.216-25.096 25.05v18.372c-.107 2.368-.67 7.8-3.425 14.152-3.704 8.538-.64 7.52 2.107 6.82 2.744-.7 8.874-3.443 10.79-.065 1.914 3.376 3.51 6.31 7.98 4.397 4.47-1.912 6.576-2.55 7.214-2.55h.868c.637 0 2.744.638 7.213 2.55 4.47 1.912 6.066-1.02 7.982-4.397 1.914-3.378 8.044-.636 10.79.064 2.745.7 5.81 1.718 2.106-6.82" fill="#00AEF0"/>
		<path d="M132.714 112.17c-2.866-6.61-3.36-12.213-3.437-14.414v-18.11c0-13.834-11.235-25.05-25.093-25.05-13.86 0-25.096 11.216-25.096 25.05v18.372c-.107 2.368-.67 7.8-3.426 14.152-3.703 8.538-.638 7.52 2.107 6.82 2.744-.7 8.875-3.443 10.79-.065 1.914 3.376 3.51 6.31 7.98 4.397 4.47-1.912 6.576-2.55 7.215-2.55h.868c.637 0 2.744.638 7.213 2.55 4.47 1.912 6.066-1.02 7.98-4.397 1.916-3.378 8.046-.636 10.792.064 2.745.7 5.808 1.718 2.106-6.82" stroke="#4A4A4A" stroke-width="3"/>
		<path d="M137.033 112.17c-2.866-6.61-3.36-12.213-3.437-14.414v-18.11c0-13.834-11.235-25.05-25.093-25.05-13.86 0-25.096 11.216-25.096 25.05v18.372c-.107 2.368-.67 7.8-3.425 14.152-3.704 8.538-.64 7.52 2.107 6.82 2.744-.7 8.874-3.443 10.79-.065 1.914 3.376 3.51 6.31 7.98 4.397 4.47-1.912 6.576-2.55 7.214-2.55h.868c.637 0 2.744.638 7.213 2.55 4.47 1.912 6.066-1.02 7.982-4.397 1.914-3.378 8.044-.636 10.79.064 2.745.7 5.81 1.718 2.106-6.82" fill="#00AEF0"/>
		<path d="M132.714 112.17c-2.866-6.61-3.36-12.213-3.437-14.414v-18.11c0-13.834-11.235-25.05-25.093-25.05-13.86 0-25.096 11.216-25.096 25.05v18.372c-.107 2.368-.67 7.8-3.426 14.152-3.703 8.538-.638 7.52 2.107 6.82 2.744-.7 8.875-3.443 10.79-.065 1.914 3.376 3.51 6.31 7.98 4.397 4.47-1.912 6.576-2.55 7.215-2.55h.868c.637 0 2.744.638 7.213 2.55 4.47 1.912 6.066-1.02 7.98-4.397 1.916-3.378 8.046-.636 10.792.064 2.745.7 5.808 1.718 2.106-6.82" stroke="#4A4A4A" stroke-width="3"/>
		<g fill="#4A4A4A">
			<path d="M96.156 64.997c2.72 0 4.926 3.427 4.926 7.656 0 4.23-2.205 7.657-4.926 7.657-2.72 0-4.926-3.428-4.926-7.657 0-4.23 2.206-7.656 4.926-7.656M103.792 95.32c-5.995 0-11.04-5.793-12.562-12.24 2.937 3.965 7.47 6.513 12.562 6.513 5.09 0 9.624-2.548 12.562-6.514-1.52 6.447-6.568 12.24-12.562 12.24M111.932 80.31c-2.722 0-4.927-3.428-4.927-7.657 0-4.23 2.205-7.656 4.927-7.656 2.722 0 4.926 3.427 4.926 7.656 0 4.23-2.204 7.657-4.926 7.657"/>
		</g>
		<g>
			<g transform="translate(49 91)">
				<mask id="b" fill="#fff">
					<use xlink:href="#a"/>
				</mask>
				<path d="M44.377 17.93c0-.657-.03-1.316.01-1.972.024-.38-.138-.523-.456-.646-6.943-2.686-13.443-6.197-19.444-10.63-.255-.19-.42-.21-.688-.014-6.013 4.45-12.53 7.968-19.49 10.654-.35.134-.44.32-.418.67.117 2.003.18 4.012.328 6.013.26 3.544.863 7.034 1.812 10.463 1.75 6.34 4.89 11.828 9.805 16.23 2.487 2.228 5.226 4.105 8.008 5.928.265.173.44.094.656-.053 1.368-.937 2.755-1.854 4.115-2.804 7.19-5.016 11.818-11.806 13.916-20.36 1.088-4.43 1.623-8.93 1.847-13.48m3.89-.974c-.215 6.5-.994 12.907-3.103 19.098-2.622 7.7-7.322 13.822-13.875 18.522-1.98 1.42-4.028 2.743-6.053 4.104-.675.45-1.397.504-2.093.063-3.357-2.132-6.667-4.328-9.66-6.977-5.653-5.01-9.26-11.272-11.25-18.534C1.097 29.078.447 24.842.21 20.545c-.113-2.022-.16-4.05-.21-6.073-.028-1.18.39-1.746 1.494-2.16 5.156-1.907 10.12-4.22 14.777-7.16C18.464 3.763 20.567 2.235 22.69.74c1.105-.778 1.814-.82 2.872-.006 6.467 4.97 13.572 8.752 21.196 11.574 1.137.423 1.523.977 1.52 2.195 0 .675-.005 1.35-.008 2.027v.426" fill="#4A4A4A" mask="url(#b)"/>
			</g>
			<path d="M93.655 109.916c-.43 4.478-1.16 8.895-2.433 13.215-2.46 8.344-7.34 14.827-14.67 19.446-1.39.874-2.798 1.714-4.195 2.575-.22.138-.392.208-.65.024-2.66-1.924-5.282-3.903-7.635-6.213-4.656-4.57-7.506-10.13-8.95-16.467-.778-3.426-1.216-6.898-1.31-10.41-.055-1.978-.03-3.962-.05-5.946-.005-.342.09-.524.44-.64 7-2.332 13.594-5.503 19.734-9.614.274-.18.436-.153.678.044 5.726 4.65 11.985 8.418 18.72 11.387.31.135.462.28.42.657-.068.646-.068 1.297-.1 1.946" fill="#FEFEFE"/>
			<path d="M72.02 128.143c-3.235-2.514-6.44-5.006-9.687-7.528.797-1.024 1.572-2.023 2.376-3.054 2.285 1.778 4.548 3.536 6.85 5.323 3.578-3.954 7.157-7.903 10.76-11.883l2.87 2.59c-4.396 4.86-8.77 9.693-13.17 14.553" fill="#4A4A4A"/>
		</g>
		<g>
			<path d="M123.343 123.457c-4.453-3.574-7.343-9.33-7.343-15.824C116 96.79 124.06 88 134 88s18 8.79 18 19.633c0 7.304-3.657 13.677-9.083 17.06L141.103 143h-13.917l-3.843-19.543z" fill="#FFF"/>
			<path d="M151.28 107.55c-.226 3.914-1.626 7.365-3.86 10.532-1.005 1.425-2.022 2.84-2.998 4.292-1.392 2.07-2.506 4.273-2.934 6.76-.072.41-.33.38-.616.38-1.962-.005-3.925-.005-5.892-.005-1.94 0-3.88-.012-5.824.007-.424.003-.574-.117-.66-.556-.462-2.403-1.535-4.557-2.898-6.57-1.16-1.712-2.368-3.393-3.53-5.104-2.118-3.102-3.225-6.535-3.375-10.29-.263-6.577 3.468-12.313 9.765-14.977 8.068-3.41 17.608.01 21.387 7.683 1.216 2.476 1.59 5.105 1.434 7.848zm-22.458 28.134H141.2v-1.47H128.82v1.47zm11.105 6.254h-9.837c-1.185 0-1.403-.25-1.25-1.523h12.32c.174 1.253-.05 1.523-1.233 1.523zm14.557-43.33c-3.382-7.392-9.255-11.496-17.233-12.445-6.796-.81-12.706 1.422-17.525 6.235-5.378 5.38-6.67 11.953-5.107 19.223.818 3.802 2.68 7.107 4.908 10.24 1.02 1.44 2.027 2.9 2.965 4.393.868 1.384 1.483 2.896 1.543 4.54.072 1.897.02 3.796.02 5.694h.074c0 1.576-.004 3.15.004 4.727.016 2.81 2.223 5.18 5.018 5.365.368.025.492.13.582.498.597 2.468 2.766 4.175 5.25 4.18 2.533.003 4.688-1.685 5.307-4.195.08-.327.17-.454.525-.48 2.897-.218 5.066-2.56 5.074-5.45 0-2.935.023-5.87-.008-8.806-.026-2.195.485-4.236 1.648-6.09.938-1.492 1.94-2.956 2.972-4.385 2.946-4.097 5.03-8.52 5.42-13.63.254-3.32-.042-6.57-1.434-9.615z" fill="#4A4A4A"/>
			<path d="M135.223 102.828c-.134-.045-.312-.045-.446 0l-9.607 2.548c-.402.09-.67.446-.67.848.045 6.838 3.71 13.184 10.008 17.43.135.09.313.134.492.134.18 0 .357-.045.492-.134 6.3-4.246 9.963-10.592 10.008-17.43 0-.402-.268-.76-.67-.848l-9.607-2.548z" stroke="#4A4A4A" stroke-width="1.5"/>
		</g>
		<g>
			<path d="M49.76 47.485c1.166-.21 1.938-.856 1.886-2.154-.053-1.333-.914-1.937-2.142-1.89-1.182.058-1.906.836-1.864 2.012.042 1.245.792 1.95 2.12 2.033m-.067 4.134c-3.54.015-6.238-2.622-6.264-6.11-.022-3.493 2.67-6.24 6.142-6.272 3.444-.026 6.216 2.716 6.237 6.172.02 3.577-2.558 6.193-6.117 6.21" fill="#930194"/>
			<path d="M154.332 141.77c1.166-.21 1.938-.855 1.885-2.153-.052-1.334-.913-1.938-2.142-1.89-1.18.057-1.906.834-1.864 2.01.043 1.246.794 1.95 2.122 2.034m-.068 4.135c-3.54.015-6.238-2.62-6.264-6.11-.02-3.492 2.673-6.24 6.143-6.27 3.445-.027 6.217 2.715 6.238 6.17.022 3.578-2.556 6.194-6.116 6.21" fill="#CD5ACF"/>
			<path d="M15.194 69.418c-1.493-.12-3.223-.01-3.194-2.1.035-1.968 1.687-1.898 3.16-1.997.243-1.43-.055-3.334 2.202-3.22 1.978.104 1.835 1.754 1.954 3.196 1.477.178 3.322-.04 3.15 2.244-.145 1.903-1.697 1.764-3.126 1.843-.208 1.427.05 3.265-2.207 3.186-2.078-.075-1.725-1.81-1.94-3.152M87.738 53.995c-.68-.054-1.466-.004-1.452-.955.016-.894.766-.862 1.436-.907.11-.65-.025-1.516 1-1.464.9.046.835.796.89 1.45.67.083 1.51-.017 1.43 1.022-.065.864-.77.8-1.42.837-.094.648.023 1.483-1.003 1.447-.945-.033-.785-.822-.882-1.432M169.594 110.264c.944 1.062 2.177 2.054.866 3.58-.88 1.027-1.83.815-3.69-.726-1.86 1.526-2.808 1.728-3.7.716-1.33-1.516-.057-2.513.863-3.595-.92-1.126-2.29-2.242-.788-3.714 1.41-1.378 2.5-.178 3.572.835 1.125-.868 2.226-2.286 3.684-.814 1.493 1.506.05 2.587-.806 3.718" fill="#00AEF0"/>
			<path d="M100.757 142.095c-1.225-.01-2.386-1.192-2.376-2.408.01-1.246 1.152-2.36 2.402-2.354 1.27.005 2.37 1.123 2.36 2.384-.01 1.25-1.155 2.388-2.385 2.378zM62.947 92.57c-1.225-.01-2.385-1.19-2.376-2.407.01-1.246 1.152-2.358 2.402-2.353 1.27.005 2.37 1.122 2.36 2.383-.01 1.25-1.154 2.388-2.385 2.378z" stroke="#4A4A4A" fill="#00AEF0"/>
			<path d="M27.835 127.803c1.35-.037 2.525 1.074 2.56 2.42.038 1.325-1.104 2.53-2.435 2.572-1.288.042-2.545-1.152-2.587-2.45-.037-1.316 1.116-2.505 2.462-2.542" fill="#00AEF0"/>
			<path d="M105.43 26.8c0 1.408-1.084 2.46-2.514 2.44-1.336-.02-2.394-1.043-2.44-2.363-.053-1.377 1.052-2.514 2.45-2.53 1.425-.02 2.504 1.037 2.504 2.452" fill="#4A4A4A"/>
			<path d="M189.59 72.57c-1.253-.02-2.376-1.182-2.352-2.435.025-1.294 1.12-2.345 2.426-2.325 1.302.015 2.36 1.102 2.336 2.4-.02 1.29-1.134 2.38-2.41 2.36" fill="#80D8ED"/>
			<path d="M122.954 168.762c-1.303.005-2.313-.95-2.38-2.25-.074-1.372.916-2.464 2.27-2.51 1.378-.05 2.453.95 2.488 2.31.036 1.337-1.045 2.445-2.378 2.45z" fill="#9ECC42"/>
		</g>
	</g>
</svg>
