<svg width="160" height="160" viewBox="0 0 160 160" fill="none" xmlns="http://www.w3.org/2000/svg">
	<circle cx="79.9994" cy="79.9998" r="73.3333" fill="#DFE3EB" />
	<path d="M99.2126 56.2386C99.6549 52.3358 100.461 47.6524 104.468 45.8051C106.654 44.7904 109.126 45.2848 110.583 46.8719C110.791 45.4669 111.337 44.166 112.612 43.4114C113.523 42.865 114.538 42.7089 115.448 42.9951C114.225 36.5425 113.523 28.6849 119.377 24.3399C122.655 21.8941 127.261 22.1543 129.993 24.8602C130.071 15.3635 140.972 8.78078 149.35 15.2594C159.706 23.2731 154.71 36.8287 149.428 46.5597C153.695 45.1026 158.275 50.5925 157.858 55.3279C157.078 64.5905 147.607 64.7206 140.582 64.6946C128.301 64.6165 117.191 65.0068 104.885 64.2523C101.58 64.0441 97.9897 65.1369 96.4026 61.6244C95.2578 59.1266 96.6628 56.6028 99.2126 56.2386Z" fill="white" />
	<path fill-rule="evenodd" clip-rule="evenodd" d="M136.6 14.8937C132.902 16.9002 130.351 20.6981 130.657 24.8108C130.685 25.178 130.409 25.4978 130.042 25.5251C129.675 25.5524 129.355 25.277 129.328 24.9098C128.974 20.1621 131.913 15.9203 135.964 13.7218C140.035 11.5132 145.329 11.3072 149.758 14.7321L149.758 14.7322C155.165 18.9167 156.549 24.565 155.916 30.3383C155.33 35.6798 153.02 41.1735 150.564 45.8493C153.01 45.9085 155.005 46.9373 156.39 48.5189C157.983 50.3373 158.745 52.8531 158.523 55.3852C158.317 57.8186 157.535 59.699 156.327 61.1324C155.124 62.5607 153.535 63.5014 151.785 64.1228C148.313 65.3554 144.07 65.3742 140.58 65.3613C140.211 65.3599 139.914 65.0604 139.915 64.6922C139.917 64.324 140.216 64.0266 140.584 64.028C144.119 64.0411 148.124 64.0079 151.339 62.8663C152.932 62.3006 154.296 61.4736 155.308 60.2733C156.315 59.0783 157.009 57.4693 157.194 55.272L157.194 55.2696C157.388 53.0667 156.72 50.9189 155.387 49.3975C154.067 47.8904 152.067 46.9646 149.495 47.2231C149.249 47.2478 149.01 47.1346 148.873 46.9289C148.736 46.7232 148.725 46.4588 148.842 46.2417C151.472 41.3977 153.99 35.6685 154.59 30.193C155.187 24.7524 153.89 19.6161 148.942 15.7868M136.6 14.8937C140.279 12.8974 144.993 12.7331 148.942 15.7867Z" fill="#9BA3B4" />
	<path d="M122.343 45.9614C123.123 42.7612 124.606 39.2226 127.807 37.7916C130.33 36.6468 133.349 37.0111 135.196 39.1446C135.768 39.8211 134.806 40.8098 134.207 40.1333C132.36 37.9998 129.108 38.1559 127.052 39.9251C125.127 41.5383 124.268 43.984 123.696 46.3517C123.488 47.2103 122.135 46.8461 122.343 45.9614Z" fill="#9BA3B4" />
	<path d="M137.721 51.373C140.271 50.7486 142.898 52.778 142.898 55.4319C142.898 56.3166 141.519 56.3166 141.519 55.4319C141.519 53.7147 139.776 52.3097 138.085 52.726C137.226 52.9341 136.862 51.5812 137.721 51.373Z" fill="#9BA3B4" />
	<path d="M23.7061 25.3352C21.6246 23.0976 21.7547 19.3769 24.9029 17.8419C28.0772 16.3068 30.9652 18.4663 31.5116 21.4064C34.9201 21.0421 39.083 22.1869 39.3692 26.2719C39.5514 28.9518 37.1316 30.8771 34.79 30.3828C35.1282 32.6724 33.8793 34.9881 31.2254 35.3263C28.5195 35.6645 26.7242 33.6351 26.5421 31.2414C22.4832 33.1147 20.2456 26.6101 23.7061 25.3352Z" fill="white" />
	<path fill-rule="evenodd" clip-rule="evenodd" d="M28.8702 16.7081C27.4891 15.8757 25.7348 15.7098 23.946 16.5749L23.944 16.5758L23.944 16.5758C22.1626 17.4444 21.2067 18.9567 21.0146 20.5799C20.8565 21.9162 21.2173 23.3062 22.0169 24.4589C21.3983 24.9018 21.0029 25.5254 20.81 26.2122C20.5505 27.1361 20.6562 28.1631 21.0205 29.0543C21.3851 29.9461 22.0345 30.7635 22.9332 31.2166C23.8541 31.6809 24.969 31.7271 26.1548 31.1799C26.4891 31.0256 26.635 30.6295 26.4807 30.2952C26.3264 29.9609 25.9303 29.815 25.596 29.9693C24.7523 30.3586 24.0655 30.2943 23.5334 30.026C22.9792 29.7466 22.5243 29.2093 22.2547 28.5498C21.9849 27.8896 21.9263 27.1685 22.0937 26.5728C22.2552 25.9976 22.625 25.5315 23.2698 25.2939L24.2097 24.9476L23.5275 24.2143C22.6141 23.2324 22.1968 21.9354 22.3387 20.7366C22.4783 19.5565 23.1613 18.4412 24.5275 17.7747C25.9125 17.1053 27.189 17.2516 28.1819 17.8501C29.1935 18.4598 29.9484 19.564 30.1895 20.8614C30.2568 21.2234 30.6047 21.4623 30.9667 21.395C31.3287 21.3277 31.5677 20.9797 31.5004 20.6177C31.1951 18.975 30.2328 17.5294 28.8702 16.7081Z" fill="#9BA3B4" />
	<path d="M31.0691 23.5141C33.3067 22.3173 35.9086 24.3727 35.154 26.8445C34.8939 27.7031 33.5409 27.3388 33.8011 26.4802C34.1914 25.2313 32.9685 24.0865 31.7456 24.737C30.9911 25.1273 30.2886 23.9304 31.0691 23.5141Z" fill="#9BA3B4" />
	<path fill-rule="evenodd" clip-rule="evenodd" d="M107.054 113.631C105.726 104.745 106.937 97.8418 107.554 95.1673L113.395 73.3671C117.858 56.7133 107.907 39.5784 91.1715 35.0941C74.4341 30.6094 57.2487 40.4732 52.7864 57.127L46.8606 79.2424C45.9675 82.0582 43.5357 88.4134 38.1588 95.1705C30.9323 104.25 34.962 104.017 38.5039 104.06C42.0444 104.106 50.3322 102.788 51.5554 107.475C52.7781 112.159 53.7609 116.205 59.7747 115.35C65.7888 114.495 68.5376 114.41 69.3082 114.617L70.3565 114.898C71.1262 115.104 73.4651 116.552 78.2457 120.299C83.026 124.047 85.8996 121.034 89.302 117.589C92.7034 114.142 99.2217 119.426 102.312 121.157C105.401 122.891 108.772 125.107 107.054 113.631" fill="#00AEF0" />
	<path fill-rule="evenodd" clip-rule="evenodd" d="M73.4407 57.9131C73.8588 58.1819 73.9798 58.7387 73.711 59.1569C72.257 61.4186 69.7807 62.0244 67.7829 61.4499C65.7837 60.8751 64.1311 59.0508 64.5905 56.5066C64.6789 56.0174 65.147 55.6925 65.6362 55.7808C66.1253 55.8692 66.4503 56.3373 66.3619 56.8265C66.101 58.2712 66.9694 59.3431 68.2803 59.72C69.5925 60.0973 71.2153 59.7104 72.1969 58.1835C72.4657 57.7653 73.0225 57.6443 73.4407 57.9131Z" fill="#202C44" />
	<path fill-rule="evenodd" clip-rule="evenodd" d="M98.7011 67.9169C99.1105 68.1987 99.214 68.7591 98.9321 69.1686C97.4322 71.3475 95.158 71.9072 93.243 71.2869C91.3695 70.68 89.8576 68.9387 89.8576 66.6666C89.8576 66.1695 90.2606 65.7665 90.7577 65.7665C91.2547 65.7665 91.6577 66.1695 91.6577 66.6666C91.6577 68.0812 92.5906 69.1834 93.7977 69.5744C94.9634 69.952 96.4057 69.6641 97.4494 68.1479C97.7312 67.7385 98.2916 67.635 98.7011 67.9169Z" fill="#202C44" />
	<ellipse cx="72.6755" cy="77.8291" rx="5.85011" ry="6.53774" transform="rotate(15 72.6755 77.8291)" fill="#202C44" />
	<path d="M115.007 106.002C117.088 103.764 116.958 100.043 113.81 98.5084C110.636 96.9733 107.748 99.1328 107.201 102.073C103.793 101.709 99.6299 102.853 99.3437 106.938C99.1615 109.618 101.581 111.544 103.923 111.049C103.585 113.339 104.834 115.655 107.487 115.993C110.193 116.331 111.989 114.302 112.171 111.908C116.23 113.781 118.467 107.277 115.007 106.002Z" fill="white" />
	<path d="M107.644 104.181C105.406 102.984 102.804 105.039 103.559 107.511C103.819 108.37 105.172 108.005 104.912 107.147C104.522 105.898 105.744 104.753 106.967 105.403C107.722 105.794 108.424 104.597 107.644 104.181Z" fill="#9BA3B4" />
	<path d="M74.6722 130.906C74.2298 127.003 73.4233 122.319 69.4164 120.472C67.2309 119.457 64.7591 119.952 63.3021 121.539C63.0939 120.134 62.5475 118.833 61.2726 118.078C60.362 117.532 59.3473 117.376 58.4366 117.662C59.6595 111.21 60.362 103.352 54.5078 99.0068C51.2295 96.5611 46.6242 96.8213 43.8923 99.5272C43.8142 90.0305 32.9124 83.4478 24.5345 89.9264C14.1791 97.9401 19.1747 111.496 24.4564 121.227C20.1894 119.77 15.6101 125.26 16.0264 129.995C16.807 139.257 26.2777 139.388 33.3027 139.362C45.5835 139.284 56.6934 139.674 69.0001 138.919C72.3045 138.711 75.895 139.804 77.4822 136.291C78.627 133.794 77.222 131.27 74.6722 130.906Z" fill="white" />
	<path fill-rule="evenodd" clip-rule="evenodd" d="M24.3944 89.5185C24.6198 89.8096 24.5664 90.2284 24.2752 90.4537C19.327 94.283 18.0305 99.4193 18.627 104.86C19.2272 110.336 21.7459 116.065 24.3751 120.909L25.1896 122.409L23.5737 121.858C21.7906 121.249 19.8412 122.06 18.3104 123.738C16.7859 125.409 15.8343 127.787 16.0233 129.937L16.0235 129.939C16.2086 132.136 16.9029 133.745 17.9098 134.94C18.9212 136.141 20.2855 136.968 21.8787 137.533C25.0939 138.675 29.0983 138.708 32.633 138.695C33.0012 138.694 33.3007 138.991 33.3021 139.359C33.3035 139.727 33.0061 140.027 32.6379 140.028C29.1476 140.041 24.9041 140.022 21.4326 138.79C19.6824 138.168 18.0936 137.228 16.8902 135.799C15.6824 134.366 14.9002 132.486 14.6949 130.052C14.468 127.466 15.5978 124.733 17.3254 122.839C18.71 121.322 20.5812 120.245 22.5529 120.323C20.1347 115.69 17.8791 110.274 17.3016 105.005C16.6686 99.232 18.052 93.5837 23.4592 89.3992C23.7504 89.1739 24.1691 89.2273 24.3944 89.5185Z" fill="#9BA3B4" />
	<path d="M51.542 120.628C50.7615 117.428 49.2784 113.889 46.0781 112.458C43.5543 111.313 40.5362 111.678 38.6889 113.811C38.1165 114.488 39.0792 115.476 39.6776 114.8C41.5249 112.666 44.7772 112.822 46.8327 114.592C48.758 116.205 49.6167 118.651 50.1891 121.018C50.3972 121.877 51.7502 121.513 51.542 120.628Z" fill="#9BA3B4" />
	<path d="M36.164 126.04C33.6142 125.416 30.9863 127.445 30.9863 130.099C30.9863 130.984 32.3653 130.984 32.3653 130.099C32.3653 128.382 34.1086 126.977 35.7998 127.393C36.6584 127.601 37.0226 126.248 36.164 126.04Z" fill="#9BA3B4" />
	<path fill-rule="evenodd" clip-rule="evenodd" d="M54 70.6668C54 69.9304 54.597 69.3335 55.3333 69.3335H58.6667C59.1661 69.3335 59.6237 69.6126 59.8522 70.0567C60.0808 70.5008 60.0419 71.0354 59.7516 71.4418L57.9243 74.0002H58.6667C59.4031 74.0002 60 74.5971 60 75.3335C60 76.0699 59.4031 76.6668 58.6667 76.6668H55.3333C54.8339 76.6668 54.3763 76.3877 54.1478 75.9436C53.9192 75.4995 53.9581 74.9649 54.2484 74.5585L56.0758 72.0002H55.3333C54.597 72.0002 54 71.4032 54 70.6668Z" fill="#202C44" />
	<path fill-rule="evenodd" clip-rule="evenodd" d="M43.666 54.6667C43.666 53.7462 44.4122 53 45.3327 53H51.9994C52.614 53 53.1788 53.3383 53.4688 53.8802C53.7588 54.4222 53.7271 55.0797 53.3861 55.5912L48.4469 63H51.9994C52.9198 63 53.666 63.7462 53.666 64.6667C53.666 65.5871 52.9198 66.3333 51.9994 66.3333H45.3327C44.718 66.3333 44.1533 65.995 43.8632 65.4531C43.5732 64.9112 43.605 64.2536 43.9459 63.7422L48.8852 56.3333H45.3327C44.4122 56.3333 43.666 55.5871 43.666 54.6667Z" fill="#202C44" />
	<path fill-rule="evenodd" clip-rule="evenodd" d="M50.666 33.3335C50.666 32.2289 51.5614 31.3335 52.666 31.3335H61.3327C62.0661 31.3335 62.7407 31.7349 63.0905 32.3795C63.4403 33.0242 63.4093 33.8085 63.0096 34.4235L56.3514 44.6668H61.3327C62.4373 44.6668 63.3327 45.5623 63.3327 46.6668C63.3327 47.7714 62.4373 48.6668 61.3327 48.6668H52.666C51.9326 48.6668 51.258 48.2654 50.9082 47.6208C50.5584 46.9762 50.5894 46.1918 50.9891 45.5769L57.6473 35.3335H52.666C51.5614 35.3335 50.666 34.4381 50.666 33.3335Z" fill="#202C44" />
</svg>
