<svg width="120" height="80" viewBox="0 0 120 80" fill="none" xmlns="http://www.w3.org/2000/svg">
<g clip-path="url(#clip0_443_16914)">
<g clip-path="url(#clip1_443_16914)">
<rect width="142" height="94.6667" transform="translate(-11 1.33337)" fill="white"/>
<rect x="2" y="2.99988" width="116" height="8" rx="1" fill="#E4EBF2"/>
<rect x="2.0166" y="12.9999" width="115.967" height="13.135" rx="1" fill="#00AEF0"/>
<path fill-rule="evenodd" clip-rule="evenodd" d="M63.125 18.9424C63.125 20.6683 61.7259 22.0674 60 22.0674C58.2741 22.0674 56.875 20.6683 56.875 18.9424C56.875 17.2165 58.2741 15.8174 60 15.8174C61.7259 15.8174 63.125 17.2165 63.125 18.9424Z" fill="#00AEF0"/>
<path fill-rule="evenodd" clip-rule="evenodd" d="M64.1276 22.8716C63.7129 21.918 63.6415 21.11 63.6303 20.7925V18.1804C63.6303 16.1849 62.0046 14.5674 59.9994 14.5674C57.9939 14.5674 56.3681 16.1849 56.3681 18.1804V20.8303C56.3526 21.1718 56.2711 21.9551 55.8724 22.8716C55.3365 24.1031 55.78 23.9563 56.1773 23.855C56.5745 23.7541 57.4615 23.3586 57.7387 23.8458C58.0157 24.3329 58.2468 24.7559 58.8935 24.4801C59.5402 24.2044 59.845 24.1125 59.9373 24.1125H60.0629C60.1551 24.1125 60.46 24.2044 61.1067 24.4801C61.7534 24.7559 61.9843 24.3329 62.2615 23.8458C62.5385 23.3586 63.4255 23.7541 63.8228 23.855C64.2201 23.9563 64.6634 24.1031 64.1276 22.8716ZM58.8786 16.5375C59.2697 16.5375 59.5867 17.0366 59.5867 17.6526C59.5867 18.2686 59.2697 18.7679 58.8786 18.7679C58.4875 18.7679 58.1704 18.2686 58.1704 17.6526C58.1704 17.0366 58.4875 16.5375 58.8786 16.5375ZM59.9994 20.9948C59.1375 20.9948 58.4121 20.1509 58.1934 19.2118C58.6157 19.7894 59.2674 20.1606 59.9994 20.1606C60.7313 20.1606 61.383 19.7894 61.8053 19.2118C61.5867 20.1509 60.8611 20.9948 59.9994 20.9948ZM61.1202 18.7679C60.7288 18.7679 60.4118 18.2686 60.4118 17.6526C60.4118 17.0366 60.7288 16.5375 61.1202 16.5375C61.5115 16.5375 61.8283 17.0366 61.8283 17.6526C61.8283 18.2686 61.5115 18.7679 61.1202 18.7679Z" fill="white"/>
<rect x="2.0166" y="27.9999" width="21.4183" height="26.625" rx="1" fill="#E4EBF2"/>
<rect x="2.0166" y="56.6249" width="21.3" height="41.2983" rx="1" fill="#E4EBF2"/>
<rect x="90.7666" y="27.9999" width="27" height="28" rx="1" fill="#E4EBF2"/>
<rect x="90.7666" y="57.9999" width="27" height="18" rx="1" fill="#00AEF0"/>
<path fill-rule="evenodd" clip-rule="evenodd" d="M107.704 66.3124C107.704 68.2109 106.165 69.7499 104.267 69.7499C102.368 69.7499 100.829 68.2109 100.829 66.3124C100.829 64.4139 102.368 62.8749 104.267 62.8749C106.165 62.8749 107.704 64.4139 107.704 66.3124Z" fill="#00AEF0"/>
<path fill-rule="evenodd" clip-rule="evenodd" d="M108.807 70.6345C108.351 69.5856 108.272 68.6967 108.26 68.3475V65.4742C108.26 63.2792 106.472 61.4999 104.266 61.4999C102.06 61.4999 100.272 63.2792 100.272 65.4742V68.3891C100.254 68.7648 100.165 69.6264 99.7263 70.6345C99.1368 71.9892 99.6246 71.8277 100.062 71.7163C100.499 71.6053 101.474 71.1702 101.779 71.7062C102.084 72.2419 102.338 72.7072 103.049 72.4038C103.761 72.1006 104.096 71.9995 104.198 71.9995H104.336C104.437 71.9995 104.773 72.1006 105.484 72.4038C106.195 72.7072 106.449 72.2419 106.754 71.7062C107.059 71.1702 108.035 71.6053 108.472 71.7163C108.909 71.8277 109.396 71.9892 108.807 70.6345ZM103.033 63.667C103.463 63.667 103.812 64.2161 103.812 64.8937C103.812 65.5712 103.463 66.1205 103.033 66.1205C102.603 66.1205 102.254 65.5712 102.254 64.8937C102.254 64.2161 102.603 63.667 103.033 63.667ZM104.266 68.5701C103.318 68.5701 102.52 67.6417 102.279 66.6087C102.744 67.2441 103.461 67.6524 104.266 67.6524C105.071 67.6524 105.788 67.2441 106.252 66.6087C106.012 67.6417 105.214 68.5701 104.266 68.5701ZM105.499 66.1205C105.068 66.1205 104.72 65.5712 104.72 64.8937C104.72 64.2161 105.068 63.667 105.499 63.667C105.929 63.667 106.278 64.2161 106.278 64.8937C106.278 65.5712 105.929 66.1205 105.499 66.1205Z" fill="white"/>
<rect x="90.7666" y="77.9999" width="27.2167" height="21.0633" rx="1" fill="#E4EBF2"/>
<rect x="25" y="27.9999" width="64" height="36" rx="1" fill="#E4EBF2"/>
<rect x="27" y="29.9999" width="60" height="26" rx="2" fill="#00AEF0"/>
<path fill-rule="evenodd" clip-rule="evenodd" d="M61.375 42.1249C61.375 44.5411 59.4162 46.4999 57 46.4999C54.5838 46.4999 52.625 44.5411 52.625 42.1249C52.625 39.7086 54.5838 37.7499 57 37.7499C59.4162 37.7499 61.375 39.7086 61.375 42.1249Z" fill="#00AEF0"/>
<path fill-rule="evenodd" clip-rule="evenodd" d="M62.7786 47.6258C62.198 46.2908 62.0981 45.1595 62.0825 44.7151V41.0581C62.0825 38.2644 59.8065 35.9999 56.9991 35.9999C54.1914 35.9999 51.9154 38.2644 51.9154 41.0581V44.7679C51.8937 45.2461 51.7796 46.3427 51.2214 47.6258C50.4711 49.3499 51.092 49.1444 51.6482 49.0026C52.2043 48.8613 53.4462 48.3076 53.8341 48.9897C54.2219 49.6716 54.5455 50.2637 55.4508 49.8776C56.3563 49.4917 56.7829 49.363 56.9122 49.363H57.0881C57.2172 49.363 57.644 49.4917 58.5493 49.8776C59.4547 50.2637 59.7781 49.6716 60.1661 48.9897C60.5539 48.3076 61.7957 48.8613 62.352 49.0026C62.9081 49.1444 63.5287 49.3499 62.7786 47.6258ZM55.43 38.758C55.9776 38.758 56.4214 39.4569 56.4214 40.3192C56.4214 41.1815 55.9776 41.8806 55.43 41.8806C54.8825 41.8806 54.4385 41.1815 54.4385 40.3192C54.4385 39.4569 54.8825 38.758 55.43 38.758ZM56.9991 44.9983C55.7925 44.9983 54.7768 43.8168 54.4708 42.502C55.0619 43.3107 55.9743 43.8303 56.9991 43.8303C58.0238 43.8303 58.9361 43.3107 59.5273 42.502C59.2213 43.8168 58.2054 44.9983 56.9991 44.9983ZM58.5682 41.8806C58.0203 41.8806 57.5765 41.1815 57.5765 40.3192C57.5765 39.4569 58.0203 38.758 58.5682 38.758C59.1161 38.758 59.5596 39.4569 59.5596 40.3192C59.5596 41.1815 59.1161 41.8806 58.5682 41.8806Z" fill="white"/>
<rect x="25" y="65.9999" width="15.25" height="18.9333" rx="1" fill="#E4EBF2"/>
<rect x="41.25" y="65.9999" width="15.25" height="18.9333" rx="1" fill="#00AEF0"/>
<path fill-rule="evenodd" clip-rule="evenodd" d="M51.6875 74.9041C51.6875 76.4573 50.4283 77.7166 48.875 77.7166C47.3217 77.7166 46.0625 76.4573 46.0625 74.9041C46.0625 73.3508 47.3217 72.0916 48.875 72.0916C50.4283 72.0916 51.6875 73.3508 51.6875 74.9041Z" fill="#00AEF0"/>
<path fill-rule="evenodd" clip-rule="evenodd" d="M52.5898 78.4404C52.2166 77.5821 52.1523 76.8549 52.1423 76.5692V74.2182C52.1423 72.4223 50.6792 70.9666 48.8744 70.9666C47.0695 70.9666 45.6063 72.4223 45.6063 74.2182V76.6032C45.5924 76.9105 45.519 77.6155 45.1602 78.4404C44.6779 79.5487 45.077 79.4166 45.4346 79.3255C45.792 79.2346 46.5904 78.8786 46.8398 79.3172C47.0891 79.7555 47.2971 80.1362 47.8791 79.888C48.4612 79.6398 48.7355 79.5572 48.8186 79.5572H48.9316C49.0146 79.5572 49.289 79.6398 49.871 79.888C50.453 80.1362 50.6609 79.7555 50.9104 79.3172C51.1597 78.8786 51.958 79.2346 52.3156 79.3255C52.6731 79.4166 53.072 79.5487 52.5898 78.4404ZM47.8657 72.7396C48.2177 72.7396 48.5031 73.1889 48.5031 73.7433C48.5031 74.2976 48.2177 74.747 47.8657 74.747C47.5138 74.747 47.2284 74.2976 47.2284 73.7433C47.2284 73.1889 47.5138 72.7396 47.8657 72.7396ZM48.8745 76.7513C48.0988 76.7513 47.4459 75.9917 47.2491 75.1465C47.6291 75.6664 48.2157 76.0004 48.8745 76.0004C49.5332 76.0004 50.1197 75.6664 50.4998 75.1465C50.303 75.9917 49.65 76.7513 48.8745 76.7513ZM49.8831 74.747C49.5309 74.747 49.2456 74.2976 49.2456 73.7433C49.2456 73.1889 49.5309 72.7396 49.8831 72.7396C50.2353 72.7396 50.5205 73.1889 50.5205 73.7433C50.5205 74.2976 50.2353 74.747 49.8831 74.747Z" fill="white"/>
<rect x="57.5" y="65.9999" width="15.25" height="18.9333" rx="1" fill="#E4EBF2"/>
<rect x="73.75" y="65.9999" width="15.25" height="18.9333" rx="1" fill="#E4EBF2"/>
</g>
</g>
<defs>
<clipPath id="clip0_443_16914">
<rect width="120" height="80" fill="white"/>
</clipPath>
<clipPath id="clip1_443_16914">
<rect width="142" height="94.6667" fill="white" transform="translate(-11 1.33337)"/>
</clipPath>
</defs>
</svg>
