<svg width="120" height="80" viewBox="0 0 120 80" fill="none" xmlns="http://www.w3.org/2000/svg">
<g clip-path="url(#clip0_513_1905)">
<g clip-path="url(#clip1_513_1905)">
<rect width="142" height="96" transform="translate(-11)" fill="white"/>
<rect x="2" y="2" width="116" height="9" rx="1" fill="#E4EBF2"/>
<rect x="2.0166" y="13" width="115.967" height="13.135" rx="1" fill="#8FA1B2"/>
<rect x="2.0166" y="28" width="21.4183" height="26.625" rx="1" fill="#E4EBF2"/>
<rect x="2.0166" y="56.625" width="21.3" height="41.2983" rx="1" fill="#E4EBF2"/>
<rect x="90.7666" y="28" width="27" height="28" rx="1" fill="#E4EBF2"/>
<rect x="90.7666" y="58" width="27" height="18" rx="1" fill="#8FA1B2"/>
<rect x="90.7666" y="78" width="27.2167" height="21.0633" rx="1" fill="#E4EBF2"/>
<rect x="25" y="28" width="64" height="36" rx="1" fill="#E4EBF2"/>
<rect x="27" y="30" width="60" height="26" rx="2" fill="#8FA1B2"/>
<rect x="25" y="66" width="15.25" height="18.9333" rx="1" fill="#E4EBF2"/>
<rect x="41.25" y="66" width="15.25" height="18.9333" rx="2" fill="#8FA1B2"/>
<rect x="57.5" y="66" width="15.25" height="18.9333" rx="1" fill="#E4EBF2"/>
<rect x="73.75" y="66" width="15.25" height="18.9333" rx="1" fill="#E4EBF2"/>
</g>
<rect opacity="0.5" width="120" height="80" fill="#04192D"/>
<rect width="51" height="80" transform="translate(69)" fill="white"/>
<rect x="75" y="5" width="37" height="1" rx="0.366492" fill="#8FA1B3"/>
<rect x="75" y="6.73291" width="37" height="1" rx="0.366492" fill="#8FA1B3"/>
<rect x="75" y="8.46606" width="38" height="1" rx="0.366492" fill="#8FA1B3"/>
<rect x="75" y="10.199" width="34" height="1" rx="0.366492" fill="#8FA1B3"/>
<rect x="75" y="12.665" width="35" height="1" rx="0.366492" fill="#8FA1B3"/>
<rect x="75" y="14.3979" width="36" height="1" rx="0.366492" fill="#8FA1B3"/>
<rect x="75" y="16.1311" width="32" height="1" rx="0.366492" fill="#8FA1B3"/>
<rect x="75" y="17.864" width="15" height="1" rx="0.366492" fill="#8FA1B3"/>
<rect x="75" y="20.3298" width="37" height="1" rx="0.366492" fill="#8FA1B3"/>
<rect x="75" y="22.0627" width="35" height="1" rx="0.366492" fill="#8FA1B3"/>
<rect x="75" y="23.7959" width="37" height="1" rx="0.366492" fill="#8FA1B3"/>
<rect x="75" y="25.5288" width="38" height="1" rx="0.366492" fill="#8FA1B3"/>
<rect x="75" y="27.2617" width="37" height="1" rx="0.366492" fill="#8FA1B3"/>
<rect x="75" y="28.9949" width="34" height="1" rx="0.366492" fill="#8FA1B3"/>
<rect x="75" y="30.7278" width="11" height="1" rx="0.366492" fill="#8FA1B3"/>
<rect x="75" y="33.1936" width="36" height="1" rx="0.366492" fill="#8FA1B3"/>
<rect x="75" y="34.9265" width="36" height="1" rx="0.366492" fill="#8FA1B3"/>
<rect x="75" y="36.6597" width="37" height="1" rx="0.366492" fill="#8FA1B3"/>
<rect x="75" y="38.3926" width="36" height="1" rx="0.366492" fill="#8FA1B3"/>
<rect x="75" y="40.8586" width="34" height="1" rx="0.366492" fill="#8FA1B3"/>
<rect x="75" y="42.5916" width="15" height="1" rx="0.366492" fill="#8FA1B3"/>
<rect x="75" y="45.0576" width="35" height="1" rx="0.366492" fill="#8FA1B3"/>
<rect x="75" y="46.7905" width="36" height="1" rx="0.366492" fill="#8FA1B3"/>
<rect x="75" y="48.5237" width="32" height="1" rx="0.366492" fill="#8FA1B3"/>
<rect x="75" y="50.2566" width="15" height="1" rx="0.366492" fill="#8FA1B3"/>
<rect x="75" y="52.7224" width="37" height="1" rx="0.366492" fill="#8FA1B3"/>
<rect x="75" y="54.4553" width="35" height="1" rx="0.366492" fill="#8FA1B3"/>
<rect x="75" y="56.1885" width="37" height="1" rx="0.366492" fill="#8FA1B3"/>
<rect x="75" y="57.9214" width="38" height="1" rx="0.366492" fill="#8FA1B3"/>
<rect x="75" y="59.6543" width="37" height="1" rx="0.366492" fill="#8FA1B3"/>
<rect x="75" y="61.3875" width="34" height="1" rx="0.366492" fill="#8FA1B3"/>
<rect x="75" y="63.1204" width="11" height="1" rx="0.366492" fill="#8FA1B3"/>
<rect x="75" y="65.5864" width="36" height="1" rx="0.366492" fill="#8FA1B3"/>
<rect x="75" y="67.3193" width="36" height="1" rx="0.366492" fill="#8FA1B3"/>
<rect x="75" y="69.0525" width="37" height="1" rx="0.366492" fill="#8FA1B3"/>
<rect x="75" y="70.7854" width="36" height="1" rx="0.366492" fill="#8FA1B3"/>
<rect x="75" y="73.2515" width="34" height="1" rx="0.366492" fill="#8FA1B3"/>
<rect x="75" y="74.9844" width="15" height="1" rx="0.366492" fill="#8FA1B3"/>
<rect x="47.5" y="9.5" width="23" height="17" rx="2.08483" fill="#00AEF0"/>
<path fill-rule="evenodd" clip-rule="evenodd" d="M61.8125 17.4375C61.8125 18.9908 60.5533 20.25 59 20.25C57.4467 20.25 56.1875 18.9908 56.1875 17.4375C56.1875 15.8842 57.4467 14.625 59 14.625C60.5533 14.625 61.8125 15.8842 61.8125 17.4375Z" fill="#00AEF0"/>
<path fill-rule="evenodd" clip-rule="evenodd" d="M62.7148 20.9738C62.3416 20.1156 62.2773 19.3883 62.2673 19.1026V16.7517C62.2673 14.9558 60.8042 13.5 58.9994 13.5C57.1945 13.5 55.7313 14.9558 55.7313 16.7517V19.1366C55.7174 19.444 55.644 20.149 55.2852 20.9738C54.8029 22.0822 55.202 21.9501 55.5596 21.8589C55.917 21.7681 56.7154 21.4121 56.9648 21.8506C57.2141 22.2889 57.4221 22.6696 58.0041 22.4214C58.5862 22.1733 58.8605 22.0906 58.9436 22.0906H59.0566C59.1396 22.0906 59.414 22.1733 59.996 22.4214C60.578 22.6696 60.7859 22.2889 61.0354 21.8506C61.2847 21.4121 62.083 21.7681 62.4406 21.8589C62.7981 21.9501 63.197 22.0822 62.7148 20.9738ZM57.9907 15.2731C58.3427 15.2731 58.6281 15.7223 58.6281 16.2767C58.6281 16.8311 58.3427 17.2805 57.9907 17.2805C57.6387 17.2805 57.3533 16.8311 57.3533 16.2767C57.3533 15.7223 57.6387 15.2731 57.9907 15.2731ZM58.9994 19.2847C58.2238 19.2847 57.5708 18.5251 57.3741 17.68C57.7541 18.1998 58.3406 18.5339 58.9994 18.5339C59.6582 18.5339 60.2447 18.1998 60.6247 17.68C60.428 18.5251 59.7749 19.2847 58.9994 19.2847ZM60.0081 17.2805C59.6559 17.2805 59.3706 16.8311 59.3706 16.2767C59.3706 15.7223 59.6559 15.2731 60.0081 15.2731C60.3603 15.2731 60.6455 15.7223 60.6455 16.2767C60.6455 16.8311 60.3603 17.2805 60.0081 17.2805Z" fill="white"/>
<rect x="47.5" y="9.5" width="23" height="17" rx="2.08483" stroke="white"/>
</g>
<defs>
<clipPath id="clip0_513_1905">
<rect width="120" height="80" fill="white"/>
</clipPath>
<clipPath id="clip1_513_1905">
<rect width="142" height="96" fill="white" transform="translate(-11)"/>
</clipPath>
</defs>
</svg>
