<svg width="1200" height="800" viewBox="0 0 1200 800" fill="none" xmlns="http://www.w3.org/2000/svg">
<g clip-path="url(#clip0_506_412)">
<rect width="1200" height="800" fill="white"/>
<rect width="1200" height="79" fill="#E4EBF2"/>
<rect x="110" y="39" width="120" height="20" rx="10" fill="#8FA1B3"/>
<rect x="697" y="46" width="68" height="6" rx="3" fill="#8FA1B3"/>
<rect x="769" y="46" width="46" height="6" rx="3" fill="#8FA1B3"/>
<rect opacity="0.5" x="831" y="43" width="1" height="12" rx="0.5" fill="#8FA1B3"/>
<rect x="848" y="46" width="44" height="6" rx="3" fill="#8FA1B3"/>
<rect x="896" y="46" width="56" height="6" rx="3" fill="#8FA1B3"/>
<rect x="980" y="46" width="44" height="6" rx="3" fill="#8FA1B3"/>
<rect x="968.5" y="31.5" width="67" height="35" rx="7.5" stroke="#B8C2CC"/>
<rect x="1064" y="42" width="14" height="14" rx="7" fill="#8FA1B3"/>
<rect x="1052.5" y="31.5" width="37" height="35" rx="7.5" stroke="#B8C2CC"/>
<rect x="110" y="11" width="68" height="6" rx="3" fill="#8FA1B3"/>
<rect x="182" y="11" width="46" height="6" rx="3" fill="#8FA1B3"/>
<rect x="232" y="11" width="33" height="6" rx="3" fill="#8FA1B3"/>
<rect opacity="0.5" x="281" y="8" width="1" height="12" rx="0.5" fill="#8FA1B3"/>
<rect x="298" y="11" width="36" height="6" rx="3" fill="#8FA1B3"/>
<rect x="338" y="11" width="68" height="6" rx="3" fill="#8FA1B3"/>
<rect x="410" y="11" width="33" height="6" rx="3" fill="#8FA1B3"/>
<rect opacity="0.5" x="459" y="8" width="1" height="12" rx="0.5" fill="#8FA1B3"/>
<rect x="476" y="11" width="33" height="6" rx="3" fill="#8FA1B3"/>
<rect x="513" y="11" width="68" height="6" rx="3" fill="#8FA1B3"/>
<rect opacity="0.5" x="597" y="8" width="1" height="12" rx="0.5" fill="#8FA1B3"/>
<rect x="614" y="11" width="68" height="6" rx="3" fill="#8FA1B3"/>
<rect x="686" y="11" width="90" height="6" rx="3" fill="#8FA1B3"/>
<rect x="780" y="11" width="46" height="6" rx="3" fill="#8FA1B3"/>
<rect x="830" y="11" width="33" height="6" rx="3" fill="#8FA1B3"/>
<rect x="110" y="91" width="980" height="111" rx="6" fill="#8FA1B3"/>
<path d="M587.12 161.046L598.114 150.052C598.774 149.392 599.105 149.062 599.485 148.939C599.82 148.83 600.18 148.83 600.515 148.939C600.896 149.062 601.226 149.392 601.886 150.052L612.807 160.973M603.333 151.5L608.114 146.719C608.774 146.059 609.105 145.729 609.485 145.605C609.82 145.496 610.18 145.496 610.515 145.605C610.896 145.729 611.226 146.059 611.886 146.719L616.667 151.5M596.667 141.5C596.667 143.341 595.174 144.833 593.333 144.833C591.493 144.833 590 143.341 590 141.5C590 139.659 591.493 138.167 593.333 138.167C595.174 138.167 596.667 139.659 596.667 141.5ZM591.333 161.5H608.667C611.467 161.5 612.867 161.5 613.937 160.955C614.878 160.476 615.642 159.711 616.122 158.77C616.667 157.7 616.667 156.3 616.667 153.5V139.5C616.667 136.7 616.667 135.3 616.122 134.23C615.642 133.289 614.878 132.524 613.937 132.045C612.867 131.5 611.467 131.5 608.667 131.5H591.333C588.533 131.5 587.133 131.5 586.064 132.045C585.123 132.524 584.358 133.289 583.878 134.23C583.333 135.3 583.333 136.7 583.333 139.5V153.5C583.333 156.3 583.333 157.7 583.878 158.77C584.358 159.711 585.123 160.476 586.064 160.955C587.133 161.5 588.533 161.5 591.333 161.5Z" stroke="white" stroke-width="2" stroke-linecap="round" stroke-linejoin="round"/>
<rect x="110" y="214" width="181" height="197" rx="8" fill="#E4EBF2"/>
<rect x="167" y="242" width="66" height="6" rx="3" fill="#8FA1B3"/>
<rect x="126.5" y="230.5" width="147" height="29" rx="7.5" stroke="#B8C2CC"/>
<rect x="150" y="276" width="124" height="6" rx="3" fill="#8FA1B3"/>
<rect x="150" y="286" width="92" height="6" rx="3" fill="#8FA1B3"/>
<rect x="126" y="276" width="16" height="16" rx="3" fill="#8FA1B3"/>
<rect x="126" y="304" width="149" height="1" fill="#E4EBF2"/>
<rect x="150" y="321" width="124" height="6" rx="3" fill="#8FA1B3"/>
<rect x="150" y="331" width="92" height="6" rx="3" fill="#8FA1B3"/>
<rect x="126" y="321" width="16" height="16" rx="3" fill="#8FA1B3"/>
<rect x="126" y="349" width="149" height="1" fill="#E4EBF2"/>
<rect x="150" y="366" width="124" height="6" rx="3" fill="#8FA1B3"/>
<rect x="150" y="376" width="92" height="6" rx="3" fill="#8FA1B3"/>
<rect x="126" y="366" width="16" height="16" rx="3" fill="#8FA1B3"/>
<rect x="110" y="423" width="180" height="349" rx="8" fill="#E4EBF2"/>
<rect x="150" y="492" width="124" height="6" rx="3" fill="#8FA1B3"/>
<rect x="150" y="502" width="92" height="6" rx="3" fill="#8FA1B3"/>
<rect x="126" y="492" width="16" height="16" rx="3" fill="#8FA1B3"/>
<rect x="126" y="520" width="149" height="1" fill="#E4EBF2"/>
<rect x="150" y="537" width="124" height="6" rx="3" fill="#8FA1B3"/>
<rect x="150" y="547" width="92" height="6" rx="3" fill="#8FA1B3"/>
<rect x="126" y="537" width="16" height="16" rx="3" fill="#8FA1B3"/>
<rect x="126" y="565" width="149" height="1" fill="#E4EBF2"/>
<rect x="150" y="582" width="124" height="6" rx="3" fill="#8FA1B3"/>
<rect x="150" y="592" width="92" height="6" rx="3" fill="#8FA1B3"/>
<rect x="126" y="582" width="16" height="16" rx="3" fill="#8FA1B3"/>
<rect x="126" y="610" width="149" height="1" fill="#E4EBF2"/>
<rect x="150" y="627" width="124" height="6" rx="3" fill="#8FA1B3"/>
<rect x="150" y="637" width="92" height="6" rx="3" fill="#8FA1B3"/>
<rect x="126" y="627" width="16" height="16" rx="3" fill="#8FA1B3"/>
<rect x="126" y="655" width="149" height="1" fill="#E4EBF2"/>
<rect x="150" y="672" width="124" height="6" rx="3" fill="#8FA1B3"/>
<rect x="150" y="682" width="92" height="6" rx="3" fill="#8FA1B3"/>
<rect x="126" y="672" width="16" height="16" rx="3" fill="#8FA1B3"/>
<rect x="126" y="700" width="149" height="1" fill="#E4EBF2"/>
<rect x="150" y="717" width="124" height="6" rx="3" fill="#8FA1B3"/>
<rect x="150" y="727" width="92" height="6" rx="3" fill="#8FA1B3"/>
<rect x="126" y="717" width="16" height="16" rx="3" fill="#8FA1B3"/>
<rect x="126" y="745" width="149" height="1" fill="#E4EBF2"/>
<rect x="126" y="447" width="112" height="12" rx="6" fill="#8FA1B3"/>
<rect x="126" y="475" width="149" height="1" fill="#E4EBF2"/>
<rect x="860" y="214" width="230" height="235" rx="8" fill="#E4EBF2"/>
<rect x="876" y="230" width="112" height="12" rx="6" fill="#8FA1B3"/>
<rect x="876" y="258" width="198" height="1" fill="#E4EBF2"/>
<circle cx="879" cy="278" r="3" fill="#8FA1B3"/>
<rect x="890" y="275" width="177" height="6" rx="3" fill="#8FA1B3"/>
<rect x="890" y="285" width="137" height="6" rx="3" fill="#8FA1B3"/>
<circle cx="879" cy="310" r="3" fill="#8FA1B3"/>
<rect x="890" y="307" width="175" height="6" rx="3" fill="#8FA1B3"/>
<circle cx="879" cy="332" r="3" fill="#8FA1B3"/>
<rect x="890" y="329" width="158" height="6" rx="3" fill="#8FA1B3"/>
<circle cx="879" cy="354" r="3" fill="#8FA1B3"/>
<rect x="890" y="351" width="184" height="6" rx="3" fill="#8FA1B3"/>
<rect x="890" y="361" width="137" height="6" rx="3" fill="#8FA1B3"/>
<circle cx="879" cy="386" r="3" fill="#8FA1B3"/>
<rect x="890" y="383" width="95" height="6" rx="3" fill="#8FA1B3"/>
<circle cx="879" cy="408" r="3" fill="#8FA1B3"/>
<rect x="890" y="405" width="132" height="6" rx="3" fill="#8FA1B3"/>
<circle cx="879" cy="430" r="3" fill="#8FA1B3"/>
<rect x="890" y="427" width="130" height="6" rx="3" fill="#8FA1B3"/>
<rect x="860" y="461" width="230" height="178" rx="8" fill="#E4EBF2"/>
<rect x="868" y="473" width="63" height="12" rx="6" fill="#8FA1B3"/>
<rect x="868" y="493" width="214" height="134" rx="6" fill="#8FA1B3"/>
<path d="M962.12 574.546L973.114 563.552C973.774 562.892 974.105 562.562 974.485 562.439C974.82 562.33 975.18 562.33 975.515 562.439C975.896 562.562 976.226 562.892 976.886 563.552L987.807 574.473M978.333 565L983.114 560.219C983.774 559.559 984.105 559.229 984.485 559.105C984.82 558.996 985.18 558.996 985.515 559.105C985.896 559.229 986.226 559.559 986.886 560.219L991.667 565M971.667 555C971.667 556.841 970.174 558.333 968.333 558.333C966.493 558.333 965 556.841 965 555C965 553.159 966.493 551.667 968.333 551.667C970.174 551.667 971.667 553.159 971.667 555ZM966.333 575H983.667C986.467 575 987.867 575 988.937 574.455C989.878 573.976 990.642 573.211 991.122 572.27C991.667 571.2 991.667 569.8 991.667 567V553C991.667 550.2 991.667 548.8 991.122 547.73C990.642 546.789 989.878 546.024 988.937 545.545C987.867 545 986.467 545 983.667 545H966.333C963.533 545 962.133 545 961.064 545.545C960.123 546.024 959.358 546.789 958.878 547.73C958.333 548.8 958.333 550.2 958.333 553V567C958.333 569.8 958.333 571.2 958.878 572.27C959.358 573.211 960.123 573.976 961.064 574.455C962.133 575 963.533 575 966.333 575Z" stroke="white" stroke-width="2" stroke-linecap="round" stroke-linejoin="round"/>
<rect x="860" y="651" width="230" height="178" rx="8" fill="#E4EBF2"/>
<rect x="868" y="663" width="63" height="12" rx="6" fill="#8FA1B3"/>
<rect x="868" y="683" width="214" height="134" rx="6" fill="#8FA1B3"/>
<path d="M962.12 764.546L973.114 753.552C973.774 752.892 974.105 752.562 974.485 752.439C974.82 752.33 975.18 752.33 975.515 752.439C975.896 752.562 976.226 752.892 976.886 753.552L987.807 764.473M978.333 755L983.114 750.219C983.774 749.559 984.105 749.229 984.485 749.105C984.82 748.996 985.18 748.996 985.515 749.105C985.896 749.229 986.226 749.559 986.886 750.219L991.667 755M971.667 745C971.667 746.841 970.174 748.333 968.333 748.333C966.493 748.333 965 746.841 965 745C965 743.159 966.493 741.667 968.333 741.667C970.174 741.667 971.667 743.159 971.667 745ZM966.333 765H983.667C986.467 765 987.867 765 988.937 764.455C989.878 763.976 990.642 763.211 991.122 762.27C991.667 761.2 991.667 759.8 991.667 757V743C991.667 740.2 991.667 738.8 991.122 737.73C990.642 736.789 989.878 736.024 988.937 735.545C987.867 735 986.467 735 983.667 735H966.333C963.533 735 962.133 735 961.064 735.545C960.123 736.024 959.358 736.789 958.878 737.73C958.333 738.8 958.333 740.2 958.333 743V757C958.333 759.8 958.333 761.2 958.878 762.27C959.358 763.211 960.123 763.976 961.064 764.455C962.133 765 963.533 765 966.333 765Z" stroke="white" stroke-width="2" stroke-linecap="round" stroke-linejoin="round"/>
<rect x="306" y="214" width="538" height="306" rx="8" fill="#E4EBF2"/>
<rect x="322" y="230" width="506" height="186" rx="6" fill="#8FA1B3"/>
<path d="M562.12 337.546L573.114 326.552C573.774 325.892 574.105 325.562 574.485 325.439C574.82 325.33 575.18 325.33 575.515 325.439C575.896 325.562 576.226 325.892 576.886 326.552L587.807 337.473M578.333 328L583.114 323.219C583.774 322.559 584.105 322.229 584.485 322.105C584.82 321.996 585.18 321.996 585.515 322.105C585.896 322.229 586.226 322.559 586.886 323.219L591.667 328M571.667 318C571.667 319.841 570.174 321.333 568.333 321.333C566.493 321.333 565 319.841 565 318C565 316.159 566.493 314.667 568.333 314.667C570.174 314.667 571.667 316.159 571.667 318ZM566.333 338H583.667C586.467 338 587.867 338 588.937 337.455C589.878 336.976 590.642 336.211 591.122 335.27C591.667 334.2 591.667 332.8 591.667 330V316C591.667 313.2 591.667 311.8 591.122 310.73C590.642 309.789 589.878 309.024 588.937 308.545C587.867 308 586.467 308 583.667 308H566.333C563.533 308 562.133 308 561.064 308.545C560.123 309.024 559.358 309.789 558.878 310.73C558.333 311.8 558.333 313.2 558.333 316V330C558.333 332.8 558.333 334.2 558.878 335.27C559.358 336.211 560.123 336.976 561.064 337.455C562.133 338 563.533 338 566.333 338Z" stroke="white" stroke-width="2" stroke-linecap="round" stroke-linejoin="round"/>
<rect x="322" y="440" width="229" height="12" rx="6" fill="#8FA1B3"/>
<rect x="322" y="464" width="418" height="8" rx="3" fill="#8FA1B3"/>
<rect x="322" y="478" width="418" height="8" rx="3" fill="#8FA1B3"/>
<rect x="322" y="498" width="29" height="6" rx="3" fill="#E4EBF2"/>
<rect x="306" y="532" width="538" height="106" rx="8" fill="#E4EBF2"/>
<rect x="314" y="540" width="120" height="90" rx="6" fill="#8FA1B3"/>
<path d="M361.12 599.546L372.114 588.552C372.774 587.892 373.105 587.562 373.485 587.439C373.82 587.33 374.18 587.33 374.515 587.439C374.896 587.562 375.226 587.892 375.886 588.552L386.807 599.473M377.333 590L382.114 585.219C382.774 584.559 383.105 584.229 383.485 584.105C383.82 583.996 384.18 583.996 384.515 584.105C384.896 584.229 385.226 584.559 385.886 585.219L390.667 590M370.667 580C370.667 581.841 369.174 583.333 367.333 583.333C365.493 583.333 364 581.841 364 580C364 578.159 365.493 576.667 367.333 576.667C369.174 576.667 370.667 578.159 370.667 580ZM365.333 600H382.667C385.467 600 386.867 600 387.937 599.455C388.878 598.976 389.642 598.211 390.122 597.27C390.667 596.2 390.667 594.8 390.667 592V578C390.667 575.2 390.667 573.8 390.122 572.73C389.642 571.789 388.878 571.024 387.937 570.545C386.867 570 385.467 570 382.667 570H365.333C362.533 570 361.133 570 360.064 570.545C359.123 571.024 358.358 571.789 357.878 572.73C357.333 573.8 357.333 575.2 357.333 578V592C357.333 594.8 357.333 596.2 357.878 597.27C358.358 598.211 359.123 598.976 360.064 599.455C361.133 600 362.533 600 365.333 600Z" stroke="white" stroke-width="2" stroke-linecap="round" stroke-linejoin="round"/>
<rect x="450" y="543" width="229" height="12" rx="6" fill="#8FA1B3"/>
<rect x="450" y="571" width="371" height="6" rx="3" fill="#8FA1B3"/>
<rect x="450" y="585" width="379" height="6" rx="3" fill="#8FA1B3"/>
<rect x="450" y="599" width="304" height="6" rx="3" fill="#8FA1B3"/>
<rect x="450" y="621" width="29" height="6" rx="3" fill="#E4EBF2"/>
<rect x="306" y="650" width="128.5" height="160" rx="8" fill="#E4EBF2"/>
<rect x="312" y="656" width="116.5" height="80" rx="6" fill="#8FA1B3"/>
<path d="M357.37 710.546L368.364 699.552C369.024 698.892 369.355 698.562 369.735 698.439C370.07 698.33 370.43 698.33 370.765 698.439C371.146 698.562 371.476 698.892 372.136 699.552L383.057 710.473M373.583 701L378.364 696.219C379.024 695.559 379.355 695.229 379.735 695.105C380.07 694.996 380.43 694.996 380.765 695.105C381.146 695.229 381.476 695.559 382.136 696.219L386.917 701M366.917 691C366.917 692.841 365.424 694.333 363.583 694.333C361.743 694.333 360.25 692.841 360.25 691C360.25 689.159 361.743 687.667 363.583 687.667C365.424 687.667 366.917 689.159 366.917 691ZM361.583 711H378.917C381.717 711 383.117 711 384.187 710.455C385.128 709.976 385.892 709.211 386.372 708.27C386.917 707.2 386.917 705.8 386.917 703V689C386.917 686.2 386.917 684.8 386.372 683.73C385.892 682.789 385.128 682.024 384.187 681.545C383.117 681 381.717 681 378.917 681H361.583C358.783 681 357.383 681 356.314 681.545C355.373 682.024 354.608 682.789 354.128 683.73C353.583 684.8 353.583 686.2 353.583 689V703C353.583 705.8 353.583 707.2 354.128 708.27C354.608 709.211 355.373 709.976 356.314 710.455C357.383 711 358.783 711 361.583 711Z" stroke="white" stroke-width="2" stroke-linecap="round" stroke-linejoin="round"/>
<rect x="312" y="744" width="109" height="6" rx="3" fill="#8FA1B3"/>
<rect x="312" y="754" width="111" height="6" rx="3" fill="#8FA1B3"/>
<rect x="312" y="764" width="89" height="6" rx="3" fill="#8FA1B3"/>
<rect x="312" y="778" width="18" height="6" rx="3" fill="#B8C2CC"/>
<rect x="442.5" y="650" width="128.5" height="160" rx="8" fill="#E4EBF2"/>
<rect x="448.5" y="656" width="116.5" height="80" rx="6" fill="#8FA1B3"/>
<path d="M493.87 710.546L504.864 699.552C505.524 698.892 505.855 698.562 506.235 698.439C506.57 698.33 506.93 698.33 507.265 698.439C507.646 698.562 507.976 698.892 508.636 699.552L519.557 710.473M510.083 701L514.864 696.219C515.524 695.559 515.855 695.229 516.235 695.105C516.57 694.996 516.93 694.996 517.265 695.105C517.646 695.229 517.976 695.559 518.636 696.219L523.417 701M503.417 691C503.417 692.841 501.924 694.333 500.083 694.333C498.243 694.333 496.75 692.841 496.75 691C496.75 689.159 498.243 687.667 500.083 687.667C501.924 687.667 503.417 689.159 503.417 691ZM498.083 711H515.417C518.217 711 519.617 711 520.687 710.455C521.628 709.976 522.392 709.211 522.872 708.27C523.417 707.2 523.417 705.8 523.417 703V689C523.417 686.2 523.417 684.8 522.872 683.73C522.392 682.789 521.628 682.024 520.687 681.545C519.617 681 518.217 681 515.417 681H498.083C495.283 681 493.883 681 492.814 681.545C491.873 682.024 491.108 682.789 490.628 683.73C490.083 684.8 490.083 686.2 490.083 689V703C490.083 705.8 490.083 707.2 490.628 708.27C491.108 709.211 491.873 709.976 492.814 710.455C493.883 711 495.283 711 498.083 711Z" stroke="white" stroke-width="2" stroke-linecap="round" stroke-linejoin="round"/>
<rect x="448.5" y="744" width="109" height="6" rx="3" fill="#8FA1B3"/>
<rect x="448.5" y="754" width="111" height="6" rx="3" fill="#8FA1B3"/>
<rect x="448.5" y="764" width="89" height="6" rx="3" fill="#8FA1B3"/>
<rect x="448.5" y="778" width="18" height="6" rx="3" fill="#B8C2CC"/>
<rect x="579" y="650" width="128.5" height="160" rx="8" fill="#E4EBF2"/>
<rect x="585" y="656" width="116.5" height="80" rx="6" fill="#8FA1B3"/>
<path d="M630.37 710.546L641.364 699.552C642.024 698.892 642.355 698.562 642.735 698.439C643.07 698.33 643.43 698.33 643.765 698.439C644.146 698.562 644.476 698.892 645.136 699.552L656.057 710.473M646.583 701L651.364 696.219C652.024 695.559 652.355 695.229 652.735 695.105C653.07 694.996 653.43 694.996 653.765 695.105C654.146 695.229 654.476 695.559 655.136 696.219L659.917 701M639.917 691C639.917 692.841 638.424 694.333 636.583 694.333C634.743 694.333 633.25 692.841 633.25 691C633.25 689.159 634.743 687.667 636.583 687.667C638.424 687.667 639.917 689.159 639.917 691ZM634.583 711H651.917C654.717 711 656.117 711 657.187 710.455C658.128 709.976 658.892 709.211 659.372 708.27C659.917 707.2 659.917 705.8 659.917 703V689C659.917 686.2 659.917 684.8 659.372 683.73C658.892 682.789 658.128 682.024 657.187 681.545C656.117 681 654.717 681 651.917 681H634.583C631.783 681 630.383 681 629.314 681.545C628.373 682.024 627.608 682.789 627.128 683.73C626.583 684.8 626.583 686.2 626.583 689V703C626.583 705.8 626.583 707.2 627.128 708.27C627.608 709.211 628.373 709.976 629.314 710.455C630.383 711 631.783 711 634.583 711Z" stroke="white" stroke-width="2" stroke-linecap="round" stroke-linejoin="round"/>
<rect x="585" y="744" width="109" height="6" rx="3" fill="#8FA1B3"/>
<rect x="585" y="754" width="111" height="6" rx="3" fill="#8FA1B3"/>
<rect x="585" y="764" width="89" height="6" rx="3" fill="#8FA1B3"/>
<rect x="585" y="778" width="18" height="6" rx="3" fill="#B8C2CC"/>
<rect x="715.5" y="650" width="128.5" height="160" rx="8" fill="#E4EBF2"/>
<rect x="721.5" y="656" width="116.5" height="80" rx="6" fill="#8FA1B3"/>
<path d="M766.87 710.546L777.864 699.552C778.524 698.892 778.855 698.562 779.235 698.439C779.57 698.33 779.93 698.33 780.265 698.439C780.646 698.562 780.976 698.892 781.636 699.552L792.557 710.473M783.083 701L787.864 696.219C788.524 695.559 788.855 695.229 789.235 695.105C789.57 694.996 789.93 694.996 790.265 695.105C790.646 695.229 790.976 695.559 791.636 696.219L796.417 701M776.417 691C776.417 692.841 774.924 694.333 773.083 694.333C771.243 694.333 769.75 692.841 769.75 691C769.75 689.159 771.243 687.667 773.083 687.667C774.924 687.667 776.417 689.159 776.417 691ZM771.083 711H788.417C791.217 711 792.617 711 793.687 710.455C794.628 709.976 795.392 709.211 795.872 708.27C796.417 707.2 796.417 705.8 796.417 703V689C796.417 686.2 796.417 684.8 795.872 683.73C795.392 682.789 794.628 682.024 793.687 681.545C792.617 681 791.217 681 788.417 681H771.083C768.283 681 766.883 681 765.814 681.545C764.873 682.024 764.108 682.789 763.628 683.73C763.083 684.8 763.083 686.2 763.083 689V703C763.083 705.8 763.083 707.2 763.628 708.27C764.108 709.211 764.873 709.976 765.814 710.455C766.883 711 768.283 711 771.083 711Z" stroke="white" stroke-width="2" stroke-linecap="round" stroke-linejoin="round"/>
<rect x="721.5" y="744" width="109" height="6" rx="3" fill="#8FA1B3"/>
<rect x="721.5" y="754" width="111" height="6" rx="3" fill="#8FA1B3"/>
<rect x="721.5" y="764" width="89" height="6" rx="3" fill="#8FA1B3"/>
<rect x="721.5" y="778" width="18" height="6" rx="3" fill="#B8C2CC"/>
<rect opacity="0.5" width="1200" height="800" fill="#04192D"/>
<rect x="295" y="114" width="609" height="573" rx="16" fill="white"/>
<rect x="390" y="184" width="229" height="24" rx="12" fill="#8FA1B3"/>
<rect x="390" y="220" width="388" height="8" rx="3" fill="#8FA1B3"/>
<rect x="390" y="234" width="399" height="8" rx="3" fill="#8FA1B3"/>
<rect x="390" y="248" width="350" height="8" rx="3" fill="#8FA1B3"/>
<rect x="390" y="262" width="168" height="8" rx="3" fill="#8FA1B3"/>
<rect x="390" y="282" width="402" height="8" rx="3" fill="#8FA1B3"/>
<rect x="390" y="296" width="389" height="8" rx="3" fill="#8FA1B3"/>
<rect x="390" y="310" width="409" height="8" rx="3" fill="#8FA1B3"/>
<rect x="390" y="324" width="418" height="8" rx="3" fill="#8FA1B3"/>
<rect x="390" y="338" width="412" height="8" rx="3" fill="#8FA1B3"/>
<rect x="390" y="352" width="375" height="8" rx="3" fill="#8FA1B3"/>
<rect x="390" y="366" width="119" height="8" rx="3" fill="#8FA1B3"/>
<rect x="390" y="386" width="392" height="8" rx="3" fill="#8FA1B3"/>
<rect x="390" y="400" width="395" height="8" rx="3" fill="#8FA1B3"/>
<rect x="390" y="414" width="404" height="8" rx="3" fill="#8FA1B3"/>
<rect x="390" y="428" width="392" height="8" rx="3" fill="#8FA1B3"/>
<rect x="390" y="442" width="414" height="8" rx="3" fill="#8FA1B3"/>
<rect x="390" y="456" width="372" height="8" rx="3" fill="#8FA1B3"/>
<rect x="390" y="470" width="168" height="8" rx="3" fill="#8FA1B3"/>
<rect x="390" y="490" width="29" height="6" rx="3" fill="#E4EBF2"/>
<rect x="545.486" y="618.459" width="107.027" height="9.72973" rx="4.86486" fill="#8FA1B3"/>
<rect x="479.811" y="599.811" width="238.378" height="47.027" rx="12.1622" stroke="#B8C2CC" stroke-width="1.62162"/>
<rect x="479" y="542" width="240" height="48.6486" rx="12.973" fill="#00AEF0"/>
<rect x="545.486" y="561.459" width="107.027" height="9.72973" rx="4.86486" fill="white"/>
<rect x="79" y="79" width="292" height="133" rx="12" fill="#00AEF0"/>
<path fill-rule="evenodd" clip-rule="evenodd" d="M235 117.5C235 123.023 230.523 127.5 225 127.5C219.477 127.5 215 123.023 215 117.5C215 111.977 219.477 107.5 225 107.5C230.523 107.5 235 111.977 235 117.5Z" fill="#00AEF0"/>
<path fill-rule="evenodd" clip-rule="evenodd" d="M238.208 130.074C236.881 127.022 236.653 124.436 236.617 123.42V115.062C236.617 108.676 231.415 103.5 224.998 103.5C218.58 103.5 213.378 108.676 213.378 115.062V123.541C213.328 124.634 213.068 127.141 211.792 130.074C210.077 134.014 211.496 133.545 212.767 133.221C214.038 132.898 216.877 131.632 217.764 133.191C218.65 134.75 219.39 136.103 221.459 135.221C223.529 134.338 224.504 134.044 224.799 134.044H225.201C225.496 134.044 226.472 134.338 228.541 135.221C230.611 136.103 231.35 134.75 232.237 133.191C233.123 131.632 235.962 132.898 237.233 133.221C238.504 133.545 239.923 134.014 238.208 130.074ZM221.411 109.804C222.663 109.804 223.678 111.402 223.678 113.373C223.678 115.344 222.663 116.942 221.411 116.942C220.16 116.942 219.145 115.344 219.145 113.373C219.145 111.402 220.16 109.804 221.411 109.804ZM224.998 124.068C222.24 124.068 219.919 121.367 219.219 118.362C220.57 120.21 222.656 121.398 224.998 121.398C227.34 121.398 229.425 120.21 230.777 118.362C230.077 121.367 227.755 124.068 224.998 124.068ZM228.584 116.942C227.332 116.942 226.318 115.344 226.318 113.373C226.318 111.402 227.332 109.804 228.584 109.804C229.837 109.804 230.851 111.402 230.851 113.373C230.851 115.344 229.837 116.942 228.584 116.942Z" fill="white"/>
<path d="M138.969 152.545C138.846 152.157 138.68 151.81 138.471 151.503C138.266 151.192 138.021 150.928 137.736 150.71C137.45 150.489 137.124 150.32 136.758 150.205C136.396 150.09 135.997 150.033 135.562 150.033C134.825 150.033 134.161 150.222 133.568 150.602C132.976 150.981 132.507 151.537 132.162 152.27C131.821 152.999 131.651 153.891 131.651 154.948C131.651 156.009 131.823 156.906 132.168 157.639C132.513 158.372 132.987 158.928 133.587 159.308C134.188 159.687 134.872 159.876 135.639 159.876C136.351 159.876 136.971 159.732 137.499 159.442C138.032 159.152 138.443 158.743 138.733 158.214C139.027 157.682 139.174 157.055 139.174 156.335L139.685 156.431H135.94V154.801H141.085V156.29C141.085 157.39 140.851 158.344 140.382 159.154C139.918 159.96 139.274 160.582 138.452 161.021C137.634 161.46 136.696 161.679 135.639 161.679C134.455 161.679 133.415 161.406 132.52 160.861C131.629 160.315 130.935 159.542 130.436 158.54C129.938 157.535 129.688 156.342 129.688 154.961C129.688 153.917 129.833 152.979 130.123 152.148C130.413 151.317 130.82 150.612 131.344 150.033C131.872 149.449 132.492 149.004 133.204 148.697C133.92 148.386 134.702 148.23 135.55 148.23C136.257 148.23 136.915 148.335 137.525 148.543C138.138 148.752 138.684 149.048 139.161 149.432C139.643 149.815 140.041 150.271 140.357 150.8C140.672 151.324 140.885 151.906 140.996 152.545H138.969ZM145.35 155.67V161.5H143.439V148.409H145.325V153.28H145.446C145.676 152.751 146.028 152.332 146.501 152.021C146.974 151.71 147.592 151.554 148.355 151.554C149.028 151.554 149.616 151.692 150.119 151.969C150.626 152.246 151.018 152.66 151.295 153.21C151.576 153.755 151.717 154.437 151.717 155.255V161.5H149.806V155.485C149.806 154.765 149.62 154.207 149.249 153.81C148.879 153.41 148.363 153.21 147.703 153.21C147.251 153.21 146.846 153.305 146.488 153.497C146.134 153.689 145.855 153.97 145.651 154.341C145.45 154.707 145.35 155.151 145.35 155.67ZM158.403 161.698C157.482 161.698 156.679 161.487 155.993 161.065C155.307 160.643 154.774 160.053 154.395 159.295C154.016 158.536 153.826 157.65 153.826 156.636C153.826 155.617 154.016 154.727 154.395 153.964C154.774 153.201 155.307 152.609 155.993 152.187C156.679 151.765 157.482 151.554 158.403 151.554C159.323 151.554 160.127 151.765 160.813 152.187C161.499 152.609 162.031 153.201 162.411 153.964C162.79 154.727 162.98 155.617 162.98 156.636C162.98 157.65 162.79 158.536 162.411 159.295C162.031 160.053 161.499 160.643 160.813 161.065C160.127 161.487 159.323 161.698 158.403 161.698ZM158.409 160.094C159.006 160.094 159.5 159.936 159.892 159.621C160.284 159.305 160.574 158.886 160.762 158.362C160.953 157.837 161.049 157.26 161.049 156.629C161.049 156.003 160.953 155.428 160.762 154.903C160.574 154.375 160.284 153.951 159.892 153.631C159.5 153.312 159.006 153.152 158.409 153.152C157.808 153.152 157.31 153.312 156.914 153.631C156.521 153.951 156.23 154.375 156.038 154.903C155.85 155.428 155.757 156.003 155.757 156.629C155.757 157.26 155.85 157.837 156.038 158.362C156.23 158.886 156.521 159.305 156.914 159.621C157.31 159.936 157.808 160.094 158.409 160.094ZM172.47 154.079L170.738 154.386C170.665 154.164 170.55 153.953 170.393 153.753C170.239 153.553 170.031 153.388 169.766 153.261C169.502 153.133 169.172 153.069 168.776 153.069C168.234 153.069 167.783 153.19 167.42 153.433C167.058 153.672 166.877 153.981 166.877 154.36C166.877 154.688 166.999 154.952 167.241 155.153C167.484 155.353 167.876 155.517 168.418 155.645L169.977 156.003C170.881 156.212 171.554 156.533 171.997 156.968C172.44 157.403 172.662 157.967 172.662 158.662C172.662 159.25 172.491 159.774 172.151 160.234C171.814 160.69 171.343 161.048 170.738 161.308C170.137 161.568 169.44 161.698 168.648 161.698C167.548 161.698 166.651 161.464 165.957 160.995C165.262 160.522 164.836 159.851 164.678 158.982L166.526 158.7C166.641 159.182 166.877 159.546 167.235 159.793C167.593 160.036 168.06 160.158 168.635 160.158C169.261 160.158 169.762 160.028 170.137 159.768C170.512 159.504 170.7 159.182 170.7 158.803C170.7 158.496 170.585 158.238 170.354 158.029C170.129 157.82 169.781 157.663 169.312 157.556L167.651 157.192C166.734 156.983 166.057 156.651 165.618 156.195C165.183 155.739 164.966 155.161 164.966 154.462C164.966 153.883 165.128 153.376 165.452 152.941C165.776 152.506 166.223 152.168 166.794 151.925C167.365 151.678 168.019 151.554 168.756 151.554C169.817 151.554 170.653 151.784 171.262 152.244C171.871 152.7 172.274 153.312 172.47 154.079ZM179.346 151.682V153.216H173.983V151.682H179.346ZM175.422 149.33H177.333V158.617C177.333 158.988 177.388 159.267 177.499 159.455C177.61 159.638 177.753 159.763 177.927 159.832C178.106 159.896 178.3 159.928 178.509 159.928C178.662 159.928 178.797 159.917 178.912 159.896C179.027 159.874 179.116 159.857 179.18 159.844L179.525 161.423C179.415 161.466 179.257 161.509 179.052 161.551C178.848 161.598 178.592 161.624 178.285 161.628C177.782 161.636 177.314 161.547 176.879 161.359C176.444 161.172 176.093 160.882 175.824 160.49C175.556 160.098 175.422 159.606 175.422 159.013V149.33ZM185.587 161.698C184.619 161.698 183.786 161.491 183.087 161.078C182.393 160.661 181.856 160.075 181.477 159.32C181.102 158.562 180.914 157.673 180.914 156.655C180.914 155.649 181.102 154.763 181.477 153.996C181.856 153.229 182.384 152.63 183.062 152.2C183.744 151.769 184.54 151.554 185.452 151.554C186.006 151.554 186.543 151.646 187.063 151.829C187.583 152.012 188.05 152.3 188.463 152.692C188.876 153.084 189.202 153.593 189.441 154.219C189.68 154.842 189.799 155.598 189.799 156.489V157.166H181.994V155.734H187.926C187.926 155.232 187.824 154.786 187.619 154.398C187.415 154.006 187.127 153.697 186.756 153.472C186.39 153.246 185.96 153.133 185.465 153.133C184.928 153.133 184.46 153.265 184.059 153.529C183.663 153.789 183.356 154.13 183.138 154.552C182.925 154.969 182.819 155.423 182.819 155.913V157.032C182.819 157.688 182.934 158.246 183.164 158.707C183.398 159.167 183.724 159.518 184.142 159.761C184.56 160 185.048 160.119 185.606 160.119C185.968 160.119 186.298 160.068 186.597 159.966C186.895 159.859 187.153 159.702 187.37 159.493C187.587 159.284 187.754 159.026 187.869 158.719L189.678 159.045C189.533 159.578 189.273 160.045 188.898 160.445C188.527 160.842 188.06 161.151 187.498 161.372C186.94 161.589 186.303 161.698 185.587 161.698ZM191.92 161.5V151.682H193.767V153.241H193.869C194.048 152.713 194.363 152.298 194.815 151.995C195.271 151.688 195.787 151.535 196.362 151.535C196.481 151.535 196.622 151.539 196.784 151.548C196.95 151.556 197.08 151.567 197.174 151.58V153.408C197.097 153.386 196.961 153.363 196.765 153.337C196.569 153.308 196.373 153.293 196.177 153.293C195.725 153.293 195.322 153.388 194.969 153.58C194.619 153.768 194.342 154.03 194.138 154.366C193.933 154.699 193.831 155.078 193.831 155.504V161.5H191.92ZM200.335 165.182C200.049 165.182 199.789 165.158 199.555 165.112C199.32 165.069 199.146 165.022 199.031 164.971L199.491 163.405C199.84 163.499 200.151 163.539 200.424 163.526C200.697 163.513 200.938 163.411 201.146 163.219C201.36 163.028 201.547 162.714 201.709 162.28L201.945 161.628L198.353 151.682H200.399L202.885 159.301H202.987L205.474 151.682H207.526L203.48 162.81C203.292 163.322 203.053 163.754 202.764 164.108C202.474 164.466 202.129 164.734 201.728 164.913C201.328 165.092 200.863 165.182 200.335 165.182ZM215.997 155.67V161.5H214.086V148.409H215.971V153.28H216.093C216.323 152.751 216.674 152.332 217.147 152.021C217.62 151.71 218.238 151.554 219.001 151.554C219.674 151.554 220.262 151.692 220.765 151.969C221.272 152.246 221.664 152.66 221.941 153.21C222.223 153.755 222.363 154.437 222.363 155.255V161.5H220.452V155.485C220.452 154.765 220.267 154.207 219.896 153.81C219.525 153.41 219.01 153.21 218.349 153.21C217.897 153.21 217.493 153.305 217.135 153.497C216.781 153.689 216.502 153.97 216.297 154.341C216.097 154.707 215.997 155.151 215.997 155.67ZM224.914 161.5V151.682H226.825V161.5H224.914ZM225.879 150.167C225.547 150.167 225.261 150.056 225.022 149.835C224.788 149.609 224.671 149.34 224.671 149.029C224.671 148.714 224.788 148.445 225.022 148.224C225.261 147.998 225.547 147.885 225.879 147.885C226.211 147.885 226.495 147.998 226.729 148.224C226.968 148.445 227.087 148.714 227.087 149.029C227.087 149.34 226.968 149.609 226.729 149.835C226.495 150.056 226.211 150.167 225.879 150.167ZM233.072 161.692C232.279 161.692 231.572 161.489 230.949 161.085C230.331 160.675 229.846 160.094 229.492 159.339C229.143 158.581 228.968 157.671 228.968 156.61C228.968 155.549 229.145 154.641 229.498 153.887C229.856 153.133 230.346 152.555 230.969 152.155C231.591 151.754 232.296 151.554 233.084 151.554C233.694 151.554 234.184 151.656 234.555 151.861C234.93 152.061 235.219 152.295 235.424 152.564C235.633 152.832 235.795 153.069 235.91 153.273H236.025V148.409H237.936V161.5H236.069V159.972H235.91C235.795 160.181 235.628 160.42 235.411 160.688C235.198 160.957 234.904 161.191 234.529 161.391C234.154 161.592 233.668 161.692 233.072 161.692ZM233.493 160.062C234.043 160.062 234.508 159.917 234.887 159.627C235.27 159.333 235.56 158.926 235.756 158.406C235.956 157.886 236.057 157.281 236.057 156.591C236.057 155.909 235.959 155.312 235.763 154.801C235.567 154.29 235.279 153.891 234.9 153.606C234.52 153.32 234.052 153.178 233.493 153.178C232.918 153.178 232.439 153.327 232.055 153.625C231.672 153.923 231.382 154.33 231.186 154.846C230.994 155.362 230.898 155.943 230.898 156.591C230.898 157.247 230.996 157.837 231.192 158.362C231.388 158.886 231.678 159.301 232.062 159.608C232.449 159.911 232.927 160.062 233.493 160.062ZM244.895 161.698C243.928 161.698 243.095 161.491 242.396 161.078C241.701 160.661 241.164 160.075 240.785 159.32C240.41 158.562 240.223 157.673 240.223 156.655C240.223 155.649 240.41 154.763 240.785 153.996C241.164 153.229 241.693 152.63 242.37 152.2C243.052 151.769 243.849 151.554 244.761 151.554C245.315 151.554 245.852 151.646 246.372 151.829C246.892 152.012 247.358 152.3 247.772 152.692C248.185 153.084 248.511 153.593 248.75 154.219C248.988 154.842 249.108 155.598 249.108 156.489V157.166H241.303V155.734H247.235C247.235 155.232 247.132 154.786 246.928 154.398C246.723 154.006 246.436 153.697 246.065 153.472C245.699 153.246 245.268 153.133 244.774 153.133C244.237 153.133 243.768 153.265 243.368 153.529C242.971 153.789 242.664 154.13 242.447 154.552C242.234 154.969 242.127 155.423 242.127 155.913V157.032C242.127 157.688 242.243 158.246 242.473 158.707C242.707 159.167 243.033 159.518 243.451 159.761C243.868 160 244.356 160.119 244.914 160.119C245.277 160.119 245.607 160.068 245.905 159.966C246.203 159.859 246.461 159.702 246.679 159.493C246.896 159.284 247.062 159.026 247.177 158.719L248.986 159.045C248.841 159.578 248.581 160.045 248.206 160.445C247.836 160.842 247.369 161.151 246.806 161.372C246.248 161.589 245.611 161.698 244.895 161.698ZM258.585 154.079L256.853 154.386C256.781 154.164 256.666 153.953 256.508 153.753C256.355 153.553 256.146 153.388 255.882 153.261C255.617 153.133 255.287 153.069 254.891 153.069C254.35 153.069 253.898 153.19 253.536 153.433C253.173 153.672 252.992 153.981 252.992 154.36C252.992 154.688 253.114 154.952 253.357 155.153C253.6 155.353 253.992 155.517 254.533 155.645L256.093 156.003C256.996 156.212 257.669 156.533 258.112 156.968C258.556 157.403 258.777 157.967 258.777 158.662C258.777 159.25 258.607 159.774 258.266 160.234C257.929 160.69 257.458 161.048 256.853 161.308C256.252 161.568 255.556 161.698 254.763 161.698C253.664 161.698 252.767 161.464 252.072 160.995C251.377 160.522 250.951 159.851 250.794 158.982L252.641 158.7C252.756 159.182 252.992 159.546 253.35 159.793C253.708 160.036 254.175 160.158 254.75 160.158C255.377 160.158 255.877 160.028 256.252 159.768C256.627 159.504 256.815 159.182 256.815 158.803C256.815 158.496 256.7 158.238 256.47 158.029C256.244 157.82 255.896 157.663 255.428 157.556L253.766 157.192C252.85 156.983 252.172 156.651 251.733 156.195C251.298 155.739 251.081 155.161 251.081 154.462C251.081 153.883 251.243 153.376 251.567 152.941C251.891 152.506 252.338 152.168 252.909 151.925C253.48 151.678 254.134 151.554 254.872 151.554C255.933 151.554 256.768 151.784 257.377 152.244C257.987 152.7 258.389 153.312 258.585 154.079ZM269.778 161.698C268.828 161.698 268.009 161.483 267.323 161.053C266.642 160.618 266.117 160.019 265.751 159.256C265.384 158.494 265.201 157.62 265.201 156.636C265.201 155.638 265.389 154.759 265.764 153.996C266.139 153.229 266.667 152.63 267.349 152.2C268.031 151.769 268.834 151.554 269.759 151.554C270.504 151.554 271.169 151.692 271.753 151.969C272.337 152.242 272.808 152.626 273.166 153.12C273.528 153.614 273.743 154.192 273.811 154.852H271.951C271.849 154.392 271.615 153.996 271.248 153.663C270.886 153.331 270.4 153.165 269.791 153.165C269.258 153.165 268.791 153.305 268.391 153.587C267.994 153.864 267.686 154.26 267.464 154.776C267.242 155.287 267.132 155.892 267.132 156.591C267.132 157.307 267.24 157.925 267.458 158.445C267.675 158.964 267.982 159.367 268.378 159.653C268.779 159.938 269.249 160.081 269.791 160.081C270.153 160.081 270.481 160.015 270.775 159.883C271.073 159.746 271.323 159.553 271.523 159.301C271.727 159.05 271.87 158.747 271.951 158.393H273.811C273.743 159.028 273.536 159.595 273.191 160.094C272.846 160.592 272.384 160.984 271.804 161.27C271.229 161.555 270.553 161.698 269.778 161.698ZM279.991 161.698C279.07 161.698 278.267 161.487 277.581 161.065C276.895 160.643 276.362 160.053 275.983 159.295C275.604 158.536 275.414 157.65 275.414 156.636C275.414 155.617 275.604 154.727 275.983 153.964C276.362 153.201 276.895 152.609 277.581 152.187C278.267 151.765 279.07 151.554 279.991 151.554C280.911 151.554 281.714 151.765 282.401 152.187C283.087 152.609 283.619 153.201 283.999 153.964C284.378 154.727 284.567 155.617 284.567 156.636C284.567 157.65 284.378 158.536 283.999 159.295C283.619 160.053 283.087 160.643 282.401 161.065C281.714 161.487 280.911 161.698 279.991 161.698ZM279.997 160.094C280.594 160.094 281.088 159.936 281.48 159.621C281.872 159.305 282.162 158.886 282.349 158.362C282.541 157.837 282.637 157.26 282.637 156.629C282.637 156.003 282.541 155.428 282.349 154.903C282.162 154.375 281.872 153.951 281.48 153.631C281.088 153.312 280.594 153.152 279.997 153.152C279.396 153.152 278.898 153.312 278.501 153.631C278.109 153.951 277.817 154.375 277.626 154.903C277.438 155.428 277.344 156.003 277.344 156.629C277.344 157.26 277.438 157.837 277.626 158.362C277.817 158.886 278.109 159.305 278.501 159.621C278.898 159.936 279.396 160.094 279.997 160.094ZM290.836 161.698C289.916 161.698 289.113 161.487 288.427 161.065C287.741 160.643 287.208 160.053 286.829 159.295C286.449 158.536 286.26 157.65 286.26 156.636C286.26 155.617 286.449 154.727 286.829 153.964C287.208 153.201 287.741 152.609 288.427 152.187C289.113 151.765 289.916 151.554 290.836 151.554C291.757 151.554 292.56 151.765 293.246 152.187C293.932 152.609 294.465 153.201 294.844 153.964C295.224 154.727 295.413 155.617 295.413 156.636C295.413 157.65 295.224 158.536 294.844 159.295C294.465 160.053 293.932 160.643 293.246 161.065C292.56 161.487 291.757 161.698 290.836 161.698ZM290.843 160.094C291.439 160.094 291.934 159.936 292.326 159.621C292.718 159.305 293.008 158.886 293.195 158.362C293.387 157.837 293.483 157.26 293.483 156.629C293.483 156.003 293.387 155.428 293.195 154.903C293.008 154.375 292.718 153.951 292.326 153.631C291.934 153.312 291.439 153.152 290.843 153.152C290.242 153.152 289.743 153.312 289.347 153.631C288.955 153.951 288.663 154.375 288.471 154.903C288.284 155.428 288.19 156.003 288.19 156.629C288.19 157.26 288.284 157.837 288.471 158.362C288.663 158.886 288.955 159.305 289.347 159.621C289.743 159.936 290.242 160.094 290.843 160.094ZM299.304 158.17L299.292 155.837H299.624L303.536 151.682H305.824L301.363 156.412H301.062L299.304 158.17ZM297.547 161.5V148.409H299.458V161.5H297.547ZM303.747 161.5L300.231 156.834L301.548 155.498L306.093 161.5H303.747ZM307.566 161.5V151.682H309.477V161.5H307.566ZM308.531 150.167C308.199 150.167 307.913 150.056 307.675 149.835C307.44 149.609 307.323 149.34 307.323 149.029C307.323 148.714 307.44 148.445 307.675 148.224C307.913 147.998 308.199 147.885 308.531 147.885C308.864 147.885 309.147 147.998 309.381 148.224C309.62 148.445 309.739 148.714 309.739 149.029C309.739 149.34 309.62 149.609 309.381 149.835C309.147 150.056 308.864 150.167 308.531 150.167ZM316.28 161.698C315.313 161.698 314.48 161.491 313.781 161.078C313.086 160.661 312.549 160.075 312.17 159.32C311.795 158.562 311.607 157.673 311.607 156.655C311.607 155.649 311.795 154.763 312.17 153.996C312.549 153.229 313.078 152.63 313.755 152.2C314.437 151.769 315.234 151.554 316.146 151.554C316.7 151.554 317.237 151.646 317.757 151.829C318.276 152.012 318.743 152.3 319.156 152.692C319.57 153.084 319.896 153.593 320.134 154.219C320.373 154.842 320.492 155.598 320.492 156.489V157.166H312.688V155.734H318.619C318.619 155.232 318.517 154.786 318.313 154.398C318.108 154.006 317.82 153.697 317.45 153.472C317.083 153.246 316.653 153.133 316.159 153.133C315.622 153.133 315.153 153.265 314.752 153.529C314.356 153.789 314.049 154.13 313.832 154.552C313.619 154.969 313.512 155.423 313.512 155.913V157.032C313.512 157.688 313.627 158.246 313.857 158.707C314.092 159.167 314.418 159.518 314.835 159.761C315.253 160 315.741 160.119 316.299 160.119C316.661 160.119 316.992 160.068 317.29 159.966C317.588 159.859 317.846 159.702 318.063 159.493C318.281 159.284 318.447 159.026 318.562 158.719L320.371 159.045C320.226 159.578 319.966 160.045 319.591 160.445C319.22 160.842 318.754 161.151 318.191 161.372C317.633 161.589 316.996 161.698 316.28 161.698ZM101.964 187.182V173.682H103.83V175.273H103.99C104.101 175.069 104.26 174.832 104.469 174.564C104.678 174.295 104.968 174.061 105.339 173.861C105.709 173.656 106.199 173.554 106.809 173.554C107.601 173.554 108.309 173.754 108.931 174.155C109.553 174.555 110.041 175.133 110.395 175.887C110.753 176.641 110.932 177.549 110.932 178.61C110.932 179.671 110.755 180.581 110.401 181.339C110.047 182.094 109.562 182.675 108.944 183.085C108.326 183.489 107.62 183.692 106.828 183.692C106.231 183.692 105.743 183.592 105.364 183.391C104.989 183.191 104.695 182.957 104.482 182.688C104.269 182.42 104.105 182.181 103.99 181.972H103.875V187.182H101.964ZM103.836 178.591C103.836 179.281 103.937 179.886 104.137 180.406C104.337 180.926 104.627 181.333 105.006 181.627C105.385 181.917 105.85 182.062 106.4 182.062C106.971 182.062 107.448 181.911 107.831 181.608C108.215 181.301 108.505 180.886 108.701 180.362C108.901 179.837 109.001 179.247 109.001 178.591C109.001 177.943 108.903 177.362 108.707 176.846C108.515 176.33 108.226 175.923 107.838 175.625C107.454 175.327 106.975 175.178 106.4 175.178C105.846 175.178 105.377 175.32 104.993 175.606C104.614 175.891 104.326 176.29 104.13 176.801C103.934 177.312 103.836 177.909 103.836 178.591ZM117.209 183.698C116.288 183.698 115.485 183.487 114.799 183.065C114.113 182.643 113.58 182.053 113.201 181.295C112.821 180.536 112.632 179.65 112.632 178.636C112.632 177.617 112.821 176.727 113.201 175.964C113.58 175.201 114.113 174.609 114.799 174.187C115.485 173.765 116.288 173.554 117.209 173.554C118.129 173.554 118.932 173.765 119.618 174.187C120.304 174.609 120.837 175.201 121.216 175.964C121.596 176.727 121.785 177.617 121.785 178.636C121.785 179.65 121.596 180.536 121.216 181.295C120.837 182.053 120.304 182.643 119.618 183.065C118.932 183.487 118.129 183.698 117.209 183.698ZM117.215 182.094C117.812 182.094 118.306 181.936 118.698 181.621C119.09 181.305 119.38 180.886 119.567 180.362C119.759 179.837 119.855 179.26 119.855 178.629C119.855 178.003 119.759 177.428 119.567 176.903C119.38 176.375 119.09 175.951 118.698 175.631C118.306 175.312 117.812 175.152 117.215 175.152C116.614 175.152 116.116 175.312 115.719 175.631C115.327 175.951 115.035 176.375 114.843 176.903C114.656 177.428 114.562 178.003 114.562 178.629C114.562 179.26 114.656 179.837 114.843 180.362C115.035 180.886 115.327 181.305 115.719 181.621C116.116 181.936 116.614 182.094 117.215 182.094ZM123.919 187.182V173.682H125.785V175.273H125.945C126.056 175.069 126.215 174.832 126.424 174.564C126.633 174.295 126.923 174.061 127.294 173.861C127.664 173.656 128.154 173.554 128.764 173.554C129.556 173.554 130.264 173.754 130.886 174.155C131.508 174.555 131.996 175.133 132.35 175.887C132.708 176.641 132.887 177.549 132.887 178.61C132.887 179.671 132.71 180.581 132.356 181.339C132.002 182.094 131.517 182.675 130.899 183.085C130.281 183.489 129.576 183.692 128.783 183.692C128.186 183.692 127.698 183.592 127.319 183.391C126.944 183.191 126.65 182.957 126.437 182.688C126.224 182.42 126.06 182.181 125.945 181.972H125.83V187.182H123.919ZM125.791 178.591C125.791 179.281 125.892 179.886 126.092 180.406C126.292 180.926 126.582 181.333 126.961 181.627C127.34 181.917 127.805 182.062 128.355 182.062C128.926 182.062 129.403 181.911 129.786 181.608C130.17 181.301 130.46 180.886 130.656 180.362C130.856 179.837 130.956 179.247 130.956 178.591C130.956 177.943 130.858 177.362 130.662 176.846C130.47 176.33 130.181 175.923 129.793 175.625C129.409 175.327 128.93 175.178 128.355 175.178C127.801 175.178 127.332 175.32 126.948 175.606C126.569 175.891 126.282 176.29 126.085 176.801C125.889 177.312 125.791 177.909 125.791 178.591ZM141.247 179.428V173.682H143.165V183.5H141.286V181.8H141.184C140.958 182.324 140.595 182.761 140.097 183.11C139.603 183.455 138.987 183.628 138.25 183.628C137.619 183.628 137.061 183.489 136.575 183.212C136.093 182.931 135.714 182.516 135.437 181.966C135.164 181.416 135.028 180.737 135.028 179.927V173.682H136.939V179.697C136.939 180.366 137.125 180.898 137.495 181.295C137.866 181.691 138.348 181.889 138.94 181.889C139.298 181.889 139.654 181.8 140.007 181.621C140.365 181.442 140.661 181.171 140.896 180.809C141.134 180.447 141.252 179.987 141.247 179.428ZM145.733 187.182V173.682H147.6V175.273H147.759C147.87 175.069 148.03 174.832 148.239 174.564C148.448 174.295 148.737 174.061 149.108 173.861C149.479 173.656 149.969 173.554 150.578 173.554C151.371 173.554 152.078 173.754 152.7 174.155C153.323 174.555 153.81 175.133 154.164 175.887C154.522 176.641 154.701 177.549 154.701 178.61C154.701 179.671 154.524 180.581 154.171 181.339C153.817 182.094 153.331 182.675 152.713 183.085C152.095 183.489 151.39 183.692 150.597 183.692C150.001 183.692 149.513 183.592 149.134 183.391C148.759 183.191 148.465 182.957 148.252 182.688C148.038 182.42 147.874 182.181 147.759 181.972H147.644V187.182H145.733ZM147.606 178.591C147.606 179.281 147.706 179.886 147.906 180.406C148.107 180.926 148.396 181.333 148.776 181.627C149.155 181.917 149.619 182.062 150.169 182.062C150.74 182.062 151.217 181.911 151.601 181.608C151.984 181.301 152.274 180.886 152.47 180.362C152.671 179.837 152.771 179.247 152.771 178.591C152.771 177.943 152.673 177.362 152.477 176.846C152.285 176.33 151.995 175.923 151.607 175.625C151.224 175.327 150.744 175.178 150.169 175.178C149.615 175.178 149.146 175.32 148.763 175.606C148.384 175.891 148.096 176.29 147.9 176.801C147.704 177.312 147.606 177.909 147.606 178.591ZM164.2 176.079L162.467 176.386C162.395 176.164 162.28 175.953 162.122 175.753C161.969 175.553 161.76 175.388 161.496 175.261C161.232 175.133 160.901 175.069 160.505 175.069C159.964 175.069 159.512 175.19 159.15 175.433C158.788 175.672 158.607 175.981 158.607 176.36C158.607 176.688 158.728 176.952 158.971 177.153C159.214 177.353 159.606 177.517 160.147 177.645L161.707 178.003C162.61 178.212 163.283 178.533 163.727 178.968C164.17 179.403 164.391 179.967 164.391 180.662C164.391 181.25 164.221 181.774 163.88 182.234C163.543 182.69 163.073 183.048 162.467 183.308C161.867 183.568 161.17 183.698 160.377 183.698C159.278 183.698 158.381 183.464 157.686 182.995C156.992 182.522 156.565 181.851 156.408 180.982L158.255 180.7C158.37 181.182 158.607 181.546 158.965 181.793C159.323 182.036 159.789 182.158 160.364 182.158C160.991 182.158 161.492 182.028 161.867 181.768C162.242 181.504 162.429 181.182 162.429 180.803C162.429 180.496 162.314 180.238 162.084 180.029C161.858 179.82 161.511 179.663 161.042 179.556L159.38 179.192C158.464 178.983 157.786 178.651 157.347 178.195C156.913 177.739 156.695 177.161 156.695 176.462C156.695 175.883 156.857 175.376 157.181 174.941C157.505 174.506 157.953 174.168 158.524 173.925C159.095 173.678 159.749 173.554 160.486 173.554C161.547 173.554 162.382 173.784 162.992 174.244C163.601 174.7 164.004 175.312 164.2 176.079ZM174.114 183.717C173.492 183.717 172.929 183.602 172.426 183.372C171.923 183.138 171.525 182.799 171.231 182.356C170.941 181.913 170.796 181.369 170.796 180.726C170.796 180.172 170.903 179.716 171.116 179.358C171.329 179 171.617 178.717 171.979 178.508C172.341 178.299 172.746 178.141 173.193 178.035C173.641 177.928 174.097 177.847 174.561 177.792C175.149 177.724 175.627 177.668 175.993 177.626C176.359 177.579 176.626 177.504 176.792 177.402C176.958 177.3 177.041 177.134 177.041 176.903V176.859C177.041 176.3 176.884 175.868 176.568 175.561C176.257 175.254 175.793 175.101 175.175 175.101C174.531 175.101 174.024 175.244 173.653 175.529C173.287 175.81 173.033 176.124 172.893 176.469L171.097 176.06C171.31 175.463 171.621 174.982 172.03 174.615C172.443 174.244 172.918 173.976 173.455 173.81C173.992 173.639 174.557 173.554 175.149 173.554C175.541 173.554 175.957 173.601 176.396 173.695C176.839 173.784 177.252 173.95 177.636 174.193C178.024 174.436 178.341 174.783 178.588 175.235C178.835 175.683 178.959 176.264 178.959 176.98V183.5H177.092V182.158H177.016C176.892 182.405 176.707 182.648 176.46 182.886C176.212 183.125 175.895 183.323 175.507 183.481C175.119 183.638 174.655 183.717 174.114 183.717ZM174.529 182.183C175.058 182.183 175.509 182.079 175.884 181.87C176.264 181.661 176.551 181.388 176.747 181.052C176.948 180.711 177.048 180.347 177.048 179.959V178.693C176.979 178.761 176.847 178.825 176.651 178.885C176.46 178.94 176.24 178.989 175.993 179.032C175.746 179.07 175.505 179.107 175.271 179.141C175.036 179.17 174.84 179.196 174.683 179.217C174.312 179.264 173.973 179.343 173.666 179.454C173.364 179.565 173.121 179.724 172.938 179.933C172.759 180.138 172.669 180.411 172.669 180.751C172.669 181.224 172.844 181.582 173.193 181.825C173.543 182.064 173.988 182.183 174.529 182.183ZM183.416 177.67V183.5H181.505V173.682H183.339V175.28H183.46C183.686 174.76 184.04 174.342 184.522 174.027C185.007 173.712 185.619 173.554 186.356 173.554C187.025 173.554 187.611 173.695 188.114 173.976C188.617 174.253 189.007 174.666 189.284 175.216C189.561 175.766 189.699 176.445 189.699 177.255V183.5H187.788V177.485C187.788 176.773 187.603 176.217 187.232 175.817C186.861 175.412 186.352 175.21 185.704 175.21C185.261 175.21 184.867 175.305 184.522 175.497C184.181 175.689 183.91 175.97 183.71 176.341C183.514 176.707 183.416 177.151 183.416 177.67ZM195.938 183.692C195.145 183.692 194.438 183.489 193.816 183.085C193.198 182.675 192.712 182.094 192.358 181.339C192.009 180.581 191.834 179.671 191.834 178.61C191.834 177.549 192.011 176.641 192.365 175.887C192.723 175.133 193.213 174.555 193.835 174.155C194.457 173.754 195.162 173.554 195.951 173.554C196.56 173.554 197.05 173.656 197.421 173.861C197.796 174.061 198.085 174.295 198.29 174.564C198.499 174.832 198.661 175.069 198.776 175.273H198.891V170.409H200.802V183.5H198.936V181.972H198.776C198.661 182.181 198.495 182.42 198.277 182.688C198.064 182.957 197.77 183.191 197.395 183.391C197.02 183.592 196.534 183.692 195.938 183.692ZM196.36 182.062C196.909 182.062 197.374 181.917 197.753 181.627C198.137 181.333 198.426 180.926 198.622 180.406C198.823 179.886 198.923 179.281 198.923 178.591C198.923 177.909 198.825 177.312 198.629 176.801C198.433 176.29 198.145 175.891 197.766 175.606C197.387 175.32 196.918 175.178 196.36 175.178C195.784 175.178 195.305 175.327 194.921 175.625C194.538 175.923 194.248 176.33 194.052 176.846C193.86 177.362 193.764 177.943 193.764 178.591C193.764 179.247 193.862 179.837 194.059 180.362C194.255 180.886 194.544 181.301 194.928 181.608C195.316 181.911 195.793 182.062 196.36 182.062ZM208.294 183.5V173.682H210.141V175.241H210.243C210.422 174.713 210.737 174.298 211.189 173.995C211.645 173.688 212.161 173.535 212.736 173.535C212.855 173.535 212.996 173.539 213.158 173.548C213.324 173.556 213.454 173.567 213.548 173.58V175.408C213.471 175.386 213.335 175.363 213.139 175.337C212.943 175.308 212.747 175.293 212.551 175.293C212.099 175.293 211.696 175.388 211.343 175.58C210.993 175.768 210.716 176.03 210.512 176.366C210.307 176.699 210.205 177.078 210.205 177.504V183.5H208.294ZM219.082 183.698C218.114 183.698 217.281 183.491 216.582 183.078C215.888 182.661 215.351 182.075 214.972 181.32C214.597 180.562 214.409 179.673 214.409 178.655C214.409 177.649 214.597 176.763 214.972 175.996C215.351 175.229 215.879 174.63 216.557 174.2C217.239 173.769 218.036 173.554 218.948 173.554C219.502 173.554 220.038 173.646 220.558 173.829C221.078 174.012 221.545 174.3 221.958 174.692C222.372 175.084 222.698 175.593 222.936 176.219C223.175 176.842 223.294 177.598 223.294 178.489V179.166H215.489V177.734H221.421C221.421 177.232 221.319 176.786 221.114 176.398C220.91 176.006 220.622 175.697 220.252 175.472C219.885 175.246 219.455 175.133 218.96 175.133C218.423 175.133 217.955 175.265 217.554 175.529C217.158 175.789 216.851 176.13 216.634 176.552C216.421 176.969 216.314 177.423 216.314 177.913V179.032C216.314 179.688 216.429 180.246 216.659 180.707C216.894 181.167 217.22 181.518 217.637 181.761C218.055 182 218.543 182.119 219.101 182.119C219.463 182.119 219.793 182.068 220.092 181.966C220.39 181.859 220.648 181.702 220.865 181.493C221.082 181.284 221.249 181.026 221.364 180.719L223.173 181.045C223.028 181.578 222.768 182.045 222.393 182.445C222.022 182.842 221.555 183.151 220.993 183.372C220.435 183.589 219.798 183.698 219.082 183.698ZM225.415 173.682H227.326V184.139C227.326 184.795 227.207 185.349 226.968 185.801C226.734 186.253 226.384 186.596 225.92 186.83C225.459 187.065 224.891 187.182 224.213 187.182C224.145 187.182 224.081 187.182 224.021 187.182C223.957 187.182 223.891 187.18 223.823 187.175V185.533C223.883 185.533 223.936 185.533 223.983 185.533C224.025 185.533 224.074 185.533 224.13 185.533C224.582 185.533 224.908 185.411 225.108 185.168C225.312 184.93 225.415 184.582 225.415 184.126V173.682ZM226.361 172.167C226.028 172.167 225.743 172.056 225.504 171.835C225.27 171.609 225.153 171.34 225.153 171.029C225.153 170.714 225.27 170.445 225.504 170.224C225.743 169.998 226.028 169.885 226.361 169.885C226.693 169.885 226.976 169.998 227.211 170.224C227.449 170.445 227.569 170.714 227.569 171.029C227.569 171.34 227.449 171.609 227.211 171.835C226.976 172.056 226.693 172.167 226.361 172.167ZM234.129 183.698C233.161 183.698 232.328 183.491 231.629 183.078C230.935 182.661 230.398 182.075 230.019 181.32C229.644 180.562 229.456 179.673 229.456 178.655C229.456 177.649 229.644 176.763 230.019 175.996C230.398 175.229 230.926 174.63 231.604 174.2C232.286 173.769 233.082 173.554 233.994 173.554C234.548 173.554 235.085 173.646 235.605 173.829C236.125 174.012 236.592 174.3 237.005 174.692C237.418 175.084 237.744 175.593 237.983 176.219C238.222 176.842 238.341 177.598 238.341 178.489V179.166H230.536V177.734H236.468C236.468 177.232 236.366 176.786 236.161 176.398C235.957 176.006 235.669 175.697 235.298 175.472C234.932 175.246 234.502 175.133 234.007 175.133C233.47 175.133 233.002 175.265 232.601 175.529C232.205 175.789 231.898 176.13 231.68 176.552C231.467 176.969 231.361 177.423 231.361 177.913V179.032C231.361 179.688 231.476 180.246 231.706 180.707C231.94 181.167 232.266 181.518 232.684 181.761C233.102 182 233.59 182.119 234.148 182.119C234.51 182.119 234.84 182.068 235.139 181.966C235.437 181.859 235.695 181.702 235.912 181.493C236.129 181.284 236.296 181.026 236.411 180.719L238.22 181.045C238.075 181.578 237.815 182.045 237.44 182.445C237.069 182.842 236.602 183.151 236.04 183.372C235.482 183.589 234.845 183.698 234.129 183.698ZM244.597 183.698C243.647 183.698 242.829 183.483 242.143 183.053C241.461 182.618 240.937 182.019 240.57 181.256C240.204 180.494 240.021 179.62 240.021 178.636C240.021 177.638 240.208 176.759 240.583 175.996C240.958 175.229 241.486 174.63 242.168 174.2C242.85 173.769 243.653 173.554 244.578 173.554C245.324 173.554 245.989 173.692 246.572 173.969C247.156 174.242 247.627 174.626 247.985 175.12C248.347 175.614 248.562 176.192 248.631 176.852H246.771C246.668 176.392 246.434 175.996 246.067 175.663C245.705 175.331 245.219 175.165 244.61 175.165C244.077 175.165 243.611 175.305 243.21 175.587C242.814 175.864 242.505 176.26 242.283 176.776C242.062 177.287 241.951 177.892 241.951 178.591C241.951 179.307 242.06 179.925 242.277 180.445C242.494 180.964 242.801 181.367 243.197 181.653C243.598 181.938 244.069 182.081 244.61 182.081C244.972 182.081 245.3 182.015 245.594 181.883C245.893 181.746 246.142 181.553 246.342 181.301C246.547 181.05 246.69 180.747 246.771 180.393H248.631C248.562 181.028 248.356 181.595 248.011 182.094C247.665 182.592 247.203 182.984 246.623 183.27C246.048 183.555 245.373 183.698 244.597 183.698ZM255.258 173.682V175.216H249.895V173.682H255.258ZM251.333 171.33H253.244V180.617C253.244 180.988 253.299 181.267 253.41 181.455C253.521 181.638 253.664 181.763 253.839 181.832C254.017 181.896 254.211 181.928 254.42 181.928C254.574 181.928 254.708 181.917 254.823 181.896C254.938 181.874 255.027 181.857 255.091 181.844L255.437 183.423C255.326 183.466 255.168 183.509 254.964 183.551C254.759 183.598 254.503 183.624 254.196 183.628C253.694 183.636 253.225 183.547 252.79 183.359C252.356 183.172 252.004 182.882 251.736 182.49C251.467 182.098 251.333 181.606 251.333 181.013V171.33ZM264.571 176.079L262.839 176.386C262.766 176.164 262.651 175.953 262.493 175.753C262.34 175.553 262.131 175.388 261.867 175.261C261.603 175.133 261.272 175.069 260.876 175.069C260.335 175.069 259.883 175.19 259.521 175.433C259.159 175.672 258.978 175.981 258.978 176.36C258.978 176.688 259.099 176.952 259.342 177.153C259.585 177.353 259.977 177.517 260.518 177.645L262.078 178.003C262.981 178.212 263.655 178.533 264.098 178.968C264.541 179.403 264.763 179.967 264.763 180.662C264.763 181.25 264.592 181.774 264.251 182.234C263.915 182.69 263.444 183.048 262.839 183.308C262.238 183.568 261.541 183.698 260.748 183.698C259.649 183.698 258.752 183.464 258.057 182.995C257.363 182.522 256.937 181.851 256.779 180.982L258.626 180.7C258.741 181.182 258.978 181.546 259.336 181.793C259.694 182.036 260.16 182.158 260.736 182.158C261.362 182.158 261.863 182.028 262.238 181.768C262.613 181.504 262.8 181.182 262.8 180.803C262.8 180.496 262.685 180.238 262.455 180.029C262.229 179.82 261.882 179.663 261.413 179.556L259.751 179.192C258.835 178.983 258.157 178.651 257.718 178.195C257.284 177.739 257.066 177.161 257.066 176.462C257.066 175.883 257.228 175.376 257.552 174.941C257.876 174.506 258.324 174.168 258.895 173.925C259.466 173.678 260.12 173.554 260.857 173.554C261.918 173.554 262.753 173.784 263.363 174.244C263.972 174.7 264.375 175.312 264.571 176.079ZM275.763 183.698C274.813 183.698 273.995 183.483 273.309 183.053C272.627 182.618 272.103 182.019 271.736 181.256C271.37 180.494 271.187 179.62 271.187 178.636C271.187 177.638 271.374 176.759 271.749 175.996C272.124 175.229 272.652 174.63 273.334 174.2C274.016 173.769 274.819 173.554 275.744 173.554C276.49 173.554 277.155 173.692 277.738 173.969C278.322 174.242 278.793 174.626 279.151 175.12C279.513 175.614 279.728 176.192 279.797 176.852H277.937C277.834 176.392 277.6 175.996 277.233 175.663C276.871 175.331 276.385 175.165 275.776 175.165C275.243 175.165 274.777 175.305 274.376 175.587C273.98 175.864 273.671 176.26 273.449 176.776C273.228 177.287 273.117 177.892 273.117 178.591C273.117 179.307 273.226 179.925 273.443 180.445C273.66 180.964 273.967 181.367 274.363 181.653C274.764 181.938 275.235 182.081 275.776 182.081C276.138 182.081 276.466 182.015 276.76 181.883C277.059 181.746 277.308 181.553 277.508 181.301C277.713 181.05 277.856 180.747 277.937 180.393H279.797C279.728 181.028 279.522 181.595 279.177 182.094C278.831 182.592 278.369 182.984 277.79 183.27C277.214 183.555 276.539 183.698 275.763 183.698ZM285.976 183.698C285.056 183.698 284.252 183.487 283.566 183.065C282.88 182.643 282.348 182.053 281.968 181.295C281.589 180.536 281.399 179.65 281.399 178.636C281.399 177.617 281.589 176.727 281.968 175.964C282.348 175.201 282.88 174.609 283.566 174.187C284.252 173.765 285.056 173.554 285.976 173.554C286.897 173.554 287.7 173.765 288.386 174.187C289.072 174.609 289.605 175.201 289.984 175.964C290.363 176.727 290.553 177.617 290.553 178.636C290.553 179.65 290.363 180.536 289.984 181.295C289.605 182.053 289.072 182.643 288.386 183.065C287.7 183.487 286.897 183.698 285.976 183.698ZM285.983 182.094C286.579 182.094 287.073 181.936 287.465 181.621C287.858 181.305 288.147 180.886 288.335 180.362C288.527 179.837 288.622 179.26 288.622 178.629C288.622 178.003 288.527 177.428 288.335 176.903C288.147 176.375 287.858 175.951 287.465 175.631C287.073 175.312 286.579 175.152 285.983 175.152C285.382 175.152 284.883 175.312 284.487 175.631C284.095 175.951 283.803 176.375 283.611 176.903C283.424 177.428 283.33 178.003 283.33 178.629C283.33 179.26 283.424 179.837 283.611 180.362C283.803 180.886 284.095 181.305 284.487 181.621C284.883 181.936 285.382 182.094 285.983 182.094ZM294.597 177.67V183.5H292.686V173.682H294.521V175.28H294.642C294.868 174.76 295.222 174.342 295.703 174.027C296.189 173.712 296.801 173.554 297.538 173.554C298.207 173.554 298.793 173.695 299.296 173.976C299.798 174.253 300.188 174.666 300.465 175.216C300.742 175.766 300.881 176.445 300.881 177.255V183.5H298.97V177.485C298.97 176.773 298.784 176.217 298.413 175.817C298.043 175.412 297.533 175.21 296.886 175.21C296.443 175.21 296.048 175.305 295.703 175.497C295.362 175.689 295.092 175.97 294.891 176.341C294.695 176.707 294.597 177.151 294.597 177.67ZM310.801 176.079L309.069 176.386C308.997 176.164 308.881 175.953 308.724 175.753C308.57 175.553 308.362 175.388 308.097 175.261C307.833 175.133 307.503 175.069 307.107 175.069C306.565 175.069 306.114 175.19 305.752 175.433C305.389 175.672 305.208 175.981 305.208 176.36C305.208 176.688 305.33 176.952 305.573 177.153C305.815 177.353 306.207 177.517 306.749 177.645L308.308 178.003C309.212 178.212 309.885 178.533 310.328 178.968C310.771 179.403 310.993 179.967 310.993 180.662C310.993 181.25 310.823 181.774 310.482 182.234C310.145 182.69 309.674 183.048 309.069 183.308C308.468 183.568 307.771 183.698 306.979 183.698C305.879 183.698 304.982 183.464 304.288 182.995C303.593 182.522 303.167 181.851 303.009 180.982L304.857 180.7C304.972 181.182 305.208 181.546 305.566 181.793C305.924 182.036 306.391 182.158 306.966 182.158C307.592 182.158 308.093 182.028 308.468 181.768C308.843 181.504 309.031 181.182 309.031 180.803C309.031 180.496 308.916 180.238 308.685 180.029C308.46 179.82 308.112 179.663 307.644 179.556L305.982 179.192C305.065 178.983 304.388 178.651 303.949 178.195C303.514 177.739 303.297 177.161 303.297 176.462C303.297 175.883 303.459 175.376 303.783 174.941C304.107 174.506 304.554 174.168 305.125 173.925C305.696 173.678 306.35 173.554 307.087 173.554C308.149 173.554 308.984 173.784 309.593 174.244C310.203 174.7 310.605 175.312 310.801 176.079ZM317.326 183.698C316.359 183.698 315.525 183.491 314.827 183.078C314.132 182.661 313.595 182.075 313.216 181.32C312.841 180.562 312.653 179.673 312.653 178.655C312.653 177.649 312.841 176.763 313.216 175.996C313.595 175.229 314.123 174.63 314.801 174.2C315.483 173.769 316.28 173.554 317.192 173.554C317.746 173.554 318.283 173.646 318.802 173.829C319.322 174.012 319.789 174.3 320.202 174.692C320.616 175.084 320.942 175.593 321.18 176.219C321.419 176.842 321.538 177.598 321.538 178.489V179.166H313.734V177.734H319.665C319.665 177.232 319.563 176.786 319.359 176.398C319.154 176.006 318.866 175.697 318.496 175.472C318.129 175.246 317.699 175.133 317.204 175.133C316.668 175.133 316.199 175.265 315.798 175.529C315.402 175.789 315.095 176.13 314.878 176.552C314.665 176.969 314.558 177.423 314.558 177.913V179.032C314.558 179.688 314.673 180.246 314.903 180.707C315.138 181.167 315.464 181.518 315.881 181.761C316.299 182 316.787 182.119 317.345 182.119C317.707 182.119 318.038 182.068 318.336 181.966C318.634 181.859 318.892 181.702 319.109 181.493C319.327 181.284 319.493 181.026 319.608 180.719L321.417 181.045C321.272 181.578 321.012 182.045 320.637 182.445C320.266 182.842 319.8 183.151 319.237 183.372C318.679 183.589 318.042 183.698 317.326 183.698ZM325.57 177.67V183.5H323.659V173.682H325.493V175.28H325.615C325.841 174.76 326.194 174.342 326.676 174.027C327.162 173.712 327.773 173.554 328.51 173.554C329.179 173.554 329.765 173.695 330.268 173.976C330.771 174.253 331.161 174.666 331.438 175.216C331.715 175.766 331.853 176.445 331.853 177.255V183.5H329.942V177.485C329.942 176.773 329.757 176.217 329.386 175.817C329.015 175.412 328.506 175.21 327.858 175.21C327.415 175.21 327.021 175.305 326.676 175.497C326.335 175.689 326.064 175.97 325.864 176.341C325.668 176.707 325.57 177.151 325.57 177.67ZM339 173.682V175.216H333.637V173.682H339ZM335.075 171.33H336.986V180.617C336.986 180.988 337.042 181.267 337.152 181.455C337.263 181.638 337.406 181.763 337.581 181.832C337.76 181.896 337.954 181.928 338.162 181.928C338.316 181.928 338.45 181.917 338.565 181.896C338.68 181.874 338.77 181.857 338.834 181.844L339.179 183.423C339.068 183.466 338.91 183.509 338.706 183.551C338.501 183.598 338.245 183.624 337.939 183.628C337.436 183.636 336.967 183.547 336.532 183.359C336.098 183.172 335.746 182.882 335.478 182.49C335.209 182.098 335.075 181.606 335.075 181.013V171.33ZM348.313 176.079L346.581 176.386C346.508 176.164 346.393 175.953 346.236 175.753C346.082 175.553 345.873 175.388 345.609 175.261C345.345 175.133 345.015 175.069 344.618 175.069C344.077 175.069 343.625 175.19 343.263 175.433C342.901 175.672 342.72 175.981 342.72 176.36C342.72 176.688 342.841 176.952 343.084 177.153C343.327 177.353 343.719 177.517 344.26 177.645L345.82 178.003C346.723 178.212 347.397 178.533 347.84 178.968C348.283 179.403 348.505 179.967 348.505 180.662C348.505 181.25 348.334 181.774 347.993 182.234C347.657 182.69 347.186 183.048 346.581 183.308C345.98 183.568 345.283 183.698 344.491 183.698C343.391 183.698 342.494 183.464 341.799 182.995C341.105 182.522 340.679 181.851 340.521 180.982L342.368 180.7C342.483 181.182 342.72 181.546 343.078 181.793C343.436 182.036 343.902 182.158 344.478 182.158C345.104 182.158 345.605 182.028 345.98 181.768C346.355 181.504 346.542 181.182 346.542 180.803C346.542 180.496 346.427 180.238 346.197 180.029C345.971 179.82 345.624 179.663 345.155 179.556L343.493 179.192C342.577 178.983 341.9 178.651 341.461 178.195C341.026 177.739 340.809 177.161 340.809 176.462C340.809 175.883 340.971 175.376 341.294 174.941C341.618 174.506 342.066 174.168 342.637 173.925C343.208 173.678 343.862 173.554 344.599 173.554C345.66 173.554 346.495 173.784 347.105 174.244C347.714 174.7 348.117 175.312 348.313 176.079Z" fill="white"/>
<rect x="79" y="79" width="292" height="133" rx="12" stroke="white" stroke-width="8"/>
</g>
<defs>
<clipPath id="clip0_506_412">
<rect width="1200" height="800" fill="white"/>
</clipPath>
</defs>
</svg>
