<svg width="120" height="80" viewBox="0 0 120 80" fill="none" xmlns="http://www.w3.org/2000/svg">
<g clip-path="url(#clip0_506_411)">
<g clip-path="url(#clip1_506_411)">
<rect width="142" height="96" transform="translate(-11)" fill="white"/>
<rect x="2" y="2" width="116" height="9" rx="1" fill="#E4EBF2"/>
<rect x="2.0166" y="13" width="115.967" height="13.135" rx="1" fill="#8FA1B2"/>
<rect x="2.0166" y="28" width="21.4183" height="26.625" rx="1" fill="#E4EBF2"/>
<rect x="2.0166" y="56.625" width="21.3" height="41.2983" rx="1" fill="#E4EBF2"/>
<rect x="90.7666" y="28" width="27" height="28" rx="1" fill="#E4EBF2"/>
<rect x="90.7666" y="58" width="27" height="18" rx="1" fill="#8FA1B2"/>
<rect x="90.7666" y="78" width="27.2167" height="21.0633" rx="1" fill="#E4EBF2"/>
<rect x="25" y="28" width="64" height="36" rx="1" fill="#E4EBF2"/>
<rect x="27" y="30" width="60" height="26" rx="2" fill="#8FA1B2"/>
<rect x="25" y="66" width="15.25" height="18.9333" rx="1" fill="#E4EBF2"/>
<rect x="41.25" y="66" width="15.25" height="18.9333" rx="2" fill="#8FA1B2"/>
<rect x="57.5" y="66" width="15.25" height="18.9333" rx="1" fill="#E4EBF2"/>
<rect x="73.75" y="66" width="15.25" height="18.9333" rx="1" fill="#E4EBF2"/>
</g>
<rect opacity="0.5" width="120" height="80" fill="#04192D"/>
<rect x="23" y="5" width="74.3979" height="70" rx="1.95462" fill="white"/>
<rect x="34.6055" y="13.5513" width="27.9756" height="2.93194" rx="1.46597" fill="#8FA1B3"/>
<rect x="34.6055" y="17.949" width="47.3997" height="0.977312" rx="0.366492" fill="#8FA1B3"/>
<rect x="34.6055" y="19.6592" width="48.7435" height="0.977312" rx="0.366492" fill="#8FA1B3"/>
<rect x="34.6055" y="21.3696" width="42.7574" height="0.977312" rx="0.366492" fill="#8FA1B3"/>
<rect x="34.6055" y="23.0798" width="20.5236" height="0.977312" rx="0.366492" fill="#8FA1B3"/>
<rect x="34.6055" y="25.5234" width="49.1099" height="0.977312" rx="0.366492" fill="#8FA1B3"/>
<rect x="34.6055" y="27.2336" width="47.5218" height="0.977312" rx="0.366492" fill="#8FA1B3"/>
<rect x="34.6055" y="28.9443" width="49.9651" height="0.977312" rx="0.366492" fill="#8FA1B3"/>
<rect x="34.6055" y="30.6541" width="51.0646" height="0.977312" rx="0.366492" fill="#8FA1B3"/>
<rect x="34.6055" y="32.3647" width="50.3316" height="0.977312" rx="0.366492" fill="#8FA1B3"/>
<rect x="34.6055" y="34.075" width="45.8115" height="0.977312" rx="0.366492" fill="#8FA1B3"/>
<rect x="34.6055" y="35.7852" width="14.5375" height="0.977312" rx="0.366492" fill="#8FA1B3"/>
<rect x="34.6055" y="38.2285" width="47.8883" height="0.977312" rx="0.366492" fill="#8FA1B3"/>
<rect x="34.6055" y="39.9387" width="48.2548" height="0.977312" rx="0.366492" fill="#8FA1B3"/>
<rect x="34.6055" y="41.6489" width="49.3543" height="0.977312" rx="0.366492" fill="#8FA1B3"/>
<rect x="34.6055" y="43.3594" width="47.8883" height="0.977312" rx="0.366492" fill="#8FA1B3"/>
<rect x="34.6055" y="45.0696" width="50.5759" height="0.977312" rx="0.366492" fill="#8FA1B3"/>
<rect x="34.6055" y="46.78" width="45.445" height="0.977312" rx="0.366492" fill="#8FA1B3"/>
<rect x="34.6055" y="48.4905" width="20.5236" height="0.977312" rx="0.366492" fill="#8FA1B3"/>
<rect x="34.6055" y="50.9333" width="3.54276" height="0.732984" rx="0.366492" fill="#E4EBF2"/>
<rect x="53.6001" y="66.6272" width="13.0749" height="1.18862" rx="0.594312" fill="#8FA1B3"/>
<rect x="45.5771" y="64.3491" width="29.1213" height="5.74501" rx="1.48578" stroke="#B8C2CC" stroke-width="0.198104"/>
<rect x="45.4785" y="57.2861" width="29.3194" height="5.94312" rx="1.58483" fill="#00AEF0"/>
<rect x="53.6006" y="59.6633" width="13.0749" height="1.18862" rx="0.594312" fill="white"/>
<rect x="3.5" y="3.5" width="23" height="17" rx="2.08483" fill="#00AEF0"/>
<path fill-rule="evenodd" clip-rule="evenodd" d="M17.8125 11.4375C17.8125 12.9908 16.5533 14.25 15 14.25C13.4467 14.25 12.1875 12.9908 12.1875 11.4375C12.1875 9.8842 13.4467 8.625 15 8.625C16.5533 8.625 17.8125 9.8842 17.8125 11.4375Z" fill="#00AEF0"/>
<path fill-rule="evenodd" clip-rule="evenodd" d="M18.7148 14.9738C18.3416 14.1156 18.2773 13.3883 18.2673 13.1026V10.7517C18.2673 8.95577 16.8042 7.5 14.9994 7.5C13.1945 7.5 11.7313 8.95577 11.7313 10.7517V13.1366C11.7174 13.444 11.644 14.149 11.2852 14.9738C10.8029 16.0822 11.202 15.9501 11.5596 15.8589C11.917 15.7681 12.7154 15.4121 12.9648 15.8506C13.2141 16.2889 13.4221 16.6696 14.0041 16.4214C14.5862 16.1733 14.8605 16.0906 14.9436 16.0906H15.0566C15.1396 16.0906 15.414 16.1733 15.996 16.4214C16.578 16.6696 16.7859 16.2889 17.0354 15.8506C17.2847 15.4121 18.083 15.7681 18.4406 15.8589C18.7981 15.9501 19.197 16.0822 18.7148 14.9738ZM13.9907 9.27308C14.3427 9.27308 14.6281 9.72234 14.6281 10.2767C14.6281 10.8311 14.3427 11.2805 13.9907 11.2805C13.6387 11.2805 13.3533 10.8311 13.3533 10.2767C13.3533 9.72234 13.6387 9.27308 13.9907 9.27308ZM14.9994 13.2847C14.2238 13.2847 13.5708 12.5251 13.3741 11.68C13.7541 12.1998 14.3406 12.5339 14.9994 12.5339C15.6582 12.5339 16.2447 12.1998 16.6247 11.68C16.428 12.5251 15.7749 13.2847 14.9994 13.2847ZM16.0081 11.2805C15.6559 11.2805 15.3706 10.8311 15.3706 10.2767C15.3706 9.72234 15.6559 9.27308 16.0081 9.27308C16.3603 9.27308 16.6455 9.72234 16.6455 10.2767C16.6455 10.8311 16.3603 11.2805 16.0081 11.2805Z" fill="white"/>
<rect x="3.5" y="3.5" width="23" height="17" rx="2.08483" stroke="white"/>
</g>
<defs>
<clipPath id="clip0_506_411">
<rect width="120" height="80" fill="white"/>
</clipPath>
<clipPath id="clip1_506_411">
<rect width="142" height="96" fill="white" transform="translate(-11)"/>
</clipPath>
</defs>
</svg>
