<svg width="120" height="80" viewBox="0 0 120 80" fill="none" xmlns="http://www.w3.org/2000/svg">
	<rect width="120" height="80" fill="#F0F2F7" />
	<rect x="8" y="8" width="104" height="64" rx="6" fill="#00AEF0" />
	<path d="M50.5746 30.5727L69.428 49.426M46.668 35.363V44.6357C46.668 44.9617 46.668 45.1248 46.7048 45.2783C46.7375 45.4144 46.7913 45.5444 46.8644 45.6637C46.9469 45.7983 47.0622 45.9136 47.2928 46.1441L53.8565 52.7079C54.0871 52.9384 54.2024 53.0537 54.3369 53.1361C54.4562 53.2093 54.5863 53.2632 54.7223 53.2959C54.8758 53.3327 55.0388 53.3327 55.365 53.3327H64.6377C64.9637 53.3327 65.1268 53.3327 65.2802 53.2959C65.4164 53.2632 65.5464 53.2093 65.6657 53.1361C65.8002 53.0537 65.9156 52.9384 66.1461 52.7079L72.7098 46.1441C72.9404 45.9136 73.0557 45.7983 73.1381 45.6637C73.2113 45.5444 73.2652 45.4144 73.2978 45.2783C73.3346 45.1248 73.3346 44.9617 73.3346 44.6357V35.363C73.3346 35.0369 73.3346 34.8738 73.2978 34.7204C73.2652 34.5843 73.2113 34.4543 73.1381 34.335C73.0557 34.2004 72.9404 34.0851 72.7098 33.8545L66.1461 27.2909C65.9156 27.0603 65.8002 26.9449 65.6657 26.8625C65.5464 26.7894 65.4164 26.7355 65.2802 26.7029C65.1268 26.666 64.9637 26.666 64.6377 26.666H55.365C55.0388 26.666 54.8758 26.666 54.7223 26.7029C54.5863 26.7355 54.4562 26.7894 54.3369 26.8625C54.2024 26.9449 54.0871 27.0603 53.8565 27.2909L47.2928 33.8545C47.0622 34.0851 46.9469 34.2004 46.8644 34.335C46.7913 34.4543 46.7375 34.5843 46.7048 34.7204C46.668 34.8738 46.668 35.0369 46.668 35.363Z" stroke="white" stroke-width="3.2" stroke-linecap="round" stroke-linejoin="round" />
	<path fill-rule="evenodd" clip-rule="evenodd" d="M104.375 19.125C104.375 21.5412 102.416 23.5 100 23.5C97.5838 23.5 95.625 21.5412 95.625 19.125C95.625 16.7088 97.5838 14.75 100 14.75C102.416 14.75 104.375 16.7088 104.375 19.125Z" fill="#00AEF0" />
	<path fill-rule="evenodd" clip-rule="evenodd" d="M105.779 24.6259C105.198 23.2909 105.098 22.1596 105.082 21.7152V18.0582C105.082 15.2645 102.807 13 99.9991 13C97.1914 13 94.9154 15.2645 94.9154 18.0582V21.768C94.8937 22.2462 94.7796 23.3429 94.2214 24.6259C93.4711 26.35 94.092 26.1446 94.6482 26.0027C95.2043 25.8615 96.4462 25.3077 96.8341 25.9899C97.2219 26.6717 97.5455 27.2639 98.4508 26.8777C99.3563 26.4918 99.7829 26.3632 99.9122 26.3632H100.088C100.217 26.3632 100.644 26.4918 101.549 26.8777C102.455 27.2639 102.778 26.6717 103.166 25.9899C103.554 25.3077 104.796 25.8615 105.352 26.0027C105.908 26.1446 106.529 26.35 105.779 24.6259ZM98.43 15.7581C98.9775 15.7581 99.4214 16.457 99.4214 17.3193C99.4214 18.1816 98.9775 18.8807 98.43 18.8807C97.8825 18.8807 97.4385 18.1816 97.4385 17.3193C97.4385 16.457 97.8825 15.7581 98.43 15.7581ZM99.9991 21.9984C98.7925 21.9984 97.7768 20.8169 97.4708 19.5022C98.0619 20.3108 98.9743 20.8305 99.9991 20.8305C101.024 20.8305 101.936 20.3108 102.527 19.5022C102.221 20.8169 101.205 21.9984 99.9991 21.9984ZM101.568 18.8807C101.02 18.8807 100.577 18.1816 100.577 17.3193C100.577 16.457 101.02 15.7581 101.568 15.7581C102.116 15.7581 102.56 16.457 102.56 17.3193C102.56 18.1816 102.116 18.8807 101.568 18.8807Z" fill="white" />
</svg>
