<svg width="1200" height="800" viewBox="0 0 1200 800" fill="none" xmlns="http://www.w3.org/2000/svg">
<g clip-path="url(#clip0_513_1902)">
<rect width="1200" height="800" fill="white"/>
<rect x="154" y="115" width="213" height="10" rx="5" fill="#8FA1B3"/>
<rect x="154" y="146" width="109" height="10" rx="5" fill="#B8C2CC"/>
<rect x="154" y="478" width="119" height="10" rx="5" fill="#B8C2CC"/>
<rect x="154" y="189" width="479" height="10" rx="5" fill="#B8C2CC"/>
<rect x="154" y="165" width="340" height="17" rx="8.5" fill="#8FA1B3"/>
<rect x="154" y="497" width="178" height="17" rx="8.5" fill="#8FA1B3"/>
<rect x="154" y="206" width="307" height="10" rx="5" fill="#B8C2CC"/>
<rect x="167" y="434" width="149" height="10" rx="5" fill="#8FA1B2"/>
<rect x="271" y="146" width="27" height="10" rx="5" fill="#B8C2CC"/>
<rect x="281" y="478" width="10" height="10" rx="5" fill="#B8C2CC"/>
<rect x="306" y="146" width="10" height="10" rx="5" fill="#B8C2CC"/>
<rect x="415" y="258" width="191" height="10" rx="5" fill="#B8C2CC"/>
<rect x="415" y="237" width="58" height="13" rx="6.5" fill="#8FA1B3"/>
<rect x="167" y="410" width="351" height="10" rx="5" fill="#B8C2CC"/>
<rect x="167" y="389" width="118" height="13" rx="6.5" fill="#8FA1B3"/>
<rect x="415" y="307" width="170.322" height="10" rx="5" fill="#B8C2CC"/>
<rect x="415" y="286" width="80" height="13" rx="6.5" fill="#8FA1B3"/>
<rect x="415" y="359" width="183.382" height="10" rx="5" fill="#B8C2CC"/>
<rect x="415" y="338" width="50" height="13" rx="6.5" fill="#8FA1B3"/>
<rect width="1200" height="103" fill="#E4EBF2"/>
<rect x="155" y="81" width="29" height="10" rx="5" fill="#8FA1B3"/>
<rect x="643" y="81" width="29" height="10" rx="5" fill="#8FA1B3"/>
<rect x="1103" y="81" width="71" height="10" rx="5" fill="#8FA1B3"/>
<rect x="204" y="81" width="10" height="10" rx="5" fill="#8FA1B3"/>
<rect x="218" y="81" width="29" height="10" rx="5" fill="#8FA1B3"/>
<rect x="267" y="81" width="10" height="10" rx="5" fill="#8FA1B3"/>
<rect x="281" y="81" width="38" height="10" rx="5" fill="#8FA1B3"/>
<rect x="340" y="81" width="10" height="10" rx="5" fill="#8FA1B3"/>
<rect x="354" y="81" width="34" height="10" rx="5" fill="#8FA1B3"/>
<rect x="409" y="81" width="10" height="10" rx="5" fill="#8FA1B3"/>
<rect x="423" y="81" width="49" height="10" rx="5" fill="#8FA1B3"/>
<rect x="490" y="81" width="10" height="10" rx="5" fill="#8FA1B3"/>
<rect x="504" y="81" width="25" height="10" rx="5" fill="#8FA1B3"/>
<rect x="32" y="24" width="71" height="28" rx="14" fill="#8FA1B3"/>
<rect x="613" y="26" width="1" height="23" fill="#8FA1B2"/>
<rect x="140.5" y="20.5" width="546" height="35" rx="17.5" stroke="#B8C2CC"/>
<rect x="1123" y="35" width="44" height="6" rx="3" fill="#8FA1B3"/>
<rect x="1111.5" y="20.5" width="67" height="35" rx="7.5" stroke="#B8C2CC"/>
<rect x="155" y="35" width="44" height="6" rx="3" fill="#8FA1B3"/>
<rect x="588" y="31" width="12" height="12" rx="3" fill="#8FA1B3"/>
<rect x="627" y="31" width="12" height="12" rx="3" fill="#8FA1B3"/>
<rect x="657" y="31" width="12" height="12" rx="3" fill="#8FA1B3"/>
<rect x="1046" y="31" width="14" height="14" rx="3" fill="#8FA1B3"/>
<rect x="1083" y="31" width="14" height="14" rx="3" fill="#8FA1B3"/>
<rect y="103" width="1200" height="1" fill="#B8C2CC"/>
<rect x="154" y="103" width="32" height="1" fill="#8FA1B2"/>
<rect x="760" y="286" width="265" height="8" rx="4" fill="#8FA1B3"/>
<rect x="760" y="303" width="253" height="8" rx="4" fill="#8FA1B3"/>
<rect x="760" y="320" width="256" height="8" rx="4" fill="#8FA1B3"/>
<rect x="760" y="337" width="209" height="8" rx="4" fill="#8FA1B3"/>
<rect x="760" y="354" width="265" height="8" rx="4" fill="#8FA1B3"/>
<rect x="760" y="371" width="105" height="8" rx="4" fill="#8FA1B3"/>
<rect x="760" y="400" width="249" height="8" rx="4" fill="#8FA1B3"/>
<rect x="760" y="424" width="249" height="8" rx="4" fill="#8FA1B3"/>
<rect x="760" y="448" width="197" height="8" rx="4" fill="#8FA1B3"/>
<rect x="760" y="472" width="262" height="8" rx="4" fill="#8FA1B3"/>
<rect x="760" y="552" width="262" height="8" rx="4" fill="#8FA1B3"/>
<rect x="760" y="512" width="249" height="8" rx="4" fill="#8FA1B3"/>
<rect x="760" y="488" width="132" height="8" rx="4" fill="#8FA1B3"/>
<rect x="760" y="568" width="132" height="8" rx="4" fill="#8FA1B3"/>
<rect x="760" y="528" width="36" height="8" rx="4" fill="#8FA1B3"/>
<rect x="760" y="217" width="79" height="10" rx="5" fill="#B8C2CC"/>
<rect x="760" y="184" width="99" height="20" rx="10" fill="#8FA1B3"/>
<rect x="760" y="598" width="99" height="16" rx="8" fill="#8FA1B3"/>
<rect x="760" y="635" width="99" height="16" rx="8" fill="#8FA1B3"/>
<rect x="760" y="667" width="99" height="16" rx="8" fill="#8FA1B3"/>
<rect x="760" y="704" width="99" height="16" rx="8" fill="#8FA1B3"/>
<rect x="760" y="746" width="99" height="16" rx="8" fill="#8FA1B3"/>
<rect x="1012" y="598" width="16" height="16" rx="8" fill="#B8C2CC"/>
<rect x="1012" y="635" width="16" height="16" rx="8" fill="#B8C2CC"/>
<rect x="1012" y="667" width="16" height="16" rx="8" fill="#B8C2CC"/>
<rect x="1012" y="704" width="16" height="16" rx="8" fill="#B8C2CC"/>
<rect x="777" y="777" width="28" height="28" rx="4" fill="#8FA1B3"/>
<rect x="847" y="777" width="28" height="28" rx="4" fill="#8FA1B3"/>
<rect x="917" y="777" width="28" height="28" rx="4" fill="#8FA1B3"/>
<rect x="987" y="777" width="28" height="28" rx="4" fill="#8FA1B3"/>
<rect x="888" y="184" width="20" height="20" rx="10" fill="#B8C2CC"/>
<rect width="120" height="127" transform="translate(921 143)" fill="#8FA1B3"/>
<path d="M968.12 221.046L979.114 210.052C979.774 209.392 980.105 209.062 980.485 208.939C980.82 208.83 981.18 208.83 981.515 208.939C981.896 209.062 982.226 209.392 982.886 210.052L993.807 220.973M984.333 211.5L989.114 206.719C989.774 206.059 990.105 205.729 990.485 205.605C990.82 205.496 991.18 205.496 991.515 205.605C991.896 205.729 992.226 206.059 992.886 206.719L997.667 211.5M977.667 201.5C977.667 203.341 976.174 204.833 974.333 204.833C972.493 204.833 971 203.341 971 201.5C971 199.659 972.493 198.167 974.333 198.167C976.174 198.167 977.667 199.659 977.667 201.5ZM972.333 221.5H989.667C992.467 221.5 993.867 221.5 994.937 220.955C995.878 220.476 996.642 219.711 997.122 218.77C997.667 217.7 997.667 216.3 997.667 213.5V199.5C997.667 196.7 997.667 195.3 997.122 194.23C996.642 193.289 995.878 192.524 994.937 192.045C993.867 191.5 992.467 191.5 989.667 191.5H972.333C969.533 191.5 968.133 191.5 967.064 192.045C966.123 192.524 965.358 193.289 964.878 194.23C964.333 195.3 964.333 196.7 964.333 199.5V213.5C964.333 216.3 964.333 217.7 964.878 218.77C965.358 219.711 966.123 220.476 967.064 220.955C968.133 221.5 969.533 221.5 972.333 221.5Z" stroke="white" stroke-width="2" stroke-linecap="round" stroke-linejoin="round"/>
<rect x="750.5" y="143.5" width="290" height="126" stroke="#B8C2CC"/>
<rect x="750.5" y="269.5" width="290" height="319" stroke="#B8C2CC"/>
<rect x="750.5" y="588.5" width="290" height="35" stroke="#B8C2CC"/>
<rect x="750.5" y="623.5" width="290" height="35" stroke="#B8C2CC"/>
<rect x="750.5" y="658.5" width="290" height="35" stroke="#B8C2CC"/>
<rect x="750.5" y="693.5" width="290" height="35" stroke="#B8C2CC"/>
<rect x="750.5" y="728.5" width="290" height="89" stroke="#B8C2CC"/>
<rect x="154" y="534" width="166" height="229" rx="8" fill="#E4EBF2"/>
<rect x="160" y="540" width="154" height="91" rx="6" fill="#8FA1B3"/>
<path d="M224.12 600.046L235.114 589.052C235.774 588.392 236.105 588.062 236.485 587.939C236.82 587.83 237.18 587.83 237.515 587.939C237.896 588.062 238.226 588.392 238.886 589.052L249.807 599.973M240.333 590.5L245.114 585.719C245.774 585.059 246.105 584.729 246.485 584.605C246.82 584.496 247.18 584.496 247.515 584.605C247.896 584.729 248.226 585.059 248.886 585.719L253.667 590.5M233.667 580.5C233.667 582.341 232.174 583.833 230.333 583.833C228.493 583.833 227 582.341 227 580.5C227 578.659 228.493 577.167 230.333 577.167C232.174 577.167 233.667 578.659 233.667 580.5ZM228.333 600.5H245.667C248.467 600.5 249.867 600.5 250.937 599.955C251.878 599.476 252.642 598.711 253.122 597.77C253.667 596.7 253.667 595.3 253.667 592.5V578.5C253.667 575.7 253.667 574.3 253.122 573.23C252.642 572.289 251.878 571.524 250.937 571.045C249.867 570.5 248.467 570.5 245.667 570.5H228.333C225.533 570.5 224.133 570.5 223.064 571.045C222.123 571.524 221.358 572.289 220.878 573.23C220.333 574.3 220.333 575.7 220.333 578.5V592.5C220.333 595.3 220.333 596.7 220.878 597.77C221.358 598.711 222.123 599.476 223.064 599.955C224.133 600.5 225.533 600.5 228.333 600.5Z" stroke="white" stroke-width="2" stroke-linecap="round" stroke-linejoin="round"/>
<rect x="160" y="639" width="115" height="14" rx="7" fill="#8FA1B3"/>
<rect x="160" y="657" width="126" height="14" rx="7" fill="#8FA1B3"/>
<rect x="160" y="675" width="105" height="14" rx="7" fill="#8FA1B3"/>
<rect x="160" y="697" width="18" height="6" rx="3" fill="#B8C2CC"/>
<rect x="160" y="737" width="111" height="14" rx="7" fill="#B8C2CC"/>
<rect x="330" y="534" width="166" height="229" rx="8" fill="#E4EBF2"/>
<rect x="336" y="540" width="154" height="91" rx="6" fill="#8FA1B3"/>
<path d="M400.12 600.046L411.114 589.052C411.774 588.392 412.105 588.062 412.485 587.939C412.82 587.83 413.18 587.83 413.515 587.939C413.896 588.062 414.226 588.392 414.886 589.052L425.807 599.973M416.333 590.5L421.114 585.719C421.774 585.059 422.105 584.729 422.485 584.605C422.82 584.496 423.18 584.496 423.515 584.605C423.896 584.729 424.226 585.059 424.886 585.719L429.667 590.5M409.667 580.5C409.667 582.341 408.174 583.833 406.333 583.833C404.493 583.833 403 582.341 403 580.5C403 578.659 404.493 577.167 406.333 577.167C408.174 577.167 409.667 578.659 409.667 580.5ZM404.333 600.5H421.667C424.467 600.5 425.867 600.5 426.937 599.955C427.878 599.476 428.642 598.711 429.122 597.77C429.667 596.7 429.667 595.3 429.667 592.5V578.5C429.667 575.7 429.667 574.3 429.122 573.23C428.642 572.289 427.878 571.524 426.937 571.045C425.867 570.5 424.467 570.5 421.667 570.5H404.333C401.533 570.5 400.133 570.5 399.064 571.045C398.123 571.524 397.358 572.289 396.878 573.23C396.333 574.3 396.333 575.7 396.333 578.5V592.5C396.333 595.3 396.333 596.7 396.878 597.77C397.358 598.711 398.123 599.476 399.064 599.955C400.133 600.5 401.533 600.5 404.333 600.5Z" stroke="white" stroke-width="2" stroke-linecap="round" stroke-linejoin="round"/>
<rect x="336" y="639" width="131" height="14" rx="7" fill="#8FA1B3"/>
<rect x="336" y="657" width="111" height="14" rx="7" fill="#8FA1B3"/>
<rect x="336" y="679" width="18" height="6" rx="3" fill="#B8C2CC"/>
<rect x="336" y="737" width="111" height="14" rx="7" fill="#B8C2CC"/>
<rect x="506" y="534" width="166" height="229" rx="8" fill="#E4EBF2"/>
<rect x="512" y="540" width="154" height="91" rx="6" fill="#8FA1B3"/>
<path d="M576.12 600.046L587.114 589.052C587.774 588.392 588.105 588.062 588.485 587.939C588.82 587.83 589.18 587.83 589.515 587.939C589.896 588.062 590.226 588.392 590.886 589.052L601.807 599.973M592.333 590.5L597.114 585.719C597.774 585.059 598.105 584.729 598.485 584.605C598.82 584.496 599.18 584.496 599.515 584.605C599.896 584.729 600.226 585.059 600.886 585.719L605.667 590.5M585.667 580.5C585.667 582.341 584.174 583.833 582.333 583.833C580.493 583.833 579 582.341 579 580.5C579 578.659 580.493 577.167 582.333 577.167C584.174 577.167 585.667 578.659 585.667 580.5ZM580.333 600.5H597.667C600.467 600.5 601.867 600.5 602.937 599.955C603.878 599.476 604.642 598.711 605.122 597.77C605.667 596.7 605.667 595.3 605.667 592.5V578.5C605.667 575.7 605.667 574.3 605.122 573.23C604.642 572.289 603.878 571.524 602.937 571.045C601.867 570.5 600.467 570.5 597.667 570.5H580.333C577.533 570.5 576.133 570.5 575.064 571.045C574.123 571.524 573.358 572.289 572.878 573.23C572.333 574.3 572.333 575.7 572.333 578.5V592.5C572.333 595.3 572.333 596.7 572.878 597.77C573.358 598.711 574.123 599.476 575.064 599.955C576.133 600.5 577.533 600.5 580.333 600.5Z" stroke="white" stroke-width="2" stroke-linecap="round" stroke-linejoin="round"/>
<rect x="512" y="639" width="136" height="14" rx="7" fill="#8FA1B3"/>
<rect x="512" y="657" width="138" height="14" rx="7" fill="#8FA1B3"/>
<rect x="512" y="675" width="111" height="14" rx="7" fill="#8FA1B3"/>
<rect x="512" y="697" width="18" height="6" rx="3" fill="#B8C2CC"/>
<rect x="512" y="737" width="111" height="14" rx="7" fill="#B8C2CC"/>
<rect x="96" y="146" width="44" height="44" rx="4" fill="#00AEF0"/>
<path d="M110.93 160.93L125.07 175.07M108 164.523V171.477C108 171.722 108 171.844 108.028 171.959C108.052 172.061 108.093 172.159 108.147 172.248C108.209 172.349 108.296 172.436 108.469 172.609L113.391 177.531C113.564 177.704 113.651 177.791 113.752 177.853C113.841 177.908 113.939 177.948 114.041 177.972C114.156 178 114.278 178 114.523 178H121.477C121.722 178 121.844 178 121.959 177.972C122.061 177.948 122.159 177.908 122.248 177.853C122.349 177.791 122.436 177.704 122.609 177.531L127.531 172.609C127.704 172.436 127.791 172.349 127.853 172.248C127.908 172.159 127.948 172.061 127.972 171.959C128 171.844 128 171.722 128 171.477V164.523C128 164.278 128 164.156 127.972 164.041C127.948 163.939 127.908 163.841 127.853 163.752C127.791 163.651 127.704 163.564 127.531 163.391L122.609 158.469C122.436 158.296 122.349 158.209 122.248 158.147C122.159 158.093 122.061 158.052 121.959 158.028C121.844 158 121.722 158 121.477 158H114.523C114.278 158 114.156 158 114.041 158.028C113.939 158.052 113.841 158.093 113.752 158.147C113.651 158.209 113.564 158.296 113.391 158.469L108.469 163.391C108.296 163.564 108.209 163.651 108.147 163.752C108.093 163.841 108.052 163.939 108.028 164.041C108 164.156 108 164.278 108 164.523Z" stroke="white" stroke-width="2" stroke-linecap="round" stroke-linejoin="round"/>
<rect x="96" y="478" width="44" height="44" rx="4" fill="#00AEF0"/>
<path d="M110.93 492.93L125.07 507.07M108 496.523V503.477C108 503.722 108 503.844 108.028 503.959C108.052 504.061 108.093 504.159 108.147 504.248C108.209 504.349 108.296 504.436 108.469 504.609L113.391 509.531C113.564 509.704 113.651 509.791 113.752 509.853C113.841 509.908 113.939 509.948 114.041 509.972C114.156 510 114.278 510 114.523 510H121.477C121.722 510 121.844 510 121.959 509.972C122.061 509.948 122.159 509.908 122.248 509.853C122.349 509.791 122.436 509.704 122.609 509.531L127.531 504.609C127.704 504.436 127.791 504.349 127.853 504.248C127.908 504.159 127.948 504.061 127.972 503.959C128 503.844 128 503.722 128 503.477V496.523C128 496.278 128 496.156 127.972 496.041C127.948 495.939 127.908 495.841 127.853 495.752C127.791 495.651 127.704 495.564 127.531 495.391L122.609 490.469C122.436 490.296 122.349 490.209 122.248 490.147C122.159 490.093 122.061 490.052 121.959 490.028C121.844 490 121.722 490 121.477 490H114.523C114.278 490 114.156 490 114.041 490.028C113.939 490.052 113.841 490.093 113.752 490.147C113.651 490.209 113.564 490.296 113.391 490.469L108.469 495.391C108.296 495.564 108.209 495.651 108.147 495.752C108.093 495.841 108.052 495.939 108.028 496.041C108 496.156 108 496.278 108 496.523Z" stroke="white" stroke-width="2" stroke-linecap="round" stroke-linejoin="round"/>
<rect x="96" y="237" width="28" height="28" rx="4" fill="#00AEF0"/>
<path d="M104.344 245.344L115.656 256.656M102 248.218V253.782C102 253.977 102 254.075 102.022 254.167C102.042 254.249 102.074 254.327 102.118 254.399C102.167 254.479 102.237 254.549 102.375 254.687L106.313 258.625C106.451 258.763 106.521 258.833 106.601 258.882C106.673 258.926 106.751 258.958 106.833 258.978C106.925 259 107.023 259 107.218 259H112.782C112.977 259 113.075 259 113.167 258.978C113.249 258.958 113.327 258.926 113.399 258.882C113.479 258.833 113.549 258.763 113.687 258.625L117.625 254.687C117.763 254.549 117.833 254.479 117.882 254.399C117.926 254.327 117.958 254.249 117.978 254.167C118 254.075 118 253.977 118 253.782V248.218C118 248.023 118 247.925 117.978 247.833C117.958 247.751 117.926 247.673 117.882 247.601C117.833 247.521 117.763 247.451 117.625 247.313L113.687 243.375C113.549 243.237 113.479 243.167 113.399 243.118C113.327 243.074 113.249 243.042 113.167 243.022C113.075 243 112.977 243 112.782 243H107.218C107.023 243 106.925 243 106.833 243.022C106.751 243.042 106.673 243.074 106.601 243.118C106.521 243.167 106.451 243.237 106.313 243.375L102.375 247.313C102.237 247.451 102.167 247.521 102.118 247.601C102.074 247.673 102.042 247.751 102.022 247.833C102 247.925 102 248.023 102 248.218Z" stroke="white" stroke-width="2" stroke-linecap="round" stroke-linejoin="round"/>
<rect x="96" y="540" width="28" height="28" rx="4" fill="#00AEF0"/>
<path d="M104.344 548.344L115.656 559.656M102 551.218V556.782C102 556.977 102 557.075 102.022 557.167C102.042 557.249 102.074 557.327 102.118 557.399C102.167 557.479 102.237 557.549 102.375 557.687L106.313 561.625C106.451 561.763 106.521 561.833 106.601 561.882C106.673 561.926 106.751 561.958 106.833 561.978C106.925 562 107.023 562 107.218 562H112.782C112.977 562 113.075 562 113.167 561.978C113.249 561.958 113.327 561.926 113.399 561.882C113.479 561.833 113.549 561.763 113.687 561.625L117.625 557.687C117.763 557.549 117.833 557.479 117.882 557.399C117.926 557.327 117.958 557.249 117.978 557.167C118 557.075 118 556.977 118 556.782V551.218C118 551.023 118 550.925 117.978 550.833C117.958 550.751 117.926 550.673 117.882 550.601C117.833 550.521 117.763 550.451 117.625 550.313L113.687 546.375C113.549 546.237 113.479 546.167 113.399 546.118C113.327 546.074 113.249 546.042 113.167 546.022C113.075 546 112.977 546 112.782 546H107.218C107.023 546 106.925 546 106.833 546.022C106.751 546.042 106.673 546.074 106.601 546.118C106.521 546.167 106.451 546.237 106.313 546.375L102.375 550.313C102.237 550.451 102.167 550.521 102.118 550.601C102.074 550.673 102.042 550.751 102.022 550.833C102 550.925 102 551.023 102 551.218Z" stroke="white" stroke-width="2" stroke-linecap="round" stroke-linejoin="round"/>
<rect x="96" y="286" width="28" height="28" rx="4" fill="#00AEF0"/>
<path d="M104.344 294.344L115.656 305.656M102 297.218V302.782C102 302.977 102 303.075 102.022 303.167C102.042 303.249 102.074 303.327 102.118 303.399C102.167 303.479 102.237 303.549 102.375 303.687L106.313 307.625C106.451 307.763 106.521 307.833 106.601 307.882C106.673 307.926 106.751 307.958 106.833 307.978C106.925 308 107.023 308 107.218 308H112.782C112.977 308 113.075 308 113.167 307.978C113.249 307.958 113.327 307.926 113.399 307.882C113.479 307.833 113.549 307.763 113.687 307.625L117.625 303.687C117.763 303.549 117.833 303.479 117.882 303.399C117.926 303.327 117.958 303.249 117.978 303.167C118 303.075 118 302.977 118 302.782V297.218C118 297.023 118 296.925 117.978 296.833C117.958 296.751 117.926 296.673 117.882 296.601C117.833 296.521 117.763 296.451 117.625 296.313L113.687 292.375C113.549 292.237 113.479 292.167 113.399 292.118C113.327 292.074 113.249 292.042 113.167 292.022C113.075 292 112.977 292 112.782 292H107.218C107.023 292 106.925 292 106.833 292.022C106.751 292.042 106.673 292.074 106.601 292.118C106.521 292.167 106.451 292.237 106.313 292.375L102.375 296.313C102.237 296.451 102.167 296.521 102.118 296.601C102.074 296.673 102.042 296.751 102.022 296.833C102 296.925 102 297.023 102 297.218Z" stroke="white" stroke-width="2" stroke-linecap="round" stroke-linejoin="round"/>
<rect x="96" y="338" width="28" height="28" rx="4" fill="#00AEF0"/>
<path d="M104.344 346.344L115.656 357.656M102 349.218V354.782C102 354.977 102 355.075 102.022 355.167C102.042 355.249 102.074 355.327 102.118 355.399C102.167 355.479 102.237 355.549 102.375 355.687L106.313 359.625C106.451 359.763 106.521 359.833 106.601 359.882C106.673 359.926 106.751 359.958 106.833 359.978C106.925 360 107.023 360 107.218 360H112.782C112.977 360 113.075 360 113.167 359.978C113.249 359.958 113.327 359.926 113.399 359.882C113.479 359.833 113.549 359.763 113.687 359.625L117.625 355.687C117.763 355.549 117.833 355.479 117.882 355.399C117.926 355.327 117.958 355.249 117.978 355.167C118 355.075 118 354.977 118 354.782V349.218C118 349.023 118 348.925 117.978 348.833C117.958 348.751 117.926 348.673 117.882 348.601C117.833 348.521 117.763 348.451 117.625 348.313L113.687 344.375C113.549 344.237 113.479 344.167 113.399 344.118C113.327 344.074 113.249 344.042 113.167 344.022C113.075 344 112.977 344 112.782 344H107.218C107.023 344 106.925 344 106.833 344.022C106.751 344.042 106.673 344.074 106.601 344.118C106.521 344.167 106.451 344.237 106.313 344.375L102.375 348.313C102.237 348.451 102.167 348.521 102.118 348.601C102.074 348.673 102.042 348.751 102.022 348.833C102 348.925 102 349.023 102 349.218Z" stroke="white" stroke-width="2" stroke-linecap="round" stroke-linejoin="round"/>
<rect x="96" y="389" width="28" height="28" rx="4" fill="#00AEF0"/>
<path d="M104.344 397.344L115.656 408.656M102 400.218V405.782C102 405.977 102 406.075 102.022 406.167C102.042 406.249 102.074 406.327 102.118 406.399C102.167 406.479 102.237 406.549 102.375 406.687L106.313 410.625C106.451 410.763 106.521 410.833 106.601 410.882C106.673 410.926 106.751 410.958 106.833 410.978C106.925 411 107.023 411 107.218 411H112.782C112.977 411 113.075 411 113.167 410.978C113.249 410.958 113.327 410.926 113.399 410.882C113.479 410.833 113.549 410.763 113.687 410.625L117.625 406.687C117.763 406.549 117.833 406.479 117.882 406.399C117.926 406.327 117.958 406.249 117.978 406.167C118 406.075 118 405.977 118 405.782V400.218C118 400.023 118 399.925 117.978 399.833C117.958 399.751 117.926 399.673 117.882 399.601C117.833 399.521 117.763 399.451 117.625 399.313L113.687 395.375C113.549 395.237 113.479 395.167 113.399 395.118C113.327 395.074 113.249 395.042 113.167 395.022C113.075 395 112.977 395 112.782 395H107.218C107.023 395 106.925 395 106.833 395.022C106.751 395.042 106.673 395.074 106.601 395.118C106.521 395.167 106.451 395.237 106.313 395.375L102.375 399.313C102.237 399.451 102.167 399.521 102.118 399.601C102.074 399.673 102.042 399.751 102.022 399.833C102 399.925 102 400.023 102 400.218Z" stroke="white" stroke-width="2" stroke-linecap="round" stroke-linejoin="round"/>
<rect x="148" y="233" width="249" height="133" rx="12" fill="#00AEF0"/>
<path fill-rule="evenodd" clip-rule="evenodd" d="M282.5 271.5C282.5 277.023 278.023 281.5 272.5 281.5C266.977 281.5 262.5 277.023 262.5 271.5C262.5 265.977 266.977 261.5 272.5 261.5C278.023 261.5 282.5 265.977 282.5 271.5Z" fill="#00AEF0"/>
<path fill-rule="evenodd" clip-rule="evenodd" d="M285.708 284.074C284.381 281.022 284.153 278.436 284.117 277.42V269.062C284.117 262.676 278.915 257.5 272.498 257.5C266.08 257.5 260.878 262.676 260.878 269.062V277.541C260.828 278.634 260.568 281.141 259.292 284.074C257.577 288.014 258.996 287.545 260.267 287.221C261.538 286.898 264.377 285.632 265.264 287.191C266.15 288.75 266.89 290.103 268.959 289.221C271.029 288.338 272.004 288.044 272.299 288.044H272.701C272.996 288.044 273.972 288.338 276.041 289.221C278.111 290.103 278.85 288.75 279.737 287.191C280.623 285.632 283.462 286.898 284.733 287.221C286.004 287.545 287.423 288.014 285.708 284.074ZM268.911 263.804C270.163 263.804 271.178 265.402 271.178 267.373C271.178 269.344 270.163 270.942 268.911 270.942C267.66 270.942 266.645 269.344 266.645 267.373C266.645 265.402 267.66 263.804 268.911 263.804ZM272.498 278.068C269.74 278.068 267.419 275.367 266.719 272.362C268.07 274.21 270.156 275.398 272.498 275.398C274.84 275.398 276.925 274.21 278.277 272.362C277.577 275.367 275.255 278.068 272.498 278.068ZM276.084 270.942C274.832 270.942 273.818 269.344 273.818 267.373C273.818 265.402 274.832 263.804 276.084 263.804C277.337 263.804 278.351 265.402 278.351 267.373C278.351 269.344 277.337 270.942 276.084 270.942Z" fill="white"/>
<path d="M195.795 306.545C195.671 306.157 195.505 305.81 195.296 305.503C195.092 305.192 194.847 304.928 194.561 304.71C194.275 304.489 193.949 304.32 193.583 304.205C193.221 304.09 192.822 304.033 192.388 304.033C191.65 304.033 190.986 304.222 190.393 304.602C189.801 304.981 189.332 305.537 188.987 306.27C188.646 306.999 188.476 307.891 188.476 308.948C188.476 310.009 188.648 310.906 188.994 311.639C189.339 312.372 189.812 312.928 190.413 313.308C191.013 313.687 191.697 313.876 192.464 313.876C193.176 313.876 193.796 313.732 194.324 313.442C194.857 313.152 195.268 312.743 195.558 312.214C195.852 311.682 195.999 311.055 195.999 310.335L196.511 310.431H192.765V308.801H197.91V310.29C197.91 311.39 197.676 312.344 197.207 313.154C196.743 313.96 196.099 314.582 195.277 315.021C194.459 315.46 193.521 315.679 192.464 315.679C191.28 315.679 190.24 315.406 189.345 314.861C188.454 314.315 187.76 313.542 187.261 312.54C186.763 311.535 186.513 310.342 186.513 308.961C186.513 307.917 186.658 306.979 186.948 306.148C187.238 305.317 187.645 304.612 188.169 304.033C188.697 303.449 189.317 303.004 190.029 302.697C190.745 302.386 191.527 302.23 192.375 302.23C193.082 302.23 193.741 302.335 194.35 302.543C194.964 302.752 195.509 303.048 195.986 303.432C196.468 303.815 196.866 304.271 197.182 304.8C197.497 305.324 197.71 305.906 197.821 306.545H195.795ZM202.176 309.67V315.5H200.264V302.409H202.15V307.28H202.271C202.502 306.751 202.853 306.332 203.326 306.021C203.799 305.71 204.417 305.554 205.18 305.554C205.853 305.554 206.441 305.692 206.944 305.969C207.451 306.246 207.843 306.66 208.12 307.21C208.401 307.755 208.542 308.437 208.542 309.255V315.5H206.631V309.485C206.631 308.765 206.445 308.207 206.075 307.81C205.704 307.41 205.188 307.21 204.528 307.21C204.076 307.21 203.671 307.305 203.313 307.497C202.96 307.689 202.68 307.97 202.476 308.341C202.276 308.707 202.176 309.151 202.176 309.67ZM215.228 315.698C214.308 315.698 213.504 315.487 212.818 315.065C212.132 314.643 211.6 314.053 211.22 313.295C210.841 312.536 210.651 311.65 210.651 310.636C210.651 309.617 210.841 308.727 211.22 307.964C211.6 307.201 212.132 306.609 212.818 306.187C213.504 305.765 214.308 305.554 215.228 305.554C216.149 305.554 216.952 305.765 217.638 306.187C218.324 306.609 218.857 307.201 219.236 307.964C219.615 308.727 219.805 309.617 219.805 310.636C219.805 311.65 219.615 312.536 219.236 313.295C218.857 314.053 218.324 314.643 217.638 315.065C216.952 315.487 216.149 315.698 215.228 315.698ZM215.234 314.094C215.831 314.094 216.325 313.936 216.717 313.621C217.109 313.305 217.399 312.886 217.587 312.362C217.778 311.837 217.874 311.26 217.874 310.629C217.874 310.003 217.778 309.428 217.587 308.903C217.399 308.375 217.109 307.951 216.717 307.631C216.325 307.312 215.831 307.152 215.234 307.152C214.634 307.152 214.135 307.312 213.739 307.631C213.347 307.951 213.055 308.375 212.863 308.903C212.676 309.428 212.582 310.003 212.582 310.629C212.582 311.26 212.676 311.837 212.863 312.362C213.055 312.886 213.347 313.305 213.739 313.621C214.135 313.936 214.634 314.094 215.234 314.094ZM229.295 308.079L227.563 308.386C227.491 308.164 227.376 307.953 227.218 307.753C227.065 307.553 226.856 307.388 226.592 307.261C226.327 307.133 225.997 307.069 225.601 307.069C225.06 307.069 224.608 307.19 224.246 307.433C223.883 307.672 223.702 307.981 223.702 308.36C223.702 308.688 223.824 308.952 224.067 309.153C224.31 309.353 224.702 309.517 225.243 309.645L226.802 310.003C227.706 310.212 228.379 310.533 228.822 310.968C229.266 311.403 229.487 311.967 229.487 312.662C229.487 313.25 229.317 313.774 228.976 314.234C228.639 314.69 228.168 315.048 227.563 315.308C226.962 315.568 226.266 315.698 225.473 315.698C224.373 315.698 223.476 315.464 222.782 314.995C222.087 314.522 221.661 313.851 221.503 312.982L223.351 312.7C223.466 313.182 223.702 313.546 224.06 313.793C224.418 314.036 224.885 314.158 225.46 314.158C226.087 314.158 226.587 314.028 226.962 313.768C227.337 313.504 227.525 313.182 227.525 312.803C227.525 312.496 227.41 312.238 227.18 312.029C226.954 311.82 226.606 311.663 226.138 311.556L224.476 311.192C223.56 310.983 222.882 310.651 222.443 310.195C222.008 309.739 221.791 309.161 221.791 308.462C221.791 307.883 221.953 307.376 222.277 306.941C222.601 306.506 223.048 306.168 223.619 305.925C224.19 305.678 224.844 305.554 225.582 305.554C226.643 305.554 227.478 305.784 228.087 306.244C228.697 306.7 229.099 307.312 229.295 308.079ZM236.172 305.682V307.216H230.809V305.682H236.172ZM232.247 303.33H234.158V312.617C234.158 312.988 234.214 313.267 234.324 313.455C234.435 313.638 234.578 313.763 234.753 313.832C234.932 313.896 235.125 313.928 235.334 313.928C235.488 313.928 235.622 313.917 235.737 313.896C235.852 313.874 235.941 313.857 236.005 313.844L236.351 315.423C236.24 315.466 236.082 315.509 235.878 315.551C235.673 315.598 235.417 315.624 235.111 315.628C234.608 315.636 234.139 315.547 233.704 315.359C233.27 315.172 232.918 314.882 232.65 314.49C232.381 314.098 232.247 313.606 232.247 313.013V303.33ZM242.412 315.698C241.445 315.698 240.611 315.491 239.913 315.078C239.218 314.661 238.681 314.075 238.302 313.32C237.927 312.562 237.739 311.673 237.739 310.655C237.739 309.649 237.927 308.763 238.302 307.996C238.681 307.229 239.209 306.63 239.887 306.2C240.569 305.769 241.366 305.554 242.278 305.554C242.832 305.554 243.369 305.646 243.888 305.829C244.408 306.012 244.875 306.3 245.288 306.692C245.702 307.084 246.028 307.593 246.266 308.219C246.505 308.842 246.624 309.598 246.624 310.489V311.166H238.82V309.734H244.751C244.751 309.232 244.649 308.786 244.445 308.398C244.24 308.006 243.952 307.697 243.582 307.472C243.215 307.246 242.785 307.133 242.29 307.133C241.753 307.133 241.285 307.265 240.884 307.529C240.488 307.789 240.181 308.13 239.964 308.552C239.751 308.969 239.644 309.423 239.644 309.913V311.032C239.644 311.688 239.759 312.246 239.989 312.707C240.224 313.167 240.55 313.518 240.967 313.761C241.385 314 241.873 314.119 242.431 314.119C242.793 314.119 243.123 314.068 243.422 313.966C243.72 313.859 243.978 313.702 244.195 313.493C244.413 313.284 244.579 313.026 244.694 312.719L246.503 313.045C246.358 313.578 246.098 314.045 245.723 314.445C245.352 314.842 244.886 315.151 244.323 315.372C243.765 315.589 243.128 315.698 242.412 315.698ZM248.745 315.5V305.682H250.592V307.241H250.694C250.873 306.713 251.189 306.298 251.64 305.995C252.096 305.688 252.612 305.535 253.187 305.535C253.307 305.535 253.447 305.539 253.609 305.548C253.775 305.556 253.905 305.567 253.999 305.58V307.408C253.922 307.386 253.786 307.363 253.59 307.337C253.394 307.308 253.198 307.293 253.002 307.293C252.55 307.293 252.147 307.388 251.794 307.58C251.444 307.768 251.167 308.03 250.963 308.366C250.758 308.699 250.656 309.078 250.656 309.504V315.5H248.745ZM257.16 319.182C256.874 319.182 256.614 319.158 256.38 319.112C256.146 319.069 255.971 319.022 255.856 318.971L256.316 317.405C256.666 317.499 256.977 317.539 257.249 317.526C257.522 317.513 257.763 317.411 257.972 317.219C258.185 317.028 258.372 316.714 258.534 316.28L258.771 315.628L255.178 305.682H257.224L259.71 313.301H259.813L262.299 305.682H264.351L260.305 316.81C260.117 317.322 259.879 317.754 259.589 318.108C259.299 318.466 258.954 318.734 258.553 318.913C258.153 319.092 257.688 319.182 257.16 319.182ZM272.822 309.67V315.5H270.911V302.409H272.796V307.28H272.918C273.148 306.751 273.5 306.332 273.973 306.021C274.446 305.71 275.063 305.554 275.826 305.554C276.5 305.554 277.088 305.692 277.59 305.969C278.098 306.246 278.49 306.66 278.767 307.21C279.048 307.755 279.188 308.437 279.188 309.255V315.5H277.277V309.485C277.277 308.765 277.092 308.207 276.721 307.81C276.35 307.41 275.835 307.21 275.174 307.21C274.723 307.21 274.318 307.305 273.96 307.497C273.606 307.689 273.327 307.97 273.122 308.341C272.922 308.707 272.822 309.151 272.822 309.67ZM281.739 315.5V305.682H283.65V315.5H281.739ZM282.704 304.167C282.372 304.167 282.086 304.056 281.848 303.835C281.613 303.609 281.496 303.34 281.496 303.029C281.496 302.714 281.613 302.445 281.848 302.224C282.086 301.998 282.372 301.885 282.704 301.885C283.036 301.885 283.32 301.998 283.554 302.224C283.793 302.445 283.912 302.714 283.912 303.029C283.912 303.34 283.793 303.609 283.554 303.835C283.32 304.056 283.036 304.167 282.704 304.167ZM289.897 315.692C289.104 315.692 288.397 315.489 287.775 315.085C287.157 314.675 286.671 314.094 286.317 313.339C285.968 312.581 285.793 311.671 285.793 310.61C285.793 309.549 285.97 308.641 286.324 307.887C286.682 307.133 287.172 306.555 287.794 306.155C288.416 305.754 289.121 305.554 289.91 305.554C290.519 305.554 291.009 305.656 291.38 305.861C291.755 306.061 292.044 306.295 292.249 306.564C292.458 306.832 292.62 307.069 292.735 307.273H292.85V302.409H294.761V315.5H292.895V313.972H292.735C292.62 314.181 292.454 314.42 292.236 314.688C292.023 314.957 291.729 315.191 291.354 315.391C290.979 315.592 290.493 315.692 289.897 315.692ZM290.319 314.062C290.868 314.062 291.333 313.917 291.712 313.627C292.096 313.333 292.385 312.926 292.581 312.406C292.782 311.886 292.882 311.281 292.882 310.591C292.882 309.909 292.784 309.312 292.588 308.801C292.392 308.29 292.104 307.891 291.725 307.606C291.346 307.32 290.877 307.178 290.319 307.178C289.743 307.178 289.264 307.327 288.88 307.625C288.497 307.923 288.207 308.33 288.011 308.846C287.819 309.362 287.723 309.943 287.723 310.591C287.723 311.247 287.821 311.837 288.017 312.362C288.214 312.886 288.503 313.301 288.887 313.608C289.275 313.911 289.752 314.062 290.319 314.062ZM301.72 315.698C300.753 315.698 299.92 315.491 299.221 315.078C298.527 314.661 297.99 314.075 297.61 313.32C297.235 312.562 297.048 311.673 297.048 310.655C297.048 309.649 297.235 308.763 297.61 307.996C297.99 307.229 298.518 306.63 299.196 306.2C299.877 305.769 300.674 305.554 301.586 305.554C302.14 305.554 302.677 305.646 303.197 305.829C303.717 306.012 304.184 306.3 304.597 306.692C305.01 307.084 305.336 307.593 305.575 308.219C305.813 308.842 305.933 309.598 305.933 310.489V311.166H298.128V309.734H304.06C304.06 309.232 303.958 308.786 303.753 308.398C303.549 308.006 303.261 307.697 302.89 307.472C302.524 307.246 302.093 307.133 301.599 307.133C301.062 307.133 300.593 307.265 300.193 307.529C299.796 307.789 299.49 308.13 299.272 308.552C299.059 308.969 298.953 309.423 298.953 309.913V311.032C298.953 311.688 299.068 312.246 299.298 312.707C299.532 313.167 299.858 313.518 300.276 313.761C300.693 314 301.181 314.119 301.74 314.119C302.102 314.119 302.432 314.068 302.73 313.966C303.029 313.859 303.286 313.702 303.504 313.493C303.721 313.284 303.887 313.026 304.002 312.719L305.811 313.045C305.666 313.578 305.407 314.045 305.032 314.445C304.661 314.842 304.194 315.151 303.632 315.372C303.073 315.589 302.436 315.698 301.72 315.698ZM315.411 308.079L313.678 308.386C313.606 308.164 313.491 307.953 313.333 307.753C313.18 307.553 312.971 307.388 312.707 307.261C312.443 307.133 312.112 307.069 311.716 307.069C311.175 307.069 310.723 307.19 310.361 307.433C309.999 307.672 309.818 307.981 309.818 308.36C309.818 308.688 309.939 308.952 310.182 309.153C310.425 309.353 310.817 309.517 311.358 309.645L312.918 310.003C313.821 310.212 314.494 310.533 314.938 310.968C315.381 311.403 315.602 311.967 315.602 312.662C315.602 313.25 315.432 313.774 315.091 314.234C314.754 314.69 314.283 315.048 313.678 315.308C313.078 315.568 312.381 315.698 311.588 315.698C310.489 315.698 309.592 315.464 308.897 314.995C308.203 314.522 307.776 313.851 307.619 312.982L309.466 312.7C309.581 313.182 309.818 313.546 310.176 313.793C310.533 314.036 311 314.158 311.575 314.158C312.202 314.158 312.703 314.028 313.078 313.768C313.453 313.504 313.64 313.182 313.64 312.803C313.64 312.496 313.525 312.238 313.295 312.029C313.069 311.82 312.722 311.663 312.253 311.556L310.591 311.192C309.675 310.983 308.997 310.651 308.558 310.195C308.124 309.739 307.906 309.161 307.906 308.462C307.906 307.883 308.068 307.376 308.392 306.941C308.716 306.506 309.163 306.168 309.734 305.925C310.305 305.678 310.96 305.554 311.697 305.554C312.758 305.554 313.593 305.784 314.203 306.244C314.812 306.7 315.215 307.312 315.411 308.079ZM323.676 319.182C323.39 319.182 323.13 319.158 322.896 319.112C322.661 319.069 322.487 319.022 322.372 318.971L322.832 317.405C323.181 317.499 323.492 317.539 323.765 317.526C324.038 317.513 324.278 317.411 324.487 317.219C324.7 317.028 324.888 316.714 325.05 316.28L325.286 315.628L321.694 305.682H323.739L326.226 313.301H326.328L328.815 305.682H330.867L326.82 316.81C326.633 317.322 326.394 317.754 326.104 318.108C325.815 318.466 325.47 318.734 325.069 318.913C324.668 319.092 324.204 319.182 323.676 319.182ZM336.464 315.698C335.544 315.698 334.741 315.487 334.055 315.065C333.369 314.643 332.836 314.053 332.457 313.295C332.077 312.536 331.888 311.65 331.888 310.636C331.888 309.617 332.077 308.727 332.457 307.964C332.836 307.201 333.369 306.609 334.055 306.187C334.741 305.765 335.544 305.554 336.464 305.554C337.385 305.554 338.188 305.765 338.874 306.187C339.56 306.609 340.093 307.201 340.472 307.964C340.851 308.727 341.041 309.617 341.041 310.636C341.041 311.65 340.851 312.536 340.472 313.295C340.093 314.053 339.56 314.643 338.874 315.065C338.188 315.487 337.385 315.698 336.464 315.698ZM336.471 314.094C337.067 314.094 337.562 313.936 337.954 313.621C338.346 313.305 338.636 312.886 338.823 312.362C339.015 311.837 339.111 311.26 339.111 310.629C339.111 310.003 339.015 309.428 338.823 308.903C338.636 308.375 338.346 307.951 337.954 307.631C337.562 307.312 337.067 307.152 336.471 307.152C335.87 307.152 335.371 307.312 334.975 307.631C334.583 307.951 334.291 308.375 334.099 308.903C333.912 309.428 333.818 310.003 333.818 310.629C333.818 311.26 333.912 311.837 334.099 312.362C334.291 312.886 334.583 313.305 334.975 313.621C335.371 313.936 335.87 314.094 336.471 314.094ZM349.394 311.428V305.682H351.312V315.5H349.432V313.8H349.33C349.104 314.324 348.742 314.761 348.243 315.11C347.749 315.455 347.133 315.628 346.396 315.628C345.765 315.628 345.207 315.489 344.721 315.212C344.24 314.931 343.861 314.516 343.584 313.966C343.311 313.416 343.174 312.737 343.174 311.927V305.682H345.086V311.697C345.086 312.366 345.271 312.898 345.642 313.295C346.013 313.691 346.494 313.889 347.086 313.889C347.444 313.889 347.8 313.8 348.154 313.621C348.512 313.442 348.808 313.171 349.042 312.809C349.281 312.447 349.398 311.987 349.394 311.428ZM353.88 315.5V305.682H355.727V307.241H355.829C356.008 306.713 356.323 306.298 356.775 305.995C357.231 305.688 357.747 305.535 358.322 305.535C358.441 305.535 358.582 305.539 358.744 305.548C358.91 305.556 359.04 305.567 359.134 305.58V307.408C359.057 307.386 358.921 307.363 358.725 307.337C358.529 307.308 358.333 307.293 358.137 307.293C357.685 307.293 357.282 307.388 356.929 307.58C356.579 307.768 356.302 308.03 356.098 308.366C355.893 308.699 355.791 309.078 355.791 309.504V315.5H353.88ZM177.602 337.698C176.652 337.698 175.834 337.483 175.148 337.053C174.466 336.618 173.942 336.019 173.575 335.256C173.209 334.494 173.025 333.62 173.025 332.636C173.025 331.638 173.213 330.759 173.588 329.996C173.963 329.229 174.491 328.63 175.173 328.2C175.855 327.769 176.658 327.554 177.583 327.554C178.329 327.554 178.993 327.692 179.577 327.969C180.161 328.242 180.632 328.626 180.99 329.12C181.352 329.614 181.567 330.192 181.635 330.852H179.775C179.673 330.392 179.439 329.996 179.072 329.663C178.71 329.331 178.224 329.165 177.615 329.165C177.082 329.165 176.616 329.305 176.215 329.587C175.819 329.864 175.51 330.26 175.288 330.776C175.067 331.287 174.956 331.892 174.956 332.591C174.956 333.307 175.064 333.925 175.282 334.445C175.499 334.964 175.806 335.367 176.202 335.653C176.603 335.938 177.074 336.081 177.615 336.081C177.977 336.081 178.305 336.015 178.599 335.883C178.898 335.746 179.147 335.553 179.347 335.301C179.552 335.05 179.694 334.747 179.775 334.393H181.635C181.567 335.028 181.361 335.595 181.015 336.094C180.67 336.592 180.208 336.984 179.628 337.27C179.053 337.555 178.378 337.698 177.602 337.698ZM185.591 324.409V337.5H183.679V324.409H185.591ZM188.162 337.5V327.682H190.073V337.5H188.162ZM189.127 326.167C188.795 326.167 188.509 326.056 188.27 325.835C188.036 325.609 187.919 325.34 187.919 325.029C187.919 324.714 188.036 324.445 188.27 324.224C188.509 323.998 188.795 323.885 189.127 323.885C189.459 323.885 189.743 323.998 189.977 324.224C190.216 324.445 190.335 324.714 190.335 325.029C190.335 325.34 190.216 325.609 189.977 325.835C189.743 326.056 189.459 326.167 189.127 326.167ZM196.78 337.698C195.83 337.698 195.011 337.483 194.325 337.053C193.643 336.618 193.119 336.019 192.753 335.256C192.386 334.494 192.203 333.62 192.203 332.636C192.203 331.638 192.391 330.759 192.766 329.996C193.141 329.229 193.669 328.63 194.351 328.2C195.033 327.769 195.836 327.554 196.761 327.554C197.506 327.554 198.171 327.692 198.755 327.969C199.339 328.242 199.81 328.626 200.168 329.12C200.53 329.614 200.745 330.192 200.813 330.852H198.953C198.851 330.392 198.616 329.996 198.25 329.663C197.888 329.331 197.402 329.165 196.793 329.165C196.26 329.165 195.793 329.305 195.393 329.587C194.996 329.864 194.688 330.26 194.466 330.776C194.244 331.287 194.134 331.892 194.134 332.591C194.134 333.307 194.242 333.925 194.46 334.445C194.677 334.964 194.984 335.367 195.38 335.653C195.781 335.938 196.251 336.081 196.793 336.081C197.155 336.081 197.483 336.015 197.777 335.883C198.075 335.746 198.325 335.553 198.525 335.301C198.729 335.05 198.872 334.747 198.953 334.393H200.813C200.745 335.028 200.538 335.595 200.193 336.094C199.848 336.592 199.386 336.984 198.806 337.27C198.231 337.555 197.555 337.698 196.78 337.698ZM204.615 334.17L204.602 331.837H204.934L208.846 327.682H211.135L206.673 332.412H206.373L204.615 334.17ZM202.857 337.5V324.409H204.768V337.5H202.857ZM209.057 337.5L205.542 332.834L206.858 331.498L211.403 337.5H209.057ZM220.234 330.079L218.502 330.386C218.429 330.164 218.314 329.953 218.156 329.753C218.003 329.553 217.794 329.388 217.53 329.261C217.266 329.133 216.936 329.069 216.539 329.069C215.998 329.069 215.546 329.19 215.184 329.433C214.822 329.672 214.641 329.981 214.641 330.36C214.641 330.688 214.762 330.952 215.005 331.153C215.248 331.353 215.64 331.517 216.181 331.645L217.741 332.003C218.644 332.212 219.318 332.533 219.761 332.968C220.204 333.403 220.426 333.967 220.426 334.662C220.426 335.25 220.255 335.774 219.914 336.234C219.578 336.69 219.107 337.048 218.502 337.308C217.901 337.568 217.204 337.698 216.411 337.698C215.312 337.698 214.415 337.464 213.72 336.995C213.026 336.522 212.6 335.851 212.442 334.982L214.289 334.7C214.404 335.182 214.641 335.546 214.999 335.793C215.357 336.036 215.823 336.158 216.399 336.158C217.025 336.158 217.526 336.028 217.901 335.768C218.276 335.504 218.463 335.182 218.463 334.803C218.463 334.496 218.348 334.238 218.118 334.029C217.892 333.82 217.545 333.663 217.076 333.556L215.414 333.192C214.498 332.983 213.82 332.651 213.382 332.195C212.947 331.739 212.73 331.161 212.73 330.462C212.73 329.883 212.892 329.376 213.215 328.941C213.539 328.506 213.987 328.168 214.558 327.925C215.129 327.678 215.783 327.554 216.52 327.554C217.581 327.554 218.416 327.784 219.026 328.244C219.635 328.7 220.038 329.312 220.234 330.079ZM227.291 337.5V327.682H229.202V337.5H227.291ZM228.256 326.167C227.923 326.167 227.638 326.056 227.399 325.835C227.165 325.609 227.048 325.34 227.048 325.029C227.048 324.714 227.165 324.445 227.399 324.224C227.638 323.998 227.923 323.885 228.256 323.885C228.588 323.885 228.872 323.998 229.106 324.224C229.345 324.445 229.464 324.714 229.464 325.029C229.464 325.34 229.345 325.609 229.106 325.835C228.872 326.056 228.588 326.167 228.256 326.167ZM233.684 331.67V337.5H231.773V327.682H233.608V329.28H233.729C233.955 328.76 234.309 328.342 234.79 328.027C235.276 327.712 235.887 327.554 236.625 327.554C237.294 327.554 237.88 327.695 238.382 327.976C238.885 328.253 239.275 328.666 239.552 329.216C239.829 329.766 239.968 330.445 239.968 331.255V337.5H238.056V331.485C238.056 330.773 237.871 330.217 237.5 329.817C237.13 329.412 236.62 329.21 235.973 329.21C235.529 329.21 235.135 329.305 234.79 329.497C234.449 329.689 234.179 329.97 233.978 330.341C233.782 330.707 233.684 331.151 233.684 331.67ZM254.652 330.079L252.92 330.386C252.847 330.164 252.732 329.953 252.574 329.753C252.421 329.553 252.212 329.388 251.948 329.261C251.684 329.133 251.354 329.069 250.957 329.069C250.416 329.069 249.964 329.19 249.602 329.433C249.24 329.672 249.059 329.981 249.059 330.36C249.059 330.688 249.18 330.952 249.423 331.153C249.666 331.353 250.058 331.517 250.599 331.645L252.159 332.003C253.062 332.212 253.736 332.533 254.179 332.968C254.622 333.403 254.844 333.967 254.844 334.662C254.844 335.25 254.673 335.774 254.332 336.234C253.996 336.69 253.525 337.048 252.92 337.308C252.319 337.568 251.622 337.698 250.829 337.698C249.73 337.698 248.833 337.464 248.138 336.995C247.444 336.522 247.018 335.851 246.86 334.982L248.707 334.7C248.822 335.182 249.059 335.546 249.417 335.793C249.775 336.036 250.241 336.158 250.817 336.158C251.443 336.158 251.944 336.028 252.319 335.768C252.694 335.504 252.881 335.182 252.881 334.803C252.881 334.496 252.766 334.238 252.536 334.029C252.31 333.82 251.963 333.663 251.494 333.556L249.832 333.192C248.916 332.983 248.238 332.651 247.8 332.195C247.365 331.739 247.148 331.161 247.148 330.462C247.148 329.883 247.309 329.376 247.633 328.941C247.957 328.506 248.405 328.168 248.976 327.925C249.547 327.678 250.201 327.554 250.938 327.554C251.999 327.554 252.834 327.784 253.444 328.244C254.053 328.7 254.456 329.312 254.652 330.079ZM261.176 337.698C260.209 337.698 259.376 337.491 258.677 337.078C257.983 336.661 257.446 336.075 257.066 335.32C256.691 334.562 256.504 333.673 256.504 332.655C256.504 331.649 256.691 330.763 257.066 329.996C257.446 329.229 257.974 328.63 258.652 328.2C259.333 327.769 260.13 327.554 261.042 327.554C261.596 327.554 262.133 327.646 262.653 327.829C263.173 328.012 263.64 328.3 264.053 328.692C264.466 329.084 264.792 329.593 265.031 330.219C265.27 330.842 265.389 331.598 265.389 332.489V333.166H257.584V331.734H263.516C263.516 331.232 263.414 330.786 263.209 330.398C263.005 330.006 262.717 329.697 262.346 329.472C261.98 329.246 261.549 329.133 261.055 329.133C260.518 329.133 260.049 329.265 259.649 329.529C259.252 329.789 258.946 330.13 258.728 330.552C258.515 330.969 258.409 331.423 258.409 331.913V333.032C258.409 333.688 258.524 334.246 258.754 334.707C258.988 335.167 259.314 335.518 259.732 335.761C260.15 336 260.637 336.119 261.196 336.119C261.558 336.119 261.888 336.068 262.186 335.966C262.485 335.859 262.743 335.702 262.96 335.493C263.177 335.284 263.343 335.026 263.458 334.719L265.267 335.045C265.123 335.578 264.863 336.045 264.488 336.445C264.117 336.842 263.65 337.151 263.088 337.372C262.529 337.589 261.892 337.698 261.176 337.698ZM270.367 337.717C269.744 337.717 269.182 337.602 268.679 337.372C268.176 337.138 267.778 336.799 267.484 336.356C267.194 335.913 267.049 335.369 267.049 334.726C267.049 334.172 267.156 333.716 267.369 333.358C267.582 333 267.869 332.717 268.232 332.508C268.594 332.299 268.999 332.141 269.446 332.035C269.894 331.928 270.35 331.847 270.814 331.792C271.402 331.724 271.879 331.668 272.246 331.626C272.612 331.579 272.879 331.504 273.045 331.402C273.211 331.3 273.294 331.134 273.294 330.903V330.859C273.294 330.3 273.137 329.868 272.821 329.561C272.51 329.254 272.046 329.101 271.428 329.101C270.784 329.101 270.277 329.244 269.906 329.529C269.54 329.81 269.286 330.124 269.146 330.469L267.35 330.06C267.563 329.463 267.874 328.982 268.283 328.615C268.696 328.244 269.171 327.976 269.708 327.81C270.245 327.639 270.81 327.554 271.402 327.554C271.794 327.554 272.21 327.601 272.649 327.695C273.092 327.784 273.505 327.95 273.889 328.193C274.276 328.436 274.594 328.783 274.841 329.235C275.088 329.683 275.212 330.264 275.212 330.98V337.5H273.345V336.158H273.269C273.145 336.405 272.96 336.648 272.713 336.886C272.465 337.125 272.148 337.323 271.76 337.481C271.372 337.638 270.908 337.717 270.367 337.717ZM270.782 336.183C271.311 336.183 271.762 336.079 272.137 335.87C272.517 335.661 272.804 335.388 273 335.052C273.2 334.711 273.301 334.347 273.301 333.959V332.693C273.232 332.761 273.1 332.825 272.904 332.885C272.713 332.94 272.493 332.989 272.246 333.032C271.999 333.07 271.758 333.107 271.524 333.141C271.289 333.17 271.093 333.196 270.936 333.217C270.565 333.264 270.226 333.343 269.919 333.454C269.617 333.565 269.374 333.724 269.191 333.933C269.012 334.138 268.922 334.411 268.922 334.751C268.922 335.224 269.097 335.582 269.446 335.825C269.796 336.064 270.241 336.183 270.782 336.183ZM277.757 337.5V327.682H279.605V329.241H279.707C279.886 328.713 280.201 328.298 280.653 327.995C281.109 327.688 281.625 327.535 282.2 327.535C282.319 327.535 282.46 327.539 282.622 327.548C282.788 327.556 282.918 327.567 283.012 327.58V329.408C282.935 329.386 282.799 329.363 282.603 329.337C282.407 329.308 282.211 329.293 282.015 329.293C281.563 329.293 281.16 329.388 280.806 329.58C280.457 329.768 280.18 330.03 279.975 330.366C279.771 330.699 279.669 331.078 279.669 331.504V337.5H277.757ZM288.45 337.698C287.499 337.698 286.681 337.483 285.995 337.053C285.313 336.618 284.789 336.019 284.423 335.256C284.056 334.494 283.873 333.62 283.873 332.636C283.873 331.638 284.061 330.759 284.436 329.996C284.811 329.229 285.339 328.63 286.021 328.2C286.703 327.769 287.506 327.554 288.431 327.554C289.176 327.554 289.841 327.692 290.425 327.969C291.009 328.242 291.48 328.626 291.838 329.12C292.2 329.614 292.415 330.192 292.483 330.852H290.623C290.521 330.392 290.286 329.996 289.92 329.663C289.558 329.331 289.072 329.165 288.463 329.165C287.93 329.165 287.463 329.305 287.063 329.587C286.666 329.864 286.357 330.26 286.136 330.776C285.914 331.287 285.803 331.892 285.803 332.591C285.803 333.307 285.912 333.925 286.129 334.445C286.347 334.964 286.654 335.367 287.05 335.653C287.45 335.938 287.921 336.081 288.463 336.081C288.825 336.081 289.153 336.015 289.447 335.883C289.745 335.746 289.994 335.553 290.195 335.301C290.399 335.05 290.542 334.747 290.623 334.393H292.483C292.415 335.028 292.208 335.595 291.863 336.094C291.518 336.592 291.056 336.984 290.476 337.27C289.901 337.555 289.225 337.698 288.45 337.698ZM296.438 331.67V337.5H294.527V324.409H296.413V329.28H296.534C296.764 328.751 297.116 328.332 297.589 328.021C298.062 327.71 298.68 327.554 299.442 327.554C300.116 327.554 300.704 327.692 301.207 327.969C301.714 328.246 302.106 328.66 302.383 329.21C302.664 329.755 302.805 330.437 302.805 331.255V337.5H300.893V331.485C300.893 330.765 300.708 330.207 300.337 329.81C299.967 329.41 299.451 329.21 298.79 329.21C298.339 329.21 297.934 329.305 297.576 329.497C297.222 329.689 296.943 329.97 296.739 330.341C296.538 330.707 296.438 331.151 296.438 331.67ZM316.747 341.182V335.972H316.632C316.517 336.181 316.351 336.42 316.134 336.688C315.921 336.957 315.627 337.191 315.252 337.391C314.877 337.592 314.391 337.692 313.794 337.692C313.002 337.692 312.294 337.489 311.672 337.085C311.054 336.675 310.568 336.094 310.215 335.339C309.865 334.581 309.691 333.671 309.691 332.61C309.691 331.549 309.867 330.641 310.221 329.887C310.579 329.133 311.069 328.555 311.691 328.155C312.313 327.754 313.019 327.554 313.807 327.554C314.416 327.554 314.906 327.656 315.277 327.861C315.652 328.061 315.942 328.295 316.146 328.564C316.355 328.832 316.517 329.069 316.632 329.273H316.792V327.682H318.659V341.182H316.747ZM314.216 336.062C314.766 336.062 315.23 335.917 315.61 335.627C315.993 335.333 316.283 334.926 316.479 334.406C316.679 333.886 316.779 333.281 316.779 332.591C316.779 331.909 316.681 331.312 316.485 330.801C316.289 330.29 316.002 329.891 315.622 329.606C315.243 329.32 314.774 329.178 314.216 329.178C313.641 329.178 313.161 329.327 312.778 329.625C312.394 329.923 312.105 330.33 311.909 330.846C311.717 331.362 311.621 331.943 311.621 332.591C311.621 333.247 311.719 333.837 311.915 334.362C312.111 334.886 312.401 335.301 312.784 335.608C313.172 335.911 313.649 336.062 314.216 336.062ZM327.448 333.428V327.682H329.365V337.5H327.486V335.8H327.384C327.158 336.324 326.796 336.761 326.297 337.11C325.803 337.455 325.187 337.628 324.45 337.628C323.819 337.628 323.261 337.489 322.775 337.212C322.294 336.931 321.914 336.516 321.637 335.966C321.365 335.416 321.228 334.737 321.228 333.927V327.682H323.139V333.697C323.139 334.366 323.325 334.898 323.695 335.295C324.066 335.691 324.548 335.889 325.14 335.889C325.498 335.889 325.854 335.8 326.208 335.621C326.566 335.442 326.862 335.171 327.096 334.809C327.335 334.447 327.452 333.987 327.448 333.428ZM336.165 337.698C335.197 337.698 334.364 337.491 333.665 337.078C332.971 336.661 332.434 336.075 332.055 335.32C331.68 334.562 331.492 333.673 331.492 332.655C331.492 331.649 331.68 330.763 332.055 329.996C332.434 329.229 332.962 328.63 333.64 328.2C334.322 327.769 335.119 327.554 336.031 327.554C336.585 327.554 337.121 327.646 337.641 327.829C338.161 328.012 338.628 328.3 339.041 328.692C339.455 329.084 339.781 329.593 340.019 330.219C340.258 330.842 340.377 331.598 340.377 332.489V333.166H332.572V331.734H338.504C338.504 331.232 338.402 330.786 338.197 330.398C337.993 330.006 337.705 329.697 337.335 329.472C336.968 329.246 336.538 329.133 336.043 329.133C335.506 329.133 335.038 329.265 334.637 329.529C334.241 329.789 333.934 330.13 333.717 330.552C333.504 330.969 333.397 331.423 333.397 331.913V333.032C333.397 333.688 333.512 334.246 333.742 334.707C333.977 335.167 334.303 335.518 334.72 335.761C335.138 336 335.626 336.119 336.184 336.119C336.546 336.119 336.876 336.068 337.175 335.966C337.473 335.859 337.731 335.702 337.948 335.493C338.165 335.284 338.332 335.026 338.447 334.719L340.256 335.045C340.111 335.578 339.851 336.045 339.476 336.445C339.105 336.842 338.638 337.151 338.076 337.372C337.518 337.589 336.881 337.698 336.165 337.698ZM342.498 337.5V327.682H344.345V329.241H344.447C344.626 328.713 344.942 328.298 345.393 327.995C345.849 327.688 346.365 327.535 346.94 327.535C347.059 327.535 347.2 327.539 347.362 327.548C347.528 327.556 347.658 327.567 347.752 327.58V329.408C347.675 329.386 347.539 329.363 347.343 329.337C347.147 329.308 346.951 329.293 346.755 329.293C346.303 329.293 345.9 329.388 345.547 329.58C345.197 329.768 344.92 330.03 344.716 330.366C344.511 330.699 344.409 331.078 344.409 331.504V337.5H342.498ZM349.406 337.5V327.682H351.317V337.5H349.406ZM350.371 326.167C350.039 326.167 349.753 326.056 349.515 325.835C349.28 325.609 349.163 325.34 349.163 325.029C349.163 324.714 349.28 324.445 349.515 324.224C349.753 323.998 350.039 323.885 350.371 323.885C350.703 323.885 350.987 323.998 351.221 324.224C351.46 324.445 351.579 324.714 351.579 325.029C351.579 325.34 351.46 325.609 351.221 325.835C350.987 326.056 350.703 326.167 350.371 326.167ZM358.12 337.698C357.153 337.698 356.319 337.491 355.621 337.078C354.926 336.661 354.389 336.075 354.01 335.32C353.635 334.562 353.447 333.673 353.447 332.655C353.447 331.649 353.635 330.763 354.01 329.996C354.389 329.229 354.917 328.63 355.595 328.2C356.277 327.769 357.074 327.554 357.986 327.554C358.54 327.554 359.077 327.646 359.596 327.829C360.116 328.012 360.583 328.3 360.996 328.692C361.41 329.084 361.736 329.593 361.974 330.219C362.213 330.842 362.332 331.598 362.332 332.489V333.166H354.528V331.734H360.459C360.459 331.232 360.357 330.786 360.153 330.398C359.948 330.006 359.66 329.697 359.29 329.472C358.923 329.246 358.493 329.133 357.998 329.133C357.461 329.133 356.993 329.265 356.592 329.529C356.196 329.789 355.889 330.13 355.672 330.552C355.459 330.969 355.352 331.423 355.352 331.913V333.032C355.352 333.688 355.467 334.246 355.697 334.707C355.932 335.167 356.258 335.518 356.675 335.761C357.093 336 357.581 336.119 358.139 336.119C358.501 336.119 358.831 336.068 359.13 335.966C359.428 335.859 359.686 335.702 359.903 335.493C360.121 335.284 360.287 335.026 360.402 334.719L362.211 335.045C362.066 335.578 361.806 336.045 361.431 336.445C361.06 336.842 360.594 337.151 360.031 337.372C359.473 337.589 358.836 337.698 358.12 337.698ZM371.81 330.079L370.078 330.386C370.005 330.164 369.89 329.953 369.733 329.753C369.579 329.553 369.37 329.388 369.106 329.261C368.842 329.133 368.512 329.069 368.115 329.069C367.574 329.069 367.123 329.19 366.76 329.433C366.398 329.672 366.217 329.981 366.217 330.36C366.217 330.688 366.338 330.952 366.581 331.153C366.824 331.353 367.216 331.517 367.757 331.645L369.317 332.003C370.221 332.212 370.894 332.533 371.337 332.968C371.78 333.403 372.002 333.967 372.002 334.662C372.002 335.25 371.831 335.774 371.49 336.234C371.154 336.69 370.683 337.048 370.078 337.308C369.477 337.568 368.78 337.698 367.988 337.698C366.888 337.698 365.991 337.464 365.297 336.995C364.602 336.522 364.176 335.851 364.018 334.982L365.865 334.7C365.98 335.182 366.217 335.546 366.575 335.793C366.933 336.036 367.4 336.158 367.975 336.158C368.601 336.158 369.102 336.028 369.477 335.768C369.852 335.504 370.039 335.182 370.039 334.803C370.039 334.496 369.924 334.238 369.694 334.029C369.468 333.82 369.121 333.663 368.652 333.556L366.99 333.192C366.074 332.983 365.397 332.651 364.958 332.195C364.523 331.739 364.306 331.161 364.306 330.462C364.306 329.883 364.468 329.376 364.792 328.941C365.115 328.506 365.563 328.168 366.134 327.925C366.705 327.678 367.359 327.554 368.096 327.554C369.157 327.554 369.993 327.784 370.602 328.244C371.211 328.7 371.614 329.312 371.81 330.079Z" fill="white"/>
<rect x="148" y="233" width="249" height="133" rx="12" stroke="white" stroke-width="8"/>
</g>
<defs>
<clipPath id="clip0_513_1902">
<rect width="1200" height="800" fill="white"/>
</clipPath>
</defs>
</svg>
