<svg width="120" height="80" viewBox="0 0 120 80" fill="none" xmlns="http://www.w3.org/2000/svg">
<g clip-path="url(#clip0_513_1904)">
<rect width="120" height="80" fill="white"/>
<rect width="120" height="10" fill="#E4EBF2"/>
<rect x="110" y="8" width="7.1" height="1" rx="0.5" fill="#8FA1B3"/>
<rect x="15" y="8" width="4" height="1" rx="0.5" fill="#8FA1B3"/>
<rect x="21" y="8" width="4" height="1" rx="0.5" fill="#8FA1B3"/>
<rect x="27" y="8" width="4" height="1" rx="0.5" fill="#8FA1B3"/>
<rect x="33" y="8" width="4" height="1" rx="0.5" fill="#8FA1B3"/>
<rect x="39" y="8" width="4" height="1" rx="0.5" fill="#8FA1B3"/>
<rect x="45" y="8" width="4" height="1" rx="0.5" fill="#8FA1B3"/>
<rect x="3" y="2" width="7" height="3" rx="1.4" fill="#8FA1B3"/>
<rect x="61" y="2" width="0.2" height="3" fill="#8FA1B2"/>
<rect x="14.1" y="2.1" width="54.8" height="2.8" rx="1.4" stroke="#B8C2CC" stroke-width="0.2"/>
<rect x="112.2" y="3" width="5" height="1" rx="0.3" fill="#8FA1B3"/>
<rect x="111.05" y="2.05" width="7.3" height="2.9" rx="0.75" stroke="#B8C2CC" stroke-width="0.1"/>
<rect x="16" y="3" width="4" height="1" rx="0.3" fill="#8FA1B3"/>
<rect x="59" y="3" width="1" height="1" rx="0.3" fill="#8FA1B3"/>
<rect x="63" y="3" width="1" height="1" rx="0.3" fill="#8FA1B3"/>
<rect x="66" y="3" width="1" height="1" rx="0.3" fill="#8FA1B3"/>
<rect x="105" y="3" width="1" height="1" rx="0.3" fill="#8FA1B3"/>
<rect x="108" y="3" width="1" height="1" rx="0.3" fill="#8FA1B3"/>
<rect x="76" y="29" width="26" height="1.5" rx="0.75" fill="#8FA1B3"/>
<rect x="76" y="32" width="27" height="1.5" rx="0.75" fill="#8FA1B3"/>
<rect x="76" y="35" width="26" height="1.5" rx="0.75" fill="#8FA1B3"/>
<rect x="76" y="38" width="23" height="1.5" rx="0.75" fill="#8FA1B3"/>
<rect x="76" y="41" width="26" height="1.5" rx="0.75" fill="#8FA1B3"/>
<rect x="76" y="44" width="23" height="1.5" rx="0.75" fill="#8FA1B3"/>
<rect x="76" y="47" width="26" height="1.5" rx="0.75" fill="#8FA1B3"/>
<rect x="76" y="50" width="24" height="1.5" rx="0.75" fill="#8FA1B3"/>
<rect x="76" y="53" width="21" height="1.5" rx="0.75" fill="#8FA1B3"/>
<rect x="76" y="56" width="21" height="1.5" rx="0.75" fill="#8FA1B3"/>
<rect x="76" y="21.7002" width="7.9" height="1" rx="0.5" fill="#B8C2CC"/>
<rect x="76" y="18.3999" width="9.9" height="2" rx="1" fill="#8FA1B3"/>
<rect x="76" y="61" width="10" height="2" rx="1" fill="#8FA1B3"/>
<rect x="76" y="67" width="10" height="2" rx="1" fill="#8FA1B3"/>
<rect x="76" y="73" width="10" height="2" rx="1" fill="#8FA1B3"/>
<rect x="76" y="79" width="10" height="2" rx="1" fill="#8FA1B3"/>
<rect x="88.7998" y="18.3999" width="2" height="2" rx="1" fill="#B8C2CC"/>
<rect width="12" height="12.7" transform="translate(92.1001 14.2998)" fill="#8FA1B3"/>
<g clip-path="url(#clip1_513_1904)">
<path d="M96.8118 22.1041L97.9112 21.0046C97.9772 20.9386 98.0102 20.9056 98.0483 20.8933C98.0817 20.8824 98.1178 20.8824 98.1513 20.8933C98.1893 20.9056 98.2223 20.9386 98.2883 21.0046L99.3804 22.0967M98.4331 21.1494L98.9112 20.6713C98.9772 20.6053 99.0102 20.5723 99.0483 20.5599C99.0817 20.5491 99.1178 20.5491 99.1513 20.5599C99.1893 20.5723 99.2223 20.6053 99.2883 20.6713L99.7664 21.1494M97.7664 20.1494C97.7664 20.3335 97.6172 20.4827 97.4331 20.4827C97.249 20.4827 97.0998 20.3335 97.0998 20.1494C97.0998 19.9653 97.249 19.8161 97.4331 19.8161C97.6172 19.8161 97.7664 19.9653 97.7664 20.1494ZM97.2331 22.1494H98.9664C99.2465 22.1494 99.3865 22.1494 99.4934 22.0949C99.5875 22.047 99.664 21.9705 99.7119 21.8764C99.7664 21.7694 99.7664 21.6294 99.7664 21.3494V19.9494C99.7664 19.6694 99.7664 19.5294 99.7119 19.4224C99.664 19.3283 99.5875 19.2518 99.4934 19.2039C99.3865 19.1494 99.2465 19.1494 98.9664 19.1494H97.2331C96.9531 19.1494 96.8131 19.1494 96.7061 19.2039C96.612 19.2518 96.5355 19.3283 96.4876 19.4224C96.4331 19.5294 96.4331 19.6694 96.4331 19.9494V21.3494C96.4331 21.6294 96.4331 21.7694 96.4876 21.8764C96.5355 21.9705 96.612 22.047 96.7061 22.0949C96.8131 22.1494 96.9531 22.1494 97.2331 22.1494Z" stroke="white" stroke-width="0.2" stroke-linecap="round" stroke-linejoin="round"/>
</g>
<rect x="75.05" y="14.3498" width="29" height="12.6" stroke="#B8C2CC" stroke-width="0.1"/>
<rect x="75.05" y="27.05" width="28.9" height="31.9" stroke="#B8C2CC" stroke-width="0.1"/>
<rect x="75.05" y="59.05" width="28.9" height="5.9" stroke="#B8C2CC" stroke-width="0.1"/>
<rect x="75.05" y="65.05" width="28.9" height="5.9" stroke="#B8C2CC" stroke-width="0.1"/>
<rect x="75.05" y="71.05" width="28.9" height="5.9" stroke="#B8C2CC" stroke-width="0.1"/>
<rect x="75.05" y="77.05" width="28.9" height="5.9" stroke="#B8C2CC" stroke-width="0.1"/>
<rect x="23" y="12" width="14" height="1" rx="0.5" fill="#8FA1B3"/>
<rect x="22" y="15" width="9" height="1" rx="0.5" fill="#B8C2CC"/>
<rect x="15.4004" y="48.6006" width="11.9" height="1" rx="0.5" fill="#B8C2CC"/>
<rect x="22" y="19" width="41" height="1" rx="0.5" fill="#B8C2CC"/>
<rect x="22" y="17" width="29" height="1" rx="0.5" fill="#8FA1B3"/>
<rect x="15.4004" y="50.5005" width="17.8" height="1.7" rx="0.85" fill="#8FA1B3"/>
<rect x="22" y="21" width="26" height="1" rx="0.5" fill="#B8C2CC"/>
<rect x="16.7002" y="43.4004" width="14.9" height="1" rx="0.5" fill="#8FA1B2"/>
<rect x="28.1006" y="48.6006" width="1" height="1" rx="0.5" fill="#B8C2CC"/>
<rect x="22" y="26" width="30" height="1" rx="0.5" fill="#B8C2CC"/>
<rect x="16.7002" y="23.7002" width="3.7" height="1.3" rx="0.65" fill="#8FA1B3"/>
<rect x="16.7002" y="40.9995" width="35.1" height="1" rx="0.5" fill="#B8C2CC"/>
<rect x="16.7002" y="38.8994" width="11.8" height="1.3" rx="0.65" fill="#8FA1B3"/>
<rect x="22" y="31" width="26" height="1" rx="0.5" fill="#B8C2CC"/>
<rect x="22" y="29" width="4" height="1" rx="0.5" fill="#8FA1B3"/>
<rect x="16.7002" y="35.8999" width="33.7" height="1" rx="0.5" fill="#B8C2CC"/>
<rect x="16.7002" y="33.7998" width="3.2" height="1.3" rx="0.65" fill="#8FA1B3"/>
<g clip-path="url(#clip2_513_1904)">
<rect x="15.3999" y="55.2002" width="16.6" height="22.9" rx="0.8" fill="#E4EBF2"/>
<rect x="16" y="55.7998" width="15.4" height="9.1" rx="0.6" fill="#8FA1B3"/>
<g clip-path="url(#clip3_513_1904)">
<path d="M22.4124 61.8052L23.5118 60.7058C23.5778 60.6398 23.6108 60.6068 23.6489 60.5945C23.6823 60.5836 23.7184 60.5836 23.7519 60.5945C23.7899 60.6068 23.8229 60.6398 23.8889 60.7058L24.981 61.7979M24.0337 60.8506L24.5118 60.3725C24.5778 60.3065 24.6108 60.2735 24.6489 60.2611C24.6823 60.2502 24.7184 60.2502 24.7519 60.2611C24.7899 60.2735 24.8229 60.3065 24.8889 60.3725L25.367 60.8506M23.367 59.8506C23.367 60.0347 23.2178 60.1839 23.0337 60.1839C22.8496 60.1839 22.7004 60.0347 22.7004 59.8506C22.7004 59.6665 22.8496 59.5173 23.0337 59.5173C23.2178 59.5173 23.367 59.6665 23.367 59.8506ZM22.8337 61.8506H24.567C24.8471 61.8506 24.9871 61.8506 25.094 61.7961C25.1881 61.7482 25.2646 61.6717 25.3125 61.5776C25.367 61.4706 25.367 61.3306 25.367 61.0506V59.6506C25.367 59.3706 25.367 59.2305 25.3125 59.1236C25.2646 59.0295 25.1881 58.953 25.094 58.9051C24.9871 58.8506 24.8471 58.8506 24.567 58.8506H22.8337C22.5537 58.8506 22.4137 58.8506 22.3067 58.9051C22.2126 58.953 22.1361 59.0295 22.0882 59.1236C22.0337 59.2305 22.0337 59.3706 22.0337 59.6506V61.0506C22.0337 61.3306 22.0337 61.4706 22.0882 61.5776C22.1361 61.6717 22.2126 61.7482 22.3067 61.7961C22.4137 61.8506 22.5537 61.8506 22.8337 61.8506Z" stroke="white" stroke-width="0.2" stroke-linecap="round" stroke-linejoin="round"/>
</g>
<rect x="16" y="65.7002" width="11.5" height="1.4" rx="0.7" fill="#8FA1B3"/>
<rect x="16" y="67.5" width="12.6" height="1.4" rx="0.7" fill="#8FA1B3"/>
<rect x="16" y="69.2998" width="10.5" height="1.4" rx="0.7" fill="#8FA1B3"/>
<rect x="16" y="71.5" width="1.8" height="0.6" rx="0.3" fill="#B8C2CC"/>
<rect x="16" y="75.5" width="11.1" height="1.4" rx="0.7" fill="#B8C2CC"/>
</g>
<g clip-path="url(#clip4_513_1904)">
<rect x="33" y="55.2002" width="16.6" height="22.9" rx="0.8" fill="#E4EBF2"/>
<rect x="33.6001" y="55.7998" width="15.4" height="9.1" rx="0.6" fill="#8FA1B3"/>
<g clip-path="url(#clip5_513_1904)">
<path d="M40.012 61.8052L41.1114 60.7058C41.1774 60.6398 41.2104 60.6068 41.2485 60.5945C41.2819 60.5836 41.318 60.5836 41.3515 60.5945C41.3895 60.6068 41.4225 60.6398 41.4885 60.7058L42.5806 61.7979M41.6333 60.8506L42.1114 60.3725C42.1774 60.3065 42.2104 60.2735 42.2485 60.2611C42.2819 60.2502 42.318 60.2502 42.3515 60.2611C42.3895 60.2735 42.4225 60.3065 42.4885 60.3725L42.9666 60.8506M40.9666 59.8506C40.9666 60.0347 40.8174 60.1839 40.6333 60.1839C40.4492 60.1839 40.3 60.0347 40.3 59.8506C40.3 59.6665 40.4492 59.5173 40.6333 59.5173C40.8174 59.5173 40.9666 59.6665 40.9666 59.8506ZM40.4333 61.8506H42.1666C42.4467 61.8506 42.5867 61.8506 42.6936 61.7961C42.7877 61.7482 42.8642 61.6717 42.9121 61.5776C42.9666 61.4706 42.9666 61.3306 42.9666 61.0506V59.6506C42.9666 59.3706 42.9666 59.2305 42.9121 59.1236C42.8642 59.0295 42.7877 58.953 42.6936 58.9051C42.5867 58.8506 42.4467 58.8506 42.1666 58.8506H40.4333C40.1533 58.8506 40.0133 58.8506 39.9063 58.9051C39.8122 58.953 39.7357 59.0295 39.6878 59.1236C39.6333 59.2305 39.6333 59.3706 39.6333 59.6506V61.0506C39.6333 61.3306 39.6333 61.4706 39.6878 61.5776C39.7357 61.6717 39.8122 61.7482 39.9063 61.7961C40.0133 61.8506 40.1533 61.8506 40.4333 61.8506Z" stroke="white" stroke-width="0.2" stroke-linecap="round" stroke-linejoin="round"/>
</g>
<rect x="33.6001" y="65.7002" width="13.1" height="1.4" rx="0.7" fill="#8FA1B3"/>
<rect x="33.6001" y="67.5" width="11.1" height="1.4" rx="0.7" fill="#8FA1B3"/>
<rect x="33.6001" y="69.7002" width="1.8" height="0.6" rx="0.3" fill="#B8C2CC"/>
<rect x="33.6001" y="75.5" width="11.1" height="1.4" rx="0.7" fill="#B8C2CC"/>
</g>
<g clip-path="url(#clip6_513_1904)">
<rect x="50.6001" y="55.2002" width="16.6" height="22.9" rx="0.8" fill="#E4EBF2"/>
<rect x="51.2002" y="55.7998" width="15.4" height="9.1" rx="0.6" fill="#8FA1B3"/>
<g clip-path="url(#clip7_513_1904)">
<path d="M57.6126 61.8052L58.712 60.7058C58.778 60.6398 58.811 60.6068 58.8491 60.5945C58.8825 60.5836 58.9186 60.5836 58.9521 60.5945C58.9901 60.6068 59.0231 60.6398 59.0891 60.7058L60.1812 61.7979M59.2339 60.8506L59.712 60.3725C59.778 60.3065 59.811 60.2735 59.8491 60.2611C59.8825 60.2502 59.9186 60.2502 59.9521 60.2611C59.9901 60.2735 60.0231 60.3065 60.0891 60.3725L60.5672 60.8506M58.5672 59.8506C58.5672 60.0347 58.418 60.1839 58.2339 60.1839C58.0498 60.1839 57.9006 60.0347 57.9006 59.8506C57.9006 59.6665 58.0498 59.5173 58.2339 59.5173C58.418 59.5173 58.5672 59.6665 58.5672 59.8506ZM58.0339 61.8506H59.7672C60.0473 61.8506 60.1873 61.8506 60.2942 61.7961C60.3883 61.7482 60.4648 61.6717 60.5127 61.5776C60.5672 61.4706 60.5672 61.3306 60.5672 61.0506V59.6506C60.5672 59.3706 60.5672 59.2305 60.5127 59.1236C60.4648 59.0295 60.3883 58.953 60.2942 58.9051C60.1873 58.8506 60.0473 58.8506 59.7672 58.8506H58.0339C57.7539 58.8506 57.6138 58.8506 57.5069 58.9051C57.4128 58.953 57.3363 59.0295 57.2884 59.1236C57.2339 59.2305 57.2339 59.3706 57.2339 59.6506V61.0506C57.2339 61.3306 57.2339 61.4706 57.2884 61.5776C57.3363 61.6717 57.4128 61.7482 57.5069 61.7961C57.6138 61.8506 57.7539 61.8506 58.0339 61.8506Z" stroke="white" stroke-width="0.2" stroke-linecap="round" stroke-linejoin="round"/>
</g>
<rect x="51.2002" y="65.7002" width="13.6" height="1.4" rx="0.7" fill="#8FA1B3"/>
<rect x="51.2002" y="67.5" width="13.8" height="1.4" rx="0.7" fill="#8FA1B3"/>
<rect x="51.2002" y="69.2998" width="11.1" height="1.4" rx="0.7" fill="#8FA1B3"/>
<rect x="51.2002" y="71.5" width="1.8" height="0.6" rx="0.3" fill="#B8C2CC"/>
<rect x="51.2002" y="75.5" width="11.1" height="1.4" rx="0.7" fill="#B8C2CC"/>
</g>
<rect x="1.6" y="11.6" width="18.8" height="18.8" rx="1.2" fill="#00AEF0"/>
<path fill-rule="evenodd" clip-rule="evenodd" d="M12 20.7998C12 21.3521 11.5523 21.7998 11 21.7998C10.4477 21.7998 10 21.3521 10 20.7998C10 20.2475 10.4477 19.7998 11 19.7998C11.5523 19.7998 12 20.2475 12 20.7998Z" fill="#00AEF0"/>
<path fill-rule="evenodd" clip-rule="evenodd" d="M12.3209 22.0573C12.1882 21.7521 12.1654 21.4935 12.1618 21.3919V20.5561C12.1618 19.9175 11.6416 19.3999 10.9999 19.3999C10.3581 19.3999 9.83789 19.9175 9.83789 20.5561V21.404C9.83294 21.5133 9.80686 21.764 9.67927 22.0573C9.50779 22.4513 9.64971 22.4044 9.77683 22.372C9.90393 22.3397 10.1878 22.2131 10.2765 22.369C10.3651 22.5249 10.4391 22.6602 10.646 22.572C10.853 22.4837 10.9505 22.4543 10.98 22.4543H11.0202C11.0497 22.4543 11.1473 22.4837 11.3542 22.572C11.5612 22.6602 11.6351 22.5249 11.7238 22.369C11.8124 22.2131 12.0963 22.3397 12.2234 22.372C12.3505 22.4044 12.4924 22.4513 12.3209 22.0573ZM10.641 20.0303C10.7662 20.0303 10.8676 20.1901 10.8676 20.3872C10.8676 20.5843 10.7662 20.7441 10.641 20.7441C10.5159 20.7441 10.4144 20.5843 10.4144 20.3872C10.4144 20.1901 10.5159 20.0303 10.641 20.0303ZM10.9997 21.4567C10.7239 21.4567 10.4917 21.1866 10.4218 20.8861C10.5569 21.0709 10.7654 21.1897 10.9997 21.1897C11.2339 21.1897 11.4424 21.0709 11.5776 20.8861C11.5076 21.1866 11.2754 21.4567 10.9997 21.4567ZM11.3584 20.7441C11.2331 20.7441 11.1317 20.5843 11.1317 20.3872C11.1317 20.1901 11.2331 20.0303 11.3584 20.0303C11.4836 20.0303 11.585 20.1901 11.585 20.3872C11.585 20.5843 11.4836 20.7441 11.3584 20.7441Z" fill="white"/>
<rect x="1.6" y="11.6" width="18.8" height="18.8" rx="1.2" stroke="white" stroke-width="0.8"/>
<rect x="8.6" y="32.6" width="6.8" height="6.8" rx="1.2" fill="#00AEF0"/>
<path fill-rule="evenodd" clip-rule="evenodd" d="M13 35.7998C13 36.3521 12.5523 36.7998 12 36.7998C11.4477 36.7998 11 36.3521 11 35.7998C11 35.2475 11.4477 34.7998 12 34.7998C12.5523 34.7998 13 35.2475 13 35.7998Z" fill="#00AEF0"/>
<path fill-rule="evenodd" clip-rule="evenodd" d="M13.3209 37.0573C13.1882 36.7521 13.1654 36.4935 13.1618 36.3919V35.5561C13.1618 34.9175 12.6416 34.3999 11.9999 34.3999C11.3581 34.3999 10.8379 34.9175 10.8379 35.5561V36.404C10.8329 36.5133 10.8069 36.764 10.6793 37.0573C10.5078 37.4513 10.6497 37.4044 10.7768 37.372C10.9039 37.3397 11.1878 37.2131 11.2765 37.369C11.3651 37.5249 11.4391 37.6602 11.646 37.572C11.853 37.4837 11.9505 37.4543 11.98 37.4543H12.0202C12.0497 37.4543 12.1473 37.4837 12.3542 37.572C12.5612 37.6602 12.6351 37.5249 12.7238 37.369C12.8124 37.2131 13.0963 37.3397 13.2234 37.372C13.3505 37.4044 13.4924 37.4513 13.3209 37.0573ZM11.641 35.0303C11.7662 35.0303 11.8676 35.1901 11.8676 35.3872C11.8676 35.5843 11.7662 35.7441 11.641 35.7441C11.5159 35.7441 11.4144 35.5843 11.4144 35.3872C11.4144 35.1901 11.5159 35.0303 11.641 35.0303ZM11.9997 36.4567C11.7239 36.4567 11.4917 36.1866 11.4218 35.8861C11.5569 36.0709 11.7654 36.1897 11.9997 36.1897C12.2339 36.1897 12.4424 36.0709 12.5776 35.8861C12.5076 36.1866 12.2754 36.4567 11.9997 36.4567ZM12.3584 35.7441C12.2331 35.7441 12.1317 35.5843 12.1317 35.3872C12.1317 35.1901 12.2331 35.0303 12.3584 35.0303C12.4836 35.0303 12.585 35.1901 12.585 35.3872C12.585 35.5843 12.4836 35.7441 12.3584 35.7441Z" fill="white"/>
<rect x="8.6" y="32.6" width="6.8" height="6.8" rx="1.2" stroke="white" stroke-width="0.8"/>
<rect x="8.6" y="39.6" width="6.8" height="6.8" rx="1.2" fill="#00AEF0"/>
<path fill-rule="evenodd" clip-rule="evenodd" d="M13 42.7998C13 43.3521 12.5523 43.7998 12 43.7998C11.4477 43.7998 11 43.3521 11 42.7998C11 42.2475 11.4477 41.7998 12 41.7998C12.5523 41.7998 13 42.2475 13 42.7998Z" fill="#00AEF0"/>
<path fill-rule="evenodd" clip-rule="evenodd" d="M13.3209 44.0573C13.1882 43.7521 13.1654 43.4935 13.1618 43.3919V42.5561C13.1618 41.9175 12.6416 41.3999 11.9999 41.3999C11.3581 41.3999 10.8379 41.9175 10.8379 42.5561V43.404C10.8329 43.5133 10.8069 43.764 10.6793 44.0573C10.5078 44.4513 10.6497 44.4044 10.7768 44.372C10.9039 44.3397 11.1878 44.2131 11.2765 44.369C11.3651 44.5249 11.4391 44.6602 11.646 44.572C11.853 44.4837 11.9505 44.4543 11.98 44.4543H12.0202C12.0497 44.4543 12.1473 44.4837 12.3542 44.572C12.5612 44.6602 12.6351 44.5249 12.7238 44.369C12.8124 44.2131 13.0963 44.3397 13.2234 44.372C13.3505 44.4044 13.4924 44.4513 13.3209 44.0573ZM11.641 42.0303C11.7662 42.0303 11.8676 42.1901 11.8676 42.3872C11.8676 42.5843 11.7662 42.7441 11.641 42.7441C11.5159 42.7441 11.4144 42.5843 11.4144 42.3872C11.4144 42.1901 11.5159 42.0303 11.641 42.0303ZM11.9997 43.4567C11.7239 43.4567 11.4917 43.1866 11.4218 42.8861C11.5569 43.0709 11.7654 43.1897 11.9997 43.1897C12.2339 43.1897 12.4424 43.0709 12.5776 42.8861C12.5076 43.1866 12.2754 43.4567 11.9997 43.4567ZM12.3584 42.7441C12.2331 42.7441 12.1317 42.5843 12.1317 42.3872C12.1317 42.1901 12.2331 42.0303 12.3584 42.0303C12.4836 42.0303 12.585 42.1901 12.585 42.3872C12.585 42.5843 12.4836 42.7441 12.3584 42.7441Z" fill="white"/>
<rect x="8.6" y="39.6" width="6.8" height="6.8" rx="1.2" stroke="white" stroke-width="0.8"/>
<rect x="8.6" y="47.6" width="6.8" height="6.8" rx="1.2" fill="#00AEF0"/>
<path fill-rule="evenodd" clip-rule="evenodd" d="M13 50.7998C13 51.3521 12.5523 51.7998 12 51.7998C11.4477 51.7998 11 51.3521 11 50.7998C11 50.2475 11.4477 49.7998 12 49.7998C12.5523 49.7998 13 50.2475 13 50.7998Z" fill="#00AEF0"/>
<path fill-rule="evenodd" clip-rule="evenodd" d="M13.3209 52.0573C13.1882 51.7521 13.1654 51.4935 13.1618 51.3919V50.5561C13.1618 49.9175 12.6416 49.3999 11.9999 49.3999C11.3581 49.3999 10.8379 49.9175 10.8379 50.5561V51.404C10.8329 51.5133 10.8069 51.764 10.6793 52.0573C10.5078 52.4513 10.6497 52.4044 10.7768 52.372C10.9039 52.3397 11.1878 52.2131 11.2765 52.369C11.3651 52.5249 11.4391 52.6602 11.646 52.572C11.853 52.4837 11.9505 52.4543 11.98 52.4543H12.0202C12.0497 52.4543 12.1473 52.4837 12.3542 52.572C12.5612 52.6602 12.6351 52.5249 12.7238 52.369C12.8124 52.2131 13.0963 52.3397 13.2234 52.372C13.3505 52.4044 13.4924 52.4513 13.3209 52.0573ZM11.641 50.0303C11.7662 50.0303 11.8676 50.1901 11.8676 50.3872C11.8676 50.5843 11.7662 50.7441 11.641 50.7441C11.5159 50.7441 11.4144 50.5843 11.4144 50.3872C11.4144 50.1901 11.5159 50.0303 11.641 50.0303ZM11.9997 51.4567C11.7239 51.4567 11.4917 51.1866 11.4218 50.8861C11.5569 51.0709 11.7654 51.1897 11.9997 51.1897C12.2339 51.1897 12.4424 51.0709 12.5776 50.8861C12.5076 51.1866 12.2754 51.4567 11.9997 51.4567ZM12.3584 50.7441C12.2331 50.7441 12.1317 50.5843 12.1317 50.3872C12.1317 50.1901 12.2331 50.0303 12.3584 50.0303C12.4836 50.0303 12.585 50.1901 12.585 50.3872C12.585 50.5843 12.4836 50.7441 12.3584 50.7441Z" fill="white"/>
<rect x="8.6" y="47.6" width="6.8" height="6.8" rx="1.2" stroke="white" stroke-width="0.8"/>
<rect x="8.6" y="54.6" width="6.8" height="6.8" rx="1.2" fill="#00AEF0"/>
<path fill-rule="evenodd" clip-rule="evenodd" d="M13 57.7998C13 58.3521 12.5523 58.7998 12 58.7998C11.4477 58.7998 11 58.3521 11 57.7998C11 57.2475 11.4477 56.7998 12 56.7998C12.5523 56.7998 13 57.2475 13 57.7998Z" fill="#00AEF0"/>
<path fill-rule="evenodd" clip-rule="evenodd" d="M13.3209 59.0573C13.1882 58.7521 13.1654 58.4935 13.1618 58.3919V57.5561C13.1618 56.9175 12.6416 56.3999 11.9999 56.3999C11.3581 56.3999 10.8379 56.9175 10.8379 57.5561V58.404C10.8329 58.5133 10.8069 58.764 10.6793 59.0573C10.5078 59.4513 10.6497 59.4044 10.7768 59.372C10.9039 59.3397 11.1878 59.2131 11.2765 59.369C11.3651 59.5249 11.4391 59.6602 11.646 59.572C11.853 59.4837 11.9505 59.4543 11.98 59.4543H12.0202C12.0497 59.4543 12.1473 59.4837 12.3542 59.572C12.5612 59.6602 12.6351 59.5249 12.7238 59.369C12.8124 59.2131 13.0963 59.3397 13.2234 59.372C13.3505 59.4044 13.4924 59.4513 13.3209 59.0573ZM11.641 57.0303C11.7662 57.0303 11.8676 57.1901 11.8676 57.3872C11.8676 57.5843 11.7662 57.7441 11.641 57.7441C11.5159 57.7441 11.4144 57.5843 11.4144 57.3872C11.4144 57.1901 11.5159 57.0303 11.641 57.0303ZM11.9997 58.4567C11.7239 58.4567 11.4917 58.1866 11.4218 57.8861C11.5569 58.0709 11.7654 58.1897 11.9997 58.1897C12.2339 58.1897 12.4424 58.0709 12.5776 57.8861C12.5076 58.1866 12.2754 58.4567 11.9997 58.4567ZM12.3584 57.7441C12.2331 57.7441 12.1317 57.5843 12.1317 57.3872C12.1317 57.1901 12.2331 57.0303 12.3584 57.0303C12.4836 57.0303 12.585 57.1901 12.585 57.3872C12.585 57.5843 12.4836 57.7441 12.3584 57.7441Z" fill="white"/>
<rect x="8.6" y="54.6" width="6.8" height="6.8" rx="1.2" stroke="white" stroke-width="0.8"/>
</g>
<defs>
<clipPath id="clip0_513_1904">
<rect width="120" height="80" fill="white"/>
</clipPath>
<clipPath id="clip1_513_1904">
<rect width="4" height="4" fill="white" transform="translate(96.1001 18.6499)"/>
</clipPath>
<clipPath id="clip2_513_1904">
<rect x="15.3999" y="55.2002" width="16.6" height="22.9" rx="0.8" fill="white"/>
</clipPath>
<clipPath id="clip3_513_1904">
<rect width="4" height="4" fill="white" transform="translate(21.7002 58.3501)"/>
</clipPath>
<clipPath id="clip4_513_1904">
<rect x="33" y="55.2002" width="16.6" height="22.9" rx="0.8" fill="white"/>
</clipPath>
<clipPath id="clip5_513_1904">
<rect width="4" height="4" fill="white" transform="translate(39.2998 58.3501)"/>
</clipPath>
<clipPath id="clip6_513_1904">
<rect x="50.6001" y="55.2002" width="16.6" height="22.9" rx="0.8" fill="white"/>
</clipPath>
<clipPath id="clip7_513_1904">
<rect width="4" height="4" fill="white" transform="translate(56.9004 58.3501)"/>
</clipPath>
</defs>
</svg>
