<svg width="120" height="80" viewBox="0 0 120 80" fill="none" xmlns="http://www.w3.org/2000/svg">
	<rect width="120" height="80" fill="#74828F" />
	<path d="M104 39V40.61C104 41.2541 104 41.5761 103.891 41.8221C103.795 42.0385 103.642 42.2144 103.454 42.3247C103.24 42.45 102.96 42.45 102.4 42.45H99.6C99.0399 42.45 98.7599 42.45 98.546 42.3247C98.3579 42.2144 98.2049 42.0385 98.109 41.8221C98 41.5761 98 41.2541 98 40.61V39M97.2 62H104.8C105.92 62 106.48 62 106.908 61.7493C107.284 61.5288 107.59 61.1769 107.782 60.7442C108 60.2522 108 59.6081 108 58.32V42.68C108 41.3919 108 40.7478 107.782 40.2558C107.59 39.823 107.284 39.4712 106.908 39.2507C106.48 39 105.92 39 104.8 39H97.2C96.0799 39 95.5198 39 95.092 39.2507C94.7157 39.4712 94.4097 39.823 94.218 40.2558C94 40.7478 94 41.3919 94 42.68V58.32C94 59.6081 94 60.2522 94.218 60.7442C94.4097 61.1769 94.7157 61.5288 95.092 61.7493C95.5198 62 96.0799 62 97.2 62Z" fill="white" />
	<path d="M104 39V40.61C104 41.2541 104 41.5761 103.891 41.8221C103.795 42.0385 103.642 42.2144 103.454 42.3247C103.24 42.45 102.96 42.45 102.4 42.45H99.6C99.0399 42.45 98.7599 42.45 98.546 42.3247C98.3579 42.2144 98.2049 42.0385 98.109 41.8221C98 41.5761 98 41.2541 98 40.61V39M97.2 62H104.8C105.92 62 106.48 62 106.908 61.7493C107.284 61.5288 107.59 61.1769 107.782 60.7442C108 60.2522 108 59.6081 108 58.32V42.68C108 41.3919 108 40.7478 107.782 40.2558C107.59 39.823 107.284 39.4712 106.908 39.2507C106.48 39 105.92 39 104.8 39H97.2C96.0799 39 95.5198 39 95.092 39.2507C94.7157 39.4712 94.4097 39.823 94.218 40.2558C94 40.7478 94 41.3919 94 42.68V58.32C94 59.6081 94 60.2522 94.218 60.7442C94.4097 61.1769 94.7157 61.5288 95.092 61.7493C95.5198 62 96.0799 62 97.2 62Z" stroke="black" stroke-width="2" stroke-linecap="round" stroke-linejoin="round" />
	<path d="M82.8125 34V35.96C82.8125 36.7441 82.8125 37.1361 82.6558 37.4356C82.518 37.699 82.2982 37.9132 82.0276 38.0474C81.7201 38.2 81.3176 38.2 80.5125 38.2H76.4875C75.6824 38.2 75.2799 38.2 74.9724 38.0474C74.7019 37.9132 74.482 37.699 74.3442 37.4356C74.1875 37.1361 74.1875 36.7441 74.1875 35.96V34M71.6 62H85.4C87.0101 62 87.8153 62 88.4303 61.6948C88.9712 61.4264 89.4111 60.998 89.6866 60.4712C90 59.8723 90 59.0881 90 57.52V38.48C90 36.9118 90 36.1278 89.6866 35.5288C89.4111 35.002 88.9712 34.5736 88.4303 34.3052C87.8153 34 87.0101 34 85.4 34H71.6C69.9899 34 69.1848 34 68.5698 34.3052C68.0288 34.5736 67.589 35.002 67.3134 35.5288C67 36.1278 67 36.9119 67 38.48V57.52C67 59.0881 67 59.8723 67.3134 60.4712C67.589 60.998 68.0288 61.4264 68.5698 61.6948C69.1848 62 69.9898 62 71.6 62Z" fill="white" />
	<path d="M82.8125 34V35.96C82.8125 36.7441 82.8125 37.1361 82.6558 37.4356C82.518 37.699 82.2982 37.9132 82.0276 38.0474C81.7201 38.2 81.3176 38.2 80.5125 38.2H76.4875C75.6824 38.2 75.2799 38.2 74.9724 38.0474C74.7019 37.9132 74.482 37.699 74.3442 37.4356C74.1875 37.1361 74.1875 36.7441 74.1875 35.96V34M71.6 62H85.4C87.0101 62 87.8153 62 88.4303 61.6948C88.9712 61.4264 89.4111 60.998 89.6866 60.4712C90 59.8723 90 59.0881 90 57.52V38.48C90 36.9118 90 36.1278 89.6866 35.5288C89.4111 35.002 88.9712 34.5736 88.4303 34.3052C87.8153 34 87.0101 34 85.4 34H71.6C69.9899 34 69.1848 34 68.5698 34.3052C68.0288 34.5736 67.589 35.002 67.3134 35.5288C67 36.1278 67 36.9119 67 38.48V57.52C67 59.0881 67 59.8723 67.3134 60.4712C67.589 60.998 68.0288 61.4264 68.5698 61.6948C69.1848 62 69.9898 62 71.6 62Z" stroke="black" stroke-width="2" stroke-linecap="round" stroke-linejoin="round" />
	<path d="M27.3 62H47.7H27.3ZM37.5 54.7778V62V54.7778ZM24.24 54.7778H50.76C55.0445 54.7778 57.1865 54.7778 58.8231 53.9421C60.2626 53.2071 61.4328 52.0344 62.1661 50.5918C63 48.9516 63 46.805 63 42.5111V31.2667C63 26.9729 63 24.8261 62.1661 23.1861C61.4328 21.7435 60.2626 20.5706 58.8231 19.8356C57.1865 19 55.0445 19 50.76 19H24.24C19.9556 19 17.8134 19 16.177 19.8356C14.7375 20.5706 13.5672 21.7435 12.8338 23.1861C12 24.8261 12 26.9729 12 31.2667V42.5111C12 46.805 12 48.9516 12.8338 50.5918C13.5672 52.0344 14.7375 53.2071 16.177 53.9421C17.8134 54.7778 19.9556 54.7778 24.24 54.7778Z" fill="white" />
	<path d="M27.3 62H47.7M37.5 54.7778V62M24.24 54.7778H50.76C55.0445 54.7778 57.1865 54.7778 58.8231 53.9421C60.2626 53.2071 61.4328 52.0344 62.1661 50.5918C63 48.9516 63 46.805 63 42.5111V31.2667C63 26.9729 63 24.8261 62.1661 23.1861C61.4328 21.7435 60.2626 20.5706 58.8231 19.8356C57.1865 19 55.0445 19 50.76 19H24.24C19.9556 19 17.8134 19 16.177 19.8356C14.7375 20.5706 13.5672 21.7435 12.8338 23.1861C12 24.8261 12 26.9729 12 31.2667V42.5111C12 46.805 12 48.9516 12.8338 50.5918C13.5672 52.0344 14.7375 53.2071 16.177 53.9421C17.8134 54.7778 19.9556 54.7778 24.24 54.7778Z" stroke="black" stroke-width="2" stroke-linecap="round" stroke-linejoin="round" />
</svg>
