<svg width="1200" height="800" viewBox="0 0 1200 800" fill="none" xmlns="http://www.w3.org/2000/svg">
<g clip-path="url(#clip0_513_1898)">
<rect width="1200" height="800" fill="white"/>
<rect width="1200" height="79" transform="translate(0 103)" fill="#E4EBF2"/>
<rect x="110" y="142" width="120" height="20" rx="10" fill="#8FA1B3"/>
<rect x="697" y="149" width="68" height="6" rx="3" fill="#8FA1B3"/>
<rect x="769" y="149" width="46" height="6" rx="3" fill="#8FA1B3"/>
<rect opacity="0.5" x="831" y="146" width="1" height="12" rx="0.5" fill="#8FA1B3"/>
<rect x="848" y="149" width="44" height="6" rx="3" fill="#8FA1B3"/>
<rect x="896" y="149" width="56" height="6" rx="3" fill="#8FA1B3"/>
<rect x="980" y="149" width="44" height="6" rx="3" fill="#8FA1B3"/>
<rect x="968.5" y="134.5" width="67" height="35" rx="7.5" stroke="#B8C2CC"/>
<rect x="1064" y="145" width="14" height="14" rx="7" fill="#8FA1B3"/>
<rect x="1052.5" y="134.5" width="37" height="35" rx="7.5" stroke="#B8C2CC"/>
<rect x="110" y="114" width="68" height="6" rx="3" fill="#8FA1B3"/>
<rect x="182" y="114" width="46" height="6" rx="3" fill="#8FA1B3"/>
<rect x="232" y="114" width="33" height="6" rx="3" fill="#8FA1B3"/>
<rect opacity="0.5" x="281" y="111" width="1" height="12" rx="0.5" fill="#8FA1B3"/>
<rect x="298" y="114" width="36" height="6" rx="3" fill="#8FA1B3"/>
<rect x="338" y="114" width="68" height="6" rx="3" fill="#8FA1B3"/>
<rect x="410" y="114" width="33" height="6" rx="3" fill="#8FA1B3"/>
<rect opacity="0.5" x="459" y="111" width="1" height="12" rx="0.5" fill="#8FA1B3"/>
<rect x="476" y="114" width="33" height="6" rx="3" fill="#8FA1B3"/>
<rect x="513" y="114" width="68" height="6" rx="3" fill="#8FA1B3"/>
<rect opacity="0.5" x="597" y="111" width="1" height="12" rx="0.5" fill="#8FA1B3"/>
<rect x="614" y="114" width="68" height="6" rx="3" fill="#8FA1B3"/>
<rect x="686" y="114" width="90" height="6" rx="3" fill="#8FA1B3"/>
<rect x="780" y="114" width="46" height="6" rx="3" fill="#8FA1B3"/>
<rect x="830" y="114" width="33" height="6" rx="3" fill="#8FA1B3"/>
<rect x="110" y="194" width="980" height="111" rx="6" fill="#8FA1B3"/>
<path d="M587.12 264.046L598.114 253.052C598.774 252.392 599.105 252.062 599.485 251.939C599.82 251.83 600.18 251.83 600.515 251.939C600.896 252.062 601.226 252.392 601.886 253.052L612.807 263.973M603.333 254.5L608.114 249.719C608.774 249.059 609.105 248.729 609.485 248.605C609.82 248.496 610.18 248.496 610.515 248.605C610.896 248.729 611.226 249.059 611.886 249.719L616.667 254.5M596.667 244.5C596.667 246.341 595.174 247.833 593.333 247.833C591.493 247.833 590 246.341 590 244.5C590 242.659 591.493 241.167 593.333 241.167C595.174 241.167 596.667 242.659 596.667 244.5ZM591.333 264.5H608.667C611.467 264.5 612.867 264.5 613.937 263.955C614.878 263.476 615.642 262.711 616.122 261.77C616.667 260.7 616.667 259.3 616.667 256.5V242.5C616.667 239.7 616.667 238.3 616.122 237.23C615.642 236.289 614.878 235.524 613.937 235.045C612.867 234.5 611.467 234.5 608.667 234.5H591.333C588.533 234.5 587.133 234.5 586.064 235.045C585.123 235.524 584.358 236.289 583.878 237.23C583.333 238.3 583.333 239.7 583.333 242.5V256.5C583.333 259.3 583.333 260.7 583.878 261.77C584.358 262.711 585.123 263.476 586.064 263.955C587.133 264.5 588.533 264.5 591.333 264.5Z" stroke="white" stroke-width="2" stroke-linecap="round" stroke-linejoin="round"/>
<rect x="110" y="317" width="181" height="197" rx="8" fill="#E4EBF2"/>
<rect x="167" y="345" width="66" height="6" rx="3" fill="#8FA1B3"/>
<rect x="126.5" y="333.5" width="147" height="29" rx="7.5" stroke="#B8C2CC"/>
<rect x="150" y="379" width="124" height="6" rx="3" fill="#8FA1B3"/>
<rect x="150" y="389" width="92" height="6" rx="3" fill="#8FA1B3"/>
<rect x="126" y="379" width="16" height="16" rx="3" fill="#8FA1B3"/>
<rect x="126" y="407" width="149" height="1" fill="#E4EBF2"/>
<rect x="150" y="424" width="124" height="6" rx="3" fill="#8FA1B3"/>
<rect x="150" y="434" width="92" height="6" rx="3" fill="#8FA1B3"/>
<rect x="126" y="424" width="16" height="16" rx="3" fill="#8FA1B3"/>
<rect x="126" y="452" width="149" height="1" fill="#E4EBF2"/>
<rect x="150" y="469" width="124" height="6" rx="3" fill="#8FA1B3"/>
<rect x="150" y="479" width="92" height="6" rx="3" fill="#8FA1B3"/>
<rect x="126" y="469" width="16" height="16" rx="3" fill="#8FA1B3"/>
<rect x="110" y="526" width="180" height="349" rx="8" fill="#E4EBF2"/>
<rect x="150" y="595" width="124" height="6" rx="3" fill="#8FA1B3"/>
<rect x="150" y="605" width="92" height="6" rx="3" fill="#8FA1B3"/>
<rect x="126" y="595" width="16" height="16" rx="3" fill="#8FA1B3"/>
<rect x="126" y="623" width="149" height="1" fill="#E4EBF2"/>
<rect x="150" y="640" width="124" height="6" rx="3" fill="#8FA1B3"/>
<rect x="150" y="650" width="92" height="6" rx="3" fill="#8FA1B3"/>
<rect x="126" y="640" width="16" height="16" rx="3" fill="#8FA1B3"/>
<rect x="126" y="668" width="149" height="1" fill="#E4EBF2"/>
<rect x="150" y="685" width="124" height="6" rx="3" fill="#8FA1B3"/>
<rect x="150" y="695" width="92" height="6" rx="3" fill="#8FA1B3"/>
<rect x="126" y="685" width="16" height="16" rx="3" fill="#8FA1B3"/>
<rect x="126" y="713" width="149" height="1" fill="#E4EBF2"/>
<rect x="150" y="730" width="124" height="6" rx="3" fill="#8FA1B3"/>
<rect x="150" y="740" width="92" height="6" rx="3" fill="#8FA1B3"/>
<rect x="126" y="730" width="16" height="16" rx="3" fill="#8FA1B3"/>
<rect x="126" y="758" width="149" height="1" fill="#E4EBF2"/>
<rect x="150" y="775" width="124" height="6" rx="3" fill="#8FA1B3"/>
<rect x="150" y="785" width="92" height="6" rx="3" fill="#8FA1B3"/>
<rect x="126" y="775" width="16" height="16" rx="3" fill="#8FA1B3"/>
<rect x="126" y="550" width="112" height="12" rx="6" fill="#8FA1B3"/>
<rect x="126" y="578" width="149" height="1" fill="#E4EBF2"/>
<rect x="860" y="317" width="230" height="235" rx="8" fill="#E4EBF2"/>
<rect x="876" y="333" width="112" height="12" rx="6" fill="#8FA1B3"/>
<rect x="876" y="361" width="198" height="1" fill="#E4EBF2"/>
<circle cx="879" cy="381" r="3" fill="#8FA1B3"/>
<rect x="890" y="378" width="177" height="6" rx="3" fill="#8FA1B3"/>
<rect x="890" y="388" width="137" height="6" rx="3" fill="#8FA1B3"/>
<circle cx="879" cy="413" r="3" fill="#8FA1B3"/>
<rect x="890" y="410" width="175" height="6" rx="3" fill="#8FA1B3"/>
<circle cx="879" cy="435" r="3" fill="#8FA1B3"/>
<rect x="890" y="432" width="158" height="6" rx="3" fill="#8FA1B3"/>
<circle cx="879" cy="457" r="3" fill="#8FA1B3"/>
<rect x="890" y="454" width="184" height="6" rx="3" fill="#8FA1B3"/>
<rect x="890" y="464" width="137" height="6" rx="3" fill="#8FA1B3"/>
<circle cx="879" cy="489" r="3" fill="#8FA1B3"/>
<rect x="890" y="486" width="95" height="6" rx="3" fill="#8FA1B3"/>
<circle cx="879" cy="511" r="3" fill="#8FA1B3"/>
<rect x="890" y="508" width="132" height="6" rx="3" fill="#8FA1B3"/>
<circle cx="879" cy="533" r="3" fill="#8FA1B3"/>
<rect x="890" y="530" width="130" height="6" rx="3" fill="#8FA1B3"/>
<rect x="860" y="564" width="230" height="178" rx="8" fill="#E4EBF2"/>
<rect x="868" y="576" width="63" height="12" rx="6" fill="#8FA1B3"/>
<rect x="868" y="596" width="214" height="134" rx="6" fill="#8FA1B3"/>
<path d="M962.12 677.546L973.114 666.552C973.774 665.892 974.105 665.562 974.485 665.439C974.82 665.33 975.18 665.33 975.515 665.439C975.896 665.562 976.226 665.892 976.886 666.552L987.807 677.473M978.333 668L983.114 663.219C983.774 662.559 984.105 662.229 984.485 662.105C984.82 661.996 985.18 661.996 985.515 662.105C985.896 662.229 986.226 662.559 986.886 663.219L991.667 668M971.667 658C971.667 659.841 970.174 661.333 968.333 661.333C966.493 661.333 965 659.841 965 658C965 656.159 966.493 654.667 968.333 654.667C970.174 654.667 971.667 656.159 971.667 658ZM966.333 678H983.667C986.467 678 987.867 678 988.937 677.455C989.878 676.976 990.642 676.211 991.122 675.27C991.667 674.2 991.667 672.8 991.667 670V656C991.667 653.2 991.667 651.8 991.122 650.73C990.642 649.789 989.878 649.024 988.937 648.545C987.867 648 986.467 648 983.667 648H966.333C963.533 648 962.133 648 961.064 648.545C960.123 649.024 959.358 649.789 958.878 650.73C958.333 651.8 958.333 653.2 958.333 656V670C958.333 672.8 958.333 674.2 958.878 675.27C959.358 676.211 960.123 676.976 961.064 677.455C962.133 678 963.533 678 966.333 678Z" stroke="white" stroke-width="2" stroke-linecap="round" stroke-linejoin="round"/>
<rect x="860" y="754" width="230" height="178" rx="8" fill="#E4EBF2"/>
<rect x="868" y="766" width="63" height="12" rx="6" fill="#8FA1B3"/>
<rect x="868" y="786" width="214" height="134" rx="6" fill="#8FA1B3"/>
<rect x="306" y="317" width="538" height="306" rx="8" fill="#E4EBF2"/>
<rect x="322" y="333" width="506" height="186" rx="6" fill="#8FA1B3"/>
<path d="M562.12 440.546L573.114 429.552C573.774 428.892 574.105 428.562 574.485 428.439C574.82 428.33 575.18 428.33 575.515 428.439C575.896 428.562 576.226 428.892 576.886 429.552L587.807 440.473M578.333 431L583.114 426.219C583.774 425.559 584.105 425.229 584.485 425.105C584.82 424.996 585.18 424.996 585.515 425.105C585.896 425.229 586.226 425.559 586.886 426.219L591.667 431M571.667 421C571.667 422.841 570.174 424.333 568.333 424.333C566.493 424.333 565 422.841 565 421C565 419.159 566.493 417.667 568.333 417.667C570.174 417.667 571.667 419.159 571.667 421ZM566.333 441H583.667C586.467 441 587.867 441 588.937 440.455C589.878 439.976 590.642 439.211 591.122 438.27C591.667 437.2 591.667 435.8 591.667 433V419C591.667 416.2 591.667 414.8 591.122 413.73C590.642 412.789 589.878 412.024 588.937 411.545C587.867 411 586.467 411 583.667 411H566.333C563.533 411 562.133 411 561.064 411.545C560.123 412.024 559.358 412.789 558.878 413.73C558.333 414.8 558.333 416.2 558.333 419V433C558.333 435.8 558.333 437.2 558.878 438.27C559.358 439.211 560.123 439.976 561.064 440.455C562.133 441 563.533 441 566.333 441Z" stroke="white" stroke-width="2" stroke-linecap="round" stroke-linejoin="round"/>
<rect x="322" y="543" width="229" height="12" rx="6" fill="#8FA1B3"/>
<rect x="322" y="567" width="418" height="8" rx="3" fill="#8FA1B3"/>
<rect x="322" y="581" width="418" height="8" rx="3" fill="#8FA1B3"/>
<rect x="322" y="601" width="29" height="6" rx="3" fill="#E4EBF2"/>
<rect x="306" y="635" width="538" height="106" rx="8" fill="#E4EBF2"/>
<rect x="314" y="643" width="120" height="90" rx="6" fill="#8FA1B3"/>
<path d="M361.12 702.546L372.114 691.552C372.774 690.892 373.105 690.562 373.485 690.439C373.82 690.33 374.18 690.33 374.515 690.439C374.896 690.562 375.226 690.892 375.886 691.552L386.807 702.473M377.333 693L382.114 688.219C382.774 687.559 383.105 687.229 383.485 687.105C383.82 686.996 384.18 686.996 384.515 687.105C384.896 687.229 385.226 687.559 385.886 688.219L390.667 693M370.667 683C370.667 684.841 369.174 686.333 367.333 686.333C365.493 686.333 364 684.841 364 683C364 681.159 365.493 679.667 367.333 679.667C369.174 679.667 370.667 681.159 370.667 683ZM365.333 703H382.667C385.467 703 386.867 703 387.937 702.455C388.878 701.976 389.642 701.211 390.122 700.27C390.667 699.2 390.667 697.8 390.667 695V681C390.667 678.2 390.667 676.8 390.122 675.73C389.642 674.789 388.878 674.024 387.937 673.545C386.867 673 385.467 673 382.667 673H365.333C362.533 673 361.133 673 360.064 673.545C359.123 674.024 358.358 674.789 357.878 675.73C357.333 676.8 357.333 678.2 357.333 681V695C357.333 697.8 357.333 699.2 357.878 700.27C358.358 701.211 359.123 701.976 360.064 702.455C361.133 703 362.533 703 365.333 703Z" stroke="white" stroke-width="2" stroke-linecap="round" stroke-linejoin="round"/>
<rect x="450" y="646" width="229" height="12" rx="6" fill="#8FA1B3"/>
<rect x="450" y="674" width="371" height="6" rx="3" fill="#8FA1B3"/>
<rect x="450" y="688" width="379" height="6" rx="3" fill="#8FA1B3"/>
<rect x="450" y="702" width="304" height="6" rx="3" fill="#8FA1B3"/>
<rect x="450" y="724" width="29" height="6" rx="3" fill="#E4EBF2"/>
<rect x="306" y="753" width="128.5" height="160" rx="8" fill="#E4EBF2"/>
<rect x="312" y="759" width="116.5" height="80" rx="6" fill="#8FA1B3"/>
<path d="M357.37 813.546L368.364 802.552C369.024 801.892 369.355 801.562 369.735 801.439C370.07 801.33 370.43 801.33 370.765 801.439C371.146 801.562 371.476 801.892 372.136 802.552L383.057 813.473M373.583 804L378.364 799.219C379.024 798.559 379.355 798.229 379.735 798.105C380.07 797.996 380.43 797.996 380.765 798.105C381.146 798.229 381.476 798.559 382.136 799.219L386.917 804M366.917 794C366.917 795.841 365.424 797.333 363.583 797.333C361.743 797.333 360.25 795.841 360.25 794C360.25 792.159 361.743 790.667 363.583 790.667C365.424 790.667 366.917 792.159 366.917 794ZM361.583 814H378.917C381.717 814 383.117 814 384.187 813.455C385.128 812.976 385.892 812.211 386.372 811.27C386.917 810.2 386.917 808.8 386.917 806V792C386.917 789.2 386.917 787.8 386.372 786.73C385.892 785.789 385.128 785.024 384.187 784.545C383.117 784 381.717 784 378.917 784H361.583C358.783 784 357.383 784 356.314 784.545C355.373 785.024 354.608 785.789 354.128 786.73C353.583 787.8 353.583 789.2 353.583 792V806C353.583 808.8 353.583 810.2 354.128 811.27C354.608 812.211 355.373 812.976 356.314 813.455C357.383 814 358.783 814 361.583 814Z" stroke="white" stroke-width="2" stroke-linecap="round" stroke-linejoin="round"/>
<rect x="442.5" y="753" width="128.5" height="160" rx="8" fill="#E4EBF2"/>
<rect x="448.5" y="759" width="116.5" height="80" rx="6" fill="#8FA1B3"/>
<path d="M493.87 813.546L504.864 802.552C505.524 801.892 505.855 801.562 506.235 801.439C506.57 801.33 506.93 801.33 507.265 801.439C507.646 801.562 507.976 801.892 508.636 802.552L519.557 813.473M510.083 804L514.864 799.219C515.524 798.559 515.855 798.229 516.235 798.105C516.57 797.996 516.93 797.996 517.265 798.105C517.646 798.229 517.976 798.559 518.636 799.219L523.417 804M503.417 794C503.417 795.841 501.924 797.333 500.083 797.333C498.243 797.333 496.75 795.841 496.75 794C496.75 792.159 498.243 790.667 500.083 790.667C501.924 790.667 503.417 792.159 503.417 794ZM498.083 814H515.417C518.217 814 519.617 814 520.687 813.455C521.628 812.976 522.392 812.211 522.872 811.27C523.417 810.2 523.417 808.8 523.417 806V792C523.417 789.2 523.417 787.8 522.872 786.73C522.392 785.789 521.628 785.024 520.687 784.545C519.617 784 518.217 784 515.417 784H498.083C495.283 784 493.883 784 492.814 784.545C491.873 785.024 491.108 785.789 490.628 786.73C490.083 787.8 490.083 789.2 490.083 792V806C490.083 808.8 490.083 810.2 490.628 811.27C491.108 812.211 491.873 812.976 492.814 813.455C493.883 814 495.283 814 498.083 814Z" stroke="white" stroke-width="2" stroke-linecap="round" stroke-linejoin="round"/>
<rect x="579" y="753" width="128.5" height="160" rx="8" fill="#E4EBF2"/>
<rect x="585" y="759" width="116.5" height="80" rx="6" fill="#8FA1B3"/>
<path d="M630.37 813.546L641.364 802.552C642.024 801.892 642.355 801.562 642.735 801.439C643.07 801.33 643.43 801.33 643.765 801.439C644.146 801.562 644.476 801.892 645.136 802.552L656.057 813.473M646.583 804L651.364 799.219C652.024 798.559 652.355 798.229 652.735 798.105C653.07 797.996 653.43 797.996 653.765 798.105C654.146 798.229 654.476 798.559 655.136 799.219L659.917 804M639.917 794C639.917 795.841 638.424 797.333 636.583 797.333C634.743 797.333 633.25 795.841 633.25 794C633.25 792.159 634.743 790.667 636.583 790.667C638.424 790.667 639.917 792.159 639.917 794ZM634.583 814H651.917C654.717 814 656.117 814 657.187 813.455C658.128 812.976 658.892 812.211 659.372 811.27C659.917 810.2 659.917 808.8 659.917 806V792C659.917 789.2 659.917 787.8 659.372 786.73C658.892 785.789 658.128 785.024 657.187 784.545C656.117 784 654.717 784 651.917 784H634.583C631.783 784 630.383 784 629.314 784.545C628.373 785.024 627.608 785.789 627.128 786.73C626.583 787.8 626.583 789.2 626.583 792V806C626.583 808.8 626.583 810.2 627.128 811.27C627.608 812.211 628.373 812.976 629.314 813.455C630.383 814 631.783 814 634.583 814Z" stroke="white" stroke-width="2" stroke-linecap="round" stroke-linejoin="round"/>
<rect x="715.5" y="753" width="128.5" height="160" rx="8" fill="#E4EBF2"/>
<rect x="721.5" y="759" width="116.5" height="80" rx="6" fill="#8FA1B3"/>
<path d="M766.87 813.546L777.864 802.552C778.524 801.892 778.855 801.562 779.235 801.439C779.57 801.33 779.93 801.33 780.265 801.439C780.646 801.562 780.976 801.892 781.636 802.552L792.557 813.473M783.083 804L787.864 799.219C788.524 798.559 788.855 798.229 789.235 798.105C789.57 797.996 789.93 797.996 790.265 798.105C790.646 798.229 790.976 798.559 791.636 799.219L796.417 804M776.417 794C776.417 795.841 774.924 797.333 773.083 797.333C771.243 797.333 769.75 795.841 769.75 794C769.75 792.159 771.243 790.667 773.083 790.667C774.924 790.667 776.417 792.159 776.417 794ZM771.083 814H788.417C791.217 814 792.617 814 793.687 813.455C794.628 812.976 795.392 812.211 795.872 811.27C796.417 810.2 796.417 808.8 796.417 806V792C796.417 789.2 796.417 787.8 795.872 786.73C795.392 785.789 794.628 785.024 793.687 784.545C792.617 784 791.217 784 788.417 784H771.083C768.283 784 766.883 784 765.814 784.545C764.873 785.024 764.108 785.789 763.628 786.73C763.083 787.8 763.083 789.2 763.083 792V806C763.083 808.8 763.083 810.2 763.628 811.27C764.108 812.211 764.873 812.976 765.814 813.455C766.883 814 768.283 814 771.083 814Z" stroke="white" stroke-width="2" stroke-linecap="round" stroke-linejoin="round"/>
<rect width="1200" height="103" fill="#8FA1B2"/>
<rect x="32" y="24" width="71" height="28" rx="14" fill="#8FA1B3"/>
<rect x="799" y="26" width="1" height="23" fill="#E4EBF2"/>
<rect x="327" y="21" width="545" height="34" rx="17" stroke="#B8C2CC" stroke-width="2"/>
<rect x="341" y="35" width="147" height="6" rx="3" fill="#E4EBF2"/>
<rect x="774" y="31" width="12" height="12" rx="3" fill="#E4EBF2"/>
<rect x="813" y="31" width="12" height="12" rx="3" fill="#E4EBF2"/>
<rect x="843" y="31" width="12" height="12" rx="3" fill="#E4EBF2"/>
<rect opacity="0.5" width="1200" height="800" fill="#04192D"/>
<path fill-rule="evenodd" clip-rule="evenodd" d="M303.5 36.5C303.5 40.6421 300.142 44 296 44C291.858 44 288.5 40.6421 288.5 36.5C288.5 32.3579 291.858 29 296 29C300.142 29 303.5 32.3579 303.5 36.5Z" fill="#495D6F"/>
<path fill-rule="evenodd" clip-rule="evenodd" d="M305.906 45.9302C304.911 43.6415 304.74 41.7022 304.713 40.9403V34.6712C304.713 29.8821 300.811 26 295.998 26C291.185 26 287.283 29.8821 287.283 34.6712V41.0309C287.246 41.8507 287.051 43.7306 286.094 45.9302C284.808 48.8858 285.872 48.5335 286.825 48.2904C287.779 48.0482 289.908 47.0989 290.573 48.2683C291.238 49.4372 291.792 50.4523 293.344 49.7904C294.896 49.1288 295.628 48.9083 295.849 48.9083H296.151C296.372 48.9083 297.104 49.1288 298.656 49.7904C300.208 50.4523 300.762 49.4372 301.428 48.2683C302.092 47.0989 304.221 48.0482 305.175 48.2904C306.128 48.5335 307.192 48.8858 305.906 45.9302ZM293.309 30.7282C294.247 30.7282 295.008 31.9262 295.008 33.4046C295.008 34.8828 294.247 36.0813 293.309 36.0813C292.37 36.0813 291.609 34.8828 291.609 33.4046C291.609 31.9262 292.37 30.7282 293.309 30.7282ZM295.998 41.4259C293.93 41.4259 292.189 39.4004 291.664 37.1466C292.678 38.5328 294.242 39.4237 295.998 39.4237C297.755 39.4237 299.319 38.5328 300.333 37.1466C299.808 39.4004 298.066 41.4259 295.998 41.4259ZM298.688 36.0813C297.749 36.0813 296.988 34.8828 296.988 33.4046C296.988 31.9262 297.749 30.7282 298.688 30.7282C299.628 30.7282 300.388 31.9262 300.388 33.4046C300.388 34.8828 299.628 36.0813 298.688 36.0813Z" fill="white"/>
<rect x="278.5" y="20.5" width="35" height="35" rx="7.5" stroke="white"/>
<rect x="298" y="45" width="114" height="109" rx="8" fill="white"/>
<path d="M313.19 126V119.021L331.706 100.87C333.477 99.0816 334.952 97.4931 336.133 96.1042C337.313 94.7153 338.199 93.3698 338.789 92.0677C339.379 90.7656 339.674 89.3767 339.674 87.901C339.674 86.217 339.293 84.776 338.529 83.5781C337.765 82.3628 336.714 81.4253 335.378 80.7656C334.041 80.1059 332.522 79.776 330.82 79.776C329.067 79.776 327.53 80.1406 326.211 80.8698C324.891 81.5816 323.867 82.5972 323.138 83.9167C322.426 85.2361 322.07 86.8073 322.07 88.6302H312.878C312.878 85.2448 313.65 82.3021 315.195 79.8021C316.74 77.3021 318.867 75.3663 321.576 73.9948C324.301 72.6233 327.426 71.9375 330.951 71.9375C334.527 71.9375 337.669 72.6059 340.378 73.9427C343.086 75.2795 345.187 77.1111 346.68 79.4375C348.19 81.7639 348.945 84.4201 348.945 87.4062C348.945 89.4028 348.563 91.3646 347.799 93.2917C347.036 95.2187 345.69 97.3542 343.763 99.6979C341.853 102.042 339.171 104.88 335.716 108.214L326.523 117.562V117.927H349.753V126H313.19ZM378.268 126.729C375.716 126.712 373.225 126.269 370.794 125.401C368.364 124.516 366.176 123.083 364.232 121.104C362.287 119.108 360.742 116.46 359.596 113.161C358.451 109.845 357.886 105.74 357.904 100.844C357.904 96.2778 358.39 92.2066 359.362 88.6302C360.334 85.0538 361.732 82.033 363.555 79.5677C365.378 77.0851 367.574 75.1927 370.143 73.8906C372.73 72.5885 375.621 71.9375 378.815 71.9375C382.166 71.9375 385.135 72.5972 387.721 73.9167C390.326 75.2361 392.426 77.0417 394.023 79.3333C395.621 81.6076 396.61 84.1771 396.992 87.0417H387.487C387.001 84.9931 386.003 83.3611 384.492 82.1458C382.999 80.9132 381.107 80.2969 378.815 80.2969C375.117 80.2969 372.27 81.9028 370.273 85.1146C368.294 88.3264 367.296 92.7361 367.279 98.3437H367.643C368.494 96.816 369.596 95.5052 370.951 94.4115C372.305 93.3177 373.832 92.4757 375.534 91.8854C377.253 91.2778 379.067 90.974 380.977 90.974C384.102 90.974 386.905 91.7205 389.388 93.2135C391.888 94.7066 393.867 96.7639 395.326 99.3854C396.784 101.99 397.504 104.976 397.487 108.344C397.504 111.851 396.706 115.002 395.091 117.797C393.477 120.575 391.228 122.762 388.346 124.359C385.464 125.957 382.105 126.747 378.268 126.729ZM378.216 118.917C380.109 118.917 381.801 118.457 383.294 117.536C384.787 116.616 385.968 115.375 386.836 113.812C387.704 112.25 388.129 110.497 388.112 108.552C388.129 106.642 387.713 104.915 386.862 103.37C386.029 101.825 384.874 100.601 383.398 99.6979C381.923 98.7951 380.239 98.3437 378.346 98.3437C376.94 98.3437 375.629 98.6128 374.414 99.151C373.199 99.6892 372.14 100.436 371.237 101.391C370.334 102.328 369.622 103.422 369.102 104.672C368.598 105.905 368.338 107.224 368.32 108.63C368.338 110.488 368.772 112.198 369.622 113.76C370.473 115.323 371.645 116.573 373.138 117.51C374.631 118.448 376.324 118.917 378.216 118.917Z" fill="#202C44"/>
<rect x="424" y="47" width="302" height="133" rx="12" fill="#00AEF0"/>
<path fill-rule="evenodd" clip-rule="evenodd" d="M585 85.5C585 91.0228 580.523 95.5 575 95.5C569.477 95.5 565 91.0228 565 85.5C565 79.9772 569.477 75.5 575 75.5C580.523 75.5 585 79.9772 585 85.5Z" fill="#00AEF0"/>
<path fill-rule="evenodd" clip-rule="evenodd" d="M588.208 98.0736C586.881 95.022 586.653 92.4363 586.617 91.4204V83.0616C586.617 76.6761 581.415 71.5 574.998 71.5C568.58 71.5 563.378 76.6761 563.378 83.0616V91.5412C563.328 92.6342 563.068 95.1408 561.792 98.0736C560.077 102.014 561.496 101.545 562.767 101.221C564.038 100.898 566.877 99.6319 567.764 101.191C568.65 102.75 569.39 104.103 571.459 103.221C573.529 102.338 574.504 102.044 574.799 102.044H575.201C575.496 102.044 576.472 102.338 578.541 103.221C580.611 104.103 581.35 102.75 582.237 101.191C583.123 99.6319 585.962 100.898 587.233 101.221C588.504 101.545 589.923 102.014 588.208 98.0736ZM571.411 77.8043C572.663 77.8043 573.678 79.4017 573.678 81.3728C573.678 83.3438 572.663 84.9417 571.411 84.9417C570.16 84.9417 569.145 83.3438 569.145 81.3728C569.145 79.4017 570.16 77.8043 571.411 77.8043ZM574.998 92.0678C572.24 92.0678 569.919 89.3671 569.219 86.3621C570.57 88.2104 572.656 89.3982 574.998 89.3982C577.34 89.3982 579.425 88.2104 580.777 86.3621C580.077 89.3671 577.755 92.0678 574.998 92.0678ZM578.584 84.9417C577.332 84.9417 576.318 83.3438 576.318 81.3728C576.318 79.4017 577.332 77.8043 578.584 77.8043C579.837 77.8043 580.851 79.4017 580.851 81.3728C580.851 83.3438 579.837 84.9417 578.584 84.9417Z" fill="white"/>
<path d="M468.904 120.545C468.78 120.157 468.614 119.81 468.405 119.503C468.201 119.192 467.956 118.928 467.67 118.71C467.385 118.489 467.059 118.32 466.692 118.205C466.33 118.09 465.932 118.033 465.497 118.033C464.76 118.033 464.095 118.222 463.503 118.602C462.91 118.981 462.442 119.537 462.097 120.27C461.756 120.999 461.585 121.891 461.585 122.948C461.585 124.009 461.758 124.906 462.103 125.639C462.448 126.372 462.921 126.928 463.522 127.308C464.123 127.687 464.807 127.876 465.574 127.876C466.285 127.876 466.905 127.732 467.434 127.442C467.967 127.152 468.378 126.743 468.668 126.214C468.962 125.682 469.109 125.055 469.109 124.335L469.62 124.431H465.874V122.801H471.02V124.29C471.02 125.39 470.785 126.344 470.317 127.154C469.852 127.96 469.209 128.582 468.386 129.021C467.568 129.46 466.631 129.679 465.574 129.679C464.389 129.679 463.349 129.406 462.454 128.861C461.564 128.315 460.869 127.542 460.371 126.54C459.872 125.535 459.623 124.342 459.623 122.961C459.623 121.917 459.768 120.979 460.057 120.148C460.347 119.317 460.754 118.612 461.278 118.033C461.807 117.449 462.427 117.004 463.138 116.697C463.854 116.386 464.636 116.23 465.484 116.23C466.192 116.23 466.85 116.335 467.459 116.543C468.073 116.752 468.619 117.048 469.096 117.432C469.577 117.815 469.976 118.271 470.291 118.8C470.606 119.324 470.82 119.906 470.93 120.545H468.904ZM475.285 123.67V129.5H473.374V116.409H475.259V121.28H475.381C475.611 120.751 475.962 120.332 476.435 120.021C476.908 119.71 477.526 119.554 478.289 119.554C478.962 119.554 479.551 119.692 480.053 119.969C480.56 120.246 480.953 120.66 481.229 121.21C481.511 121.755 481.651 122.437 481.651 123.255V129.5H479.74V123.485C479.74 122.765 479.555 122.207 479.184 121.81C478.813 121.41 478.298 121.21 477.637 121.21C477.185 121.21 476.781 121.305 476.423 121.497C476.069 121.689 475.79 121.97 475.585 122.341C475.385 122.707 475.285 123.151 475.285 123.67ZM488.337 129.698C487.417 129.698 486.614 129.487 485.928 129.065C485.242 128.643 484.709 128.053 484.33 127.295C483.95 126.536 483.761 125.65 483.761 124.636C483.761 123.617 483.95 122.727 484.33 121.964C484.709 121.201 485.242 120.609 485.928 120.187C486.614 119.765 487.417 119.554 488.337 119.554C489.258 119.554 490.061 119.765 490.747 120.187C491.433 120.609 491.966 121.201 492.345 121.964C492.725 122.727 492.914 123.617 492.914 124.636C492.914 125.65 492.725 126.536 492.345 127.295C491.966 128.053 491.433 128.643 490.747 129.065C490.061 129.487 489.258 129.698 488.337 129.698ZM488.344 128.094C488.94 128.094 489.435 127.936 489.827 127.621C490.219 127.305 490.509 126.886 490.696 126.362C490.888 125.837 490.984 125.26 490.984 124.629C490.984 124.003 490.888 123.428 490.696 122.903C490.509 122.375 490.219 121.951 489.827 121.631C489.435 121.312 488.94 121.152 488.344 121.152C487.743 121.152 487.244 121.312 486.848 121.631C486.456 121.951 486.164 122.375 485.972 122.903C485.785 123.428 485.691 124.003 485.691 124.629C485.691 125.26 485.785 125.837 485.972 126.362C486.164 126.886 486.456 127.305 486.848 127.621C487.244 127.936 487.743 128.094 488.344 128.094ZM502.405 122.079L500.672 122.386C500.6 122.164 500.485 121.953 500.327 121.753C500.174 121.553 499.965 121.388 499.701 121.261C499.437 121.133 499.106 121.069 498.71 121.069C498.169 121.069 497.717 121.19 497.355 121.433C496.993 121.672 496.812 121.981 496.812 122.36C496.812 122.688 496.933 122.952 497.176 123.153C497.419 123.353 497.811 123.517 498.352 123.645L499.912 124.003C500.815 124.212 501.489 124.533 501.932 124.968C502.375 125.403 502.597 125.967 502.597 126.662C502.597 127.25 502.426 127.774 502.085 128.234C501.748 128.69 501.278 129.048 500.672 129.308C500.072 129.568 499.375 129.698 498.582 129.698C497.483 129.698 496.586 129.464 495.891 128.995C495.197 128.522 494.771 127.851 494.613 126.982L496.46 126.7C496.575 127.182 496.812 127.546 497.17 127.793C497.528 128.036 497.994 128.158 498.57 128.158C499.196 128.158 499.697 128.028 500.072 127.768C500.447 127.504 500.634 127.182 500.634 126.803C500.634 126.496 500.519 126.238 500.289 126.029C500.063 125.82 499.716 125.663 499.247 125.556L497.585 125.192C496.669 124.983 495.991 124.651 495.552 124.195C495.118 123.739 494.9 123.161 494.9 122.462C494.9 121.883 495.062 121.376 495.386 120.941C495.71 120.506 496.158 120.168 496.729 119.925C497.3 119.678 497.954 119.554 498.691 119.554C499.752 119.554 500.587 119.784 501.197 120.244C501.806 120.7 502.209 121.312 502.405 122.079ZM509.281 119.682V121.216H503.918V119.682H509.281ZM505.356 117.33H507.267V126.617C507.267 126.988 507.323 127.267 507.434 127.455C507.544 127.638 507.687 127.763 507.862 127.832C508.041 127.896 508.235 127.928 508.444 127.928C508.597 127.928 508.731 127.917 508.846 127.896C508.961 127.874 509.051 127.857 509.115 127.844L509.46 129.423C509.349 129.466 509.191 129.509 508.987 129.551C508.782 129.598 508.527 129.624 508.22 129.628C507.717 129.636 507.248 129.547 506.814 129.359C506.379 129.172 506.027 128.882 505.759 128.49C505.491 128.098 505.356 127.606 505.356 127.013V117.33ZM515.521 129.698C514.554 129.698 513.721 129.491 513.022 129.078C512.327 128.661 511.79 128.075 511.411 127.32C511.036 126.562 510.849 125.673 510.849 124.655C510.849 123.649 511.036 122.763 511.411 121.996C511.79 121.229 512.319 120.63 512.996 120.2C513.678 119.769 514.475 119.554 515.387 119.554C515.941 119.554 516.478 119.646 516.998 119.829C517.518 120.012 517.984 120.3 518.398 120.692C518.811 121.084 519.137 121.593 519.376 122.219C519.614 122.842 519.734 123.598 519.734 124.489V125.166H511.929V123.734H517.861C517.861 123.232 517.758 122.786 517.554 122.398C517.349 122.006 517.062 121.697 516.691 121.472C516.324 121.246 515.894 121.133 515.4 121.133C514.863 121.133 514.394 121.265 513.994 121.529C513.597 121.789 513.29 122.13 513.073 122.552C512.86 122.969 512.753 123.423 512.753 123.913V125.032C512.753 125.688 512.869 126.246 513.099 126.707C513.333 127.167 513.659 127.518 514.077 127.761C514.494 128 514.982 128.119 515.54 128.119C515.903 128.119 516.233 128.068 516.531 127.966C516.829 127.859 517.087 127.702 517.305 127.493C517.522 127.284 517.688 127.026 517.803 126.719L519.612 127.045C519.467 127.578 519.207 128.045 518.832 128.445C518.462 128.842 517.995 129.151 517.432 129.372C516.874 129.589 516.237 129.698 515.521 129.698ZM521.854 129.5V119.682H523.701V121.241H523.804C523.983 120.713 524.298 120.298 524.75 119.995C525.206 119.688 525.721 119.535 526.297 119.535C526.416 119.535 526.557 119.539 526.718 119.548C526.885 119.556 527.015 119.567 527.108 119.58V121.408C527.032 121.386 526.895 121.363 526.699 121.337C526.503 121.308 526.307 121.293 526.111 121.293C525.66 121.293 525.257 121.388 524.903 121.58C524.554 121.768 524.277 122.03 524.072 122.366C523.868 122.699 523.765 123.078 523.765 123.504V129.5H521.854ZM530.269 133.182C529.984 133.182 529.724 133.158 529.489 133.112C529.255 133.069 529.08 133.022 528.965 132.971L529.426 131.405C529.775 131.499 530.086 131.539 530.359 131.526C530.631 131.513 530.872 131.411 531.081 131.219C531.294 131.028 531.482 130.714 531.644 130.28L531.88 129.628L528.288 119.682H530.333L532.82 127.301H532.922L535.408 119.682H537.46L533.414 130.81C533.227 131.322 532.988 131.754 532.698 132.108C532.408 132.466 532.063 132.734 531.663 132.913C531.262 133.092 530.798 133.182 530.269 133.182ZM551.377 122.079L549.645 122.386C549.573 122.164 549.458 121.953 549.3 121.753C549.147 121.553 548.938 121.388 548.674 121.261C548.409 121.133 548.079 121.069 547.683 121.069C547.142 121.069 546.69 121.19 546.328 121.433C545.965 121.672 545.784 121.981 545.784 122.36C545.784 122.688 545.906 122.952 546.149 123.153C546.392 123.353 546.784 123.517 547.325 123.645L548.884 124.003C549.788 124.212 550.461 124.533 550.904 124.968C551.348 125.403 551.569 125.967 551.569 126.662C551.569 127.25 551.399 127.774 551.058 128.234C550.721 128.69 550.25 129.048 549.645 129.308C549.044 129.568 548.348 129.698 547.555 129.698C546.456 129.698 545.559 129.464 544.864 128.995C544.169 128.522 543.743 127.851 543.585 126.982L545.433 126.7C545.548 127.182 545.784 127.546 546.142 127.793C546.5 128.036 546.967 128.158 547.542 128.158C548.169 128.158 548.669 128.028 549.044 127.768C549.419 127.504 549.607 127.182 549.607 126.803C549.607 126.496 549.492 126.238 549.262 126.029C549.036 125.82 548.688 125.663 548.22 125.556L546.558 125.192C545.642 124.983 544.964 124.651 544.525 124.195C544.09 123.739 543.873 123.161 543.873 122.462C543.873 121.883 544.035 121.376 544.359 120.941C544.683 120.506 545.13 120.168 545.701 119.925C546.272 119.678 546.926 119.554 547.664 119.554C548.725 119.554 549.56 119.784 550.169 120.244C550.779 120.7 551.181 121.312 551.377 122.079ZM555.582 123.67V129.5H553.671V116.409H555.556V121.28H555.678C555.908 120.751 556.259 120.332 556.732 120.021C557.205 119.71 557.823 119.554 558.586 119.554C559.259 119.554 559.847 119.692 560.35 119.969C560.857 120.246 561.249 120.66 561.526 121.21C561.808 121.755 561.948 122.437 561.948 123.255V129.5H560.037V123.485C560.037 122.765 559.852 122.207 559.481 121.81C559.11 121.41 558.595 121.21 557.934 121.21C557.482 121.21 557.078 121.305 556.72 121.497C556.366 121.689 556.087 121.97 555.882 122.341C555.682 122.707 555.582 123.151 555.582 123.67ZM568.634 129.698C567.714 129.698 566.911 129.487 566.225 129.065C565.538 128.643 565.006 128.053 564.627 127.295C564.247 126.536 564.058 125.65 564.058 124.636C564.058 123.617 564.247 122.727 564.627 121.964C565.006 121.201 565.538 120.609 566.225 120.187C566.911 119.765 567.714 119.554 568.634 119.554C569.555 119.554 570.358 119.765 571.044 120.187C571.73 120.609 572.263 121.201 572.642 121.964C573.021 122.727 573.211 123.617 573.211 124.636C573.211 125.65 573.021 126.536 572.642 127.295C572.263 128.053 571.73 128.643 571.044 129.065C570.358 129.487 569.555 129.698 568.634 129.698ZM568.641 128.094C569.237 128.094 569.732 127.936 570.124 127.621C570.516 127.305 570.805 126.886 570.993 126.362C571.185 125.837 571.281 125.26 571.281 124.629C571.281 124.003 571.185 123.428 570.993 122.903C570.805 122.375 570.516 121.951 570.124 121.631C569.732 121.312 569.237 121.152 568.641 121.152C568.04 121.152 567.541 121.312 567.145 121.631C566.753 121.951 566.461 122.375 566.269 122.903C566.082 123.428 565.988 124.003 565.988 124.629C565.988 125.26 566.082 125.837 566.269 126.362C566.461 126.886 566.753 127.305 567.145 127.621C567.541 127.936 568.04 128.094 568.641 128.094ZM577.174 129.5L574.285 119.682H576.26L578.184 126.892H578.28L580.21 119.682H582.185L584.103 126.86H584.199L586.11 119.682H588.085L585.203 129.5H583.253L581.259 122.411H581.112L579.117 129.5H577.174ZM597.256 122.079L595.524 122.386C595.452 122.164 595.337 121.953 595.179 121.753C595.025 121.553 594.817 121.388 594.552 121.261C594.288 121.133 593.958 121.069 593.562 121.069C593.021 121.069 592.569 121.19 592.207 121.433C591.844 121.672 591.663 121.981 591.663 122.36C591.663 122.688 591.785 122.952 592.028 123.153C592.271 123.353 592.663 123.517 593.204 123.645L594.763 124.003C595.667 124.212 596.34 124.533 596.783 124.968C597.226 125.403 597.448 125.967 597.448 126.662C597.448 127.25 597.278 127.774 596.937 128.234C596.6 128.69 596.129 129.048 595.524 129.308C594.923 129.568 594.226 129.698 593.434 129.698C592.334 129.698 591.437 129.464 590.743 128.995C590.048 128.522 589.622 127.851 589.464 126.982L591.312 126.7C591.427 127.182 591.663 127.546 592.021 127.793C592.379 128.036 592.846 128.158 593.421 128.158C594.047 128.158 594.548 128.028 594.923 127.768C595.298 127.504 595.486 127.182 595.486 126.803C595.486 126.496 595.371 126.238 595.141 126.029C594.915 125.82 594.567 125.663 594.099 125.556L592.437 125.192C591.521 124.983 590.843 124.651 590.404 124.195C589.969 123.739 589.752 123.161 589.752 122.462C589.752 121.883 589.914 121.376 590.238 120.941C590.562 120.506 591.009 120.168 591.58 119.925C592.151 119.678 592.805 119.554 593.543 119.554C594.604 119.554 595.439 119.784 596.048 120.244C596.658 120.7 597.06 121.312 597.256 122.079ZM606.224 123.67V129.5H604.313V119.682H606.148V121.28H606.269C606.495 120.76 606.849 120.342 607.33 120.027C607.816 119.712 608.427 119.554 609.165 119.554C609.834 119.554 610.42 119.695 610.922 119.976C611.425 120.253 611.815 120.666 612.092 121.216C612.369 121.766 612.508 122.445 612.508 123.255V129.5H610.597V123.485C610.597 122.773 610.411 122.217 610.04 121.817C609.67 121.412 609.16 121.21 608.513 121.21C608.07 121.21 607.675 121.305 607.33 121.497C606.989 121.689 606.719 121.97 606.518 122.341C606.322 122.707 606.224 123.151 606.224 123.67ZM621.29 125.428V119.682H623.208V129.5H621.329V127.8H621.226C621.001 128.324 620.638 128.761 620.14 129.11C619.646 129.455 619.03 129.628 618.293 129.628C617.662 129.628 617.104 129.489 616.618 129.212C616.136 128.931 615.757 128.516 615.48 127.966C615.207 127.416 615.071 126.737 615.071 125.927V119.682H616.982V125.697C616.982 126.366 617.168 126.898 617.538 127.295C617.909 127.691 618.391 127.889 618.983 127.889C619.341 127.889 619.697 127.8 620.05 127.621C620.408 127.442 620.704 127.171 620.939 126.809C621.177 126.447 621.295 125.987 621.29 125.428ZM625.776 129.5V119.682H627.611V121.28H627.732C627.937 120.739 628.271 120.317 628.736 120.014C629.2 119.707 629.756 119.554 630.404 119.554C631.06 119.554 631.61 119.707 632.053 120.014C632.5 120.321 632.831 120.743 633.044 121.28H633.146C633.38 120.756 633.753 120.338 634.265 120.027C634.776 119.712 635.385 119.554 636.093 119.554C636.983 119.554 637.71 119.833 638.272 120.391C638.839 120.95 639.123 121.791 639.123 122.916V129.5H637.211V123.095C637.211 122.43 637.03 121.949 636.668 121.651C636.306 121.352 635.873 121.203 635.37 121.203C634.748 121.203 634.265 121.395 633.919 121.778C633.574 122.158 633.402 122.646 633.402 123.242V129.5H631.497V122.974C631.497 122.441 631.331 122.013 630.998 121.689C630.666 121.365 630.233 121.203 629.701 121.203C629.339 121.203 629.004 121.299 628.697 121.491C628.395 121.678 628.15 121.94 627.962 122.277C627.779 122.614 627.687 123.004 627.687 123.447V129.5H625.776ZM641.838 129.5V116.409H643.749V121.273H643.864C643.975 121.069 644.134 120.832 644.343 120.564C644.552 120.295 644.842 120.061 645.213 119.861C645.583 119.656 646.073 119.554 646.683 119.554C647.475 119.554 648.183 119.754 648.805 120.155C649.427 120.555 649.915 121.133 650.269 121.887C650.627 122.641 650.806 123.549 650.806 124.61C650.806 125.671 650.629 126.581 650.275 127.339C649.921 128.094 649.436 128.675 648.818 129.085C648.2 129.489 647.495 129.692 646.702 129.692C646.105 129.692 645.617 129.592 645.238 129.391C644.863 129.191 644.569 128.957 644.356 128.688C644.143 128.42 643.979 128.181 643.864 127.972H643.704V129.5H641.838ZM643.71 124.591C643.71 125.281 643.811 125.886 644.011 126.406C644.211 126.926 644.501 127.333 644.88 127.627C645.259 127.917 645.724 128.062 646.274 128.062C646.845 128.062 647.322 127.911 647.706 127.608C648.089 127.301 648.379 126.886 648.575 126.362C648.775 125.837 648.875 125.247 648.875 124.591C648.875 123.943 648.777 123.362 648.581 122.846C648.389 122.33 648.1 121.923 647.712 121.625C647.328 121.327 646.849 121.178 646.274 121.178C645.72 121.178 645.251 121.32 644.867 121.606C644.488 121.891 644.201 122.29 644.005 122.801C643.809 123.312 643.71 123.909 643.71 124.591ZM657.183 129.698C656.216 129.698 655.383 129.491 654.684 129.078C653.989 128.661 653.453 128.075 653.073 127.32C652.698 126.562 652.511 125.673 652.511 124.655C652.511 123.649 652.698 122.763 653.073 121.996C653.453 121.229 653.981 120.63 654.658 120.2C655.34 119.769 656.137 119.554 657.049 119.554C657.603 119.554 658.14 119.646 658.66 119.829C659.18 120.012 659.646 120.3 660.06 120.692C660.473 121.084 660.799 121.593 661.038 122.219C661.276 122.842 661.396 123.598 661.396 124.489V125.166H653.591V123.734H659.523C659.523 123.232 659.421 122.786 659.216 122.398C659.011 122.006 658.724 121.697 658.353 121.472C657.987 121.246 657.556 121.133 657.062 121.133C656.525 121.133 656.056 121.265 655.656 121.529C655.259 121.789 654.953 122.13 654.735 122.552C654.522 122.969 654.416 123.423 654.416 123.913V125.032C654.416 125.688 654.531 126.246 654.761 126.707C654.995 127.167 655.321 127.518 655.739 127.761C656.156 128 656.644 128.119 657.203 128.119C657.565 128.119 657.895 128.068 658.193 127.966C658.492 127.859 658.749 127.702 658.967 127.493C659.184 127.284 659.35 127.026 659.465 126.719L661.274 127.045C661.129 127.578 660.869 128.045 660.494 128.445C660.124 128.842 659.657 129.151 659.095 129.372C658.536 129.589 657.899 129.698 657.183 129.698ZM663.516 129.5V119.682H665.364V121.241H665.466C665.645 120.713 665.96 120.298 666.412 119.995C666.868 119.688 667.383 119.535 667.959 119.535C668.078 119.535 668.219 119.539 668.381 119.548C668.547 119.556 668.677 119.567 668.771 119.58V121.408C668.694 121.386 668.557 121.363 668.361 121.337C668.165 121.308 667.969 121.293 667.773 121.293C667.322 121.293 666.919 121.388 666.565 121.58C666.216 121.768 665.939 122.03 665.734 122.366C665.53 122.699 665.427 123.078 665.427 123.504V129.5H663.516ZM679.324 129.698C678.403 129.698 677.6 129.487 676.914 129.065C676.228 128.643 675.695 128.053 675.316 127.295C674.937 126.536 674.747 125.65 674.747 124.636C674.747 123.617 674.937 122.727 675.316 121.964C675.695 121.201 676.228 120.609 676.914 120.187C677.6 119.765 678.403 119.554 679.324 119.554C680.244 119.554 681.047 119.765 681.734 120.187C682.42 120.609 682.952 121.201 683.332 121.964C683.711 122.727 683.9 123.617 683.9 124.636C683.9 125.65 683.711 126.536 683.332 127.295C682.952 128.053 682.42 128.643 681.734 129.065C681.047 129.487 680.244 129.698 679.324 129.698ZM679.33 128.094C679.927 128.094 680.421 127.936 680.813 127.621C681.205 127.305 681.495 126.886 681.682 126.362C681.874 125.837 681.97 125.26 681.97 124.629C681.97 124.003 681.874 123.428 681.682 122.903C681.495 122.375 681.205 121.951 680.813 121.631C680.421 121.312 679.927 121.152 679.33 121.152C678.729 121.152 678.231 121.312 677.834 121.631C677.442 121.951 677.15 122.375 676.959 122.903C676.771 123.428 676.677 124.003 676.677 124.629C676.677 125.26 676.771 125.837 676.959 126.362C677.15 126.886 677.442 127.305 677.834 127.621C678.231 127.936 678.729 128.094 679.33 128.094ZM690.706 119.682V121.216H685.158V119.682H690.706ZM686.679 129.5V118.544C686.679 117.93 686.814 117.421 687.082 117.016C687.351 116.607 687.706 116.303 688.15 116.102C688.593 115.898 689.074 115.795 689.594 115.795C689.978 115.795 690.306 115.827 690.579 115.891C690.851 115.951 691.054 116.006 691.186 116.058L690.738 117.604C690.649 117.579 690.534 117.549 690.393 117.515C690.253 117.477 690.082 117.457 689.882 117.457C689.417 117.457 689.085 117.572 688.885 117.803C688.689 118.033 688.591 118.365 688.591 118.8V129.5H686.679ZM454.991 141.682V143.216H449.628V141.682H454.991ZM451.066 139.33H452.977V148.617C452.977 148.988 453.033 149.267 453.144 149.455C453.254 149.638 453.397 149.763 453.572 149.832C453.751 149.896 453.945 149.928 454.154 149.928C454.307 149.928 454.441 149.917 454.556 149.896C454.671 149.874 454.761 149.857 454.825 149.844L455.17 151.423C455.059 151.466 454.901 151.509 454.697 151.551C454.492 151.598 454.237 151.624 453.93 151.628C453.427 151.636 452.958 151.547 452.524 151.359C452.089 151.172 451.737 150.882 451.469 150.49C451.2 150.098 451.066 149.606 451.066 149.013V139.33ZM457.105 151.5V141.682H458.952V143.241H459.055C459.234 142.713 459.549 142.298 460.001 141.995C460.457 141.688 460.972 141.535 461.548 141.535C461.667 141.535 461.808 141.539 461.969 141.548C462.136 141.556 462.266 141.567 462.359 141.58V143.408C462.283 143.386 462.146 143.363 461.95 143.337C461.754 143.308 461.558 143.293 461.362 143.293C460.911 143.293 460.508 143.388 460.154 143.58C459.805 143.768 459.528 144.03 459.323 144.366C459.119 144.699 459.016 145.078 459.016 145.504V151.5H457.105ZM466.783 151.717C466.161 151.717 465.598 151.602 465.095 151.372C464.592 151.138 464.194 150.799 463.9 150.356C463.61 149.913 463.465 149.369 463.465 148.726C463.465 148.172 463.572 147.716 463.785 147.358C463.998 147 464.286 146.717 464.648 146.508C465.01 146.299 465.415 146.141 465.862 146.035C466.31 145.928 466.766 145.847 467.23 145.792C467.818 145.724 468.295 145.668 468.662 145.626C469.028 145.579 469.295 145.504 469.461 145.402C469.627 145.3 469.71 145.134 469.71 144.903V144.859C469.71 144.3 469.553 143.868 469.237 143.561C468.926 143.254 468.462 143.101 467.844 143.101C467.2 143.101 466.693 143.244 466.322 143.529C465.956 143.81 465.702 144.124 465.562 144.469L463.766 144.06C463.979 143.463 464.29 142.982 464.699 142.615C465.112 142.244 465.587 141.976 466.124 141.81C466.661 141.639 467.226 141.554 467.818 141.554C468.21 141.554 468.626 141.601 469.065 141.695C469.508 141.784 469.921 141.95 470.305 142.193C470.692 142.436 471.01 142.783 471.257 143.235C471.504 143.683 471.628 144.264 471.628 144.98V151.5H469.761V150.158H469.685C469.561 150.405 469.376 150.648 469.129 150.886C468.881 151.125 468.564 151.323 468.176 151.481C467.788 151.638 467.324 151.717 466.783 151.717ZM467.198 150.183C467.727 150.183 468.178 150.079 468.553 149.87C468.933 149.661 469.22 149.388 469.416 149.052C469.616 148.711 469.717 148.347 469.717 147.959V146.693C469.648 146.761 469.516 146.825 469.32 146.885C469.129 146.94 468.909 146.989 468.662 147.032C468.415 147.07 468.174 147.107 467.94 147.141C467.705 147.17 467.509 147.196 467.352 147.217C466.981 147.264 466.642 147.343 466.335 147.454C466.033 147.565 465.79 147.724 465.607 147.933C465.428 148.138 465.338 148.411 465.338 148.751C465.338 149.224 465.513 149.582 465.862 149.825C466.212 150.064 466.657 150.183 467.198 150.183ZM478.309 151.698C477.359 151.698 476.541 151.483 475.855 151.053C475.173 150.618 474.649 150.019 474.282 149.256C473.916 148.494 473.732 147.62 473.732 146.636C473.732 145.638 473.92 144.759 474.295 143.996C474.67 143.229 475.198 142.63 475.88 142.2C476.562 141.769 477.365 141.554 478.29 141.554C479.036 141.554 479.7 141.692 480.284 141.969C480.868 142.242 481.339 142.626 481.697 143.12C482.059 143.614 482.274 144.192 482.343 144.852H480.482C480.38 144.392 480.146 143.996 479.779 143.663C479.417 143.331 478.931 143.165 478.322 143.165C477.789 143.165 477.323 143.305 476.922 143.587C476.526 143.864 476.217 144.26 475.995 144.776C475.774 145.287 475.663 145.892 475.663 146.591C475.663 147.307 475.771 147.925 475.989 148.445C476.206 148.964 476.513 149.367 476.909 149.653C477.31 149.938 477.781 150.081 478.322 150.081C478.684 150.081 479.012 150.015 479.306 149.883C479.605 149.746 479.854 149.553 480.054 149.301C480.259 149.05 480.401 148.747 480.482 148.393H482.343C482.274 149.028 482.068 149.595 481.722 150.094C481.377 150.592 480.915 150.984 480.335 151.27C479.76 151.555 479.085 151.698 478.309 151.698ZM486.144 148.17L486.131 145.837H486.464L490.376 141.682H492.664L488.202 146.412H487.902L486.144 148.17ZM484.386 151.5V138.409H486.298V151.5H484.386ZM490.587 151.5L487.071 146.834L488.388 145.498L492.933 151.5H490.587ZM498.233 151.698C497.266 151.698 496.433 151.491 495.734 151.078C495.039 150.661 494.502 150.075 494.123 149.32C493.748 148.562 493.561 147.673 493.561 146.655C493.561 145.649 493.748 144.763 494.123 143.996C494.502 143.229 495.031 142.63 495.708 142.2C496.39 141.769 497.187 141.554 498.099 141.554C498.653 141.554 499.19 141.646 499.71 141.829C500.23 142.012 500.696 142.3 501.11 142.692C501.523 143.084 501.849 143.593 502.088 144.219C502.326 144.842 502.445 145.598 502.445 146.489V147.166H494.641V145.734H500.573C500.573 145.232 500.47 144.786 500.266 144.398C500.061 144.006 499.774 143.697 499.403 143.472C499.036 143.246 498.606 143.133 498.112 143.133C497.575 143.133 497.106 143.265 496.705 143.529C496.309 143.789 496.002 144.13 495.785 144.552C495.572 144.969 495.465 145.423 495.465 145.913V147.032C495.465 147.688 495.58 148.246 495.811 148.707C496.045 149.167 496.371 149.518 496.789 149.761C497.206 150 497.694 150.119 498.252 150.119C498.615 150.119 498.945 150.068 499.243 149.966C499.541 149.859 499.799 149.702 500.017 149.493C500.234 149.284 500.4 149.026 500.515 148.719L502.324 149.045C502.179 149.578 501.919 150.045 501.544 150.445C501.173 150.842 500.707 151.151 500.144 151.372C499.586 151.589 498.949 151.698 498.233 151.698ZM504.566 151.5V141.682H506.413V143.241H506.516C506.695 142.713 507.01 142.298 507.462 141.995C507.918 141.688 508.433 141.535 509.009 141.535C509.128 141.535 509.268 141.539 509.43 141.548C509.597 141.556 509.727 141.567 509.82 141.58V143.408C509.744 143.386 509.607 143.363 509.411 143.337C509.215 143.308 509.019 143.293 508.823 143.293C508.371 143.293 507.969 143.388 507.615 143.58C507.266 143.768 506.989 144.03 506.784 144.366C506.58 144.699 506.477 145.078 506.477 145.504V151.5H504.566ZM518.831 144.079L517.099 144.386C517.027 144.164 516.912 143.953 516.754 143.753C516.601 143.553 516.392 143.388 516.128 143.261C515.863 143.133 515.533 143.069 515.137 143.069C514.596 143.069 514.144 143.19 513.782 143.433C513.42 143.672 513.238 143.981 513.238 144.36C513.238 144.688 513.36 144.952 513.603 145.153C513.846 145.353 514.238 145.517 514.779 145.645L516.339 146.003C517.242 146.212 517.915 146.533 518.358 146.968C518.802 147.403 519.023 147.967 519.023 148.662C519.023 149.25 518.853 149.774 518.512 150.234C518.175 150.69 517.704 151.048 517.099 151.308C516.498 151.568 515.802 151.698 515.009 151.698C513.91 151.698 513.013 151.464 512.318 150.995C511.623 150.522 511.197 149.851 511.04 148.982L512.887 148.7C513.002 149.182 513.238 149.546 513.596 149.793C513.954 150.036 514.421 150.158 514.996 150.158C515.623 150.158 516.123 150.028 516.498 149.768C516.873 149.504 517.061 149.182 517.061 148.803C517.061 148.496 516.946 148.238 516.716 148.029C516.49 147.82 516.143 147.663 515.674 147.556L514.012 147.192C513.096 146.983 512.418 146.651 511.979 146.195C511.545 145.739 511.327 145.161 511.327 144.462C511.327 143.883 511.489 143.376 511.813 142.941C512.137 142.506 512.584 142.168 513.155 141.925C513.726 141.678 514.381 141.554 515.118 141.554C516.179 141.554 517.014 141.784 517.623 142.244C518.233 142.7 518.635 143.312 518.831 144.079ZM525.888 151.5V141.682H527.8V151.5H525.888ZM526.854 140.167C526.521 140.167 526.236 140.056 525.997 139.835C525.763 139.609 525.645 139.34 525.645 139.029C525.645 138.714 525.763 138.445 525.997 138.224C526.236 137.998 526.521 137.885 526.854 137.885C527.186 137.885 527.469 137.998 527.704 138.224C527.942 138.445 528.062 138.714 528.062 139.029C528.062 139.34 527.942 139.609 527.704 139.835C527.469 140.056 527.186 140.167 526.854 140.167ZM532.282 145.67V151.5H530.371V141.682H532.205V143.28H532.327C532.553 142.76 532.906 142.342 533.388 142.027C533.874 141.712 534.485 141.554 535.222 141.554C535.891 141.554 536.477 141.695 536.98 141.976C537.483 142.253 537.873 142.666 538.15 143.216C538.427 143.766 538.565 144.445 538.565 145.255V151.5H536.654V145.485C536.654 144.773 536.469 144.217 536.098 143.817C535.727 143.412 535.218 143.21 534.57 143.21C534.127 143.21 533.733 143.305 533.388 143.497C533.047 143.689 532.776 143.97 532.576 144.341C532.38 144.707 532.282 145.151 532.282 145.67ZM547.1 155.182C546.815 155.182 546.555 155.158 546.32 155.112C546.086 155.069 545.911 155.022 545.796 154.971L546.257 153.405C546.606 153.499 546.917 153.539 547.19 153.526C547.463 153.513 547.703 153.411 547.912 153.219C548.125 153.028 548.313 152.714 548.475 152.28L548.711 151.628L545.119 141.682H547.164L549.651 149.301H549.753L552.24 141.682H554.291L550.245 152.81C550.058 153.322 549.819 153.754 549.529 154.108C549.24 154.466 548.894 154.734 548.494 154.913C548.093 155.092 547.629 155.182 547.1 155.182ZM559.889 151.698C558.969 151.698 558.165 151.487 557.479 151.065C556.793 150.643 556.261 150.053 555.881 149.295C555.502 148.536 555.312 147.65 555.312 146.636C555.312 145.617 555.502 144.727 555.881 143.964C556.261 143.201 556.793 142.609 557.479 142.187C558.165 141.765 558.969 141.554 559.889 141.554C560.81 141.554 561.613 141.765 562.299 142.187C562.985 142.609 563.518 143.201 563.897 143.964C564.276 144.727 564.466 145.617 564.466 146.636C564.466 147.65 564.276 148.536 563.897 149.295C563.518 150.053 562.985 150.643 562.299 151.065C561.613 151.487 560.81 151.698 559.889 151.698ZM559.896 150.094C560.492 150.094 560.987 149.936 561.379 149.621C561.771 149.305 562.06 148.886 562.248 148.362C562.44 147.837 562.536 147.26 562.536 146.629C562.536 146.003 562.44 145.428 562.248 144.903C562.06 144.375 561.771 143.951 561.379 143.631C560.987 143.312 560.492 143.152 559.896 143.152C559.295 143.152 558.796 143.312 558.4 143.631C558.008 143.951 557.716 144.375 557.524 144.903C557.337 145.428 557.243 146.003 557.243 146.629C557.243 147.26 557.337 147.837 557.524 148.362C557.716 148.886 558.008 149.305 558.4 149.621C558.796 149.936 559.295 150.094 559.896 150.094ZM572.819 147.428V141.682H574.736V151.5H572.857V149.8H572.755C572.529 150.324 572.167 150.761 571.668 151.11C571.174 151.455 570.558 151.628 569.821 151.628C569.19 151.628 568.632 151.489 568.146 151.212C567.665 150.931 567.285 150.516 567.008 149.966C566.736 149.416 566.599 148.737 566.599 147.927V141.682H568.51V147.697C568.51 148.366 568.696 148.898 569.067 149.295C569.437 149.691 569.919 149.889 570.511 149.889C570.869 149.889 571.225 149.8 571.579 149.621C571.937 149.442 572.233 149.171 572.467 148.809C572.706 148.447 572.823 147.987 572.819 147.428ZM577.304 151.5V141.682H579.152V143.241H579.254C579.433 142.713 579.748 142.298 580.2 141.995C580.656 141.688 581.172 141.535 581.747 141.535C581.866 141.535 582.007 141.539 582.169 141.548C582.335 141.556 582.465 141.567 582.559 141.58V143.408C582.482 143.386 582.346 143.363 582.15 143.337C581.953 143.308 581.757 143.293 581.561 143.293C581.11 143.293 580.707 143.388 580.353 143.58C580.004 143.768 579.727 144.03 579.522 144.366C579.318 144.699 579.216 145.078 579.216 145.504V151.5H577.304ZM589.13 151.5V138.409H591.041V143.273H591.156C591.267 143.069 591.426 142.832 591.635 142.564C591.844 142.295 592.134 142.061 592.505 141.861C592.875 141.656 593.365 141.554 593.975 141.554C594.767 141.554 595.475 141.754 596.097 142.155C596.719 142.555 597.207 143.133 597.561 143.887C597.919 144.641 598.098 145.549 598.098 146.61C598.098 147.671 597.921 148.581 597.567 149.339C597.213 150.094 596.728 150.675 596.11 151.085C595.492 151.489 594.787 151.692 593.994 151.692C593.397 151.692 592.909 151.592 592.53 151.391C592.155 151.191 591.861 150.957 591.648 150.688C591.435 150.42 591.271 150.181 591.156 149.972H590.996V151.5H589.13ZM591.002 146.591C591.002 147.281 591.103 147.886 591.303 148.406C591.503 148.926 591.793 149.333 592.172 149.627C592.551 149.917 593.016 150.062 593.566 150.062C594.137 150.062 594.614 149.911 594.998 149.608C595.381 149.301 595.671 148.886 595.867 148.362C596.067 147.837 596.167 147.247 596.167 146.591C596.167 145.943 596.069 145.362 595.873 144.846C595.681 144.33 595.392 143.923 595.004 143.625C594.62 143.327 594.141 143.178 593.566 143.178C593.012 143.178 592.543 143.32 592.159 143.606C591.78 143.891 591.493 144.29 591.297 144.801C591.1 145.312 591.002 145.909 591.002 146.591ZM600.244 151.5V141.682H602.091V143.241H602.193C602.372 142.713 602.688 142.298 603.139 141.995C603.595 141.688 604.111 141.535 604.686 141.535C604.806 141.535 604.946 141.539 605.108 141.548C605.274 141.556 605.404 141.567 605.498 141.58V143.408C605.421 143.386 605.285 143.363 605.089 143.337C604.893 143.308 604.697 143.293 604.501 143.293C604.049 143.293 603.646 143.388 603.293 143.58C602.943 143.768 602.666 144.03 602.462 144.366C602.257 144.699 602.155 145.078 602.155 145.504V151.5H600.244ZM610.936 151.698C610.016 151.698 609.212 151.487 608.526 151.065C607.84 150.643 607.308 150.053 606.928 149.295C606.549 148.536 606.359 147.65 606.359 146.636C606.359 145.617 606.549 144.727 606.928 143.964C607.308 143.201 607.84 142.609 608.526 142.187C609.212 141.765 610.016 141.554 610.936 141.554C611.857 141.554 612.66 141.765 613.346 142.187C614.032 142.609 614.565 143.201 614.944 143.964C615.323 144.727 615.513 145.617 615.513 146.636C615.513 147.65 615.323 148.536 614.944 149.295C614.565 150.053 614.032 150.643 613.346 151.065C612.66 151.487 611.857 151.698 610.936 151.698ZM610.942 150.094C611.539 150.094 612.033 149.936 612.425 149.621C612.817 149.305 613.107 148.886 613.295 148.362C613.487 147.837 613.582 147.26 613.582 146.629C613.582 146.003 613.487 145.428 613.295 144.903C613.107 144.375 612.817 143.951 612.425 143.631C612.033 143.312 611.539 143.152 610.942 143.152C610.342 143.152 609.843 143.312 609.447 143.631C609.055 143.951 608.763 144.375 608.571 144.903C608.384 145.428 608.29 146.003 608.29 146.629C608.29 147.26 608.384 147.837 608.571 148.362C608.763 148.886 609.055 149.305 609.447 149.621C609.843 149.936 610.342 150.094 610.942 150.094ZM619.476 151.5L616.587 141.682H618.562L620.486 148.892H620.582L622.512 141.682H624.487L626.405 148.86H626.501L628.412 141.682H630.387L627.504 151.5H625.555L623.56 144.411H623.413L621.419 151.5H619.476ZM639.558 144.079L637.826 144.386C637.753 144.164 637.638 143.953 637.481 143.753C637.327 143.553 637.118 143.388 636.854 143.261C636.59 143.133 636.26 143.069 635.863 143.069C635.322 143.069 634.871 143.19 634.508 143.433C634.146 143.672 633.965 143.981 633.965 144.36C633.965 144.688 634.086 144.952 634.329 145.153C634.572 145.353 634.964 145.517 635.506 145.645L637.065 146.003C637.969 146.212 638.642 146.533 639.085 146.968C639.528 147.403 639.75 147.967 639.75 148.662C639.75 149.25 639.579 149.774 639.238 150.234C638.902 150.69 638.431 151.048 637.826 151.308C637.225 151.568 636.528 151.698 635.736 151.698C634.636 151.698 633.739 151.464 633.045 150.995C632.35 150.522 631.924 149.851 631.766 148.982L633.613 148.7C633.729 149.182 633.965 149.546 634.323 149.793C634.681 150.036 635.148 150.158 635.723 150.158C636.349 150.158 636.85 150.028 637.225 149.768C637.6 149.504 637.787 149.182 637.787 148.803C637.787 148.496 637.672 148.238 637.442 148.029C637.216 147.82 636.869 147.663 636.4 147.556L634.738 147.192C633.822 146.983 633.145 146.651 632.706 146.195C632.271 145.739 632.054 145.161 632.054 144.462C632.054 143.883 632.216 143.376 632.54 142.941C632.863 142.506 633.311 142.168 633.882 141.925C634.453 141.678 635.107 141.554 635.844 141.554C636.905 141.554 637.741 141.784 638.35 142.244C638.959 142.7 639.362 143.312 639.558 144.079ZM646.083 151.698C645.115 151.698 644.282 151.491 643.583 151.078C642.889 150.661 642.352 150.075 641.973 149.32C641.598 148.562 641.41 147.673 641.41 146.655C641.41 145.649 641.598 144.763 641.973 143.996C642.352 143.229 642.88 142.63 643.558 142.2C644.24 141.769 645.037 141.554 645.949 141.554C646.502 141.554 647.039 141.646 647.559 141.829C648.079 142.012 648.546 142.3 648.959 142.692C649.373 143.084 649.699 143.593 649.937 144.219C650.176 144.842 650.295 145.598 650.295 146.489V147.166H642.49V145.734H648.422C648.422 145.232 648.32 144.786 648.115 144.398C647.911 144.006 647.623 143.697 647.252 143.472C646.886 143.246 646.456 143.133 645.961 143.133C645.424 143.133 644.956 143.265 644.555 143.529C644.159 143.789 643.852 144.13 643.635 144.552C643.422 144.969 643.315 145.423 643.315 145.913V147.032C643.315 147.688 643.43 148.246 643.66 148.707C643.895 149.167 644.221 149.518 644.638 149.761C645.056 150 645.544 150.119 646.102 150.119C646.464 150.119 646.794 150.068 647.093 149.966C647.391 149.859 647.649 149.702 647.866 149.493C648.083 149.284 648.25 149.026 648.365 148.719L650.174 149.045C650.029 149.578 649.769 150.045 649.394 150.445C649.023 150.842 648.556 151.151 647.994 151.372C647.436 151.589 646.799 151.698 646.083 151.698ZM652.416 151.5V141.682H654.263V143.241H654.365C654.544 142.713 654.86 142.298 655.311 141.995C655.767 141.688 656.283 141.535 656.858 141.535C656.977 141.535 657.118 141.539 657.28 141.548C657.446 141.556 657.576 141.567 657.67 141.58V143.408C657.593 143.386 657.457 143.363 657.261 143.337C657.065 143.308 656.869 143.293 656.673 143.293C656.221 143.293 655.818 143.388 655.465 143.58C655.115 143.768 654.838 144.03 654.634 144.366C654.429 144.699 654.327 145.078 654.327 145.504V151.5H652.416ZM666.681 144.079L664.949 144.386C664.876 144.164 664.761 143.953 664.604 143.753C664.45 143.553 664.241 143.388 663.977 143.261C663.713 143.133 663.383 143.069 662.987 143.069C662.445 143.069 661.994 143.19 661.631 143.433C661.269 143.672 661.088 143.981 661.088 144.36C661.088 144.688 661.21 144.952 661.452 145.153C661.695 145.353 662.087 145.517 662.629 145.645L664.188 146.003C665.092 146.212 665.765 146.533 666.208 146.968C666.651 147.403 666.873 147.967 666.873 148.662C666.873 149.25 666.702 149.774 666.362 150.234C666.025 150.69 665.554 151.048 664.949 151.308C664.348 151.568 663.651 151.698 662.859 151.698C661.759 151.698 660.862 151.464 660.168 150.995C659.473 150.522 659.047 149.851 658.889 148.982L660.737 148.7C660.852 149.182 661.088 149.546 661.446 149.793C661.804 150.036 662.271 150.158 662.846 150.158C663.472 150.158 663.973 150.028 664.348 149.768C664.723 149.504 664.911 149.182 664.911 148.803C664.911 148.496 664.795 148.238 664.565 148.029C664.339 147.82 663.992 147.663 663.523 147.556L661.862 147.192C660.945 146.983 660.268 146.651 659.829 146.195C659.394 145.739 659.177 145.161 659.177 144.462C659.177 143.883 659.339 143.376 659.663 142.941C659.987 142.506 660.434 142.168 661.005 141.925C661.576 141.678 662.23 141.554 662.967 141.554C664.028 141.554 664.864 141.784 665.473 142.244C666.082 142.7 666.485 143.312 666.681 144.079ZM673.891 151.5V138.409H675.803V143.273H675.918C676.028 143.069 676.188 142.832 676.397 142.564C676.606 142.295 676.896 142.061 677.266 141.861C677.637 141.656 678.127 141.554 678.737 141.554C679.529 141.554 680.237 141.754 680.859 142.155C681.481 142.555 681.969 143.133 682.322 143.887C682.68 144.641 682.859 145.549 682.859 146.61C682.859 147.671 682.683 148.581 682.329 149.339C681.975 150.094 681.489 150.675 680.871 151.085C680.254 151.489 679.548 151.692 678.756 151.692C678.159 151.692 677.671 151.592 677.292 151.391C676.917 151.191 676.623 150.957 676.41 150.688C676.197 150.42 676.033 150.181 675.918 149.972H675.758V151.5H673.891ZM675.764 146.591C675.764 147.281 675.864 147.886 676.065 148.406C676.265 148.926 676.555 149.333 676.934 149.627C677.313 149.917 677.778 150.062 678.327 150.062C678.898 150.062 679.376 149.911 679.759 149.608C680.143 149.301 680.433 148.886 680.629 148.362C680.829 147.837 680.929 147.247 680.929 146.591C680.929 145.943 680.831 145.362 680.635 144.846C680.443 144.33 680.153 143.923 679.766 143.625C679.382 143.327 678.903 143.178 678.327 143.178C677.773 143.178 677.305 143.32 676.921 143.606C676.542 143.891 676.254 144.29 676.058 144.801C675.862 145.312 675.764 145.909 675.764 146.591ZM687.863 151.717C687.241 151.717 686.678 151.602 686.175 151.372C685.672 151.138 685.274 150.799 684.98 150.356C684.69 149.913 684.545 149.369 684.545 148.726C684.545 148.172 684.652 147.716 684.865 147.358C685.078 147 685.366 146.717 685.728 146.508C686.09 146.299 686.495 146.141 686.942 146.035C687.39 145.928 687.846 145.847 688.31 145.792C688.898 145.724 689.376 145.668 689.742 145.626C690.108 145.579 690.375 145.504 690.541 145.402C690.707 145.3 690.79 145.134 690.79 144.903V144.859C690.79 144.3 690.633 143.868 690.317 143.561C690.006 143.254 689.542 143.101 688.924 143.101C688.28 143.101 687.773 143.244 687.403 143.529C687.036 143.81 686.782 144.124 686.642 144.469L684.846 144.06C685.059 143.463 685.37 142.982 685.779 142.615C686.192 142.244 686.667 141.976 687.204 141.81C687.741 141.639 688.306 141.554 688.898 141.554C689.29 141.554 689.706 141.601 690.145 141.695C690.588 141.784 691.001 141.95 691.385 142.193C691.773 142.436 692.09 142.783 692.337 143.235C692.584 143.683 692.708 144.264 692.708 144.98V151.5H690.841V150.158H690.765C690.641 150.405 690.456 150.648 690.209 150.886C689.961 151.125 689.644 151.323 689.256 151.481C688.868 151.638 688.404 151.717 687.863 151.717ZM688.278 150.183C688.807 150.183 689.258 150.079 689.633 149.87C690.013 149.661 690.3 149.388 690.496 149.052C690.697 148.711 690.797 148.347 690.797 147.959V146.693C690.729 146.761 690.596 146.825 690.4 146.885C690.209 146.94 689.989 146.989 689.742 147.032C689.495 147.07 689.254 147.107 689.02 147.141C688.785 147.17 688.589 147.196 688.432 147.217C688.061 147.264 687.722 147.343 687.415 147.454C687.113 147.565 686.87 147.724 686.687 147.933C686.508 148.138 686.418 148.411 686.418 148.751C686.418 149.224 686.593 149.582 686.942 149.825C687.292 150.064 687.737 150.183 688.278 150.183ZM695.254 151.5V141.682H697.101V143.241H697.203C697.382 142.713 697.697 142.298 698.149 141.995C698.605 141.688 699.121 141.535 699.696 141.535C699.815 141.535 699.956 141.539 700.118 141.548C700.284 141.556 700.414 141.567 700.508 141.58V143.408C700.431 143.386 700.295 143.363 700.099 143.337C699.903 143.308 699.707 143.293 699.511 143.293C699.059 143.293 698.656 143.388 698.303 143.58C697.953 143.768 697.676 144.03 697.472 144.366C697.267 144.699 697.165 145.078 697.165 145.504V151.5H695.254Z" fill="white"/>
<rect x="424" y="47" width="302" height="133" rx="12" stroke="white" stroke-width="8"/>
</g>
<defs>
<clipPath id="clip0_513_1898">
<rect width="1200" height="800" fill="white"/>
</clipPath>
</defs>
</svg>
