<svg width="120" height="80" viewBox="0 0 120 80" fill="none" xmlns="http://www.w3.org/2000/svg">
<g clip-path="url(#clip0_513_1897)">
<rect width="120" height="80" fill="black"/>
<g clip-path="url(#clip1_513_1897)">
<rect width="142" height="96" transform="translate(-11)" fill="white"/>
<rect x="2" y="2" width="116" height="9" rx="1" fill="#E4EBF2"/>
<rect x="2.0166" y="13" width="115.967" height="13.135" rx="1" fill="#8FA1B2"/>
<rect x="2.0166" y="28" width="21.4183" height="26.625" rx="1" fill="#E4EBF2"/>
<rect x="2.0166" y="56.625" width="21.3" height="41.2983" rx="1" fill="#E4EBF2"/>
<rect x="90.7666" y="28" width="27" height="28" rx="1" fill="#E4EBF2"/>
<rect x="90.7666" y="58" width="27" height="18" rx="1" fill="#8FA1B2"/>
<rect x="90.7666" y="78" width="27.2167" height="21.0633" rx="1" fill="#E4EBF2"/>
<rect x="25" y="28" width="64" height="36" rx="1" fill="#E4EBF2"/>
<rect x="27" y="30" width="60" height="26" rx="2" fill="#8FA1B2"/>
<rect x="25" y="66" width="15.25" height="18.9333" rx="1" fill="#E4EBF2"/>
<rect x="41.25" y="66" width="15.25" height="18.9333" rx="2" fill="#8FA1B2"/>
<rect x="57.5" y="66" width="15.25" height="18.9333" rx="1" fill="#E4EBF2"/>
<rect x="73.75" y="66" width="15.25" height="18.9333" rx="1" fill="#E4EBF2"/>
</g>
<rect opacity="0.5" width="120" height="80" fill="#04192D"/>
<path fill-rule="evenodd" clip-rule="evenodd" d="M30.3501 5.6499C30.3501 6.06411 30.0143 6.3999 29.6001 6.3999C29.1859 6.3999 28.8501 6.06411 28.8501 5.6499C28.8501 5.23569 29.1859 4.8999 29.6001 4.8999C30.0143 4.8999 30.3501 5.23569 30.3501 5.6499Z" fill="#495D6F"/>
<path fill-rule="evenodd" clip-rule="evenodd" d="M30.5904 6.59311C30.4909 6.36425 30.4738 6.17032 30.4711 6.09413V5.46722C30.4711 4.9883 30.0809 4.6001 29.5997 4.6001C29.1183 4.6001 28.7282 4.9883 28.7282 5.46722V6.10319C28.7244 6.18516 28.7049 6.37316 28.6092 6.59311C28.4806 6.88868 28.587 6.85345 28.6824 6.82914C28.7777 6.80492 28.9906 6.70999 29.0571 6.82693C29.1236 6.94382 29.179 7.04533 29.3342 6.97914C29.4895 6.91298 29.5626 6.89093 29.5848 6.89093H29.6149C29.637 6.89093 29.7102 6.91298 29.8654 6.97914C30.0206 7.04533 30.076 6.94382 30.1426 6.82693C30.2091 6.70999 30.4219 6.80492 30.5173 6.82914C30.6126 6.85345 30.719 6.88868 30.5904 6.59311ZM29.3308 5.07292C29.4246 5.07292 29.5007 5.19273 29.5007 5.34056C29.5007 5.48839 29.4246 5.60823 29.3308 5.60823C29.2369 5.60823 29.1608 5.48839 29.1608 5.34056C29.1608 5.19273 29.2369 5.07292 29.3308 5.07292ZM29.5997 6.14268C29.3929 6.14268 29.2188 5.94012 29.1663 5.71475C29.2676 5.85337 29.4241 5.94246 29.5997 5.94246C29.7754 5.94246 29.9318 5.85337 30.0332 5.71475C29.9807 5.94012 29.8065 6.14268 29.5997 6.14268ZM29.8687 5.60823C29.7748 5.60823 29.6987 5.48839 29.6987 5.34056C29.6987 5.19273 29.7748 5.07292 29.8687 5.07292C29.9626 5.07292 30.0387 5.19273 30.0387 5.34056C30.0387 5.48839 29.9626 5.60823 29.8687 5.60823Z" fill="white"/>
<rect x="27.8498" y="4.05" width="3.5" height="3.5" rx="0.75" stroke="white" stroke-width="0.1"/>
<rect x="30" y="6" width="12" height="11" rx="0.8" fill="white"/>
<path d="M31.819 14V13.3021L33.6706 11.487C33.8477 11.3082 33.9952 11.1493 34.1133 11.0104C34.2313 10.8715 34.3199 10.737 34.3789 10.6068C34.4379 10.4766 34.4674 10.3377 34.4674 10.1901C34.4674 10.0217 34.4293 9.8776 34.3529 9.75781C34.2765 9.63628 34.1714 9.54253 34.0378 9.47656C33.9041 9.41059 33.7522 9.3776 33.582 9.3776C33.4067 9.3776 33.253 9.41406 33.1211 9.48698C32.9891 9.55816 32.8867 9.65972 32.8138 9.79167C32.7426 9.92361 32.707 10.0807 32.707 10.263H31.7878C31.7878 9.92448 31.865 9.63021 32.0195 9.38021C32.174 9.13021 32.3867 8.93663 32.6576 8.79948C32.9301 8.66233 33.2426 8.59375 33.5951 8.59375C33.9527 8.59375 34.2669 8.66059 34.5378 8.79427C34.8086 8.92795 35.0187 9.11111 35.168 9.34375C35.319 9.57639 35.3945 9.84201 35.3945 10.1406C35.3945 10.3403 35.3563 10.5365 35.2799 10.7292C35.2036 10.9219 35.069 11.1354 34.8763 11.3698C34.6853 11.6042 34.4171 11.888 34.0716 12.2214L33.1523 13.1562V13.1927H35.4753V14H31.819ZM38.3268 14.0729C38.0716 14.0712 37.8225 14.0269 37.5794 13.9401C37.3364 13.8516 37.1176 13.7083 36.9232 13.5104C36.7287 13.3108 36.5742 13.046 36.4596 12.7161C36.3451 12.3845 36.2886 11.974 36.2904 11.4844C36.2904 11.0278 36.339 10.6207 36.4362 10.263C36.5334 9.90538 36.6732 9.6033 36.8555 9.35677C37.0378 9.10851 37.2574 8.91927 37.5143 8.78906C37.773 8.65885 38.0621 8.59375 38.3815 8.59375C38.7166 8.59375 39.0135 8.65972 39.2721 8.79167C39.5326 8.92361 39.7426 9.10417 39.9023 9.33333C40.0621 9.56076 40.161 9.81771 40.1992 10.1042H39.2487C39.2001 9.89931 39.1003 9.73611 38.9492 9.61458C38.7999 9.49132 38.6107 9.42969 38.3815 9.42969C38.0117 9.42969 37.727 9.59028 37.5273 9.91146C37.3294 10.2326 37.2296 10.6736 37.2279 11.2344H37.2643C37.3494 11.0816 37.4596 10.9505 37.5951 10.8411C37.7305 10.7318 37.8832 10.6476 38.0534 10.5885C38.2253 10.5278 38.4067 10.4974 38.5977 10.4974C38.9102 10.4974 39.1905 10.572 39.4388 10.7214C39.6888 10.8707 39.8867 11.0764 40.0326 11.3385C40.1784 11.599 40.2504 11.8976 40.2487 12.2344C40.2504 12.5851 40.1706 12.9002 40.0091 13.1797C39.8477 13.4575 39.6228 13.6762 39.3346 13.8359C39.0464 13.9957 38.7105 14.0747 38.3268 14.0729ZM38.3216 13.2917C38.5109 13.2917 38.6801 13.2457 38.8294 13.1536C38.9787 13.0616 39.0968 12.9375 39.1836 12.7812C39.2704 12.625 39.3129 12.4497 39.3112 12.2552C39.3129 12.0642 39.2713 11.8915 39.1862 11.737C39.1029 11.5825 38.9874 11.4601 38.8398 11.3698C38.6923 11.2795 38.5239 11.2344 38.3346 11.2344C38.194 11.2344 38.0629 11.2613 37.9414 11.3151C37.8199 11.3689 37.714 11.4436 37.6237 11.5391C37.5334 11.6328 37.4622 11.7422 37.4102 11.8672C37.3598 11.9905 37.3338 12.1224 37.332 12.263C37.3338 12.4488 37.3772 12.6198 37.4622 12.776C37.5473 12.9323 37.6645 13.0573 37.8138 13.151C37.9631 13.2448 38.1324 13.2917 38.3216 13.2917Z" fill="#202C44"/>
<rect x="43.5" y="6.5" width="38" height="25" rx="1.3" fill="#00AEF0"/>
<path fill-rule="evenodd" clip-rule="evenodd" d="M65 18.5C65 19.8807 63.8807 21 62.5 21C61.1193 21 60 19.8807 60 18.5C60 17.1193 61.1193 16 62.5 16C63.8807 16 65 17.1193 65 18.5Z" fill="#00AEF0"/>
<path fill-rule="evenodd" clip-rule="evenodd" d="M65.8021 21.6434C65.4703 20.8805 65.4132 20.2341 65.4043 19.9801V17.8904C65.4043 16.294 64.1037 15 62.4995 15C60.8951 15 59.5945 16.294 59.5945 17.8904V20.0103C59.5821 20.2836 59.5169 20.9102 59.1979 21.6434C58.7692 22.6286 59.124 22.5112 59.4418 22.4301C59.7596 22.3494 60.4692 22.033 60.6909 22.4228C60.9125 22.8124 61.0974 23.1508 61.6148 22.9301C62.1322 22.7096 62.376 22.6361 62.4498 22.6361H62.5503C62.6241 22.6361 62.868 22.7096 63.3853 22.9301C63.9027 23.1508 64.0875 22.8124 64.3092 22.4228C64.5308 22.033 65.2404 22.3494 65.5583 22.4301C65.8761 22.5112 66.2307 22.6286 65.8021 21.6434ZM61.6029 16.5761C61.9158 16.5761 62.1695 16.9754 62.1695 17.4682C62.1695 17.961 61.9158 18.3604 61.6029 18.3604C61.29 18.3604 61.0364 17.961 61.0364 17.4682C61.0364 16.9754 61.29 16.5761 61.6029 16.5761ZM62.4996 20.142C61.8101 20.142 61.2297 19.4668 61.0548 18.7155C61.3926 19.1776 61.914 19.4746 62.4996 19.4746C63.0851 19.4746 63.6064 19.1776 63.9443 18.7155C63.7694 19.4668 63.1889 20.142 62.4996 20.142ZM63.3962 18.3604C63.083 18.3604 62.8295 17.961 62.8295 17.4682C62.8295 16.9754 63.083 16.5761 63.3962 16.5761C63.7092 16.5761 63.9627 16.9754 63.9627 17.4682C63.9627 17.961 63.7092 18.3604 63.3962 18.3604Z" fill="white"/>
<rect x="43.5" y="6.5" width="38" height="25" rx="1.3" stroke="white"/>
</g>
<defs>
<clipPath id="clip0_513_1897">
<rect width="120" height="80" fill="white"/>
</clipPath>
<clipPath id="clip1_513_1897">
<rect width="142" height="96" fill="white" transform="translate(-11)"/>
</clipPath>
</defs>
</svg>
