<svg width="120" height="80" viewBox="0 0 120 80" fill="none" xmlns="http://www.w3.org/2000/svg">
<g clip-path="url(#clip0_513_1899)">
<rect width="120" height="80" fill="black"/>
<g clip-path="url(#clip1_513_1899)">
<rect width="142" height="96" transform="translate(-11)" fill="white"/>
<rect x="2" y="2" width="116" height="9" rx="1" fill="#E4EBF2"/>
<rect x="2.0166" y="13" width="115.967" height="13.135" rx="1" fill="#8FA1B2"/>
<rect x="2.0166" y="28" width="21.4183" height="26.625" rx="1" fill="#E4EBF2"/>
<rect x="2.0166" y="56.625" width="21.3" height="41.2983" rx="1" fill="#E4EBF2"/>
<rect x="90.7666" y="28" width="27" height="28" rx="1" fill="#E4EBF2"/>
<rect x="90.7666" y="58" width="27" height="18" rx="1" fill="#8FA1B2"/>
<rect x="90.7666" y="78" width="27.2167" height="21.0633" rx="1" fill="#E4EBF2"/>
<rect x="25" y="28" width="64" height="36" rx="1" fill="#E4EBF2"/>
<rect x="27" y="30" width="60" height="26" rx="2" fill="#8FA1B2"/>
<rect x="25" y="66" width="15.25" height="18.9333" rx="1" fill="#E4EBF2"/>
<rect x="41.25" y="66" width="15.25" height="18.9333" rx="2" fill="#8FA1B2"/>
<rect x="57.5" y="66" width="15.25" height="18.9333" rx="1" fill="#E4EBF2"/>
<rect x="73.75" y="66" width="15.25" height="18.9333" rx="1" fill="#E4EBF2"/>
</g>
<rect opacity="0.5" width="120" height="80" fill="#04192D"/>
<g filter="url(#filter0_d_513_1899)">
<g clip-path="url(#clip2_513_1899)">
<rect x="10.8999" y="8" width="37.5" height="44.9" rx="1.6" fill="white"/>
<g clip-path="url(#clip3_513_1899)">
<rect x="10.8999" y="8" width="37.5" height="44.9" rx="1.2" fill="white"/>
<g filter="url(#filter1_d_513_1899)">
<path d="M10.8999 9.6C10.8999 8.71634 11.6162 8 12.4999 8H46.7999C47.6836 8 48.3999 8.71634 48.3999 9.6V13.6H10.8999V9.6Z" fill="white" shape-rendering="crispEdges"/>
<path fill-rule="evenodd" clip-rule="evenodd" d="M14.4502 10.6499C14.4502 11.0641 14.1144 11.3999 13.7002 11.3999C13.286 11.3999 12.9502 11.0641 12.9502 10.6499C12.9502 10.2357 13.286 9.8999 13.7002 9.8999C14.1144 9.8999 14.4502 10.2357 14.4502 10.6499Z" fill="white"/>
<path fill-rule="evenodd" clip-rule="evenodd" d="M14.6905 11.5931C14.591 11.3642 14.5739 11.1703 14.5712 11.0941V10.4672C14.5712 9.9883 14.181 9.6001 13.6998 9.6001C13.2184 9.6001 12.8282 9.9883 12.8282 10.4672V11.1032C12.8245 11.1852 12.805 11.3732 12.7093 11.5931C12.5807 11.8887 12.6871 11.8534 12.7825 11.8291C12.8778 11.8049 13.0907 11.71 13.1572 11.8269C13.2237 11.9438 13.2791 12.0453 13.4343 11.9791C13.5896 11.913 13.6627 11.8909 13.6849 11.8909H13.715C13.7371 11.8909 13.8103 11.913 13.9655 11.9791C14.1207 12.0453 14.1761 11.9438 14.2427 11.8269C14.3091 11.71 14.522 11.8049 14.6174 11.8291C14.7127 11.8534 14.8191 11.8887 14.6905 11.5931ZM13.4309 10.0729C13.5247 10.0729 13.6008 10.1927 13.6008 10.3406C13.6008 10.4884 13.5247 10.6082 13.4309 10.6082C13.337 10.6082 13.2609 10.4884 13.2609 10.3406C13.2609 10.1927 13.337 10.0729 13.4309 10.0729ZM13.6998 11.1427C13.493 11.1427 13.3189 10.9401 13.2664 10.7147C13.3677 10.8534 13.5242 10.9425 13.6998 10.9425C13.8755 10.9425 14.0319 10.8534 14.1332 10.7147C14.0808 10.9401 13.9066 11.1427 13.6998 11.1427ZM13.9688 10.6082C13.8749 10.6082 13.7988 10.4884 13.7988 10.3406C13.7988 10.1927 13.8749 10.0729 13.9688 10.0729C14.0627 10.0729 14.1388 10.1927 14.1388 10.3406C14.1388 10.4884 14.0627 10.6082 13.9688 10.6082Z" fill="#00AEF0"/>
<rect x="23.1997" y="9.8999" width="12.9" height="1.8" rx="0.9" fill="#8FA1B3"/>
<g clip-path="url(#clip4_513_1899)">
<path d="M44.6997 10.8002H46.4997M44.6997 10.2002H46.4997M44.6997 11.4002H46.4997" stroke="#202C44" stroke-width="0.2" stroke-linecap="round" stroke-linejoin="round"/>
</g>
</g>
<rect width="37.5" height="39.3" transform="translate(10.8999 13.6001)" fill="white"/>
<path d="M38.3333 33.1667C38.3333 34.3705 38.0962 35.5624 37.6356 36.6746C37.1749 37.7867 36.4997 38.7973 35.6485 39.6485C34.7973 40.4997 33.7867 41.1749 32.6746 41.6356C31.5624 42.0962 30.3705 42.3333 29.1667 42.3333C27.9629 42.3333 26.7709 42.0962 25.6587 41.6356C24.5466 41.1749 23.5361 40.4997 22.6849 39.6485C21.8337 38.7973 21.1584 37.7867 20.6978 36.6746C20.2371 35.5624 20 34.3705 20 33.1667C20 31.9629 20.2371 30.7709 20.6978 29.6587C21.1584 28.5466 21.8337 27.5361 22.6849 26.6849C23.5361 25.8337 24.5466 25.1584 25.6587 24.6978C26.7709 24.2371 27.9629 24 29.1667 24C30.3705 24 31.5624 24.2371 32.6746 24.6978C33.7868 25.1584 34.7973 25.8337 35.6485 26.6849C36.4997 27.5361 37.1749 28.5466 37.6356 29.6587C38.0962 30.7709 38.3333 31.9629 38.3333 33.1667L38.3333 33.1667Z" stroke="white" stroke-width="3.66667" stroke-linecap="round" stroke-linejoin="round"/>
<path d="M29.6496 24.083C28.0405 24.083 26.4598 24.5066 25.0662 25.3111C23.6727 26.1157 22.5156 27.2728 21.711 28.6663" stroke="#C3CAD9" stroke-width="1.83333" stroke-linecap="round" stroke-linejoin="round"/>
<path d="M20.7953 30.8772C20.3788 32.4314 20.3788 34.0679 20.7953 35.6222" stroke="#EF671E" stroke-width="1.83333" stroke-linecap="round" stroke-linejoin="round"/>
<path d="M21.711 37.833C22.1116 38.5268 22.6013 39.165 23.1678 39.7315" stroke="#8459A5" stroke-width="1.83333" stroke-linecap="round" stroke-linejoin="round"/>
<path d="M25.0662 41.1882C26.1088 41.7901 27.2596 42.1808 28.4531 42.3379C29.6466 42.495 30.8593 42.4156 32.0221 42.104" stroke="#FC9734" stroke-width="1.83333" stroke-linecap="round" stroke-linejoin="round"/>
<path d="M34.2329 41.1882C35.6264 40.3837 36.7836 39.2265 37.5881 37.833" stroke="#556FCD" stroke-width="1.83333" stroke-linecap="round" stroke-linejoin="round"/>
<path d="M38.5039 35.6222C38.8155 34.4594 38.8949 33.2467 38.7378 32.0532C38.5807 30.8597 38.19 29.7088 37.5881 28.6663" stroke="#87D7EF" stroke-width="1.83333" stroke-linecap="round" stroke-linejoin="round"/>
<path d="M36.1314 26.7679C34.9936 25.6301 33.5763 24.8118 32.0221 24.3954" stroke="#CB55CD" stroke-width="1.83333" stroke-linecap="round" stroke-linejoin="round"/>
<path d="M25.819 36V35.3021L27.6706 33.487C27.8477 33.3082 27.9952 33.1493 28.1133 33.0104C28.2313 32.8715 28.3199 32.737 28.3789 32.6068C28.4379 32.4766 28.4674 32.3377 28.4674 32.1901C28.4674 32.0217 28.4293 31.8776 28.3529 31.7578C28.2765 31.6363 28.1714 31.5425 28.0378 31.4766C27.9041 31.4106 27.7522 31.3776 27.582 31.3776C27.4067 31.3776 27.253 31.4141 27.1211 31.487C26.9891 31.5582 26.8867 31.6597 26.8138 31.7917C26.7426 31.9236 26.707 32.0807 26.707 32.263H25.7878C25.7878 31.9245 25.865 31.6302 26.0195 31.3802C26.174 31.1302 26.3867 30.9366 26.6576 30.7995C26.9301 30.6623 27.2426 30.5937 27.5951 30.5937C27.9527 30.5937 28.2669 30.6606 28.5378 30.7943C28.8086 30.928 29.0187 31.1111 29.168 31.3437C29.319 31.5764 29.3945 31.842 29.3945 32.1406C29.3945 32.3403 29.3563 32.5365 29.2799 32.7292C29.2036 32.9219 29.069 33.1354 28.8763 33.3698C28.6853 33.6042 28.4171 33.888 28.0716 34.2214L27.1523 35.1562V35.1927H29.4753V36H25.819ZM32.3268 36.0729C32.0716 36.0712 31.8225 36.0269 31.5794 35.9401C31.3364 35.8516 31.1176 35.7083 30.9232 35.5104C30.7287 35.3108 30.5742 35.046 30.4596 34.7161C30.3451 34.3845 30.2886 33.974 30.2904 33.4844C30.2904 33.0278 30.339 32.6207 30.4362 32.263C30.5334 31.9054 30.6732 31.6033 30.8555 31.3568C31.0378 31.1085 31.2574 30.9193 31.5143 30.7891C31.773 30.6589 32.0621 30.5937 32.3815 30.5937C32.7166 30.5937 33.0135 30.6597 33.2721 30.7917C33.5326 30.9236 33.7426 31.1042 33.9023 31.3333C34.0621 31.5608 34.161 31.8177 34.1992 32.1042H33.2487C33.2001 31.8993 33.1003 31.7361 32.9492 31.6146C32.7999 31.4913 32.6107 31.4297 32.3815 31.4297C32.0117 31.4297 31.727 31.5903 31.5273 31.9115C31.3294 32.2326 31.2296 32.6736 31.2279 33.2344H31.2643C31.3494 33.0816 31.4596 32.9505 31.5951 32.8411C31.7305 32.7318 31.8832 32.6476 32.0534 32.5885C32.2253 32.5278 32.4067 32.4974 32.5977 32.4974C32.9102 32.4974 33.1905 32.572 33.4388 32.7214C33.6888 32.8707 33.8867 33.0764 34.0326 33.3385C34.1784 33.599 34.2504 33.8976 34.2487 34.2344C34.2504 34.5851 34.1706 34.9002 34.0091 35.1797C33.8477 35.4575 33.6228 35.6762 33.3346 35.8359C33.0464 35.9957 32.7105 36.0747 32.3268 36.0729ZM32.3216 35.2917C32.5109 35.2917 32.6801 35.2457 32.8294 35.1536C32.9787 35.0616 33.0968 34.9375 33.1836 34.7812C33.2704 34.625 33.3129 34.4497 33.3112 34.2552C33.3129 34.0642 33.2713 33.8915 33.1862 33.737C33.1029 33.5825 32.9874 33.4601 32.8398 33.3698C32.6923 33.2795 32.5239 33.2344 32.3346 33.2344C32.194 33.2344 32.0629 33.2613 31.9414 33.3151C31.8199 33.3689 31.714 33.4436 31.6237 33.5391C31.5334 33.6328 31.4622 33.7422 31.4102 33.8672C31.3598 33.9905 31.3338 34.1224 31.332 34.263C31.3338 34.4488 31.3772 34.6198 31.4622 34.776C31.5473 34.9323 31.6645 35.0573 31.8138 35.151C31.9631 35.2448 32.1324 35.2917 32.3216 35.2917Z" fill="#202C44"/>
</g>
</g>
</g>
<rect x="11.3002" y="54.8998" width="36.7" height="13.3" rx="1.2" fill="#00AEF0"/>
<path fill-rule="evenodd" clip-rule="evenodd" d="M32.4629 60.9873C32.4629 62.5406 31.2037 63.7998 29.6504 63.7998C28.0971 63.7998 26.8379 62.5406 26.8379 60.9873C26.8379 59.434 28.0971 58.1748 29.6504 58.1748C31.2037 58.1748 32.4629 59.434 32.4629 60.9873Z" fill="#00AEF0"/>
<path fill-rule="evenodd" clip-rule="evenodd" d="M33.3652 64.5236C32.992 63.6654 32.9277 62.9381 32.9177 62.6524V60.3015C32.9177 58.5056 31.4546 57.0498 29.6498 57.0498C27.8449 57.0498 26.3817 58.5056 26.3817 60.3015V62.6864C26.3677 62.9938 26.2944 63.6988 25.9356 64.5236C25.4533 65.632 25.8524 65.4999 26.2099 65.4087C26.5674 65.3179 27.3658 64.9619 27.6152 65.4004C27.8645 65.8387 28.0725 66.2194 28.6545 65.9712C29.2366 65.7231 29.5108 65.6404 29.5939 65.6404H29.707C29.79 65.6404 30.0644 65.7231 30.6464 65.9712C31.2284 66.2194 31.4363 65.8387 31.6858 65.4004C31.9351 64.9619 32.7334 65.3179 33.0909 65.4087C33.4485 65.4999 33.8474 65.632 33.3652 64.5236ZM28.6411 58.8229C28.9931 58.8229 29.2784 59.2721 29.2784 59.8265C29.2784 60.3809 28.9931 60.8303 28.6411 60.8303C28.2891 60.8303 28.0037 60.3809 28.0037 59.8265C28.0037 59.2721 28.2891 58.8229 28.6411 58.8229ZM29.6498 62.8345C28.8742 62.8345 28.2212 62.0749 28.0245 61.2298C28.4045 61.7496 28.991 62.0837 29.6498 62.0837C30.3085 62.0837 30.895 61.7496 31.2751 61.2298C31.0784 62.0749 30.4253 62.8345 29.6498 62.8345ZM30.6585 60.8303C30.3063 60.8303 30.021 60.3809 30.021 59.8265C30.021 59.2721 30.3063 58.8229 30.6585 58.8229C31.0107 58.8229 31.2959 59.2721 31.2959 59.8265C31.2959 60.3809 31.0107 60.8303 30.6585 60.8303Z" fill="white"/>
<rect x="11.3002" y="54.8998" width="36.7" height="13.3" rx="1.2" stroke="white" stroke-width="0.8"/>
<rect x="28.5996" y="4.7998" width="2" height="2" rx="1" stroke="white" stroke-width="0.3"/>
<rect x="27.8498" y="4.05" width="3.5" height="3.5" rx="0.75" stroke="white" stroke-width="0.1"/>
</g>
<defs>
<filter id="filter0_d_513_1899" x="-2.1001" y="-2" width="69.5" height="76.8999" filterUnits="userSpaceOnUse" color-interpolation-filters="sRGB">
<feFlood flood-opacity="0" result="BackgroundImageFix"/>
<feColorMatrix in="SourceAlpha" type="matrix" values="0 0 0 0 0 0 0 0 0 0 0 0 0 0 0 0 0 0 127 0" result="hardAlpha"/>
<feOffset dx="3" dy="6"/>
<feGaussianBlur stdDeviation="8"/>
<feComposite in2="hardAlpha" operator="out"/>
<feColorMatrix type="matrix" values="0 0 0 0 0 0 0 0 0 0 0 0 0 0 0 0 0 0 0.4 0"/>
<feBlend mode="normal" in2="BackgroundImageFix" result="effect1_dropShadow_513_1899"/>
<feBlend mode="normal" in="SourceGraphic" in2="effect1_dropShadow_513_1899" result="shape"/>
</filter>
<filter id="filter1_d_513_1899" x="9.2999" y="6.8" width="40.7" height="8.8001" filterUnits="userSpaceOnUse" color-interpolation-filters="sRGB">
<feFlood flood-opacity="0" result="BackgroundImageFix"/>
<feColorMatrix in="SourceAlpha" type="matrix" values="0 0 0 0 0 0 0 0 0 0 0 0 0 0 0 0 0 0 127 0" result="hardAlpha"/>
<feOffset dy="0.4"/>
<feGaussianBlur stdDeviation="0.8"/>
<feComposite in2="hardAlpha" operator="out"/>
<feColorMatrix type="matrix" values="0 0 0 0 0.12549 0 0 0 0 0.172549 0 0 0 0 0.266667 0 0 0 0.1 0"/>
<feBlend mode="normal" in2="BackgroundImageFix" result="effect1_dropShadow_513_1899"/>
<feBlend mode="normal" in="SourceGraphic" in2="effect1_dropShadow_513_1899" result="shape"/>
</filter>
<clipPath id="clip0_513_1899">
<rect width="120" height="80" fill="white"/>
</clipPath>
<clipPath id="clip1_513_1899">
<rect width="142" height="96" fill="white" transform="translate(-11)"/>
</clipPath>
<clipPath id="clip2_513_1899">
<rect x="10.8999" y="8" width="37.5" height="44.9" rx="1.6" fill="white"/>
</clipPath>
<clipPath id="clip3_513_1899">
<rect x="10.8999" y="8" width="37.5" height="44.9" rx="1.2" fill="white"/>
</clipPath>
<clipPath id="clip4_513_1899">
<rect width="2.4" height="2.4" fill="white" transform="translate(44.3999 9.6001)"/>
</clipPath>
</defs>
</svg>
