<svg width="1200" height="800" viewBox="0 0 1200 800" fill="none" xmlns="http://www.w3.org/2000/svg">
<g clip-path="url(#clip0_513_1900)">
<rect width="1200" height="800" fill="white"/>
<rect width="1200" height="79" transform="translate(0 103)" fill="#E4EBF2"/>
<rect x="110" y="142" width="120" height="20" rx="10" fill="#8FA1B3"/>
<rect x="697" y="149" width="68" height="6" rx="3" fill="#8FA1B3"/>
<rect x="769" y="149" width="46" height="6" rx="3" fill="#8FA1B3"/>
<rect opacity="0.5" x="831" y="146" width="1" height="12" rx="0.5" fill="#8FA1B3"/>
<rect x="848" y="149" width="44" height="6" rx="3" fill="#8FA1B3"/>
<rect x="896" y="149" width="56" height="6" rx="3" fill="#8FA1B3"/>
<rect x="980" y="149" width="44" height="6" rx="3" fill="#8FA1B3"/>
<rect x="968.5" y="134.5" width="67" height="35" rx="7.5" stroke="#B8C2CC"/>
<rect x="1064" y="145" width="14" height="14" rx="7" fill="#8FA1B3"/>
<rect x="1052.5" y="134.5" width="37" height="35" rx="7.5" stroke="#B8C2CC"/>
<rect x="110" y="114" width="68" height="6" rx="3" fill="#8FA1B3"/>
<rect x="182" y="114" width="46" height="6" rx="3" fill="#8FA1B3"/>
<rect x="232" y="114" width="33" height="6" rx="3" fill="#8FA1B3"/>
<rect opacity="0.5" x="281" y="111" width="1" height="12" rx="0.5" fill="#8FA1B3"/>
<rect x="298" y="114" width="36" height="6" rx="3" fill="#8FA1B3"/>
<rect x="338" y="114" width="68" height="6" rx="3" fill="#8FA1B3"/>
<rect x="410" y="114" width="33" height="6" rx="3" fill="#8FA1B3"/>
<rect opacity="0.5" x="459" y="111" width="1" height="12" rx="0.5" fill="#8FA1B3"/>
<rect x="476" y="114" width="33" height="6" rx="3" fill="#8FA1B3"/>
<rect x="513" y="114" width="68" height="6" rx="3" fill="#8FA1B3"/>
<rect opacity="0.5" x="597" y="111" width="1" height="12" rx="0.5" fill="#8FA1B3"/>
<rect x="614" y="114" width="68" height="6" rx="3" fill="#8FA1B3"/>
<rect x="686" y="114" width="90" height="6" rx="3" fill="#8FA1B3"/>
<rect x="780" y="114" width="46" height="6" rx="3" fill="#8FA1B3"/>
<rect x="830" y="114" width="33" height="6" rx="3" fill="#8FA1B3"/>
<rect x="110" y="194" width="980" height="111" rx="6" fill="#8FA1B3"/>
<path d="M587.12 264.046L598.114 253.052C598.774 252.392 599.105 252.062 599.485 251.939C599.82 251.83 600.18 251.83 600.515 251.939C600.896 252.062 601.226 252.392 601.886 253.052L612.807 263.973M603.333 254.5L608.114 249.719C608.774 249.059 609.105 248.729 609.485 248.605C609.82 248.496 610.18 248.496 610.515 248.605C610.896 248.729 611.226 249.059 611.886 249.719L616.667 254.5M596.667 244.5C596.667 246.341 595.174 247.833 593.333 247.833C591.493 247.833 590 246.341 590 244.5C590 242.659 591.493 241.167 593.333 241.167C595.174 241.167 596.667 242.659 596.667 244.5ZM591.333 264.5H608.667C611.467 264.5 612.867 264.5 613.937 263.955C614.878 263.476 615.642 262.711 616.122 261.77C616.667 260.7 616.667 259.3 616.667 256.5V242.5C616.667 239.7 616.667 238.3 616.122 237.23C615.642 236.289 614.878 235.524 613.937 235.045C612.867 234.5 611.467 234.5 608.667 234.5H591.333C588.533 234.5 587.133 234.5 586.064 235.045C585.123 235.524 584.358 236.289 583.878 237.23C583.333 238.3 583.333 239.7 583.333 242.5V256.5C583.333 259.3 583.333 260.7 583.878 261.77C584.358 262.711 585.123 263.476 586.064 263.955C587.133 264.5 588.533 264.5 591.333 264.5Z" stroke="white" stroke-width="2" stroke-linecap="round" stroke-linejoin="round"/>
<rect x="110" y="317" width="181" height="197" rx="8" fill="#E4EBF2"/>
<rect x="167" y="345" width="66" height="6" rx="3" fill="#8FA1B3"/>
<rect x="126.5" y="333.5" width="147" height="29" rx="7.5" stroke="#B8C2CC"/>
<rect x="150" y="379" width="124" height="6" rx="3" fill="#8FA1B3"/>
<rect x="150" y="389" width="92" height="6" rx="3" fill="#8FA1B3"/>
<rect x="126" y="379" width="16" height="16" rx="3" fill="#8FA1B3"/>
<rect x="126" y="407" width="149" height="1" fill="#E4EBF2"/>
<rect x="150" y="424" width="124" height="6" rx="3" fill="#8FA1B3"/>
<rect x="150" y="434" width="92" height="6" rx="3" fill="#8FA1B3"/>
<rect x="126" y="424" width="16" height="16" rx="3" fill="#8FA1B3"/>
<rect x="126" y="452" width="149" height="1" fill="#E4EBF2"/>
<rect x="150" y="469" width="124" height="6" rx="3" fill="#8FA1B3"/>
<rect x="150" y="479" width="92" height="6" rx="3" fill="#8FA1B3"/>
<rect x="126" y="469" width="16" height="16" rx="3" fill="#8FA1B3"/>
<rect x="110" y="526" width="180" height="349" rx="8" fill="#E4EBF2"/>
<rect x="150" y="595" width="124" height="6" rx="3" fill="#8FA1B3"/>
<rect x="150" y="605" width="92" height="6" rx="3" fill="#8FA1B3"/>
<rect x="126" y="595" width="16" height="16" rx="3" fill="#8FA1B3"/>
<rect x="126" y="623" width="149" height="1" fill="#E4EBF2"/>
<rect x="150" y="640" width="124" height="6" rx="3" fill="#8FA1B3"/>
<rect x="150" y="650" width="92" height="6" rx="3" fill="#8FA1B3"/>
<rect x="126" y="640" width="16" height="16" rx="3" fill="#8FA1B3"/>
<rect x="126" y="668" width="149" height="1" fill="#E4EBF2"/>
<rect x="150" y="685" width="124" height="6" rx="3" fill="#8FA1B3"/>
<rect x="150" y="695" width="92" height="6" rx="3" fill="#8FA1B3"/>
<rect x="126" y="685" width="16" height="16" rx="3" fill="#8FA1B3"/>
<rect x="126" y="713" width="149" height="1" fill="#E4EBF2"/>
<rect x="150" y="730" width="124" height="6" rx="3" fill="#8FA1B3"/>
<rect x="150" y="740" width="92" height="6" rx="3" fill="#8FA1B3"/>
<rect x="126" y="730" width="16" height="16" rx="3" fill="#8FA1B3"/>
<rect x="126" y="758" width="149" height="1" fill="#E4EBF2"/>
<rect x="150" y="775" width="124" height="6" rx="3" fill="#8FA1B3"/>
<rect x="150" y="785" width="92" height="6" rx="3" fill="#8FA1B3"/>
<rect x="126" y="775" width="16" height="16" rx="3" fill="#8FA1B3"/>
<rect x="126" y="550" width="112" height="12" rx="6" fill="#8FA1B3"/>
<rect x="126" y="578" width="149" height="1" fill="#E4EBF2"/>
<rect x="860" y="317" width="230" height="235" rx="8" fill="#E4EBF2"/>
<rect x="876" y="333" width="112" height="12" rx="6" fill="#8FA1B3"/>
<rect x="876" y="361" width="198" height="1" fill="#E4EBF2"/>
<circle cx="879" cy="381" r="3" fill="#8FA1B3"/>
<rect x="890" y="378" width="177" height="6" rx="3" fill="#8FA1B3"/>
<rect x="890" y="388" width="137" height="6" rx="3" fill="#8FA1B3"/>
<circle cx="879" cy="413" r="3" fill="#8FA1B3"/>
<rect x="890" y="410" width="175" height="6" rx="3" fill="#8FA1B3"/>
<circle cx="879" cy="435" r="3" fill="#8FA1B3"/>
<rect x="890" y="432" width="158" height="6" rx="3" fill="#8FA1B3"/>
<circle cx="879" cy="457" r="3" fill="#8FA1B3"/>
<rect x="890" y="454" width="184" height="6" rx="3" fill="#8FA1B3"/>
<rect x="890" y="464" width="137" height="6" rx="3" fill="#8FA1B3"/>
<circle cx="879" cy="489" r="3" fill="#8FA1B3"/>
<rect x="890" y="486" width="95" height="6" rx="3" fill="#8FA1B3"/>
<circle cx="879" cy="511" r="3" fill="#8FA1B3"/>
<rect x="890" y="508" width="132" height="6" rx="3" fill="#8FA1B3"/>
<circle cx="879" cy="533" r="3" fill="#8FA1B3"/>
<rect x="890" y="530" width="130" height="6" rx="3" fill="#8FA1B3"/>
<rect x="860" y="564" width="230" height="178" rx="8" fill="#E4EBF2"/>
<rect x="868" y="576" width="63" height="12" rx="6" fill="#8FA1B3"/>
<rect x="868" y="596" width="214" height="134" rx="6" fill="#8FA1B3"/>
<path d="M962.12 677.546L973.114 666.552C973.774 665.892 974.105 665.562 974.485 665.439C974.82 665.33 975.18 665.33 975.515 665.439C975.896 665.562 976.226 665.892 976.886 666.552L987.807 677.473M978.333 668L983.114 663.219C983.774 662.559 984.105 662.229 984.485 662.105C984.82 661.996 985.18 661.996 985.515 662.105C985.896 662.229 986.226 662.559 986.886 663.219L991.667 668M971.667 658C971.667 659.841 970.174 661.333 968.333 661.333C966.493 661.333 965 659.841 965 658C965 656.159 966.493 654.667 968.333 654.667C970.174 654.667 971.667 656.159 971.667 658ZM966.333 678H983.667C986.467 678 987.867 678 988.937 677.455C989.878 676.976 990.642 676.211 991.122 675.27C991.667 674.2 991.667 672.8 991.667 670V656C991.667 653.2 991.667 651.8 991.122 650.73C990.642 649.789 989.878 649.024 988.937 648.545C987.867 648 986.467 648 983.667 648H966.333C963.533 648 962.133 648 961.064 648.545C960.123 649.024 959.358 649.789 958.878 650.73C958.333 651.8 958.333 653.2 958.333 656V670C958.333 672.8 958.333 674.2 958.878 675.27C959.358 676.211 960.123 676.976 961.064 677.455C962.133 678 963.533 678 966.333 678Z" stroke="white" stroke-width="2" stroke-linecap="round" stroke-linejoin="round"/>
<rect x="860" y="754" width="230" height="178" rx="8" fill="#E4EBF2"/>
<rect x="868" y="766" width="63" height="12" rx="6" fill="#8FA1B3"/>
<rect x="868" y="786" width="214" height="134" rx="6" fill="#8FA1B3"/>
<rect x="306" y="317" width="538" height="306" rx="8" fill="#E4EBF2"/>
<rect x="322" y="333" width="506" height="186" rx="6" fill="#8FA1B3"/>
<path d="M562.12 440.546L573.114 429.552C573.774 428.892 574.105 428.562 574.485 428.439C574.82 428.33 575.18 428.33 575.515 428.439C575.896 428.562 576.226 428.892 576.886 429.552L587.807 440.473M578.333 431L583.114 426.219C583.774 425.559 584.105 425.229 584.485 425.105C584.82 424.996 585.18 424.996 585.515 425.105C585.896 425.229 586.226 425.559 586.886 426.219L591.667 431M571.667 421C571.667 422.841 570.174 424.333 568.333 424.333C566.493 424.333 565 422.841 565 421C565 419.159 566.493 417.667 568.333 417.667C570.174 417.667 571.667 419.159 571.667 421ZM566.333 441H583.667C586.467 441 587.867 441 588.937 440.455C589.878 439.976 590.642 439.211 591.122 438.27C591.667 437.2 591.667 435.8 591.667 433V419C591.667 416.2 591.667 414.8 591.122 413.73C590.642 412.789 589.878 412.024 588.937 411.545C587.867 411 586.467 411 583.667 411H566.333C563.533 411 562.133 411 561.064 411.545C560.123 412.024 559.358 412.789 558.878 413.73C558.333 414.8 558.333 416.2 558.333 419V433C558.333 435.8 558.333 437.2 558.878 438.27C559.358 439.211 560.123 439.976 561.064 440.455C562.133 441 563.533 441 566.333 441Z" stroke="white" stroke-width="2" stroke-linecap="round" stroke-linejoin="round"/>
<rect x="322" y="543" width="229" height="12" rx="6" fill="#8FA1B3"/>
<rect x="322" y="567" width="418" height="8" rx="3" fill="#8FA1B3"/>
<rect x="322" y="581" width="418" height="8" rx="3" fill="#8FA1B3"/>
<rect x="322" y="601" width="29" height="6" rx="3" fill="#E4EBF2"/>
<rect x="306" y="635" width="538" height="106" rx="8" fill="#E4EBF2"/>
<rect x="314" y="643" width="120" height="90" rx="6" fill="#8FA1B3"/>
<path d="M361.12 702.546L372.114 691.552C372.774 690.892 373.105 690.562 373.485 690.439C373.82 690.33 374.18 690.33 374.515 690.439C374.896 690.562 375.226 690.892 375.886 691.552L386.807 702.473M377.333 693L382.114 688.219C382.774 687.559 383.105 687.229 383.485 687.105C383.82 686.996 384.18 686.996 384.515 687.105C384.896 687.229 385.226 687.559 385.886 688.219L390.667 693M370.667 683C370.667 684.841 369.174 686.333 367.333 686.333C365.493 686.333 364 684.841 364 683C364 681.159 365.493 679.667 367.333 679.667C369.174 679.667 370.667 681.159 370.667 683ZM365.333 703H382.667C385.467 703 386.867 703 387.937 702.455C388.878 701.976 389.642 701.211 390.122 700.27C390.667 699.2 390.667 697.8 390.667 695V681C390.667 678.2 390.667 676.8 390.122 675.73C389.642 674.789 388.878 674.024 387.937 673.545C386.867 673 385.467 673 382.667 673H365.333C362.533 673 361.133 673 360.064 673.545C359.123 674.024 358.358 674.789 357.878 675.73C357.333 676.8 357.333 678.2 357.333 681V695C357.333 697.8 357.333 699.2 357.878 700.27C358.358 701.211 359.123 701.976 360.064 702.455C361.133 703 362.533 703 365.333 703Z" stroke="white" stroke-width="2" stroke-linecap="round" stroke-linejoin="round"/>
<rect x="450" y="646" width="229" height="12" rx="6" fill="#8FA1B3"/>
<rect x="450" y="674" width="371" height="6" rx="3" fill="#8FA1B3"/>
<rect x="450" y="688" width="379" height="6" rx="3" fill="#8FA1B3"/>
<rect x="450" y="702" width="304" height="6" rx="3" fill="#8FA1B3"/>
<rect x="450" y="724" width="29" height="6" rx="3" fill="#E4EBF2"/>
<rect x="306" y="753" width="128.5" height="160" rx="8" fill="#E4EBF2"/>
<rect x="312" y="759" width="116.5" height="80" rx="6" fill="#8FA1B3"/>
<path d="M357.37 813.546L368.364 802.552C369.024 801.892 369.355 801.562 369.735 801.439C370.07 801.33 370.43 801.33 370.765 801.439C371.146 801.562 371.476 801.892 372.136 802.552L383.057 813.473M373.583 804L378.364 799.219C379.024 798.559 379.355 798.229 379.735 798.105C380.07 797.996 380.43 797.996 380.765 798.105C381.146 798.229 381.476 798.559 382.136 799.219L386.917 804M366.917 794C366.917 795.841 365.424 797.333 363.583 797.333C361.743 797.333 360.25 795.841 360.25 794C360.25 792.159 361.743 790.667 363.583 790.667C365.424 790.667 366.917 792.159 366.917 794ZM361.583 814H378.917C381.717 814 383.117 814 384.187 813.455C385.128 812.976 385.892 812.211 386.372 811.27C386.917 810.2 386.917 808.8 386.917 806V792C386.917 789.2 386.917 787.8 386.372 786.73C385.892 785.789 385.128 785.024 384.187 784.545C383.117 784 381.717 784 378.917 784H361.583C358.783 784 357.383 784 356.314 784.545C355.373 785.024 354.608 785.789 354.128 786.73C353.583 787.8 353.583 789.2 353.583 792V806C353.583 808.8 353.583 810.2 354.128 811.27C354.608 812.211 355.373 812.976 356.314 813.455C357.383 814 358.783 814 361.583 814Z" stroke="white" stroke-width="2" stroke-linecap="round" stroke-linejoin="round"/>
<rect x="442.5" y="753" width="128.5" height="160" rx="8" fill="#E4EBF2"/>
<rect x="448.5" y="759" width="116.5" height="80" rx="6" fill="#8FA1B3"/>
<path d="M493.87 813.546L504.864 802.552C505.524 801.892 505.855 801.562 506.235 801.439C506.57 801.33 506.93 801.33 507.265 801.439C507.646 801.562 507.976 801.892 508.636 802.552L519.557 813.473M510.083 804L514.864 799.219C515.524 798.559 515.855 798.229 516.235 798.105C516.57 797.996 516.93 797.996 517.265 798.105C517.646 798.229 517.976 798.559 518.636 799.219L523.417 804M503.417 794C503.417 795.841 501.924 797.333 500.083 797.333C498.243 797.333 496.75 795.841 496.75 794C496.75 792.159 498.243 790.667 500.083 790.667C501.924 790.667 503.417 792.159 503.417 794ZM498.083 814H515.417C518.217 814 519.617 814 520.687 813.455C521.628 812.976 522.392 812.211 522.872 811.27C523.417 810.2 523.417 808.8 523.417 806V792C523.417 789.2 523.417 787.8 522.872 786.73C522.392 785.789 521.628 785.024 520.687 784.545C519.617 784 518.217 784 515.417 784H498.083C495.283 784 493.883 784 492.814 784.545C491.873 785.024 491.108 785.789 490.628 786.73C490.083 787.8 490.083 789.2 490.083 792V806C490.083 808.8 490.083 810.2 490.628 811.27C491.108 812.211 491.873 812.976 492.814 813.455C493.883 814 495.283 814 498.083 814Z" stroke="white" stroke-width="2" stroke-linecap="round" stroke-linejoin="round"/>
<rect x="579" y="753" width="128.5" height="160" rx="8" fill="#E4EBF2"/>
<rect x="585" y="759" width="116.5" height="80" rx="6" fill="#8FA1B3"/>
<path d="M630.37 813.546L641.364 802.552C642.024 801.892 642.355 801.562 642.735 801.439C643.07 801.33 643.43 801.33 643.765 801.439C644.146 801.562 644.476 801.892 645.136 802.552L656.057 813.473M646.583 804L651.364 799.219C652.024 798.559 652.355 798.229 652.735 798.105C653.07 797.996 653.43 797.996 653.765 798.105C654.146 798.229 654.476 798.559 655.136 799.219L659.917 804M639.917 794C639.917 795.841 638.424 797.333 636.583 797.333C634.743 797.333 633.25 795.841 633.25 794C633.25 792.159 634.743 790.667 636.583 790.667C638.424 790.667 639.917 792.159 639.917 794ZM634.583 814H651.917C654.717 814 656.117 814 657.187 813.455C658.128 812.976 658.892 812.211 659.372 811.27C659.917 810.2 659.917 808.8 659.917 806V792C659.917 789.2 659.917 787.8 659.372 786.73C658.892 785.789 658.128 785.024 657.187 784.545C656.117 784 654.717 784 651.917 784H634.583C631.783 784 630.383 784 629.314 784.545C628.373 785.024 627.608 785.789 627.128 786.73C626.583 787.8 626.583 789.2 626.583 792V806C626.583 808.8 626.583 810.2 627.128 811.27C627.608 812.211 628.373 812.976 629.314 813.455C630.383 814 631.783 814 634.583 814Z" stroke="white" stroke-width="2" stroke-linecap="round" stroke-linejoin="round"/>
<rect x="715.5" y="753" width="128.5" height="160" rx="8" fill="#E4EBF2"/>
<rect x="721.5" y="759" width="116.5" height="80" rx="6" fill="#8FA1B3"/>
<path d="M766.87 813.546L777.864 802.552C778.524 801.892 778.855 801.562 779.235 801.439C779.57 801.33 779.93 801.33 780.265 801.439C780.646 801.562 780.976 801.892 781.636 802.552L792.557 813.473M783.083 804L787.864 799.219C788.524 798.559 788.855 798.229 789.235 798.105C789.57 797.996 789.93 797.996 790.265 798.105C790.646 798.229 790.976 798.559 791.636 799.219L796.417 804M776.417 794C776.417 795.841 774.924 797.333 773.083 797.333C771.243 797.333 769.75 795.841 769.75 794C769.75 792.159 771.243 790.667 773.083 790.667C774.924 790.667 776.417 792.159 776.417 794ZM771.083 814H788.417C791.217 814 792.617 814 793.687 813.455C794.628 812.976 795.392 812.211 795.872 811.27C796.417 810.2 796.417 808.8 796.417 806V792C796.417 789.2 796.417 787.8 795.872 786.73C795.392 785.789 794.628 785.024 793.687 784.545C792.617 784 791.217 784 788.417 784H771.083C768.283 784 766.883 784 765.814 784.545C764.873 785.024 764.108 785.789 763.628 786.73C763.083 787.8 763.083 789.2 763.083 792V806C763.083 808.8 763.083 810.2 763.628 811.27C764.108 812.211 764.873 812.976 765.814 813.455C766.883 814 768.283 814 771.083 814Z" stroke="white" stroke-width="2" stroke-linecap="round" stroke-linejoin="round"/>
<rect width="1200" height="103" fill="#8FA1B2"/>
<rect x="32" y="24" width="71" height="28" rx="14" fill="#8FA1B3"/>
<rect x="799" y="26" width="1" height="23" fill="#E4EBF2"/>
<rect x="327" y="21" width="545" height="34" rx="17" stroke="#B8C2CC" stroke-width="2"/>
<rect x="341" y="35" width="147" height="6" rx="3" fill="#E4EBF2"/>
<rect x="774" y="31" width="12" height="12" rx="3" fill="#E4EBF2"/>
<rect x="813" y="31" width="12" height="12" rx="3" fill="#E4EBF2"/>
<rect x="843" y="31" width="12" height="12" rx="3" fill="#E4EBF2"/>
<rect opacity="0.5" width="1200" height="800" fill="#04192D"/>
<rect x="286" y="28" width="20" height="20" rx="10" stroke="white" stroke-width="3"/>
<rect x="278.5" y="20.5" width="35" height="35" rx="7.5" stroke="white"/>
<g filter="url(#filter0_d_513_1900)">
<g clip-path="url(#clip1_513_1900)">
<rect x="109" y="60" width="375" height="449" rx="16" fill="white"/>
<g clip-path="url(#clip2_513_1900)">
<rect x="109" y="60" width="375" height="449" rx="12" fill="white"/>
<g filter="url(#filter1_d_513_1900)">
<path d="M109 76C109 67.1634 116.163 60 125 60H468C476.837 60 484 67.1634 484 76V116H109V76Z" fill="white" shape-rendering="crispEdges"/>
<path fill-rule="evenodd" clip-rule="evenodd" d="M144.5 86.5C144.5 90.6421 141.142 94 137 94C132.858 94 129.5 90.6421 129.5 86.5C129.5 82.3579 132.858 79 137 79C141.142 79 144.5 82.3579 144.5 86.5Z" fill="white"/>
<path fill-rule="evenodd" clip-rule="evenodd" d="M146.906 95.9302C145.911 93.6415 145.74 91.7022 145.713 90.9403V84.6712C145.713 79.8821 141.811 76 136.998 76C132.185 76 128.283 79.8821 128.283 84.6712V91.0309C128.246 91.8507 128.051 93.7306 127.094 95.9302C125.808 98.8858 126.872 98.5335 127.825 98.2904C128.779 98.0482 130.908 97.0989 131.573 98.2683C132.238 99.4372 132.792 100.452 134.344 99.7904C135.896 99.1288 136.628 98.9083 136.849 98.9083H137.151C137.372 98.9083 138.104 99.1288 139.656 99.7904C141.208 100.452 141.762 99.4372 142.428 98.2683C143.092 97.0989 145.221 98.0482 146.175 98.2904C147.128 98.5335 148.192 98.8858 146.906 95.9302ZM134.309 80.7282C135.247 80.7282 136.008 81.9262 136.008 83.4046C136.008 84.8828 135.247 86.0813 134.309 86.0813C133.37 86.0813 132.609 84.8828 132.609 83.4046C132.609 81.9262 133.37 80.7282 134.309 80.7282ZM136.998 91.4259C134.93 91.4259 133.189 89.4004 132.664 87.1466C133.678 88.5328 135.242 89.4237 136.998 89.4237C138.755 89.4237 140.319 88.5328 141.333 87.1466C140.808 89.4004 139.066 91.4259 136.998 91.4259ZM139.688 86.0813C138.749 86.0813 137.988 84.8828 137.988 83.4046C137.988 81.9262 138.749 80.7282 139.688 80.7282C140.628 80.7282 141.388 81.9262 141.388 83.4046C141.388 84.8828 140.628 86.0813 139.688 86.0813Z" fill="#00AEF0"/>
<rect x="232" y="79" width="129" height="18" rx="9" fill="#8FA1B3"/>
<path d="M447 88H465M447 82H465M447 94H465" stroke="#202C44" stroke-width="2" stroke-linecap="round" stroke-linejoin="round"/>
</g>
<rect width="375" height="393" transform="translate(109 116)" fill="white"/>
<path d="M388.167 312.5C388.167 324.538 385.796 336.458 381.189 347.579C376.582 358.701 369.83 368.806 361.318 377.318C352.806 385.83 342.701 392.582 331.579 397.189C320.458 401.796 308.538 404.167 296.5 404.167C284.462 404.167 272.542 401.796 261.421 397.189C250.299 392.582 240.194 385.83 231.682 377.318C223.17 368.806 216.418 358.701 211.811 347.579C207.205 336.458 204.833 324.538 204.833 312.5C204.833 300.462 207.205 288.542 211.811 277.421C216.418 266.299 223.17 256.194 231.682 247.682C240.194 239.17 250.299 232.418 261.421 227.811C272.542 223.205 284.462 220.833 296.5 220.833C308.538 220.833 320.458 223.205 331.579 227.811C342.701 232.418 352.806 239.17 361.318 247.682C369.83 256.194 376.582 266.299 381.189 277.421C385.796 288.542 388.167 300.462 388.167 312.5L388.167 312.5Z" stroke="white" stroke-width="36.6667" stroke-linecap="round" stroke-linejoin="round"/>
<path d="M296.5 220.833C280.409 220.833 264.602 225.069 250.667 233.115C236.732 241.16 225.16 252.732 217.114 266.667" stroke="#C3CAD9" stroke-width="18.3333" stroke-linecap="round" stroke-linejoin="round"/>
<path d="M207.957 288.775C203.792 304.318 203.792 320.683 207.957 336.225" stroke="#EF671E" stroke-width="18.3333" stroke-linecap="round" stroke-linejoin="round"/>
<path d="M217.115 358.333C221.12 365.271 226.018 371.654 231.682 377.318" stroke="#8459A5" stroke-width="18.3333" stroke-linecap="round" stroke-linejoin="round"/>
<path d="M250.667 391.886C261.092 397.905 272.6 401.811 284.535 403.383C296.47 404.954 308.598 404.159 320.225 401.043" stroke="#FC9734" stroke-width="18.3333" stroke-linecap="round" stroke-linejoin="round"/>
<path d="M342.333 391.886C356.269 383.84 367.84 372.269 375.886 358.333" stroke="#556FCD" stroke-width="18.3333" stroke-linecap="round" stroke-linejoin="round"/>
<path d="M385.043 336.225C388.159 324.598 388.954 312.47 387.383 300.535C385.811 288.6 381.905 277.092 375.886 266.667" stroke="#87D7EF" stroke-width="18.3333" stroke-linecap="round" stroke-linejoin="round"/>
<path d="M361.318 247.682C349.94 236.304 335.768 228.122 320.225 223.957" stroke="#CB55CD" stroke-width="18.3333" stroke-linecap="round" stroke-linejoin="round"/>
<path d="M254.857 337.667V330.687L273.372 312.536C275.143 310.748 276.619 309.16 277.799 307.771C278.98 306.382 279.865 305.036 280.456 303.734C281.046 302.432 281.341 301.043 281.341 299.568C281.341 297.884 280.959 296.443 280.195 295.245C279.431 294.029 278.381 293.092 277.044 292.432C275.707 291.772 274.188 291.443 272.487 291.443C270.733 291.443 269.197 291.807 267.877 292.536C266.558 293.248 265.534 294.264 264.805 295.583C264.093 296.903 263.737 298.474 263.737 300.297H254.544C254.544 296.911 255.317 293.969 256.862 291.469C258.407 288.969 260.534 287.033 263.242 285.661C265.968 284.29 269.093 283.604 272.617 283.604C276.193 283.604 279.336 284.272 282.044 285.609C284.752 286.946 286.853 288.778 288.346 291.104C289.857 293.43 290.612 296.087 290.612 299.073C290.612 301.069 290.23 303.031 289.466 304.958C288.702 306.885 287.357 309.021 285.43 311.364C283.52 313.708 280.838 316.547 277.383 319.88L268.19 329.229V329.594H291.419V337.667H254.857ZM319.935 338.396C317.383 338.378 314.891 337.936 312.461 337.068C310.03 336.182 307.843 334.75 305.898 332.771C303.954 330.774 302.409 328.127 301.263 324.828C300.117 321.512 299.553 317.406 299.57 312.51C299.57 307.944 300.056 303.873 301.028 300.297C302.001 296.72 303.398 293.699 305.221 291.234C307.044 288.752 309.24 286.859 311.81 285.557C314.397 284.255 317.287 283.604 320.482 283.604C323.832 283.604 326.801 284.264 329.388 285.583C331.992 286.903 334.093 288.708 335.69 291C337.287 293.274 338.277 295.844 338.659 298.708H329.153C328.667 296.66 327.669 295.028 326.159 293.812C324.666 292.58 322.773 291.963 320.482 291.963C316.784 291.963 313.936 293.569 311.94 296.781C309.961 299.993 308.963 304.403 308.945 310.01H309.31C310.16 308.482 311.263 307.172 312.617 306.078C313.971 304.984 315.499 304.142 317.2 303.552C318.919 302.944 320.733 302.64 322.643 302.64C325.768 302.64 328.572 303.387 331.055 304.88C333.555 306.373 335.534 308.43 336.992 311.052C338.45 313.656 339.171 316.642 339.153 320.01C339.171 323.517 338.372 326.668 336.758 329.463C335.143 332.241 332.895 334.429 330.013 336.026C327.131 337.623 323.772 338.413 319.935 338.396ZM319.883 330.583C321.775 330.583 323.468 330.123 324.961 329.203C326.454 328.283 327.634 327.042 328.502 325.479C329.37 323.917 329.796 322.163 329.778 320.219C329.796 318.309 329.379 316.581 328.528 315.036C327.695 313.491 326.541 312.267 325.065 311.364C323.589 310.462 321.905 310.01 320.013 310.01C318.607 310.01 317.296 310.279 316.081 310.818C314.865 311.356 313.806 312.102 312.903 313.057C312.001 313.995 311.289 315.088 310.768 316.338C310.265 317.571 310.004 318.89 309.987 320.297C310.004 322.154 310.438 323.864 311.289 325.427C312.14 326.989 313.311 328.239 314.805 329.177C316.298 330.114 317.99 330.583 319.883 330.583Z" fill="#202C44"/>
</g>
</g>
</g>
<rect x="113" y="519" width="367" height="133" rx="12" fill="#00AEF0"/>
<path fill-rule="evenodd" clip-rule="evenodd" d="M306.5 557.5C306.5 563.023 302.023 567.5 296.5 567.5C290.977 567.5 286.5 563.023 286.5 557.5C286.5 551.977 290.977 547.5 296.5 547.5C302.023 547.5 306.5 551.977 306.5 557.5Z" fill="#00AEF0"/>
<path fill-rule="evenodd" clip-rule="evenodd" d="M309.708 570.074C308.381 567.022 308.153 564.436 308.117 563.42V555.062C308.117 548.676 302.915 543.5 296.498 543.5C290.08 543.5 284.878 548.676 284.878 555.062V563.541C284.828 564.634 284.568 567.141 283.292 570.074C281.577 574.014 282.996 573.545 284.267 573.221C285.538 572.898 288.377 571.632 289.264 573.191C290.15 574.75 290.89 576.103 292.959 575.221C295.029 574.338 296.004 574.044 296.299 574.044H296.701C296.996 574.044 297.972 574.338 300.041 575.221C302.111 576.103 302.85 574.75 303.737 573.191C304.623 571.632 307.462 572.898 308.733 573.221C310.004 573.545 311.423 574.014 309.708 570.074ZM292.911 549.804C294.163 549.804 295.178 551.402 295.178 553.373C295.178 555.344 294.163 556.942 292.911 556.942C291.66 556.942 290.645 555.344 290.645 553.373C290.645 551.402 291.66 549.804 292.911 549.804ZM296.498 564.068C293.74 564.068 291.419 561.367 290.719 558.362C292.07 560.21 294.156 561.398 296.498 561.398C298.84 561.398 300.925 560.21 302.277 558.362C301.577 561.367 299.255 564.068 296.498 564.068ZM300.084 556.942C298.832 556.942 297.818 555.344 297.818 553.373C297.818 551.402 298.832 549.804 300.084 549.804C301.337 549.804 302.351 551.402 302.351 553.373C302.351 555.344 301.337 556.942 300.084 556.942Z" fill="white"/>
<path d="M150.282 592.545C150.158 592.157 149.992 591.81 149.783 591.503C149.579 591.192 149.334 590.928 149.048 590.71C148.763 590.489 148.437 590.32 148.07 590.205C147.708 590.09 147.31 590.033 146.875 590.033C146.138 590.033 145.473 590.222 144.881 590.602C144.288 590.981 143.82 591.537 143.474 592.27C143.134 592.999 142.963 593.891 142.963 594.948C142.963 596.009 143.136 596.906 143.481 597.639C143.826 598.372 144.299 598.928 144.9 599.308C145.501 599.687 146.185 599.876 146.952 599.876C147.663 599.876 148.283 599.732 148.812 599.442C149.344 599.152 149.756 598.743 150.045 598.214C150.339 597.682 150.487 597.055 150.487 596.335L150.998 596.431H147.252V594.801H152.398V596.29C152.398 597.39 152.163 598.344 151.695 599.154C151.23 599.96 150.587 600.582 149.764 601.021C148.946 601.46 148.009 601.679 146.952 601.679C145.767 601.679 144.727 601.406 143.832 600.861C142.942 600.315 142.247 599.542 141.749 598.54C141.25 597.535 141.001 596.342 141.001 594.961C141.001 593.917 141.146 592.979 141.435 592.148C141.725 591.317 142.132 590.612 142.656 590.033C143.185 589.449 143.805 589.004 144.516 588.697C145.232 588.386 146.014 588.23 146.862 588.23C147.57 588.23 148.228 588.335 148.837 588.543C149.451 588.752 149.996 589.048 150.474 589.432C150.955 589.815 151.354 590.271 151.669 590.8C151.984 591.324 152.197 591.906 152.308 592.545H150.282ZM156.663 595.67V601.5H154.752V588.409H156.637V593.28H156.759C156.989 592.751 157.34 592.332 157.813 592.021C158.286 591.71 158.904 591.554 159.667 591.554C160.34 591.554 160.928 591.692 161.431 591.969C161.938 592.246 162.33 592.66 162.607 593.21C162.889 593.755 163.029 594.437 163.029 595.255V601.5H161.118V595.485C161.118 594.765 160.933 594.207 160.562 593.81C160.191 593.41 159.676 593.21 159.015 593.21C158.563 593.21 158.159 593.305 157.801 593.497C157.447 593.689 157.168 593.97 156.963 594.341C156.763 594.707 156.663 595.151 156.663 595.67ZM169.715 601.698C168.795 601.698 167.992 601.487 167.306 601.065C166.619 600.643 166.087 600.053 165.708 599.295C165.328 598.536 165.139 597.65 165.139 596.636C165.139 595.617 165.328 594.727 165.708 593.964C166.087 593.201 166.619 592.609 167.306 592.187C167.992 591.765 168.795 591.554 169.715 591.554C170.636 591.554 171.439 591.765 172.125 592.187C172.811 592.609 173.344 593.201 173.723 593.964C174.102 594.727 174.292 595.617 174.292 596.636C174.292 597.65 174.102 598.536 173.723 599.295C173.344 600.053 172.811 600.643 172.125 601.065C171.439 601.487 170.636 601.698 169.715 601.698ZM169.722 600.094C170.318 600.094 170.813 599.936 171.205 599.621C171.597 599.305 171.887 598.886 172.074 598.362C172.266 597.837 172.362 597.26 172.362 596.629C172.362 596.003 172.266 595.428 172.074 594.903C171.887 594.375 171.597 593.951 171.205 593.631C170.813 593.312 170.318 593.152 169.722 593.152C169.121 593.152 168.622 593.312 168.226 593.631C167.834 593.951 167.542 594.375 167.35 594.903C167.163 595.428 167.069 596.003 167.069 596.629C167.069 597.26 167.163 597.837 167.35 598.362C167.542 598.886 167.834 599.305 168.226 599.621C168.622 599.936 169.121 600.094 169.722 600.094ZM183.783 594.079L182.05 594.386C181.978 594.164 181.863 593.953 181.705 593.753C181.552 593.553 181.343 593.388 181.079 593.261C180.815 593.133 180.484 593.069 180.088 593.069C179.547 593.069 179.095 593.19 178.733 593.433C178.371 593.672 178.19 593.981 178.19 594.36C178.19 594.688 178.311 594.952 178.554 595.153C178.797 595.353 179.189 595.517 179.73 595.645L181.29 596.003C182.193 596.212 182.866 596.533 183.31 596.968C183.753 597.403 183.974 597.967 183.974 598.662C183.974 599.25 183.804 599.774 183.463 600.234C183.126 600.69 182.656 601.048 182.05 601.308C181.45 601.568 180.753 601.698 179.96 601.698C178.861 601.698 177.964 601.464 177.269 600.995C176.575 600.522 176.148 599.851 175.991 598.982L177.838 598.7C177.953 599.182 178.19 599.546 178.548 599.793C178.906 600.036 179.372 600.158 179.947 600.158C180.574 600.158 181.075 600.028 181.45 599.768C181.825 599.504 182.012 599.182 182.012 598.803C182.012 598.496 181.897 598.238 181.667 598.029C181.441 597.82 181.094 597.663 180.625 597.556L178.963 597.192C178.047 596.983 177.369 596.651 176.93 596.195C176.496 595.739 176.278 595.161 176.278 594.462C176.278 593.883 176.44 593.376 176.764 592.941C177.088 592.506 177.536 592.168 178.107 591.925C178.678 591.678 179.332 591.554 180.069 591.554C181.13 591.554 181.965 591.784 182.575 592.244C183.184 592.7 183.587 593.312 183.783 594.079ZM190.659 591.682V593.216H185.296V591.682H190.659ZM186.734 589.33H188.645V598.617C188.645 598.988 188.701 599.267 188.812 599.455C188.922 599.638 189.065 599.763 189.24 599.832C189.419 599.896 189.613 599.928 189.822 599.928C189.975 599.928 190.109 599.917 190.224 599.896C190.339 599.874 190.429 599.857 190.493 599.844L190.838 601.423C190.727 601.466 190.569 601.509 190.365 601.551C190.16 601.598 189.905 601.624 189.598 601.628C189.095 601.636 188.626 601.547 188.192 601.359C187.757 601.172 187.405 600.882 187.137 600.49C186.868 600.098 186.734 599.606 186.734 599.013V589.33ZM196.899 601.698C195.932 601.698 195.099 601.491 194.4 601.078C193.705 600.661 193.168 600.075 192.789 599.32C192.414 598.562 192.227 597.673 192.227 596.655C192.227 595.649 192.414 594.763 192.789 593.996C193.168 593.229 193.697 592.63 194.374 592.2C195.056 591.769 195.853 591.554 196.765 591.554C197.319 591.554 197.856 591.646 198.376 591.829C198.896 592.012 199.362 592.3 199.776 592.692C200.189 593.084 200.515 593.593 200.754 594.219C200.992 594.842 201.112 595.598 201.112 596.489V597.166H193.307V595.734H199.239C199.239 595.232 199.136 594.786 198.932 594.398C198.727 594.006 198.44 593.697 198.069 593.472C197.702 593.246 197.272 593.133 196.778 593.133C196.241 593.133 195.772 593.265 195.371 593.529C194.975 593.789 194.668 594.13 194.451 594.552C194.238 594.969 194.131 595.423 194.131 595.913V597.032C194.131 597.688 194.246 598.246 194.477 598.707C194.711 599.167 195.037 599.518 195.455 599.761C195.872 600 196.36 600.119 196.918 600.119C197.281 600.119 197.611 600.068 197.909 599.966C198.207 599.859 198.465 599.702 198.683 599.493C198.9 599.284 199.066 599.026 199.181 598.719L200.99 599.045C200.845 599.578 200.585 600.045 200.21 600.445C199.839 600.842 199.373 601.151 198.81 601.372C198.252 601.589 197.615 601.698 196.899 601.698ZM203.232 601.5V591.682H205.079V593.241H205.182C205.361 592.713 205.676 592.298 206.128 591.995C206.584 591.688 207.099 591.535 207.675 591.535C207.794 591.535 207.934 591.539 208.096 591.548C208.263 591.556 208.393 591.567 208.486 591.58V593.408C208.41 593.386 208.273 593.363 208.077 593.337C207.881 593.308 207.685 593.293 207.489 593.293C207.037 593.293 206.635 593.388 206.281 593.58C205.932 593.768 205.655 594.03 205.45 594.366C205.246 594.699 205.143 595.078 205.143 595.504V601.5H203.232ZM211.647 605.182C211.362 605.182 211.102 605.158 210.867 605.112C210.633 605.069 210.458 605.022 210.343 604.971L210.803 603.405C211.153 603.499 211.464 603.539 211.737 603.526C212.009 603.513 212.25 603.411 212.459 603.219C212.672 603.028 212.86 602.714 213.021 602.28L213.258 601.628L209.666 591.682H211.711L214.198 599.301H214.3L216.786 591.682H218.838L214.792 602.81C214.605 603.322 214.366 603.754 214.076 604.108C213.786 604.466 213.441 604.734 213.041 604.913C212.64 605.092 212.176 605.182 211.647 605.182ZM232.755 594.079L231.023 594.386C230.951 594.164 230.836 593.953 230.678 593.753C230.525 593.553 230.316 593.388 230.051 593.261C229.787 593.133 229.457 593.069 229.061 593.069C228.52 593.069 228.068 593.19 227.706 593.433C227.343 593.672 227.162 593.981 227.162 594.36C227.162 594.688 227.284 594.952 227.527 595.153C227.77 595.353 228.162 595.517 228.703 595.645L230.262 596.003C231.166 596.212 231.839 596.533 232.282 596.968C232.725 597.403 232.947 597.967 232.947 598.662C232.947 599.25 232.777 599.774 232.436 600.234C232.099 600.69 231.628 601.048 231.023 601.308C230.422 601.568 229.725 601.698 228.933 601.698C227.833 601.698 226.936 601.464 226.242 600.995C225.547 600.522 225.121 599.851 224.963 598.982L226.811 598.7C226.926 599.182 227.162 599.546 227.52 599.793C227.878 600.036 228.345 600.158 228.92 600.158C229.547 600.158 230.047 600.028 230.422 599.768C230.797 599.504 230.985 599.182 230.985 598.803C230.985 598.496 230.87 598.238 230.64 598.029C230.414 597.82 230.066 597.663 229.598 597.556L227.936 597.192C227.02 596.983 226.342 596.651 225.903 596.195C225.468 595.739 225.251 595.161 225.251 594.462C225.251 593.883 225.413 593.376 225.737 592.941C226.061 592.506 226.508 592.168 227.079 591.925C227.65 591.678 228.304 591.554 229.042 591.554C230.103 591.554 230.938 591.784 231.547 592.244C232.157 592.7 232.559 593.312 232.755 594.079ZM236.96 595.67V601.5H235.048V588.409H236.934V593.28H237.056C237.286 592.751 237.637 592.332 238.11 592.021C238.583 591.71 239.201 591.554 239.964 591.554C240.637 591.554 241.225 591.692 241.728 591.969C242.235 592.246 242.627 592.66 242.904 593.21C243.186 593.755 243.326 594.437 243.326 595.255V601.5H241.415V595.485C241.415 594.765 241.23 594.207 240.859 593.81C240.488 593.41 239.972 593.21 239.312 593.21C238.86 593.21 238.455 593.305 238.097 593.497C237.744 593.689 237.465 593.97 237.26 594.341C237.06 594.707 236.96 595.151 236.96 595.67ZM250.012 601.698C249.092 601.698 248.289 601.487 247.602 601.065C246.916 600.643 246.384 600.053 246.004 599.295C245.625 598.536 245.436 597.65 245.436 596.636C245.436 595.617 245.625 594.727 246.004 593.964C246.384 593.201 246.916 592.609 247.602 592.187C248.289 591.765 249.092 591.554 250.012 591.554C250.933 591.554 251.736 591.765 252.422 592.187C253.108 592.609 253.641 593.201 254.02 593.964C254.399 594.727 254.589 595.617 254.589 596.636C254.589 597.65 254.399 598.536 254.02 599.295C253.641 600.053 253.108 600.643 252.422 601.065C251.736 601.487 250.933 601.698 250.012 601.698ZM250.019 600.094C250.615 600.094 251.11 599.936 251.502 599.621C251.894 599.305 252.183 598.886 252.371 598.362C252.563 597.837 252.659 597.26 252.659 596.629C252.659 596.003 252.563 595.428 252.371 594.903C252.183 594.375 251.894 593.951 251.502 593.631C251.11 593.312 250.615 593.152 250.019 593.152C249.418 593.152 248.919 593.312 248.523 593.631C248.131 593.951 247.839 594.375 247.647 594.903C247.46 595.428 247.366 596.003 247.366 596.629C247.366 597.26 247.46 597.837 247.647 598.362C247.839 598.886 248.131 599.305 248.523 599.621C248.919 599.936 249.418 600.094 250.019 600.094ZM258.552 601.5L255.663 591.682H257.638L259.562 598.892H259.658L261.588 591.682H263.563L265.481 598.86H265.577L267.488 591.682H269.463L266.58 601.5H264.631L262.637 594.411H262.49L260.495 601.5H258.552ZM278.634 594.079L276.902 594.386C276.83 594.164 276.714 593.953 276.557 593.753C276.403 593.553 276.195 593.388 275.93 593.261C275.666 593.133 275.336 593.069 274.94 593.069C274.398 593.069 273.947 593.19 273.585 593.433C273.222 593.672 273.041 593.981 273.041 594.36C273.041 594.688 273.163 594.952 273.406 595.153C273.648 595.353 274.04 595.517 274.582 595.645L276.141 596.003C277.045 596.212 277.718 596.533 278.161 596.968C278.604 597.403 278.826 597.967 278.826 598.662C278.826 599.25 278.656 599.774 278.315 600.234C277.978 600.69 277.507 601.048 276.902 601.308C276.301 601.568 275.604 601.698 274.812 601.698C273.712 601.698 272.815 601.464 272.121 600.995C271.426 600.522 271 599.851 270.842 598.982L272.69 598.7C272.805 599.182 273.041 599.546 273.399 599.793C273.757 600.036 274.224 600.158 274.799 600.158C275.425 600.158 275.926 600.028 276.301 599.768C276.676 599.504 276.864 599.182 276.864 598.803C276.864 598.496 276.749 598.238 276.518 598.029C276.293 597.82 275.945 597.663 275.477 597.556L273.815 597.192C272.898 596.983 272.221 596.651 271.782 596.195C271.347 595.739 271.13 595.161 271.13 594.462C271.13 593.883 271.292 593.376 271.616 592.941C271.94 592.506 272.387 592.168 272.958 591.925C273.529 591.678 274.183 591.554 274.92 591.554C275.982 591.554 276.817 591.784 277.426 592.244C278.036 592.7 278.438 593.312 278.634 594.079ZM287.82 601.5L284.93 591.682H286.906L288.83 598.892H288.925L290.856 591.682H292.831L294.749 598.86H294.844L296.756 591.682H298.731L295.848 601.5H293.898L291.904 594.411H291.757L289.763 601.5H287.82ZM302.456 595.67V601.5H300.545V588.409H302.43V593.28H302.552C302.782 592.751 303.133 592.332 303.606 592.021C304.079 591.71 304.697 591.554 305.46 591.554C306.133 591.554 306.721 591.692 307.224 591.969C307.731 592.246 308.123 592.66 308.4 593.21C308.682 593.755 308.822 594.437 308.822 595.255V601.5H306.911V595.485C306.911 594.765 306.726 594.207 306.355 593.81C305.984 593.41 305.469 593.21 304.808 593.21C304.356 593.21 303.952 593.305 303.594 593.497C303.24 593.689 302.961 593.97 302.756 594.341C302.556 594.707 302.456 595.151 302.456 595.67ZM315.604 601.698C314.637 601.698 313.804 601.491 313.105 601.078C312.41 600.661 311.873 600.075 311.494 599.32C311.119 598.562 310.932 597.673 310.932 596.655C310.932 595.649 311.119 594.763 311.494 593.996C311.873 593.229 312.402 592.63 313.079 592.2C313.761 591.769 314.558 591.554 315.47 591.554C316.024 591.554 316.561 591.646 317.081 591.829C317.601 592.012 318.067 592.3 318.481 592.692C318.894 593.084 319.22 593.593 319.459 594.219C319.697 594.842 319.817 595.598 319.817 596.489V597.166H312.012V595.734H317.944C317.944 595.232 317.841 594.786 317.637 594.398C317.432 594.006 317.145 593.697 316.774 593.472C316.407 593.246 315.977 593.133 315.483 593.133C314.946 593.133 314.477 593.265 314.077 593.529C313.68 593.789 313.373 594.13 313.156 594.552C312.943 594.969 312.836 595.423 312.836 595.913V597.032C312.836 597.688 312.952 598.246 313.182 598.707C313.416 599.167 313.742 599.518 314.16 599.761C314.577 600 315.065 600.119 315.623 600.119C315.986 600.119 316.316 600.068 316.614 599.966C316.912 599.859 317.17 599.702 317.388 599.493C317.605 599.284 317.771 599.026 317.886 598.719L319.695 599.045C319.55 599.578 319.29 600.045 318.915 600.445C318.545 600.842 318.078 601.151 317.515 601.372C316.957 601.589 316.32 601.698 315.604 601.698ZM326.169 601.698C325.201 601.698 324.368 601.491 323.669 601.078C322.975 600.661 322.438 600.075 322.059 599.32C321.684 598.562 321.496 597.673 321.496 596.655C321.496 595.649 321.684 594.763 322.059 593.996C322.438 593.229 322.966 592.63 323.644 592.2C324.326 591.769 325.123 591.554 326.034 591.554C326.588 591.554 327.125 591.646 327.645 591.829C328.165 592.012 328.632 592.3 329.045 592.692C329.458 593.084 329.784 593.593 330.023 594.219C330.262 594.842 330.381 595.598 330.381 596.489V597.166H322.576V595.734H328.508C328.508 595.232 328.406 594.786 328.201 594.398C327.997 594.006 327.709 593.697 327.338 593.472C326.972 593.246 326.542 593.133 326.047 593.133C325.51 593.133 325.042 593.265 324.641 593.529C324.245 593.789 323.938 594.13 323.721 594.552C323.507 594.969 323.401 595.423 323.401 595.913V597.032C323.401 597.688 323.516 598.246 323.746 598.707C323.98 599.167 324.306 599.518 324.724 599.761C325.142 600 325.63 600.119 326.188 600.119C326.55 600.119 326.88 600.068 327.179 599.966C327.477 599.859 327.735 599.702 327.952 599.493C328.169 599.284 328.336 599.026 328.451 598.719L330.26 599.045C330.115 599.578 329.855 600.045 329.48 600.445C329.109 600.842 328.642 601.151 328.08 601.372C327.522 601.589 326.885 601.698 326.169 601.698ZM334.413 588.409V601.5H332.502V588.409H334.413ZM343.876 601.5L340.987 591.682H342.962L344.886 598.892H344.982L346.912 591.682H348.888L350.805 598.86H350.901L352.812 591.682H354.787L351.905 601.5H349.955L347.961 594.411H347.814L345.819 601.5H343.876ZM356.601 601.5V591.682H358.512V601.5H356.601ZM357.566 590.167C357.234 590.167 356.949 590.056 356.71 589.835C356.475 589.609 356.358 589.34 356.358 589.029C356.358 588.714 356.475 588.445 356.71 588.224C356.949 587.998 357.234 587.885 357.566 587.885C357.899 587.885 358.182 587.998 358.417 588.224C358.655 588.445 358.775 588.714 358.775 589.029C358.775 589.34 358.655 589.609 358.417 589.835C358.182 590.056 357.899 590.167 357.566 590.167ZM365.667 591.682V593.216H360.304V591.682H365.667ZM361.742 589.33H363.653V598.617C363.653 598.988 363.709 599.267 363.819 599.455C363.93 599.638 364.073 599.763 364.248 599.832C364.427 599.896 364.621 599.928 364.829 599.928C364.983 599.928 365.117 599.917 365.232 599.896C365.347 599.874 365.437 599.857 365.501 599.844L365.846 601.423C365.735 601.466 365.577 601.509 365.373 601.551C365.168 601.598 364.912 601.624 364.606 601.628C364.103 601.636 363.634 601.547 363.199 601.359C362.765 601.172 362.413 600.882 362.145 600.49C361.876 600.098 361.742 599.606 361.742 599.013V589.33ZM369.903 595.67V601.5H367.992V588.409H369.877V593.28H369.999C370.229 592.751 370.581 592.332 371.054 592.021C371.527 591.71 372.145 591.554 372.907 591.554C373.581 591.554 374.169 591.692 374.672 591.969C375.179 592.246 375.571 592.66 375.848 593.21C376.129 593.755 376.27 594.437 376.27 595.255V601.5H374.358V595.485C374.358 594.765 374.173 594.207 373.802 593.81C373.431 593.41 372.916 593.21 372.255 593.21C371.804 593.21 371.399 593.305 371.041 593.497C370.687 593.689 370.408 593.97 370.203 594.341C370.003 594.707 369.903 595.151 369.903 595.67ZM388.167 591.682V593.216H382.804V591.682H388.167ZM384.242 589.33H386.153V598.617C386.153 598.988 386.209 599.267 386.319 599.455C386.43 599.638 386.573 599.763 386.748 599.832C386.927 599.896 387.121 599.928 387.329 599.928C387.483 599.928 387.617 599.917 387.732 599.896C387.847 599.874 387.937 599.857 388.001 599.844L388.346 601.423C388.235 601.466 388.077 601.509 387.873 601.551C387.668 601.598 387.412 601.624 387.106 601.628C386.603 601.636 386.134 601.547 385.699 601.359C385.265 601.172 384.913 600.882 384.645 600.49C384.376 600.098 384.242 599.606 384.242 599.013V589.33ZM390.281 601.5V591.682H392.128V593.241H392.23C392.409 592.713 392.725 592.298 393.176 591.995C393.632 591.688 394.148 591.535 394.723 591.535C394.843 591.535 394.983 591.539 395.145 591.548C395.311 591.556 395.441 591.567 395.535 591.58V593.408C395.458 593.386 395.322 593.363 395.126 593.337C394.93 593.308 394.734 593.293 394.538 593.293C394.086 593.293 393.684 593.388 393.33 593.58C392.98 593.768 392.703 594.03 392.499 594.366C392.294 594.699 392.192 595.078 392.192 595.504V601.5H390.281ZM399.958 601.717C399.336 601.717 398.774 601.602 398.271 601.372C397.768 601.138 397.37 600.799 397.076 600.356C396.786 599.913 396.641 599.369 396.641 598.726C396.641 598.172 396.748 597.716 396.961 597.358C397.174 597 397.461 596.717 397.824 596.508C398.186 596.299 398.591 596.141 399.038 596.035C399.485 595.928 399.941 595.847 400.406 595.792C400.994 595.724 401.471 595.668 401.838 595.626C402.204 595.579 402.471 595.504 402.637 595.402C402.803 595.3 402.886 595.134 402.886 594.903V594.859C402.886 594.3 402.728 593.868 402.413 593.561C402.102 593.254 401.637 593.101 401.02 593.101C400.376 593.101 399.869 593.244 399.498 593.529C399.132 593.81 398.878 594.124 398.738 594.469L396.941 594.06C397.154 593.463 397.466 592.982 397.875 592.615C398.288 592.244 398.763 591.976 399.3 591.81C399.837 591.639 400.402 591.554 400.994 591.554C401.386 591.554 401.801 591.601 402.24 591.695C402.684 591.784 403.097 591.95 403.48 592.193C403.868 592.436 404.186 592.783 404.433 593.235C404.68 593.683 404.804 594.264 404.804 594.98V601.5H402.937V600.158H402.86C402.737 600.405 402.551 600.648 402.304 600.886C402.057 601.125 401.74 601.323 401.352 601.481C400.964 601.638 400.5 601.717 399.958 601.717ZM400.374 600.183C400.902 600.183 401.354 600.079 401.729 599.87C402.108 599.661 402.396 599.388 402.592 599.052C402.792 598.711 402.892 598.347 402.892 597.959V596.693C402.824 596.761 402.692 596.825 402.496 596.885C402.304 596.94 402.085 596.989 401.838 597.032C401.591 597.07 401.35 597.107 401.115 597.141C400.881 597.17 400.685 597.196 400.527 597.217C400.157 597.264 399.818 597.343 399.511 597.454C399.208 597.565 398.966 597.724 398.782 597.933C398.603 598.138 398.514 598.411 398.514 598.751C398.514 599.224 398.689 599.582 399.038 599.825C399.387 600.064 399.833 600.183 400.374 600.183ZM411.485 601.698C410.535 601.698 409.716 601.483 409.03 601.053C408.349 600.618 407.824 600.019 407.458 599.256C407.091 598.494 406.908 597.62 406.908 596.636C406.908 595.638 407.096 594.759 407.471 593.996C407.846 593.229 408.374 592.63 409.056 592.2C409.738 591.769 410.541 591.554 411.466 591.554C412.211 591.554 412.876 591.692 413.46 591.969C414.044 592.242 414.515 592.626 414.873 593.12C415.235 593.614 415.45 594.192 415.518 594.852H413.658C413.556 594.392 413.322 593.996 412.955 593.663C412.593 593.331 412.107 593.165 411.498 593.165C410.965 593.165 410.498 593.305 410.098 593.587C409.702 593.864 409.393 594.26 409.171 594.776C408.949 595.287 408.839 595.892 408.839 596.591C408.839 597.307 408.947 597.925 409.165 598.445C409.382 598.964 409.689 599.367 410.085 599.653C410.486 599.938 410.956 600.081 411.498 600.081C411.86 600.081 412.188 600.015 412.482 599.883C412.78 599.746 413.03 599.553 413.23 599.301C413.434 599.05 413.577 598.747 413.658 598.393H415.518C415.45 599.028 415.243 599.595 414.898 600.094C414.553 600.592 414.091 600.984 413.511 601.27C412.936 601.555 412.26 601.698 411.485 601.698ZM419.32 598.17L419.307 595.837H419.64L423.551 591.682H425.84L421.378 596.412H421.078L419.32 598.17ZM417.562 601.5V588.409H419.473V601.5H417.562ZM423.762 601.5L420.247 596.834L421.564 595.498L426.108 601.5H423.762ZM431.409 601.698C430.442 601.698 429.608 601.491 428.91 601.078C428.215 600.661 427.678 600.075 427.299 599.32C426.924 598.562 426.736 597.673 426.736 596.655C426.736 595.649 426.924 594.763 427.299 593.996C427.678 593.229 428.206 592.63 428.884 592.2C429.566 591.769 430.363 591.554 431.275 591.554C431.829 591.554 432.366 591.646 432.885 591.829C433.405 592.012 433.872 592.3 434.285 592.692C434.699 593.084 435.025 593.593 435.263 594.219C435.502 594.842 435.621 595.598 435.621 596.489V597.166H427.817V595.734H433.748C433.748 595.232 433.646 594.786 433.442 594.398C433.237 594.006 432.949 593.697 432.579 593.472C432.212 593.246 431.782 593.133 431.287 593.133C430.751 593.133 430.282 593.265 429.881 593.529C429.485 593.789 429.178 594.13 428.961 594.552C428.748 594.969 428.641 595.423 428.641 595.913V597.032C428.641 597.688 428.756 598.246 428.986 598.707C429.221 599.167 429.547 599.518 429.964 599.761C430.382 600 430.87 600.119 431.428 600.119C431.79 600.119 432.121 600.068 432.419 599.966C432.717 599.859 432.975 599.702 433.192 599.493C433.41 599.284 433.576 599.026 433.691 598.719L435.5 599.045C435.355 599.578 435.095 600.045 434.72 600.445C434.349 600.842 433.883 601.151 433.32 601.372C432.762 601.589 432.125 601.698 431.409 601.698ZM437.742 601.5V591.682H439.589V593.241H439.691C439.87 592.713 440.186 592.298 440.637 591.995C441.093 591.688 441.609 591.535 442.184 591.535C442.304 591.535 442.444 591.539 442.606 591.548C442.772 591.556 442.902 591.567 442.996 591.58V593.408C442.919 593.386 442.783 593.363 442.587 593.337C442.391 593.308 442.195 593.293 441.999 593.293C441.547 593.293 441.145 593.388 440.791 593.58C440.441 593.768 440.164 594.03 439.96 594.366C439.755 594.699 439.653 595.078 439.653 595.504V601.5H437.742ZM452.007 594.079L450.275 594.386C450.203 594.164 450.088 593.953 449.93 593.753C449.776 593.553 449.568 593.388 449.303 593.261C449.039 593.133 448.709 593.069 448.313 593.069C447.771 593.069 447.32 593.19 446.958 593.433C446.595 593.672 446.414 593.981 446.414 594.36C446.414 594.688 446.536 594.952 446.779 595.153C447.021 595.353 447.414 595.517 447.955 595.645L449.514 596.003C450.418 596.212 451.091 596.533 451.534 596.968C451.977 597.403 452.199 597.967 452.199 598.662C452.199 599.25 452.029 599.774 451.688 600.234C451.351 600.69 450.88 601.048 450.275 601.308C449.674 601.568 448.977 601.698 448.185 601.698C447.085 601.698 446.188 601.464 445.494 600.995C444.799 600.522 444.373 599.851 444.215 598.982L446.063 598.7C446.178 599.182 446.414 599.546 446.772 599.793C447.13 600.036 447.597 600.158 448.172 600.158C448.798 600.158 449.299 600.028 449.674 599.768C450.049 599.504 450.237 599.182 450.237 598.803C450.237 598.496 450.122 598.238 449.892 598.029C449.666 597.82 449.318 597.663 448.85 597.556L447.188 597.192C446.271 596.983 445.594 596.651 445.155 596.195C444.72 595.739 444.503 595.161 444.503 594.462C444.503 593.883 444.665 593.376 444.989 592.941C445.313 592.506 445.76 592.168 446.331 591.925C446.902 591.678 447.556 591.554 448.294 591.554C449.355 591.554 450.19 591.784 450.799 592.244C451.409 592.7 451.811 593.312 452.007 594.079ZM203.005 623.692C202.213 623.692 201.505 623.489 200.883 623.085C200.265 622.675 199.779 622.094 199.426 621.339C199.076 620.581 198.901 619.671 198.901 618.61C198.901 617.549 199.078 616.641 199.432 615.887C199.79 615.133 200.28 614.555 200.902 614.155C201.524 613.754 202.23 613.554 203.018 613.554C203.627 613.554 204.117 613.656 204.488 613.861C204.863 614.061 205.153 614.295 205.357 614.564C205.566 614.832 205.728 615.069 205.843 615.273H205.958V610.409H207.869V623.5H206.003V621.972H205.843C205.728 622.181 205.562 622.42 205.345 622.688C205.132 622.957 204.838 623.191 204.463 623.391C204.088 623.592 203.602 623.692 203.005 623.692ZM203.427 622.062C203.977 622.062 204.441 621.917 204.82 621.627C205.204 621.333 205.494 620.926 205.69 620.406C205.89 619.886 205.99 619.281 205.99 618.591C205.99 617.909 205.892 617.312 205.696 616.801C205.5 616.29 205.213 615.891 204.833 615.606C204.454 615.32 203.985 615.178 203.427 615.178C202.852 615.178 202.372 615.327 201.989 615.625C201.605 615.923 201.316 616.33 201.119 616.846C200.928 617.362 200.832 617.943 200.832 618.591C200.832 619.247 200.93 619.837 201.126 620.362C201.322 620.886 201.612 621.301 201.995 621.608C202.383 621.911 202.86 622.062 203.427 622.062ZM210.597 623.5V613.682H212.509V623.5H210.597ZM211.562 612.167C211.23 612.167 210.945 612.056 210.706 611.835C210.472 611.609 210.354 611.34 210.354 611.029C210.354 610.714 210.472 610.445 210.706 610.224C210.945 609.998 211.23 609.885 211.562 609.885C211.895 609.885 212.178 609.998 212.413 610.224C212.651 610.445 212.771 610.714 212.771 611.029C212.771 611.34 212.651 611.609 212.413 611.835C212.178 612.056 211.895 612.167 211.562 612.167ZM223.479 613.682L219.919 623.5H217.873L214.306 613.682H216.358L218.845 621.237H218.947L221.427 613.682H223.479ZM225.275 623.5V613.682H227.186V623.5H225.275ZM226.24 612.167C225.908 612.167 225.622 612.056 225.384 611.835C225.149 611.609 225.032 611.34 225.032 611.029C225.032 610.714 225.149 610.445 225.384 610.224C225.622 609.998 225.908 609.885 226.24 609.885C226.573 609.885 226.856 609.998 227.09 610.224C227.329 610.445 227.448 610.714 227.448 611.029C227.448 611.34 227.329 611.609 227.09 611.835C226.856 612.056 226.573 612.167 226.24 612.167ZM233.433 623.692C232.64 623.692 231.933 623.489 231.311 623.085C230.693 622.675 230.207 622.094 229.853 621.339C229.504 620.581 229.329 619.671 229.329 618.61C229.329 617.549 229.506 616.641 229.86 615.887C230.218 615.133 230.708 614.555 231.33 614.155C231.952 613.754 232.657 613.554 233.446 613.554C234.055 613.554 234.545 613.656 234.916 613.861C235.291 614.061 235.581 614.295 235.785 614.564C235.994 614.832 236.156 615.069 236.271 615.273H236.386V610.409H238.297V623.5H236.431V621.972H236.271C236.156 622.181 235.99 622.42 235.772 622.688C235.559 622.957 235.265 623.191 234.89 623.391C234.515 623.592 234.029 623.692 233.433 623.692ZM233.855 622.062C234.404 622.062 234.869 621.917 235.248 621.627C235.632 621.333 235.922 620.926 236.118 620.406C236.318 619.886 236.418 619.281 236.418 618.591C236.418 617.909 236.32 617.312 236.124 616.801C235.928 616.29 235.64 615.891 235.261 615.606C234.882 615.32 234.413 615.178 233.855 615.178C233.279 615.178 232.8 615.327 232.417 615.625C232.033 615.923 231.743 616.33 231.547 616.846C231.355 617.362 231.26 617.943 231.26 618.591C231.26 619.247 231.358 619.837 231.554 620.362C231.75 620.886 232.039 621.301 232.423 621.608C232.811 621.911 233.288 622.062 233.855 622.062ZM245.257 623.698C244.289 623.698 243.456 623.491 242.757 623.078C242.063 622.661 241.526 622.075 241.146 621.32C240.771 620.562 240.584 619.673 240.584 618.655C240.584 617.649 240.771 616.763 241.146 615.996C241.526 615.229 242.054 614.63 242.732 614.2C243.414 613.769 244.21 613.554 245.122 613.554C245.676 613.554 246.213 613.646 246.733 613.829C247.253 614.012 247.72 614.3 248.133 614.692C248.546 615.084 248.872 615.593 249.111 616.219C249.35 616.842 249.469 617.598 249.469 618.489V619.166H241.664V617.734H247.596C247.596 617.232 247.494 616.786 247.289 616.398C247.085 616.006 246.797 615.697 246.426 615.472C246.06 615.246 245.629 615.133 245.135 615.133C244.598 615.133 244.129 615.265 243.729 615.529C243.333 615.789 243.026 616.13 242.808 616.552C242.595 616.969 242.489 617.423 242.489 617.913V619.032C242.489 619.688 242.604 620.246 242.834 620.707C243.068 621.167 243.394 621.518 243.812 621.761C244.23 622 244.718 622.119 245.276 622.119C245.638 622.119 245.968 622.068 246.267 621.966C246.565 621.859 246.823 621.702 247.04 621.493C247.257 621.284 247.423 621.026 247.539 620.719L249.347 621.045C249.203 621.578 248.943 622.045 248.568 622.445C248.197 622.842 247.73 623.151 247.168 623.372C246.61 623.589 245.972 623.698 245.257 623.698ZM255.265 623.692C254.472 623.692 253.765 623.489 253.143 623.085C252.525 622.675 252.039 622.094 251.685 621.339C251.336 620.581 251.161 619.671 251.161 618.61C251.161 617.549 251.338 616.641 251.692 615.887C252.05 615.133 252.54 614.555 253.162 614.155C253.784 613.754 254.489 613.554 255.278 613.554C255.887 613.554 256.377 613.656 256.748 613.861C257.123 614.061 257.413 614.295 257.617 614.564C257.826 614.832 257.988 615.069 258.103 615.273H258.218V610.409H260.129V623.5H258.263V621.972H258.103C257.988 622.181 257.822 622.42 257.604 622.688C257.391 622.957 257.097 623.191 256.722 623.391C256.347 623.592 255.862 623.692 255.265 623.692ZM255.687 622.062C256.237 622.062 256.701 621.917 257.08 621.627C257.464 621.333 257.754 620.926 257.95 620.406C258.15 619.886 258.25 619.281 258.25 618.591C258.25 617.909 258.152 617.312 257.956 616.801C257.76 616.29 257.472 615.891 257.093 615.606C256.714 615.32 256.245 615.178 255.687 615.178C255.112 615.178 254.632 615.327 254.249 615.625C253.865 615.923 253.575 616.33 253.379 616.846C253.188 617.362 253.092 617.943 253.092 618.591C253.092 619.247 253.19 619.837 253.386 620.362C253.582 620.886 253.871 621.301 254.255 621.608C254.643 621.911 255.12 622.062 255.687 622.062ZM267.621 623.5V613.682H269.532V623.5H267.621ZM268.586 612.167C268.254 612.167 267.968 612.056 267.729 611.835C267.495 611.609 267.378 611.34 267.378 611.029C267.378 610.714 267.495 610.445 267.729 610.224C267.968 609.998 268.254 609.885 268.586 609.885C268.918 609.885 269.202 609.998 269.436 610.224C269.675 610.445 269.794 610.714 269.794 611.029C269.794 611.34 269.675 611.609 269.436 611.835C269.202 612.056 268.918 612.167 268.586 612.167ZM274.014 617.67V623.5H272.103V613.682H273.938V615.28H274.059C274.285 614.76 274.639 614.342 275.12 614.027C275.606 613.712 276.218 613.554 276.955 613.554C277.624 613.554 278.21 613.695 278.713 613.976C279.215 614.253 279.605 614.666 279.882 615.216C280.159 615.766 280.298 616.445 280.298 617.255V623.5H278.387V617.485C278.387 616.773 278.201 616.217 277.83 615.817C277.46 615.412 276.95 615.21 276.303 615.21C275.86 615.21 275.465 615.305 275.12 615.497C274.779 615.689 274.509 615.97 274.308 616.341C274.112 616.707 274.014 617.151 274.014 617.67ZM287.444 613.682V615.216H282.081V613.682H287.444ZM283.519 611.33H285.431V620.617C285.431 620.988 285.486 621.267 285.597 621.455C285.708 621.638 285.85 621.763 286.025 621.832C286.204 621.896 286.398 621.928 286.607 621.928C286.76 621.928 286.894 621.917 287.009 621.896C287.124 621.874 287.214 621.857 287.278 621.844L287.623 623.423C287.512 623.466 287.355 623.509 287.15 623.551C286.945 623.598 286.69 623.624 286.383 623.628C285.88 623.636 285.411 623.547 284.977 623.359C284.542 623.172 284.191 622.882 283.922 622.49C283.654 622.098 283.519 621.606 283.519 621.013V611.33ZM293.588 623.698C292.668 623.698 291.865 623.487 291.179 623.065C290.493 622.643 289.96 622.053 289.581 621.295C289.201 620.536 289.012 619.65 289.012 618.636C289.012 617.617 289.201 616.727 289.581 615.964C289.96 615.201 290.493 614.609 291.179 614.187C291.865 613.765 292.668 613.554 293.588 613.554C294.509 613.554 295.312 613.765 295.998 614.187C296.684 614.609 297.217 615.201 297.596 615.964C297.975 616.727 298.165 617.617 298.165 618.636C298.165 619.65 297.975 620.536 297.596 621.295C297.217 622.053 296.684 622.643 295.998 623.065C295.312 623.487 294.509 623.698 293.588 623.698ZM293.595 622.094C294.191 622.094 294.686 621.936 295.078 621.621C295.47 621.305 295.76 620.886 295.947 620.362C296.139 619.837 296.235 619.26 296.235 618.629C296.235 618.003 296.139 617.428 295.947 616.903C295.76 616.375 295.47 615.951 295.078 615.631C294.686 615.312 294.191 615.152 293.595 615.152C292.994 615.152 292.495 615.312 292.099 615.631C291.707 615.951 291.415 616.375 291.223 616.903C291.036 617.428 290.942 618.003 290.942 618.629C290.942 619.26 291.036 619.837 291.223 620.362C291.415 620.886 291.707 621.305 292.099 621.621C292.495 621.936 292.994 622.094 293.595 622.094ZM309.198 623.698C308.248 623.698 307.429 623.483 306.743 623.053C306.061 622.618 305.537 622.019 305.171 621.256C304.804 620.494 304.621 619.62 304.621 618.636C304.621 617.638 304.809 616.759 305.184 615.996C305.559 615.229 306.087 614.63 306.769 614.2C307.451 613.769 308.254 613.554 309.179 613.554C309.924 613.554 310.589 613.692 311.173 613.969C311.757 614.242 312.228 614.626 312.586 615.12C312.948 615.614 313.163 616.192 313.231 616.852H311.371C311.269 616.392 311.034 615.996 310.668 615.663C310.306 615.331 309.82 615.165 309.211 615.165C308.678 615.165 308.211 615.305 307.811 615.587C307.414 615.864 307.105 616.26 306.884 616.776C306.662 617.287 306.551 617.892 306.551 618.591C306.551 619.307 306.66 619.925 306.877 620.445C307.095 620.964 307.402 621.367 307.798 621.653C308.199 621.938 308.669 622.081 309.211 622.081C309.573 622.081 309.901 622.015 310.195 621.883C310.493 621.746 310.743 621.553 310.943 621.301C311.147 621.05 311.29 620.747 311.371 620.393H313.231C313.163 621.028 312.956 621.595 312.611 622.094C312.266 622.592 311.804 622.984 311.224 623.27C310.649 623.555 309.973 623.698 309.198 623.698ZM318.132 623.717C317.51 623.717 316.948 623.602 316.445 623.372C315.942 623.138 315.544 622.799 315.249 622.356C314.96 621.913 314.815 621.369 314.815 620.726C314.815 620.172 314.921 619.716 315.134 619.358C315.347 619 315.635 618.717 315.997 618.508C316.36 618.299 316.764 618.141 317.212 618.035C317.659 617.928 318.115 617.847 318.58 617.792C319.168 617.724 319.645 617.668 320.012 617.626C320.378 617.579 320.644 617.504 320.811 617.402C320.977 617.3 321.06 617.134 321.06 616.903V616.859C321.06 616.3 320.902 615.868 320.587 615.561C320.276 615.254 319.811 615.101 319.193 615.101C318.55 615.101 318.043 615.244 317.672 615.529C317.306 615.81 317.052 616.124 316.911 616.469L315.115 616.06C315.328 615.463 315.639 614.982 316.048 614.615C316.462 614.244 316.937 613.976 317.474 613.81C318.011 613.639 318.575 613.554 319.168 613.554C319.56 613.554 319.975 613.601 320.414 613.695C320.857 613.784 321.271 613.95 321.654 614.193C322.042 614.436 322.36 614.783 322.607 615.235C322.854 615.683 322.977 616.264 322.977 616.98V623.5H321.111V622.158H321.034C320.911 622.405 320.725 622.648 320.478 622.886C320.231 623.125 319.914 623.323 319.526 623.481C319.138 623.638 318.673 623.717 318.132 623.717ZM318.548 622.183C319.076 622.183 319.528 622.079 319.903 621.87C320.282 621.661 320.57 621.388 320.766 621.052C320.966 620.711 321.066 620.347 321.066 619.959V618.693C320.998 618.761 320.866 618.825 320.67 618.885C320.478 618.94 320.259 618.989 320.012 619.032C319.764 619.07 319.524 619.107 319.289 619.141C319.055 619.17 318.859 619.196 318.701 619.217C318.33 619.264 317.992 619.343 317.685 619.454C317.382 619.565 317.139 619.724 316.956 619.933C316.777 620.138 316.688 620.411 316.688 620.751C316.688 621.224 316.862 621.582 317.212 621.825C317.561 622.064 318.007 622.183 318.548 622.183ZM330.106 613.682V615.216H324.743V613.682H330.106ZM326.181 611.33H328.093V620.617C328.093 620.988 328.148 621.267 328.259 621.455C328.37 621.638 328.512 621.763 328.687 621.832C328.866 621.896 329.06 621.928 329.269 621.928C329.422 621.928 329.556 621.917 329.672 621.896C329.787 621.874 329.876 621.857 329.94 621.844L330.285 623.423C330.174 623.466 330.017 623.509 329.812 623.551C329.608 623.598 329.352 623.624 329.045 623.628C328.542 623.636 328.074 623.547 327.639 623.359C327.204 623.172 326.853 622.882 326.584 622.49C326.316 622.098 326.181 621.606 326.181 621.013V611.33ZM336.346 623.698C335.379 623.698 334.546 623.491 333.847 623.078C333.153 622.661 332.616 622.075 332.236 621.32C331.861 620.562 331.674 619.673 331.674 618.655C331.674 617.649 331.861 616.763 332.236 615.996C332.616 615.229 333.144 614.63 333.822 614.2C334.503 613.769 335.3 613.554 336.212 613.554C336.766 613.554 337.303 613.646 337.823 613.829C338.343 614.012 338.809 614.3 339.223 614.692C339.636 615.084 339.962 615.593 340.201 616.219C340.439 616.842 340.559 617.598 340.559 618.489V619.166H332.754V617.734H338.686C338.686 617.232 338.584 616.786 338.379 616.398C338.175 616.006 337.887 615.697 337.516 615.472C337.15 615.246 336.719 615.133 336.225 615.133C335.688 615.133 335.219 615.265 334.819 615.529C334.422 615.789 334.116 616.13 333.898 616.552C333.685 616.969 333.579 617.423 333.579 617.913V619.032C333.579 619.688 333.694 620.246 333.924 620.707C334.158 621.167 334.484 621.518 334.902 621.761C335.319 622 335.807 622.119 336.366 622.119C336.728 622.119 337.058 622.068 337.356 621.966C337.655 621.859 337.912 621.702 338.13 621.493C338.347 621.284 338.513 621.026 338.628 620.719L340.437 621.045C340.292 621.578 340.032 622.045 339.657 622.445C339.287 622.842 338.82 623.151 338.258 623.372C337.699 623.589 337.062 623.698 336.346 623.698ZM346.796 627.386C346.016 627.386 345.345 627.284 344.782 627.08C344.224 626.875 343.768 626.604 343.414 626.268C343.061 625.931 342.797 625.563 342.622 625.162L344.265 624.484C344.38 624.672 344.533 624.87 344.725 625.079C344.921 625.292 345.185 625.473 345.517 625.622C345.854 625.771 346.287 625.846 346.815 625.846C347.539 625.846 348.138 625.669 348.611 625.315C349.084 624.966 349.321 624.408 349.321 623.641V621.71H349.199C349.084 621.919 348.918 622.151 348.701 622.407C348.488 622.663 348.194 622.884 347.819 623.072C347.444 623.259 346.956 623.353 346.355 623.353C345.579 623.353 344.88 623.172 344.258 622.81C343.64 622.443 343.15 621.904 342.788 621.192C342.43 620.477 342.251 619.597 342.251 618.553C342.251 617.509 342.428 616.614 342.782 615.868C343.14 615.122 343.63 614.551 344.252 614.155C344.874 613.754 345.579 613.554 346.368 613.554C346.977 613.554 347.469 613.656 347.844 613.861C348.219 614.061 348.511 614.295 348.72 614.564C348.933 614.832 349.097 615.069 349.212 615.273H349.353V613.682H351.225V623.717C351.225 624.561 351.029 625.254 350.637 625.795C350.245 626.336 349.715 626.737 349.046 626.996C348.381 627.256 347.631 627.386 346.796 627.386ZM346.777 621.768C347.326 621.768 347.791 621.64 348.17 621.384C348.554 621.124 348.843 620.754 349.039 620.272C349.24 619.786 349.34 619.205 349.34 618.527C349.34 617.866 349.242 617.285 349.046 616.782C348.85 616.279 348.562 615.887 348.183 615.606C347.804 615.32 347.335 615.178 346.777 615.178C346.201 615.178 345.722 615.327 345.338 615.625C344.955 615.919 344.665 616.32 344.469 616.827C344.277 617.334 344.181 617.901 344.181 618.527C344.181 619.17 344.279 619.735 344.475 620.221C344.672 620.707 344.961 621.086 345.345 621.359C345.733 621.631 346.21 621.768 346.777 621.768ZM357.924 623.698C357.004 623.698 356.201 623.487 355.515 623.065C354.828 622.643 354.296 622.053 353.917 621.295C353.537 620.536 353.348 619.65 353.348 618.636C353.348 617.617 353.537 616.727 353.917 615.964C354.296 615.201 354.828 614.609 355.515 614.187C356.201 613.765 357.004 613.554 357.924 613.554C358.845 613.554 359.648 613.765 360.334 614.187C361.02 614.609 361.553 615.201 361.932 615.964C362.311 616.727 362.501 617.617 362.501 618.636C362.501 619.65 362.311 620.536 361.932 621.295C361.553 622.053 361.02 622.643 360.334 623.065C359.648 623.487 358.845 623.698 357.924 623.698ZM357.931 622.094C358.527 622.094 359.022 621.936 359.414 621.621C359.806 621.305 360.096 620.886 360.283 620.362C360.475 619.837 360.571 619.26 360.571 618.629C360.571 618.003 360.475 617.428 360.283 616.903C360.096 616.375 359.806 615.951 359.414 615.631C359.022 615.312 358.527 615.152 357.931 615.152C357.33 615.152 356.831 615.312 356.435 615.631C356.043 615.951 355.751 616.375 355.559 616.903C355.372 617.428 355.278 618.003 355.278 618.629C355.278 619.26 355.372 619.837 355.559 620.362C355.751 620.886 356.043 621.305 356.435 621.621C356.831 621.936 357.33 622.094 357.931 622.094ZM364.634 623.5V613.682H366.482V615.241H366.584C366.763 614.713 367.078 614.298 367.53 613.995C367.986 613.688 368.502 613.535 369.077 613.535C369.196 613.535 369.337 613.539 369.499 613.548C369.665 613.556 369.795 613.567 369.889 613.58V615.408C369.812 615.386 369.676 615.363 369.48 615.337C369.284 615.308 369.088 615.293 368.892 615.293C368.44 615.293 368.037 615.388 367.683 615.58C367.334 615.768 367.057 616.03 366.852 616.366C366.648 616.699 366.546 617.078 366.546 617.504V623.5H364.634ZM371.543 623.5V613.682H373.454V623.5H371.543ZM372.508 612.167C372.175 612.167 371.89 612.056 371.651 611.835C371.417 611.609 371.3 611.34 371.3 611.029C371.3 610.714 371.417 610.445 371.651 610.224C371.89 609.998 372.175 609.885 372.508 609.885C372.84 609.885 373.124 609.998 373.358 610.224C373.597 610.445 373.716 610.714 373.716 611.029C373.716 611.34 373.597 611.609 373.358 611.835C373.124 612.056 372.84 612.167 372.508 612.167ZM380.257 623.698C379.289 623.698 378.456 623.491 377.757 623.078C377.063 622.661 376.526 622.075 376.146 621.32C375.771 620.562 375.584 619.673 375.584 618.655C375.584 617.649 375.771 616.763 376.146 615.996C376.526 615.229 377.054 614.63 377.732 614.2C378.414 613.769 379.21 613.554 380.122 613.554C380.676 613.554 381.213 613.646 381.733 613.829C382.253 614.012 382.72 614.3 383.133 614.692C383.546 615.084 383.872 615.593 384.111 616.219C384.35 616.842 384.469 617.598 384.469 618.489V619.166H376.664V617.734H382.596C382.596 617.232 382.494 616.786 382.289 616.398C382.085 616.006 381.797 615.697 381.426 615.472C381.06 615.246 380.629 615.133 380.135 615.133C379.598 615.133 379.129 615.265 378.729 615.529C378.333 615.789 378.026 616.13 377.808 616.552C377.595 616.969 377.489 617.423 377.489 617.913V619.032C377.489 619.688 377.604 620.246 377.834 620.707C378.068 621.167 378.394 621.518 378.812 621.761C379.23 622 379.718 622.119 380.276 622.119C380.638 622.119 380.968 622.068 381.267 621.966C381.565 621.859 381.823 621.702 382.04 621.493C382.257 621.284 382.423 621.026 382.539 620.719L384.347 621.045C384.203 621.578 383.943 622.045 383.568 622.445C383.197 622.842 382.73 623.151 382.168 623.372C381.61 623.589 380.972 623.698 380.257 623.698ZM393.947 616.079L392.214 616.386C392.142 616.164 392.027 615.953 391.869 615.753C391.716 615.553 391.507 615.388 391.243 615.261C390.979 615.133 390.648 615.069 390.252 615.069C389.711 615.069 389.259 615.19 388.897 615.433C388.535 615.672 388.354 615.981 388.354 616.36C388.354 616.688 388.475 616.952 388.718 617.153C388.961 617.353 389.353 617.517 389.894 617.645L391.454 618.003C392.357 618.212 393.031 618.533 393.474 618.968C393.917 619.403 394.138 619.967 394.138 620.662C394.138 621.25 393.968 621.774 393.627 622.234C393.29 622.69 392.82 623.048 392.214 623.308C391.614 623.568 390.917 623.698 390.124 623.698C389.025 623.698 388.128 623.464 387.433 622.995C386.739 622.522 386.313 621.851 386.155 620.982L388.002 620.7C388.117 621.182 388.354 621.546 388.712 621.793C389.07 622.036 389.536 622.158 390.112 622.158C390.738 622.158 391.239 622.028 391.614 621.768C391.989 621.504 392.176 621.182 392.176 620.803C392.176 620.496 392.061 620.238 391.831 620.029C391.605 619.82 391.258 619.663 390.789 619.556L389.127 619.192C388.211 618.983 387.533 618.651 387.094 618.195C386.66 617.739 386.442 617.161 386.442 616.462C386.442 615.883 386.604 615.376 386.928 614.941C387.252 614.506 387.7 614.168 388.271 613.925C388.842 613.678 389.496 613.554 390.233 613.554C391.294 613.554 392.129 613.784 392.739 614.244C393.348 614.7 393.751 615.312 393.947 616.079Z" fill="white"/>
<rect x="113" y="519" width="367" height="133" rx="12" stroke="white" stroke-width="8"/>
</g>
<defs>
<filter id="filter0_d_513_1900" x="-21" y="-40" width="695" height="769" filterUnits="userSpaceOnUse" color-interpolation-filters="sRGB">
<feFlood flood-opacity="0" result="BackgroundImageFix"/>
<feColorMatrix in="SourceAlpha" type="matrix" values="0 0 0 0 0 0 0 0 0 0 0 0 0 0 0 0 0 0 127 0" result="hardAlpha"/>
<feOffset dx="30" dy="60"/>
<feGaussianBlur stdDeviation="80"/>
<feComposite in2="hardAlpha" operator="out"/>
<feColorMatrix type="matrix" values="0 0 0 0 0 0 0 0 0 0 0 0 0 0 0 0 0 0 0.4 0"/>
<feBlend mode="normal" in2="BackgroundImageFix" result="effect1_dropShadow_513_1900"/>
<feBlend mode="normal" in="SourceGraphic" in2="effect1_dropShadow_513_1900" result="shape"/>
</filter>
<filter id="filter1_d_513_1900" x="93" y="48" width="407" height="88" filterUnits="userSpaceOnUse" color-interpolation-filters="sRGB">
<feFlood flood-opacity="0" result="BackgroundImageFix"/>
<feColorMatrix in="SourceAlpha" type="matrix" values="0 0 0 0 0 0 0 0 0 0 0 0 0 0 0 0 0 0 127 0" result="hardAlpha"/>
<feOffset dy="4"/>
<feGaussianBlur stdDeviation="8"/>
<feComposite in2="hardAlpha" operator="out"/>
<feColorMatrix type="matrix" values="0 0 0 0 0.12549 0 0 0 0 0.172549 0 0 0 0 0.266667 0 0 0 0.1 0"/>
<feBlend mode="normal" in2="BackgroundImageFix" result="effect1_dropShadow_513_1900"/>
<feBlend mode="normal" in="SourceGraphic" in2="effect1_dropShadow_513_1900" result="shape"/>
</filter>
<clipPath id="clip0_513_1900">
<rect width="1200" height="800" fill="white"/>
</clipPath>
<clipPath id="clip1_513_1900">
<rect x="109" y="60" width="375" height="449" rx="16" fill="white"/>
</clipPath>
<clipPath id="clip2_513_1900">
<rect x="109" y="60" width="375" height="449" rx="12" fill="white"/>
</clipPath>
</defs>
</svg>
