<svg width="100" height="100" viewBox="0 0 100 100" xmlns="http://www.w3.org/2000/svg">
	<g fill="none" fill-rule="evenodd">
		<circle fill="#DAF4FF" cx="50" cy="50" r="50"/>
		<path fill="#FFF" d="M25.714 52.57h48.57v29.715h-48.57z"/>
		<path d="M42.286 62.857c0 3.155-2.56 5.714-5.715 5.714-3.154 0-5.713-2.558-5.713-5.713 0-3.155 2.56-5.714 5.714-5.714 3.157 0 5.716 2.56 5.716 5.714" stroke="#CD5ACF" stroke-width="3"/>
		<path d="M49.816 80.692c6.89 0 13.784 0 20.675-.002 1.76 0 2.36-.6 2.36-2.327V55.92c0-1.61-.65-2.275-2.244-2.275-13.804-.003-27.608-.003-41.41 0-1.64 0-2.3.66-2.3 2.283-.002 7.5-.002 15 0 22.5 0 .18-.008.362.008.54.09.986.716 1.615 1.696 1.696.28.026.56.026.84.026 6.792.002 13.584.002 20.376.002m5.584 2.205c-3.625 0-7.25.005-10.874-.014l-2.697.01h-.717c-3.97 0-7.937.003-11.905 0-2.882 0-4.495-1.615-4.496-4.503-.002-7.504-.005-15.006 0-22.51.005-2.464 1.185-3.917 3.505-4.35.274-.052.558-.06.837-.06 13.91-.002 27.816-.002 41.724 0 2.516 0 4.235 1.63 4.243 4.137.026 7.722.026 15.447 0 23.17-.007 2.475-1.742 4.106-4.27 4.114-4.03.012-8.058.004-12.085.004h-.775l-2.43.003" fill="#4A4A4A"/>
		<path d="M60.216 59.652c2.612 0 5.223-.003 7.834.003.63.002 1.077.356 1.164.916.08.544-.155.964-.644 1.172-.244.104-.544.097-.818.097-4.487.003-8.97 0-13.457 0-.658 0-1.317.007-1.975 0-.75-.01-1.244-.448-1.243-1.088.002-.644.503-1.097 1.245-1.098 2.632-.005 5.263-.002 7.894-.002M60.115 78.833c-2.643 0-5.286-.003-7.93.003-.488 0-.918-.168-1.05-.633-.095-.326-.08-.8.1-1.06.178-.26.62-.477.947-.48 5.286-.026 10.57-.02 15.857-.016.697 0 1.188.47 1.19 1.093 0 .62-.483 1.087-1.188 1.09-2.642.008-5.286.003-7.927.003M58.23 68.42c-2.008 0-4.015.007-6.022-.006-.662-.005-1.132-.482-1.13-1.085 0-.603.476-1.067 1.13-1.1.06-.002.12 0 .18 0 3.893 0 7.787-.002 11.68 0 .795 0 1.31.438 1.31 1.097 0 .66-.504 1.09-1.31 1.092-1.946.003-3.893 0-5.84 0zM56.58 72.257c-1.397 0-2.796.004-4.194-.002-.805-.003-1.307-.427-1.31-1.085 0-.66.51-1.102 1.302-1.102 2.797-.003 5.593-.003 8.39 0 .795 0 1.307.433 1.31 1.093.004.66-.5 1.092-1.302 1.095-1.398.006-2.797.002-4.195.002M55.233 55.817c.963 0 1.925-.008 2.888.003.715.008 1.2.448 1.208 1.07.01.638-.502 1.11-1.24 1.112-1.924.006-3.85.006-5.775-.002-.738 0-1.245-.47-1.236-1.11.01-.622.495-1.062 1.207-1.07.983-.01 1.965-.003 2.95-.003" fill="#4A4A4A"/>
		<path d="M41.176 62.39c0 3.028-2.463 5.483-5.5 5.483-3.038 0-5.5-2.455-5.5-5.482 0-3.026 2.462-5.48 5.5-5.48 3.037 0 5.5 2.454 5.5 5.48z" stroke="#4A4A4A" stroke-width="3"/>
		<path d="M46.127 52.525V80.48" stroke="#4A4A4A"/>
		<path d="M35.98 72.26c.962 0 1.925-.007 2.887.004.716.008 1.2.45 1.21 1.07.007.64-.504 1.11-1.24 1.112-1.927.007-3.85.007-5.778 0-.74 0-1.246-.472-1.235-1.113.008-.62.494-1.06 1.207-1.07.98-.01 1.965-.002 2.947-.002M35.98 76.646c.962 0 1.925-.008 2.887.004.716.008 1.2.448 1.21 1.07.007.638-.504 1.11-1.24 1.11-1.927.008-3.85.008-5.778 0-.74 0-1.246-.47-1.235-1.11.008-.622.494-1.062 1.207-1.07.98-.012 1.965-.004 2.947-.004" fill="#4A4A4A"/>
		<g>
			<path fill="#FFF" d="M28.373 16.48h44.87v27.834h-44.87z"/>
			<path d="M50.23 43.752h19.72c1.675-.002 2.248-.582 2.248-2.257 0-7.25 0-14.502-.002-21.752 0-1.56-.62-2.206-2.14-2.206H30.564c-1.566 0-2.193.64-2.194 2.214v21.81c0 .173-.008.35.008.522.087.956.682 1.564 1.618 1.645.264.023.533.025.8.025H50.23m5.325 2.138c-3.456-.002-6.913.004-10.37-.013l-2.573.01H30.574c-2.746-.002-4.286-1.566-4.286-4.366-.004-7.27-.007-14.544 0-21.816.002-2.39 1.127-3.796 3.34-4.218.262-.048.532-.054.8-.054 13.263-.003 26.527-.005 39.792-.002 2.398 0 4.037 1.58 4.045 4.01.024 7.485.024 14.97 0 22.455-.008 2.4-1.662 3.982-4.074 3.99-3.842.01-7.684.002-11.525.002h-.737l-2.318.003" fill="#4A4A4A"/>
			<path d="M56.268 28.033c0 2.9-2.336 5.252-5.217 5.252-2.88 0-5.217-2.352-5.217-5.252s2.337-5.252 5.218-5.252c2.882 0 5.218 2.353 5.218 5.253" stroke="#CD5ACF" stroke-width="3"/>
			<path d="M54.98 28.033c0 2.9-2.335 5.252-5.216 5.252-2.88 0-5.218-2.352-5.218-5.252s2.337-5.252 5.218-5.252c2.88 0 5.217 2.353 5.217 5.253z" stroke="#4A4A4A" stroke-width="3"/>
			<g fill="#4A4A4A">
				<path d="M63.096 38.015c.913 0 1.825-.008 2.74 0 .676.01 1.136.432 1.145 1.027.008.612-.476 1.063-1.176 1.066-1.825.006-3.65.006-5.475 0-.703-.003-1.184-.453-1.175-1.066.01-.595.47-1.018 1.145-1.026.93-.01 1.864 0 2.796 0M38.053 38.015c.913 0 1.825-.008 2.738 0 .68.01 1.138.432 1.148 1.027.007.612-.477 1.063-1.177 1.066-1.824.006-3.65.006-5.475 0-.7-.003-1.182-.453-1.173-1.066.01-.595.47-1.018 1.145-1.026.93-.01 1.864 0 2.796 0M50.053 38.015c.913 0 1.825-.008 2.738 0 .68.01 1.138.432 1.147 1.027.008.612-.476 1.063-1.176 1.066-1.824.006-3.65.006-5.475 0-.7-.003-1.182-.453-1.173-1.066.01-.595.47-1.018 1.144-1.026.932-.01 1.865 0 2.797 0"/>
			</g>
		</g>
	</g>
</svg>
