<svg width="100" height="100" viewBox="0 0 100 100" xmlns="http://www.w3.org/2000/svg">
	<g fill="none" fill-rule="evenodd">
		<circle fill="#DAF4FF" cx="50" cy="50" r="50"/>
		<path fill="#FFF" d="M24.294 15.254h51.412v69.492H24.294z"/>
		<path d="M56.575 25.99c3.252 0 6.503-.004 9.754.003.78.002 1.34.366 1.447.944.1.56-.193.993-.8 1.207-.305.107-.678.1-1.02.1-5.585.004-11.168.002-16.754.002-.818 0-1.64.007-2.457-.002-.934-.008-1.55-.46-1.548-1.12.002-.665.626-1.13 1.55-1.133 3.276-.004 6.552 0 9.827 0M33.14 31.04h8.635v-8.634H33.14v8.633zm4.322-9.57h4.3c.468 0 .845.308.934.766.01.05.014.1.014.15v8.673c0 .452-.355.85-.804.906-.046.006-.093.01-.14.01h-8.62c-.462 0-.84-.312-.93-.768-.008-.05-.012-.1-.012-.15v-8.672c0-.454.353-.85.803-.907.05-.008.1-.01.15-.01h4.305z" fill="#4A4A4A"/>
		<path d="M35.984 29.064l1.485-1.485 1.474 1.473.845-.85-1.48-1.484 1.47-1.473-.85-.852-1.478 1.48-1.475-1.477-.856.855 1.487 1.484-1.476 1.475.854.852zM33.14 31.04h8.635v-8.634H33.14v8.633z" fill="#FEFEFE"/>
		<path d="M35.984 29.064c-.292-.29-.573-.572-.853-.852l1.477-1.475-1.486-1.484.857-.855 1.475 1.476 1.478-1.48.85.853-1.47 1.472c.497.497.99.99 1.48 1.483-.287.286-.567.568-.846.85L37.47 27.58c-.5.498-.993.99-1.486 1.484M33.14 42.34h8.635v-8.635H33.14v8.634zm4.322-9.572h4.3c.468 0 .845.31.934.768.01.05.014.1.014.15v8.672c0 .453-.355.852-.804.908-.046.006-.093.01-.14.01h-8.62c-.462 0-.84-.313-.93-.77-.008-.048-.012-.1-.012-.148v-8.673c0-.453.353-.85.803-.907.05-.006.1-.01.15-.01h4.305zM56.575 48.59c3.252 0 6.503-.005 9.754.002.78.002 1.34.366 1.447.944.1.56-.193.993-.8 1.207-.305.107-.678.1-1.02.1-5.585.004-11.168.002-16.754.002-.818 0-1.64.007-2.457-.002-.934-.008-1.55-.46-1.548-1.12.002-.665.626-1.13 1.55-1.133 3.276-.005 6.552 0 9.827 0M33.14 53.638h8.635v-8.633H33.14v8.633zm4.322-9.57h4.3c.468 0 .845.308.934.767.01.05.014.1.014.15v8.673c0 .453-.355.85-.804.907-.046.006-.093.01-.14.01h-8.62c-.462 0-.84-.312-.93-.768-.008-.05-.012-.1-.012-.15v-8.672c0-.454.353-.85.803-.907.05-.007.1-.01.15-.01h4.305z" fill="#4A4A4A"/>
		<path d="M35.984 51.663l1.485-1.485c.49.49.98.982 1.474 1.474l.845-.85-1.48-1.484 1.47-1.473-.85-.85-1.478 1.478-1.475-1.476-.856.855 1.487 1.484-1.476 1.475.854.853zm-2.843 1.975h8.635v-8.633H33.14v8.633z" fill="#FEFEFE"/>
		<path d="M35.984 51.663l-.853-.852c.49-.488.984-.98 1.477-1.474l-1.486-1.484.857-.855 1.475 1.476 1.478-1.48.85.852-1.47 1.473 1.48 1.483-.846.852-1.475-1.474-1.486 1.485" fill="#4A4A4A"/>
		<g>
			<path d="M33.14 64.937h8.635v-8.633H33.14v8.633zm4.322-9.57h4.3c.468 0 .845.31.934.768.01.05.014.1.014.15v8.672c0 .453-.355.852-.804.908-.046.006-.093.01-.14.01h-8.62c-.462 0-.84-.313-.93-.77-.008-.048-.012-.1-.012-.148v-8.673c0-.453.353-.85.803-.907.05-.006.1-.01.15-.01h4.305z" fill="#4A4A4A"/>
			<path d="M35.984 62.962l1.485-1.485c.49.49.98.983 1.474 1.474.28-.28.56-.563.845-.85l-1.48-1.483 1.47-1.472-.85-.85-1.478 1.478-1.475-1.477-.856.856 1.487 1.483-1.476 1.475.854.852zm-2.843 1.976h8.635v-8.634H33.14v8.634z" fill="#FEFEFE"/>
		</g>
		<g>
			<path d="M56.575 71.188c3.252 0 6.503-.004 9.754.003.78.003 1.34.367 1.447.945.1.56-.193.992-.8 1.207-.305.107-.678.1-1.02.1-5.585.003-11.168.002-16.754.002-.818 0-1.64.006-2.457-.002-.934-.008-1.55-.46-1.548-1.12.002-.665.626-1.13 1.55-1.133 3.276-.006 6.552-.002 9.827-.002M33.14 76.237h8.635v-8.633H33.14v8.633zm4.322-9.57h4.3c.468 0 .845.308.934.767.01.05.014.1.014.15v8.673c0 .453-.355.85-.804.907-.046.006-.093.01-.14.01h-8.62c-.462 0-.84-.312-.93-.768-.008-.05-.012-.1-.012-.15v-8.672c0-.454.353-.85.803-.908.05-.006.1-.01.15-.01h4.305z" fill="#4A4A4A"/>
			<path d="M35.984 74.262l1.485-1.485c.49.49.98.982 1.474 1.474.28-.28.56-.563.845-.85l-1.48-1.483 1.47-1.473-.85-.85-1.478 1.478-1.475-1.476-.856.855 1.487 1.485-1.476 1.475.854.852zm-2.843 1.975h8.635v-8.633H33.14v8.633z" fill="#FEFEFE"/>
			<path d="M35.984 74.262l-.853-.852 1.477-1.475-1.486-1.484.857-.854c.49.488.982.982 1.475 1.476l1.478-1.48.85.852-1.47 1.473 1.48 1.483-.846.85c-.493-.49-.985-.984-1.475-1.473-.5.498-.993.992-1.486 1.485" fill="#4A4A4A"/>
		</g>
		<path d="M74.546 17.4l-.254-.167-.168-.254c-.093-.14-.247-.226-.418-.226H25.73c-.277 0-.5.224-.5.5V82.18c0 .172.083.326.224.42l.254.167.168.254c.093.14.247.226.418.226H74.27c.277 0 .5-.224.5-.5V17.82c0-.172-.083-.326-.224-.42z" stroke="#4A4A4A" stroke-width="3"/>
		<path d="M35.298 29.38l-.825-.826c.473-.474.952-.95 1.43-1.428l-1.44-1.436.83-.83c.472.475.95.952 1.427 1.43.482-.48.96-.958 1.43-1.43.28.277.552.55.825.823l-1.425 1.425c.482.483.96.96 1.433 1.436-.276.278-.548.55-.818.824l-1.428-1.427-1.44 1.44M35.298 51.977l-.825-.824c.473-.474.952-.95 1.43-1.428l-1.44-1.437.83-.828c.472.473.95.95 1.427 1.43l1.43-1.432c.28.277.552.55.825.824l-1.425 1.425c.482.483.96.96 1.433 1.436l-.818.823-1.428-1.426c-.484.482-.96.96-1.44 1.437M35.298 74.576l-.825-.824 1.43-1.43c-.487-.483-.965-.96-1.44-1.435l.83-.828 1.427 1.428c.482-.48.96-.958 1.43-1.432.28.278.552.55.825.825-.47.47-.947.95-1.425 1.426.482.482.96.96 1.433 1.436l-.818.823c-.477-.475-.954-.952-1.428-1.427l-1.44 1.438" fill="#00AEF0"/>
	</g>
</svg>
