<?xml version="1.0" encoding="UTF-8" standalone="no"?>
<svg width="35px" height="35px" viewBox="0 0 35 35" version="1.1" xmlns="http://www.w3.org/2000/svg" xmlns:xlink="http://www.w3.org/1999/xlink">
    <!-- Generator: Sketch 50.2 (55047) - http://www.bohemiancoding.com/sketch -->
    <title>avatar</title>
    <desc>Created with Sketch.</desc>
    <defs>
        <circle id="path-1" cx="17.5" cy="17.5" r="17.5"></circle>
    </defs>
    <g id="Android_Ghostery" stroke="none" stroke-width="1" fill="none" fill-rule="evenodd">
        <g id="Cliqz:-Home" transform="translate(-23.000000, -229.000000)">
            <g id="Group-3" transform="translate(23.000000, 229.000000)">
                <g id="avatar">
                    <mask id="mask-2" fill="white">
                        <use xlink:href="#path-1"></use>
                    </mask>
                    <use id="Mask" fill="#BD10E0" xlink:href="#path-1"></use>
                    <g id="advertising" mask="url(#mask-2)">
                        <g transform="translate(1.000000, 1.000000)">
                            <circle id="Oval-375-Copy-17" fill="#CD5ACF" cx="16.5" cy="16.5" r="16.5"></circle>
                            <g id="Group" stroke-width="1" fill="none" transform="translate(4.997143, 3.017143)">
                                <path d="M10.9465658,22.0378677 C10.6886608,22.2947335 10.2863013,22.3751014 9.93936802,22.2083032 L3.19919673,18.9762634 C2.76046379,18.7656439 2.57634491,18.2411736 2.78696444,17.8029603 C2.99948924,17.366479 3.52603806,17.1818405 3.96546383,17.39246 L10.7052887,20.6244998 C11.1441949,20.8352925 11.3288334,21.3601093 11.1176942,21.7983226 C11.0730068,21.8894294 11.0149825,21.9704902 10.9465658,22.0378677" id="Fill-13066" fill="#7A8484"></path>
                                <polyline id="Fill-13067" fill="#616868" points="6.11215797 20.5782721 5.64432627 20.3543156 6.96658735 19.037424 7.43407263 19.2613804 6.11215797 20.5782721"></polyline>
                                <path d="M14.4780487,0.15787753 C14.2863088,0.15787753 14.1314618,0.313244073 14.1314618,0.504291226 L14.1314618,3.89221718 C14.1314618,4.08291792 14.2863088,4.23880408 14.4780487,4.23880408 C14.6689227,4.23880408 14.8244624,4.08291792 14.8244624,3.89221718 L14.8244624,0.504291226 C14.8244624,0.313244073 14.6689227,0.15787753 14.4780487,0.15787753" id="Fill-13068" fill="#98B96C"></path>
                                <path d="M22.0222462,7.77897885 L18.6348399,7.77897885 C18.4437927,7.77897885 18.2884262,7.93434539 18.2884262,8.12539254 C18.2884262,8.31695932 18.4437927,8.47180624 18.6348399,8.47180624 L22.0222462,8.47180624 C22.2132934,8.47180624 22.3684867,8.31695932 22.3684867,8.12539254 C22.3684867,7.93434539 22.2132934,7.77897885 22.0222462,7.77897885" id="Fill-13069" fill="#98B96C"></path>
                                <path d="M21.3482645,4.14180664 C21.2530007,3.97604768 21.0411688,3.91888942 20.8752366,4.01536564 L17.942325,5.70863579 C17.7760465,5.80459238 17.719581,6.01590473 17.8155376,6.18218331 C17.8796242,6.29303569 17.9961924,6.35539016 18.1155319,6.35539016 C18.1745954,6.35539016 18.2340054,6.34032116 18.2889119,6.30862431 L21.2218235,4.61466133 C21.3874092,4.51939757 21.4442211,4.30739238 21.3482645,4.14180664" id="Fill-13070" fill="#98B96C"></path>
                                <path d="M18.4226984,1.24369307 C18.2571127,1.14773648 18.0451075,1.20489474 17.9498437,1.37065369 L16.2565736,4.30373846 C16.1607902,4.46984383 16.2172556,4.68115618 16.3830146,4.77693957 C16.4377479,4.80863642 16.4973311,4.823359 16.5562214,4.823359 C16.6757341,4.823359 16.7923023,4.76135095 16.8563889,4.64997895 L18.5498322,1.71706739 C18.645096,1.55130843 18.5884574,1.33930325 18.4226984,1.24369307" id="Fill-13071" fill="#98B96C"></path>
                                <path d="M19.4026658,11.6698614 C19.5595912,11.826094 19.6399592,12.0526486 19.5990824,12.2864778 C19.558552,12.5203071 19.4068228,12.7080633 19.2062493,12.8021146 C15.4651546,13.485762 10.6500042,15.7627393 7.75346606,18.2170803 L4.25867149,14.7363155 C6.72323173,11.8517286 9.00973533,7.05649704 9.69563445,3.33064453 C9.79072501,3.13145666 9.97848123,2.98007387 10.2135229,2.93937026 C10.4483914,2.89953269 10.6765048,2.97903463 10.8330838,3.1349208 L19.4026658,11.6698614" id="Fill-13072" fill="#FFFFFE"></path>
                                <path d="M19.5547415,12.2965599 L19.5547415,12.2960402 C19.5547415,12.2960402 19.5547415,12.2960402 19.5547415,12.2965599 L19.5547415,12.2965599 Z M19.5550879,12.2913637 C19.5557807,12.2913637 19.5557807,12.290844 19.5557807,12.290844 C19.5557807,12.290844 19.5557807,12.2913637 19.5550879,12.2913637 L19.5550879,12.2913637 Z M19.5564735,12.2868603 C19.5564735,12.2861674 19.5569931,12.2856478 19.5569931,12.2851282 C19.5569931,12.2856478 19.5564735,12.2861674 19.5564735,12.2868603 L19.5564735,12.2868603 Z M19.5573396,12.2814909 C19.5573396,12.2797588 19.5582056,12.2783731 19.5582056,12.2762947 C19.5582056,12.2783731 19.5573396,12.2797588 19.5573396,12.2814909 L19.5573396,12.2814909 Z M10.1477043,2.9342101 C10.1477043,2.9342101 10.1477043,2.9342101 10.1483972,2.93351727 L10.1477043,2.9342101 L10.1477043,2.9342101 Z M10.1523809,2.93299765 C10.1530737,2.93299765 10.1530737,2.93299765 10.1535934,2.93247803 C10.1530737,2.93299765 10.1530737,2.93299765 10.1523809,2.93299765 L10.1523809,2.93299765 Z M10.1574039,2.93195841 L10.1587896,2.93195841 L10.1574039,2.93195841 L10.1574039,2.93195841 Z M10.1622537,2.93074596 L10.1645054,2.93074596 L10.1622537,2.93074596 L10.1622537,2.93074596 Z M10.1674499,2.93005313 C10.169182,2.92953351 10.170914,2.92953351 10.1726461,2.9291871 C10.170914,2.92953351 10.169182,2.92953351 10.1674499,2.93005313 L10.1674499,2.93005313 Z" id="Fill-13073" fill="#6B6B68"></path>
                                <path d="M14.8393582,7.6513254 L10.5542208,3.38402828 C10.4463129,3.27612042 10.3035905,3.20458599 10.1477043,3.18432079 C10.2124837,3.15019904 10.2828057,3.12595008 10.3579774,3.11278636 C10.3983346,3.10585808 10.438865,3.10239395 10.4787026,3.10239395 C10.6697498,3.10239395 10.8479796,3.1796442 10.9775383,3.3085101 L15.0887761,7.40329319 L14.8393582,7.6513254" id="Fill-13074" fill="#FFFFFE"></path>
                                <path d="M7.73510614,18.1880176 L4.73914728,21.1713323 C4.67558037,21.2347261 4.58724488,21.2745636 4.48972942,21.2745636 C4.39221397,21.2745636 4.30439809,21.2347261 4.24031156,21.1713323 L1.24435271,18.1880176 C1.180959,18.1246239 1.14094822,18.036808 1.14094822,17.9394658 C1.14094822,17.8422967 1.180959,17.7544809 1.24435271,17.6910871 L4.24031156,14.7072528 L7.73510614,18.1880176" id="Fill-13075" fill="#5182A9"></path>
                                <path d="M4.32293123,21.1547045 L3.82357588,21.6518081 C3.69592244,21.7792884 3.51925145,21.8579243 3.32404733,21.8579243 C3.12901642,21.8579243 2.95286506,21.7792884 2.82521161,21.6518081 L0.828136653,19.6633935 C0.699963586,19.5364329 0.621327676,19.3602815 0.621327676,19.1662899 C0.621327676,18.9716054 0.699963586,18.7961468 0.828136653,18.6684934 L1.32697238,18.1713897 L4.32293123,21.1547045" id="Fill-13076" fill="#3D6689"></path>
                                <path d="M3.1991652,21.9247821 C3.00413429,21.9247821 2.82798292,21.8461462 2.70032947,21.718666 C2.82798292,21.8461462 3.00413429,21.9247821 3.1991652,21.9247821 C3.39436931,21.9247821 3.5710403,21.8461462 3.69869375,21.718666 L4.19804909,21.2215623 L2.69980985,19.7302514 L4.19804909,21.2215623 C4.26213562,21.284956 4.3499515,21.3247936 4.44746695,21.3247936 L4.44781337,21.3247936 C4.44781337,21.3247936 4.44781337,21.3247936 4.44746695,21.3247936 C4.3499515,21.3247936 4.26213562,21.284956 4.19804909,21.2215623 L3.69869375,21.718666 C3.5710403,21.8461462 3.39436931,21.9247821 3.1991652,21.9247821 L3.1991652,21.9247821 Z M4.45041147,21.3247936 C4.54671448,21.3239276 4.63401073,21.2844364 4.69688481,21.2215623 L5.65229379,20.2706567 L4.69688481,21.2215623 C4.63401073,21.2844364 4.54671448,21.3239276 4.45041147,21.3247936 L4.45041147,21.3247936 Z" id="Fill-13077" fill="#232422"></path>
                                <path d="M7.73787745,18.1719094 L5.99073997,16.4318734 L14.8525219,7.605772 L19.1376594,11.8730691 C19.2940651,12.0294749 19.3744331,12.2563759 19.3340759,12.4902051 C19.3190069,12.5762889 19.2890421,12.6554444 19.2474725,12.7264593 C19.4137511,12.628251 19.5389796,12.4637045 19.5800297,12.2615721 C19.534303,12.4862214 19.3853452,12.665144 19.1906607,12.7569437 C15.4495659,13.4405911 10.6344156,15.7175683 7.73787745,18.1719094 L7.73787745,18.1719094 Z M19.5800297,12.2610525 C19.5803761,12.2593204 19.5803761,12.2582811 19.5803761,12.2563759 C19.5803761,12.2582811 19.5803761,12.2593204 19.5800297,12.2610525 L19.5800297,12.2610525 Z M19.5810689,12.2558563 C19.5810689,12.2541242 19.5817617,12.2529117 19.5817617,12.2518725 C19.5817617,12.2529117 19.5810689,12.2541242 19.5810689,12.2558563 L19.5810689,12.2558563 Z M19.5822813,12.2501404 C19.5822813,12.248928 19.5822813,12.2477155 19.5826278,12.2465031 C19.5822813,12.2477155 19.5822813,12.248928 19.5822813,12.2501404 L19.5822813,12.2501404 Z" id="Fill-13078" fill="#C8C7C2"></path>
                                <path d="M19.2192398,12.8012846 C19.2608094,12.7302698 19.2907742,12.6511143 19.3058432,12.5650305 C19.3462004,12.3312012 19.2658324,12.1043003 19.1094266,11.9478945 L14.8242892,7.68059736 L15.0737071,7.43256515 L19.3647335,11.7059245 L19.3588445,11.6995159 C19.4887496,11.8283817 19.5661731,12.0067848 19.5661731,12.1967927 C19.5656535,12.2359375 19.5625358,12.2762947 19.5552611,12.3161322 C19.5552611,12.3182107 19.554395,12.3195964 19.554395,12.3213284 C19.5540486,12.3225409 19.5540486,12.3237533 19.5540486,12.3249658 C19.5540486,12.3254854 19.553529,12.326005 19.553529,12.3266979 C19.553529,12.3277371 19.5528362,12.3289495 19.5528362,12.3306816 C19.5528362,12.3306816 19.5528362,12.3312012 19.5521433,12.3312012 C19.5521433,12.3331065 19.5521433,12.3341457 19.5517969,12.3358778 C19.5517969,12.3358778 19.5517969,12.3358778 19.5517969,12.3363974 C19.5107469,12.5385298 19.3855184,12.7030763 19.2192398,12.8012846" id="Fill-13079" fill="#C8C7C2"></path>
                                <path d="M4.44781337,21.2884202 C4.44781337,21.2884202 4.44781337,21.2884202 4.44746695,21.2884202 C4.3499515,21.2884202 4.26213562,21.2485826 4.19804909,21.1851889 L2.69980985,19.6938779 L5.44635084,16.9589418 L7.19400794,18.6989778 L7.69284366,18.2018741 L5.65229379,20.2342833 L4.69688481,21.1851889 C4.63401073,21.248063 4.54671448,21.2875541 4.45041147,21.2884202 L4.44781337,21.2884202" id="Fill-13080" fill="#436787"></path>
                                <path d="M3.33132202,21.9247821 C3.13629111,21.9247821 2.96013975,21.8461462 2.8324863,21.718666 L1.83377561,20.7244587 L2.83196668,19.7302514 L4.33020592,21.2215623 L3.83085057,21.718666 C3.70319713,21.8461462 3.52652614,21.9247821 3.33132202,21.9247821" id="Fill-13081" fill="#30506B"></path>
                                <polyline id="Fill-13082" fill="#436787" points="5.48618842 16.9450852 3.91225779 15.3777365 4.41109351 14.8804596 5.98554376 16.4479816 5.48618842 16.9450852"></polyline>
                                <polyline id="Fill-13083" fill="#345168" points="7.21877652 18.6764609 5.47111942 16.9364249 5.97047477 16.4393213 7.71761224 18.1793572 7.21877652 18.6764609"></polyline>
                                <path d="M1.09275625,19.8767844 L0.880244748,19.7077345 C0.719776881,19.5807739 0.621327676,19.4046225 0.621327676,19.2106308 C0.621327676,19.4046225 0.719776881,19.5807739 0.880244748,19.7077345 L1.09123831,19.8757451 C1.09188885,19.8757451 1.09188885,19.8762647 1.09275625,19.8767844" id="Fill-13084" fill="#555553"></path>
                                <path d="M1.40491546,18.3705776 L1.24435271,18.2105345 C1.180959,18.1471408 1.14094822,18.0593249 1.14094822,17.9619827 C1.14094822,17.8648136 1.180959,17.7769977 1.24435271,17.713604 L3.74095622,15.2268733 L3.91468269,15.4002534 L3.91416307,15.4002534 L1.41755956,17.8868109 C1.35416585,17.9502046 1.31415507,18.0385401 1.31415507,18.1350163 C1.31415507,18.2256035 1.34896965,18.3083964 1.40491546,18.3705776" id="Fill-13085" fill="#7199B8"></path>
                                <path d="M0.996666916,19.8314042 L0.828136653,19.6633935 C0.699963586,19.5364329 0.621327676,19.3602815 0.621327676,19.1662899 C0.621327676,18.9716054 0.699963586,18.7961468 0.828136653,18.6684934 L1.32697238,18.1713897 L1.48753512,18.3314329 C1.49151888,18.3359362 1.49619547,18.3402664 1.50017922,18.3445966 L1.0013435,18.8417002 C0.873170434,18.9695269 0.794707731,19.1448122 0.794707731,19.3394967 C0.794707731,19.5312367 0.872131193,19.7051364 0.996666916,19.8314042" id="Fill-13086" fill="#60829C"></path>
                                <path d="M4.43187834,14.8984731 L4.25867149,14.7252663 C6.72323173,11.8406794 9.00973533,7.04544785 9.69563445,3.31959534 C9.78743408,3.12733573 9.96514431,2.97941709 10.1885811,2.93334406 C9.9878344,2.97508691 9.82432714,3.09892981 9.72681168,3.26364952 C9.79782649,3.22207988 9.87732843,3.19194189 9.96410506,3.1770461 C10.0044623,3.17011783 10.0449927,3.16648048 10.0853499,3.16648048 C10.1160075,3.16648048 10.1464919,3.16890538 10.1764567,3.17288914 C10.0408357,3.24390394 9.93344745,3.35770084 9.8688413,3.49280218 C9.18294218,7.21848149 6.89661178,12.0135399 4.43187834,14.8984731 L4.43187834,14.8984731 Z M10.189274,2.93265124 C10.1904864,2.93265124 10.1920453,2.93213162 10.1932577,2.93213162 C10.1920453,2.93213162 10.1904864,2.93265124 10.189274,2.93265124 L10.189274,2.93265124 Z M10.1944702,2.931612 C10.1956826,2.931612 10.1967219,2.931612 10.1982807,2.93109238 C10.1967219,2.931612 10.1956826,2.931612 10.1944702,2.931612 L10.1944702,2.931612 Z M10.1996664,2.93109238 C10.2008788,2.93057275 10.2019181,2.93057275 10.2031305,2.92987993 C10.2019181,2.93057275 10.2008788,2.93057275 10.1996664,2.93109238 L10.1996664,2.93109238 Z M10.2053822,2.92987993 C10.2064214,2.92987993 10.2069411,2.9291871 10.2083267,2.9291871 C10.2069411,2.9291871 10.2064214,2.92987993 10.2053822,2.92987993 L10.2053822,2.92987993 Z" id="Fill-13087" fill="#FFFFFE"></path>
                                <path d="M10.3209112,2.94007439 C10.3659845,2.93267103 10.4104047,2.9291871 10.4546071,2.9291871 C10.4104047,2.9291871 10.3653313,2.93267103 10.3209112,2.94007439 L10.3209112,2.94007439 Z M10.4576555,2.9291871 L10.455478,2.9291871 L10.4576555,2.9291871 L10.4576555,2.9291871 Z" id="Fill-13088" fill="#858783"></path>
                                <path d="M19.4771448,11.6702439 L11.0807696,3.3085101 C10.9512109,3.1796442 10.772981,3.10239395 10.5819339,3.10239395 C10.5420963,3.10239395 10.5015659,3.10585808 10.4612087,3.11278636 C10.3860369,3.12595008 10.315715,3.15019904 10.2509356,3.18432079 C10.2209708,3.18033703 10.1904864,3.17791213 10.1598288,3.17791213 C10.1194716,3.17791213 10.0789412,3.18154948 10.038584,3.18847775 C9.95180738,3.20337354 9.87230543,3.23351153 9.80129063,3.27508118 C9.89880608,3.11036146 10.0623133,2.98651857 10.2630601,2.94477572 C10.2630601,2.94477572 10.2630601,2.94477572 10.2637529,2.94408289 C10.2649654,2.94408289 10.2665242,2.94356327 10.2677367,2.94356327 C10.2684295,2.94356327 10.2684295,2.94356327 10.2689491,2.94304365 C10.2701616,2.94304365 10.2712008,2.94304365 10.2727597,2.94252403 L10.2741453,2.94252403 C10.2753578,2.94200441 10.276397,2.94200441 10.2776095,2.94131158 L10.2798611,2.94131158 C10.2809004,2.94131158 10.28142,2.94061875 10.2828057,2.94061875 C10.2845377,2.94009913 10.2862698,2.94009913 10.2880019,2.93975272 C10.2926785,2.93888668 10.2971818,2.93836706 10.3016852,2.93784744 C10.3370194,2.93195841 10.3728732,2.9291871 10.4080342,2.9291871 L10.4104591,2.9291871 C10.6002938,2.92970672 10.778004,3.00730339 10.9075628,3.13530325 L19.4771448,11.6702439" id="Fill-13089" fill="#FFFFFE"></path>
                                <polyline id="Fill-13090" fill="#D2D2CC" points="19.4617294 11.7059245 15.1707029 7.43256515 19.4558403 11.6995159 19.4617294 11.7059245"></polyline>
                                <polyline id="Fill-13091" fill="#4D4D4B" points="3.73905094 15.2043564 4.23840629 14.7072528 3.73905094 15.2043564"></polyline>
                                <polyline id="Fill-13092" fill="#64849B" points="3.91277741 15.3777365 3.73905094 15.2043564 4.23840629 14.7072528 4.41161313 14.8804596 3.91277741 15.3777365"></polyline>
                            </g>
                        </g>
                    </g>
                </g>
            </g>
        </g>
    </g>
</svg>
