<svg width="26" height="26" viewBox="0 0 26 26" xmlns="http://www.w3.org/2000/svg">
  <g transform="translate(1 1)" fill="none" fill-rule="evenodd">
	<circle stroke="#EBB046" fill="#FDC257" cx="11.865" cy="11.865" r="11.865"/>
	<path d="M15.528 6.874c1.013 1.013 1.624 2.364 1.72 3.803l.013.205.822-.06-.014-.202c-.108-1.634-.804-3.17-1.96-4.327-1.155-1.155-2.69-1.85-4.326-1.96l-.203-.013-.06.82.205.015c1.44.095 2.79.705 3.803 1.72" fill="#EBB34D"/>
	<path d="M14.61 7.898c.77.77 1.232 1.794 1.304 2.886l.014.204.82-.06-.013-.2c-.086-1.29-.634-2.5-1.545-3.41-.91-.91-2.12-1.46-3.408-1.545l-.203-.013-.06.82.205.014c1.09.072 2.116.535 2.885 1.304" fill="#EBB34D"/>
	<path d="M13.692 8.92c.523.523.838 1.222.887 1.967l.013.205.82-.058-.014-.203c-.063-.942-.463-1.827-1.127-2.49-.663-.664-1.548-1.064-2.49-1.127l-.204-.013-.06.82.205.013c.746.05 1.444.364 1.967.887M15.298 12.76c-.088 0-.173.012-.25.032-.176.046-.33.144-.438.274l-.29.346-.36.4c-.117.108-.23.176-.332.203-.037.01-.075.015-.114.015-.167 0-.357-.09-.58-.28l-3.356-2.815c-.477-.4-.446-.695-.247-1.012l.287-.37.343-.407c.108-.128.33-.487.063-1.043-.39-.82-2.13-2.343-3.084-2.343-.087 0-.17.01-.25.03-.17.046-.317.14-.428.27l-.363.433-.13.155.003.002-.002.003-.005-.005-.13.17-.016.022-.13.16.01.01c-1.268 1.868-.787 4.226 1.23 5.918l4.49 3.77c1.014.85 2.19 1.32 3.308 1.32.338 0 .673-.044.997-.13.65-.17 1.236-.508 1.747-1.006l.01.01.142-.164.017-.018.15-.16-.002-.002.492-.586c.11-.13.337-.496.067-1.06-.375-.787-1.924-2.14-2.85-2.14" fill="#EBB34D"/>
	<path fill="#96CBC8" d="M5.76 7.115l.32-.395 3.372 2.838-.3.387-3.392-2.83M14.295 13.44l-.375.42 3.16 2.638.334-.38-3.12-2.678"/>
	<path d="M17.712 10.926l.414-.03c-.1-1.53-.734-3.03-1.9-4.195-1.167-1.167-2.666-1.798-4.196-1.9l-.03.414c1.435.095 2.84.686 3.934 1.778 1.092 1.093 1.683 2.5 1.778 3.934" fill="#8FC78A"/>
	<path d="M15.9 11.033l.412-.03c-.08-1.196-.573-2.367-1.485-3.28-.91-.91-2.082-1.404-3.277-1.483l-.03.413c1.1.072 2.178.526 3.016 1.363.837.838 1.29 1.916 1.364 3.017" fill="#8FC78A"/>
	<path d="M14.565 11.137l.41-.03c-.056-.86-.41-1.704-1.065-2.36-.657-.656-1.5-1.01-2.36-1.067l-.03.412c.765.05 1.516.364 2.098.947.583.58.896 1.332.947 2.097" fill="#8FC78A"/>
	<path d="M14.757 13.192l-.357.426 3.15 2.64.364-.433c.105-.124.25-.4.04-.84-.347-.726-1.823-2.025-2.665-2.025-.072 0-.14.01-.2.025-.135.035-.25.108-.333.207" fill="#50B4D1"/>
	<path d="M17.095 16.35l-3.153-2.642c-.154.15-.307.244-.457.284-.055.014-.11.02-.167.02-.22 0-.453-.108-.713-.326L9.25 10.87c-.504-.423-.59-.826-.265-1.315L5.602 6.72c-1.372 1.815-.96 4.132 1.062 5.83l4.492 3.77c.977.82 2.105 1.272 3.175 1.272.324 0 .642-.04.946-.12.69-.183 1.3-.56 1.82-1.122" fill="#87D7EF"/>
	<path d="M6.123 5.987l-.363.432 3.378 2.83.37-.44c.102-.122.242-.39.035-.823-.37-.774-2.037-2.227-2.9-2.227-.07 0-.136.008-.197.025-.13.034-.24.103-.323.202" fill="#50B4D1"/>
	<path d="M14.393 17.526c-1.07 0-2.198-.45-3.176-1.272l-4.49-3.77c-.003 0-.005-.003-.007-.004.002 0 .004.003.006.005l4.49 3.77c.98.82 2.107 1.27 3.177 1.27.323 0 .64-.04.945-.12.003 0 .005 0 .008-.002-.003 0-.005 0-.008.002-.304.08-.622.12-.945.12zm.953-.123c.003 0 .006 0 .008-.002-.002.002-.005.002-.008.003zm.01-.003h.006-.006zm.01-.002h.004-.005zm.008-.002h0zm.01-.003h-.001zm.01-.003zm2.032-1.413l.03-.038-.03.037z" fill="#252624"/>
	<path d="M16.946 16.67l-.626-.524.01-.01.26-.296.625.524-.27.307" fill="#7DA8A8"/>
	<path d="M17.426 15.966l-.626-.524.037-.042.268-.316c0-.004.24-.304.546-.684.075.104.135.203.178.292.08.166.108.308.108.427 0 .2-.08.336-.147.414l-.333.395-.03.036" fill="#2C8DA8"/>
	<path fill="#252624" d="M5.763 6.722L5.76 6.72l.003.002"/>
	<path d="M6.387 7.563l-.627-.525.257-.318.627.525-.256.316v.003" fill="#7DA8A8"/>
	<path d="M14.33 17.592c-1.07 0-2.197-.452-3.175-1.272l-4.492-3.77c-.002 0-.004-.003-.005-.004-2.004-1.687-2.42-3.98-1.085-5.787l.01-.013.018-.027h.002l.627.526c-1.09 1.475-.722 3.267.96 4.68l4.49 3.768c.83.697 1.772 1.08 2.65 1.08.25 0 .5-.03.737-.093.52-.136.99-.424 1.4-.856l.626.525h.002l-.02.02-.013.015c-.5.526-1.08.888-1.73 1.07-.004 0-.006.002-.01.003l-.007.002h-.004c0 .002 0 .002-.002.002s-.004 0-.005.002H15.3l-.007.002c-.004 0-.007.002-.01.003h-.007c-.304.08-.623.122-.945.122" fill="#50B4D1"/>
	<path d="M6.387 6.945L5.76 6.42l.363-.433c.083-.1.194-.168.323-.202.06-.017.128-.025.197-.025h.008c.174.002.38.062.6.163l-.825.975-.038.047" fill="#2C8DA8"/>
  </g>
</svg>
