<svg width="26" height="26" viewBox="0 0 26 26" xmlns="http://www.w3.org/2000/svg">
  <g transform="translate(1 1)" fill="none" fill-rule="evenodd">
	<ellipse stroke="#50B4D1" fill="#87D7EF" cx="11.865" cy="11.865" rx="11.865" ry="11.865"/>
	<path d="M13.27 6.75c.167-.207.378-.272.576-.272.33 0 .628.18.628.18-.33-.34-.64-.45-.903-.45-.09 0-.175.013-.254.034.356-.622 1.18-.687 1.51-.687.09 0 .144.004.144.004-.37-.13-.694-.185-.975-.185-.687 0-1.12.326-1.386.67-.182-.39-.58-.758-1.397-.92 0 0 .88.42.907 1.157-.01.945.447.954 1.15.468" fill="#E0BD55"/>
	<path d="M10.43 15.684v2.3H8.334v.417h2.517v-2.716h-.42zm1.47 0V18.4h2.307v-.417H12.32v-2.3h-.42z" fill="#CAAA7D"/>
	<path d="M11.895 6.166c-.258-.054-.534-.082-.828-.082-.074 0-.148 0-.224.005-1.976.093-2.915 1.053-3.346 2.314-.367.152-1.564.8-1.564.8l1.633.49-1.42.422s.784.624 1.01.77c0 .114-.002.02-.002.134 0 2.724 1.49 4.415 3.393 5.12l.42.137c.34.1.693.166 1.05.205l.42.032c.09.003.18.006.27.006 2.222 0 4.472-1.133 5.393-3.345-1.977.7-3.1-.946-3.1-2.237 0-1.612-.58-3.417-1.955-4.303-.363-.205-.74-.378-1.15-.47" fill="#DA5051"/>
	<path d="M10.97 9.46c0 .116-.093.21-.21.21-.115 0-.21-.094-.21-.21v-.624c0-.228-.18-.414-.418-.414-.24 0-.42.186-.42.414v.624c0 .116-.094.21-.21.21-.116 0-.21-.094-.21-.21v-.624c0-.46.37-.832.84-.832s.84.373.84.832v.624" fill="#2D2E2B"/>
	<path d="M14.698 14.723c-1.5 0-2.987-1.005-3.005-2.848v-.03c.06 1.295 2.085 1.587 3.6 1.587.88 0 1.586-.1 1.632-.157l.094.01c.058.005.118.008.18.008.033 0 .067 0 .102-.003h.004c-.574.973-1.594 1.433-2.608 1.433" fill="#923839"/>
	<path d="M12.952 16.565c-.09 0-.18-.002-.27-.006l-.42-.033c-.223-.024-.444-.06-.662-.107l-.134-.03c-.085-.02-.17-.043-.254-.067l-.42-.138c-.76-.282-1.454-.72-2.014-1.32-.024-.027-.05-.053-.073-.08-.154-.173-.297-.358-.428-.556l-.058-.09c-.134-.214-.255-.44-.36-.683l-.04-.097c-.112-.277-.205-.573-.274-.887l-.022-.104c-.08-.406-.125-.84-.125-1.305 0-.114 0-.02.003-.135-.228-.145.895-.526.895-.526-.165 3.317 2.364 5.4 5.154 5.4 1.723 0 3.545-.794 4.894-2.584-.19.454-.435.863-.725 1.226l-.074.092c-.173.207-.36.398-.56.572l-.08.07c-.45.38-.96.68-1.502.905-.085.035-.17.068-.258.1-.375.135-.764.234-1.158.298-.06.01-.12.018-.18.026-.284.036-.57.055-.856.055" fill="#B84345"/>
	<path d="M7.157 10.963v.017c.64-.087 1.135-.632 1.135-1.294 0-.54-.33-1.003-.798-1.202-.37.154-1.56.8-1.56.8l1.632.487-1.42.424s.784.625 1.01.77" fill="#E0BD55"/>
	<path d="M17.168 13.128c-1.38 2.34-5.445 1.695-5.475-1.3-.01-.9 1.845-2.51 3.255-.342 1.215 1.93 1.746 1.924 2.22 1.642" fill="#DA5051"/>
  </g>
</svg>
