<svg width="100" height="100" viewBox="0 0 100 100" xmlns="http://www.w3.org/2000/svg" xmlns:xlink="http://www.w3.org/1999/xlink">
	<defs>
		<path id="a" d="M0 41.243V.098h33.692v41.145z"/>
	</defs>
	<g fill="none" fill-rule="evenodd">
		<circle fill="#DAF4FF" cx="50" cy="50" r="50"/>
		<path d="M77.827 60.71c-1.996-4.61-2.34-8.518-2.393-10.053v-12.63c0-9.65-7.824-17.47-17.475-17.47-9.653 0-17.477 7.82-17.477 17.47v12.812c-.075 1.65-.467 5.438-2.386 9.87-2.58 5.955-.445 5.245 1.467 4.755 1.912-.488 6.18-2.4 7.515-.045 1.332 2.355 2.444 4.4 5.556 3.067 3.113-1.333 4.58-1.777 5.024-1.777h.605c.444 0 1.91.444 5.023 1.777 3.112 1.334 4.224-.712 5.558-3.067 1.333-2.356 5.602-.443 7.514.045 1.912.49 4.046 1.2 1.467-4.755" fill="#00AEF0"/>
		<path d="M74.82 60.71c-1.997-4.61-2.34-8.518-2.394-10.053v-12.63c0-9.65-7.824-17.47-17.475-17.47-9.65 0-17.475 7.82-17.475 17.47v12.812c-.075 1.65-.467 5.438-2.386 9.87-2.58 5.955-.446 5.245 1.466 4.755 1.912-.488 6.18-2.4 7.515-.045 1.334 2.355 2.446 4.4 5.56 3.067 3.11-1.333 4.578-1.777 5.022-1.777h.605c.444 0 1.91.444 5.023 1.777 3.112 1.334 4.224-.712 5.558-3.067 1.333-2.356 5.602-.443 7.514.045 1.912.49 4.046 1.2 1.467-4.755" stroke="#4A4A4A" stroke-width="3"/>
		<path d="M77.827 60.71c-1.996-4.61-2.34-8.518-2.393-10.053v-12.63c0-9.65-7.824-17.47-17.475-17.47-9.653 0-17.477 7.82-17.477 17.47v12.812c-.075 1.65-.467 5.438-2.386 9.87-2.58 5.955-.445 5.245 1.467 4.755 1.912-.488 6.18-2.4 7.515-.045 1.332 2.355 2.444 4.4 5.556 3.067 3.113-1.333 4.58-1.777 5.024-1.777h.605c.444 0 1.91.444 5.023 1.777 3.112 1.334 4.224-.712 5.558-3.067 1.333-2.356 5.602-.443 7.514.045 1.912.49 4.046 1.2 1.467-4.755" fill="#00AEF0"/>
		<path d="M74.82 60.71c-1.997-4.61-2.34-8.518-2.394-10.053v-12.63c0-9.65-7.824-17.47-17.475-17.47-9.65 0-17.475 7.82-17.475 17.47v12.812c-.075 1.65-.467 5.438-2.386 9.87-2.58 5.955-.446 5.245 1.466 4.755 1.912-.488 6.18-2.4 7.515-.045 1.334 2.355 2.446 4.4 5.56 3.067 3.11-1.333 4.578-1.777 5.022-1.777h.605c.444 0 1.91.444 5.023 1.777 3.112 1.334 4.224-.712 5.558-3.067 1.333-2.356 5.602-.443 7.514.045 1.912.49 4.046 1.2 1.467-4.755" stroke="#4A4A4A" stroke-width="3"/>
		<g fill="#4A4A4A">
			<path d="M49.36 27.81c1.895 0 3.43 2.39 3.43 5.34 0 2.948-1.535 5.34-3.43 5.34-1.894 0-3.43-2.392-3.43-5.34 0-2.95 1.536-5.34 3.43-5.34M54.678 48.958c-4.175 0-7.69-4.04-8.748-8.537 2.046 2.766 5.203 4.544 8.748 4.544 3.546 0 6.703-1.778 8.748-4.543-1.06 4.497-4.574 8.538-8.748 8.538M60.347 38.49c-1.896 0-3.43-2.392-3.43-5.34 0-2.95 1.534-5.34 3.43-5.34 1.895 0 3.43 2.39 3.43 5.34 0 2.948-1.535 5.34-3.43 5.34"/>
		</g>
		<g>
			<g transform="translate(22.034 42.938)">
				<mask id="b" fill="#fff">
					<use xlink:href="#a"/>
				</mask>
				<path d="M30.97 12.523c0-.458-.02-.918.008-1.377.016-.266-.096-.365-.318-.45-4.846-1.877-9.383-4.33-13.57-7.427-.18-.133-.294-.147-.48-.01-4.198 3.11-8.745 5.566-13.604 7.442-.244.094-.306.224-.29.468.08 1.4.124 2.802.228 4.2.182 2.475.602 4.913 1.264 7.308 1.223 4.43 3.413 8.262 6.844 11.337 1.735 1.555 3.647 2.866 5.588 4.14.185.12.307.065.458-.037.955-.655 1.923-1.295 2.873-1.96 5.018-3.502 8.248-8.244 9.713-14.22.758-3.093 1.13-6.237 1.288-9.415m2.717-.68c-.15 4.54-.695 9.015-2.167 13.34-1.83 5.377-5.11 9.654-9.683 12.936-1.38.992-2.81 1.916-4.224 2.866-.47.315-.975.352-1.46.044-2.344-1.49-4.654-3.022-6.742-4.873-3.945-3.5-6.463-7.873-7.85-12.946-.795-2.9-1.248-5.858-1.414-8.86-.078-1.412-.11-2.828-.145-4.242-.02-.823.272-1.22 1.043-1.507C4.64 7.268 8.106 5.653 11.355 3.6c1.53-.97 2.998-2.036 4.48-3.08.77-.544 1.265-.574 2.004-.005 4.512 3.472 9.47 6.112 14.792 8.084.793.295 1.062.682 1.06 1.533 0 .47-.003.943-.005 1.416v.297" fill="#4A4A4A" mask="url(#b)"/>
			</g>
			<path d="M53.2 56.15c-.3 3.128-.81 6.213-1.7 9.23-1.716 5.828-5.123 10.356-10.237 13.582-.97.61-1.953 1.197-2.928 1.8-.153.095-.273.144-.453.015-1.858-1.344-3.687-2.726-5.33-4.34-3.25-3.193-5.238-7.077-6.245-11.502-.543-2.393-.85-4.818-.915-7.27-.038-1.383-.02-2.77-.035-4.154-.003-.238.063-.365.308-.447 4.885-1.628 9.487-3.843 13.772-6.714.19-.128.304-.108.473.03 3.996 3.247 8.365 5.88 13.064 7.953.218.094.324.196.295.458-.05.452-.05.907-.07 1.36" fill="#FEFEFE"/>
			<path d="M38.1 68.88l-6.76-5.257c.555-.715 1.096-1.413 1.658-2.133 1.595 1.24 3.174 2.47 4.78 3.717 2.498-2.76 4.996-5.52 7.51-8.3l2.004 1.81L38.1 68.88" fill="#4A4A4A"/>
		</g>
	</g>
</svg>
