<svg xmlns="http://www.w3.org/2000/svg" width="150" height="34" viewBox="0 0 210 58">
    <g fill="none" fill-rule="evenodd">
        <g fill="#5F01D1" fill-rule="nonzero">
            <g>
                <g transform="translate(-346 -107) translate(187 107) translate(159)">
                    <path d="M.054 14.135L12.487 14.135 19.726 32.656 27.06 14.135 39.165 14.135 20.937 57.981 8.755 57.981 13.745 46.362zM51.776 13.397c-9.342 0-15.247 8.378-15.247 16.72 0 9.389 6.475 16.832 15.07 16.832 6.411 0 8.829-3.906 8.829-3.906v3.043H71.27V14.135H60.428v2.904s-2.698-3.642-8.652-3.642zm2.306 10.268c4.31 0 6.535 3.41 6.535 6.488 0 3.314-2.383 6.566-6.535 6.566-3.44 0-6.55-2.812-6.55-6.425 0-3.664 2.501-6.629 6.55-6.629zM75.006 46.086V.026h11.342V17.15s2.694-3.749 8.336-3.749c6.902 0 10.945 5.142 10.945 12.49v20.195H94.37V28.658c0-2.487-1.184-4.89-3.867-4.89-2.732 0-4.155 2.44-4.155 4.89v17.428H75.006zM124.967 13.401c-10.698 0-17.068 8.134-17.068 16.85 0 9.918 7.713 16.698 17.108 16.698 9.107 0 17.076-6.472 17.076-16.532 0-11.007-8.344-17.016-17.116-17.016zm.102 10.358c3.779 0 6.393 3.147 6.393 6.504 0 2.862-2.436 6.393-6.393 6.393-3.626 0-6.347-2.908-6.347-6.425 0-3.387 2.262-6.472 6.347-6.472zM160.978 13.401c-10.698 0-17.068 8.134-17.068 16.85 0 9.918 7.713 16.698 17.108 16.698 9.107 0 17.075-6.472 17.075-16.532 0-11.007-8.343-17.016-17.115-17.016zm.102 10.358c3.779 0 6.393 3.147 6.393 6.504 0 2.862-2.436 6.393-6.393 6.393-3.626 0-6.347-2.908-6.347-6.425 0-3.387 2.262-6.472 6.347-6.472z"/>
                    <circle cx="187.043" cy="39.233" r="7.531"/>
                    <path d="M197.049 28.934L183.491 28.934 195.524 0.026 209.032 0.026z"/>
                </g>
            </g>
        </g>
    </g>
</svg>
