<svg xmlns="http://www.w3.org/2000/svg" xmlns:xlink="http://www.w3.org/1999/xlink" width="163" height="151">
	<defs>
		<path id="a" d="M54.924.674v37.325H0V.674h54.924z"/>
	</defs>
	<g fill="none" fill-rule="evenodd">
		<circle cx="75.5" cy="75.5" r="75.5" fill="#DAF4FF"/>
		<path fill="#930194" d="M33.649 14.66c1.224-.221 2.034-.9 1.979-2.262-.055-1.4-.96-2.035-2.25-1.986-1.24.061-2 .877-1.956 2.113.044 1.307.832 2.046 2.227 2.134M33.577 19c-3.716.017-6.55-2.751-6.577-6.413-.022-3.668 2.806-6.553 6.45-6.586A6.48 6.48 0 0 1 40 12.48c.022 3.757-2.685 6.503-6.423 6.52"/>
		<path fill="#CD5ACF" d="M128.649 137.66c1.224-.221 2.034-.9 1.979-2.262-.055-1.4-.96-2.035-2.25-1.986-1.24.061-2 .877-1.956 2.113.044 1.307.832 2.046 2.227 2.134m-.072 4.34c-3.716.017-6.55-2.751-6.577-6.413-.022-3.668 2.806-6.553 6.45-6.586a6.48 6.48 0 0 1 6.55 6.48c.022 3.757-2.685 6.503-6.423 6.52"/>
		<path fill="#00AEF0" d="M9.354 42.689c-1.567-.125-3.385-.01-3.354-2.206.037-2.065 1.77-1.992 3.318-2.096.255-1.504-.058-3.502 2.312-3.382 2.077.11 1.926 1.842 2.051 3.356 1.552.187 3.49-.042 3.307 2.356-.151 1.998-1.78 1.852-3.28 1.935-.22 1.499.051 3.429-2.318 3.345-2.182-.078-1.812-1.898-2.036-3.308m59.171-4.194c-.713-.057-1.539-.005-1.525-1.003.017-.938.805-.905 1.508-.953.116-.683-.026-1.591 1.05-1.537.945.05.877.837.934 1.526.705.085 1.585-.02 1.503 1.07-.07.909-.81.843-1.492.88-.1.681.024 1.559-1.053 1.52-.992-.035-.824-.862-.925-1.503m52.948 47.082c.992 1.115 2.287 2.157.91 3.76-.925 1.078-1.922.855-3.874-.763-1.952 1.602-2.949 1.815-3.884.752-1.397-1.592-.062-2.64.904-3.775-.966-1.182-2.404-2.353-.827-3.899 1.48-1.446 2.625-.186 3.75.877 1.182-.913 2.338-2.4 3.87-.856 1.566 1.582.05 2.717-.849 3.904"/>
		<path fill="#00AEF0" stroke="#4A4A4A" d="M114.495 130c-1.287-.01-2.505-1.251-2.495-2.529.01-1.308 1.208-2.476 2.52-2.471 1.334.005 2.49 1.178 2.48 2.503-.01 1.313-1.214 2.507-2.505 2.497zm-85-77c-1.287-.01-2.505-1.251-2.495-2.529.01-1.308 1.208-2.476 2.52-2.471 1.334.005 2.49 1.178 2.48 2.503-.01 1.313-1.214 2.507-2.505 2.497z"/>
		<path fill="#00AEF0" d="M5.627 103.993c1.418-.038 2.65 1.128 2.689 2.541.038 1.392-1.16 2.657-2.558 2.7-1.353.045-2.673-1.21-2.717-2.573-.038-1.38 1.172-2.63 2.585-2.668"/>
		<path fill="#4A4A4A" d="M87.102 18.939c0 1.48-1.139 2.585-2.64 2.563-1.403-.022-2.514-1.095-2.563-2.48-.055-1.447 1.105-2.64 2.574-2.657 1.496-.022 2.629 1.089 2.629 2.574"/>
		<path fill="#80D8ED" d="M160.469 46c-1.315-.022-2.495-1.242-2.469-2.558.027-1.359 1.175-2.463 2.547-2.442A2.49 2.49 0 0 1 163 43.521c-.021 1.354-1.19 2.5-2.531 2.479"/>
		<path fill="#9ECC42" d="M105.502 147c-1.368.005-2.429-.997-2.498-2.363-.08-1.44.96-2.587 2.381-2.635 1.448-.053 2.577.997 2.614 2.427a2.512 2.512 0 0 1-2.497 2.571z"/>
		<g transform="translate(73 28)">
			<mask id="b" fill="#fff">
				<use xlink:href="#a"/>
			</mask>
			<path fill="#4A4A4A" d="M28.75 35.62c5.356 0 10.708-.017 16.064.005 2.18.01 3.908-.855 5.274-2.503 3.26-3.936 3.335-10.607.173-14.649-1.145-1.46-2.584-2.467-4.47-2.66-.893-.092-1.802-.04-2.706-.043-1.146-.008-1.406-.215-1.689-1.33-.684-2.696-1.938-5.081-3.824-7.133C32.979 2.31 25.898 1.615 20.51 5.65c-2.147 1.61-3.713 3.683-4.777 6.137-.31.714-.785 1.026-1.542.993-.516-.019-1.031.003-1.55-.002-2.654-.03-4.918.941-6.772 2.803-2.904 2.921-3.881 6.49-3.35 10.518.603 4.56 4.311 9.71 10.814 9.544 5.136-.128 10.277-.025 15.418-.025m14.811-22.262c1.192.095 2.343.073 3.448.304 2.244.472 3.943 1.837 5.287 3.653 3.816 5.155 3.428 13.251-.855 17.776-1.802 1.903-3.98 2.885-6.645 2.877-10.469-.027-20.943-.13-31.412.03-6.761.106-11.718-4.63-12.99-10.502-.991-4.546-.134-8.767 2.8-12.442 2.468-3.086 5.714-4.674 9.693-4.63.638.005.972-.166 1.284-.758 2.318-4.364 5.757-7.448 10.64-8.571 5.638-1.3 10.418.477 14.4 4.549 2.003 2.049 3.324 4.516 4.193 7.236.057.18.117.361.157.478" mask="url(#b)"/>
		</g>
		<path fill="#FEFEFE" d="M91.897 48.045c-.165-.271-.254-.442-.362-.596-.376-.543-.982-.7-1.52-.403-.554.305-.8.975-.486 1.565a101.075 101.075 0 0 0 2.206 3.969c.4.678 1.243.796 1.76.222 1.035-1.156 2.019-2.362 2.992-3.573.33-.412.29-.898-.008-1.337-.3-.448-.76-.6-1.24-.448-.325.104-.598.376-.914.588.01-.09.013-.176.032-.256.838-3.504 4.296-5.38 7.683-4.171.805.288 1.433.044 1.69-.651.24-.654-.09-1.26-.86-1.563-1.738-.676-3.517-.752-5.28-.165-3.192 1.063-5.012 3.376-5.693 6.82m16.177 1.927c.184.297.273.467.384.621.367.505 1.03.66 1.538.365.524-.305.77-.964.476-1.516a95.685 95.685 0 0 0-2.266-4.015c-.378-.632-1.249-.747-1.722-.211a85.616 85.616 0 0 0-3.017 3.641c-.348.442-.21 1.104.195 1.483.438.412 1.03.432 1.52.047.134-.11.261-.225.434-.376-.097 2.018-1.878 4.084-3.992 4.71-1.368.406-2.706.302-4.01-.27-.462-.203-.943-.194-1.238.19-.232.308-.427.813-.346 1.154.087.346.482.72.83.878 3.174 1.437 7.075.465 9.313-2.26 1.03-1.25 1.63-2.688 1.9-4.44m-6.809 13.995c-5.12 0-10.24-.105-15.355.027-6.477.165-10.173-5.045-10.77-9.656-.533-4.078.443-7.687 3.336-10.642 1.846-1.887 4.1-2.867 6.745-2.84.516.006 1.03-.016 1.543.006.754.03 1.228-.286 1.536-1.008 1.06-2.48 2.62-4.581 4.758-6.21 5.366-4.08 12.416-3.38 16.993 1.678 1.879 2.077 3.128 4.488 3.809 7.215.281 1.131.54 1.337 1.681 1.346.9.002 1.806-.05 2.696.044 1.878.197 3.311 1.214 4.452 2.691 3.15 4.09 3.071 10.843-.173 14.822-1.36 1.667-3.082 2.546-5.253 2.535-5.333-.025-10.667-.008-15.998-.008"/>
		<path fill="#4A4A4A" d="M108.405 49.909c-.281 1.688-.896 3.074-1.955 4.28-2.302 2.621-6.316 3.558-9.577 2.174-.359-.15-.768-.51-.854-.844-.083-.33.117-.817.356-1.11.3-.374.798-.379 1.273-.186 1.338.55 2.714.651 4.12.26 2.177-.604 4.01-2.59 4.11-4.537-.181.145-.312.26-.448.362-.503.373-1.115.355-1.565-.045-.415-.365-.556-1.002-.198-1.425a80.853 80.853 0 0 1 3.1-3.508c.49-.519 1.382-.407 1.774.204a91.89 91.89 0 0 1 2.33 3.864c.303.535.047 1.17-.49 1.46a1.263 1.263 0 0 1-1.582-.349c-.114-.15-.208-.314-.394-.6m-15.971-1.892c.661-3.35 2.428-5.599 5.529-6.632 1.711-.572 3.439-.497 5.127.16.748.294 1.069.884.835 1.52-.25.676-.859.913-1.641.633-3.29-1.175-6.647.649-7.461 4.057-.019.078-.021.16-.032.249.307-.206.573-.47.888-.572.467-.147.913 0 1.205.435.288.428.328.9.008 1.301-.946 1.178-1.901 2.35-2.907 3.475-.501.558-1.32.443-1.709-.216a98.343 98.343 0 0 1-2.142-3.86c-.305-.574-.066-1.226.473-1.522.522-.289 1.11-.137 1.475.392.105.15.192.315.352.58"/>
		<path fill="#00AEF0" d="M90.235 109.779c-3.01-6.942-3.528-12.824-3.609-15.135V75.628c0-14.526-11.797-26.3-26.348-26.3-14.553 0-26.35 11.774-26.35 26.3v19.29c-.113 2.487-.704 8.19-3.597 14.861-3.889 8.965-.67 7.896 2.212 7.159 2.882-.735 9.32-3.614 11.33-.067 2.01 3.545 3.687 6.624 8.38 4.617 4.693-2.007 6.905-2.676 7.575-2.676h.911c.67 0 2.882.669 7.574 2.676 4.693 2.007 6.37-1.072 8.38-4.617 2.01-3.547 8.447-.668 11.33.067 2.883.737 6.1 1.806 2.212-7.159"/>
		<path stroke="#4A4A4A" stroke-width="3" d="M85.7 109.779c-3.01-6.942-3.528-12.824-3.609-15.135V75.628c0-14.526-11.797-26.3-26.348-26.3-14.553 0-26.35 11.774-26.35 26.3v19.29c-.113 2.487-.704 8.19-3.598 14.861-3.888 8.965-.67 7.896 2.213 7.159 2.882-.735 9.319-3.614 11.33-.067 2.01 3.545 3.687 6.624 8.38 4.617 4.693-2.007 6.904-2.676 7.574-2.676h.912c.669 0 2.881.669 7.574 2.676s6.369-1.072 8.38-4.617c2.01-3.547 8.447-.668 11.33.067 2.883.737 6.1 1.806 2.211-7.159"/>
		<path fill="#00AEF0" d="M90.235 109.779c-3.01-6.942-3.528-12.824-3.609-15.135V75.628c0-14.526-11.797-26.3-26.348-26.3-14.553 0-26.35 11.774-26.35 26.3v19.29c-.113 2.487-.704 8.19-3.597 14.861-3.889 8.965-.67 7.896 2.212 7.159 2.882-.735 9.32-3.614 11.33-.067 2.01 3.545 3.687 6.624 8.38 4.617 4.693-2.007 6.905-2.676 7.575-2.676h.911c.67 0 2.882.669 7.574 2.676 4.693 2.007 6.37-1.072 8.38-4.617 2.01-3.547 8.447-.668 11.33.067 2.883.737 6.1 1.806 2.212-7.159"/>
		<path stroke="#4A4A4A" stroke-width="3" d="M85.7 109.779c-3.01-6.942-3.528-12.824-3.609-15.135V75.628c0-14.526-11.797-26.3-26.348-26.3-14.553 0-26.35 11.774-26.35 26.3v19.29c-.113 2.487-.704 8.19-3.598 14.861-3.888 8.965-.67 7.896 2.213 7.159 2.882-.735 9.319-3.614 11.33-.067 2.01 3.545 3.687 6.624 8.38 4.617 4.693-2.007 6.904-2.676 7.574-2.676h.912c.669 0 2.881.669 7.574 2.676s6.369-1.072 8.38-4.617c2.01-3.547 8.447-.668 11.33.067 2.883.737 6.1 1.806 2.211-7.159"/>
		<path d="M47.314 60.247c2.856 0 5.172 3.598 5.172 8.039 0 4.44-2.316 8.04-5.172 8.04-2.857 0-5.173-3.6-5.173-8.04 0-4.44 2.316-8.04 5.173-8.04m8.018 31.841c-6.295 0-11.594-6.084-13.19-12.854 3.083 4.164 7.843 6.84 13.19 6.84 5.346 0 10.105-2.676 13.19-6.84-1.597 6.77-6.897 12.854-13.19 12.854m8.547-15.761c-2.859 0-5.174-3.6-5.174-8.04 0-4.44 2.315-8.04 5.174-8.04 2.858 0 5.172 3.6 5.172 8.04 0 4.44-2.314 8.04-5.172 8.04" fill="#4A4A4A"/>
	</g>
</svg>
