<svg width="104" height="100" viewBox="0 0 104 100" xmlns="http://www.w3.org/2000/svg"><title>clipboard</title><g transform="translate(-1)" fill="none" fill-rule="evenodd"><circle fill="#DFF6FE" fill-rule="nonzero" cx="55" cy="50" r="50"/><path d="M49.822 56.69H72.69v-2.23H49.82v2.23h.002zm-.002-4.585h22.867V49.88H49.82v2.225zm0-4.576h22.867V45.3H49.82v2.23zm.018-4.567h22.85V40.73h-22.85v2.233zm4.536-13.703v2.256h13.74V29.26H77.1c1.528 0 2.486.96 2.486 2.488v36.184c0 1.56-.947 2.51-2.508 2.51h-31.66c-1.532 0-2.495-.956-2.495-2.477-.002-12.063-.002-24.125 0-36.186 0-1.573.937-2.517 2.495-2.52h8.956z" fill="#FFF" fill-rule="nonzero"/><path d="M59.968 28.446c1.222.01 2.268-1.025 2.293-2.266.026-1.25-1.02-2.33-2.265-2.337-1.224-.01-2.27 1.025-2.292 2.266-.024 1.25 1.024 2.326 2.266 2.335h-.002zm-6.83 0c-3.014 0-5.96-.002-8.907 0-1.55 0-2.48.952-2.48 2.533-.003 12.133-.003 24.27 0 36.403 0 1.53.955 2.494 2.48 2.494h31.49c1.554 0 2.497-.955 2.497-2.525V30.948c0-1.537-.95-2.502-2.47-2.502-2.826-.002-5.652 0-8.48 0h-.462v2.27H53.137v-2.27zm2.27-2.3c.083-2.746 2.177-4.467 4.29-4.608 2.17-.142 4.694 1.424 4.88 4.61h.484c3.614 0 7.23-.004 10.846 0 2.585 0 4.583 2.018 4.583 4.633 0 12.26.004 24.518 0 36.774 0 2.614-1.996 4.622-4.594 4.622-10.617.002-21.237.002-31.854 0-2.562 0-4.57-2.024-4.57-4.604V30.847c0-2.718 1.964-4.697 4.66-4.7 3.585-.002 7.168 0 10.753 0h.524-.002z" fill="#4A4A4A" fill-rule="nonzero"/><path d="M48.55 41.745h22.823v-1.902H48.55m0 6.34h22.823V44.28H48.55m0 6.975h22.823v-1.902H48.55m0 6.34h22.823V53.79H48.55" fill="#4A4A4A" fill-rule="nonzero"/><path d="M56.877 86.286c-2.106-4.823-2.47-8.91-2.526-10.517V62.555c0-10.094-8.257-18.276-18.445-18.276-10.19 0-18.45 8.183-18.45 18.277V75.96c-.078 1.728-.492 5.69-2.517 10.326-2.723 6.23-.47 5.487 1.55 4.975 2.017-.51 6.523-2.51 7.93-.045 1.41 2.464 2.583 4.603 5.868 3.208 3.286-1.394 4.834-1.86 5.303-1.86h.64c.466 0 2.015.466 5.3 1.86 3.286 1.395 4.46-.744 5.868-3.208 1.407-2.465 5.914-.464 7.932.047 2.017.513 4.27 1.255 1.547-4.974" fill="#FFF" fill-rule="nonzero"/><path d="M59.413 86.286c-2.106-4.823-2.47-8.91-2.526-10.517V62.555c0-10.094-8.26-18.276-18.447-18.276-10.19 0-18.45 8.183-18.45 18.277V75.96c-.078 1.728-.492 5.69-2.517 10.326-2.723 6.23-.47 5.487 1.55 4.975 2.017-.51 6.523-2.51 7.93-.045 1.41 2.464 2.583 4.603 5.868 3.208 3.288-1.394 4.836-1.86 5.305-1.86h.64c.467 0 2.016.466 5.302 1.86 3.285 1.395 4.46-.744 5.867-3.208 1.407-2.465 5.914-.464 7.932.047 2.018.513 4.27 1.255 1.548-4.974" fill="#00AEF0" fill-rule="nonzero"/><path d="M56.243 86.286c-2.106-4.823-2.47-8.91-2.526-10.517V62.555c0-10.094-8.26-18.276-18.447-18.276-10.19 0-18.45 8.183-18.45 18.277V75.96c-.078 1.728-.492 5.69-2.517 10.326-2.723 6.23-.47 5.487 1.55 4.975 2.017-.51 6.523-2.51 7.93-.045 1.41 2.464 2.583 4.603 5.868 3.208 3.288-1.394 4.836-1.86 5.305-1.86h.64c.467 0 2.016.466 5.302 1.86 3.285 1.395 4.46-.744 5.867-3.208 1.407-2.465 5.914-.464 7.932.047 2.018.513 4.27 1.255 1.548-4.974" stroke="#4A4A4A" stroke-width="3"/><path d="M29.34 51.89c1.997 0 3.616 2.506 3.616 5.6s-1.62 5.602-3.615 5.602-3.614-2.508-3.614-5.602c0-3.094 1.62-5.6 3.616-5.6m5.603 22.183c-4.4 0-8.103-4.24-9.22-8.956 2.156 2.9 5.483 4.766 9.22 4.766 3.736 0 7.063-1.865 9.22-4.766-1.117 4.717-4.82 8.956-9.22 8.956m5.975-10.98c-2 0-3.617-2.51-3.617-5.603 0-3.094 1.618-5.6 3.616-5.6 1.995 0 3.613 2.506 3.613 5.6s-1.618 5.602-3.615 5.602" fill-rule="nonzero" fill="#4A4A4A"/><path d="M29.94 26.947c.777-.14 1.29-.57 1.256-1.433-.035-.888-.61-1.29-1.426-1.26-.787.04-1.27.557-1.24 1.34.027.83.526 1.297 1.41 1.353m-.045 2.752c-2.355.01-4.152-1.747-4.17-4.068-.013-2.326 1.78-4.154 4.09-4.175 2.293-.018 4.138 1.807 4.152 4.108.014 2.38-1.702 4.123-4.072 4.133" fill="#930194" fill-rule="nonzero"/><path d="M90.804 78.3c.775-.14 1.29-.57 1.254-1.433-.035-.888-.608-1.29-1.426-1.26-.786.04-1.27.557-1.24 1.34.027.83.527 1.297 1.412 1.353m-.046 2.752c-2.356.01-4.152-1.745-4.17-4.066-.014-2.326 1.78-4.154 4.09-4.175 2.293-.016 4.138 1.81 4.152 4.11.014 2.38-1.702 4.123-4.072 4.133" fill="#CD5ACF" fill-rule="nonzero"/><path d="M12.002 40.914c-.994-.08-2.146-.007-2.126-1.4.023-1.308 1.123-1.262 2.103-1.328.16-.953-.038-2.22 1.464-2.144 1.317.07 1.22 1.168 1.3 2.128.985.118 2.213-.027 2.097 1.494-.095 1.266-1.13 1.174-2.08 1.227-.137.95.034 2.175-1.47 2.12-1.38-.047-1.147-1.2-1.29-2.095M67.9 19.87c-.45-.037-.974-.004-.965-.636.01-.595.51-.574.956-.604.075-.434-.015-1.01.668-.975.6.032.555.53.59.967.448.054 1.007-.012.954.68-.042.575-.512.533-.944.557-.063.43.015.986-.668.962-.63-.023-.522-.547-.587-.954m24.69 28.582c.63.708 1.45 1.368.578 2.384-.584.684-1.216.542-2.454-.483-1.238 1.018-1.87 1.15-2.463.48-.886-1.01-.04-1.675.574-2.394-.613-.75-1.525-1.493-.525-2.472.94-.917 1.666-.12 2.38.555.748-.58 1.48-1.523 2.452-.543.993 1.002.032 1.722-.538 2.475" fill="#00AEF0" fill-rule="nonzero"/><path d="M8.288 63.3c-.816-.006-1.59-.793-1.582-1.603.007-.83.766-1.57 1.598-1.566.845.005 1.578.75 1.572 1.588-.007.833-.77 1.59-1.588 1.584V63.3zm61.496-50.718c-.815-.007-1.588-.794-1.58-1.603.005-.83.765-1.573 1.597-1.57.847.004 1.58.748 1.574 1.587-.007.833-.77 1.59-1.59 1.584v.002z" stroke="#4A4A4A" fill="#00AEF0" fill-rule="nonzero"/><path d="M27.39 36.67c.9-.026 1.68.714 1.706 1.61.024.882-.736 1.684-1.622 1.712-.857.028-1.694-.767-1.722-1.632-.025-.875.743-1.667 1.64-1.69" fill-rule="nonzero" fill="#00AEF0"/><path d="M53.05 16.98c0 .94-.72 1.64-1.672 1.626-.89-.014-1.594-.694-1.625-1.573-.035-.917.7-1.674 1.632-1.684.948-.016 1.666.69 1.666 1.63" fill-rule="nonzero" fill="#4A4A4A"/><path d="M79.278 24.627c-.834-.013-1.582-.787-1.565-1.622.016-.86.744-1.56 1.614-1.547.867.01 1.572.733 1.555 1.598-.013.858-.754 1.585-1.604 1.57" fill="#80D8ED" fill-rule="nonzero"/><path d="M66.62 79.784c-.87.004-1.54-.632-1.585-1.498-.05-.913.61-1.64 1.51-1.67.917-.034 1.634.632 1.657 1.538.024.89-.696 1.627-1.583 1.63z" fill="#9ECC42" fill-rule="nonzero"/><path d="M1 52.517c-.025-.737.433-1.224 1.18-1.26.777-.03 1.32.348 1.354 1.184.034.815-.455 1.22-1.192 1.35-.84-.05-1.314-.492-1.34-1.272H1z" fill="#4A4A4A" fill-rule="nonzero"/></g></svg>