<svg width="205" height="205" viewBox="0 0 205 205" xmlns="http://www.w3.org/2000/svg">
	<g fill="none" fill-rule="evenodd">
		<circle cx="75.5" cy="75.5" r="75.5" transform="translate(27 27)" fill="#DAF4FF"/>
		<path d="M27.67 59.493c1.148-.207 1.908-.843 1.856-2.12-.05-1.313-.9-1.908-2.108-1.86-1.163.056-1.877.82-1.835 1.98.04 1.225.78 1.917 2.088 2m-.066 4.07c-3.484.015-6.14-2.58-6.166-6.014-.02-3.44 2.63-6.144 6.047-6.175 3.39-.026 6.12 2.673 6.14 6.076.02 3.522-2.517 6.097-6.02 6.112" fill="#930194"/>
		<path d="M166.42 154.18c1.148-.206 1.908-.842 1.856-2.12-.05-1.313-.9-1.907-2.108-1.86-1.163.056-1.877.82-1.835 1.98.04 1.225.78 1.918 2.088 2m-.066 4.07c-3.484.015-6.14-2.58-6.166-6.014-.02-3.438 2.63-6.142 6.047-6.173 3.39-.026 6.12 2.673 6.14 6.075.02 3.52-2.517 6.096-6.02 6.112" fill="#CD5ACF"/>
		<path d="M49.894 61.396c-1.47-.117-3.173-.01-3.144-2.068.035-1.936 1.66-1.868 3.11-1.966.24-1.41-.054-3.282 2.168-3.17 1.948.103 1.806 1.727 1.923 3.146 1.456.176 3.272-.04 3.1 2.21-.14 1.872-1.668 1.736-3.074 1.814-.205 1.404.048 3.214-2.173 3.136-2.045-.074-1.7-1.78-1.91-3.102M132.554 34.026c-.668-.053-1.442-.004-1.43-.94.017-.88.756-.85 1.415-.893.107-.64-.026-1.492.984-1.44.885.046.82.784.874 1.43.662.08 1.487-.02 1.41 1.003-.065.852-.76.79-1.4.825-.092.64.024 1.462-.986 1.426-.93-.033-.772-.81-.868-1.41M149.38 127.854c.93 1.045 2.145 2.022.854 3.524-.867 1.01-1.8.802-3.632-.715-1.83 1.502-2.764 1.7-3.64.705-1.31-1.492-.06-2.474.847-3.54-.907-1.107-2.256-2.205-.777-3.654 1.387-1.356 2.46-.175 3.516.822 1.107-.856 2.19-2.25 3.626-.802 1.47 1.482.048 2.547-.795 3.66" fill="#00AEF0"/>
		<path d="M121.31 142.548c-1.205-.01-2.347-1.173-2.338-2.37.01-1.228 1.133-2.322 2.364-2.318 1.25.005 2.334 1.105 2.324 2.347-.01 1.23-1.138 2.35-2.35 2.34zM65.964 69.187c-1.206-.01-2.35-1.173-2.34-2.37.01-1.227 1.134-2.322 2.364-2.317 1.25.005 2.334 1.105 2.324 2.346-.01 1.232-1.137 2.35-2.348 2.34z" stroke="#4A4A4A" fill="#00AEF0"/>
		<path d="M15.462 92.62c1.33-.037 2.486 1.056 2.522 2.38.036 1.305-1.088 2.49-2.398 2.533-1.268.04-2.506-1.135-2.547-2.414-.037-1.295 1.097-2.465 2.422-2.5" fill="#00AEF0"/>
		<path d="M110.595 29.755c0 1.387-1.067 2.423-2.475 2.403-1.315-.02-2.356-1.026-2.402-2.326-.052-1.356 1.036-2.475 2.413-2.49 1.403-.02 2.465 1.02 2.465 2.413" fill="#4A4A4A"/>
		<path d="M190.627 74.812c-1.233-.02-2.34-1.164-2.314-2.398.024-1.274 1.1-2.31 2.387-2.29 1.282.016 2.324 1.086 2.3 2.365-.02 1.267-1.116 2.342-2.373 2.322" fill="#80D8ED"/>
		<path d="M130.658 156.375c-1.283.005-2.277-.935-2.34-2.215-.076-1.35.898-2.426 2.23-2.47 1.358-.05 2.416.934 2.45 2.275.036 1.315-1.028 2.405-2.34 2.41z" fill="#9ECC42"/>
		<g>
			<path d="M138.358 109.15h20.793c4.42 0 8-3.58 8-8V68.49c0-4.418-3.58-8-8-8h-45.22c-4.418 0-8 3.582-8 8v32.663c0 4.42 3.582 8 8 8h11.634l3.094 9.832 9.7-9.83zM112.726 173.23c-3.52-8.09-4.125-14.947-4.22-17.64v-22.165c0-16.933-13.793-30.658-30.81-30.658-17.016 0-30.81 13.725-30.81 30.658v22.484c-.132 2.898-.824 9.544-4.207 17.32-4.548 10.45-.785 9.205 2.586 8.345 3.37-.856 10.897-4.212 13.25-.078 2.35 4.133 4.31 7.722 9.797 5.382 5.488-2.34 8.074-3.12 8.858-3.12h1.066c.783 0 3.37.78 8.857 3.12 5.487 2.34 7.447-1.25 9.8-5.383 2.35-4.134 9.876-.778 13.247.078 3.37.86 7.133 2.105 2.586-8.344" fill="#FFF"/>
			<path d="M117.75 173.23c-3.52-8.09-4.125-14.947-4.22-17.64v-22.165c0-16.933-13.794-30.658-30.81-30.658-17.017 0-30.81 13.725-30.81 30.658v22.484c-.133 2.898-.824 9.544-4.207 17.32-4.548 10.45-.784 9.205 2.586 8.345 3.37-.856 10.897-4.212 13.248-.078 2.35 4.133 4.31 7.722 9.8 5.382 5.486-2.34 8.072-3.12 8.856-3.12h1.066c.782 0 3.37.78 8.856 3.12 5.488 2.34 7.448-1.25 9.8-5.383 2.35-4.134 9.876-.778 13.248.078 3.37.86 7.132 2.105 2.586-8.344" fill="#00AEF0"/>
			<path d="M113.612 173.23c-3.52-8.09-4.125-14.947-4.22-17.64v-22.165c0-16.933-13.794-30.658-30.81-30.658-17.017 0-30.81 13.725-30.81 30.658v22.484c-.133 2.898-.824 9.544-4.207 17.32-4.548 10.45-.784 9.205 2.586 8.345 3.372-.856 10.9-4.212 13.25-.078 2.35 4.133 4.31 7.722 9.8 5.382 5.487-2.34 8.072-3.12 8.856-3.12h1.066c.782 0 3.37.78 8.856 3.12 5.488 2.34 7.448-1.25 9.8-5.383 2.35-4.134 9.876-.778 13.248.078 3.37.86 7.132 2.105 2.586-8.344" stroke="#4A4A4A" stroke-width="3"/>
			<g fill="#4A4A4A">
				<path d="M68.727 115.495c3.34 0 6.048 4.195 6.048 9.37 0 5.176-2.708 9.372-6.048 9.372s-6.05-4.196-6.05-9.37c0-5.177 2.71-9.372 6.05-9.372M78.102 152.61c-7.36 0-13.557-7.093-15.424-14.984 3.606 4.854 9.173 7.973 15.424 7.973 6.25 0 11.817-3.12 15.423-7.974-1.867 7.89-8.064 14.983-15.423 14.983M88.096 134.237c-3.343 0-6.05-4.196-6.05-9.37 0-5.177 2.707-9.372 6.05-9.372 3.342 0 6.048 4.195 6.048 9.37 0 5.176-2.706 9.372-6.048 9.372"/>
			</g>
			<g fill="#4A4A4A">
				<path d="M129.1 117.442c-.134-.364-.196-.506-.236-.655-.9-3.146-1.79-6.292-2.687-9.438-.324-1.148-.79-1.51-1.966-1.515-2.653 0-5.307.004-7.957-.003-.446 0-.906.01-1.345-.066-4.177-.717-6.943-4-6.947-8.242-.002-8.745-.002-17.486.008-26.23.003-.648.063-1.31.205-1.937.885-3.866 4.042-6.358 8.093-6.36 13.038-.015 26.075-.008 39.11-.005.56.004 1.13.01 1.678.113 4.055.756 6.748 4.022 6.755 8.2.012 8.72-.024 17.44.012 26.163.026 5.036-4.052 8.49-8.378 8.394-4.72-.11-9.44-.013-14.157-.037-.827-.006-1.45.255-2.023.853-3.196 3.35-6.414 6.676-9.62 10.017-.185.192-.317.43-.545.747m-5.778-8.262c.548 1.94 1.09 3.853 1.63 5.77.44 1.553.865 3.11 1.305 4.663.512 1.83 2.51 2.41 3.92 1.127.366-.334.693-.704 1.04-1.06 3.225-3.352 6.46-6.7 9.676-10.06.304-.315.608-.45 1.05-.447 4.585.013 9.172.013 13.76.007 6.295-.007 11.338-5.053 11.34-11.352.004-8.88.004-17.76 0-26.64-.002-6.342-5.04-11.372-11.387-11.372-13.176-.003-26.352-.003-39.525 0-6.378 0-11.397 5.03-11.4 11.428-.004 8.837-.004 17.67 0 26.508.003 6.395 5.022 11.425 11.404 11.428 2.38.003 4.762 0 7.188 0"/>
			</g>
		</g>
		<path d="M136 81.333c-.744-1.924-2.83-3.333-5-3.333-2.826 0-5 2.147-5 5 0 3.92 4.214 6.953 10 12.778 5.786-5.825 10-8.857 10-12.778 0-2.853-2.174-5-5-5-2.172 0-4.256 1.41-5 3.333z" fill="#930194"/>
	</g>
</svg>
