<svg width="180" height="154" viewBox="0 0 180 154" xmlns="http://www.w3.org/2000/svg">
	<g transform="translate(-12 -24)" fill="none" fill-rule="evenodd">
		<circle cx="102.5" cy="102.5" r="102.5"/>
		<circle fill="#DAF4FF" cx="102.5" cy="102.5" r="75.5"/>
		<path d="M137.033 112.17c-2.866-6.61-3.36-12.213-3.437-14.414v-18.11c0-13.834-11.235-25.05-25.093-25.05-13.86 0-25.096 11.216-25.096 25.05v18.372c-.107 2.368-.67 7.8-3.425 14.152-3.704 8.538-.64 7.52 2.107 6.82 2.744-.7 8.874-3.443 10.79-.065 1.914 3.376 3.51 6.31 7.98 4.397 4.47-1.912 6.576-2.55 7.214-2.55h.868c.637 0 2.744.638 7.213 2.55 4.47 1.912 6.066-1.02 7.982-4.397 1.914-3.378 8.044-.636 10.79.064 2.745.7 5.81 1.718 2.106-6.82" fill="#00AEF0"/>
		<path d="M132.714 112.17c-2.866-6.61-3.36-12.213-3.437-14.414v-18.11c0-13.834-11.235-25.05-25.093-25.05-13.86 0-25.096 11.216-25.096 25.05v18.372c-.107 2.368-.67 7.8-3.426 14.152-3.703 8.538-.638 7.52 2.107 6.82 2.744-.7 8.875-3.443 10.79-.065 1.914 3.376 3.51 6.31 7.98 4.397 4.47-1.912 6.576-2.55 7.215-2.55h.868c.637 0 2.744.638 7.213 2.55 4.47 1.912 6.066-1.02 7.98-4.397 1.916-3.378 8.046-.636 10.792.064 2.745.7 5.808 1.718 2.106-6.82" stroke="#4A4A4A" stroke-width="3"/>
		<path d="M137.033 112.17c-2.866-6.61-3.36-12.213-3.437-14.414v-18.11c0-13.834-11.235-25.05-25.093-25.05-13.86 0-25.096 11.216-25.096 25.05v18.372c-.107 2.368-.67 7.8-3.425 14.152-3.704 8.538-.64 7.52 2.107 6.82 2.744-.7 8.874-3.443 10.79-.065 1.914 3.376 3.51 6.31 7.98 4.397 4.47-1.912 6.576-2.55 7.214-2.55h.868c.637 0 2.744.638 7.213 2.55 4.47 1.912 6.066-1.02 7.982-4.397 1.914-3.378 8.044-.636 10.79.064 2.745.7 5.81 1.718 2.106-6.82" fill="#00AEF0"/>
		<path d="M132.714 112.17c-2.866-6.61-3.36-12.213-3.437-14.414v-18.11c0-13.834-11.235-25.05-25.093-25.05-13.86 0-25.096 11.216-25.096 25.05v18.372c-.107 2.368-.67 7.8-3.426 14.152-3.703 8.538-.638 7.52 2.107 6.82 2.744-.7 8.875-3.443 10.79-.065 1.914 3.376 3.51 6.31 7.98 4.397 4.47-1.912 6.576-2.55 7.215-2.55h.868c.637 0 2.744.638 7.213 2.55 4.47 1.912 6.066-1.02 7.98-4.397 1.916-3.378 8.046-.636 10.792.064 2.745.7 5.808 1.718 2.106-6.82" stroke="#4A4A4A" stroke-width="3"/>
		<g fill="#4A4A4A">
			<path d="M96.156 64.997c2.72 0 4.926 3.427 4.926 7.656 0 4.23-2.205 7.657-4.926 7.657-2.72 0-4.926-3.428-4.926-7.657 0-4.23 2.206-7.656 4.926-7.656M103.792 95.32c-5.995 0-11.04-5.793-12.562-12.24 2.937 3.965 7.47 6.513 12.562 6.513 5.09 0 9.624-2.548 12.562-6.514-1.52 6.447-6.568 12.24-12.562 12.24M111.932 80.31c-2.722 0-4.927-3.428-4.927-7.657 0-4.23 2.205-7.656 4.927-7.656 2.722 0 4.926 3.427 4.926 7.656 0 4.23-2.204 7.657-4.926 7.657"/>
		</g>
		<g>
			<path d="M49.76 47.485c1.166-.21 1.938-.856 1.886-2.154-.053-1.333-.914-1.937-2.142-1.89-1.182.058-1.906.836-1.864 2.012.042 1.245.792 1.95 2.12 2.033m-.067 4.134c-3.54.015-6.238-2.622-6.264-6.11-.022-3.493 2.67-6.24 6.142-6.272 3.444-.026 6.216 2.716 6.237 6.172.02 3.577-2.558 6.193-6.117 6.21" fill="#930194"/>
			<path d="M154.332 141.77c1.166-.21 1.938-.855 1.885-2.153-.052-1.334-.913-1.938-2.142-1.89-1.18.057-1.906.834-1.864 2.01.043 1.246.794 1.95 2.122 2.034m-.068 4.135c-3.54.015-6.238-2.62-6.264-6.11-.02-3.492 2.673-6.24 6.143-6.27 3.445-.027 6.217 2.715 6.238 6.17.022 3.578-2.556 6.194-6.116 6.21" fill="#CD5ACF"/>
			<path d="M15.194 69.418c-1.493-.12-3.223-.01-3.194-2.1.035-1.968 1.687-1.898 3.16-1.997.243-1.43-.055-3.334 2.202-3.22 1.978.104 1.835 1.754 1.954 3.196 1.477.178 3.322-.04 3.15 2.244-.145 1.903-1.697 1.764-3.126 1.843-.208 1.427.05 3.265-2.207 3.186-2.078-.075-1.725-1.81-1.94-3.152M87.738 53.995c-.68-.054-1.466-.004-1.452-.955.016-.894.766-.862 1.436-.907.11-.65-.025-1.516 1-1.464.9.046.835.796.89 1.45.67.083 1.51-.017 1.43 1.022-.065.864-.77.8-1.42.837-.094.648.023 1.483-1.003 1.447-.945-.033-.785-.822-.882-1.432M169.594 110.264c.944 1.062 2.177 2.054.866 3.58-.88 1.027-1.83.815-3.69-.726-1.86 1.526-2.808 1.728-3.7.716-1.33-1.516-.057-2.513.863-3.595-.92-1.126-2.29-2.242-.788-3.714 1.41-1.378 2.5-.178 3.572.835 1.125-.868 2.226-2.286 3.684-.814 1.493 1.506.05 2.587-.806 3.718" fill="#00AEF0"/>
			<path d="M100.757 142.095c-1.225-.01-2.386-1.192-2.376-2.408.01-1.246 1.152-2.36 2.402-2.354 1.27.005 2.37 1.123 2.36 2.384-.01 1.25-1.155 2.388-2.385 2.378zM62.947 92.57c-1.225-.01-2.385-1.19-2.376-2.407.01-1.246 1.152-2.358 2.402-2.353 1.27.005 2.37 1.122 2.36 2.383-.01 1.25-1.154 2.388-2.385 2.378z" stroke="#4A4A4A" fill="#00AEF0"/>
			<path d="M27.835 127.803c1.35-.037 2.525 1.074 2.56 2.42.038 1.325-1.104 2.53-2.435 2.572-1.288.042-2.545-1.152-2.587-2.45-.037-1.316 1.116-2.505 2.462-2.542" fill="#00AEF0"/>
			<path d="M105.43 26.8c0 1.408-1.084 2.46-2.514 2.44-1.336-.02-2.394-1.043-2.44-2.363-.053-1.377 1.052-2.514 2.45-2.53 1.425-.02 2.504 1.037 2.504 2.452" fill="#4A4A4A"/>
			<path d="M189.59 72.57c-1.253-.02-2.376-1.182-2.352-2.435.025-1.294 1.12-2.345 2.426-2.325 1.302.015 2.36 1.102 2.336 2.4-.02 1.29-1.134 2.38-2.41 2.36" fill="#80D8ED"/>
			<path d="M122.954 168.762c-1.303.005-2.313-.95-2.38-2.25-.074-1.372.916-2.464 2.27-2.51 1.378-.05 2.453.95 2.488 2.31.036 1.337-1.045 2.445-2.378 2.45z" fill="#9ECC42"/>
		</g>
	</g>
</svg>
