<svg xmlns="http://www.w3.org/2000/svg" viewBox="0 0 33 35">
	<g fill="none" fill-rule="evenodd">
		<path fill="#FFF" stroke="#00AEF0" stroke-width="2.1" d="M28.117 21.298V13.2c0-6.186-5.202-11.2-11.619-11.2-6.418 0-11.62 5.014-11.62 11.2v8.215c-.05 1.059-.31 3.487-1.586 6.328-1.715 3.818-.296 3.363.975 3.049 1.271-.313 4.11-1.54 4.997-.029.886 1.51 1.626 2.821 3.695 1.966 2.07-.854 3.045-1.139 3.34-1.139h.402c.295 0 1.27.285 3.34 1.14 2.07.854 2.81-.457 3.696-1.967.886-1.51 3.725-.284 4.996.029 1.271.314 2.69.769.975-3.049-1.327-2.956-1.555-5.46-1.59-6.445z"/>
		<text fill="#4A4A4A" font-family="Roboto, Open Sans, Helvetica Neue, Helvetica, Arial, sans-serif" font-size="12.6" font-weight="700" transform="translate(2.5 2)">
		<tspan x="10" y="20">4</tspan>
		</text>
	</g>
</svg>
