<svg xmlns="http://www.w3.org/2000/svg" xmlns:xlink="http://www.w3.org/1999/xlink" viewBox="0 0 33 35">
	<defs>
		<path id="a" d="M16.387 6.096L7.68 14.804a.717.717 0 01-.554.238.72.72 0 01-.554-.238l-3.958-3.958a.764.764 0 010-1.108.764.764 0 011.108 0l3.404 3.404 8.154-8.155a.766.766 0 011.108 0 .766.766 0 010 1.109z"/>
	</defs>
	<g fill="none" fill-rule="evenodd">
		<path fill="#00AEF0" d="M25.617 19.298V11.2c0-6.186-5.202-11.2-11.619-11.2C7.58 0 2.378 5.014 2.378 11.2v8.215c-.05 1.059-.31 3.487-1.586 6.328-1.715 3.818-.296 3.363.975 3.049 1.271-.313 4.11-1.54 4.997-.029.886 1.51 1.626 2.821 3.695 1.966 2.07-.854 3.045-1.139 3.34-1.139h.402c.295 0 1.27.285 3.34 1.14 2.07.854 2.81-.457 3.696-1.967.886-1.51 3.725-.284 4.996.029 1.271.314 2.69.769.975-3.049-1.327-2.956-1.555-5.46-1.59-6.445z"/>
		<g transform="translate(5 8)">
			<mask id="b" fill="#fff">
				<use xlink:href="#a"/>
			</mask>
			<use fill="#000" fill-rule="nonzero" xlink:href="#a"/>
			<g fill="#4A4A4A" mask="url(#b)">
				<path d="M0 0h19v19H0z"/>
			</g>
		</g>
	</g>
</svg>
