<svg width="280" height="280" viewBox="0 0 280 280" fill="none" xmlns="http://www.w3.org/2000/svg">
	<circle opacity="0.05" cx="140" cy="139.222" r="140" fill="white" />
	<circle opacity="0.05" cx="140" cy="140" r="112" fill="white" />
	<circle opacity="0.05" cx="140" cy="139.3" r="84" fill="white" />
	<path fill-rule="evenodd" clip-rule="evenodd" d="M202.721 189.17C196.651 175.21 195.605 163.382 195.442 158.734V120.496C195.442 91.2853 171.644 67.6069 142.29 67.6069C112.932 67.6069 89.133 91.2853 89.133 120.496V159.287C88.9063 164.287 87.7134 175.754 81.8769 189.17C74.0321 207.198 80.5244 205.049 86.3396 203.566C92.1541 202.089 105.139 196.298 109.196 203.431C113.251 210.561 116.634 216.752 126.101 212.715C135.568 208.68 140.029 207.335 141.381 207.335H143.22C144.57 207.335 149.033 208.68 158.499 212.715C167.966 216.752 171.347 210.561 175.405 203.431C179.46 196.298 192.444 202.089 198.26 203.566C204.076 205.049 210.565 207.198 202.721 189.17Z" fill="url(#paint0_radial_357_1006)" />
	<g style="mix-blend-mode:soft-light">
		<path fill-rule="evenodd" clip-rule="evenodd" d="M202.721 189.17C196.651 175.21 195.605 163.382 195.442 158.734V120.496C195.442 91.2853 171.644 67.6069 142.29 67.6069C112.932 67.6069 89.133 91.2853 89.133 120.496V159.287C88.9063 164.287 87.7134 175.754 81.8769 189.17C74.0321 207.198 80.5244 205.049 86.3396 203.566C92.1541 202.089 105.139 196.298 109.196 203.431C113.251 210.561 116.634 216.752 126.101 212.715C135.568 208.68 140.029 207.335 141.381 207.335H143.22C144.57 207.335 149.033 208.68 158.499 212.715C167.966 216.752 171.347 210.561 175.405 203.431C179.46 196.298 192.444 202.089 198.26 203.566C204.076 205.049 210.565 207.198 202.721 189.17Z" fill="url(#paint1_radial_357_1006)" />
	</g>
	<g style="mix-blend-mode:soft-light" opacity="0.4">
		<path fill-rule="evenodd" clip-rule="evenodd" d="M202.721 189.17C196.651 175.21 195.605 163.382 195.442 158.734V120.496C195.442 91.2853 171.644 67.6069 142.29 67.6069C112.932 67.6069 89.133 91.2853 89.133 120.496V159.287C88.9063 164.287 87.7134 175.754 81.8769 189.17C74.0321 207.198 80.5244 205.049 86.3396 203.566C92.1541 202.089 105.139 196.298 109.196 203.431C113.251 210.561 116.634 216.752 126.101 212.715C135.568 208.68 140.029 207.335 141.381 207.335H143.22C144.57 207.335 149.033 208.68 158.499 212.715C167.966 216.752 171.347 210.561 175.405 203.431C179.46 196.298 192.444 202.089 198.26 203.566C204.076 205.049 210.565 207.198 202.721 189.17Z" fill="url(#paint2_radial_357_1006)" />
	</g>
	<g style="mix-blend-mode:overlay">
		<path fill-rule="evenodd" clip-rule="evenodd" d="M202.721 189.17C196.651 175.21 195.605 163.382 195.442 158.734V120.496C195.442 91.2853 171.644 67.6069 142.29 67.6069C112.932 67.6069 89.133 91.2853 89.133 120.496V159.287C88.9063 164.287 87.7134 175.754 81.8769 189.17C74.0321 207.198 80.5244 205.049 86.3396 203.566C92.1541 202.089 105.139 196.298 109.196 203.431C113.251 210.561 116.634 216.752 126.101 212.715C135.568 208.68 140.029 207.335 141.381 207.335H143.22C144.57 207.335 149.033 208.68 158.499 212.715C167.966 216.752 171.347 210.561 175.405 203.431C179.46 196.298 192.444 202.089 198.26 203.566C204.076 205.049 210.565 207.198 202.721 189.17Z" fill="url(#paint3_radial_357_1006)" fill-opacity="0.7" />
	</g>
	<g opacity="0.3" filter="url(#filter0_f_357_1006)">
		<path fill-rule="evenodd" clip-rule="evenodd" d="M202.721 189.17C196.651 175.21 195.605 163.382 195.442 158.734V120.496C195.442 91.2853 171.644 67.6069 142.29 67.6069C112.932 67.6069 89.133 91.2853 89.133 120.496V159.287C88.9063 164.287 87.7134 175.754 81.8769 189.17C74.0321 207.198 80.5244 205.049 86.3396 203.566C92.1541 202.089 105.139 196.298 109.196 203.431C113.251 210.561 116.634 216.752 126.101 212.715C135.568 208.68 140.029 207.335 141.381 207.335H143.22C144.57 207.335 149.033 208.68 158.499 212.715C167.966 216.752 171.347 210.561 175.405 203.431C179.46 196.298 192.444 202.089 198.26 203.566C204.076 205.049 210.565 207.198 202.721 189.17Z" fill="url(#paint4_linear_357_1006)" />
	</g>
	<g opacity="0.7">
		<g filter="url(#filter1_f_357_1006)">
			<circle cx="171.281" cy="118.674" r="10.9042" fill="#0099E6" />
		</g>
		<g filter="url(#filter2_f_357_1006)">
			<circle cx="113.053" cy="118.674" r="10.9042" fill="#0099E6" />
		</g>
	</g>
	<path d="M157.53 135.862C157.614 135.795 157.717 135.758 157.825 135.754C157.932 135.75 158.038 135.78 158.127 135.839C158.216 135.899 158.284 135.986 158.321 136.086C158.358 136.187 158.362 136.297 158.332 136.4C156.522 143.294 149.96 148.395 142.135 148.395C134.31 148.395 127.742 143.283 125.938 136.385C125.909 136.282 125.914 136.173 125.951 136.072C125.988 135.972 126.056 135.886 126.145 135.826C126.234 135.767 126.34 135.737 126.446 135.741C126.553 135.745 126.656 135.783 126.741 135.849C130.631 138.825 136.094 140.679 142.135 140.679C148.176 140.679 153.637 138.832 157.53 135.862Z" fill="url(#paint5_radial_357_1006)" />
	<path d="M157.81 135.372C157.624 135.379 157.444 135.445 157.296 135.56C153.477 138.473 148.101 140.297 142.135 140.297C136.17 140.297 130.791 138.466 126.974 135.546C126.827 135.432 126.647 135.366 126.461 135.36C126.273 135.353 126.089 135.405 125.933 135.509C125.777 135.613 125.658 135.764 125.593 135.939C125.528 136.114 125.52 136.305 125.569 136.484C127.42 143.557 134.146 148.777 142.135 148.777C150.124 148.777 156.843 143.568 158.701 136.501C158.751 136.321 158.743 136.13 158.679 135.955C158.614 135.779 158.496 135.627 158.339 135.522C158.183 135.418 157.998 135.365 157.81 135.372Z" stroke="url(#paint6_linear_357_1006)" stroke-width="0.763568" stroke-miterlimit="10" />
	<path d="M129.1 117.488C128.33 117.049 127.505 116.715 126.647 116.494C123.358 115.621 120.174 116.561 117.306 118.228C114.098 120.09 111.2 115.122 114.404 113.262C120.375 109.794 128.106 109.173 133.717 113.711C136.522 115.979 132.707 119.881 129.87 117.942C129.622 117.775 129.365 117.622 129.1 117.482V117.488Z" fill="url(#paint7_radial_357_1006)" />
	<path d="M114.212 112.932C113.317 113.451 112.828 114.204 112.679 115.015C112.531 115.816 112.719 116.645 113.121 117.333C113.523 118.021 114.153 118.593 114.924 118.86C115.704 119.13 116.602 119.078 117.498 118.558L117.498 118.558C120.318 116.919 123.395 116.026 126.549 116.863L126.552 116.864C127.377 117.076 128.171 117.398 128.911 117.82L129.482 118.145V118.144C129.541 118.182 129.599 118.219 129.656 118.258C131.267 119.358 133.135 118.783 134.187 117.666C134.717 117.103 135.071 116.375 135.08 115.606C135.089 114.823 134.74 114.047 133.957 113.414C128.185 108.746 120.273 109.412 114.212 112.932ZM114.212 112.932L114.404 113.262M114.212 112.932L114.404 113.262M114.404 113.262C111.2 115.122 114.098 120.09 117.306 118.228L133.717 113.711C128.106 109.173 120.375 109.794 114.404 113.262Z" stroke="url(#paint8_linear_357_1006)" stroke-width="0.763568" stroke-miterlimit="10" />
	<path d="M165.54 117.488C164.77 117.05 163.945 116.716 163.087 116.494C159.798 115.621 156.614 116.561 153.744 118.228C150.538 120.09 147.637 115.122 150.841 113.262C156.814 109.794 164.543 109.173 170.155 113.711C172.961 115.979 169.147 119.881 166.308 117.942C166.06 117.776 165.804 117.622 165.54 117.482V117.488Z" fill="url(#paint9_radial_357_1006)" />
	<path d="M165.351 117.82L165.903 118.134C165.967 118.174 166.031 118.216 166.094 118.258C167.706 119.358 169.574 118.783 170.626 117.666C171.157 117.103 171.51 116.375 171.519 115.606C171.527 114.823 171.178 114.047 170.395 113.414C164.623 108.746 156.712 109.412 150.649 112.932L150.649 112.932C149.755 113.451 149.266 114.204 149.117 115.015C148.97 115.816 149.157 116.645 149.559 117.333C149.961 118.021 150.592 118.593 151.362 118.86C152.143 119.13 153.041 119.078 153.936 118.558C156.758 116.919 159.835 116.026 162.989 116.863L162.991 116.863C163.816 117.077 164.61 117.399 165.351 117.82Z" stroke="url(#paint10_linear_357_1006)" stroke-width="0.763568" stroke-miterlimit="10" />
	<g style="mix-blend-mode:multiply" filter="url(#filter3_f_357_1006)">
		<path d="M184.841 70.43C195.015 55.4928 224.863 77.5232 184.841 102.557C144.845 77.5232 174.667 55.4928 184.841 70.43Z" fill="#004669" />
	</g>
	<g style="mix-blend-mode:multiply" filter="url(#filter4_f_357_1006)">
		<path d="M92.3352 142.369C102.509 127.432 132.358 149.462 92.3352 174.496C52.3388 149.462 82.1614 127.432 92.3352 142.369Z" fill="#005B88" />
	</g>
	<g style="mix-blend-mode:multiply" filter="url(#filter5_f_357_1006)">
		<path d="M184.754 158.679C194.928 143.742 224.776 165.772 184.754 190.805C144.758 165.772 174.58 143.742 184.754 158.679Z" fill="#004669" />
	</g>
	<path d="M189.862 158.657C200.035 143.719 229.884 165.75 189.862 190.783C149.865 165.75 179.688 143.719 189.862 158.657Z" fill="url(#paint11_linear_357_1006)" />
	<mask id="mask0_357_1006" style="mask-type:alpha" maskUnits="userSpaceOnUse" x="169" y="153" width="42" height="38">
		<path d="M189.862 158.657C200.035 143.719 229.884 165.75 189.862 190.783C149.865 165.75 179.688 143.719 189.862 158.657Z" fill="url(#paint12_linear_357_1006)" />
	</mask>
	<g mask="url(#mask0_357_1006)">
		<g filter="url(#filter6_f_357_1006)">
			<path d="M172.212 168.701C171.617 166.552 171.979 164.041 173.196 161.867C174.413 159.692 176.458 157.88 178.943 156.87C180.186 156.378 181.532 156.068 182.93 156.016C184.328 155.964 185.752 156.145 187.124 156.585C188.496 157.026 189.79 157.725 190.929 158.605C192.068 159.485 193 160.546 193.777 161.659H187.357C187.564 161.375 187.771 161.116 187.978 160.831C188.185 160.546 188.418 160.287 188.651 160.029C188.884 159.77 189.143 159.537 189.402 159.278C189.661 159.019 189.945 158.812 190.204 158.579C191.343 157.699 192.638 157 194.01 156.56C195.382 156.119 196.832 155.938 198.229 155.99C199.627 156.042 200.974 156.352 202.216 156.844C204.701 157.854 206.747 159.666 207.963 161.841C209.18 164.015 209.542 166.526 208.947 168.675C208.377 167.717 207.808 166.863 207.161 166.138C206.514 165.413 205.815 164.818 205.064 164.326C203.614 163.368 202.035 162.85 200.559 162.747C199.084 162.643 197.712 162.902 196.599 163.472C195.485 164.041 194.579 164.869 193.777 166.034L190.567 170.642L187.357 166.034C186.554 164.895 185.648 164.041 184.535 163.472C183.422 162.902 182.076 162.617 180.574 162.747C179.099 162.876 177.519 163.368 176.07 164.352C175.345 164.844 174.646 165.439 173.973 166.164C173.351 166.889 172.756 167.717 172.212 168.701Z" fill="#FF3E3E" />
		</g>
		<g filter="url(#filter7_f_357_1006)">
			<path d="M185.652 187.754C185.082 187.418 184.539 187.081 183.995 186.745C183.71 186.563 183.451 186.408 183.167 186.227C182.908 186.046 182.649 185.864 182.364 185.657L180.785 184.518C180.267 184.104 179.775 183.69 179.284 183.276C177.316 181.593 175.452 179.703 173.873 177.606C172.294 175.509 170.999 173.154 170.249 170.617L169.99 169.659C169.912 169.348 169.86 169.012 169.809 168.675L169.731 168.183C169.705 168.028 169.705 167.847 169.679 167.691L169.602 166.708C169.602 165.387 169.757 164.067 170.145 162.824C170.016 164.119 170.068 165.387 170.223 166.63L170.404 167.562C170.43 167.717 170.456 167.873 170.508 168.028L170.637 168.494C170.741 168.805 170.792 169.089 170.896 169.4L171.207 170.28C172.087 172.636 173.381 174.81 174.909 176.83C176.41 178.849 178.144 180.713 179.957 182.525C180.423 182.965 180.863 183.405 181.329 183.871L182.752 185.165C182.985 185.373 183.218 185.606 183.451 185.813C183.684 186.02 183.943 186.227 184.176 186.434C184.694 186.874 185.186 187.314 185.652 187.754Z" fill="white" />
		</g>
		<g filter="url(#filter8_f_357_1006)">
			<path d="M170.378 163.989C170.378 161.711 171.129 159.355 172.578 157.414C174.002 155.472 176.099 153.997 178.429 153.22C180.785 152.443 183.425 152.418 185.833 153.298C187.024 153.712 188.163 154.359 189.146 155.162C190.13 155.964 190.984 156.896 191.709 157.932H189.561C190.26 156.896 191.114 155.964 192.098 155.162C193.081 154.359 194.22 153.738 195.411 153.298C197.819 152.443 200.459 152.443 202.815 153.22C205.171 153.997 207.242 155.472 208.692 157.414C210.141 159.355 210.892 161.711 210.892 163.989C210.814 163.705 210.737 163.446 210.659 163.161C210.581 162.902 210.478 162.617 210.374 162.358C210.167 161.841 209.934 161.323 209.675 160.831C209.132 159.873 208.485 158.993 207.734 158.216C206.206 156.689 204.291 155.628 202.272 155.162C200.252 154.696 198.129 154.825 196.291 155.576C194.428 156.327 192.848 157.673 191.709 159.355L190.648 160.935L189.587 159.355C188.422 157.673 186.868 156.301 185.004 155.55C183.141 154.799 181.044 154.67 178.999 155.136C176.979 155.602 175.064 156.663 173.536 158.191C172.785 158.941 172.112 159.847 171.595 160.805C171.336 161.297 171.103 161.789 170.896 162.333C170.792 162.591 170.689 162.85 170.611 163.135C170.533 163.42 170.456 163.705 170.378 163.989Z" fill="#700000" />
		</g>
		<g filter="url(#filter9_f_357_1006)">
			<path d="M170.378 163.989C170.378 161.711 171.129 159.355 172.578 157.414C174.002 155.472 176.099 153.997 178.429 153.22C180.785 152.443 183.425 152.418 185.833 153.298C187.024 153.712 188.163 154.359 189.146 155.162C190.13 155.964 190.984 156.896 191.709 157.932H189.561C190.26 156.896 191.114 155.964 192.098 155.162C193.081 154.359 194.22 153.738 195.411 153.298C197.819 152.443 200.459 152.443 202.815 153.22C205.171 153.997 207.242 155.472 208.692 157.414C210.141 159.355 210.892 161.711 210.892 163.989C210.814 163.705 210.737 163.446 210.659 163.161C210.581 162.902 210.478 162.617 210.374 162.358C210.167 161.841 209.934 161.323 209.675 160.831C209.132 159.873 208.485 158.993 207.734 158.216C206.206 156.689 204.291 155.628 202.272 155.162C200.252 154.696 198.129 154.825 196.291 155.576C194.428 156.327 192.848 157.673 191.709 159.355L190.648 160.935L189.587 159.355C188.422 157.673 186.868 156.301 185.004 155.55C183.141 154.799 181.044 154.67 178.999 155.136C176.979 155.602 175.064 156.663 173.536 158.191C172.785 158.941 172.112 159.847 171.595 160.805C171.336 161.297 171.103 161.789 170.896 162.333C170.792 162.591 170.689 162.85 170.611 163.135C170.533 163.42 170.456 163.705 170.378 163.989Z" fill="#700000" />
		</g>
		<g filter="url(#filter10_f_357_1006)">
			<path d="M171.436 168.701C170.84 166.552 171.203 164.041 172.419 161.867C173.636 159.692 175.681 157.88 178.166 156.87C179.409 156.378 180.755 156.068 182.153 156.016C183.551 155.964 184.975 156.145 186.347 156.585C187.719 157.026 189.013 157.725 190.152 158.605C191.291 159.485 192.223 160.546 193 161.659H186.58C186.787 161.375 186.994 161.116 187.201 160.831C187.408 160.546 187.641 160.287 187.874 160.029C188.107 159.77 188.366 159.537 188.625 159.278C188.884 159.019 189.169 158.812 189.427 158.579C190.567 157.699 191.861 157 193.233 156.56C194.605 156.119 196.055 155.938 197.453 155.99C198.851 156.042 200.197 156.352 201.439 156.844C203.925 157.854 205.97 159.666 207.186 161.841C208.403 164.015 208.766 166.526 208.17 168.675C207.601 167.717 207.031 166.863 206.384 166.138C205.737 165.413 205.038 164.818 204.287 164.326C202.837 163.368 201.258 162.85 199.783 162.747C198.307 162.643 196.935 162.902 195.822 163.472C194.709 164.041 193.802 164.869 193 166.034L189.79 170.642L186.606 166.034C185.803 164.895 184.897 164.041 183.784 163.472C182.671 162.902 181.325 162.617 179.823 162.747C178.348 162.876 176.768 163.368 175.319 164.352C174.594 164.844 173.895 165.439 173.222 166.164C172.575 166.889 171.979 167.717 171.436 168.701Z" fill="#FF9797" />
		</g>
		<g filter="url(#filter11_f_357_1006)">
			<path d="M194.195 187.754C194.661 187.314 195.153 186.874 195.645 186.46C195.878 186.253 196.136 186.046 196.369 185.839C196.602 185.631 196.835 185.398 197.068 185.191L198.492 183.897C198.932 183.431 199.398 182.991 199.864 182.551C201.676 180.739 203.385 178.875 204.912 176.856C206.414 174.836 207.734 172.662 208.614 170.306L208.925 169.426C209.028 169.115 209.08 168.83 209.184 168.52L209.313 168.054C209.365 167.898 209.365 167.743 209.417 167.588L209.598 166.656C209.779 165.413 209.805 164.119 209.676 162.85C210.09 164.093 210.219 165.413 210.219 166.733L210.142 167.717C210.116 167.873 210.116 168.054 210.09 168.209L210.012 168.701C209.96 169.037 209.909 169.348 209.831 169.685L209.572 170.643C208.821 173.18 207.527 175.535 205.948 177.632C204.369 179.729 202.531 181.619 200.537 183.302C200.045 183.716 199.554 184.13 199.036 184.544L197.457 185.683C197.198 185.864 196.939 186.072 196.654 186.253C196.369 186.434 196.111 186.615 195.826 186.771C195.308 187.081 194.764 187.444 194.195 187.754Z" fill="white" />
		</g>
	</g>
	<g style="mix-blend-mode:soft-light">
		<path d="M189.873 158.657C200.047 143.719 229.895 165.75 189.873 190.783C149.851 165.75 179.699 143.719 189.873 158.657Z" fill="url(#paint13_linear_357_1006)" />
	</g>
	<g style="mix-blend-mode:soft-light">
		<path d="M189.873 158.657C179.699 143.719 149.851 165.75 189.873 190.783C229.895 165.75 200.047 143.719 189.873 158.657Z" fill="url(#paint14_linear_357_1006)" />
	</g>
	<mask id="mask1_357_1006" style="mask-type:alpha" maskUnits="userSpaceOnUse" x="169" y="153" width="42" height="38">
		<path d="M189.862 158.657C200.035 143.719 229.884 165.75 189.862 190.783C149.865 165.75 179.688 143.719 189.862 158.657Z" fill="url(#paint15_linear_357_1006)" />
	</mask>
	<g mask="url(#mask1_357_1006)">
		<g filter="url(#filter12_f_357_1006)">
			<path d="M182.804 153.945C183.529 154.049 184.228 154.23 184.927 154.489C185.6 154.748 186.273 155.084 186.894 155.498C187.516 155.887 188.085 156.379 188.603 156.896C189.121 157.414 189.587 157.984 190.001 158.605H189.794C190.208 158.009 190.674 157.44 191.192 156.896C191.71 156.379 192.279 155.887 192.9 155.498C193.522 155.084 194.169 154.748 194.868 154.489C195.567 154.23 196.266 154.049 196.991 153.945C195.541 154.23 194.195 154.825 193.004 155.654C192.409 156.068 191.865 156.534 191.347 157.052C190.855 157.569 190.389 158.139 189.975 158.734L189.872 158.89L189.794 158.734C189.38 158.139 188.94 157.569 188.422 157.052C187.93 156.534 187.36 156.068 186.765 155.654C185.6 154.825 184.228 154.23 182.804 153.945Z" fill="#820010" />
		</g>
		<g filter="url(#filter13_f_357_1006)">
			<path d="M182.804 153.945C183.529 154.049 184.228 154.23 184.927 154.489C185.6 154.748 186.273 155.084 186.894 155.498C187.516 155.887 188.085 156.379 188.603 156.896C189.121 157.414 189.587 157.984 190.001 158.605H189.794C190.208 158.009 190.674 157.44 191.192 156.896C191.71 156.379 192.279 155.887 192.9 155.498C193.522 155.084 194.169 154.748 194.868 154.489C195.567 154.23 196.266 154.049 196.991 153.945C195.541 154.23 194.195 154.825 193.004 155.654C192.409 156.068 191.865 156.534 191.347 157.052C190.855 157.569 190.389 158.139 189.975 158.734L189.872 158.89L189.794 158.734C189.38 158.139 188.94 157.569 188.422 157.052C187.93 156.534 187.36 156.068 186.765 155.654C185.6 154.825 184.228 154.23 182.804 153.945Z" fill="#820010" />
		</g>
		<g filter="url(#filter14_f_357_1006)">
			<path d="M182.804 153.945C183.529 154.049 184.228 154.23 184.927 154.489C185.6 154.748 186.273 155.084 186.894 155.498C187.516 155.887 188.085 156.379 188.603 156.896C189.121 157.414 189.587 157.984 190.001 158.605H189.794C190.208 158.009 190.674 157.44 191.192 156.896C191.71 156.379 192.279 155.887 192.9 155.498C193.522 155.084 194.169 154.748 194.868 154.489C195.567 154.23 196.266 154.049 196.991 153.945C195.541 154.23 194.195 154.825 193.004 155.654C192.409 156.068 191.865 156.534 191.347 157.052C190.855 157.569 190.389 158.139 189.975 158.734L189.872 158.89L189.794 158.734C189.38 158.139 188.94 157.569 188.422 157.052C187.93 156.534 187.36 156.068 186.765 155.654C185.6 154.825 184.228 154.23 182.804 153.945Z" fill="#820010" />
		</g>
	</g>
	<path d="M89.5545 142.342C99.7283 127.404 129.577 149.435 89.5545 174.468C49.5581 149.435 79.3806 127.404 89.5545 142.342Z" fill="url(#paint16_linear_357_1006)" />
	<mask id="mask2_357_1006" style="mask-type:alpha" maskUnits="userSpaceOnUse" x="69" y="137" width="41" height="38">
		<path d="M89.5545 142.342C99.7283 127.404 129.577 149.435 89.5545 174.468C49.5581 149.435 79.3806 127.404 89.5545 142.342Z" fill="url(#paint17_linear_357_1006)" />
	</mask>
	<g mask="url(#mask2_357_1006)">
		<g filter="url(#filter15_f_357_1006)">
			<path d="M71.9048 152.386C71.3094 150.237 71.6718 147.726 72.8885 145.552C74.1053 143.377 76.1504 141.565 78.6356 140.555C79.8782 140.063 81.2244 139.753 82.6223 139.701C84.0202 139.649 85.4441 139.83 86.8161 140.271C88.1882 140.711 89.4825 141.41 90.6216 142.29C91.7606 143.17 92.6926 144.231 93.4692 145.344H87.0491C87.2562 145.06 87.4633 144.801 87.6704 144.516C87.8775 144.231 88.1105 143.972 88.3435 143.714C88.5764 143.455 88.8353 143.222 89.0942 142.963C89.3531 142.704 89.6378 142.497 89.8967 142.264C91.0358 141.384 92.3302 140.685 93.7022 140.245C95.0743 139.805 96.5239 139.623 97.9219 139.675C99.3198 139.727 100.666 140.038 101.909 140.529C104.394 141.539 106.439 143.351 107.656 145.526C108.872 147.7 109.235 150.211 108.639 152.36C108.07 151.402 107.5 150.548 106.853 149.823C106.206 149.098 105.507 148.503 104.756 148.011C103.307 147.053 101.727 146.535 100.252 146.432C98.7762 146.328 97.4041 146.587 96.291 147.157C95.1778 147.726 94.2717 148.555 93.4692 149.72L90.2591 154.328L87.0491 149.72C86.2466 148.58 85.3405 147.726 84.2273 147.157C83.1142 146.587 81.768 146.302 80.2665 146.432C78.7909 146.561 77.2118 147.053 75.7621 148.037C75.0372 148.529 74.3383 149.124 73.6652 149.849C73.0439 150.574 72.4484 151.402 71.9048 152.386Z" fill="#FF3E3E" />
		</g>
		<g filter="url(#filter16_f_357_1006)">
			<path d="M85.3448 171.439C84.7752 171.103 84.2316 170.766 83.688 170.43C83.4032 170.248 83.1443 170.093 82.8596 169.912C82.6007 169.731 82.3418 169.55 82.0571 169.342L80.4779 168.203C79.9602 167.789 79.4683 167.375 78.9764 166.961C77.009 165.278 75.145 163.388 73.5659 161.291C71.9867 159.194 70.6924 156.839 69.9416 154.302L69.6827 153.344C69.6051 153.033 69.5533 152.697 69.5015 152.36L69.4239 151.868C69.398 151.713 69.398 151.532 69.3721 151.376L69.2944 150.393C69.2944 149.072 69.4498 147.752 69.8381 146.51C69.7087 147.804 69.7604 149.072 69.9157 150.315L70.097 151.247C70.1229 151.402 70.1487 151.558 70.2005 151.713L70.3299 152.179C70.4335 152.49 70.4853 152.774 70.5888 153.085L70.8995 153.965C71.7797 156.321 73.074 158.495 74.6014 160.515C76.1029 162.534 77.8374 164.398 79.6495 166.21C80.1155 166.65 80.5556 167.09 81.0215 167.556L82.4454 168.851C82.6784 169.058 82.9113 169.291 83.1443 169.498C83.3773 169.705 83.6362 169.912 83.8692 170.119C84.3869 170.559 84.8788 170.999 85.3448 171.439Z" fill="white" />
		</g>
		<g filter="url(#filter17_f_357_1006)">
			<path d="M70.0708 147.674C70.0708 145.396 70.8215 143.041 72.2713 141.099C73.6951 139.157 75.792 137.682 78.1219 136.905C80.4776 136.129 83.1182 136.103 85.5257 136.983C86.7166 137.397 87.8556 138.044 88.8393 138.847C89.8231 139.649 90.6774 140.581 91.4022 141.617H89.2535C89.9525 140.581 90.8068 139.649 91.7905 138.847C92.7743 138.044 93.9133 137.423 95.1042 136.983C97.5117 136.129 100.152 136.129 102.508 136.905C104.864 137.682 106.935 139.157 108.385 141.099C109.834 143.041 110.585 145.396 110.585 147.674C110.507 147.39 110.43 147.131 110.352 146.846C110.274 146.587 110.171 146.302 110.067 146.043C109.86 145.526 109.627 145.008 109.368 144.516C108.825 143.558 108.177 142.678 107.427 141.901C105.899 140.374 103.984 139.313 101.964 138.847C99.9451 138.381 97.8223 138.51 95.9843 139.261C94.1204 140.012 92.5413 141.358 91.4022 143.041L90.3408 144.62L89.2794 143.041C88.1145 141.358 86.5612 139.986 84.6973 139.235C82.8334 138.484 80.7365 138.355 78.6914 138.821C76.6721 139.287 74.7565 140.348 73.2291 141.876C72.4784 142.626 71.8053 143.532 71.2875 144.49C71.0286 144.982 70.7957 145.474 70.5886 146.018C70.485 146.276 70.3815 146.535 70.3038 146.82C70.2261 147.105 70.1485 147.39 70.0708 147.674Z" fill="#700000" />
		</g>
		<g filter="url(#filter18_f_357_1006)">
			<path d="M70.0708 147.674C70.0708 145.396 70.8215 143.041 72.2713 141.099C73.6951 139.157 75.792 137.682 78.1219 136.905C80.4776 136.129 83.1182 136.103 85.5257 136.983C86.7166 137.397 87.8556 138.044 88.8393 138.847C89.8231 139.649 90.6774 140.581 91.4022 141.617H89.2535C89.9525 140.581 90.8068 139.649 91.7905 138.847C92.7743 138.044 93.9133 137.423 95.1042 136.983C97.5117 136.129 100.152 136.129 102.508 136.905C104.864 137.682 106.935 139.157 108.385 141.099C109.834 143.041 110.585 145.396 110.585 147.674C110.507 147.39 110.43 147.131 110.352 146.846C110.274 146.587 110.171 146.302 110.067 146.043C109.86 145.526 109.627 145.008 109.368 144.516C108.825 143.558 108.177 142.678 107.427 141.901C105.899 140.374 103.984 139.313 101.964 138.847C99.9451 138.381 97.8223 138.51 95.9843 139.261C94.1204 140.012 92.5413 141.358 91.4022 143.041L90.3408 144.62L89.2794 143.041C88.1145 141.358 86.5612 139.986 84.6973 139.235C82.8334 138.484 80.7365 138.355 78.6914 138.821C76.6721 139.287 74.7565 140.348 73.2291 141.876C72.4784 142.626 71.8053 143.532 71.2875 144.49C71.0286 144.982 70.7957 145.474 70.5886 146.018C70.485 146.276 70.3815 146.535 70.3038 146.82C70.2261 147.105 70.1485 147.39 70.0708 147.674Z" fill="#700000" />
		</g>
		<g filter="url(#filter19_f_357_1006)">
			<path d="M71.1284 152.386C70.533 150.237 70.8955 147.726 72.1122 145.552C73.3289 143.377 75.374 141.565 77.8592 140.555C79.1018 140.063 80.448 139.753 81.8459 139.701C83.2439 139.649 84.6677 139.83 86.0397 140.271C87.4118 140.711 88.7061 141.41 89.8452 142.29C90.9843 143.17 91.9162 144.231 92.6928 145.344H86.2727C86.4798 145.06 86.6869 144.801 86.894 144.516C87.1011 144.231 87.3341 143.972 87.5671 143.714C87.8001 143.455 88.059 143.222 88.3178 142.963C88.5767 142.704 88.8615 142.497 89.1203 142.264C90.2594 141.384 91.5538 140.685 92.9258 140.245C94.2979 139.805 95.7476 139.623 97.1455 139.675C98.5434 139.727 99.8896 140.038 101.132 140.529C103.617 141.539 105.663 143.351 106.879 145.526C108.096 147.7 108.458 150.211 107.863 152.36C107.293 151.402 106.724 150.548 106.077 149.823C105.43 149.098 104.731 148.503 103.98 148.011C102.53 147.053 100.951 146.535 99.4754 146.432C97.9998 146.328 96.6278 146.587 95.5146 147.157C94.4014 147.726 93.4954 148.555 92.6928 149.72L89.4828 154.328L86.2986 149.72C85.4961 148.58 84.59 147.726 83.4768 147.157C82.3637 146.587 81.0175 146.302 79.516 146.432C78.0404 146.561 76.4613 147.053 75.0116 148.037C74.2867 148.529 73.5878 149.124 72.9147 149.849C72.2675 150.574 71.6721 151.402 71.1284 152.386Z" fill="#FF9797" />
		</g>
		<g filter="url(#filter20_f_357_1006)">
			<path d="M93.8877 171.439C94.3537 170.999 94.8455 170.559 95.3374 170.145C95.5704 169.938 95.8293 169.731 96.0623 169.524C96.2952 169.317 96.5282 169.084 96.7612 168.876L98.185 167.582C98.6251 167.116 99.0911 166.676 99.5571 166.236C101.369 164.424 103.078 162.56 104.605 160.541C106.107 158.521 107.427 156.347 108.307 153.991L108.618 153.111C108.721 152.8 108.773 152.515 108.877 152.205L109.006 151.739C109.058 151.583 109.058 151.428 109.11 151.273L109.291 150.341C109.472 149.098 109.498 147.804 109.369 146.535C109.783 147.778 109.912 149.098 109.912 150.419L109.834 151.402C109.809 151.558 109.809 151.739 109.783 151.894L109.705 152.386C109.653 152.723 109.601 153.033 109.524 153.37L109.265 154.328C108.514 156.865 107.22 159.22 105.641 161.317C104.062 163.414 102.224 165.304 100.23 166.987C99.7383 167.401 99.2464 167.815 98.7287 168.229L97.1495 169.368C96.8907 169.55 96.6318 169.757 96.347 169.938C96.0623 170.119 95.8034 170.3 95.5186 170.456C95.0009 170.766 94.4572 171.129 93.8877 171.439Z" fill="white" />
		</g>
	</g>
	<g style="mix-blend-mode:soft-light">
		<path d="M89.5658 142.342C99.7397 127.404 129.588 149.435 89.5658 174.468C49.5436 149.435 79.392 127.404 89.5658 142.342Z" fill="url(#paint18_linear_357_1006)" />
	</g>
	<g style="mix-blend-mode:soft-light">
		<path d="M89.5658 142.342C79.392 127.404 49.5436 149.435 89.5658 174.468C129.588 149.435 99.7397 127.404 89.5658 142.342Z" fill="url(#paint19_linear_357_1006)" />
	</g>
	<mask id="mask3_357_1006" style="mask-type:alpha" maskUnits="userSpaceOnUse" x="69" y="137" width="41" height="38">
		<path d="M89.5545 142.342C99.7283 127.404 129.577 149.435 89.5545 174.468C49.5581 149.435 79.3806 127.404 89.5545 142.342Z" fill="url(#paint20_linear_357_1006)" />
	</mask>
	<g mask="url(#mask3_357_1006)">
		<g filter="url(#filter21_f_357_1006)">
			<path d="M82.4971 137.63C83.2219 137.734 83.9209 137.915 84.6199 138.174C85.2929 138.433 85.966 138.769 86.5873 139.183C87.2086 139.572 87.7781 140.064 88.2959 140.581C88.8137 141.099 89.2796 141.669 89.6938 142.29H89.4867C89.9009 141.694 90.3669 141.125 90.8847 140.581C91.4024 140.064 91.9719 139.572 92.5932 139.183C93.2146 138.769 93.8617 138.433 94.5607 138.174C95.2597 137.915 95.9586 137.734 96.6835 137.63C95.2338 137.915 93.8876 138.51 92.6968 139.339C92.1014 139.753 91.5577 140.219 91.04 140.737C90.5481 141.254 90.0821 141.824 89.6679 142.419L89.5644 142.575L89.4867 142.419C89.0725 141.824 88.6324 141.254 88.1147 140.737C87.6228 140.219 87.0533 139.753 86.4579 139.339C85.2929 138.51 83.9209 137.915 82.4971 137.63Z" fill="#820010" />
		</g>
		<g filter="url(#filter22_f_357_1006)">
			<path d="M82.4971 137.63C83.2219 137.734 83.9209 137.915 84.6199 138.174C85.2929 138.433 85.966 138.769 86.5873 139.183C87.2086 139.572 87.7781 140.064 88.2959 140.581C88.8137 141.099 89.2796 141.669 89.6938 142.29H89.4867C89.9009 141.694 90.3669 141.125 90.8847 140.581C91.4024 140.064 91.9719 139.572 92.5932 139.183C93.2146 138.769 93.8617 138.433 94.5607 138.174C95.2597 137.915 95.9586 137.734 96.6835 137.63C95.2338 137.915 93.8876 138.51 92.6968 139.339C92.1014 139.753 91.5577 140.219 91.04 140.737C90.5481 141.254 90.0821 141.824 89.6679 142.419L89.5644 142.575L89.4867 142.419C89.0725 141.824 88.6324 141.254 88.1147 140.737C87.6228 140.219 87.0533 139.753 86.4579 139.339C85.2929 138.51 83.9209 137.915 82.4971 137.63Z" fill="#820010" />
		</g>
		<g filter="url(#filter23_f_357_1006)">
			<path d="M82.4971 137.63C83.2219 137.734 83.9209 137.915 84.6199 138.174C85.2929 138.433 85.966 138.769 86.5873 139.183C87.2086 139.572 87.7781 140.064 88.2959 140.581C88.8137 141.099 89.2796 141.669 89.6938 142.29H89.4867C89.9009 141.694 90.3669 141.125 90.8847 140.581C91.4024 140.064 91.9719 139.572 92.5932 139.183C93.2146 138.769 93.8617 138.433 94.5607 138.174C95.2597 137.915 95.9586 137.734 96.6835 137.63C95.2338 137.915 93.8876 138.51 92.6968 139.339C92.1014 139.753 91.5577 140.219 91.04 140.737C90.5481 141.254 90.0821 141.824 89.6679 142.419L89.5644 142.575L89.4867 142.419C89.0725 141.824 88.6324 141.254 88.1147 140.737C87.6228 140.219 87.0533 139.753 86.4579 139.339C85.2929 138.51 83.9209 137.915 82.4971 137.63Z" fill="#820010" />
		</g>
	</g>
	<path d="M184.771 65.2525C194.945 50.3153 224.794 72.3457 184.771 97.379C144.775 72.3457 174.597 50.3153 184.771 65.2525Z" fill="url(#paint21_linear_357_1006)" />
	<mask id="mask4_357_1006" style="mask-type:alpha" maskUnits="userSpaceOnUse" x="164" y="60" width="42" height="38">
		<path d="M184.771 65.2525C194.945 50.3153 224.794 72.3457 184.771 97.379C144.775 72.3457 174.597 50.3153 184.771 65.2525Z" fill="url(#paint22_linear_357_1006)" />
	</mask>
	<g mask="url(#mask4_357_1006)">
		<g filter="url(#filter24_f_357_1006)">
			<path d="M167.122 75.2968C166.527 73.1481 166.889 70.637 168.106 68.4625C169.323 66.2879 171.368 64.4758 173.853 63.4662C175.095 62.9743 176.442 62.6636 177.84 62.6119C179.238 62.5601 180.661 62.7413 182.033 63.1814C183.405 63.6215 184.7 64.3205 185.839 65.2006C186.978 66.0808 187.91 67.1422 188.687 68.2554H182.266C182.473 67.9706 182.681 67.7117 182.888 67.427C183.095 67.1422 183.328 66.8833 183.561 66.6245C183.794 66.3656 184.053 66.1326 184.311 65.8737C184.57 65.6148 184.855 65.4077 185.114 65.1748C186.253 64.2946 187.547 63.5956 188.919 63.1555C190.292 62.7154 191.741 62.5342 193.139 62.586C194.537 62.6378 195.883 62.9484 197.126 63.4403C199.611 64.4499 201.656 66.262 202.873 68.4366C204.09 70.6112 204.452 73.1223 203.857 75.2709C203.287 74.3131 202.718 73.4588 202.07 72.7339C201.423 72.0091 200.724 71.4137 199.974 70.9218C198.524 69.964 196.945 69.4462 195.469 69.3427C193.993 69.2391 192.621 69.498 191.508 70.0675C190.395 70.637 189.489 71.4654 188.687 72.6304L185.476 77.2384L182.266 72.6304C181.464 71.4913 180.558 70.637 179.445 70.0675C178.331 69.498 176.985 69.2132 175.484 69.3427C174.008 69.4721 172.429 69.964 170.979 70.9477C170.254 71.4396 169.556 72.035 168.882 72.7598C168.261 73.4847 167.666 74.3131 167.122 75.2968Z" fill="#FF3E3E" />
		</g>
		<g filter="url(#filter25_f_357_1006)">
			<path d="M180.562 94.3502C179.992 94.0137 179.448 93.6771 178.905 93.3406C178.62 93.1594 178.361 93.004 178.076 92.8228C177.817 92.6416 177.559 92.4604 177.274 92.2533L175.695 91.1143C175.177 90.7 174.685 90.2858 174.193 89.8716C172.226 88.1889 170.362 86.2991 168.783 84.2022C167.204 82.1054 165.909 79.7496 165.158 77.2126L164.9 76.2547C164.822 75.9441 164.77 75.6076 164.718 75.271L164.641 74.7792C164.615 74.6238 164.615 74.4426 164.589 74.2873L164.511 73.3036C164.511 71.9833 164.667 70.663 165.055 69.4204C164.925 70.7148 164.977 71.9833 165.133 73.2259L165.314 74.1578C165.34 74.3132 165.366 74.4685 165.417 74.6238L165.547 75.0898C165.65 75.4005 165.702 75.6852 165.806 75.9959L166.116 76.876C166.996 79.2318 168.291 81.4064 169.818 83.4256C171.32 85.4449 173.054 87.3088 174.866 89.1209C175.332 89.561 175.772 90.0011 176.238 90.4671L177.662 91.7614C177.895 91.9685 178.128 92.2015 178.361 92.4086C178.594 92.6157 178.853 92.8228 179.086 93.0299C179.604 93.47 180.096 93.9101 180.562 94.3502Z" fill="white" />
		</g>
		<g filter="url(#filter26_f_357_1006)">
			<path d="M165.288 70.5853C165.288 68.3072 166.039 65.9514 167.489 64.0098C168.912 62.0682 171.009 60.5927 173.339 59.816C175.695 59.0394 178.335 59.0135 180.743 59.8937C181.934 60.3079 183.073 60.9551 184.057 61.7576C185.04 62.5601 185.895 63.4921 186.62 64.5276H184.471C185.17 63.4921 186.024 62.5601 187.008 61.7576C187.992 60.9551 189.131 60.3338 190.321 59.8937C192.729 59.0394 195.37 59.0394 197.725 59.816C200.081 60.5927 202.152 62.0682 203.602 64.0098C205.051 65.9514 205.802 68.3072 205.802 70.5853C205.725 70.3005 205.647 70.0416 205.569 69.7569C205.492 69.498 205.388 69.2132 205.284 68.9544C205.077 68.4366 204.844 67.9189 204.586 67.427C204.042 66.4691 203.395 65.589 202.644 64.8123C201.117 63.285 199.201 62.2236 197.182 61.7576C195.162 61.2916 193.04 61.4211 191.202 62.1718C189.338 62.9225 187.759 64.2687 186.62 65.9514L185.558 67.5305L184.497 65.9514C183.332 64.2687 181.779 62.8967 179.915 62.1459C178.051 61.3952 175.954 61.2657 173.909 61.7317C171.889 62.1977 169.974 63.2591 168.446 64.7864C167.696 65.5372 167.023 66.4433 166.505 67.4011C166.246 67.893 166.013 68.3848 165.806 68.9285C165.702 69.1873 165.599 69.4462 165.521 69.731C165.443 70.0157 165.366 70.3005 165.288 70.5853Z" fill="#700000" />
		</g>
		<g filter="url(#filter27_f_357_1006)">
			<path d="M165.288 70.5853C165.288 68.3072 166.039 65.9514 167.489 64.0098C168.912 62.0682 171.009 60.5927 173.339 59.816C175.695 59.0394 178.335 59.0135 180.743 59.8937C181.934 60.3079 183.073 60.9551 184.057 61.7576C185.04 62.5601 185.895 63.4921 186.62 64.5276H184.471C185.17 63.4921 186.024 62.5601 187.008 61.7576C187.992 60.9551 189.131 60.3338 190.321 59.8937C192.729 59.0394 195.37 59.0394 197.725 59.816C200.081 60.5927 202.152 62.0682 203.602 64.0098C205.051 65.9514 205.802 68.3072 205.802 70.5853C205.725 70.3005 205.647 70.0416 205.569 69.7569C205.492 69.498 205.388 69.2132 205.284 68.9544C205.077 68.4366 204.844 67.9189 204.586 67.427C204.042 66.4691 203.395 65.589 202.644 64.8123C201.117 63.285 199.201 62.2236 197.182 61.7576C195.162 61.2916 193.04 61.4211 191.202 62.1718C189.338 62.9225 187.759 64.2687 186.62 65.9514L185.558 67.5305L184.497 65.9514C183.332 64.2687 181.779 62.8967 179.915 62.1459C178.051 61.3952 175.954 61.2657 173.909 61.7317C171.889 62.1977 169.974 63.2591 168.446 64.7864C167.696 65.5372 167.023 66.4433 166.505 67.4011C166.246 67.893 166.013 68.3848 165.806 68.9285C165.702 69.1873 165.599 69.4462 165.521 69.731C165.443 70.0157 165.366 70.3005 165.288 70.5853Z" fill="#700000" />
		</g>
		<g filter="url(#filter28_f_357_1006)">
			<path d="M166.345 75.2968C165.75 73.1481 166.112 70.637 167.329 68.4625C168.546 66.2879 170.591 64.4758 173.076 63.4662C174.319 62.9743 175.665 62.6636 177.063 62.6119C178.461 62.5601 179.884 62.7413 181.257 63.1814C182.629 63.6215 183.923 64.3205 185.062 65.2006C186.201 66.0808 187.133 67.1422 187.91 68.2554H181.49C181.697 67.9706 181.904 67.7117 182.111 67.427C182.318 67.1422 182.551 66.8833 182.784 66.6245C183.017 66.3656 183.276 66.1326 183.535 65.8737C183.794 65.6148 184.078 65.4077 184.337 65.1748C185.476 64.2946 186.771 63.5956 188.143 63.1555C189.515 62.7154 190.964 62.5342 192.362 62.586C193.76 62.6378 195.106 62.9484 196.349 63.4403C198.834 64.4499 200.879 66.262 202.096 68.4366C203.313 70.6112 203.675 73.1223 203.08 75.2709C202.51 74.3131 201.941 73.4588 201.294 72.7339C200.646 72.0091 199.947 71.4137 199.197 70.9218C197.747 69.964 196.168 69.4462 194.692 69.3427C193.217 69.2391 191.845 69.498 190.731 70.0675C189.618 70.637 188.712 71.4654 187.91 72.6304L184.7 77.2384L181.515 72.6304C180.713 71.4913 179.807 70.637 178.694 70.0675C177.58 69.498 176.234 69.2132 174.733 69.3427C173.257 69.4721 171.678 69.964 170.228 70.9477C169.504 71.4396 168.805 72.035 168.131 72.7598C167.484 73.4847 166.889 74.3131 166.345 75.2968Z" fill="#FF9797" />
		</g>
		<g filter="url(#filter29_f_357_1006)">
			<path d="M189.104 94.3502C189.57 93.9101 190.062 93.47 190.554 93.0558C190.787 92.8487 191.046 92.6416 191.279 92.4345C191.512 92.2274 191.745 91.9944 191.978 91.7873L193.402 90.4929C193.842 90.027 194.308 89.5869 194.774 89.1468C196.586 87.3346 198.295 85.4707 199.822 83.4515C201.323 81.4323 202.644 79.2577 203.524 76.9019L203.835 76.0217C203.938 75.7111 203.99 75.4263 204.093 75.1157L204.223 74.6497C204.275 74.4944 204.275 74.3391 204.326 74.1837L204.508 73.2518C204.689 72.0092 204.715 70.7148 204.585 69.4463C205 70.6889 205.129 72.0092 205.129 73.3294L205.051 74.3132C205.025 74.4685 205.025 74.6497 204.999 74.805L204.922 75.2969C204.87 75.6334 204.818 75.9441 204.741 76.2806L204.482 77.2385C203.731 79.7755 202.437 82.1312 200.857 84.2281C199.278 86.325 197.44 88.2148 195.447 89.8975C194.955 90.3117 194.463 90.7259 193.945 91.1401L192.366 92.2792C192.107 92.4604 191.849 92.6675 191.564 92.8487C191.279 93.0299 191.02 93.2111 190.735 93.3665C190.218 93.6771 189.674 94.0395 189.104 94.3502Z" fill="white" />
		</g>
	</g>
	<g style="mix-blend-mode:soft-light">
		<path d="M184.783 65.2525C194.956 50.3153 224.805 72.3457 184.783 97.379C144.76 72.3457 174.609 50.3153 184.783 65.2525Z" fill="url(#paint23_linear_357_1006)" />
	</g>
	<g style="mix-blend-mode:soft-light">
		<path d="M184.783 65.2525C174.609 50.3153 144.76 72.3457 184.783 97.379C224.805 72.3457 194.956 50.3153 184.783 65.2525Z" fill="url(#paint24_linear_357_1006)" />
	</g>
	<mask id="mask5_357_1006" style="mask-type:alpha" maskUnits="userSpaceOnUse" x="164" y="60" width="42" height="38">
		<path d="M184.771 65.2525C194.945 50.3153 224.794 72.3457 184.771 97.379C144.775 72.3457 174.597 50.3153 184.771 65.2525Z" fill="url(#paint25_linear_357_1006)" />
	</mask>
	<g mask="url(#mask5_357_1006)">
		<g filter="url(#filter30_f_357_1006)">
			<path d="M177.714 60.541C178.439 60.6446 179.138 60.8258 179.837 61.0847C180.51 61.3435 181.183 61.6801 181.804 62.0943C182.425 62.4826 182.995 62.9745 183.513 63.4922C184.03 64.01 184.496 64.5795 184.911 65.2008H184.704C185.118 64.6054 185.584 64.0358 186.101 63.4922C186.619 62.9745 187.189 62.4826 187.81 62.0943C188.431 61.6801 189.079 61.3435 189.778 61.0847C190.476 60.8258 191.175 60.6446 191.9 60.541C190.451 60.8258 189.104 61.4212 187.914 62.2496C187.318 62.6638 186.775 63.1298 186.257 63.6475C185.765 64.1653 185.299 64.7348 184.885 65.3302L184.781 65.4856L184.704 65.3302C184.289 64.7348 183.849 64.1653 183.331 63.6475C182.84 63.1298 182.27 62.6638 181.675 62.2496C180.51 61.4212 179.138 60.8258 177.714 60.541Z" fill="#820010" />
		</g>
		<g filter="url(#filter31_f_357_1006)">
			<path d="M177.714 60.541C178.439 60.6446 179.138 60.8258 179.837 61.0847C180.51 61.3435 181.183 61.6801 181.804 62.0943C182.425 62.4826 182.995 62.9745 183.513 63.4922C184.03 64.01 184.496 64.5795 184.911 65.2008H184.704C185.118 64.6054 185.584 64.0358 186.101 63.4922C186.619 62.9745 187.189 62.4826 187.81 62.0943C188.431 61.6801 189.079 61.3435 189.778 61.0847C190.476 60.8258 191.175 60.6446 191.9 60.541C190.451 60.8258 189.104 61.4212 187.914 62.2496C187.318 62.6638 186.775 63.1298 186.257 63.6475C185.765 64.1653 185.299 64.7348 184.885 65.3302L184.781 65.4856L184.704 65.3302C184.289 64.7348 183.849 64.1653 183.331 63.6475C182.84 63.1298 182.27 62.6638 181.675 62.2496C180.51 61.4212 179.138 60.8258 177.714 60.541Z" fill="#820010" />
		</g>
		<g filter="url(#filter32_f_357_1006)">
			<path d="M177.714 60.541C178.439 60.6446 179.138 60.8258 179.837 61.0847C180.51 61.3435 181.183 61.6801 181.804 62.0943C182.425 62.4826 182.995 62.9745 183.513 63.4922C184.03 64.01 184.496 64.5795 184.911 65.2008H184.704C185.118 64.6054 185.584 64.0358 186.101 63.4922C186.619 62.9745 187.189 62.4826 187.81 62.0943C188.431 61.6801 189.079 61.3435 189.778 61.0847C190.476 60.8258 191.175 60.6446 191.9 60.541C190.451 60.8258 189.104 61.4212 187.914 62.2496C187.318 62.6638 186.775 63.1298 186.257 63.6475C185.765 64.1653 185.299 64.7348 184.885 65.3302L184.781 65.4856L184.704 65.3302C184.289 64.7348 183.849 64.1653 183.331 63.6475C182.84 63.1298 182.27 62.6638 181.675 62.2496C180.51 61.4212 179.138 60.8258 177.714 60.541Z" fill="#820010" />
		</g>
	</g>
	<defs>
		<filter id="filter0_f_357_1006" x="69.5315" y="58.8836" width="145.535" height="163.833" filterUnits="userSpaceOnUse" color-interpolation-filters="sRGB">
			<feFlood flood-opacity="0" result="BackgroundImageFix" />
			<feBlend mode="normal" in="SourceGraphic" in2="BackgroundImageFix" result="shape" />
			<feGaussianBlur stdDeviation="4.36168" result="effect1_foregroundBlur_357_1006" />
		</filter>
		<filter id="filter1_f_357_1006" x="147.292" y="94.6852" width="47.9787" height="47.9784" filterUnits="userSpaceOnUse" color-interpolation-filters="sRGB">
			<feFlood flood-opacity="0" result="BackgroundImageFix" />
			<feBlend mode="normal" in="SourceGraphic" in2="BackgroundImageFix" result="shape" />
			<feGaussianBlur stdDeviation="6.54252" result="effect1_foregroundBlur_357_1006" />
		</filter>
		<filter id="filter2_f_357_1006" x="89.0634" y="94.6852" width="47.9787" height="47.9784" filterUnits="userSpaceOnUse" color-interpolation-filters="sRGB">
			<feFlood flood-opacity="0" result="BackgroundImageFix" />
			<feBlend mode="normal" in="SourceGraphic" in2="BackgroundImageFix" result="shape" />
			<feGaussianBlur stdDeviation="6.54252" result="effect1_foregroundBlur_357_1006" />
		</filter>
		<filter id="filter3_f_357_1006" x="149.048" y="50.0424" width="71.5964" height="68.0469" filterUnits="userSpaceOnUse" color-interpolation-filters="sRGB">
			<feFlood flood-opacity="0" result="BackgroundImageFix" />
			<feBlend mode="normal" in="SourceGraphic" in2="BackgroundImageFix" result="shape" />
			<feGaussianBlur stdDeviation="7.76629" result="effect1_foregroundBlur_357_1006" />
		</filter>
		<filter id="filter4_f_357_1006" x="56.5426" y="121.982" width="71.5964" height="68.0469" filterUnits="userSpaceOnUse" color-interpolation-filters="sRGB">
			<feFlood flood-opacity="0" result="BackgroundImageFix" />
			<feBlend mode="normal" in="SourceGraphic" in2="BackgroundImageFix" result="shape" />
			<feGaussianBlur stdDeviation="7.76629" result="effect1_foregroundBlur_357_1006" />
		</filter>
		<filter id="filter5_f_357_1006" x="148.962" y="138.291" width="71.5964" height="68.0469" filterUnits="userSpaceOnUse" color-interpolation-filters="sRGB">
			<feFlood flood-opacity="0" result="BackgroundImageFix" />
			<feBlend mode="normal" in="SourceGraphic" in2="BackgroundImageFix" result="shape" />
			<feGaussianBlur stdDeviation="7.76629" result="effect1_foregroundBlur_357_1006" />
		</filter>
		<filter id="filter6_f_357_1006" x="166.754" y="150.804" width="47.651" height="25.0159" filterUnits="userSpaceOnUse" color-interpolation-filters="sRGB">
			<feFlood flood-opacity="0" result="BackgroundImageFix" />
			<feBlend mode="normal" in="SourceGraphic" in2="BackgroundImageFix" result="shape" />
			<feGaussianBlur stdDeviation="2.58876" result="effect1_foregroundBlur_357_1006" />
		</filter>
		<filter id="filter7_f_357_1006" x="167.013" y="160.236" width="21.2278" height="30.1072" filterUnits="userSpaceOnUse" color-interpolation-filters="sRGB">
			<feFlood flood-opacity="0" result="BackgroundImageFix" />
			<feBlend mode="normal" in="SourceGraphic" in2="BackgroundImageFix" result="shape" />
			<feGaussianBlur stdDeviation="1.29438" result="effect1_foregroundBlur_357_1006" />
		</filter>
		<filter id="filter8_f_357_1006" x="165.2" y="147.46" width="50.8692" height="21.7069" filterUnits="userSpaceOnUse" color-interpolation-filters="sRGB">
			<feFlood flood-opacity="0" result="BackgroundImageFix" />
			<feBlend mode="normal" in="SourceGraphic" in2="BackgroundImageFix" result="shape" />
			<feGaussianBlur stdDeviation="2.58876" result="effect1_foregroundBlur_357_1006" />
		</filter>
		<filter id="filter9_f_357_1006" x="165.2" y="147.46" width="50.8692" height="21.7069" filterUnits="userSpaceOnUse" color-interpolation-filters="sRGB">
			<feFlood flood-opacity="0" result="BackgroundImageFix" />
			<feBlend mode="normal" in="SourceGraphic" in2="BackgroundImageFix" result="shape" />
			<feGaussianBlur stdDeviation="2.58876" result="effect1_foregroundBlur_357_1006" />
		</filter>
		<filter id="filter10_f_357_1006" x="160.8" y="145.626" width="58.006" height="35.371" filterUnits="userSpaceOnUse" color-interpolation-filters="sRGB">
			<feFlood flood-opacity="0" result="BackgroundImageFix" />
			<feBlend mode="normal" in="SourceGraphic" in2="BackgroundImageFix" result="shape" />
			<feGaussianBlur stdDeviation="5.17753" result="effect1_foregroundBlur_357_1006" />
		</filter>
		<filter id="filter11_f_357_1006" x="191.606" y="160.262" width="21.2019" height="30.0813" filterUnits="userSpaceOnUse" color-interpolation-filters="sRGB">
			<feFlood flood-opacity="0" result="BackgroundImageFix" />
			<feBlend mode="normal" in="SourceGraphic" in2="BackgroundImageFix" result="shape" />
			<feGaussianBlur stdDeviation="1.29438" result="effect1_foregroundBlur_357_1006" />
		</filter>
		<filter id="filter12_f_357_1006" x="181.251" y="152.392" width="17.293" height="8.0511" filterUnits="userSpaceOnUse" color-interpolation-filters="sRGB">
			<feFlood flood-opacity="0" result="BackgroundImageFix" />
			<feBlend mode="normal" in="SourceGraphic" in2="BackgroundImageFix" result="shape" />
			<feGaussianBlur stdDeviation="0.776629" result="effect1_foregroundBlur_357_1006" />
		</filter>
		<filter id="filter13_f_357_1006" x="181.769" y="152.91" width="16.2575" height="7.01559" filterUnits="userSpaceOnUse" color-interpolation-filters="sRGB">
			<feFlood flood-opacity="0" result="BackgroundImageFix" />
			<feBlend mode="normal" in="SourceGraphic" in2="BackgroundImageFix" result="shape" />
			<feGaussianBlur stdDeviation="0.517753" result="effect1_foregroundBlur_357_1006" />
		</filter>
		<filter id="filter14_f_357_1006" x="180.733" y="151.874" width="18.3285" height="9.0866" filterUnits="userSpaceOnUse" color-interpolation-filters="sRGB">
			<feFlood flood-opacity="0" result="BackgroundImageFix" />
			<feBlend mode="normal" in="SourceGraphic" in2="BackgroundImageFix" result="shape" />
			<feGaussianBlur stdDeviation="1.03551" result="effect1_foregroundBlur_357_1006" />
		</filter>
		<filter id="filter15_f_357_1006" x="66.4465" y="134.489" width="47.651" height="25.0159" filterUnits="userSpaceOnUse" color-interpolation-filters="sRGB">
			<feFlood flood-opacity="0" result="BackgroundImageFix" />
			<feBlend mode="normal" in="SourceGraphic" in2="BackgroundImageFix" result="shape" />
			<feGaussianBlur stdDeviation="2.58876" result="effect1_foregroundBlur_357_1006" />
		</filter>
		<filter id="filter16_f_357_1006" x="66.7057" y="143.921" width="21.2278" height="30.1072" filterUnits="userSpaceOnUse" color-interpolation-filters="sRGB">
			<feFlood flood-opacity="0" result="BackgroundImageFix" />
			<feBlend mode="normal" in="SourceGraphic" in2="BackgroundImageFix" result="shape" />
			<feGaussianBlur stdDeviation="1.29438" result="effect1_foregroundBlur_357_1006" />
		</filter>
		<filter id="filter17_f_357_1006" x="64.8933" y="131.145" width="50.8692" height="21.7069" filterUnits="userSpaceOnUse" color-interpolation-filters="sRGB">
			<feFlood flood-opacity="0" result="BackgroundImageFix" />
			<feBlend mode="normal" in="SourceGraphic" in2="BackgroundImageFix" result="shape" />
			<feGaussianBlur stdDeviation="2.58876" result="effect1_foregroundBlur_357_1006" />
		</filter>
		<filter id="filter18_f_357_1006" x="64.8933" y="131.145" width="50.8692" height="21.7069" filterUnits="userSpaceOnUse" color-interpolation-filters="sRGB">
			<feFlood flood-opacity="0" result="BackgroundImageFix" />
			<feBlend mode="normal" in="SourceGraphic" in2="BackgroundImageFix" result="shape" />
			<feGaussianBlur stdDeviation="2.58876" result="effect1_foregroundBlur_357_1006" />
		</filter>
		<filter id="filter19_f_357_1006" x="60.4926" y="129.311" width="58.006" height="35.371" filterUnits="userSpaceOnUse" color-interpolation-filters="sRGB">
			<feFlood flood-opacity="0" result="BackgroundImageFix" />
			<feBlend mode="normal" in="SourceGraphic" in2="BackgroundImageFix" result="shape" />
			<feGaussianBlur stdDeviation="5.17753" result="effect1_foregroundBlur_357_1006" />
		</filter>
		<filter id="filter20_f_357_1006" x="91.2989" y="143.947" width="21.2019" height="30.0813" filterUnits="userSpaceOnUse" color-interpolation-filters="sRGB">
			<feFlood flood-opacity="0" result="BackgroundImageFix" />
			<feBlend mode="normal" in="SourceGraphic" in2="BackgroundImageFix" result="shape" />
			<feGaussianBlur stdDeviation="1.29438" result="effect1_foregroundBlur_357_1006" />
		</filter>
		<filter id="filter21_f_357_1006" x="80.9438" y="136.077" width="17.293" height="8.0511" filterUnits="userSpaceOnUse" color-interpolation-filters="sRGB">
			<feFlood flood-opacity="0" result="BackgroundImageFix" />
			<feBlend mode="normal" in="SourceGraphic" in2="BackgroundImageFix" result="shape" />
			<feGaussianBlur stdDeviation="0.776629" result="effect1_foregroundBlur_357_1006" />
		</filter>
		<filter id="filter22_f_357_1006" x="81.4616" y="136.595" width="16.2575" height="7.01559" filterUnits="userSpaceOnUse" color-interpolation-filters="sRGB">
			<feFlood flood-opacity="0" result="BackgroundImageFix" />
			<feBlend mode="normal" in="SourceGraphic" in2="BackgroundImageFix" result="shape" />
			<feGaussianBlur stdDeviation="0.517753" result="effect1_foregroundBlur_357_1006" />
		</filter>
		<filter id="filter23_f_357_1006" x="80.4261" y="135.559" width="18.3285" height="9.0866" filterUnits="userSpaceOnUse" color-interpolation-filters="sRGB">
			<feFlood flood-opacity="0" result="BackgroundImageFix" />
			<feBlend mode="normal" in="SourceGraphic" in2="BackgroundImageFix" result="shape" />
			<feGaussianBlur stdDeviation="1.03551" result="effect1_foregroundBlur_357_1006" />
		</filter>
		<filter id="filter24_f_357_1006" x="161.664" y="57.3999" width="47.651" height="25.0159" filterUnits="userSpaceOnUse" color-interpolation-filters="sRGB">
			<feFlood flood-opacity="0" result="BackgroundImageFix" />
			<feBlend mode="normal" in="SourceGraphic" in2="BackgroundImageFix" result="shape" />
			<feGaussianBlur stdDeviation="2.58876" result="effect1_foregroundBlur_357_1006" />
		</filter>
		<filter id="filter25_f_357_1006" x="161.922" y="66.8316" width="21.2278" height="30.1072" filterUnits="userSpaceOnUse" color-interpolation-filters="sRGB">
			<feFlood flood-opacity="0" result="BackgroundImageFix" />
			<feBlend mode="normal" in="SourceGraphic" in2="BackgroundImageFix" result="shape" />
			<feGaussianBlur stdDeviation="1.29438" result="effect1_foregroundBlur_357_1006" />
		</filter>
		<filter id="filter26_f_357_1006" x="160.111" y="54.0559" width="50.8692" height="21.7069" filterUnits="userSpaceOnUse" color-interpolation-filters="sRGB">
			<feFlood flood-opacity="0" result="BackgroundImageFix" />
			<feBlend mode="normal" in="SourceGraphic" in2="BackgroundImageFix" result="shape" />
			<feGaussianBlur stdDeviation="2.58876" result="effect1_foregroundBlur_357_1006" />
		</filter>
		<filter id="filter27_f_357_1006" x="160.111" y="54.0559" width="50.8692" height="21.7069" filterUnits="userSpaceOnUse" color-interpolation-filters="sRGB">
			<feFlood flood-opacity="0" result="BackgroundImageFix" />
			<feBlend mode="normal" in="SourceGraphic" in2="BackgroundImageFix" result="shape" />
			<feGaussianBlur stdDeviation="2.58876" result="effect1_foregroundBlur_357_1006" />
		</filter>
		<filter id="filter28_f_357_1006" x="155.709" y="52.2223" width="58.006" height="35.371" filterUnits="userSpaceOnUse" color-interpolation-filters="sRGB">
			<feFlood flood-opacity="0" result="BackgroundImageFix" />
			<feBlend mode="normal" in="SourceGraphic" in2="BackgroundImageFix" result="shape" />
			<feGaussianBlur stdDeviation="5.17753" result="effect1_foregroundBlur_357_1006" />
		</filter>
		<filter id="filter29_f_357_1006" x="186.516" y="66.8575" width="21.2019" height="30.0813" filterUnits="userSpaceOnUse" color-interpolation-filters="sRGB">
			<feFlood flood-opacity="0" result="BackgroundImageFix" />
			<feBlend mode="normal" in="SourceGraphic" in2="BackgroundImageFix" result="shape" />
			<feGaussianBlur stdDeviation="1.29438" result="effect1_foregroundBlur_357_1006" />
		</filter>
		<filter id="filter30_f_357_1006" x="176.161" y="58.9878" width="17.293" height="8.0511" filterUnits="userSpaceOnUse" color-interpolation-filters="sRGB">
			<feFlood flood-opacity="0" result="BackgroundImageFix" />
			<feBlend mode="normal" in="SourceGraphic" in2="BackgroundImageFix" result="shape" />
			<feGaussianBlur stdDeviation="0.776629" result="effect1_foregroundBlur_357_1006" />
		</filter>
		<filter id="filter31_f_357_1006" x="176.678" y="59.5055" width="16.2575" height="7.01559" filterUnits="userSpaceOnUse" color-interpolation-filters="sRGB">
			<feFlood flood-opacity="0" result="BackgroundImageFix" />
			<feBlend mode="normal" in="SourceGraphic" in2="BackgroundImageFix" result="shape" />
			<feGaussianBlur stdDeviation="0.517753" result="effect1_foregroundBlur_357_1006" />
		</filter>
		<filter id="filter32_f_357_1006" x="175.643" y="58.47" width="18.3285" height="9.0866" filterUnits="userSpaceOnUse" color-interpolation-filters="sRGB">
			<feFlood flood-opacity="0" result="BackgroundImageFix" />
			<feBlend mode="normal" in="SourceGraphic" in2="BackgroundImageFix" result="shape" />
			<feGaussianBlur stdDeviation="1.03551" result="effect1_foregroundBlur_357_1006" />
		</filter>
		<radialGradient id="paint0_radial_357_1006" cx="0" cy="0" r="1" gradientUnits="userSpaceOnUse" gradientTransform="translate(142.251 67.6069) rotate(90) scale(146.277 127.993)">
			<stop stop-color="#66E6FF" />
			<stop offset="1" stop-color="#33CCFF" />
		</radialGradient>
		<radialGradient id="paint1_radial_357_1006" cx="0" cy="0" r="1" gradientUnits="userSpaceOnUse" gradientTransform="translate(142.251 87.1814) rotate(90) scale(126.703 110.865)">
			<stop stop-color="white" stop-opacity="0.5" />
			<stop offset="0.782278" />
		</radialGradient>
		<radialGradient id="paint2_radial_357_1006" cx="0" cy="0" r="1" gradientUnits="userSpaceOnUse" gradientTransform="translate(142.251 87.1814) rotate(90) scale(126.703 110.865)">
			<stop stop-color="white" stop-opacity="0.5" />
			<stop offset="0.782278" />
		</radialGradient>
		<radialGradient id="paint3_radial_357_1006" cx="0" cy="0" r="1" gradientUnits="userSpaceOnUse" gradientTransform="translate(142.251 51.6742) rotate(90) scale(162.21 191.945)">
			<stop offset="0.0922635" stop-color="white" />
			<stop offset="0.670207" stop-color="white" stop-opacity="0" />
		</radialGradient>
		<linearGradient id="paint4_linear_357_1006" x1="142.299" y1="206.239" x2="142.5" y2="103.921" gradientUnits="userSpaceOnUse">
			<stop stop-color="#022B40" stop-opacity="0.8" />
			<stop offset="0.166667" stop-color="#022B40" stop-opacity="0.5" />
			<stop offset="1" stop-color="#022B40" stop-opacity="0" />
		</linearGradient>
		<radialGradient id="paint5_radial_357_1006" cx="0" cy="0" r="1" gradientUnits="userSpaceOnUse" gradientTransform="translate(142.136 142.042) scale(12.2403 12.7815)">
			<stop stop-color="#1C5774" />
			<stop offset="1" stop-color="#022B40" />
		</radialGradient>
		<linearGradient id="paint6_linear_357_1006" x1="142.136" y1="148.751" x2="142.136" y2="135.334" gradientUnits="userSpaceOnUse">
			<stop offset="0.265625" stop-color="#BEE9FF" />
			<stop offset="1" stop-color="#6CCEFF" />
		</linearGradient>
		<radialGradient id="paint7_radial_357_1006" cx="0" cy="0" r="1" gradientUnits="userSpaceOnUse" gradientTransform="translate(123.84 114.558) scale(13.8232 4.08431)">
			<stop stop-color="#1C5774" />
			<stop offset="1" stop-color="#022B40" />
		</radialGradient>
		<linearGradient id="paint8_linear_357_1006" x1="123.855" y1="118.868" x2="123.855" y2="110.221" gradientUnits="userSpaceOnUse">
			<stop stop-color="#93DBFF" />
			<stop offset="0.22" stop-color="#83D6FF" />
			<stop offset="0.51" stop-color="#6CCEFF" />
			<stop offset="0.82" stop-color="#47C2FF" />
			<stop offset="1" stop-color="#2DB9FF" />
		</linearGradient>
		<radialGradient id="paint9_radial_357_1006" cx="0" cy="0" r="1" gradientUnits="userSpaceOnUse" gradientTransform="translate(160.278 114.558) scale(13.8237 4.08431)">
			<stop stop-color="#1C5774" />
			<stop offset="1" stop-color="#022B40" />
		</radialGradient>
		<linearGradient id="paint10_linear_357_1006" x1="160.293" y1="118.868" x2="160.293" y2="110.221" gradientUnits="userSpaceOnUse">
			<stop stop-color="#93DBFF" />
			<stop offset="0.22" stop-color="#83D6FF" />
			<stop offset="0.51" stop-color="#6CCEFF" />
			<stop offset="0.82" stop-color="#47C2FF" />
			<stop offset="1" stop-color="#2DB9FF" />
		</linearGradient>
		<linearGradient id="paint11_linear_357_1006" x1="189.87" y1="153.801" x2="189.87" y2="190.782" gradientUnits="userSpaceOnUse">
			<stop stop-color="#FF0000" />
			<stop offset="1" stop-color="#610003" />
		</linearGradient>
		<linearGradient id="paint12_linear_357_1006" x1="189.87" y1="153.801" x2="189.87" y2="190.782" gradientUnits="userSpaceOnUse">
			<stop stop-color="#FF0000" />
			<stop offset="1" stop-color="#610003" />
		</linearGradient>
		<linearGradient id="paint13_linear_357_1006" x1="210.14" y1="172.292" x2="169.605" y2="172.292" gradientUnits="userSpaceOnUse">
			<stop stop-color="#FF8F00" />
			<stop offset="0.0143476" stop-color="#FF9001" stop-opacity="0.9857" />
			<stop offset="0.2987" stop-color="#FF9912" stop-opacity="0.7013" />
			<stop offset="0.6103" stop-color="#FF9F1C" stop-opacity="0.3897" />
			<stop offset="1" stop-color="#FFA11F" stop-opacity="0" />
		</linearGradient>
		<linearGradient id="paint14_linear_357_1006" x1="169.616" y1="172.292" x2="210.151" y2="172.292" gradientUnits="userSpaceOnUse">
			<stop stop-color="#FF8F00" />
			<stop offset="0.0143476" stop-color="#FF9001" stop-opacity="0.9857" />
			<stop offset="0.2987" stop-color="#FF9912" stop-opacity="0.7013" />
			<stop offset="0.6103" stop-color="#FF9F1C" stop-opacity="0.3897" />
			<stop offset="1" stop-color="#FFA11F" stop-opacity="0" />
		</linearGradient>
		<linearGradient id="paint15_linear_357_1006" x1="189.87" y1="153.801" x2="189.87" y2="190.782" gradientUnits="userSpaceOnUse">
			<stop stop-color="#FF0000" />
			<stop offset="1" stop-color="#610003" />
		</linearGradient>
		<linearGradient id="paint16_linear_357_1006" x1="89.5629" y1="137.486" x2="89.5629" y2="174.467" gradientUnits="userSpaceOnUse">
			<stop stop-color="#FF0000" />
			<stop offset="1" stop-color="#610003" />
		</linearGradient>
		<linearGradient id="paint17_linear_357_1006" x1="89.5629" y1="137.486" x2="89.5629" y2="174.467" gradientUnits="userSpaceOnUse">
			<stop stop-color="#FF0000" />
			<stop offset="1" stop-color="#610003" />
		</linearGradient>
		<linearGradient id="paint18_linear_357_1006" x1="109.833" y1="155.977" x2="69.2983" y2="155.977" gradientUnits="userSpaceOnUse">
			<stop stop-color="#FF8F00" />
			<stop offset="0.0143476" stop-color="#FF9001" stop-opacity="0.9857" />
			<stop offset="0.2987" stop-color="#FF9912" stop-opacity="0.7013" />
			<stop offset="0.6103" stop-color="#FF9F1C" stop-opacity="0.3897" />
			<stop offset="1" stop-color="#FFA11F" stop-opacity="0" />
		</linearGradient>
		<linearGradient id="paint19_linear_357_1006" x1="69.3093" y1="155.977" x2="109.844" y2="155.977" gradientUnits="userSpaceOnUse">
			<stop stop-color="#FF8F00" />
			<stop offset="0.0143476" stop-color="#FF9001" stop-opacity="0.9857" />
			<stop offset="0.2987" stop-color="#FF9912" stop-opacity="0.7013" />
			<stop offset="0.6103" stop-color="#FF9F1C" stop-opacity="0.3897" />
			<stop offset="1" stop-color="#FFA11F" stop-opacity="0" />
		</linearGradient>
		<linearGradient id="paint20_linear_357_1006" x1="89.5629" y1="137.486" x2="89.5629" y2="174.467" gradientUnits="userSpaceOnUse">
			<stop stop-color="#FF0000" />
			<stop offset="1" stop-color="#610003" />
		</linearGradient>
		<linearGradient id="paint21_linear_357_1006" x1="184.78" y1="60.3966" x2="184.78" y2="97.3783" gradientUnits="userSpaceOnUse">
			<stop stop-color="#FF0000" />
			<stop offset="1" stop-color="#610003" />
		</linearGradient>
		<linearGradient id="paint22_linear_357_1006" x1="184.78" y1="60.3966" x2="184.78" y2="97.3783" gradientUnits="userSpaceOnUse">
			<stop stop-color="#FF0000" />
			<stop offset="1" stop-color="#610003" />
		</linearGradient>
		<linearGradient id="paint23_linear_357_1006" x1="205.049" y1="78.8875" x2="164.515" y2="78.8875" gradientUnits="userSpaceOnUse">
			<stop stop-color="#FF8F00" />
			<stop offset="0.0143476" stop-color="#FF9001" stop-opacity="0.9857" />
			<stop offset="0.2987" stop-color="#FF9912" stop-opacity="0.7013" />
			<stop offset="0.6103" stop-color="#FF9F1C" stop-opacity="0.3897" />
			<stop offset="1" stop-color="#FFA11F" stop-opacity="0" />
		</linearGradient>
		<linearGradient id="paint24_linear_357_1006" x1="164.526" y1="78.8875" x2="205.06" y2="78.8875" gradientUnits="userSpaceOnUse">
			<stop stop-color="#FF8F00" />
			<stop offset="0.0143476" stop-color="#FF9001" stop-opacity="0.9857" />
			<stop offset="0.2987" stop-color="#FF9912" stop-opacity="0.7013" />
			<stop offset="0.6103" stop-color="#FF9F1C" stop-opacity="0.3897" />
			<stop offset="1" stop-color="#FFA11F" stop-opacity="0" />
		</linearGradient>
		<linearGradient id="paint25_linear_357_1006" x1="184.78" y1="60.3966" x2="184.78" y2="97.3783" gradientUnits="userSpaceOnUse">
			<stop stop-color="#FF0000" />
			<stop offset="1" stop-color="#610003" />
		</linearGradient>
	</defs>
</svg>
