<svg width="40" height="56" viewBox="8 5 40 56" fill="none" xmlns="http://www.w3.org/2000/svg">
  <g clip-path="url(#clip0_1043_5561)">
    <rect x="8" y="5" width="40" height="56" fill="#0077CC" />
    <path
      d="M22.8443 28.8406C19.2649 29.2068 16.0518 32.6364 10.1084 39.4954C4.18159 46.3379 3.21599 46.9206 7.27816 49.6842C17.7499 56.793 15.9186 58.6576 20.0973 52.6309C25.7577 44.4566 30.1528 41.4266 30.1528 41.4266L22.8443 28.8406Z"
      fill="white" />
    <path
      d="M16.8677 48.552C18.416 46.4376 19.0653 43.9404 18.7989 41.3266C18.749 40.8272 19.5148 40.8105 19.5647 41.31C19.8644 44.1235 19.0986 46.8039 17.4338 49.0847C17.1341 49.4843 16.5681 48.9515 16.8677 48.552Z"
      fill="#000C47" />
    <path
      d="M13.5381 60.1724C14.9532 58.3744 16.3516 56.5931 17.7667 54.7951C18.0664 54.4122 18.6158 54.9615 18.3161 55.3445C16.901 57.1425 15.5026 58.9238 14.0875 60.7218C13.7878 61.1047 13.2384 60.5554 13.5381 60.1724Z"
      fill="#000C47" />
    <path
      d="M3.51567 49.7837C7.47795 52.4807 11.4402 55.1777 15.4025 57.8747C15.8021 58.1578 15.4192 58.8237 15.0196 58.5407C11.0573 55.8437 7.09505 53.1466 3.13276 50.4496C2.73321 50.1666 3.11611 49.5007 3.51567 49.7837Z"
      fill="#000C47" />
    <path
      d="M2.08399 52.4313C5.89644 54.9119 10.0085 57.7921 13.8043 60.2727C14.2205 60.539 13.8376 61.205 13.4214 60.9386C9.60899 58.458 5.49688 55.5779 1.70108 53.0973C1.28488 52.8309 1.66778 52.165 2.08399 52.4313Z"
      fill="#000C47" />
    <path
      d="M21.113 42.2594C22.5614 42.2594 23.6436 40.761 26.8067 36.2826C27.9388 34.7011 29.3206 32.7366 31.102 30.3392C32.5504 30.9053 34.1819 31.2049 35.8134 31.2049C39.3096 31.2049 42.5726 29.8398 44.5205 27.5423C46.3185 25.4114 47.001 22.5978 46.4517 19.3847C45.3362 12.7254 39.9588 9.74536 35.1142 9.74536C31.9843 9.74536 29.1042 10.9773 27.1896 13.1083C25.1586 15.3725 24.3095 18.5023 24.7091 22.1816C24.9255 24.1128 25.6081 25.8276 26.7568 27.2427C26.0742 27.9585 25.3417 28.9574 24.5592 30.0063C23.9266 30.8553 23.294 31.721 22.678 32.4369C19.2484 36.4491 17.7501 38.4802 18.0165 39.9453C18.183 40.8443 18.9821 41.3937 19.7312 41.8265C20.264 42.1262 20.6802 42.2594 21.113 42.2594Z"
      fill="#FF0000" />
    <path
      d="M35.0976 10.1279C29.5538 10.1279 24.193 14.1235 25.0754 22.1313C25.2752 23.9959 25.9411 25.5441 26.89 26.8094C26.9899 26.926 27.0232 27.0758 27.0399 27.2256C27.0399 27.3921 26.9899 27.5586 26.8567 27.6918C25.6747 28.9903 24.2596 31.1713 22.9611 32.6862C17.7668 38.7462 17.3007 40.0448 19.9144 41.4932C20.3639 41.7429 20.7468 41.8761 21.1131 41.8761C22.8279 41.8761 24.3096 38.9127 30.6525 30.3055C30.7191 30.2057 30.819 30.1391 30.9356 30.0891C31.0854 30.0225 31.2685 30.0059 31.4517 30.0725C32.8335 30.5886 34.3318 30.8383 35.8135 30.8383C41.6071 30.8383 47.3341 27.0092 46.0688 19.4509C45.02 13.2245 39.9922 10.1279 35.0976 10.1279ZM35.0976 9.36206C40.1087 9.36206 45.6693 12.442 46.818 19.3177C47.3674 22.6474 46.6682 25.5774 44.7869 27.7917C42.7725 30.1724 39.4095 31.5875 35.7969 31.5875C34.2153 31.5875 32.6503 31.3211 31.2352 30.805C29.5538 33.0858 28.2053 34.9671 27.1231 36.4987C23.8601 41.077 22.7613 42.6252 21.1131 42.6252C20.6303 42.6252 20.1309 42.4754 19.5315 42.1424C18.6991 41.6763 17.8168 41.0603 17.617 39.9948C17.334 38.3633 18.7824 36.3489 22.3617 32.1701C22.9611 31.4709 23.6103 30.6052 24.2263 29.7562C24.8756 28.8738 25.5082 28.0414 26.0909 27.3588C26.1242 27.3089 26.1575 27.2589 26.1575 27.209C26.1575 27.159 26.1409 27.0924 26.1076 27.0425C25.1087 25.644 24.4927 24.0292 24.2929 22.1979C23.8767 18.4187 24.7757 15.1723 26.8734 12.8249C28.8712 10.6273 31.8679 9.36206 35.0976 9.36206Z"
      fill="#000C47" />
    <path
      d="M35.7134 28.5577C38.3438 28.5577 40.7911 27.5255 42.2561 25.7941C43.6213 24.1959 44.1207 22.0649 43.7212 19.6509C42.8888 14.6398 38.8433 12.4089 35.1973 12.4089C32.8499 12.4089 30.669 13.3246 29.2372 14.9395C27.7056 16.6376 27.0563 19.0016 27.3726 21.7486C27.8887 26.4268 32.0508 28.5577 35.7134 28.5577Z"
      fill="white" />
    <path
      d="M35.1975 12.7917C31.0687 12.7917 27.0898 15.7718 27.7391 21.7152C28.2219 26.0437 31.9844 28.1747 35.7136 28.1747C40.0255 28.1747 44.2708 25.3279 43.3385 19.7174C42.5727 15.0892 38.8435 12.7917 35.1975 12.7917ZM35.1975 12.0093C38.9933 12.0093 43.2219 14.3567 44.0877 19.5842C44.5039 22.1148 43.9711 24.3456 42.5394 26.0437C40.9744 27.8917 38.4939 28.9405 35.7136 28.9405C31.8845 28.9405 27.5227 26.7097 26.9733 21.7984C26.657 18.9349 27.3395 16.471 28.9378 14.6896C30.4694 12.9915 32.7502 12.0093 35.1975 12.0093Z"
      fill="#000C47" />
    <path
      d="M35.6467 16.6537C35.8964 19.1177 36.1461 21.5982 36.3959 24.0622C36.4458 24.5616 35.68 24.5783 35.63 24.0788C35.3803 21.6149 35.1306 19.1343 34.8809 16.6704C34.8309 16.1876 35.5967 16.1543 35.6467 16.6537Z"
      fill="#00AEF0" />
    <path
      d="M32.8006 15.7221L32.9504 20.3336C32.9671 20.8331 32.2012 20.8497 32.1846 20.3503L32.0348 15.7387C32.0181 15.2393 32.7839 15.2226 32.8006 15.7221Z"
      fill="#00AEF0" />
    <path
      d="M31.1522 30.5388C24.5262 29.773 21.8624 30.1392 21.8291 32.1537C21.7958 34.8507 23.3941 34.551 23.3941 34.551C23.3941 34.551 21.4795 34.0516 21.1965 36.399C20.9468 38.4134 22.7614 38.7963 22.7614 38.7963C22.7614 38.7963 20.8302 38.147 20.7304 40.7775C20.6305 43.4412 28.3386 45.5888 29.9535 43.9573C31.7015 42.1759 31.252 40.3779 31.252 40.3779C31.252 40.3779 33.383 39.7786 32.5007 35.7497C32.5007 35.733 34.7482 30.955 31.1522 30.5388Z"
      fill="white" />
    <path
      d="M22.8446 28.8404C30.5194 28.3409 29.7869 29.3898 29.8535 31.6872C29.9201 33.9847 18.4328 35.1168 19.132 33.0524C19.8312 30.988 22.8446 28.8404 22.8446 28.8404Z"
      fill="white" />
    <path
      d="M22.3618 33.186C24.7425 33.3691 28.1387 33.469 28.9711 30.6055C29.1043 30.1393 29.8535 30.3058 29.7203 30.7886C28.788 34.0184 25.192 34.1682 22.3951 33.9518C21.9123 33.9185 21.879 33.1527 22.3618 33.186Z"
      fill="#000C47" />
    <path
      d="M21.1796 42.1092C23.1441 43.3245 25.2917 43.8906 27.5892 43.7741C28.0886 43.7574 28.1052 44.5232 27.6058 44.5399C25.1752 44.6564 22.861 44.0737 20.7967 42.7752C20.3971 42.5254 20.7634 41.8429 21.1796 42.1092Z"
      fill="#000C47" />
    <path
      d="M22.9111 38.2468C25.4915 38.9127 28.1053 39.4288 30.7524 39.8117C31.2352 39.8783 31.052 40.6274 30.5692 40.5609C27.9222 40.1946 25.3251 39.6619 22.7279 38.9959C22.2618 38.8627 22.4283 38.1136 22.9111 38.2468Z"
      fill="#000C47" />
    <path
      d="M24.4427 34.3009C26.9899 34.7171 29.5204 35.1333 32.0676 35.5495C32.5504 35.6327 32.3672 36.3819 31.8844 36.2987C29.3373 35.8825 26.8067 35.4663 24.2596 35.05C23.7601 34.9668 23.9432 34.2176 24.4427 34.3009Z"
      fill="#000C47" />
    <path
      d="M20.8303 40.7772C21.1466 40.0281 22.0456 39.6119 22.8281 39.8949C23.6106 40.1779 24.0101 41.0769 23.7937 41.8594C23.6605 42.3255 22.9113 42.1591 23.0445 41.6763C23.3442 40.6274 21.9291 40.1613 21.5129 41.1435C21.3131 41.6097 20.6305 41.2267 20.8303 40.7772Z"
      fill="#000C47" />
    <path
      d="M21.8129 36.4154C22.1792 35.533 23.2946 35.0502 24.1936 35.4498C25.1093 35.866 25.4422 36.9814 25.0593 37.8638C24.8595 38.3133 24.1936 37.947 24.3767 37.4975C24.5932 36.9814 24.3268 36.2988 23.794 36.1157C23.2447 35.9326 22.6953 36.2822 22.4788 36.7816C22.2957 37.2311 21.6298 36.8649 21.8129 36.4154Z"
      fill="#000C47" />
    <path
      d="M25.8411 29.9559C26.1074 31.0714 27.689 30.8882 27.6391 29.7229C27.6224 29.2234 28.3882 29.2068 28.4049 29.7062C28.4382 30.5553 27.8555 31.371 26.9898 31.5042C26.1241 31.6374 25.3083 31.0214 25.1085 30.2057C24.992 29.7062 25.7245 29.4731 25.8411 29.9559Z"
      fill="#000C47" />
  </g>
  <defs>
    <clipPath id="clip0_1043_5561">
      <rect x="8" y="5" width="40" height="56" fill="white" />
    </clipPath>
  </defs>
</svg>