<svg width="76" height="76" viewBox="0 0 76 76" fill="none" xmlns="http://www.w3.org/2000/svg">
	<g clip-path="url(#clip0_3817_14358)">
		<path d="M76 0H0V76H76V0Z" fill="white" />
		<path d="M25.3329 6.75537H23.644V8.44426H25.3329V6.75537Z" fill="black" />
		<path d="M30.3998 6.75537H28.7109V8.44426H30.3998V6.75537Z" fill="black" />
		<path d="M33.7778 6.75537H32.0889V8.44426H33.7778V6.75537Z" fill="black" />
		<path d="M38.8447 6.75537H37.1558V8.44426H38.8447V6.75537Z" fill="black" />
		<path d="M42.2221 6.75537H40.5332V8.44426H42.2221V6.75537Z" fill="black" />
		<path d="M43.9111 6.75537H42.2222V8.44426H43.9111V6.75537Z" fill="black" />
		<path d="M45.6 6.75537H43.9111V8.44426H45.6V6.75537Z" fill="black" />
		<path d="M48.978 6.75537H47.2891V8.44426H48.978V6.75537Z" fill="black" />
		<path d="M27.0219 8.44434H25.333V10.1332H27.0219V8.44434Z" fill="black" />
		<path d="M28.7109 8.44434H27.022V10.1332H28.7109V8.44434Z" fill="black" />
		<path d="M33.7778 8.44434H32.0889V10.1332H33.7778V8.44434Z" fill="black" />
		<path d="M37.1557 8.44434H35.4668V10.1332H37.1557V8.44434Z" fill="black" />
		<path d="M40.5331 8.44434H38.8442V10.1332H40.5331V8.44434Z" fill="black" />
		<path d="M45.6 8.44434H43.9111V10.1332H45.6V8.44434Z" fill="black" />
		<path d="M50.6669 8.44434H48.978V10.1332H50.6669V8.44434Z" fill="black" />
		<path d="M52.3559 8.44434H50.667V10.1332H52.3559V8.44434Z" fill="black" />
		<path d="M54.0448 8.44434H52.356V10.1332H54.0448V8.44434Z" fill="black" />
		<path d="M55.7333 8.44434H54.0444V10.1332H55.7333V8.44434Z" fill="black" />
		<path d="M21.9555 10.1333H20.2666V11.8222H21.9555V10.1333Z" fill="black" />
		<path d="M30.3998 10.1333H28.7109V11.8222H30.3998V10.1333Z" fill="black" />
		<path d="M32.0888 10.1333H30.3999V11.8222H32.0888V10.1333Z" fill="black" />
		<path d="M35.4667 10.1333H33.7778V11.8222H35.4667V10.1333Z" fill="black" />
		<path d="M38.8447 10.1333H37.1558V11.8222H38.8447V10.1333Z" fill="black" />
		<path d="M40.5331 10.1333H38.8442V11.8222H40.5331V10.1333Z" fill="black" />
		<path d="M42.2221 10.1333H40.5332V11.8222H42.2221V10.1333Z" fill="black" />
		<path d="M48.978 10.1333H47.2891V11.8222H48.978V10.1333Z" fill="black" />
		<path d="M55.7333 10.1333H54.0444V11.8222H55.7333V10.1333Z" fill="black" />
		<path d="M21.9555 11.8223H20.2666V13.5112H21.9555V11.8223Z" fill="black" />
		<path d="M27.0219 11.8223H25.333V13.5112H27.0219V11.8223Z" fill="black" />
		<path d="M32.0888 11.8223H30.3999V13.5112H32.0888V11.8223Z" fill="black" />
		<path d="M33.7778 11.8223H32.0889V13.5112H33.7778V11.8223Z" fill="black" />
		<path d="M37.1557 11.8223H35.4668V13.5112H37.1557V11.8223Z" fill="black" />
		<path d="M38.8447 11.8223H37.1558V13.5112H38.8447V11.8223Z" fill="black" />
		<path d="M40.5331 11.8223H38.8442V13.5112H40.5331V11.8223Z" fill="black" />
		<path d="M43.9111 11.8223H42.2222V13.5112H43.9111V11.8223Z" fill="black" />
		<path d="M50.6669 11.8223H48.978V13.5112H50.6669V11.8223Z" fill="black" />
		<path d="M54.0448 11.8223H52.356V13.5112H54.0448V11.8223Z" fill="black" />
		<path d="M55.7333 11.8223H54.0444V13.5112H55.7333V11.8223Z" fill="black" />
		<path d="M21.9555 13.5112H20.2666V15.2001H21.9555V13.5112Z" fill="black" />
		<path d="M23.6445 13.5112H21.9556V15.2001H23.6445V13.5112Z" fill="black" />
		<path d="M25.3329 13.5112H23.644V15.2001H25.3329V13.5112Z" fill="black" />
		<path d="M27.0219 13.5112H25.333V15.2001H27.0219V13.5112Z" fill="black" />
		<path d="M28.7109 13.5112H27.022V15.2001H28.7109V13.5112Z" fill="black" />
		<path d="M30.3998 13.5112H28.7109V15.2001H30.3998V13.5112Z" fill="black" />
		<path d="M32.0888 13.5112H30.3999V15.2001H32.0888V13.5112Z" fill="black" />
		<path d="M35.4667 13.5112H33.7778V15.2001H35.4667V13.5112Z" fill="black" />
		<path d="M40.5331 13.5112H38.8442V15.2001H40.5331V13.5112Z" fill="black" />
		<path d="M42.2221 13.5112H40.5332V15.2001H42.2221V13.5112Z" fill="black" />
		<path d="M45.6 13.5112H43.9111V15.2001H45.6V13.5112Z" fill="black" />
		<path d="M55.7333 13.5112H54.0444V15.2001H55.7333V13.5112Z" fill="black" />
		<path d="M21.9555 15.2002H20.2666V16.8891H21.9555V15.2002Z" fill="black" />
		<path d="M25.3329 15.2002H23.644V16.8891H25.3329V15.2002Z" fill="black" />
		<path d="M30.3998 15.2002H28.7109V16.8891H30.3998V15.2002Z" fill="black" />
		<path d="M32.0888 15.2002H30.3999V16.8891H32.0888V15.2002Z" fill="black" />
		<path d="M33.7778 15.2002H32.0889V16.8891H33.7778V15.2002Z" fill="black" />
		<path d="M35.4667 15.2002H33.7778V16.8891H35.4667V15.2002Z" fill="black" />
		<path d="M38.8447 15.2002H37.1558V16.8891H38.8447V15.2002Z" fill="black" />
		<path d="M40.5331 15.2002H38.8442V16.8891H40.5331V15.2002Z" fill="black" />
		<path d="M45.6 15.2002H43.9111V16.8891H45.6V15.2002Z" fill="black" />
		<path d="M47.289 15.2002H45.6001V16.8891H47.289V15.2002Z" fill="black" />
		<path d="M48.978 15.2002H47.2891V16.8891H48.978V15.2002Z" fill="black" />
		<path d="M50.6669 15.2002H48.978V16.8891H50.6669V15.2002Z" fill="black" />
		<path d="M52.3559 15.2002H50.667V16.8891H52.3559V15.2002Z" fill="black" />
		<path d="M21.9555 16.8887H20.2666V18.5776H21.9555V16.8887Z" fill="black" />
		<path d="M25.3329 16.8887H23.644V18.5776H25.3329V16.8887Z" fill="black" />
		<path d="M28.7109 16.8887H27.022V18.5776H28.7109V16.8887Z" fill="black" />
		<path d="M32.0888 16.8887H30.3999V18.5776H32.0888V16.8887Z" fill="black" />
		<path d="M35.4667 16.8887H33.7778V18.5776H35.4667V16.8887Z" fill="black" />
		<path d="M38.8447 16.8887H37.1558V18.5776H38.8447V16.8887Z" fill="black" />
		<path d="M42.2221 16.8887H40.5332V18.5776H42.2221V16.8887Z" fill="black" />
		<path d="M45.6 16.8887H43.9111V18.5776H45.6V16.8887Z" fill="black" />
		<path d="M48.978 16.8887H47.2891V18.5776H48.978V16.8887Z" fill="black" />
		<path d="M52.3559 16.8887H50.667V18.5776H52.3559V16.8887Z" fill="black" />
		<path d="M55.7333 16.8887H54.0444V18.5776H55.7333V16.8887Z" fill="black" />
		<path d="M21.9555 18.5776H20.2666V20.2665H21.9555V18.5776Z" fill="black" />
		<path d="M23.6445 18.5776H21.9556V20.2665H23.6445V18.5776Z" fill="black" />
		<path d="M27.0219 18.5776H25.333V20.2665H27.0219V18.5776Z" fill="black" />
		<path d="M28.7109 18.5776H27.022V20.2665H28.7109V18.5776Z" fill="black" />
		<path d="M30.3998 18.5776H28.7109V20.2665H30.3998V18.5776Z" fill="black" />
		<path d="M40.5331 18.5776H38.8442V20.2665H40.5331V18.5776Z" fill="black" />
		<path d="M47.289 18.5776H45.6001V20.2665H47.289V18.5776Z" fill="black" />
		<path d="M50.6669 18.5776H48.978V20.2665H50.6669V18.5776Z" fill="black" />
		<path d="M52.3559 18.5776H50.667V20.2665H52.3559V18.5776Z" fill="black" />
		<path d="M55.7333 18.5776H54.0444V20.2665H55.7333V18.5776Z" fill="black" />
		<path d="M8.44475 20.2666H6.75586V21.9555H8.44475V20.2666Z" fill="black" />
		<path d="M11.8222 20.2666H10.1333V21.9555H11.8222V20.2666Z" fill="black" />
		<path d="M13.5112 20.2666H11.8223V21.9555H13.5112V20.2666Z" fill="black" />
		<path d="M15.2001 20.2666H13.5112V21.9555H15.2001V20.2666Z" fill="black" />
		<path d="M16.8891 20.2666H15.2002V21.9555H16.8891V20.2666Z" fill="black" />
		<path d="M18.578 20.2666H16.8892V21.9555H18.578V20.2666Z" fill="black" />
		<path d="M23.6445 20.2666H21.9556V21.9555H23.6445V20.2666Z" fill="black" />
		<path d="M27.0219 20.2666H25.333V21.9555H27.0219V20.2666Z" fill="black" />
		<path d="M28.7109 20.2666H27.022V21.9555H28.7109V20.2666Z" fill="black" />
		<path d="M38.8447 20.2666H37.1558V21.9555H38.8447V20.2666Z" fill="black" />
		<path d="M42.2221 20.2666H40.5332V21.9555H42.2221V20.2666Z" fill="black" />
		<path d="M43.9111 20.2666H42.2222V21.9555H43.9111V20.2666Z" fill="black" />
		<path d="M45.6 20.2666H43.9111V21.9555H45.6V20.2666Z" fill="black" />
		<path d="M48.978 20.2666H47.2891V21.9555H48.978V20.2666Z" fill="black" />
		<path d="M50.6669 20.2666H48.978V21.9555H50.6669V20.2666Z" fill="black" />
		<path d="M54.0448 20.2666H52.356V21.9555H54.0448V20.2666Z" fill="black" />
		<path d="M55.7333 20.2666H54.0444V21.9555H55.7333V20.2666Z" fill="black" />
		<path d="M59.1113 20.2666H57.4224V21.9555H59.1113V20.2666Z" fill="black" />
		<path d="M60.7997 20.2666H59.1108V21.9555H60.7997V20.2666Z" fill="black" />
		<path d="M62.4887 20.2666H60.7998V21.9555H62.4887V20.2666Z" fill="black" />
		<path d="M64.1777 20.2666H62.4888V21.9555H64.1777V20.2666Z" fill="black" />
		<path d="M65.8666 20.2666H64.1777V21.9555H65.8666V20.2666Z" fill="black" />
		<path d="M8.44475 21.9556H6.75586V23.6445H8.44475V21.9556Z" fill="black" />
		<path d="M13.5112 21.9556H11.8223V23.6445H13.5112V21.9556Z" fill="black" />
		<path d="M15.2001 21.9556H13.5112V23.6445H15.2001V21.9556Z" fill="black" />
		<path d="M21.9555 21.9556H20.2666V23.6445H21.9555V21.9556Z" fill="black" />
		<path d="M23.6445 21.9556H21.9556V23.6445H23.6445V21.9556Z" fill="black" />
		<path d="M25.3329 21.9556H23.644V23.6445H25.3329V21.9556Z" fill="black" />
		<path d="M27.0219 21.9556H25.333V23.6445H27.0219V21.9556Z" fill="black" />
		<path d="M30.3998 21.9556H28.7109V23.6445H30.3998V21.9556Z" fill="black" />
		<path d="M32.0888 21.9556H30.3999V23.6445H32.0888V21.9556Z" fill="black" />
		<path d="M33.7778 21.9556H32.0889V23.6445H33.7778V21.9556Z" fill="black" />
		<path d="M35.4667 21.9556H33.7778V23.6445H35.4667V21.9556Z" fill="black" />
		<path d="M43.9111 21.9556H42.2222V23.6445H43.9111V21.9556Z" fill="black" />
		<path d="M54.0448 21.9556H52.356V23.6445H54.0448V21.9556Z" fill="black" />
		<path d="M59.1113 21.9556H57.4224V23.6445H59.1113V21.9556Z" fill="black" />
		<path d="M60.7997 21.9556H59.1108V23.6445H60.7997V21.9556Z" fill="black" />
		<path d="M69.2446 21.9556H67.5557V23.6445H69.2446V21.9556Z" fill="black" />
		<path d="M8.44475 23.6445H6.75586V25.3334H8.44475V23.6445Z" fill="black" />
		<path d="M15.2001 23.6445H13.5112V25.3334H15.2001V23.6445Z" fill="black" />
		<path d="M18.578 23.6445H16.8892V25.3334H18.578V23.6445Z" fill="black" />
		<path d="M21.9555 23.6445H20.2666V25.3334H21.9555V23.6445Z" fill="black" />
		<path d="M30.3998 23.6445H28.7109V25.3334H30.3998V23.6445Z" fill="black" />
		<path d="M37.1557 23.6445H35.4668V25.3334H37.1557V23.6445Z" fill="black" />
		<path d="M42.2221 23.6445H40.5332V25.3334H42.2221V23.6445Z" fill="black" />
		<path d="M45.6 23.6445H43.9111V25.3334H45.6V23.6445Z" fill="black" />
		<path d="M47.289 23.6445H45.6001V25.3334H47.289V23.6445Z" fill="black" />
		<path d="M48.978 23.6445H47.2891V25.3334H48.978V23.6445Z" fill="black" />
		<path d="M50.6669 23.6445H48.978V25.3334H50.6669V23.6445Z" fill="black" />
		<path d="M52.3559 23.6445H50.667V25.3334H52.3559V23.6445Z" fill="black" />
		<path d="M54.0448 23.6445H52.356V25.3334H54.0448V23.6445Z" fill="black" />
		<path d="M55.7333 23.6445H54.0444V25.3334H55.7333V23.6445Z" fill="black" />
		<path d="M59.1113 23.6445H57.4224V25.3334H59.1113V23.6445Z" fill="black" />
		<path d="M60.7997 23.6445H59.1108V25.3334H60.7997V23.6445Z" fill="black" />
		<path d="M62.4887 23.6445H60.7998V25.3334H62.4887V23.6445Z" fill="black" />
		<path d="M64.1777 23.6445H62.4888V25.3334H64.1777V23.6445Z" fill="black" />
		<path d="M8.44475 25.3335H6.75586V27.0224H8.44475V25.3335Z" fill="black" />
		<path d="M11.8222 25.3335H10.1333V27.0224H11.8222V25.3335Z" fill="black" />
		<path d="M15.2001 25.3335H13.5112V27.0224H15.2001V25.3335Z" fill="black" />
		<path d="M16.8891 25.3335H15.2002V27.0224H16.8891V25.3335Z" fill="black" />
		<path d="M20.2665 25.3335H18.5776V27.0224H20.2665V25.3335Z" fill="black" />
		<path d="M21.9555 25.3335H20.2666V27.0224H21.9555V25.3335Z" fill="black" />
		<path d="M27.0219 25.3335H25.333V27.0224H27.0219V25.3335Z" fill="black" />
		<path d="M28.7109 25.3335H27.022V27.0224H28.7109V25.3335Z" fill="black" />
		<path d="M30.3998 25.3335H28.7109V27.0224H30.3998V25.3335Z" fill="black" />
		<path d="M35.4667 25.3335H33.7778V27.0224H35.4667V25.3335Z" fill="black" />
		<path d="M37.1557 25.3335H35.4668V27.0224H37.1557V25.3335Z" fill="black" />
		<path d="M38.8447 25.3335H37.1558V27.0224H38.8447V25.3335Z" fill="black" />
		<path d="M43.9111 25.3335H42.2222V27.0224H43.9111V25.3335Z" fill="black" />
		<path d="M47.289 25.3335H45.6001V27.0224H47.289V25.3335Z" fill="black" />
		<path d="M50.6669 25.3335H48.978V27.0224H50.6669V25.3335Z" fill="black" />
		<path d="M60.7997 25.3335H59.1108V27.0224H60.7997V25.3335Z" fill="black" />
		<path d="M64.1777 25.3335H62.4888V27.0224H64.1777V25.3335Z" fill="black" />
		<path d="M65.8666 25.3335H64.1777V27.0224H65.8666V25.3335Z" fill="black" />
		<path d="M8.44475 27.022H6.75586V28.7109H8.44475V27.022Z" fill="black" />
		<path d="M10.1332 27.022H8.44434V28.7109H10.1332V27.022Z" fill="black" />
		<path d="M11.8222 27.022H10.1333V28.7109H11.8222V27.022Z" fill="black" />
		<path d="M15.2001 27.022H13.5112V28.7109H15.2001V27.022Z" fill="black" />
		<path d="M16.8891 27.022H15.2002V28.7109H16.8891V27.022Z" fill="black" />
		<path d="M18.578 27.022H16.8892V28.7109H18.578V27.022Z" fill="black" />
		<path d="M27.0219 27.022H25.333V28.7109H27.0219V27.022Z" fill="black" />
		<path d="M37.1557 27.022H35.4668V28.7109H37.1557V27.022Z" fill="black" />
		<path d="M47.289 27.022H45.6001V28.7109H47.289V27.022Z" fill="black" />
		<path d="M48.978 27.022H47.2891V28.7109H48.978V27.022Z" fill="black" />
		<path d="M54.0448 27.022H52.356V28.7109H54.0448V27.022Z" fill="black" />
		<path d="M55.7333 27.022H54.0444V28.7109H55.7333V27.022Z" fill="black" />
		<path d="M57.4223 27.022H55.7334V28.7109H57.4223V27.022Z" fill="black" />
		<path d="M60.7997 27.022H59.1108V28.7109H60.7997V27.022Z" fill="black" />
		<path d="M62.4887 27.022H60.7998V28.7109H62.4887V27.022Z" fill="black" />
		<path d="M67.5556 27.022H65.8667V28.7109H67.5556V27.022Z" fill="black" />
		<path d="M69.2446 27.022H67.5557V28.7109H69.2446V27.022Z" fill="black" />
		<path d="M11.8222 28.7114H10.1333V30.4003H11.8222V28.7114Z" fill="black" />
		<path d="M13.5112 28.7114H11.8223V30.4003H13.5112V28.7114Z" fill="black" />
		<path d="M15.2001 28.7114H13.5112V30.4003H15.2001V28.7114Z" fill="black" />
		<path d="M27.0219 28.7114H25.333V30.4003H27.0219V28.7114Z" fill="black" />
		<path d="M30.3998 28.7114H28.7109V30.4003H30.3998V28.7114Z" fill="black" />
		<path d="M37.1557 28.7114H35.4668V30.4003H37.1557V28.7114Z" fill="black" />
		<path d="M42.2221 28.7114H40.5332V30.4003H42.2221V28.7114Z" fill="black" />
		<path d="M43.9111 28.7114H42.2222V30.4003H43.9111V28.7114Z" fill="black" />
		<path d="M45.6 28.7114H43.9111V30.4003H45.6V28.7114Z" fill="black" />
		<path d="M47.289 28.7114H45.6001V30.4003H47.289V28.7114Z" fill="black" />
		<path d="M52.3559 28.7114H50.667V30.4003H52.3559V28.7114Z" fill="black" />
		<path d="M54.0448 28.7114H52.356V30.4003H54.0448V28.7114Z" fill="black" />
		<path d="M55.7333 28.7114H54.0444V30.4003H55.7333V28.7114Z" fill="black" />
		<path d="M57.4223 28.7114H55.7334V30.4003H57.4223V28.7114Z" fill="black" />
		<path d="M60.7997 28.7114H59.1108V30.4003H60.7997V28.7114Z" fill="black" />
		<path d="M62.4887 28.7114H60.7998V30.4003H62.4887V28.7114Z" fill="black" />
		<path d="M69.2446 28.7114H67.5557V30.4003H69.2446V28.7114Z" fill="black" />
		<path d="M8.44475 30.3999H6.75586V32.0888H8.44475V30.3999Z" fill="black" />
		<path d="M10.1332 30.3999H8.44434V32.0888H10.1332V30.3999Z" fill="black" />
		<path d="M13.5112 30.3999H11.8223V32.0888H13.5112V30.3999Z" fill="black" />
		<path d="M16.8891 30.3999H15.2002V32.0888H16.8891V30.3999Z" fill="black" />
		<path d="M18.578 30.3999H16.8892V32.0888H18.578V30.3999Z" fill="black" />
		<path d="M20.2665 30.3999H18.5776V32.0888H20.2665V30.3999Z" fill="black" />
		<path d="M21.9555 30.3999H20.2666V32.0888H21.9555V30.3999Z" fill="black" />
		<path d="M23.6445 30.3999H21.9556V32.0888H23.6445V30.3999Z" fill="black" />
		<path d="M25.3329 30.3999H23.644V32.0888H25.3329V30.3999Z" fill="black" />
		<path d="M27.0219 30.3999H25.333V32.0888H27.0219V30.3999Z" fill="black" />
		<path d="M30.3998 30.3999H28.7109V32.0888H30.3998V30.3999Z" fill="black" />
		<path d="M32.0888 30.3999H30.3999V32.0888H32.0888V30.3999Z" fill="black" />
		<path d="M37.1557 30.3999H35.4668V32.0888H37.1557V30.3999Z" fill="black" />
		<path d="M42.2221 30.3999H40.5332V32.0888H42.2221V30.3999Z" fill="black" />
		<path d="M43.9111 30.3999H42.2222V32.0888H43.9111V30.3999Z" fill="black" />
		<path d="M47.289 30.3999H45.6001V32.0888H47.289V30.3999Z" fill="black" />
		<path d="M48.978 30.3999H47.2891V32.0888H48.978V30.3999Z" fill="black" />
		<path d="M50.6669 30.3999H48.978V32.0888H50.6669V30.3999Z" fill="black" />
		<path d="M52.3559 30.3999H50.667V32.0888H52.3559V30.3999Z" fill="black" />
		<path d="M57.4223 30.3999H55.7334V32.0888H57.4223V30.3999Z" fill="black" />
		<path d="M59.1113 30.3999H57.4224V32.0888H59.1113V30.3999Z" fill="black" />
		<path d="M62.4887 30.3999H60.7998V32.0888H62.4887V30.3999Z" fill="black" />
		<path d="M65.8666 30.3999H64.1777V32.0888H65.8666V30.3999Z" fill="black" />
		<path d="M67.5556 30.3999H65.8667V32.0888H67.5556V30.3999Z" fill="black" />
		<path d="M69.2446 30.3999H67.5557V32.0888H69.2446V30.3999Z" fill="black" />
		<path d="M13.5112 32.0889H11.8223V33.7778H13.5112V32.0889Z" fill="black" />
		<path d="M20.2665 32.0889H18.5776V33.7778H20.2665V32.0889Z" fill="black" />
		<path d="M21.9555 32.0889H20.2666V33.7778H21.9555V32.0889Z" fill="black" />
		<path d="M32.0888 32.0889H30.3999V33.7778H32.0888V32.0889Z" fill="black" />
		<path d="M35.4667 32.0889H33.7778V33.7778H35.4667V32.0889Z" fill="black" />
		<path d="M37.1557 32.0889H35.4668V33.7778H37.1557V32.0889Z" fill="black" />
		<path d="M38.8447 32.0889H37.1558V33.7778H38.8447V32.0889Z" fill="black" />
		<path d="M40.5331 32.0889H38.8442V33.7778H40.5331V32.0889Z" fill="black" />
		<path d="M42.2221 32.0889H40.5332V33.7778H42.2221V32.0889Z" fill="black" />
		<path d="M43.9111 32.0889H42.2222V33.7778H43.9111V32.0889Z" fill="black" />
		<path d="M45.6 32.0889H43.9111V33.7778H45.6V32.0889Z" fill="black" />
		<path d="M47.289 32.0889H45.6001V33.7778H47.289V32.0889Z" fill="black" />
		<path d="M48.978 32.0889H47.2891V33.7778H48.978V32.0889Z" fill="black" />
		<path d="M55.7333 32.0889H54.0444V33.7778H55.7333V32.0889Z" fill="black" />
		<path d="M57.4223 32.0889H55.7334V33.7778H57.4223V32.0889Z" fill="black" />
		<path d="M67.5556 32.0889H65.8667V33.7778H67.5556V32.0889Z" fill="black" />
		<path d="M8.44475 33.7778H6.75586V35.4667H8.44475V33.7778Z" fill="black" />
		<path d="M11.8222 33.7778H10.1333V35.4667H11.8222V33.7778Z" fill="black" />
		<path d="M13.5112 33.7778H11.8223V35.4667H13.5112V33.7778Z" fill="black" />
		<path d="M18.578 33.7778H16.8892V35.4667H18.578V33.7778Z" fill="black" />
		<path d="M21.9555 33.7778H20.2666V35.4667H21.9555V33.7778Z" fill="black" />
		<path d="M23.6445 33.7778H21.9556V35.4667H23.6445V33.7778Z" fill="black" />
		<path d="M25.3329 33.7778H23.644V35.4667H25.3329V33.7778Z" fill="black" />
		<path d="M27.0219 33.7778H25.333V35.4667H27.0219V33.7778Z" fill="black" />
		<path d="M28.7109 33.7778H27.022V35.4667H28.7109V33.7778Z" fill="black" />
		<path d="M30.3998 33.7778H28.7109V35.4667H30.3998V33.7778Z" fill="black" />
		<path d="M33.7778 33.7778H32.0889V35.4667H33.7778V33.7778Z" fill="black" />
		<path d="M35.4667 33.7778H33.7778V35.4667H35.4667V33.7778Z" fill="black" />
		<path d="M43.9111 33.7778H42.2222V35.4667H43.9111V33.7778Z" fill="black" />
		<path d="M48.978 33.7778H47.2891V35.4667H48.978V33.7778Z" fill="black" />
		<path d="M50.6669 33.7778H48.978V35.4667H50.6669V33.7778Z" fill="black" />
		<path d="M54.0448 33.7778H52.356V35.4667H54.0448V33.7778Z" fill="black" />
		<path d="M55.7333 33.7778H54.0444V35.4667H55.7333V33.7778Z" fill="black" />
		<path d="M59.1113 33.7778H57.4224V35.4667H59.1113V33.7778Z" fill="black" />
		<path d="M64.1777 33.7778H62.4888V35.4667H64.1777V33.7778Z" fill="black" />
		<path d="M67.5556 33.7778H65.8667V35.4667H67.5556V33.7778Z" fill="black" />
		<path d="M69.2446 33.7778H67.5557V35.4667H69.2446V33.7778Z" fill="black" />
		<path d="M10.1332 35.4668H8.44434V37.1557H10.1332V35.4668Z" fill="black" />
		<path d="M11.8222 35.4668H10.1333V37.1557H11.8222V35.4668Z" fill="black" />
		<path d="M15.2001 35.4668H13.5112V37.1557H15.2001V35.4668Z" fill="black" />
		<path d="M20.2665 35.4668H18.5776V37.1557H20.2665V35.4668Z" fill="black" />
		<path d="M23.6445 35.4668H21.9556V37.1557H23.6445V35.4668Z" fill="black" />
		<path d="M30.3998 35.4668H28.7109V37.1557H30.3998V35.4668Z" fill="black" />
		<path d="M32.0888 35.4668H30.3999V37.1557H32.0888V35.4668Z" fill="black" />
		<path d="M33.7778 35.4668H32.0889V37.1557H33.7778V35.4668Z" fill="black" />
		<path d="M38.8447 35.4668H37.1558V37.1557H38.8447V35.4668Z" fill="black" />
		<path d="M42.2221 35.4668H40.5332V37.1557H42.2221V35.4668Z" fill="black" />
		<path d="M43.9111 35.4668H42.2222V37.1557H43.9111V35.4668Z" fill="black" />
		<path d="M45.6 35.4668H43.9111V37.1557H45.6V35.4668Z" fill="black" />
		<path d="M48.978 35.4668H47.2891V37.1557H48.978V35.4668Z" fill="black" />
		<path d="M52.3559 35.4668H50.667V37.1557H52.3559V35.4668Z" fill="black" />
		<path d="M55.7333 35.4668H54.0444V37.1557H55.7333V35.4668Z" fill="black" />
		<path d="M57.4223 35.4668H55.7334V37.1557H57.4223V35.4668Z" fill="black" />
		<path d="M60.7997 35.4668H59.1108V37.1557H60.7997V35.4668Z" fill="black" />
		<path d="M67.5556 35.4668H65.8667V37.1557H67.5556V35.4668Z" fill="black" />
		<path d="M11.8222 37.1558H10.1333V38.8447H11.8222V37.1558Z" fill="black" />
		<path d="M13.5112 37.1558H11.8223V38.8447H13.5112V37.1558Z" fill="black" />
		<path d="M16.8891 37.1558H15.2002V38.8447H16.8891V37.1558Z" fill="black" />
		<path d="M18.578 37.1558H16.8892V38.8447H18.578V37.1558Z" fill="black" />
		<path d="M20.2665 37.1558H18.5776V38.8447H20.2665V37.1558Z" fill="black" />
		<path d="M21.9555 37.1558H20.2666V38.8447H21.9555V37.1558Z" fill="black" />
		<path d="M23.6445 37.1558H21.9556V38.8447H23.6445V37.1558Z" fill="black" />
		<path d="M28.7109 37.1558H27.022V38.8447H28.7109V37.1558Z" fill="black" />
		<path d="M33.7778 37.1558H32.0889V38.8447H33.7778V37.1558Z" fill="black" />
		<path d="M35.4667 37.1558H33.7778V38.8447H35.4667V37.1558Z" fill="black" />
		<path d="M37.1557 37.1558H35.4668V38.8447H37.1557V37.1558Z" fill="black" />
		<path d="M40.5331 37.1558H38.8442V38.8447H40.5331V37.1558Z" fill="black" />
		<path d="M45.6 37.1558H43.9111V38.8447H45.6V37.1558Z" fill="black" />
		<path d="M48.978 37.1558H47.2891V38.8447H48.978V37.1558Z" fill="black" />
		<path d="M50.6669 37.1558H48.978V38.8447H50.6669V37.1558Z" fill="black" />
		<path d="M52.3559 37.1558H50.667V38.8447H52.3559V37.1558Z" fill="black" />
		<path d="M55.7333 37.1558H54.0444V38.8447H55.7333V37.1558Z" fill="black" />
		<path d="M57.4223 37.1558H55.7334V38.8447H57.4223V37.1558Z" fill="black" />
		<path d="M59.1113 37.1558H57.4224V38.8447H59.1113V37.1558Z" fill="black" />
		<path d="M62.4887 37.1558H60.7998V38.8447H62.4887V37.1558Z" fill="black" />
		<path d="M64.1777 37.1558H62.4888V38.8447H64.1777V37.1558Z" fill="black" />
		<path d="M65.8666 37.1558H64.1777V38.8447H65.8666V37.1558Z" fill="black" />
		<path d="M67.5556 37.1558H65.8667V38.8447H67.5556V37.1558Z" fill="black" />
		<path d="M8.44475 38.8442H6.75586V40.5331H8.44475V38.8442Z" fill="black" />
		<path d="M11.8222 38.8442H10.1333V40.5331H11.8222V38.8442Z" fill="black" />
		<path d="M15.2001 38.8442H13.5112V40.5331H15.2001V38.8442Z" fill="black" />
		<path d="M16.8891 38.8442H15.2002V40.5331H16.8891V38.8442Z" fill="black" />
		<path d="M25.3329 38.8442H23.644V40.5331H25.3329V38.8442Z" fill="black" />
		<path d="M27.0219 38.8442H25.333V40.5331H27.0219V38.8442Z" fill="black" />
		<path d="M33.7778 38.8442H32.0889V40.5331H33.7778V38.8442Z" fill="black" />
		<path d="M37.1557 38.8442H35.4668V40.5331H37.1557V38.8442Z" fill="black" />
		<path d="M38.8447 38.8442H37.1558V40.5331H38.8447V38.8442Z" fill="black" />
		<path d="M40.5331 38.8442H38.8442V40.5331H40.5331V38.8442Z" fill="black" />
		<path d="M42.2221 38.8442H40.5332V40.5331H42.2221V38.8442Z" fill="black" />
		<path d="M43.9111 38.8442H42.2222V40.5331H43.9111V38.8442Z" fill="black" />
		<path d="M45.6 38.8442H43.9111V40.5331H45.6V38.8442Z" fill="black" />
		<path d="M48.978 38.8442H47.2891V40.5331H48.978V38.8442Z" fill="black" />
		<path d="M50.6669 38.8442H48.978V40.5331H50.6669V38.8442Z" fill="black" />
		<path d="M54.0448 38.8442H52.356V40.5331H54.0448V38.8442Z" fill="black" />
		<path d="M55.7333 38.8442H54.0444V40.5331H55.7333V38.8442Z" fill="black" />
		<path d="M60.7997 38.8442H59.1108V40.5331H60.7997V38.8442Z" fill="black" />
		<path d="M67.5556 38.8442H65.8667V40.5331H67.5556V38.8442Z" fill="black" />
		<path d="M8.44475 40.5332H6.75586V42.2221H8.44475V40.5332Z" fill="black" />
		<path d="M10.1332 40.5332H8.44434V42.2221H10.1332V40.5332Z" fill="black" />
		<path d="M13.5112 40.5332H11.8223V42.2221H13.5112V40.5332Z" fill="black" />
		<path d="M16.8891 40.5332H15.2002V42.2221H16.8891V40.5332Z" fill="black" />
		<path d="M18.578 40.5332H16.8892V42.2221H18.578V40.5332Z" fill="black" />
		<path d="M20.2665 40.5332H18.5776V42.2221H20.2665V40.5332Z" fill="black" />
		<path d="M25.3329 40.5332H23.644V42.2221H25.3329V40.5332Z" fill="black" />
		<path d="M27.0219 40.5332H25.333V42.2221H27.0219V40.5332Z" fill="black" />
		<path d="M28.7109 40.5332H27.022V42.2221H28.7109V40.5332Z" fill="black" />
		<path d="M32.0888 40.5332H30.3999V42.2221H32.0888V40.5332Z" fill="black" />
		<path d="M33.7778 40.5332H32.0889V42.2221H33.7778V40.5332Z" fill="black" />
		<path d="M40.5331 40.5332H38.8442V42.2221H40.5331V40.5332Z" fill="black" />
		<path d="M48.978 40.5332H47.2891V42.2221H48.978V40.5332Z" fill="black" />
		<path d="M52.3559 40.5332H50.667V42.2221H52.3559V40.5332Z" fill="black" />
		<path d="M54.0448 40.5332H52.356V42.2221H54.0448V40.5332Z" fill="black" />
		<path d="M55.7333 40.5332H54.0444V42.2221H55.7333V40.5332Z" fill="black" />
		<path d="M57.4223 40.5332H55.7334V42.2221H57.4223V40.5332Z" fill="black" />
		<path d="M59.1113 40.5332H57.4224V42.2221H59.1113V40.5332Z" fill="black" />
		<path d="M62.4887 40.5332H60.7998V42.2221H62.4887V40.5332Z" fill="black" />
		<path d="M64.1777 40.5332H62.4888V42.2221H64.1777V40.5332Z" fill="black" />
		<path d="M69.2446 40.5332H67.5557V42.2221H69.2446V40.5332Z" fill="black" />
		<path d="M8.44475 42.2222H6.75586V43.9111H8.44475V42.2222Z" fill="black" />
		<path d="M10.1332 42.2222H8.44434V43.9111H10.1332V42.2222Z" fill="black" />
		<path d="M11.8222 42.2222H10.1333V43.9111H11.8222V42.2222Z" fill="black" />
		<path d="M13.5112 42.2222H11.8223V43.9111H13.5112V42.2222Z" fill="black" />
		<path d="M30.3998 42.2222H28.7109V43.9111H30.3998V42.2222Z" fill="black" />
		<path d="M33.7778 42.2222H32.0889V43.9111H33.7778V42.2222Z" fill="black" />
		<path d="M35.4667 42.2222H33.7778V43.9111H35.4667V42.2222Z" fill="black" />
		<path d="M40.5331 42.2222H38.8442V43.9111H40.5331V42.2222Z" fill="black" />
		<path d="M42.2221 42.2222H40.5332V43.9111H42.2221V42.2222Z" fill="black" />
		<path d="M48.978 42.2222H47.2891V43.9111H48.978V42.2222Z" fill="black" />
		<path d="M54.0448 42.2222H52.356V43.9111H54.0448V42.2222Z" fill="black" />
		<path d="M55.7333 42.2222H54.0444V43.9111H55.7333V42.2222Z" fill="black" />
		<path d="M57.4223 42.2222H55.7334V43.9111H57.4223V42.2222Z" fill="black" />
		<path d="M59.1113 42.2222H57.4224V43.9111H59.1113V42.2222Z" fill="black" />
		<path d="M62.4887 42.2222H60.7998V43.9111H62.4887V42.2222Z" fill="black" />
		<path d="M67.5556 42.2222H65.8667V43.9111H67.5556V42.2222Z" fill="black" />
		<path d="M10.1332 43.9111H8.44434V45.6H10.1332V43.9111Z" fill="black" />
		<path d="M11.8222 43.9111H10.1333V45.6H11.8222V43.9111Z" fill="black" />
		<path d="M15.2001 43.9111H13.5112V45.6H15.2001V43.9111Z" fill="black" />
		<path d="M16.8891 43.9111H15.2002V45.6H16.8891V43.9111Z" fill="black" />
		<path d="M18.578 43.9111H16.8892V45.6H18.578V43.9111Z" fill="black" />
		<path d="M23.6445 43.9111H21.9556V45.6H23.6445V43.9111Z" fill="black" />
		<path d="M27.0219 43.9111H25.333V45.6H27.0219V43.9111Z" fill="black" />
		<path d="M28.7109 43.9111H27.022V45.6H28.7109V43.9111Z" fill="black" />
		<path d="M30.3998 43.9111H28.7109V45.6H30.3998V43.9111Z" fill="black" />
		<path d="M32.0888 43.9111H30.3999V45.6H32.0888V43.9111Z" fill="black" />
		<path d="M33.7778 43.9111H32.0889V45.6H33.7778V43.9111Z" fill="black" />
		<path d="M38.8447 43.9111H37.1558V45.6H38.8447V43.9111Z" fill="black" />
		<path d="M45.6 43.9111H43.9111V45.6H45.6V43.9111Z" fill="black" />
		<path d="M50.6669 43.9111H48.978V45.6H50.6669V43.9111Z" fill="black" />
		<path d="M52.3559 43.9111H50.667V45.6H52.3559V43.9111Z" fill="black" />
		<path d="M54.0448 43.9111H52.356V45.6H54.0448V43.9111Z" fill="black" />
		<path d="M57.4223 43.9111H55.7334V45.6H57.4223V43.9111Z" fill="black" />
		<path d="M59.1113 43.9111H57.4224V45.6H59.1113V43.9111Z" fill="black" />
		<path d="M60.7997 43.9111H59.1108V45.6H60.7997V43.9111Z" fill="black" />
		<path d="M62.4887 43.9111H60.7998V45.6H62.4887V43.9111Z" fill="black" />
		<path d="M65.8666 43.9111H64.1777V45.6H65.8666V43.9111Z" fill="black" />
		<path d="M69.2446 43.9111H67.5557V45.6H69.2446V43.9111Z" fill="black" />
		<path d="M13.5112 45.6001H11.8223V47.289H13.5112V45.6001Z" fill="black" />
		<path d="M15.2001 45.6001H13.5112V47.289H15.2001V45.6001Z" fill="black" />
		<path d="M16.8891 45.6001H15.2002V47.289H16.8891V45.6001Z" fill="black" />
		<path d="M23.6445 45.6001H21.9556V47.289H23.6445V45.6001Z" fill="black" />
		<path d="M27.0219 45.6001H25.333V47.289H27.0219V45.6001Z" fill="black" />
		<path d="M35.4667 45.6001H33.7778V47.289H35.4667V45.6001Z" fill="black" />
		<path d="M40.5331 45.6001H38.8442V47.289H40.5331V45.6001Z" fill="black" />
		<path d="M42.2221 45.6001H40.5332V47.289H42.2221V45.6001Z" fill="black" />
		<path d="M47.289 45.6001H45.6001V47.289H47.289V45.6001Z" fill="black" />
		<path d="M50.6669 45.6001H48.978V47.289H50.6669V45.6001Z" fill="black" />
		<path d="M55.7333 45.6001H54.0444V47.289H55.7333V45.6001Z" fill="black" />
		<path d="M67.5556 45.6001H65.8667V47.289H67.5556V45.6001Z" fill="black" />
		<path d="M8.44475 47.2886H6.75586V48.9775H8.44475V47.2886Z" fill="black" />
		<path d="M11.8222 47.2886H10.1333V48.9775H11.8222V47.2886Z" fill="black" />
		<path d="M15.2001 47.2886H13.5112V48.9775H15.2001V47.2886Z" fill="black" />
		<path d="M16.8891 47.2886H15.2002V48.9775H16.8891V47.2886Z" fill="black" />
		<path d="M18.578 47.2886H16.8892V48.9775H18.578V47.2886Z" fill="black" />
		<path d="M20.2665 47.2886H18.5776V48.9775H20.2665V47.2886Z" fill="black" />
		<path d="M23.6445 47.2886H21.9556V48.9775H23.6445V47.2886Z" fill="black" />
		<path d="M30.3998 47.2886H28.7109V48.9775H30.3998V47.2886Z" fill="black" />
		<path d="M33.7778 47.2886H32.0889V48.9775H33.7778V47.2886Z" fill="black" />
		<path d="M38.8447 47.2886H37.1558V48.9775H38.8447V47.2886Z" fill="black" />
		<path d="M42.2221 47.2886H40.5332V48.9775H42.2221V47.2886Z" fill="black" />
		<path d="M43.9111 47.2886H42.2222V48.9775H43.9111V47.2886Z" fill="black" />
		<path d="M45.6 47.2886H43.9111V48.9775H45.6V47.2886Z" fill="black" />
		<path d="M48.978 47.2886H47.2891V48.9775H48.978V47.2886Z" fill="black" />
		<path d="M50.6669 47.2886H48.978V48.9775H50.6669V47.2886Z" fill="black" />
		<path d="M52.3559 47.2886H50.667V48.9775H52.3559V47.2886Z" fill="black" />
		<path d="M54.0448 47.2886H52.356V48.9775H54.0448V47.2886Z" fill="black" />
		<path d="M57.4223 47.2886H55.7334V48.9775H57.4223V47.2886Z" fill="black" />
		<path d="M59.1113 47.2886H57.4224V48.9775H59.1113V47.2886Z" fill="black" />
		<path d="M62.4887 47.2886H60.7998V48.9775H62.4887V47.2886Z" fill="black" />
		<path d="M64.1777 47.2886H62.4888V48.9775H64.1777V47.2886Z" fill="black" />
		<path d="M67.5556 47.2886H65.8667V48.9775H67.5556V47.2886Z" fill="black" />
		<path d="M69.2446 47.2886H67.5557V48.9775H69.2446V47.2886Z" fill="black" />
		<path d="M8.44475 48.978H6.75586V50.6669H8.44475V48.978Z" fill="black" />
		<path d="M10.1332 48.978H8.44434V50.6669H10.1332V48.978Z" fill="black" />
		<path d="M11.8222 48.978H10.1333V50.6669H11.8222V48.978Z" fill="black" />
		<path d="M16.8891 48.978H15.2002V50.6669H16.8891V48.978Z" fill="black" />
		<path d="M25.3329 48.978H23.644V50.6669H25.3329V48.978Z" fill="black" />
		<path d="M27.0219 48.978H25.333V50.6669H27.0219V48.978Z" fill="black" />
		<path d="M28.7109 48.978H27.022V50.6669H28.7109V48.978Z" fill="black" />
		<path d="M30.3998 48.978H28.7109V50.6669H30.3998V48.978Z" fill="black" />
		<path d="M33.7778 48.978H32.0889V50.6669H33.7778V48.978Z" fill="black" />
		<path d="M35.4667 48.978H33.7778V50.6669H35.4667V48.978Z" fill="black" />
		<path d="M43.9111 48.978H42.2222V50.6669H43.9111V48.978Z" fill="black" />
		<path d="M48.978 48.978H47.2891V50.6669H48.978V48.978Z" fill="black" />
		<path d="M52.3559 48.978H50.667V50.6669H52.3559V48.978Z" fill="black" />
		<path d="M54.0448 48.978H52.356V50.6669H54.0448V48.978Z" fill="black" />
		<path d="M55.7333 48.978H54.0444V50.6669H55.7333V48.978Z" fill="black" />
		<path d="M57.4223 48.978H55.7334V50.6669H57.4223V48.978Z" fill="black" />
		<path d="M64.1777 48.978H62.4888V50.6669H64.1777V48.978Z" fill="black" />
		<path d="M69.2446 48.978H67.5557V50.6669H69.2446V48.978Z" fill="black" />
		<path d="M8.44475 50.6665H6.75586V52.3554H8.44475V50.6665Z" fill="black" />
		<path d="M11.8222 50.6665H10.1333V52.3554H11.8222V50.6665Z" fill="black" />
		<path d="M15.2001 50.6665H13.5112V52.3554H15.2001V50.6665Z" fill="black" />
		<path d="M18.578 50.6665H16.8892V52.3554H18.578V50.6665Z" fill="black" />
		<path d="M20.2665 50.6665H18.5776V52.3554H20.2665V50.6665Z" fill="black" />
		<path d="M25.3329 50.6665H23.644V52.3554H25.3329V50.6665Z" fill="black" />
		<path d="M27.0219 50.6665H25.333V52.3554H27.0219V50.6665Z" fill="black" />
		<path d="M32.0888 50.6665H30.3999V52.3554H32.0888V50.6665Z" fill="black" />
		<path d="M37.1557 50.6665H35.4668V52.3554H37.1557V50.6665Z" fill="black" />
		<path d="M38.8447 50.6665H37.1558V52.3554H38.8447V50.6665Z" fill="black" />
		<path d="M42.2221 50.6665H40.5332V52.3554H42.2221V50.6665Z" fill="black" />
		<path d="M45.6 50.6665H43.9111V52.3554H45.6V50.6665Z" fill="black" />
		<path d="M47.289 50.6665H45.6001V52.3554H47.289V50.6665Z" fill="black" />
		<path d="M50.6669 50.6665H48.978V52.3554H50.6669V50.6665Z" fill="black" />
		<path d="M52.3559 50.6665H50.667V52.3554H52.3559V50.6665Z" fill="black" />
		<path d="M54.0448 50.6665H52.356V52.3554H54.0448V50.6665Z" fill="black" />
		<path d="M57.4223 50.6665H55.7334V52.3554H57.4223V50.6665Z" fill="black" />
		<path d="M59.1113 50.6665H57.4224V52.3554H59.1113V50.6665Z" fill="black" />
		<path d="M60.7997 50.6665H59.1108V52.3554H60.7997V50.6665Z" fill="black" />
		<path d="M62.4887 50.6665H60.7998V52.3554H62.4887V50.6665Z" fill="black" />
		<path d="M65.8666 50.6665H64.1777V52.3554H65.8666V50.6665Z" fill="black" />
		<path d="M67.5556 50.6665H65.8667V52.3554H67.5556V50.6665Z" fill="black" />
		<path d="M69.2446 50.6665H67.5557V52.3554H69.2446V50.6665Z" fill="black" />
		<path d="M8.44475 52.3555H6.75586V54.0444H8.44475V52.3555Z" fill="black" />
		<path d="M11.8222 52.3555H10.1333V54.0444H11.8222V52.3555Z" fill="black" />
		<path d="M15.2001 52.3555H13.5112V54.0444H15.2001V52.3555Z" fill="black" />
		<path d="M28.7109 52.3555H27.022V54.0444H28.7109V52.3555Z" fill="black" />
		<path d="M35.4667 52.3555H33.7778V54.0444H35.4667V52.3555Z" fill="black" />
		<path d="M37.1557 52.3555H35.4668V54.0444H37.1557V52.3555Z" fill="black" />
		<path d="M38.8447 52.3555H37.1558V54.0444H38.8447V52.3555Z" fill="black" />
		<path d="M47.289 52.3555H45.6001V54.0444H47.289V52.3555Z" fill="black" />
		<path d="M48.978 52.3555H47.2891V54.0444H48.978V52.3555Z" fill="black" />
		<path d="M55.7333 52.3555H54.0444V54.0444H55.7333V52.3555Z" fill="black" />
		<path d="M60.7997 52.3555H59.1108V54.0444H60.7997V52.3555Z" fill="black" />
		<path d="M65.8666 52.3555H64.1777V54.0444H65.8666V52.3555Z" fill="black" />
		<path d="M8.44475 54.0444H6.75586V55.7333H8.44475V54.0444Z" fill="black" />
		<path d="M11.8222 54.0444H10.1333V55.7333H11.8222V54.0444Z" fill="black" />
		<path d="M13.5112 54.0444H11.8223V55.7333H13.5112V54.0444Z" fill="black" />
		<path d="M18.578 54.0444H16.8892V55.7333H18.578V54.0444Z" fill="black" />
		<path d="M30.3998 54.0444H28.7109V55.7333H30.3998V54.0444Z" fill="black" />
		<path d="M35.4667 54.0444H33.7778V55.7333H35.4667V54.0444Z" fill="black" />
		<path d="M37.1557 54.0444H35.4668V55.7333H37.1557V54.0444Z" fill="black" />
		<path d="M42.2221 54.0444H40.5332V55.7333H42.2221V54.0444Z" fill="black" />
		<path d="M45.6 54.0444H43.9111V55.7333H45.6V54.0444Z" fill="black" />
		<path d="M48.978 54.0444H47.2891V55.7333H48.978V54.0444Z" fill="black" />
		<path d="M52.3559 54.0444H50.667V55.7333H52.3559V54.0444Z" fill="black" />
		<path d="M54.0448 54.0444H52.356V55.7333H54.0448V54.0444Z" fill="black" />
		<path d="M55.7333 54.0444H54.0444V55.7333H55.7333V54.0444Z" fill="black" />
		<path d="M57.4223 54.0444H55.7334V55.7333H57.4223V54.0444Z" fill="black" />
		<path d="M59.1113 54.0444H57.4224V55.7333H59.1113V54.0444Z" fill="black" />
		<path d="M60.7997 54.0444H59.1108V55.7333H60.7997V54.0444Z" fill="black" />
		<path d="M62.4887 54.0444H60.7998V55.7333H62.4887V54.0444Z" fill="black" />
		<path d="M21.9555 55.7334H20.2666V57.4223H21.9555V55.7334Z" fill="black" />
		<path d="M23.6445 55.7334H21.9556V57.4223H23.6445V55.7334Z" fill="black" />
		<path d="M27.0219 55.7334H25.333V57.4223H27.0219V55.7334Z" fill="black" />
		<path d="M28.7109 55.7334H27.022V57.4223H28.7109V55.7334Z" fill="black" />
		<path d="M33.7778 55.7334H32.0889V57.4223H33.7778V55.7334Z" fill="black" />
		<path d="M37.1557 55.7334H35.4668V57.4223H37.1557V55.7334Z" fill="black" />
		<path d="M40.5331 55.7334H38.8442V57.4223H40.5331V55.7334Z" fill="black" />
		<path d="M42.2221 55.7334H40.5332V57.4223H42.2221V55.7334Z" fill="black" />
		<path d="M43.9111 55.7334H42.2222V57.4223H43.9111V55.7334Z" fill="black" />
		<path d="M45.6 55.7334H43.9111V57.4223H45.6V55.7334Z" fill="black" />
		<path d="M48.978 55.7334H47.2891V57.4223H48.978V55.7334Z" fill="black" />
		<path d="M52.3559 55.7334H50.667V57.4223H52.3559V55.7334Z" fill="black" />
		<path d="M55.7333 55.7334H54.0444V57.4223H55.7333V55.7334Z" fill="black" />
		<path d="M62.4887 55.7334H60.7998V57.4223H62.4887V55.7334Z" fill="black" />
		<path d="M67.5556 55.7334H65.8667V57.4223H67.5556V55.7334Z" fill="black" />
		<path d="M69.2446 55.7334H67.5557V57.4223H69.2446V55.7334Z" fill="black" />
		<path d="M25.3329 57.4224H23.644V59.1113H25.3329V57.4224Z" fill="black" />
		<path d="M28.7109 57.4224H27.022V59.1113H28.7109V57.4224Z" fill="black" />
		<path d="M33.7778 57.4224H32.0889V59.1113H33.7778V57.4224Z" fill="black" />
		<path d="M37.1557 57.4224H35.4668V59.1113H37.1557V57.4224Z" fill="black" />
		<path d="M40.5331 57.4224H38.8442V59.1113H40.5331V57.4224Z" fill="black" />
		<path d="M43.9111 57.4224H42.2222V59.1113H43.9111V57.4224Z" fill="black" />
		<path d="M50.6669 57.4224H48.978V59.1113H50.6669V57.4224Z" fill="black" />
		<path d="M52.3559 57.4224H50.667V59.1113H52.3559V57.4224Z" fill="black" />
		<path d="M55.7333 57.4224H54.0444V59.1113H55.7333V57.4224Z" fill="black" />
		<path d="M59.1113 57.4224H57.4224V59.1113H59.1113V57.4224Z" fill="black" />
		<path d="M62.4887 57.4224H60.7998V59.1113H62.4887V57.4224Z" fill="black" />
		<path d="M65.8666 57.4224H64.1777V59.1113H65.8666V57.4224Z" fill="black" />
		<path d="M67.5556 57.4224H65.8667V59.1113H67.5556V57.4224Z" fill="black" />
		<path d="M69.2446 57.4224H67.5557V59.1113H69.2446V57.4224Z" fill="black" />
		<path d="M21.9555 59.1113H20.2666V60.8002H21.9555V59.1113Z" fill="black" />
		<path d="M23.6445 59.1113H21.9556V60.8002H23.6445V59.1113Z" fill="black" />
		<path d="M25.3329 59.1113H23.644V60.8002H25.3329V59.1113Z" fill="black" />
		<path d="M30.3998 59.1113H28.7109V60.8002H30.3998V59.1113Z" fill="black" />
		<path d="M32.0888 59.1113H30.3999V60.8002H32.0888V59.1113Z" fill="black" />
		<path d="M35.4667 59.1113H33.7778V60.8002H35.4667V59.1113Z" fill="black" />
		<path d="M37.1557 59.1113H35.4668V60.8002H37.1557V59.1113Z" fill="black" />
		<path d="M38.8447 59.1113H37.1558V60.8002H38.8447V59.1113Z" fill="black" />
		<path d="M40.5331 59.1113H38.8442V60.8002H40.5331V59.1113Z" fill="black" />
		<path d="M42.2221 59.1113H40.5332V60.8002H42.2221V59.1113Z" fill="black" />
		<path d="M43.9111 59.1113H42.2222V60.8002H43.9111V59.1113Z" fill="black" />
		<path d="M45.6 59.1113H43.9111V60.8002H45.6V59.1113Z" fill="black" />
		<path d="M47.289 59.1113H45.6001V60.8002H47.289V59.1113Z" fill="black" />
		<path d="M52.3559 59.1113H50.667V60.8002H52.3559V59.1113Z" fill="black" />
		<path d="M55.7333 59.1113H54.0444V60.8002H55.7333V59.1113Z" fill="black" />
		<path d="M62.4887 59.1113H60.7998V60.8002H62.4887V59.1113Z" fill="black" />
		<path d="M64.1777 59.1113H62.4888V60.8002H64.1777V59.1113Z" fill="black" />
		<path d="M67.5556 59.1113H65.8667V60.8002H67.5556V59.1113Z" fill="black" />
		<path d="M21.9555 60.7998H20.2666V62.4887H21.9555V60.7998Z" fill="black" />
		<path d="M25.3329 60.7998H23.644V62.4887H25.3329V60.7998Z" fill="black" />
		<path d="M30.3998 60.7998H28.7109V62.4887H30.3998V60.7998Z" fill="black" />
		<path d="M33.7778 60.7998H32.0889V62.4887H33.7778V60.7998Z" fill="black" />
		<path d="M35.4667 60.7998H33.7778V62.4887H35.4667V60.7998Z" fill="black" />
		<path d="M43.9111 60.7998H42.2222V62.4887H43.9111V60.7998Z" fill="black" />
		<path d="M48.978 60.7998H47.2891V62.4887H48.978V60.7998Z" fill="black" />
		<path d="M52.3559 60.7998H50.667V62.4887H52.3559V60.7998Z" fill="black" />
		<path d="M54.0448 60.7998H52.356V62.4887H54.0448V60.7998Z" fill="black" />
		<path d="M55.7333 60.7998H54.0444V62.4887H55.7333V60.7998Z" fill="black" />
		<path d="M57.4223 60.7998H55.7334V62.4887H57.4223V60.7998Z" fill="black" />
		<path d="M59.1113 60.7998H57.4224V62.4887H59.1113V60.7998Z" fill="black" />
		<path d="M60.7997 60.7998H59.1108V62.4887H60.7997V60.7998Z" fill="black" />
		<path d="M62.4887 60.7998H60.7998V62.4887H62.4887V60.7998Z" fill="black" />
		<path d="M64.1777 60.7998H62.4888V62.4887H64.1777V60.7998Z" fill="black" />
		<path d="M67.5556 60.7998H65.8667V62.4887H67.5556V60.7998Z" fill="black" />
		<path d="M69.2446 60.7998H67.5557V62.4887H69.2446V60.7998Z" fill="black" />
		<path d="M21.9555 62.4888H20.2666V64.1777H21.9555V62.4888Z" fill="black" />
		<path d="M23.6445 62.4888H21.9556V64.1777H23.6445V62.4888Z" fill="black" />
		<path d="M25.3329 62.4888H23.644V64.1777H25.3329V62.4888Z" fill="black" />
		<path d="M27.0219 62.4888H25.333V64.1777H27.0219V62.4888Z" fill="black" />
		<path d="M28.7109 62.4888H27.022V64.1777H28.7109V62.4888Z" fill="black" />
		<path d="M33.7778 62.4888H32.0889V64.1777H33.7778V62.4888Z" fill="black" />
		<path d="M38.8447 62.4888H37.1558V64.1777H38.8447V62.4888Z" fill="black" />
		<path d="M42.2221 62.4888H40.5332V64.1777H42.2221V62.4888Z" fill="black" />
		<path d="M43.9111 62.4888H42.2222V64.1777H43.9111V62.4888Z" fill="black" />
		<path d="M45.6 62.4888H43.9111V64.1777H45.6V62.4888Z" fill="black" />
		<path d="M52.3559 62.4888H50.667V64.1777H52.3559V62.4888Z" fill="black" />
		<path d="M54.0448 62.4888H52.356V64.1777H54.0448V62.4888Z" fill="black" />
		<path d="M55.7333 62.4888H54.0444V64.1777H55.7333V62.4888Z" fill="black" />
		<path d="M57.4223 62.4888H55.7334V64.1777H57.4223V62.4888Z" fill="black" />
		<path d="M59.1113 62.4888H57.4224V64.1777H59.1113V62.4888Z" fill="black" />
		<path d="M60.7997 62.4888H59.1108V64.1777H60.7997V62.4888Z" fill="black" />
		<path d="M62.4887 62.4888H60.7998V64.1777H62.4887V62.4888Z" fill="black" />
		<path d="M64.1777 62.4888H62.4888V64.1777H64.1777V62.4888Z" fill="black" />
		<path d="M67.5556 62.4888H65.8667V64.1777H67.5556V62.4888Z" fill="black" />
		<path d="M69.2446 62.4888H67.5557V64.1777H69.2446V62.4888Z" fill="black" />
		<path d="M21.9555 64.1777H20.2666V65.8666H21.9555V64.1777Z" fill="black" />
		<path d="M23.6445 64.1777H21.9556V65.8666H23.6445V64.1777Z" fill="black" />
		<path d="M27.0219 64.1777H25.333V65.8666H27.0219V64.1777Z" fill="black" />
		<path d="M28.7109 64.1777H27.022V65.8666H28.7109V64.1777Z" fill="black" />
		<path d="M32.0888 64.1777H30.3999V65.8666H32.0888V64.1777Z" fill="black" />
		<path d="M33.7778 64.1777H32.0889V65.8666H33.7778V64.1777Z" fill="black" />
		<path d="M35.4667 64.1777H33.7778V65.8666H35.4667V64.1777Z" fill="black" />
		<path d="M37.1557 64.1777H35.4668V65.8666H37.1557V64.1777Z" fill="black" />
		<path d="M38.8447 64.1777H37.1558V65.8666H38.8447V64.1777Z" fill="black" />
		<path d="M40.5331 64.1777H38.8442V65.8666H40.5331V64.1777Z" fill="black" />
		<path d="M45.6 64.1777H43.9111V65.8666H45.6V64.1777Z" fill="black" />
		<path d="M47.289 64.1777H45.6001V65.8666H47.289V64.1777Z" fill="black" />
		<path d="M48.978 64.1777H47.2891V65.8666H48.978V64.1777Z" fill="black" />
		<path d="M50.6669 64.1777H48.978V65.8666H50.6669V64.1777Z" fill="black" />
		<path d="M52.3559 64.1777H50.667V65.8666H52.3559V64.1777Z" fill="black" />
		<path d="M59.1113 64.1777H57.4224V65.8666H59.1113V64.1777Z" fill="black" />
		<path d="M65.8666 64.1777H64.1777V65.8666H65.8666V64.1777Z" fill="black" />
		<path d="M69.2446 64.1777H67.5557V65.8666H69.2446V64.1777Z" fill="black" />
		<path d="M23.6445 65.8667H21.9556V67.5556H23.6445V65.8667Z" fill="black" />
		<path d="M25.3329 65.8667H23.644V67.5556H25.3329V65.8667Z" fill="black" />
		<path d="M27.0219 65.8667H25.333V67.5556H27.0219V65.8667Z" fill="black" />
		<path d="M30.3998 65.8667H28.7109V67.5556H30.3998V65.8667Z" fill="black" />
		<path d="M32.0888 65.8667H30.3999V67.5556H32.0888V65.8667Z" fill="black" />
		<path d="M33.7778 65.8667H32.0889V67.5556H33.7778V65.8667Z" fill="black" />
		<path d="M37.1557 65.8667H35.4668V67.5556H37.1557V65.8667Z" fill="black" />
		<path d="M40.5331 65.8667H38.8442V67.5556H40.5331V65.8667Z" fill="black" />
		<path d="M42.2221 65.8667H40.5332V67.5556H42.2221V65.8667Z" fill="black" />
		<path d="M43.9111 65.8667H42.2222V67.5556H43.9111V65.8667Z" fill="black" />
		<path d="M45.6 65.8667H43.9111V67.5556H45.6V65.8667Z" fill="black" />
		<path d="M47.289 65.8667H45.6001V67.5556H47.289V65.8667Z" fill="black" />
		<path d="M54.0448 65.8667H52.356V67.5556H54.0448V65.8667Z" fill="black" />
		<path d="M59.1113 65.8667H57.4224V67.5556H59.1113V65.8667Z" fill="black" />
		<path d="M60.7997 65.8667H59.1108V67.5556H60.7997V65.8667Z" fill="black" />
		<path d="M62.4887 65.8667H60.7998V67.5556H62.4887V65.8667Z" fill="black" />
		<path d="M64.1777 65.8667H62.4888V67.5556H64.1777V65.8667Z" fill="black" />
		<path d="M67.5556 65.8667H65.8667V67.5556H67.5556V65.8667Z" fill="black" />
		<path d="M21.9555 67.5557H20.2666V69.2446H21.9555V67.5557Z" fill="black" />
		<path d="M23.6445 67.5557H21.9556V69.2446H23.6445V67.5557Z" fill="black" />
		<path d="M25.3329 67.5557H23.644V69.2446H25.3329V67.5557Z" fill="black" />
		<path d="M27.0219 67.5557H25.333V69.2446H27.0219V67.5557Z" fill="black" />
		<path d="M28.7109 67.5557H27.022V69.2446H28.7109V67.5557Z" fill="black" />
		<path d="M30.3998 67.5557H28.7109V69.2446H30.3998V67.5557Z" fill="black" />
		<path d="M32.0888 67.5557H30.3999V69.2446H32.0888V67.5557Z" fill="black" />
		<path d="M33.7778 67.5557H32.0889V69.2446H33.7778V67.5557Z" fill="black" />
		<path d="M35.4667 67.5557H33.7778V69.2446H35.4667V67.5557Z" fill="black" />
		<path d="M37.1557 67.5557H35.4668V69.2446H37.1557V67.5557Z" fill="black" />
		<path d="M40.5331 67.5557H38.8442V69.2446H40.5331V67.5557Z" fill="black" />
		<path d="M42.2221 67.5557H40.5332V69.2446H42.2221V67.5557Z" fill="black" />
		<path d="M57.4223 67.5557H55.7334V69.2446H57.4223V67.5557Z" fill="black" />
		<path d="M60.7997 67.5557H59.1108V69.2446H60.7997V67.5557Z" fill="black" />
		<path d="M67.5556 67.5557H65.8667V69.2446H67.5556V67.5557Z" fill="black" />
		<path d="M69.2446 67.5557H67.5557V69.2446H69.2446V67.5557Z" fill="black" />
		<path fill-rule="evenodd" clip-rule="evenodd" d="M6.75586 6.75537H18.5781V18.5776H6.75586V6.75537ZM8.44475 8.44426H16.8892V16.8887H8.44475V8.44426Z" fill="black" />
		<path fill-rule="evenodd" clip-rule="evenodd" d="M57.4224 6.75537H69.2446V18.5776H57.4224V6.75537ZM59.1113 8.44426H67.5557V16.8887H59.1113V8.44426Z" fill="black" />
		<path d="M15.2 10.1333H10.1333V15.2H15.2V10.1333Z" fill="black" />
		<path d="M65.8665 10.1333H60.7998V15.2H65.8665V10.1333Z" fill="black" />
		<path fill-rule="evenodd" clip-rule="evenodd" d="M6.75586 57.4224H18.5781V69.2446H6.75586V57.4224ZM8.44475 59.1113H16.8892V67.5557H8.44475V59.1113Z" fill="black" />
		<path d="M15.2 60.7998H10.1333V65.8665H15.2V60.7998Z" fill="black" />
	</g>
	<defs>
		<clipPath id="clip0_3817_14358">
			<rect width="76" height="76" fill="white" />
		</clipPath>
	</defs>
</svg>
