<svg width="300" height="144" viewBox="0 0 300 144" fill="none" xmlns="http://www.w3.org/2000/svg">
  <g clip-path="url(#clip0_3521_17430)">
    <rect width="300" height="144" rx="72" fill="#B980FF" />
    <path opacity="0.1" fill-rule="evenodd" clip-rule="evenodd"
      d="M-36.9371 -22.1106C-32.4495 -1.43957 -34.2089 14.9804 -35.2365 21.3656L-45.5105 73.5442C-53.3592 113.405 -27.4254 152.074 12.4111 159.918C52.2521 167.763 90.9111 141.812 98.7597 101.951L109.182 49.0185C110.833 42.2565 115.533 26.928 127.059 10.1806C142.548 -12.3232 133.16 -11.1259 124.87 -10.6563C116.583 -10.1944 97.4047 -5.76297 93.816 -16.5801C90.2286 -27.3923 87.3014 -36.7454 73.3696 -33.7659C59.4372 -30.7888 53.0217 -30.1456 51.1874 -30.5068L48.692 -30.9982C46.8599 -31.3589 41.1649 -34.3867 29.4022 -42.4231C17.64 -50.4619 11.3877 -42.9162 3.96581 -34.2718C-3.45368 -25.6222 -19.5191 -36.9932 -27.015 -40.5629C-34.5084 -44.1404 -42.7372 -48.8064 -36.9371 -22.1106Z"
      fill="#000C47" />
    <path opacity="0.1" fill-rule="evenodd" clip-rule="evenodd"
      d="M-100.884 9.33783C-88.9617 27.8108 -84.6717 44.4308 -83.3376 51.0194L-74.2621 105.545C-67.3291 147.199 -27.9604 175.346 13.6684 168.418C55.3018 161.488 83.432 122.106 76.4989 80.4522L67.2922 25.1379C66.4272 17.9548 65.3972 1.32208 70.49 -19.1863C77.3363 -46.7447 68.6393 -42.1483 60.7445 -38.6611C52.8494 -35.1824 35.8086 -23.8605 28.3628 -33.074C20.9201 -42.2832 14.6531 -50.314 2.18631 -42.3225C-10.282 -34.3331 -16.2893 -31.3623 -18.2061 -31.0433L-20.8138 -30.6093C-22.7284 -30.2906 -29.3763 -31.155 -43.7592 -34.6751C-58.1424 -38.1976 -61.4679 -28.5702 -65.5298 -17.4462C-69.5875 -6.318 -89.3757 -11.5099 -97.9743 -12.2434C-106.573 -12.9853 -116.285 -14.5176 -100.884 9.33783Z"
      fill="#000C47" />
    <path opacity="0.1" fill-rule="evenodd" clip-rule="evenodd"
      d="M-157.577 50.8564C-138.929 65.4077 -128.691 80.7762 -125.005 86.9983L-96.4959 139.187C-74.7171 179.055 -24.7613 193.726 15.0829 171.961C54.9315 150.193 69.5809 100.229 47.8021 60.3613L18.8809 7.41826C15.4611 0.426176 8.53091 -16.1085 6.45054 -38.7467C3.6578 -69.1682 -3.55246 -61.4217 -10.3401 -55.0859C-17.131 -48.7587 -30.4396 -31.2275 -41.2638 -37.9546C-52.0834 -44.6783 -61.2915 -50.6208 -71.1309 -38.0913C-80.9727 -25.5635 -86.0252 -20.4201 -87.8599 -19.4179L-90.3558 -18.0545C-92.1882 -17.0534 -99.2485 -15.58 -115.107 -14.0687C-130.966 -12.5596 -130.939 -1.60169 -131.131 11.1373C-131.317 23.879 -153.259 25.604 -162.255 27.9005C-171.254 30.1884 -181.663 32.0672 -157.577 50.8564Z"
      fill="#000C47" />
    <circle opacity="0.1" cx="298.818" cy="72.6522" r="81.8182" fill="#000C47" />
    <circle opacity="0.1" cx="298.6" cy="72.4332" r="19.6364" fill="#000C47" />
    <path opacity="0.2" fill-rule="evenodd" clip-rule="evenodd"
      d="M276.185 185.356C263.724 156.546 261.578 132.134 261.244 122.542V43.6245C261.244 -16.6627 212.398 -65.5312 152.147 -65.5312C91.8893 -65.5312 43.0416 -16.6627 43.0416 43.6245V123.683C42.5761 134.002 40.1277 157.668 28.1481 185.356C12.0465 222.563 25.3721 218.128 37.308 215.068C49.2423 212.019 75.8952 200.069 84.2216 214.79C92.5447 229.504 99.4881 242.283 118.919 233.951C138.351 225.622 147.507 222.846 150.282 222.846H154.056C156.827 222.846 165.987 225.622 185.417 233.951C204.848 242.283 211.788 229.504 220.116 214.79C228.439 200.069 255.09 212.019 267.028 215.068C278.964 218.128 292.283 222.563 276.185 185.356Z"
      fill="white" />
    <path
      d="M131.253 11.7832C104.019 11.7832 90.9345 14.1483 87.4322 19.7446C82.669 27.3728 82.0526 46.56 82.641 77.1063C82.7531 82.7692 82.7811 87.9324 82.8372 92.496C82.9773 110.617 83.0613 120.577 86.5076 126.673C90.178 133.202 97.2387 134.401 109.819 134.401C114.078 134.401 119.093 134.268 124.893 134.102C138.861 133.712 145.102 133.569 157.395 133.569C162.354 133.569 166.977 133.602 171.068 133.635C174.542 133.669 177.82 133.669 180.818 133.669C198.974 133.669 207.296 132.736 212.003 126.94C217.214 120.511 216.85 109.218 216.15 86.7332C216.038 83.502 215.954 80.071 215.842 76.3735C215.701 71.077 215.645 64.7812 215.589 58.6519C215.505 49.3248 215.421 40.4974 215.057 35.9338C214.973 35.0677 214.917 34.2349 214.833 33.4354C213.852 23.6753 211.723 18.4787 207.548 15.5474C203.345 12.5827 197.265 12.0164 187.515 12.0164C184.853 12.0164 181.855 12.0497 178.689 12.1163C174.766 12.1829 170.339 12.2496 165.436 12.2496C161.766 12.2496 158.319 12.2162 154.873 12.1496L154.06 12.1163C146.58 11.9498 138.79 11.7832 131.253 11.7832Z"
      fill="#000C47" />
    <path
      d="M133.07 12.874C140.538 12.874 148.258 13.0314 155.685 13.1885V13.1875L156.472 13.2188L156.483 13.2197H156.494C159.922 13.2827 163.349 13.3135 166.998 13.3135C171.874 13.3135 176.275 13.2513 180.17 13.1885H180.174C183.31 13.1258 186.279 13.0938 188.912 13.0938C198.651 13.0938 204.337 13.6579 208.189 16.2393L208.191 16.2402C211.907 18.7199 213.976 23.1822 214.942 32.3174V32.3223C215.027 33.0956 215.071 33.766 215.161 34.6494V34.6504C215.518 38.9027 215.603 47.1733 215.687 55.9932V55.9941C215.742 61.7709 215.797 67.7189 215.937 72.7256V72.7305C216.02 75.3381 216.088 77.8175 216.164 80.1807L216.243 82.5059C216.592 93.1323 216.851 101.023 216.388 107.019C215.925 113.012 214.748 116.907 212.388 119.674C210.271 122.15 207.307 123.656 202.55 124.532C197.76 125.415 191.284 125.638 182.266 125.638C179.29 125.638 176.041 125.638 172.598 125.606H172.597C168.536 125.575 163.943 125.543 159.017 125.543C146.802 125.543 140.596 125.679 126.729 126.046C120.97 126.203 116.007 126.329 111.797 126.329C105.557 126.329 100.816 126.043 97.2053 125.034C93.6521 124.042 91.249 122.367 89.5978 119.576L89.5969 119.573L89.3078 119.063C87.9075 116.458 87.1261 113.003 86.6935 108.171C86.2326 103.022 86.1763 96.4535 86.1066 87.8916V87.8857C86.065 84.6659 86.0391 81.1146 85.9816 77.2852L85.9123 73.3643C85.6203 58.9632 85.6284 47.2831 86.2951 38.3154C86.9664 29.2863 88.2959 23.2272 90.4885 19.8906L90.4875 19.8896C91.203 18.8039 92.4676 17.7886 94.4836 16.8877C96.4982 15.9875 99.1943 15.2331 102.676 14.6328C109.641 13.4319 119.57 12.874 133.07 12.874Z"
      fill="white" stroke="#000C47" stroke-width="2.18182" />
    <path d="M89.4375 31.8547L99.2557 15.0547" stroke="#000C47" stroke-width="2.18182" />
    <path d="M95.1104 31.8538L105.583 13.9629" stroke="#000C47" stroke-width="2.18182" />
    <path d="M101.655 31.8538L112.128 13.9629" stroke="#000C47" stroke-width="2.18182" />
    <path d="M108.201 31.8554L119.11 13.0918" stroke="#000C47" stroke-width="2.18182" />
    <path d="M122.164 31.8554L133.073 13.0918" stroke="#000C47" stroke-width="2.18182" />
    <path d="M128.71 31.8554L139.619 13.0918" stroke="#000C47" stroke-width="2.18182" />
    <path d="M142.674 31.8543L154.019 12.6543" stroke="#000C47" stroke-width="2.18182" />
    <path d="M114.746 31.8543L126.092 12.6543" stroke="#000C47" stroke-width="2.18182" />
    <path d="M135.256 31.8543L146.601 12.6543" stroke="#000C47" stroke-width="2.18182" />
    <path d="M149.219 31.8554L160.128 13.0918" stroke="#000C47" stroke-width="2.18182" />
    <path d="M156.638 31.8554L167.547 13.0918" stroke="#000C47" stroke-width="2.18182" />
    <path d="M164.056 31.8554L174.965 13.0918" stroke="#000C47" stroke-width="2.18182" />
    <path d="M171.037 31.8554L181.946 13.0918" stroke="#000C47" stroke-width="2.18182" />
    <path d="M178.02 31.8554L188.929 13.0918" stroke="#000C47" stroke-width="2.18182" />
    <path d="M185.001 31.8554L195.91 13.0918" stroke="#000C47" stroke-width="2.18182" />
    <path d="M191.982 31.8538L202.455 13.9629" stroke="#000C47" stroke-width="2.18182" />
    <path d="M198.965 31.8538L208.128 16.1992" stroke="#000C47" stroke-width="2.18182" />
    <path d="M205.946 31.8544L212.332 20.9453" stroke="#000C47" stroke-width="2.18182" />
    <path d="M212.928 31.8531L214.333 29.4531" stroke="#000C47" stroke-width="2.18182" />
    <rect x="97.7285" y="24.4355" width="12.2182" height="9.16364" fill="white" />
    <path
      d="M110.383 24.4371L115.183 22.4735L121.51 22.0371L128.056 22.4735L133.51 24.4371V33.6007H110.383V24.4371Z"
      fill="white" />
    <path
      d="M134.383 25.3098L137.001 22.4735L143.328 22.0371L149.874 22.4735L154.456 25.528L155.328 33.6007H132.201L134.383 25.3098Z"
      fill="white" />
    <path
      d="M103.984 22.4614C106.704 22.2142 108.27 22.5031 109.342 23.4097C110.825 24.6872 110.948 26.8301 111.195 30.1265C111.213 30.4034 111.233 30.6885 111.256 30.9819H109.033C109.01 30.7302 108.986 30.4867 108.97 30.2495C108.764 27.5299 108.682 25.7165 107.899 25.0571C107.363 24.6039 106.168 24.439 104.19 24.645C103.448 24.7274 102.748 24.769 102.171 24.769C99.0353 24.9828 98.4585 25.0118 98.6257 30.9819H96.4304C96.3113 24.021 97.2235 22.8672 102.047 22.5854C102.624 22.5442 103.284 22.5026 103.984 22.4614Z"
      fill="#000C47" />
    <path
      d="M122.445 21.4697C133.365 20.8928 134.189 23.1183 134.972 29.5879C135.028 30.03 135.083 30.4908 135.151 30.9824H132.884C132.834 30.595 132.79 30.2246 132.747 29.877C132.087 24.355 131.964 23.242 122.527 23.6953C121.126 23.7777 119.849 23.8193 118.736 23.8193C115.11 23.943 112.967 23.9836 112.06 25.0137C111.292 25.8777 111.097 27.8353 111.221 30.9824H108.973C108.831 27.1319 109.149 24.9197 110.412 23.5303C111.978 21.7995 114.492 21.7174 118.695 21.5938C119.808 21.5525 121.044 21.5109 122.445 21.4697Z"
      fill="#000C47" />
    <path
      d="M133.074 30.9839C133.076 30.0637 133.089 28.6868 133.158 27.3149C133.16 27.2912 133.161 27.2674 133.162 27.2437C133.194 26.6216 133.225 26.0058 133.38 25.4341C133.557 24.7829 133.876 24.2298 134.401 23.6587C134.913 23.101 135.414 22.7344 136.018 22.5034C136.549 22.3003 137.119 22.2231 137.673 22.1479C137.696 22.1449 137.719 22.1422 137.741 22.1392C139.08 21.957 140.842 21.8188 143.111 21.8188C144.455 21.8188 145.678 21.7895 146.771 21.7427L146.833 21.7397C148.398 21.6726 149.657 21.6187 150.645 21.6772C151.648 21.7367 152.553 21.9182 153.299 22.4624C154.034 22.9981 154.476 23.7598 154.83 24.6528C155.174 25.5194 155.484 26.6486 155.865 28.0376L156.674 30.9839H154.411L153.778 28.6772C153.375 27.2115 153.096 26.1986 152.802 25.4565C152.513 24.7284 152.266 24.4087 152.014 24.2251C151.774 24.05 151.376 23.906 150.516 23.855C149.653 23.8038 148.506 23.852 146.864 23.9224C145.742 23.9705 144.487 24.0015 143.111 24.0015C140.93 24.0015 139.267 24.1337 138.035 24.3013C137.389 24.3892 137.068 24.4381 136.797 24.5415C136.577 24.6255 136.347 24.7648 136.007 25.1343C135.68 25.4901 135.557 25.742 135.486 26.0044C135.399 26.3248 135.375 26.7074 135.338 27.4253C135.271 28.7527 135.258 30.0842 135.256 30.9839H133.074ZM133.074 32.0737L133.073 31.9575C133.072 31.7944 133.074 31.4876 133.074 31.0815V32.0737Z"
      fill="#000C47" />
    <path d="M139.615 27.4552L148.788 27.524" stroke="#000C47" stroke-width="2.18182"
      stroke-linecap="round" />
    <path
      d="M127.801 26.373C124.092 26.4143 120.383 26.4967 116.633 26.5379C115.191 26.5379 115.191 28.8044 116.633 28.7632C120.342 28.722 124.051 28.6395 127.801 28.5983C129.202 28.5983 129.202 26.373 127.801 26.373Z"
      fill="#000C47" />
    <path
      d="M105.466 26.333C104.271 26.4154 103.035 26.4978 101.84 26.5803C100.397 26.6627 100.397 28.9292 101.84 28.8055C103.035 28.7231 104.271 28.6407 105.466 28.5583C106.867 28.4759 106.908 26.2094 105.466 26.333Z"
      fill="#000C47" />
    <path d="M85.9463 31.8555H214.237" stroke="#000C47" stroke-width="2.18182" />
    <path
      d="M204.925 79.747C203.842 91.6864 196.314 89.8596 153.909 89.6965C152.176 89.6965 150.443 89.6965 148.602 89.6965C143.349 89.6965 138.637 89.7291 134.359 89.7617C108.418 89.9248 99.9694 90.0227 97.0991 82.2262C95.7993 78.7031 95.691 73.5815 95.5827 66.1765C95.4202 53.5846 95.3661 43.8634 105.277 41.4821C113.454 39.4922 141.183 40.3403 163.224 40.2425C197.939 40.0794 201.838 39.9815 203.246 50.0615C203.679 53.1932 204.871 61.6095 204.925 67.1551C205.033 72.4724 205.196 76.5827 204.925 79.747Z"
      fill="#00AEF0" stroke="#000C47" stroke-width="2.1225" />
    <g clip-path="url(#clip1_3521_17430)">
      <path
        d="M150.528 82.4735C160.168 82.4735 167.982 74.6589 167.982 65.019C167.982 55.3791 160.168 47.5645 150.528 47.5645C140.888 47.5645 133.073 55.3791 133.073 65.019C133.073 74.6589 140.888 82.4735 150.528 82.4735Z"
        fill="white" />
      <path
        d="M150.463 51.0117C152.392 51.0117 154.242 51.7779 155.605 53.1416C156.969 54.5054 157.736 56.3554 157.736 58.2842V61.3018C158.581 61.5821 159.19 62.3784 159.19 63.3174V72.1602C159.19 73.333 158.24 74.2841 157.067 74.2842H143.86C142.687 74.2842 141.736 73.333 141.736 72.1602V63.3174C141.736 62.3787 142.346 61.5833 143.19 61.3027V58.2842C143.191 56.3554 143.956 54.5054 145.32 53.1416C146.684 51.7778 148.534 51.0118 150.463 51.0117ZM150.463 53.9209C149.306 53.921 148.196 54.3809 147.378 55.1992C146.56 56.0175 146.1 57.127 146.1 58.2842V61.1934H154.827V58.2842C154.827 57.1271 154.367 56.0175 153.549 55.1992C152.73 54.3809 151.62 53.9209 150.463 53.9209Z"
        fill="#000C47" />
      <path
        d="M150.717 65.5566C151.228 65.6189 151.697 65.8669 152.037 66.2529C152.376 66.6389 152.562 67.1365 152.558 67.6504C152.559 68.0637 152.437 68.4668 152.208 68.8076C152.178 68.8566 152.146 68.9047 152.112 68.9512C151.952 69.1559 151.867 69.4093 151.87 69.6689V69.9785C151.87 70.3488 151.722 70.704 151.461 70.9658C151.199 71.2277 150.844 71.375 150.473 71.375C150.425 71.375 150.377 71.3721 150.33 71.3672C150.192 71.3539 150.057 71.3206 149.929 71.2676C149.76 71.1974 149.606 71.0945 149.476 70.9648C149.347 70.8352 149.244 70.6811 149.173 70.5117C149.103 70.3424 149.067 70.1608 149.067 69.9775V69.667C149.073 69.4113 148.991 69.1613 148.835 68.959C148.63 68.7092 148.487 68.4153 148.417 68.1006C148.346 67.7858 148.35 67.4586 148.427 67.1455C148.548 66.6458 148.848 66.208 149.27 65.915C149.692 65.6221 150.207 65.4944 150.717 65.5566Z"
        fill="white" />
      <path opacity="0.2" d="M141.737 73.2656H159.191L163.555 82.8656H137.373L141.737 73.2656Z"
        fill="#000C47" />
    </g>
    <path
      d="M206.312 112.411C205.988 116.705 203.739 116.048 191.068 115.989C190.55 115.989 190.032 115.989 189.482 115.989C187.913 115.989 186.505 116.001 185.226 116.013C177.475 116.071 174.951 116.107 174.093 113.303C173.705 112.036 173.672 110.194 173.64 107.53C173.591 103.002 173.575 99.5055 176.536 98.649C178.98 97.9333 187.265 98.2384 193.851 98.2032C204.224 98.1445 205.389 98.1093 205.81 101.735C205.94 102.861 206.296 105.888 206.312 107.882C206.344 109.795 206.393 111.273 206.312 112.411Z"
      fill="#F1D801" stroke="#000C47" stroke-width="2.1225" />
    <path
      d="M166.602 112.411C166.278 116.705 164.029 116.048 151.358 115.989C150.84 115.989 150.323 115.989 149.772 115.989C148.203 115.989 146.795 116.001 145.516 116.013C137.765 116.071 135.241 116.107 134.383 113.303C133.995 112.036 133.962 110.194 133.93 107.53C133.881 103.002 133.865 99.5055 136.827 98.649C139.27 97.9333 147.555 98.2384 154.142 98.2032C164.514 98.1445 165.68 98.1093 166.1 101.735C166.23 102.861 166.586 105.888 166.602 107.882C166.634 109.795 166.683 111.273 166.602 112.411Z"
      fill="#B980FF" stroke="#000C47" stroke-width="2.1225" />
    <path
      d="M127.357 112.411C127.033 116.705 124.784 116.048 112.113 115.989C111.595 115.989 111.077 115.989 110.527 115.989C108.958 115.989 107.55 116.001 106.271 116.013C98.52 116.071 95.9956 116.107 95.1379 113.303C94.7495 112.036 94.7172 110.194 94.6848 107.53C94.6363 103.002 94.6201 99.5055 97.5814 98.649C100.025 97.9333 108.31 98.2384 114.896 98.2032C125.269 98.1445 126.434 98.1093 126.855 101.735C126.985 102.861 127.341 105.888 127.357 107.882C127.389 109.795 127.438 111.273 127.357 112.411Z"
      fill="#FF375B" stroke="#000C47" stroke-width="2.1225" />
    <path d="M96.418 120.859H113.532H126.963" stroke="#000C47" stroke-width="2.61818"
      stroke-linecap="round" />
    <path d="M96.418 130.459L109.376 130.214L119.545 130.023" stroke="#000C47"
      stroke-width="2.61818" stroke-linecap="round" />
    <path d="M96.6084 124.787H109.077L118.863 125.223" stroke="#000C47" stroke-width="2.61818"
      stroke-linecap="round" />
    <path d="M136.129 120.859H151.287H163.183" stroke="#000C47" stroke-width="2.61818"
      stroke-linecap="round" />
    <path d="M136.129 130.459H142.241H147.038" stroke="#000C47" stroke-width="2.61818"
      stroke-linecap="round" />
    <path d="M136.318 124.787H151.721L163.809 125.223" stroke="#000C47" stroke-width="2.61818"
      stroke-linecap="round" />
    <path d="M174.528 120.859H187.486H197.656" stroke="#000C47" stroke-width="2.61818"
      stroke-linecap="round" />
    <path d="M173.219 130.459L187.888 130.214L199.401 130.023" stroke="#000C47"
      stroke-width="2.61818" stroke-linecap="round" />
    <path d="M174.529 124.787H189.199L200.711 125.223" stroke="#000C47" stroke-width="2.61818"
      stroke-linecap="round" />
    <path
      d="M201.672 105.795C202.054 105.7 202.512 105.648 203.01 105.623C204.012 105.574 205.318 105.627 206.801 105.752C209.776 106.002 213.579 106.551 217.333 107.215C221.087 107.879 224.817 108.665 227.645 109.396C229.056 109.76 230.265 110.115 231.146 110.442C231.583 110.604 231.972 110.77 232.273 110.94C232.422 111.024 232.58 111.125 232.717 111.247C232.838 111.355 233.041 111.564 233.126 111.88C233.188 112.112 233.168 112.325 233.142 112.469C233.115 112.621 233.069 112.768 233.018 112.898C232.916 113.158 232.765 113.444 232.589 113.738C232.234 114.331 231.712 115.067 231.08 115.89C229.962 117.346 228.45 119.138 226.778 121.012C226.886 121.092 226.995 121.174 227.106 121.255L228.354 122.142L228.361 122.147C229.545 122.992 230.442 123.676 231.081 124.261C231.702 124.829 232.188 125.398 232.393 126.033C232.626 126.755 232.448 127.388 232.139 127.925C231.863 128.404 231.425 128.901 231.003 129.394C230.666 129.804 230.252 130.157 229.713 130.31C229.165 130.466 228.635 130.375 228.156 130.192C227.69 130.013 227.202 129.72 226.691 129.376C226.175 129.028 225.578 128.588 224.896 128.088L224.89 128.083L224.885 128.08C224.147 127.521 223.228 126.913 222.11 126.149C220.207 128.148 218.342 130 216.813 131.377C215.977 132.129 215.222 132.757 214.608 133.191C214.303 133.406 214.006 133.593 213.734 133.722C213.597 133.787 213.445 133.848 213.286 133.887C213.134 133.924 212.914 133.959 212.672 133.909C212.428 133.859 212.234 133.742 212.105 133.65C211.966 133.552 211.836 133.433 211.718 133.313C211.483 133.073 211.231 132.759 210.973 132.403C210.452 131.685 209.838 130.701 209.177 129.552C207.852 127.248 206.296 124.204 204.858 121.108C203.421 118.014 202.091 114.843 201.224 112.287C200.792 111.014 200.464 109.863 200.301 108.936C200.221 108.475 200.174 108.035 200.188 107.648C200.2 107.288 200.266 106.828 200.544 106.453L200.546 106.452C200.851 106.041 201.342 105.877 201.672 105.795Z"
      fill="white" stroke="#000C47" stroke-width="1.88399" stroke-linecap="round" />
    <path
      d="M269.447 54.6914C272.043 54.7606 274.223 55.349 276.092 56.7333C278.861 58.7406 280.245 61.4747 280.072 64.9356C280.003 66.2507 279.449 67.3928 278.584 68.3619C277.096 70.0577 275.158 70.8883 272.908 71.1652C272.7 71.1998 272.527 71.1998 272.32 71.1652C270.07 70.7845 267.855 70.3692 265.848 69.2271C263.252 67.6697 261.902 65.3509 261.937 62.3053C262.006 58.8098 264.74 55.522 268.063 54.8298C268.616 54.726 269.17 54.726 269.447 54.6914ZM269.689 58.4638C269.205 58.5676 268.686 58.6022 268.236 58.7752C266.125 59.6405 265.156 62.4438 266.298 64.4165C266.678 65.1086 267.267 65.6278 267.959 65.9739C269.274 66.6314 270.693 67.0467 272.147 67.1852C272.839 67.2544 273.6 67.116 274.258 66.8391C275.85 66.2161 276.507 65.0048 276.161 63.4128C275.85 61.9592 275.123 60.7133 273.877 59.8481C272.666 59.0175 271.247 58.6022 269.689 58.4638Z"
      fill="#000C47" />
    <path
      d="M272.98 46.3848C274.399 46.5232 275.852 46.5578 277.271 46.7655C280.559 47.2846 283.224 48.9804 285.231 51.6107C287.862 55.0023 289.281 58.8785 289.419 63.2046C289.488 64.8658 289.142 66.4578 288.485 67.9806C287.862 69.3996 287.1 70.7493 286.097 71.9606C282.74 75.9753 278.656 78.8132 273.361 79.54C269.796 80.0245 266.266 79.8168 262.909 78.5709C260.59 77.6711 258.479 76.3906 256.61 74.764C255.987 74.2102 255.468 73.4834 255.018 72.7566C253.807 70.7147 253.08 68.4652 252.422 66.2156C252.215 65.5234 252.249 64.7274 252.249 64.0006C252.249 59.3631 253.91 55.4177 257.371 52.2683C261.317 48.7036 265.92 46.6616 271.319 46.4886C271.872 46.4886 272.426 46.4886 272.98 46.4886C272.98 46.454 272.98 46.4194 272.98 46.3848ZM272.911 50.2609C268.377 50.1225 264.362 51.5415 260.832 54.3448C259.379 55.5215 258.133 56.8712 257.302 58.6017C255.399 62.5817 255.779 66.4232 257.994 70.161C258.34 70.7493 258.86 71.2339 259.413 71.6492C260.313 72.3413 261.248 72.9643 262.217 73.5526C264.812 75.1446 267.581 76.0445 270.696 75.906C276.718 75.6292 281.113 72.7566 284.262 67.8076C284.643 67.2192 284.92 66.5963 285.128 65.9387C285.37 65.2119 285.543 64.4159 285.577 63.6891C285.577 59.9168 284.332 56.5597 281.978 53.6872C280.455 51.853 278.483 50.7455 276.06 50.5032C275.022 50.3648 273.949 50.3302 272.911 50.2609Z"
      fill="#000C47" />
    <path
      d="M267.82 87.6048C264.948 87.6048 262.56 87.2241 260.276 86.2896C258.787 85.6667 257.438 84.8014 256.261 83.6594C254.669 82.102 253.008 80.5446 251.381 79.0218C251.243 78.8834 251.07 78.7795 250.931 78.6411C250.378 78.122 249.72 77.6374 249.27 77.0145C246.951 73.8651 245.186 70.4388 244.736 66.4588C244.356 63.1018 244.909 59.8831 246.19 56.803C247.194 54.3457 248.474 52.0616 250.17 50.0543C251.9 48.0123 253.873 46.3511 256.226 45.0706C259.03 43.617 261.868 42.2327 264.844 41.1252C269.101 39.5678 273.531 38.9448 278.065 39.1179C279.726 39.1871 281.318 39.5678 282.771 40.3638C284.502 41.2982 286.232 42.2673 287.824 43.3748C291.181 45.6589 293.223 48.9814 294.538 52.7191C296.407 58.0489 296.615 63.5171 295.127 68.9852C294.815 70.1273 294.4 71.2694 293.881 72.3077C291.458 77.0837 288.032 80.9253 283.187 83.4171C278.203 85.9781 272.977 87.3625 267.82 87.6048ZM267.751 83.7632C272.493 83.4863 277.234 82.2058 281.698 79.887C285.332 77.9835 287.928 75.0764 289.935 71.5809C290.524 70.5426 291.043 69.4006 291.354 68.2239C292.704 63.3094 292.531 58.395 290.731 53.619C289.658 50.781 288.101 48.2546 285.505 46.4895C284.121 45.5551 282.633 44.7245 281.145 43.8939C280.003 43.2709 278.757 42.9941 277.476 42.9595C273.496 42.8902 269.585 43.444 265.848 44.8629C263.217 45.8666 260.656 47.1125 258.165 48.4276C256.226 49.4659 254.6 50.8156 253.181 52.4769C251.762 54.1381 250.724 56.007 249.858 58.0143C248.543 61.0598 248.093 64.1746 248.786 67.4279C249.097 68.8814 249.512 70.2312 250.689 71.304C251.243 71.8232 251.658 72.5153 252.073 73.1383C252.454 73.692 252.8 74.2458 253.112 74.8341C253.631 75.734 254.288 76.4953 255.05 77.1875C256.261 78.295 257.507 79.4371 258.649 80.6138C259.86 81.8251 261.279 82.6211 262.871 83.1056C264.394 83.5901 265.917 83.7632 267.751 83.7632Z"
      fill="#000C47" />
    <path
      d="M258.472 24.6924C259.162 24.6023 259.703 24.8728 260.063 25.4434C260.214 25.6835 260.333 25.9538 260.363 26.2539C260.543 27.1847 260.664 28.1759 260.784 29.1367C260.754 30.2477 260.544 31.2989 260.033 32.2598C259.733 32.8303 259.462 32.8908 259.042 32.4404C258.622 31.96 258.231 31.4192 257.991 30.8486C257.691 30.1581 257.571 29.4374 257.421 28.7168C257.301 28.1162 257.21 27.4851 257.15 26.8545C257.12 26.5244 257.121 26.1644 257.181 25.8643C257.331 25.2037 257.811 24.7825 258.472 24.6924ZM265.438 20.7871C266.488 20.8472 267.45 21.1174 268.381 21.5078C268.861 21.7179 268.921 21.9281 268.501 22.2881C268.051 22.7085 267.54 23.0991 266.999 23.3994C265.948 24.03 264.777 24.3303 263.576 24.3604C262.855 24.3904 262.315 24.0298 262.045 23.3691C261.805 22.7686 261.864 22.1679 262.345 21.6875C262.615 21.4173 262.975 21.2072 263.306 21.1172C263.996 20.9971 264.717 20.9072 265.438 20.7871ZM254.688 20.0371C255.378 20.0371 256.07 20.127 256.7 20.4873C257.451 20.9377 257.541 21.4184 256.91 22.0488C256.58 22.4092 256.129 22.7095 255.679 22.8896C254.298 23.4601 252.796 23.6106 251.325 23.6406C251.205 23.6406 251.085 23.6101 250.965 23.5801C250.124 23.3699 249.553 22.6798 249.583 21.8691C249.613 21.0585 250.214 20.4271 251.114 20.3369C252.225 20.2168 253.307 20.1272 254.418 20.0371H254.688ZM259.522 11.1787C259.943 10.7586 260.303 10.8488 260.663 11.3291C261.113 11.9896 261.354 12.7401 261.414 13.5508C261.444 14.2715 261.414 14.9627 261.444 15.6533V17.0947C261.444 17.3348 261.444 17.5753 261.414 17.8154C261.324 18.656 260.723 19.2564 259.942 19.3164C259.132 19.3763 258.352 18.8659 258.231 17.9951C257.961 16.1635 257.961 14.3018 258.621 12.5303C258.801 12.0198 259.162 11.5691 259.522 11.1787Z"
      fill="#000C47" />
    <g filter="url(#filter0_d_3521_17430)">
      <path
        d="M239 74.0043C239 68.4509 239 65.6743 240.728 63.807C242.457 61.9398 245.159 61.7309 250.564 61.3129C255.141 60.959 260.299 60.6543 264.49 60.6543C268.682 60.6543 273.84 60.959 278.417 61.3129C283.821 61.7309 286.524 61.9398 288.252 63.807C289.981 65.6743 289.981 68.4509 289.981 74.0043V93.816C289.981 99.4731 289.981 102.302 288.219 104.176C286.458 106.051 283.69 106.223 278.154 106.568C273.637 106.85 268.592 107.089 264.49 107.089C260.389 107.089 255.344 106.85 250.827 106.568C245.291 106.223 242.523 106.051 240.762 104.176C239 102.302 239 99.4731 239 93.816V74.0043Z"
        fill="white" />
      <path
        d="M264.49 61.3037C268.656 61.3037 273.794 61.6064 278.366 61.96C281.087 62.1703 283.062 62.3249 284.576 62.6514C286.068 62.973 287.034 63.447 287.775 64.248C288.515 65.047 288.915 66.0611 289.121 67.6094C289.33 69.1782 289.331 71.2097 289.331 74.0039V93.8164C289.331 96.6624 289.33 98.7326 289.117 100.328C288.907 101.903 288.499 102.93 287.746 103.731C286.991 104.535 286.004 105.004 284.475 105.31C282.924 105.619 280.899 105.746 278.113 105.92C273.601 106.201 268.571 106.439 264.49 106.439C260.409 106.439 255.38 106.201 250.867 105.92C248.081 105.746 246.057 105.619 244.506 105.31C242.977 105.004 241.989 104.535 241.234 103.731C240.481 102.93 240.075 101.903 239.864 100.328C239.651 98.7326 239.649 96.6625 239.649 93.8164V74.0039C239.649 71.2097 239.65 69.1782 239.859 67.6094C240.066 66.0611 240.466 65.047 241.205 64.248C241.947 63.4469 242.913 62.973 244.404 62.6514C245.918 62.3249 247.894 62.1703 250.614 61.96C255.186 61.6064 260.324 61.3037 264.49 61.3037Z"
        stroke="#000C47" stroke-width="1.29887" />
    </g>
    <path
      d="M244.645 65.4556C242.325 65.351 242.429 68.6194 244.514 68.6978C246.599 68.8024 246.808 65.5602 244.645 65.4556Z"
      fill="#F1D801" />
    <path
      d="M248.871 65.4556C246.545 65.351 246.649 68.6194 248.74 68.6978C250.805 68.8024 251.04 65.5602 248.871 65.4556Z"
      fill="#F1D801" />
    <path
      d="M253.087 65.4556C250.768 65.351 250.872 68.6194 252.957 68.6978C255.042 68.8024 255.25 65.5602 253.087 65.4556Z"
      fill="#F1D801" />
    <path d="M239.324 72.3438H289.006" stroke="#000C47" stroke-width="1.62359" />
    <path
      d="M263.896 105.116C272.558 105.116 279.581 98.0936 279.581 89.431C279.581 80.7685 272.558 73.7461 263.896 73.7461C255.233 73.7461 248.211 80.7685 248.211 89.431C248.211 98.0936 255.233 105.116 263.896 105.116Z"
      fill="#F1D801" />
    <path opacity="0.2"
      d="M275.222 89.4395H252.605V100.294C254.066 101.821 255.82 103.036 257.763 103.866C259.706 104.697 261.797 105.125 263.909 105.125C266.022 105.125 268.113 104.697 270.056 103.866C271.998 103.036 273.753 101.821 275.213 100.294L275.222 89.4395Z"
      fill="#000C47" />
    <path
      d="M263.887 82.2911C261.524 82.2952 259.209 82.969 257.213 84.2343C255.216 85.4996 253.619 87.3046 252.605 89.4404C253.617 91.5846 255.217 93.3971 257.219 94.6665C259.221 95.936 261.543 96.61 263.914 96.61C266.284 96.61 268.606 95.936 270.608 94.6665C272.611 93.3971 274.211 91.5846 275.222 89.4404C274.205 87.2966 272.599 85.4862 270.593 84.2203C268.586 82.9544 266.26 82.2853 263.887 82.2911Z"
      fill="#000C47" />
    <path
      d="M263.895 93.199C265.976 93.199 267.662 91.5127 267.662 89.4325C267.662 87.3523 265.976 85.666 263.895 85.666C261.815 85.666 260.129 87.3523 260.129 89.4325C260.129 91.5127 261.815 93.199 263.895 93.199Z"
      fill="white" />
    <path
      d="M263.896 91.1596C264.85 91.1596 265.623 90.3867 265.623 89.4333C265.623 88.4799 264.85 87.707 263.896 87.707C262.943 87.707 262.17 88.4799 262.17 89.4333C262.17 90.3867 262.943 91.1596 263.896 91.1596Z"
      fill="#000C47" />
    <path
      d="M262.762 89.2924C263.316 89.2924 263.765 88.8435 263.765 88.2898C263.765 87.736 263.316 87.2871 262.762 87.2871C262.209 87.2871 261.76 87.736 261.76 88.2898C261.76 88.8435 262.209 89.2924 262.762 89.2924Z"
      fill="white" />
    <path
      d="M186.182 66C186.182 69.2133 188.787 71.8182 192 71.8182C195.213 71.8182 197.818 69.2133 197.818 66C197.818 62.7867 195.213 60.1818 192 60.1818C188.787 60.1818 186.182 62.7867 186.182 66ZM230.478 67.0225L229.706 67.7939V67.7939L230.478 67.0225ZM232.804 88.2301L233.487 87.3798L232.804 88.2301ZM232.27 87.696L233.12 87.0126L233.12 87.0126L232.27 87.696ZM231.5 82.5H232.591V72.9818H231.5H230.409V82.5H231.5ZM224.518 66V64.9091H192V66V67.0909H224.518V66ZM231.5 72.9818H232.591C232.591 71.367 232.593 70.0462 232.453 69.006C232.309 67.9344 231.997 66.9988 231.249 66.2511L230.478 67.0225L229.706 67.7939C229.981 68.0686 230.179 68.467 230.291 69.2967C230.407 70.1577 230.409 71.3053 230.409 72.9818H231.5ZM224.518 66V67.0909C226.195 67.0909 227.342 67.0932 228.203 67.209C229.033 67.3205 229.431 67.5191 229.706 67.7939L230.478 67.0225L231.249 66.2511C230.501 65.5034 229.566 65.1907 228.494 65.0466C227.454 64.9068 226.133 64.9091 224.518 64.9091V66ZM238 89V87.9091C236.561 87.9091 235.576 87.9074 234.828 87.8202C234.103 87.7357 233.741 87.5838 233.487 87.3798L232.804 88.2301L232.121 89.0804C232.825 89.6463 233.648 89.8793 234.575 89.9873C235.479 90.0926 236.614 90.0909 238 90.0909V89ZM231.5 82.5H230.409C230.409 83.8864 230.407 85.0207 230.513 85.9245C230.621 86.8518 230.854 87.6753 231.42 88.3794L232.27 87.696L233.12 87.0126C232.916 86.7587 232.764 86.3969 232.68 85.6721C232.593 84.9238 232.591 83.939 232.591 82.5H231.5ZM232.804 88.2301L233.487 87.3798C233.352 87.271 233.229 87.1479 233.12 87.0126L232.27 87.696L231.42 88.3794C231.627 88.6377 231.862 88.8728 232.121 89.0804L232.804 88.2301Z"
      fill="#000C47" />
    <path
      d="M125.818 107C125.818 103.787 123.213 101.182 120 101.182C116.787 101.182 114.182 103.787 114.182 107C114.182 110.213 116.787 112.818 120 112.818C123.213 112.818 125.818 110.213 125.818 107ZM106.32 88.0225L107.092 87.2511H107.092L106.32 88.0225ZM100 87V88.0909H100.361V87V85.9091H100V87ZM107.343 93.9818H106.252V100.018H107.343H108.434V93.9818H107.343ZM114.324 107V108.091H120V107V105.909H114.324V107ZM107.343 100.018H106.252C106.252 101.633 106.249 102.954 106.389 103.994C106.533 105.066 106.846 106.001 107.594 106.749L108.365 105.978L109.137 105.206C108.862 104.931 108.663 104.533 108.552 103.703C108.436 102.842 108.434 101.695 108.434 100.018H107.343ZM114.324 107V105.909C112.648 105.909 111.5 105.907 110.639 105.791C109.81 105.679 109.411 105.481 109.137 105.206L108.365 105.978L107.594 106.749C108.341 107.497 109.277 107.809 110.349 107.953C111.389 108.093 112.71 108.091 114.324 108.091V107ZM100.361 87V88.0909C102.037 88.0909 103.185 88.0932 104.046 88.209C104.876 88.3205 105.274 88.5191 105.549 88.7939L106.32 88.0225L107.092 87.2511C106.344 86.5034 105.408 86.1907 104.337 86.0466C103.296 85.9068 101.976 85.9091 100.361 85.9091V87ZM107.343 93.9818H108.434C108.434 92.367 108.436 91.0462 108.296 90.006C108.152 88.9344 107.839 87.9988 107.092 87.2511L106.32 88.0225L105.549 88.7939C105.824 89.0686 106.022 89.467 106.134 90.2967C106.249 91.1577 106.252 92.3053 106.252 93.9818H107.343Z"
      fill="#000C47" />
    <path
      d="M151.109 106.908C151.109 103.695 148.504 101.09 145.291 101.09C142.078 101.09 139.473 103.695 139.473 106.908C139.473 110.121 142.078 112.726 145.291 112.726C148.504 112.726 151.109 110.121 151.109 106.908ZM131.041 105.886L130.269 106.657L130.269 106.657L131.041 105.886ZM128.996 50.767L129.767 49.9956H129.767L128.996 50.767ZM65.4365 49.7446V50.8355H123.036V49.7446V48.6537H65.4365V49.7446ZM130.018 56.7264H128.927V99.9264H130.018H131.109V56.7264H130.018ZM137 106.908V107.999H145.291V106.908V105.817H137V106.908ZM130.018 99.9264H128.927C128.927 101.541 128.925 102.862 129.065 103.902C129.209 104.974 129.522 105.909 130.269 106.657L131.041 105.886L131.812 105.114C131.537 104.84 131.339 104.441 131.227 103.612C131.112 102.75 131.109 101.603 131.109 99.9264H130.018ZM137 106.908V105.817C135.324 105.817 134.176 105.815 133.315 105.699C132.485 105.588 132.087 105.389 131.812 105.114L131.041 105.886L130.269 106.657C131.017 107.405 131.953 107.718 133.024 107.862C134.064 108.001 135.385 107.999 137 107.999V106.908ZM123.036 49.7446V50.8355C124.713 50.8355 125.861 50.8378 126.722 50.9536C127.551 51.0651 127.95 51.2637 128.224 51.5384L128.996 50.767L129.767 49.9956C129.02 49.2479 128.084 48.9353 127.012 48.7912C125.972 48.6513 124.651 48.6537 123.036 48.6537V49.7446ZM130.018 56.7264H131.109C131.109 55.1116 131.112 53.7908 130.972 52.7505C130.828 51.679 130.515 50.7433 129.767 49.9956L128.996 50.767L128.224 51.5384C128.499 51.8132 128.698 52.2116 128.809 53.0413C128.925 53.9023 128.927 55.0499 128.927 56.7264H130.018Z"
      fill="#000C47" />
    <path
      d="M138.163 29.8906C138.163 33.1039 140.768 35.7088 143.981 35.7088C147.195 35.7088 149.8 33.1039 149.8 29.8906C149.8 26.6773 147.195 24.0724 143.981 24.0724C140.768 24.0724 138.163 26.6773 138.163 29.8906ZM145.004 36.0682L145.775 35.2968L145.775 35.2968L145.004 36.0682ZM232.333 34.4201L233.393 34.6765V34.6765L232.333 34.4201ZM229.76 36.9929L230.017 38.0532V38.0532L229.76 36.9929ZM235.101 28.0978L234.845 27.0374V27.0374L235.101 28.0978ZM232.529 30.6705L231.468 30.4142V30.4142L232.529 30.6705ZM279.691 28V26.9091H236.976V28V29.0909H279.691V28ZM227.886 37.0906V35.9997H150.963V37.0906V38.1815H227.886V37.0906ZM143.981 30.1088H145.072V29.8906H143.981H142.891V30.1088H143.981ZM150.963 37.0906V35.9997C149.287 35.9997 148.139 35.9974 147.278 35.8816C146.448 35.7701 146.05 35.5715 145.775 35.2968L145.004 36.0682L144.233 36.8396C144.98 37.5873 145.916 37.8999 146.987 38.044C148.028 38.1839 149.348 38.1815 150.963 38.1815V37.0906ZM143.981 30.1088H142.891C142.891 31.7236 142.888 33.0444 143.028 34.0846C143.172 35.1562 143.485 36.0918 144.233 36.8396L145.004 36.0682L145.775 35.2968C145.501 35.022 145.302 34.6236 145.19 33.7939C145.075 32.9329 145.072 31.7853 145.072 30.1088H143.981ZM232.431 32.5453H231.34C231.34 33.589 231.332 33.9176 231.273 34.1637L232.333 34.4201L233.393 34.6765C233.529 34.1139 233.522 33.4621 233.522 32.5453H232.431ZM227.886 37.0906V38.1815C228.802 38.1815 229.454 38.1892 230.017 38.0532L229.76 36.9929L229.504 35.9325C229.258 35.992 228.929 35.9997 227.886 35.9997V37.0906ZM232.333 34.4201L231.273 34.1637C231.061 35.0383 230.378 35.7211 229.504 35.9325L229.76 36.9929L230.017 38.0532C231.686 37.6496 232.99 36.346 233.393 34.6765L232.333 34.4201ZM236.976 28V26.9091C236.059 26.9091 235.408 26.9014 234.845 27.0374L235.101 28.0978L235.358 29.1581C235.604 29.0986 235.932 29.0909 236.976 29.0909V28ZM232.431 32.5453H233.522C233.522 31.5016 233.529 31.173 233.589 30.9269L232.529 30.6705L231.468 30.4142C231.332 30.9767 231.34 31.6285 231.34 32.5453H232.431ZM235.101 28.0978L234.845 27.0374C233.175 27.4411 231.872 28.7446 231.468 30.4142L232.529 30.6705L233.589 30.9269C233.8 30.0524 234.483 29.3696 235.358 29.1581L235.101 28.0978Z"
      fill="#000C47" />
    <g filter="url(#filter1_d_3521_17430)">
      <path
        d="M49 75.35C49 69.7966 49 67.02 50.7284 65.1527C52.4568 63.2855 55.1592 63.0766 60.564 62.6586C65.141 62.3047 70.2988 62 74.4903 62C78.6818 62 83.8397 62.3047 88.4166 62.6586C93.8214 63.0766 96.5238 63.2855 98.2522 65.1527C99.9806 67.02 99.9806 69.7966 99.9806 75.35V95.1617C99.9806 100.819 99.9806 103.647 98.2191 105.522C96.4576 107.397 93.6896 107.569 88.1536 107.914C83.6371 108.195 78.5919 108.435 74.4903 108.435C70.3888 108.435 65.3435 108.195 60.827 107.914C55.291 107.569 52.5231 107.397 50.7615 105.522C49 103.647 49 100.819 49 95.1617V75.35Z"
        fill="white" />
      <path
        d="M74.4902 62.6494C78.6562 62.6494 83.7942 62.9521 88.3662 63.3057C91.0867 63.516 93.062 63.6706 94.5762 63.9971C96.0679 64.3187 97.0338 64.7927 97.7754 65.5938C98.5149 66.3927 98.9148 67.4068 99.1211 68.9551C99.3301 70.5239 99.3311 72.5554 99.3311 75.3496V95.1621C99.3311 98.0081 99.3302 100.078 99.1172 101.674C98.9068 103.249 98.4991 104.276 97.7461 105.077C96.9912 105.881 96.0038 106.35 94.4746 106.655C92.9237 106.965 90.8994 107.092 88.1133 107.266C83.6008 107.547 78.5714 107.785 74.4902 107.785C70.4091 107.785 65.3797 107.547 60.8672 107.266C58.0812 107.092 56.0568 106.965 54.5059 106.655C52.9768 106.35 51.9892 105.88 51.2344 105.077C50.4815 104.276 50.0746 103.249 49.8643 101.674C49.6512 100.078 49.6494 98.0082 49.6494 95.1621V75.3496C49.6494 72.5554 49.6504 70.5239 49.8594 68.9551C50.0656 67.4068 50.4656 66.3927 51.2051 65.5938C51.9467 64.7926 52.9126 64.3187 54.4043 63.9971C55.9184 63.6706 57.8938 63.516 60.6143 63.3057C65.1863 62.9521 70.3242 62.6494 74.4902 62.6494Z"
        stroke="#000C47" stroke-width="1.29887" />
    </g>
    <path
      d="M54.6445 66.8013C52.3251 66.6967 52.4293 69.9651 54.5142 70.0435C56.5991 70.1481 56.8076 66.9059 54.6445 66.8013Z"
      fill="#FF375B" />
    <path
      d="M58.8708 66.8013C56.5447 66.6967 56.6492 69.9651 58.7401 70.0435C60.8049 70.1481 61.0401 66.9059 58.8708 66.8013Z"
      fill="#FF375B" />
    <path
      d="M63.0872 66.8013C60.7677 66.6967 60.872 69.9651 62.9569 70.0435C65.0418 70.1481 65.2503 66.9059 63.0872 66.8013Z"
      fill="#FF375B" />
    <path d="M49.3242 73.6895H99.006" stroke="#000C47" stroke-width="1.62359" />
    <path
      d="M73.8959 106.462C82.5585 106.462 89.5808 99.4393 89.5808 90.7768C89.5808 82.1142 82.5585 75.0918 73.8959 75.0918C65.2333 75.0918 58.2109 82.1142 58.2109 90.7768C58.2109 99.4393 65.2333 106.462 73.8959 106.462Z"
      fill="#FF375B" />
    <path opacity="0.2"
      d="M85.2218 90.7852H62.6055V101.64C64.0657 103.167 65.8202 104.382 67.763 105.212C69.7057 106.042 71.7965 106.47 73.9093 106.47C76.022 106.47 78.1128 106.042 80.0556 105.212C81.9984 104.382 83.7528 103.167 85.2131 101.64L85.2218 90.7852Z"
      fill="#000C47" />
    <path
      d="M73.8875 83.6368C71.5236 83.6409 69.2093 84.3147 67.2126 85.58C65.2159 86.8453 63.6185 88.6503 62.6055 90.7861C63.6167 92.9303 65.2167 94.7428 67.2189 96.0123C69.2211 97.2817 71.5429 97.9557 73.9136 97.9557C76.2843 97.9557 78.6062 97.2817 80.6084 96.0123C82.6106 94.7428 84.2106 92.9303 85.2218 90.7861C84.2049 88.6423 82.5994 86.8319 80.5925 85.566C78.5857 84.3001 76.2602 83.631 73.8875 83.6368Z"
      fill="#000C47" />
    <path
      d="M73.8964 94.5447C75.9765 94.5447 77.6628 92.8584 77.6628 90.7782C77.6628 88.698 75.9765 87.0117 73.8964 87.0117C71.8162 87.0117 70.1299 88.698 70.1299 90.7782C70.1299 92.8584 71.8162 94.5447 73.8964 94.5447Z"
      fill="white" />
    <path
      d="M73.8962 92.5053C74.8496 92.5053 75.6225 91.7325 75.6225 90.779C75.6225 89.8256 74.8496 89.0527 73.8962 89.0527C72.9428 89.0527 72.1699 89.8256 72.1699 90.779C72.1699 91.7325 72.9428 92.5053 73.8962 92.5053Z"
      fill="#000C47" />
    <path
      d="M72.7624 90.6381C73.3162 90.6381 73.7651 90.1892 73.7651 89.6355C73.7651 89.0817 73.3162 88.6328 72.7624 88.6328C72.2087 88.6328 71.7598 89.0817 71.7598 89.6355C71.7598 90.1892 72.2087 90.6381 72.7624 90.6381Z"
      fill="white" />
  </g>
  <path
    d="M192.564 106.909C192.564 103.695 189.959 101.09 186.746 101.09C183.533 101.09 180.928 103.695 180.928 106.909C180.928 110.122 183.533 112.727 186.746 112.727C189.959 112.727 192.564 110.122 192.564 106.909ZM171.187 107.931L170.415 107.16H170.415L171.187 107.931ZM169.142 137.522L169.913 138.294V138.294L169.142 137.522ZM170.164 131.563H171.255V113.89H170.164H169.073V131.563H170.164ZM177.146 106.909V107.999H186.746V106.909V105.818H177.146V106.909ZM30.5005 126H29.4096V131.563H30.5005H31.5914V126H30.5005ZM37.4823 138.545V139.636H163.182V138.545V137.454H37.4823V138.545ZM30.5005 131.563H29.4096C29.4096 133.178 29.4073 134.499 29.5471 135.539C29.6912 136.611 30.0039 137.546 30.7516 138.294L31.5229 137.522L32.2943 136.751C32.0196 136.476 31.821 136.078 31.7095 135.248C31.5937 134.387 31.5914 133.24 31.5914 131.563H30.5005ZM37.4823 138.545V137.454C35.8058 137.454 34.6582 137.452 33.7972 137.336C32.9675 137.224 32.5691 137.026 32.2943 136.751L31.5229 137.522L30.7516 138.294C31.4993 139.042 32.4349 139.354 33.5065 139.498C34.5467 139.638 35.8675 139.636 37.4823 139.636V138.545ZM170.164 113.89H171.255C171.255 112.214 171.258 111.066 171.373 110.205C171.485 109.376 171.683 108.977 171.958 108.702L171.187 107.931L170.415 107.16C169.668 107.907 169.355 108.843 169.211 109.915C169.071 110.955 169.073 112.276 169.073 113.89H170.164ZM177.146 106.909V105.818C175.531 105.818 174.21 105.815 173.17 105.955C172.099 106.099 171.163 106.412 170.415 107.16L171.187 107.931L171.958 108.702C172.233 108.428 172.631 108.229 173.461 108.118C174.322 108.002 175.47 107.999 177.146 107.999V106.909ZM170.164 131.563H169.073C169.073 133.24 169.071 134.387 168.955 135.248C168.844 136.078 168.645 136.476 168.37 136.751L169.142 137.522L169.913 138.294C170.661 137.546 170.974 136.611 171.118 135.539C171.258 134.499 171.255 133.178 171.255 131.563H170.164ZM163.182 138.545V139.636C164.797 139.636 166.118 139.638 167.158 139.498C168.23 139.354 169.165 139.042 169.913 138.294L169.142 137.522L168.37 136.751C168.096 137.026 167.697 137.224 166.868 137.336C166.007 137.452 164.859 137.454 163.182 137.454V138.545Z"
    fill="#000C47" />
  <g filter="url(#filter2_d_3521_17430)">
    <path
      d="M17.873 25.1332C17.873 19.5798 17.873 16.8032 19.6015 14.9359C21.3299 13.0687 24.0323 12.8598 29.437 12.4418C34.014 12.0879 39.1719 11.7832 43.3634 11.7832C47.5548 11.7832 52.7127 12.0879 57.2897 12.4418C62.6945 12.8598 65.3969 13.0687 67.1253 14.9359C68.8537 16.8032 68.8537 19.5798 68.8537 25.1332V44.9449C68.8537 50.602 68.8537 53.4305 67.0922 55.3052C65.3306 57.1799 62.5626 57.3524 57.0267 57.6973C52.5102 57.9786 47.4649 58.2178 43.3634 58.2178C39.2618 58.2178 34.2166 57.9786 29.7001 57.6973C24.1641 57.3524 21.3961 57.1799 19.6346 55.3052C17.873 53.4305 17.873 50.602 17.873 44.9449V25.1332Z"
      fill="white" />
    <path
      d="M43.3633 12.4326C47.5292 12.4326 52.6672 12.7353 57.2393 13.0889C59.9597 13.2992 61.9351 13.4538 63.4492 13.7803C64.9409 14.1019 65.9068 14.5759 66.6484 15.377C67.388 16.1759 67.7879 17.19 67.9941 18.7383C68.2031 20.3071 68.2041 22.3386 68.2041 25.1328V44.9453C68.2041 47.7913 68.2033 49.8615 67.9902 51.457C67.7799 53.0322 67.3721 54.0589 66.6191 54.8604C65.8643 55.6637 64.8768 56.1329 63.3477 56.4385C61.7967 56.7484 59.7725 56.8753 56.9863 57.0488C52.4738 57.33 47.4444 57.5684 43.3633 57.5684C39.2822 57.5684 34.2527 57.33 29.7402 57.0488C26.9542 56.8753 24.9298 56.7484 23.3789 56.4385C21.8499 56.1329 20.8623 55.6637 20.1074 54.8604C19.3545 54.0589 18.9477 53.0321 18.7373 51.457C18.5242 49.8615 18.5225 47.7914 18.5225 44.9453V25.1328C18.5225 22.3386 18.5235 20.3071 18.7324 18.7383C18.9387 17.19 19.3386 16.1759 20.0781 15.377C20.8197 14.5758 21.7857 14.1019 23.2773 13.7803C24.7915 13.4538 26.7668 13.2992 29.4873 13.0889C34.0594 12.7353 39.1973 12.4326 43.3633 12.4326Z"
      stroke="#000C47" stroke-width="1.29887" />
  </g>
  <path
    d="M23.5166 16.5864C21.1972 16.4819 21.3014 19.7502 23.3863 19.8287C25.4712 19.9333 25.6797 16.691 23.5166 16.5864Z"
    fill="#B980FF" />
  <path
    d="M27.743 16.5864C25.4169 16.4819 25.5214 19.7502 27.6123 19.8287C29.6771 19.9333 29.9124 16.691 27.743 16.5864Z"
    fill="#B980FF" />
  <path
    d="M31.9594 16.5864C29.6399 16.4819 29.7442 19.7502 31.8291 19.8287C33.914 19.9333 34.1225 16.691 31.9594 16.5864Z"
    fill="#B980FF" />
  <path d="M18.1973 23.4707H67.879" stroke="#000C47" stroke-width="1.62359" />
  <path
    d="M42.7689 56.243C51.4315 56.243 58.4539 49.2206 58.4539 40.558C58.4539 31.8954 51.4315 24.873 42.7689 24.873C34.1064 24.873 27.084 31.8954 27.084 40.558C27.084 49.2206 34.1064 56.243 42.7689 56.243Z"
    fill="#B980FF" />
  <path opacity="0.2"
    d="M54.0947 40.5664H31.4783V51.4212C32.9386 52.948 34.693 54.1632 36.6358 54.9934C38.5786 55.8236 40.6694 56.2516 42.7821 56.2516C44.8949 56.2516 46.9857 55.8236 48.9285 54.9934C50.8712 54.1632 52.6257 52.948 54.0859 51.4212L54.0947 40.5664Z"
    fill="#000C47" />
  <path
    d="M42.7605 33.418C40.3967 33.4222 38.0824 34.0959 36.0857 35.3612C34.089 36.6265 32.4916 38.4316 31.4785 40.5673C32.4897 42.7116 34.0898 44.5241 36.0919 45.7935C38.0941 47.0629 40.416 47.7369 42.7867 47.7369C45.1574 47.7369 47.4792 47.0629 49.4814 45.7935C51.4836 44.5241 53.0836 42.7116 54.0948 40.5673C53.078 38.4235 51.4724 36.6131 49.4656 35.3472C47.4587 34.0814 45.1333 33.4123 42.7605 33.418Z"
    fill="#000C47" />
  <path
    d="M42.7694 44.3259C44.8496 44.3259 46.5359 42.6396 46.5359 40.5595C46.5359 38.4793 44.8496 36.793 42.7694 36.793C40.6892 36.793 39.0029 38.4793 39.0029 40.5595C39.0029 42.6396 40.6892 44.3259 42.7694 44.3259Z"
    fill="white" />
  <path
    d="M42.7693 42.2866C43.7227 42.2866 44.4956 41.5137 44.4956 40.5603C44.4956 39.6069 43.7227 38.834 42.7693 38.834C41.8159 38.834 41.043 39.6069 41.043 40.5603C41.043 41.5137 41.8159 42.2866 42.7693 42.2866Z"
    fill="#000C47" />
  <path
    d="M41.6355 40.4194C42.1892 40.4194 42.6381 39.9705 42.6381 39.4167C42.6381 38.863 42.1892 38.4141 41.6355 38.4141C41.0817 38.4141 40.6328 38.863 40.6328 39.4167C40.6328 39.9705 41.0817 40.4194 41.6355 40.4194Z"
    fill="white" />
  <g filter="url(#filter3_d_3521_17430)">
    <path
      d="M7 94.35C7 88.7966 7 86.02 8.72842 84.1527C10.4568 82.2855 13.1592 82.0766 18.564 81.6586C23.141 81.3047 28.2988 81 32.4903 81C36.6818 81 41.8397 81.3047 46.4166 81.6586C51.8214 82.0766 54.5238 82.2855 56.2522 84.1527C57.9806 86.02 57.9806 88.7966 57.9806 94.35V114.162C57.9806 119.819 57.9806 122.647 56.2191 124.522C54.4576 126.397 51.6896 126.569 46.1536 126.914C41.6371 127.195 36.5919 127.435 32.4903 127.435C28.3888 127.435 23.3435 127.195 18.827 126.914C13.291 126.569 10.5231 126.397 8.76153 124.522C7 122.647 7 119.819 7 114.162V94.35Z"
      fill="white" />
    <path
      d="M32.4902 81.6494C36.6562 81.6494 41.7942 81.9521 46.3662 82.3057C49.0867 82.516 51.062 82.6706 52.5762 82.9971C54.0679 83.3187 55.0338 83.7927 55.7754 84.5938C56.5149 85.3927 56.9148 86.4068 57.1211 87.9551C57.3301 89.5239 57.3311 91.5554 57.3311 94.3496V114.162C57.3311 117.008 57.3302 119.078 57.1172 120.674C56.9068 122.249 56.4991 123.276 55.7461 124.077C54.9912 124.881 54.0038 125.35 52.4746 125.655C50.9237 125.965 48.8994 126.092 46.1133 126.266C41.6008 126.547 36.5714 126.785 32.4902 126.785C28.4091 126.785 23.3797 126.547 18.8672 126.266C16.0812 126.092 14.0568 125.965 12.5059 125.655C10.9768 125.35 9.98921 124.88 9.23438 124.077C8.48147 123.276 8.07463 122.249 7.86426 120.674C7.6512 119.078 7.64941 117.008 7.64941 114.162V94.3496C7.64941 91.5554 7.6504 89.5239 7.85938 87.9551C8.06564 86.4068 8.46556 85.3927 9.20508 84.5938C9.94668 83.7926 10.9126 83.3187 12.4043 82.9971C13.9184 82.6706 15.8938 82.516 18.6143 82.3057C23.1863 81.9521 28.3242 81.6494 32.4902 81.6494Z"
      stroke="#000C47" stroke-width="1.29887" />
  </g>
  <path
    d="M12.6436 85.8013C10.3241 85.6967 10.4284 88.9651 12.5133 89.0435C14.5982 89.1481 14.8066 85.9059 12.6436 85.8013Z"
    fill="#00AEF0" />
  <path
    d="M16.8698 85.8013C14.5437 85.6967 14.6482 88.9651 16.7391 89.0435C18.8039 89.1481 19.0392 85.9059 16.8698 85.8013Z"
    fill="#00AEF0" />
  <path
    d="M21.0862 85.8013C18.7667 85.6967 18.871 88.9651 20.9559 89.0435C23.0408 89.1481 23.2493 85.9059 21.0862 85.8013Z"
    fill="#00AEF0" />
  <path d="M7.32422 92.6895H57.006" stroke="#000C47" stroke-width="1.62359" />
  <path
    d="M31.8959 125.462C40.5585 125.462 47.5808 118.439 47.5808 109.777C47.5808 101.114 40.5585 94.0918 31.8959 94.0918C23.2333 94.0918 16.2109 101.114 16.2109 109.777C16.2109 118.439 23.2333 125.462 31.8959 125.462Z"
    fill="#00AEF0" />
  <path opacity="0.2"
    d="M43.2218 109.785H20.6055V120.64C22.0657 122.167 23.8202 123.382 25.763 124.212C27.7057 125.042 29.7965 125.47 31.9093 125.47C34.022 125.47 36.1128 125.042 38.0556 124.212C39.9984 123.382 41.7528 122.167 43.2131 120.64L43.2218 109.785Z"
    fill="#000C47" />
  <path
    d="M31.8875 102.635C29.5236 102.639 27.2093 103.313 25.2126 104.578C23.2159 105.843 21.6185 107.648 20.6055 109.784C21.6167 111.928 23.2167 113.741 25.2189 115.01C27.2211 116.28 29.5429 116.954 31.9136 116.954C34.2843 116.954 36.6062 116.28 38.6084 115.01C40.6106 113.741 42.2106 111.928 43.2218 109.784C42.2049 107.64 40.5994 105.83 38.5925 104.564C36.5857 103.298 34.2602 102.629 31.8875 102.635Z"
    fill="#000C47" />
  <path
    d="M31.8954 113.543C33.9756 113.543 35.6619 111.856 35.6619 109.776C35.6619 107.696 33.9756 106.01 31.8954 106.01C29.8152 106.01 28.1289 107.696 28.1289 109.776C28.1289 111.856 29.8152 113.543 31.8954 113.543Z"
    fill="white" />
  <path
    d="M31.8962 111.505C32.8496 111.505 33.6225 110.732 33.6225 109.779C33.6225 108.826 32.8496 108.053 31.8962 108.053C30.9428 108.053 30.1699 108.826 30.1699 109.779C30.1699 110.732 30.9428 111.505 31.8962 111.505Z"
    fill="#000C47" />
  <path
    d="M30.7624 109.636C31.3162 109.636 31.7651 109.187 31.7651 108.634C31.7651 108.08 31.3162 107.631 30.7624 107.631C30.2087 107.631 29.7598 108.08 29.7598 108.634C29.7598 109.187 30.2087 109.636 30.7624 109.636Z"
    fill="white" />
  <g filter="url(#filter4_d_3521_17430)">
    <path
      d="M246 17.35C246 11.7966 246 9.01997 247.728 7.15274C249.457 5.28551 252.159 5.07655 257.564 4.65863C262.141 4.30472 267.299 4 271.49 4C275.682 4 280.84 4.30472 285.417 4.65863C290.821 5.07655 293.524 5.28551 295.252 7.15274C296.981 9.01997 296.981 11.7966 296.981 17.35V37.1617C296.981 42.8188 296.981 45.6473 295.219 47.522C293.458 49.3967 290.69 49.5692 285.154 49.9141C280.637 50.1954 275.592 50.4346 271.49 50.4346C267.389 50.4346 262.344 50.1954 257.827 49.9141C252.291 49.5692 249.523 49.3967 247.762 47.522C246 45.6473 246 42.8188 246 37.1617V17.35Z"
      fill="white" />
    <path
      d="M271.49 4.64941C275.656 4.64941 280.794 4.95214 285.366 5.30566C288.087 5.51602 290.062 5.67064 291.576 5.99707C293.068 6.31867 294.034 6.79267 294.775 7.59375C295.515 8.39265 295.915 9.40684 296.121 10.9551C296.33 12.5239 296.331 14.5554 296.331 17.3496V37.1621C296.331 40.0081 296.33 42.0783 296.117 43.6738C295.907 45.2489 295.499 46.2757 294.746 47.0771C293.991 47.8805 293.004 48.3497 291.475 48.6553C289.924 48.9652 287.899 49.0921 285.113 49.2656C280.601 49.5468 275.571 49.7852 271.49 49.7852C267.409 49.7852 262.38 49.5468 257.867 49.2656C255.081 49.0921 253.057 48.9652 251.506 48.6553C249.977 48.3497 248.989 47.8805 248.234 47.0771C247.481 46.2757 247.075 45.2489 246.864 43.6738C246.651 42.0783 246.649 40.0082 246.649 37.1621V17.3496C246.649 14.5554 246.65 12.5239 246.859 10.9551C247.066 9.40684 247.466 8.39265 248.205 7.59375C248.947 6.79265 249.913 6.31868 251.404 5.99707C252.918 5.67064 254.894 5.51602 257.614 5.30566C262.186 4.95214 267.324 4.64942 271.49 4.64941Z"
      stroke="#000C47" stroke-width="1.29887" />
  </g>
  <path
    d="M251.644 8.80324C249.324 8.69865 249.428 11.967 251.513 12.0455C253.598 12.1501 253.807 8.90783 251.644 8.80324Z"
    fill="#FF375B" />
  <path
    d="M255.87 8.80324C253.544 8.69865 253.648 11.967 255.739 12.0455C257.804 12.1501 258.039 8.90783 255.87 8.80324Z"
    fill="#FF375B" />
  <path
    d="M260.086 8.80324C257.767 8.69865 257.871 11.967 259.956 12.0455C262.041 12.1501 262.249 8.90783 260.086 8.80324Z"
    fill="#FF375B" />
  <path d="M246.324 15.6914H296.006" stroke="#000C47" stroke-width="1.62359" />
  <path
    d="M270.896 48.4637C279.558 48.4637 286.581 41.4413 286.581 32.7787C286.581 24.1161 279.558 17.0938 270.896 17.0938C262.233 17.0938 255.211 24.1161 255.211 32.7787C255.211 41.4413 262.233 48.4637 270.896 48.4637Z"
    fill="#FF375B" />
  <path opacity="0.2"
    d="M282.222 32.7871H259.605V43.6419C261.066 45.1687 262.82 46.3839 264.763 47.2141C266.706 48.0443 268.797 48.4723 270.909 48.4723C273.022 48.4723 275.113 48.0443 277.056 47.2141C278.998 46.3839 280.753 45.1687 282.213 43.6419L282.222 32.7871Z"
    fill="#000C47" />
  <path
    d="M270.887 25.6368C268.524 25.6409 266.209 26.3147 264.213 27.58C262.216 28.8453 260.619 30.6503 259.605 32.7861C260.617 34.9303 262.217 36.7428 264.219 38.0123C266.221 39.2817 268.543 39.9557 270.914 39.9557C273.284 39.9557 275.606 39.2817 277.608 38.0123C279.611 36.7428 281.211 34.9303 282.222 32.7861C281.205 30.6423 279.599 28.8319 277.593 27.566C275.586 26.3001 273.26 25.631 270.887 25.6368Z"
    fill="#000C47" />
  <path
    d="M270.896 36.5447C272.977 36.5447 274.663 34.8584 274.663 32.7782C274.663 30.698 272.977 29.0117 270.896 29.0117C268.816 29.0117 267.13 30.698 267.13 32.7782C267.13 34.8584 268.816 36.5447 270.896 36.5447Z"
    fill="white" />
  <path
    d="M270.897 34.5053C271.851 34.5053 272.624 33.7325 272.624 32.779C272.624 31.8256 271.851 31.0527 270.897 31.0527C269.944 31.0527 269.171 31.8256 269.171 32.779C269.171 33.7325 269.944 34.5053 270.897 34.5053Z"
    fill="#000C47" />
  <path
    d="M269.762 32.6381C270.316 32.6381 270.765 32.1892 270.765 31.6355C270.765 31.0817 270.316 30.6328 269.762 30.6328C269.209 30.6328 268.76 31.0817 268.76 31.6355C268.76 32.1892 269.209 32.6381 269.762 32.6381Z"
    fill="white" />
  <defs>
    <filter id="filter0_d_3521_17430" x="237.235" y="60.6543" width="52.7454" height="48.8488"
      filterUnits="userSpaceOnUse" color-interpolation-filters="sRGB">
      <feFlood flood-opacity="0" result="BackgroundImageFix" />
      <feColorMatrix in="SourceAlpha" type="matrix"
        values="0 0 0 0 0 0 0 0 0 0 0 0 0 0 0 0 0 0 127 0" result="hardAlpha" />
      <feMorphology radius="0.465899" operator="dilate" in="SourceAlpha"
        result="effect1_dropShadow_3521_17430" />
      <feOffset dx="-1.29887" dy="1.9483" />
      <feComposite in2="hardAlpha" operator="out" />
      <feColorMatrix type="matrix" values="0 0 0 0 0 0 0 0 0 0.0470588 0 0 0 0 0.278431 0 0 0 1 0" />
      <feBlend mode="normal" in2="BackgroundImageFix" result="effect1_dropShadow_3521_17430" />
      <feBlend mode="normal" in="SourceGraphic" in2="effect1_dropShadow_3521_17430" result="shape" />
    </filter>
    <filter id="filter1_d_3521_17430" x="47.2352" y="62" width="52.7454" height="48.8488"
      filterUnits="userSpaceOnUse" color-interpolation-filters="sRGB">
      <feFlood flood-opacity="0" result="BackgroundImageFix" />
      <feColorMatrix in="SourceAlpha" type="matrix"
        values="0 0 0 0 0 0 0 0 0 0 0 0 0 0 0 0 0 0 127 0" result="hardAlpha" />
      <feMorphology radius="0.465899" operator="dilate" in="SourceAlpha"
        result="effect1_dropShadow_3521_17430" />
      <feOffset dx="-1.29887" dy="1.9483" />
      <feComposite in2="hardAlpha" operator="out" />
      <feColorMatrix type="matrix" values="0 0 0 0 0 0 0 0 0 0.0470588 0 0 0 0 0.278431 0 0 0 1 0" />
      <feBlend mode="normal" in2="BackgroundImageFix" result="effect1_dropShadow_3521_17430" />
      <feBlend mode="normal" in="SourceGraphic" in2="effect1_dropShadow_3521_17430" result="shape" />
    </filter>
    <filter id="filter2_d_3521_17430" x="16.1083" y="11.7832" width="52.7454" height="48.8488"
      filterUnits="userSpaceOnUse" color-interpolation-filters="sRGB">
      <feFlood flood-opacity="0" result="BackgroundImageFix" />
      <feColorMatrix in="SourceAlpha" type="matrix"
        values="0 0 0 0 0 0 0 0 0 0 0 0 0 0 0 0 0 0 127 0" result="hardAlpha" />
      <feMorphology radius="0.465899" operator="dilate" in="SourceAlpha"
        result="effect1_dropShadow_3521_17430" />
      <feOffset dx="-1.29887" dy="1.9483" />
      <feComposite in2="hardAlpha" operator="out" />
      <feColorMatrix type="matrix" values="0 0 0 0 0 0 0 0 0 0.0470588 0 0 0 0 0.278431 0 0 0 1 0" />
      <feBlend mode="normal" in2="BackgroundImageFix" result="effect1_dropShadow_3521_17430" />
      <feBlend mode="normal" in="SourceGraphic" in2="effect1_dropShadow_3521_17430" result="shape" />
    </filter>
    <filter id="filter3_d_3521_17430" x="5.23523" y="81" width="52.7454" height="48.8488"
      filterUnits="userSpaceOnUse" color-interpolation-filters="sRGB">
      <feFlood flood-opacity="0" result="BackgroundImageFix" />
      <feColorMatrix in="SourceAlpha" type="matrix"
        values="0 0 0 0 0 0 0 0 0 0 0 0 0 0 0 0 0 0 127 0" result="hardAlpha" />
      <feMorphology radius="0.465899" operator="dilate" in="SourceAlpha"
        result="effect1_dropShadow_3521_17430" />
      <feOffset dx="-1.29887" dy="1.9483" />
      <feComposite in2="hardAlpha" operator="out" />
      <feColorMatrix type="matrix" values="0 0 0 0 0 0 0 0 0 0.0470588 0 0 0 0 0.278431 0 0 0 1 0" />
      <feBlend mode="normal" in2="BackgroundImageFix" result="effect1_dropShadow_3521_17430" />
      <feBlend mode="normal" in="SourceGraphic" in2="effect1_dropShadow_3521_17430" result="shape" />
    </filter>
    <filter id="filter4_d_3521_17430" x="244.235" y="4" width="52.7454" height="48.8488"
      filterUnits="userSpaceOnUse" color-interpolation-filters="sRGB">
      <feFlood flood-opacity="0" result="BackgroundImageFix" />
      <feColorMatrix in="SourceAlpha" type="matrix"
        values="0 0 0 0 0 0 0 0 0 0 0 0 0 0 0 0 0 0 127 0" result="hardAlpha" />
      <feMorphology radius="0.465899" operator="dilate" in="SourceAlpha"
        result="effect1_dropShadow_3521_17430" />
      <feOffset dx="-1.29887" dy="1.9483" />
      <feComposite in2="hardAlpha" operator="out" />
      <feColorMatrix type="matrix" values="0 0 0 0 0 0 0 0 0 0.0470588 0 0 0 0 0.278431 0 0 0 1 0" />
      <feBlend mode="normal" in2="BackgroundImageFix" result="effect1_dropShadow_3521_17430" />
      <feBlend mode="normal" in="SourceGraphic" in2="effect1_dropShadow_3521_17430" result="shape" />
    </filter>
    <clipPath id="clip0_3521_17430">
      <rect width="300" height="144" rx="72" fill="white" />
    </clipPath>
    <clipPath id="clip1_3521_17430">
      <rect x="133.073" y="47.5645" width="34.9091" height="34.9091" rx="17.4545" fill="white" />
    </clipPath>
  </defs>
</svg>