<svg width="300" height="144" viewBox="0 0 300 144" fill="none" xmlns="http://www.w3.org/2000/svg">
  <g clip-path="url(#clip0_3521_17008)">
    <rect width="300" height="144" rx="72" fill="#0073C4" />
    <path fill-rule="evenodd" clip-rule="evenodd"
      d="M150.418 -29C130.784 -29 97.921 -21.6477 66.9863 -13.4982C39.3944 -6.1228 11.9815 1.90101 -15.2295 10.5665C-22.9982 13.0024 -29.9151 17.5786 -35.1798 23.7657C-40.4445 29.9527 -43.8415 37.4975 -44.9778 45.5268C-61.9726 169.453 -22.5553 261.283 25.2556 322.05C45.6086 348.126 69.7726 371.018 96.9423 389.962C107.946 397.521 118.149 403.279 126.809 407.265C134.817 410.927 143.359 413.909 150.418 413.909C157.477 413.909 166.049 410.927 174.027 407.265C182.687 403.279 192.89 397.521 203.894 389.962C231.075 371.021 255.249 348.128 275.61 322.05C323.392 261.283 362.809 169.453 345.814 45.5268C344.678 37.4975 341.281 29.9527 336.016 23.7657C330.751 17.5786 323.834 13.0024 316.066 10.5665C288.855 1.9008 261.442 -6.12302 233.85 -13.4982C202.915 -21.6477 170.082 -29 150.418 -29Z"
      fill="#0083D4" />
    <path
      d="M150.418 -28.5635C170.016 -28.5635 202.793 -21.2292 233.737 -13.0771V-13.0762C261.323 -5.70279 288.729 2.31877 315.934 10.9824L315.936 10.9834C323.626 13.3947 330.472 17.9247 335.684 24.0488C340.895 30.173 344.257 37.6407 345.382 45.5879C362.358 169.381 322.985 261.094 275.268 321.78L275.267 321.781C254.932 347.825 230.79 370.686 203.646 389.603C193.347 396.678 183.755 402.17 175.481 406.103L173.845 406.869C165.876 410.526 157.377 413.473 150.418 413.473C143.459 413.473 134.99 410.526 126.99 406.868C118.355 402.894 108.174 397.149 97.1885 389.603C70.0558 370.683 45.9249 347.822 25.5996 321.781L25.5986 321.78L24.4814 320.352C-22.76 259.658 -61.3894 168.414 -44.5459 45.5879C-43.4212 37.6407 -40.0587 30.173 -34.8477 24.0488C-29.6364 17.9246 -22.789 13.3947 -15.0986 10.9834L-15.0967 10.9824C12.1075 2.31905 39.5136 -5.70262 67.0986 -13.0762L67.0976 -13.0771C98.0422 -21.2293 130.85 -28.5634 150.418 -28.5635Z"
      stroke="white" stroke-opacity="0.4" stroke-width="0.872727" />
    <path fill-rule="evenodd" clip-rule="evenodd"
      d="M150.418 -17.2188C132.759 -17.2188 103.205 -10.6053 75.3838 -3.27475C50.5692 3.35946 25.9156 10.5769 1.44359 18.3716C-5.54314 20.5627 -11.7639 24.6791 -16.4986 30.2444C-21.2334 35.8096 -24.2885 42.5962 -25.3104 49.8187C-40.5946 161.291 -5.14487 243.893 37.8535 298.553C56.1579 322.009 77.8896 342.6 102.325 359.641C112.221 366.44 121.396 371.62 129.185 375.205C136.387 378.499 144.069 381.181 150.418 381.181C156.766 381.181 164.475 378.499 171.65 375.205C179.439 371.62 188.615 366.44 198.511 359.641C222.955 342.603 244.696 322.011 263.008 298.553C305.98 243.893 341.43 161.291 326.146 49.8187C325.124 42.5962 322.069 35.8096 317.334 30.2444C312.599 24.6791 306.378 20.5627 299.392 18.3716C274.92 10.5768 250.266 3.35927 225.452 -3.27475C197.631 -10.6053 168.102 -17.2188 150.418 -17.2188Z"
      fill="#008BD9" />
    <path
      d="M150.418 -16.7822C168.037 -16.7822 197.51 -10.1857 225.341 -2.85254V-2.85352C250.148 3.7786 274.795 10.9945 299.26 18.7871L299.261 18.7881C306.169 20.9546 312.321 25.0249 317.002 30.5273C321.537 35.8579 324.513 42.3214 325.613 49.2119L325.714 49.8799C340.979 161.219 305.573 243.704 262.665 298.283L262.664 298.284C244.379 321.707 222.672 342.268 198.264 359.281C189.003 365.644 180.378 370.583 172.939 374.12L171.468 374.809C164.302 378.098 156.666 380.745 150.418 380.745C144.17 380.745 136.561 378.098 129.367 374.809H129.368C121.605 371.235 112.45 366.068 102.571 359.281C78.1732 342.266 56.474 321.705 38.1973 298.284L38.1963 298.283C-4.73835 243.704 -40.1434 161.219 -24.8779 49.8799C-23.8676 42.7394 -20.8473 36.0298 -16.166 30.5273C-11.4847 25.0249 -5.33418 20.9546 1.57422 18.7881L1.57617 18.7871C26.0408 10.9947 50.6869 3.77874 75.4941 -2.85352L75.4951 -2.85254C103.326 -10.1857 132.826 -16.7822 150.418 -16.7822Z"
      stroke="white" stroke-opacity="0.4" stroke-width="0.872727" />
    <path fill-rule="evenodd" clip-rule="evenodd"
      d="M150.418 -6.30859C136.025 -6.30859 111.936 -0.912084 89.2591 5.06959C69.0331 10.483 48.9383 16.3724 28.9915 22.7329C23.2968 24.5207 18.2263 27.8797 14.3671 32.4209C10.5079 36.9621 8.01771 42.4999 7.18477 48.3934C-5.27314 139.354 23.6214 206.756 58.6688 251.358C73.5883 270.498 91.3016 287.301 111.218 301.206C119.284 306.754 126.763 310.98 133.112 313.906C138.982 316.593 145.244 318.782 150.418 318.782C155.593 318.782 161.876 316.593 167.724 313.906C174.073 310.98 181.552 306.754 189.618 301.206C209.543 287.303 227.263 270.5 242.189 251.358C277.215 206.756 306.109 139.354 293.651 48.3934C292.818 42.4999 290.328 36.9621 286.469 32.4209C282.61 27.8797 277.539 24.5207 271.845 22.7329C251.898 16.3723 231.803 10.4829 211.577 5.06959C188.901 -0.912084 164.833 -6.30859 150.418 -6.30859Z"
      fill="#0098E2" />
    <path
      d="M150.418 -5.87207C164.766 -5.87207 188.778 -0.493875 211.464 5.49023V5.49121C231.683 10.9027 251.772 16.79 271.712 23.1484L271.714 23.1494C277.33 24.9126 282.331 28.2248 286.137 32.7031C289.942 37.1807 292.397 42.6408 293.219 48.4512V48.4521C305.659 139.281 276.808 206.567 241.846 251.089L241.845 251.09C226.946 270.197 209.257 286.969 189.368 300.848C181.824 306.037 174.798 310.064 168.74 312.948L167.542 313.51C161.703 316.193 155.492 318.346 150.418 318.346C145.344 318.346 139.155 316.192 133.293 313.509C126.971 310.595 119.514 306.383 111.467 300.848H111.468C91.587 286.967 73.9054 270.195 59.0127 251.09L59.0117 251.089C24.028 206.567 -4.82215 139.282 7.61719 48.4541C8.43861 42.6427 10.8935 37.1814 14.6992 32.7031C18.505 28.2248 23.5058 24.9127 29.1221 23.1494L29.124 23.1484C49.064 16.7902 69.1519 10.9019 89.3711 5.49023C112.057 -0.493971 136.091 -5.87204 150.418 -5.87207Z"
      stroke="white" stroke-opacity="0.4" stroke-width="0.872727" />
    <path fill-rule="evenodd" clip-rule="evenodd"
      d="M150.418 4.16406C139.892 4.16406 122.274 8.11184 105.69 12.4877C90.8975 16.4479 76.2013 20.7562 61.6133 25.4092C57.4485 26.7171 53.7403 29.1743 50.9179 32.4964C48.0955 35.8185 46.2743 39.8696 45.6651 44.1809C36.5541 110.722 57.6859 160.03 83.3176 192.659C94.2289 206.66 107.183 218.952 121.749 229.124C127.648 233.183 133.118 236.275 137.761 238.415C142.054 240.381 146.634 241.982 150.418 241.982C154.202 241.982 158.797 240.381 163.075 238.415C167.718 236.275 173.187 233.183 179.087 229.124C193.658 218.953 206.618 206.662 217.534 192.659C243.15 160.03 264.282 110.722 255.171 44.1809C254.561 39.8696 252.74 35.8185 249.918 32.4964C247.095 29.1743 243.387 26.7171 239.222 25.4092C224.634 20.7561 209.938 16.4478 195.146 12.4877C178.562 8.11184 160.96 4.16406 150.418 4.16406Z"
      fill="#00AEF0" />
    <path
      d="M150.418 4.60059C160.893 4.60062 178.439 8.52989 195.033 12.9082V12.9092C209.819 16.8675 224.508 21.1742 239.09 25.8252H239.092C243.178 27.1085 246.816 29.5201 249.585 32.7793C252.181 35.8348 253.913 39.5186 254.612 43.4521L254.738 44.2422C263.831 110.651 242.743 159.842 217.19 192.39L217.189 192.391C206.301 206.358 193.374 218.619 178.839 228.765C172.958 232.811 167.509 235.89 162.892 238.019C158.624 239.98 154.102 241.546 150.418 241.546C146.734 241.546 142.227 239.981 137.942 238.019H137.943C133.326 235.89 127.877 232.811 121.996 228.765C107.467 218.618 94.5459 206.357 83.6621 192.391L83.6611 192.39L82.4658 190.852C57.4412 158.3 37.1474 109.613 46.0977 44.2422C46.6952 40.0129 48.4812 36.0385 51.25 32.7793C54.019 29.52 57.6577 27.1085 61.7441 25.8252H61.7461C76.3275 21.1744 91.0172 16.8676 105.803 12.9092L105.802 12.9082C122.396 8.52981 139.958 4.60059 150.418 4.60059Z"
      stroke="white" stroke-opacity="0.4" stroke-width="0.872727" />
    <path fill-rule="evenodd" clip-rule="evenodd"
      d="M150.417 11.582C143.457 11.582 131.808 14.197 120.842 17.0955C111.061 19.7187 101.344 22.5724 91.6977 25.6545C88.9438 26.5208 86.4919 28.1484 84.6256 30.3489C82.7594 32.5494 81.5552 35.2329 81.1524 38.0886C75.128 82.1648 89.1008 114.825 106.049 136.438C113.264 145.713 121.83 153.854 131.461 160.592C135.362 163.281 138.978 165.329 142.048 166.746C144.887 168.049 147.915 169.109 150.417 169.109C152.92 169.109 155.958 168.049 158.786 166.746C161.856 165.329 165.473 163.281 169.374 160.592C179.009 153.855 187.578 145.713 194.796 136.438C211.734 114.825 225.707 82.1648 219.683 38.0886C219.28 35.2329 218.076 32.5494 216.209 30.3489C214.343 28.1484 211.891 26.5208 209.137 25.6545C199.491 22.5724 189.774 19.7186 179.993 17.0955C169.027 14.197 157.388 11.582 150.417 11.582Z"
      fill="#33BEF3" />
    <path
      d="M158.604 166.35C155.785 167.648 152.819 168.673 150.417 168.673C148.015 168.673 145.06 167.648 142.229 166.35C139.186 164.944 135.592 162.91 131.71 160.234H131.711C122.116 153.521 113.582 145.41 106.394 136.17L106.393 136.169L105.604 135.151C89.0774 113.617 75.6724 81.4055 81.585 38.1475L81.584 38.1465C81.9757 35.3736 83.1457 32.7677 84.958 30.6309C86.7709 28.4932 89.1537 26.9119 91.8291 26.0703H91.8301C101.469 22.9907 111.179 20.1378 120.952 17.5166L120.953 17.5176C131.929 14.6165 143.523 12.0187 150.417 12.0186C157.321 12.0186 168.905 14.6155 179.881 17.5166C189.655 20.1378 199.365 22.9904 209.004 26.0703H209.006C211.681 26.9119 214.064 28.4932 215.877 30.6309C217.69 32.7684 218.859 35.3755 219.25 38.1494C225.256 82.0931 211.327 114.637 194.453 136.169L194.452 136.17C187.486 145.122 179.255 153.015 170.021 159.602L169.124 160.234C165.242 162.91 161.647 164.944 158.604 166.35Z"
      stroke="white" stroke-opacity="0.4" stroke-width="0.872727" />
    <path fill-rule="evenodd" clip-rule="evenodd"
      d="M150.418 19.4355C145.692 19.4355 137.782 21.2102 130.336 23.1774C123.695 24.9576 117.096 26.8944 110.547 28.9861C108.677 29.5741 107.012 30.6787 105.744 32.1721C104.477 33.6655 103.66 35.4867 103.386 37.4248C99.2955 67.3379 108.783 89.5038 120.291 104.172C125.19 110.466 131.007 115.992 137.546 120.564C140.195 122.389 142.651 123.779 144.735 124.741C146.663 125.625 148.719 126.345 150.418 126.345C152.117 126.345 154.18 125.625 156.101 124.741C158.185 123.779 160.641 122.389 163.29 120.564C169.832 115.992 175.651 110.467 180.552 104.172C192.053 89.5038 201.54 67.3379 197.45 37.4248C197.176 35.4867 196.359 33.6655 195.091 32.1721C193.824 30.6787 192.159 29.5741 190.289 28.9861C183.74 26.8944 177.141 24.9576 170.5 23.1774C163.054 21.2102 155.151 19.4355 150.418 19.4355Z"
      fill="#5CCBF5" />
    <path
      d="M150.418 19.8721C155.085 19.8721 162.933 21.6298 170.389 23.5996V23.5986C177.023 25.3769 183.614 27.3119 190.156 29.4014L190.158 29.4023C191.95 29.9656 193.545 31.0236 194.759 32.4541C195.973 33.8845 196.756 35.6291 197.018 37.4854C201.09 67.2662 191.646 89.3153 180.208 103.902L180.207 103.903C175.333 110.163 169.548 115.658 163.042 120.205C160.74 121.791 158.588 123.044 156.707 123.969L155.918 124.345C154.007 125.224 152.017 125.908 150.418 125.908C148.819 125.908 146.836 125.225 144.917 124.345H144.918C142.859 123.394 140.424 122.017 137.793 120.205C131.29 115.658 125.507 110.162 120.636 103.903L120.635 103.902L120.1 103.213C108.898 88.6242 99.8098 66.8008 103.818 37.4854C104.08 35.6291 104.863 33.8845 106.077 32.4541C107.291 31.0236 108.886 29.9656 110.678 29.4023L110.68 29.4014C117.222 27.3121 123.812 25.3769 130.446 23.5986L130.447 23.5996C137.903 21.6298 145.758 19.8721 150.418 19.8721Z"
      stroke="white" stroke-opacity="0.4" stroke-width="0.872727" />
    <path
      d="M150.454 28.1631C154.086 28.1632 159.986 29.4959 165.358 30.9082L165.363 30.9092C170.2 32.1993 175.006 33.6033 179.776 35.1191L180.072 35.2178C181.543 35.7355 182.853 36.6319 183.866 37.8193C184.946 39.0859 185.643 40.6316 185.877 42.2773L185.878 42.2832C188.901 64.2778 181.883 80.6315 173.348 91.4639C169.711 96.1106 165.394 100.19 160.541 103.564L160.534 103.569C158.559 104.923 156.713 105.965 155.124 106.694L155.122 106.695C153.701 107.346 151.986 107.972 150.454 107.972C148.921 107.972 147.211 107.346 145.787 106.696L145.784 106.694C144.195 105.965 142.349 104.923 140.374 103.569L140.366 103.564C135.515 100.189 131.2 96.1101 127.565 91.4639L126.769 90.4326C118.595 79.6042 112.101 63.5906 115.029 42.2832L115.03 42.2773C115.264 40.6315 115.962 39.086 117.042 37.8193C118.122 36.5528 119.54 35.617 121.132 35.1191C125.902 33.6034 130.708 32.1993 135.545 30.9092L135.549 30.9082C140.922 29.4958 146.827 28.1631 150.454 28.1631Z"
      stroke="#000C47" stroke-width="2.61818" />
    <path
      d="M150.339 31.5029C153.445 31.503 158.296 32.5564 163.068 33.8154L165.104 34.3652L165.105 34.3662C169.935 35.7185 174.733 37.1895 179.496 38.7783L179.773 38.875C181.152 39.3842 182.374 40.2648 183.316 41.4248C184.258 42.5845 184.885 43.9797 185.138 45.4668L185.184 45.7656V45.7686L185.316 46.8369C187.961 69.1795 181.097 85.8141 172.783 96.8906L172.782 96.8896C169.184 101.718 164.911 105.957 160.105 109.466L160.102 109.469C158.15 110.873 156.332 111.949 154.776 112.699H154.775C153.368 113.376 151.745 113.986 150.339 113.986C148.932 113.986 147.314 113.376 145.902 112.7L145.9 112.699C144.345 111.949 142.527 110.873 140.576 109.469L140.571 109.466C135.767 105.956 131.495 101.717 127.897 96.8887V96.8877C119.447 85.6352 112.498 68.6481 115.493 45.7686L115.494 45.7656C115.71 44.1672 116.356 42.6618 117.36 41.4248C118.365 40.1885 119.688 39.2695 121.178 38.7793L122.966 38.1885C127.142 36.8237 131.345 35.5497 135.571 34.3662L135.574 34.3652C140.96 32.8791 146.795 31.5029 150.339 31.5029Z"
      fill="#000C47" stroke="#000C47" stroke-width="1.44777" />
    <path fill-rule="evenodd" clip-rule="evenodd"
      d="M150.454 29.4727C147.024 29.4727 141.285 30.754 135.882 32.1743C131.063 33.4597 126.275 34.8581 121.522 36.3683C120.165 36.7928 118.957 37.5904 118.038 38.6687C117.118 39.747 116.525 41.0619 116.326 42.4612C113.358 64.0591 120.243 80.0632 128.593 90.6537C132.148 95.1983 136.368 99.1879 141.114 102.49C143.036 103.807 144.818 104.81 146.33 105.505C147.729 106.143 149.221 106.663 150.454 106.663C151.687 106.663 153.184 106.143 154.577 105.505C156.09 104.81 157.872 103.807 159.794 102.49C164.541 99.1884 168.763 95.1987 172.319 90.6537C180.665 80.0632 187.549 64.0591 184.581 42.4612C184.382 41.0619 183.789 39.747 182.87 38.6687C181.95 37.5904 180.742 36.7928 179.385 36.3683C174.633 34.8581 169.845 33.4597 165.026 32.1743C159.623 30.754 153.888 29.4727 150.454 29.4727Z"
      fill="#00AEF0" />
    <path fill-rule="evenodd" clip-rule="evenodd"
      d="M164.889 74.4041C163.451 71.0988 163.204 68.2982 163.165 67.1978V58.144C163.165 51.2275 157.53 45.6211 150.58 45.6211C143.629 45.6211 137.994 51.2275 137.994 58.144V67.3287C137.94 68.5125 137.658 71.2276 136.276 74.4041C134.418 78.6726 135.955 78.1639 137.332 77.8127C138.709 77.463 141.784 76.092 142.744 77.7809C143.704 79.4689 144.505 80.935 146.747 79.9791C148.988 79.0235 150.045 78.7051 150.365 78.7051H150.8C151.12 78.7051 152.176 79.0235 154.418 79.9791C156.659 80.935 157.46 79.4689 158.421 77.7809C159.381 76.092 162.455 77.463 163.832 77.8127C165.209 78.1639 166.746 78.6726 164.889 74.4041Z"
      fill="white" />
    <path fill-rule="evenodd" clip-rule="evenodd"
      d="M152.012 56.3125C152.012 58.4473 153.11 60.1781 154.467 60.1781C155.823 60.1781 156.921 58.4473 156.921 56.3125C156.921 54.1775 155.823 52.4473 154.467 52.4473C153.11 52.4473 152.012 54.1775 152.012 56.3125ZM146.695 52.4473C148.051 52.4473 149.15 54.1775 149.15 56.3126C149.15 58.4474 148.051 60.1782 146.695 60.1782C145.339 60.1782 144.24 58.4474 144.24 56.3126C144.24 54.1775 145.339 52.4473 146.695 52.4473ZM150.579 67.8968C147.592 67.8968 145.077 64.9716 144.319 61.7167C145.783 63.7186 148.042 65.0052 150.579 65.0052C153.116 65.0052 155.374 63.7186 156.838 61.7167C156.08 64.9716 153.565 67.8968 150.579 67.8968Z"
      fill="#00AEF0" />
    <path
      d="M206.513 89.6185C192.598 72.8239 191.322 50.9199 203.663 40.695C206.867 38.0403 208.522 33.2161 206.679 29.485C199.463 14.869 200.568 -0.941902 210.508 -9.17739C216.475 -14.1212 222.301 -22.3496 221.166 -30.015C218.767 -46.2173 223.32 -61.7285 234.933 -71.3503C254.697 -87.7251 287.421 -80.841 308.024 -55.9741C313.78 -49.0273 317.98 -41.4111 320.614 -33.6859C320.633 -33.6304 320.702 -33.6111 320.747 -33.6485C320.782 -33.678 320.835 -33.673 320.865 -33.6375L368.975 24.429C376.663 33.7078 375.373 47.462 366.094 55.1498L292.005 116.536C284.859 122.457 274.267 121.463 268.346 114.318L257.933 101.749C256.971 100.589 255.214 100.552 254.053 101.513C241.712 111.738 220.428 106.413 206.513 89.6185Z"
      fill="#000C47" />
    <g filter="url(#filter0_d_3521_17008)">
      <path
        d="M241.222 8.11403C247.307 11.1567 250.537 18.2249 247.757 24.4342C247.543 24.9113 247.327 25.3696 247.112 25.8004C246.897 26.2312 246.659 26.6786 246.406 27.1358C243.106 33.0856 235.514 34.742 229.428 31.6993C223.331 28.6505 220.103 21.5617 222.896 15.3431C223.105 14.8767 223.316 14.4286 223.527 14.0072C223.738 13.5859 223.969 13.1482 224.217 12.7008C227.516 6.73543 235.124 5.06527 241.222 8.11403Z"
        fill="#00AEF0" />
      <path
        d="M248.248 26.3681C248.023 26.8178 247.777 27.2817 247.516 27.7517C243.829 34.401 235.441 36.1248 228.861 32.8344C222.267 29.5372 218.617 21.7706 221.737 14.823C221.952 14.3435 222.172 13.8792 222.392 13.4395C222.611 12.9999 222.851 12.5463 223.105 12.0865C226.791 5.42164 235.195 3.68142 241.789 6.97839C248.37 10.2688 252.023 18.0139 248.916 24.9531C248.696 25.4435 248.472 25.9184 248.248 26.3681Z"
        stroke="#000C47" stroke-width="2.53949" stroke-linejoin="round" />
    </g>
    <g clip-path="url(#clip1_3521_17008)">
      <path
        d="M241.644 16.5985L245.102 15.4492L244.524 13.7105L241.025 14.8741C240.902 14.6425 240.769 14.417 240.619 14.2054C239.581 12.7528 237.94 11.9299 236.154 11.9687C235.895 11.9743 235.636 12.0036 235.377 12.0435L234.213 8.5448L232.474 9.12289L233.624 12.581C232.856 12.937 232.144 13.438 231.5 14.0595L228.423 12.5181L227.602 14.1565L229.492 15.1033C229.236 15.4822 228.995 15.8762 228.789 16.2883C228.581 16.7036 228.408 17.1354 228.257 17.57L226.367 16.6232L225.546 18.2617L227.801 19.3915C227.796 19.4288 227.785 19.4657 227.781 19.5022C227.707 20.034 227.677 20.5704 227.693 21.0982C227.696 21.1826 227.707 21.2641 227.713 21.3477L224.848 22.3003L225.426 24.039L228.021 23.1756C228.109 23.4801 228.208 23.7797 228.33 24.0642C228.527 24.5258 228.77 24.9583 229.05 25.3506C229.339 25.7545 229.671 26.1215 230.038 26.4398C230.416 26.7687 230.834 27.0485 231.28 27.2721C231.727 27.4958 232.201 27.6625 232.689 27.769C233.164 27.8727 233.657 27.9185 234.153 27.9078C234.635 27.8972 235.128 27.8324 235.616 27.7143C235.917 27.6416 236.215 27.541 236.511 27.429L237.374 30.0248L239.113 29.4467L238.16 26.5816C238.232 26.5354 238.304 26.4948 238.374 26.4465C238.805 26.1449 239.217 25.8002 239.598 25.4214C239.625 25.3948 239.648 25.3653 239.675 25.3387L241.931 26.4689L242.752 24.8305L240.861 23.8833C241.119 23.5011 241.361 23.1047 241.569 22.6893C241.775 22.2772 241.947 21.8487 242.097 21.417L243.987 22.3637L244.808 20.7261L241.731 19.1846C241.843 18.2971 241.818 17.4268 241.644 16.5985ZM234.41 14.2343C235.004 13.9598 235.604 13.8148 236.193 13.8013C237.375 13.7755 238.441 14.3103 239.127 15.2709C239.469 15.751 239.713 16.3188 239.849 16.9597C239.941 17.388 239.963 17.8368 239.952 18.2936L233.279 14.9505C233.639 14.6689 234.011 14.4167 234.41 14.2343ZM239.931 21.8697C239.716 22.2974 239.468 22.7078 239.19 23.0903C238.924 23.4593 238.628 23.8057 238.31 24.121C238.002 24.4269 237.669 24.7041 237.323 24.9468C236.982 25.1846 236.627 25.3892 236.267 25.5553C235.912 25.7185 235.547 25.8465 235.187 25.9343C234.826 26.0209 234.465 26.0686 234.112 26.0765C233.76 26.0845 233.413 26.051 233.078 25.9786C233.041 25.9704 233.005 25.9564 232.969 25.9474L235.383 21.1287L233.744 20.3079L231.331 25.1258C231.302 25.102 231.269 25.0815 231.24 25.0569C230.983 24.8325 230.747 24.5742 230.542 24.2872C230.338 24.0002 230.16 23.6825 230.014 23.3418C229.867 22.9987 229.751 22.6311 229.669 22.2479C229.586 21.861 229.538 21.4545 229.525 21.0402C229.512 20.6164 229.535 20.1846 229.595 19.7543C229.657 19.311 229.757 18.8661 229.894 18.4302C230.033 17.9816 230.213 17.5367 230.427 17.1091C230.635 16.6954 230.875 16.2993 231.141 15.929L240.448 20.5916C240.311 21.0263 240.138 21.456 239.931 21.8697Z"
        fill="#000C47" />
    </g>
    <path d="M226.337 7.39258L242.398 32.7412" stroke="#000C47" stroke-width="2.53949" />
    <g filter="url(#filter1_d_3521_17008)">
      <path
        d="M250.308 55.6705C254.129 57.581 256.157 62.0189 254.411 65.9176C254.277 66.2171 254.142 66.5049 254.007 66.7754C253.871 67.0459 253.722 67.3268 253.563 67.6138C251.492 71.3496 246.724 72.3896 242.903 70.4792C239.075 68.5649 237.048 64.114 238.802 60.2095C238.933 59.9166 239.066 59.6353 239.198 59.3707C239.33 59.1062 239.476 58.8314 239.631 58.5504C241.703 54.8049 246.48 53.7563 250.308 55.6705Z"
        fill="#00AEF0" />
      <path
        d="M255.142 67.3431C254.998 67.6324 254.84 67.9296 254.674 68.2293C252.215 72.6645 246.652 73.7727 242.336 71.6146C238.011 69.4519 235.562 64.3232 237.643 59.6895C237.781 59.3836 237.921 59.0859 238.063 58.803C238.204 58.52 238.358 58.2291 238.52 57.9356C240.979 53.4908 246.551 52.3724 250.876 54.535C255.192 56.6932 257.643 61.8083 255.57 66.4369C255.43 66.7497 255.287 67.0539 255.142 67.3431Z"
        stroke="#000C47" stroke-width="2.53949" stroke-linejoin="round" />
    </g>
    <g clip-path="url(#clip2_3521_17008)">
      <path
        d="M250.574 60.9963L252.745 60.2748L252.382 59.1831L250.185 59.9136C250.108 59.7682 250.024 59.6266 249.93 59.4938C249.278 58.5817 248.248 58.0651 247.127 58.0894C246.964 58.0929 246.802 58.1113 246.639 58.1364L245.908 55.9396L244.816 56.3026L245.538 58.4739C245.056 58.6973 244.609 59.0119 244.205 59.4022L242.273 58.4343L241.757 59.4631L242.944 60.0576C242.783 60.2954 242.632 60.5428 242.502 60.8016C242.372 61.0623 242.263 61.3334 242.168 61.6064L240.981 61.0119L240.466 62.0406L241.882 62.75C241.879 62.7735 241.872 62.7966 241.869 62.8195C241.823 63.1534 241.804 63.4902 241.814 63.8216C241.816 63.8746 241.823 63.9258 241.827 63.9783L240.028 64.5764L240.391 65.6681L242.02 65.126C242.075 65.3172 242.138 65.5053 242.214 65.6839C242.338 65.9737 242.491 66.2453 242.667 66.4916C242.848 66.7452 243.056 66.9756 243.287 67.1755C243.524 67.382 243.786 67.5577 244.067 67.6981C244.347 67.8385 244.645 67.9432 244.951 68.0101C245.25 68.0752 245.559 68.1039 245.87 68.0972C246.173 68.0905 246.482 68.0499 246.789 67.9757C246.978 67.9301 247.165 67.8669 247.351 67.7966L247.893 69.4264L248.985 69.0634L248.387 67.2645C248.431 67.2355 248.477 67.21 248.52 67.1797C248.791 66.9903 249.05 66.7739 249.289 66.5361C249.306 66.5193 249.321 66.5008 249.337 66.4841L250.754 67.1938L251.269 66.165L250.082 65.5703C250.244 65.3304 250.396 65.0814 250.527 64.8206C250.656 64.5619 250.764 64.2929 250.859 64.0217L252.045 64.6162L252.56 63.588L250.628 62.6201C250.699 62.0629 250.683 61.5164 250.574 60.9963ZM246.032 59.5119C246.405 59.3395 246.782 59.2485 247.151 59.24C247.894 59.2239 248.563 59.5596 248.993 60.1628C249.208 60.4642 249.361 60.8207 249.447 61.2232C249.504 61.4921 249.518 61.7738 249.512 62.0607L245.321 59.9616C245.548 59.7848 245.781 59.6265 246.032 59.5119ZM249.498 64.306C249.364 64.5745 249.207 64.8322 249.033 65.0724C248.866 65.3041 248.68 65.5216 248.48 65.7196C248.287 65.9116 248.078 66.0856 247.861 66.2381C247.647 66.3874 247.424 66.5158 247.198 66.6201C246.975 66.7226 246.746 66.803 246.519 66.8581C246.293 66.9125 246.066 66.9424 245.845 66.9474C245.624 66.9524 245.406 66.9314 245.195 66.8859C245.172 66.8808 245.15 66.872 245.127 66.8663L246.642 63.8407L245.614 63.3254L244.098 66.3504C244.08 66.3355 244.059 66.3226 244.041 66.3072C243.88 66.1663 243.732 66.0041 243.603 65.8239C243.475 65.6437 243.363 65.4442 243.271 65.2303C243.179 65.0149 243.106 64.7841 243.055 64.5435C243.003 64.3006 242.973 64.0453 242.965 63.7852C242.956 63.5191 242.971 63.248 243.009 62.9778C243.048 62.6995 243.11 62.4201 243.196 62.1464C243.284 61.8648 243.397 61.5854 243.531 61.3169C243.661 61.0572 243.812 60.8085 243.979 60.576L249.823 63.5035C249.737 63.7765 249.628 64.0463 249.498 64.306Z"
        fill="#000C47" />
    </g>
    <path d="M240.962 55.2188L251.046 71.1346" stroke="#000C47" stroke-width="2.53949" />
    <g filter="url(#filter2_d_3521_17008)">
      <path
        d="M288.154 63.3019C294.142 63.9113 299.029 68.7455 298.676 74.7533C298.648 75.2149 298.614 75.6616 298.571 76.0855C298.528 76.5094 298.471 76.9539 298.405 77.4115C297.541 83.3673 291.779 87.1175 285.792 86.508C279.793 85.8973 274.9 81.0455 275.261 75.0262C275.288 74.5747 275.322 74.1379 275.365 73.7233C275.407 73.3087 275.461 72.874 275.526 72.4263C276.385 66.4576 282.155 62.6912 288.154 63.3019Z"
        fill="#F1D801" />
      <path
        d="M299.834 76.2141C299.788 76.6589 299.73 77.1215 299.662 77.5935C298.683 84.3408 292.202 88.4366 285.664 87.7712C279.112 87.1043 273.585 81.7676 273.994 74.9502C274.022 74.4845 274.057 74.0298 274.101 73.5948C274.146 73.1598 274.203 72.7073 274.269 72.2455C275.242 65.4855 281.731 61.372 288.283 62.0389C294.821 62.7045 300.344 68.0215 299.943 74.8275C299.915 75.3037 299.879 75.7692 299.834 76.2141Z"
        stroke="#000C47" stroke-width="2.53949" stroke-linejoin="round" />
    </g>
    <g clip-path="url(#clip3_3521_17008)">
      <path
        d="M291.162 70.1859L293.663 68.1511L292.64 66.8941L290.11 68.9535C289.936 68.8004 289.755 68.6556 289.564 68.5277C288.25 67.6515 286.635 67.4851 285.17 68.0771C284.957 68.1628 284.753 68.2681 284.55 68.3826L282.491 65.8534L281.234 66.8766L283.269 69.3765C282.745 69.9118 282.313 70.5495 281.976 71.2653L278.947 70.9548L278.782 72.5674L280.642 72.7581C280.549 73.1519 280.473 73.5532 280.432 73.9587C280.39 74.3675 280.382 74.779 280.393 75.1859L278.533 74.9952L278.368 76.6078L280.587 76.8354C280.595 76.8679 280.598 76.9016 280.605 76.9334C280.711 77.3964 280.854 77.8495 281.033 78.2809C281.062 78.3499 281.097 78.4137 281.127 78.4812L279.056 80.1673L280.079 81.4243L281.955 79.8967C282.124 80.1209 282.299 80.3377 282.489 80.5348C282.797 80.8548 283.134 81.1363 283.489 81.3731C283.854 81.6167 284.243 81.8163 284.647 81.9644C285.063 82.1179 285.496 82.2185 285.935 82.2636C286.375 82.3086 286.819 82.298 287.257 82.2329C287.682 82.1697 288.104 82.0533 288.511 81.8889C288.906 81.729 289.294 81.521 289.661 81.2702C289.887 81.1158 290.102 80.9391 290.312 80.7536L291.839 82.6303L293.096 81.6071L291.41 79.5357C291.455 79.4751 291.502 79.4188 291.544 79.3572C291.806 78.9725 292.039 78.5581 292.236 78.1253C292.25 78.0949 292.26 78.0633 292.273 78.0329L294.494 78.2606L294.659 76.648L292.798 76.4572C292.892 76.0602 292.967 75.6565 293.009 75.2477C293.051 74.8421 293.059 74.4339 293.048 74.0295L294.908 74.2202L295.073 72.6084L292.045 72.2979C291.86 71.5285 291.566 70.8164 291.162 70.1859ZM284.438 70.4977C284.843 70.0846 285.294 69.7764 285.777 69.5807C286.747 69.1888 287.796 69.2972 288.664 69.8767C289.098 70.1665 289.477 70.5598 289.791 71.0474C290.001 71.3729 290.16 71.7371 290.294 72.1184L283.726 71.4448C283.936 71.0989 284.165 70.7736 284.438 70.4977ZM291.398 75.0832C291.354 75.5041 291.277 75.9215 291.168 76.325C291.063 76.7136 290.927 77.0931 290.763 77.4535C290.604 77.8031 290.415 78.1366 290.205 78.4458C289.997 78.7496 289.768 79.03 289.523 79.2802C289.28 79.5266 289.018 79.7467 288.748 79.9324C288.476 80.1172 288.192 80.2698 287.903 80.3869C287.614 80.5039 287.317 80.585 287.017 80.63C286.984 80.6348 286.95 80.6346 286.917 80.6385L287.403 75.8958L285.791 75.7304L285.304 80.4723C285.273 80.4618 285.239 80.4551 285.208 80.4437C284.924 80.3389 284.649 80.199 284.39 80.0257C284.13 79.8525 283.883 79.6455 283.656 79.4095C283.427 79.1717 283.216 78.904 283.028 78.6126C282.838 78.3185 282.671 77.9974 282.53 77.6588C282.386 77.3124 282.271 76.9477 282.185 76.5731C282.098 76.1869 282.041 75.7875 282.017 75.3842C281.992 74.9694 282.001 74.545 282.044 74.1241C282.086 73.7169 282.161 73.3139 282.264 72.9245L291.425 73.8639C291.448 74.2663 291.439 74.676 291.398 75.0832Z"
        fill="#000C47" />
    </g>
    <path d="M275.615 67.3711L296.846 83.3047" stroke="#000C47" stroke-width="2.53949" />
    <g filter="url(#filter3_d_3521_17008)">
      <path
        d="M216.178 63.3523C222.263 66.395 225.493 73.4632 222.713 79.6725C222.499 80.1495 222.284 80.6079 222.068 81.0387C221.853 81.4695 221.615 81.9169 221.362 82.374C218.062 88.3239 210.47 89.9803 204.385 86.9376C198.287 83.8888 195.059 76.8 197.852 70.5814C198.061 70.115 198.272 69.6669 198.483 69.2455C198.694 68.8242 198.925 68.3865 199.173 67.9391C202.472 61.9737 210.081 60.3036 216.178 63.3523Z"
        fill="#FF375B" />
      <path
        d="M223.204 81.6064C222.979 82.0561 222.733 82.52 222.473 82.9899C218.785 89.6393 210.397 91.3631 203.817 88.0727C197.223 84.7755 193.573 77.0089 196.693 70.0613C196.908 69.5818 197.128 69.1175 197.348 68.6777C197.567 68.2382 197.807 67.7846 198.061 67.3248C201.747 60.6599 210.151 58.9197 216.745 62.2167C223.326 65.5071 226.979 73.2522 223.872 80.1914C223.652 80.6818 223.429 81.1567 223.204 81.6064Z"
        stroke="#000C47" stroke-width="2.53949" stroke-linejoin="round" />
    </g>
    <g clip-path="url(#clip4_3521_17008)">
      <path
        d="M216.6 71.8368L220.058 70.6875L219.48 68.9488L215.981 70.1124C215.858 69.8807 215.725 69.6553 215.575 69.4437C214.537 67.9911 212.896 67.1682 211.11 67.207C210.851 67.2125 210.592 67.2419 210.333 67.2818L209.169 63.7831L207.43 64.3612L208.58 67.8193C207.812 68.1752 207.1 68.6763 206.456 69.2978L203.379 67.7563L202.558 69.3948L204.448 70.3416C204.192 70.7204 203.951 71.1145 203.745 71.5265C203.537 71.9419 203.364 72.3737 203.213 72.8083L201.323 71.8615L200.502 73.5L202.757 74.6298C202.752 74.6671 202.742 74.704 202.737 74.7405C202.663 75.2723 202.633 75.8087 202.649 76.3365C202.652 76.4209 202.664 76.5024 202.669 76.586L199.804 77.5386L200.382 79.2773L202.977 78.4139C203.065 78.7184 203.164 79.018 203.286 79.3025C203.483 79.764 203.727 80.1965 204.007 80.5889C204.295 80.9928 204.627 81.3598 204.994 81.678C205.372 82.007 205.79 82.2868 206.236 82.5104C206.683 82.7341 207.157 82.9008 207.646 83.0073C208.12 83.111 208.613 83.1568 209.109 83.1461C209.591 83.1354 210.084 83.0707 210.572 82.9526C210.873 82.8799 211.171 82.7793 211.467 82.6673L212.33 85.263L214.069 84.6849L213.117 81.8199C213.188 81.7736 213.26 81.7331 213.33 81.6848C213.761 81.3832 214.173 81.0384 214.554 80.6597C214.581 80.6331 214.604 80.6036 214.631 80.577L216.887 81.7072L217.708 80.0688L215.817 79.1215C216.075 78.7394 216.317 78.3429 216.525 77.9276C216.731 77.5155 216.903 77.087 217.053 76.6552L218.943 77.602L219.764 75.9644L216.687 74.4229C216.799 73.5354 216.774 72.665 216.6 71.8368ZM209.366 69.4725C209.96 69.198 210.56 69.053 211.149 69.0396C212.331 69.0138 213.397 69.5486 214.083 70.5092C214.425 70.9893 214.669 71.557 214.805 72.198C214.897 72.6263 214.919 73.075 214.908 73.5319L208.235 70.1888C208.595 69.9071 208.967 69.655 209.366 69.4725ZM214.887 77.108C214.672 77.5357 214.424 77.9461 214.146 78.3286C213.88 78.6976 213.584 79.044 213.266 79.3593C212.958 79.6652 212.625 79.9423 212.279 80.1851C211.938 80.4229 211.583 80.6275 211.223 80.7936C210.868 80.9568 210.504 81.0848 210.143 81.1726C209.782 81.2592 209.421 81.3069 209.068 81.3148C208.716 81.3227 208.369 81.2893 208.034 81.2169C207.997 81.2087 207.961 81.1947 207.925 81.1857L210.339 76.3669L208.7 75.5461L206.287 80.3641C206.258 80.3403 206.225 80.3198 206.196 80.2951C205.939 80.0708 205.703 79.8125 205.499 79.5255C205.294 79.2385 205.116 78.9208 204.97 78.5801C204.823 78.237 204.707 77.8694 204.625 77.4862C204.542 77.0993 204.494 76.6927 204.481 76.2784C204.468 75.8547 204.492 75.4228 204.551 74.9926C204.614 74.5493 204.713 74.1044 204.85 73.6685C204.989 73.2199 205.169 72.775 205.384 72.3473C205.591 71.9336 205.831 71.5376 206.097 71.1673L215.404 75.8299C215.267 76.2646 215.094 76.6943 214.887 77.108Z"
        fill="#000C47" />
    </g>
    <path d="M201.293 62.6309L217.354 87.9795" stroke="#000C47" stroke-width="2.53949" />
    <g filter="url(#filter4_d_3521_17008)">
      <path
        d="M258.231 83.6623C265.798 77.7969 276.732 78.0049 282.914 85.3146C283.389 85.8763 283.839 86.4288 284.255 86.9645C284.67 87.5002 285.093 88.0739 285.518 88.6739C291.056 96.4837 288.532 107.124 280.965 112.99C273.383 118.867 262.424 118.644 256.237 111.313C255.773 110.763 255.333 110.222 254.927 109.698C254.521 109.175 254.107 108.614 253.69 108.027C248.133 100.208 250.649 89.5395 258.231 83.6623Z"
        fill="#FF375B" />
      <path
        d="M285.258 86.1869C285.686 86.7391 286.12 87.3275 286.554 87.9393C292.554 96.4015 289.747 107.789 281.743 113.994C273.722 120.211 261.969 120.073 255.267 112.131C254.794 111.571 254.342 111.017 253.924 110.477C253.505 109.936 253.081 109.361 252.655 108.762C246.635 100.292 249.433 88.8766 257.453 82.6591C265.457 76.4544 277.184 76.5744 283.883 84.4947C284.368 85.0675 284.83 85.6344 285.258 86.1869Z"
        stroke="#000C47" stroke-width="2.53949" stroke-linejoin="round" />
    </g>
    <g clip-path="url(#clip5_3521_17008)">
      <path
        d="M269.25 88.2961L269.899 83.2088L267.341 82.8829L266.685 88.031C266.316 88.0456 265.949 88.0769 265.59 88.1386C263.114 88.5705 261.071 90.1503 260.032 92.4398C259.882 92.7717 259.761 93.1175 259.654 93.4715L254.506 92.8166L254.181 95.3743L259.268 96.0216C259.251 97.2134 259.453 98.422 259.85 99.6168L256.02 102.581L257.598 104.62L259.95 102.8C260.275 103.356 260.628 103.901 261.025 104.414C261.425 104.931 261.867 105.413 262.327 105.87L259.974 107.691L261.553 109.73L264.36 107.557C264.404 107.587 264.445 107.622 264.488 107.651C265.117 108.068 265.78 108.433 266.459 108.734C266.568 108.782 266.678 108.817 266.788 108.861L266.251 113.076L268.808 113.401L269.294 109.584C269.734 109.657 270.174 109.714 270.609 109.733C271.315 109.764 272.012 109.719 272.68 109.603C273.368 109.482 274.036 109.285 274.663 109.013C275.311 108.734 275.92 108.375 276.476 107.945C277.032 107.514 277.532 107.015 277.965 106.46C278.385 105.92 278.744 105.324 279.032 104.688C279.312 104.07 279.53 103.405 279.678 102.714C279.769 102.288 279.823 101.848 279.862 101.404L283.68 101.891L284.006 99.3333L279.791 98.7963C279.776 98.6776 279.769 98.5609 279.75 98.4436C279.63 97.7132 279.444 96.98 279.196 96.2654C279.178 96.2154 279.155 96.1683 279.137 96.1183L281.945 93.9448L280.367 91.9055L278.013 93.727C277.686 93.1669 277.33 92.6188 276.93 92.1018C276.533 91.5889 276.094 91.1102 275.638 90.656L277.991 88.8353L276.413 86.797L272.583 89.7613C271.526 89.0778 270.406 88.5795 269.25 88.2961ZM261.844 96.0318C261.857 95.1116 262.039 94.2616 262.381 93.5064C263.068 91.9911 264.396 90.9654 266.032 90.6803C266.85 90.5382 267.718 90.5753 268.614 90.7933C269.214 90.9376 269.796 91.1828 270.369 91.4746L262.063 97.9034C261.926 97.2747 261.832 96.6489 261.844 96.0318ZM274.893 93.6805C275.305 94.2127 275.674 94.7781 275.99 95.3634C276.296 95.9254 276.555 96.5126 276.761 97.1078C276.961 97.6848 277.11 98.2755 277.208 98.8623C277.301 99.4404 277.345 100.015 277.336 100.573C277.327 101.123 277.267 101.663 277.159 102.174C277.049 102.685 276.889 103.172 276.685 103.624C276.48 104.076 276.226 104.496 275.93 104.876C275.897 104.918 275.858 104.955 275.824 104.996L271.182 98.9981L269.143 100.577L273.784 106.573C273.736 106.596 273.69 106.625 273.641 106.646C273.2 106.836 272.729 106.977 272.24 107.062C271.751 107.147 271.24 107.179 270.719 107.157C270.194 107.134 269.657 107.057 269.121 106.928C268.58 106.797 268.035 106.611 267.501 106.375C266.956 106.133 266.422 105.84 265.913 105.502C265.389 105.153 264.885 104.756 264.415 104.317C263.931 103.867 263.476 103.367 263.065 102.835C262.666 102.32 262.31 101.774 262.002 101.212L273.586 92.2457C274.054 92.684 274.494 93.1655 274.893 93.6805Z"
        fill="#000C47" />
    </g>
    <path d="M248.247 102.104L290.186 97.1716" stroke="#000C47" stroke-width="2.53949" />
    <path
      d="M15.2734 37.6523C37.0835 37.6525 54.7637 50.6447 54.7637 66.6709C54.7636 70.8324 57.4232 75.1851 61.472 76.1472C77.3306 79.9156 88.7998 90.8548 88.7998 103.763C88.7997 111.511 91.4184 121.246 98.0449 125.263C112.052 133.752 121.091 147.153 121.091 162.234C121.091 187.901 94.9118 208.707 62.6182 208.707C53.5965 208.707 45.0527 207.082 37.4229 204.182C37.3681 204.161 37.3096 204.202 37.3096 204.26C37.3096 204.306 37.2721 204.344 37.226 204.344H-38.1818C-50.2317 204.344 -60 194.575 -60 182.526V86.3106C-60 77.0307 -52.4771 69.5078 -43.1972 69.5078H-26.8745C-25.3673 69.5078 -24.2177 68.1781 -24.2178 66.6709C-24.2178 50.6446 -6.53679 37.6523 15.2734 37.6523Z"
      fill="#000C47" />
    <g filter="url(#filter5_d_3521_17008)">
      <path
        d="M50.4237 62.4107C56.7717 65.5848 60.1415 72.9584 57.2409 79.4359C57.018 79.9336 56.7932 80.4117 56.5685 80.8611C56.3438 81.3106 56.0961 81.7773 55.8317 82.2542C52.3898 88.4611 44.469 90.189 38.121 87.0148C31.7604 83.8344 28.3924 76.4393 31.306 69.9521C31.5245 69.4655 31.7446 68.998 31.9644 68.5585C32.1842 68.1189 32.4261 67.6624 32.6843 67.1956C36.1261 60.9725 44.0631 59.2302 50.4237 62.4107Z"
        fill="#00AEF0" />
      <path
        d="M57.7531 81.4531C57.5186 81.9221 57.2619 82.4059 56.9901 82.896C53.1436 89.8326 44.3931 91.6319 37.5283 88.1993C30.6498 84.7596 26.8423 76.6574 30.0973 69.4096C30.3219 68.9094 30.5505 68.4245 30.7799 67.9658C31.0092 67.5072 31.2597 67.034 31.525 66.5543C35.3704 59.6016 44.1368 57.7867 51.0156 61.2261C57.8803 64.6586 61.6912 72.7379 58.4497 79.9769C58.2206 80.4884 57.9876 80.984 57.7531 81.4531Z"
        stroke="#000C47" stroke-width="2.6492" stroke-linejoin="round" />
    </g>
    <g clip-path="url(#clip6_3521_17008)">
      <path
        d="M50.8629 71.2606L54.4709 70.0618L53.8678 68.248L50.2171 69.4618C50.089 69.2201 49.9503 68.9849 49.7935 68.7642C48.7106 67.2488 46.9992 66.3904 45.1358 66.4309C44.8657 66.4367 44.5959 66.4672 44.3248 66.5089L43.1106 62.8591L41.2968 63.4621L42.4969 67.0697C41.6951 67.441 40.9522 67.9636 40.281 68.612L37.071 67.004L36.2148 68.7132L38.1864 69.7009C37.9189 70.0961 37.6681 70.5072 37.4527 70.937C37.2357 71.3703 37.0549 71.8208 36.8973 72.2742L34.9257 71.2865L34.0694 72.9957L36.4222 74.1744C36.4166 74.2133 36.4059 74.2517 36.4007 74.2898C36.3238 74.8446 36.2926 75.4041 36.3097 75.9547C36.3126 76.0428 36.3245 76.1279 36.33 76.2151L33.3412 77.2088L33.9442 79.0226L36.6513 78.1219C36.7434 78.4396 36.8466 78.7521 36.9737 79.0489C37.1794 79.5304 37.4334 79.9816 37.7255 80.3909C38.0265 80.8122 38.3725 81.1951 38.7557 81.5271C39.1504 81.8702 39.5858 82.1621 40.0516 82.3954C40.5173 82.6288 41.0118 82.8027 41.5217 82.9138C42.0171 83.0219 42.5309 83.0697 43.0485 83.0586C43.5513 83.0474 44.0651 82.9799 44.5748 82.8567C44.8886 82.7809 45.1999 82.6759 45.5086 82.559L46.409 85.267L48.2228 84.6639L47.229 81.6751C47.3035 81.6268 47.3792 81.5845 47.4514 81.5342C47.901 81.2195 48.3313 80.8598 48.7291 80.4647C48.7569 80.437 48.7809 80.4062 48.8087 80.3784L51.1624 81.5575L52.0186 79.8483L50.0461 78.8601C50.3153 78.4615 50.5674 78.0479 50.7845 77.6146C50.9998 77.1847 51.1789 76.7377 51.3361 76.2873L53.3077 77.275L54.1636 75.5666L50.9536 73.9585C51.071 73.0327 51.0448 72.1247 50.8629 71.2606ZM43.3168 68.7943C43.936 68.5079 44.5624 68.3567 45.1767 68.3426C46.41 68.3158 47.5214 68.8736 48.2371 69.8757C48.5945 70.3766 48.8484 70.9688 48.9902 71.6375C49.0861 72.0843 49.1092 72.5524 49.0982 73.0291L42.1364 69.5415C42.5124 69.2477 42.9007 68.9846 43.3168 68.7943ZM49.0757 76.7596C48.8522 77.2057 48.5928 77.6339 48.3031 78.0329C48.0258 78.4179 47.7164 78.7793 47.3849 79.1082C47.0636 79.4273 46.7167 79.7164 46.3557 79.9696C45.9995 80.2177 45.6295 80.4312 45.2541 80.6044C44.8833 80.7747 44.5032 80.9082 44.1269 80.9998C43.7503 81.0902 43.3736 81.1399 43.006 81.1482C42.6383 81.1564 42.2763 81.1215 41.9271 81.046C41.8886 81.0374 41.851 81.0229 41.813 81.0135L44.3313 75.9865L42.622 75.1303L40.1042 80.1563C40.0738 80.1315 40.0396 80.1101 40.0097 80.0844C39.741 79.8504 39.4954 79.5809 39.2819 79.2815C39.0684 78.9821 38.8827 78.6507 38.7304 78.2953C38.5772 77.9374 38.4561 77.5539 38.3709 77.1541C38.2844 76.7505 38.2339 76.3264 38.2205 75.8942C38.2068 75.4522 38.2315 75.0017 38.2938 74.5529C38.3587 74.0904 38.4629 73.6262 38.6052 73.1715C38.7509 72.7035 38.9385 72.2394 39.162 71.7933C39.3782 71.3617 39.629 70.9485 39.9059 70.5623L49.6153 75.4263C49.4726 75.8798 49.2919 76.328 49.0757 76.7596Z"
        fill="#000C47" />
    </g>
    <path d="M34.8956 61.6567L51.6506 88.1005" stroke="#000C47" stroke-width="2.6492" />
    <g filter="url(#filter6_d_3521_17008)">
      <path
        d="M96.9103 88.769C103.156 89.4047 108.255 94.4477 107.886 100.715C107.858 101.197 107.822 101.663 107.777 102.105C107.732 102.547 107.673 103.011 107.604 103.488C106.702 109.701 100.692 113.613 94.446 112.978C88.1877 112.341 83.0836 107.279 83.4603 101C83.4885 100.529 83.5241 100.073 83.5681 99.6406C83.6121 99.2081 83.6691 98.7546 83.7363 98.2875C84.6327 92.061 90.6519 88.1319 96.9103 88.769Z"
        fill="#F1D801" />
      <path
        d="M109.094 102.239C109.047 102.703 108.986 103.186 108.914 103.678C107.893 110.717 101.132 114.99 94.3118 114.295C87.477 113.599 81.7113 108.032 82.1378 100.92C82.167 100.435 82.2042 99.9603 82.2504 99.5066C82.2965 99.0528 82.3557 98.5808 82.425 98.099C83.4402 91.0471 90.2095 86.7559 97.0443 87.4515C103.865 88.1458 109.626 93.6926 109.208 100.793C109.179 101.29 109.141 101.775 109.094 102.239Z"
        stroke="#000C47" stroke-width="2.6492" stroke-linejoin="round" />
    </g>
    <g clip-path="url(#clip7_3521_17008)">
      <path
        d="M100.049 95.9532L102.658 93.8305L101.59 92.5192L98.9509 94.6676C98.7692 94.5079 98.5807 94.3568 98.3819 94.2234C97.0111 93.3093 95.3264 93.1357 93.7977 93.7533C93.5761 93.8427 93.3625 93.9526 93.1513 94.072L91.0029 91.4335L89.6915 92.5009L91.8151 95.1088C91.2682 95.6673 90.8175 96.3325 90.4656 97.0793L87.3063 96.7553L87.1337 98.4376L89.0742 98.6366C88.9769 99.0473 88.8982 99.4659 88.8549 99.889C88.8111 100.315 88.8028 100.745 88.8145 101.169L86.874 100.97L86.7015 102.653L89.0172 102.89C89.0247 102.924 89.0279 102.959 89.0356 102.992C89.1459 103.475 89.2954 103.948 89.4822 104.398C89.5122 104.47 89.5487 104.536 89.5806 104.607L87.4198 106.366L88.4872 107.677L90.4441 106.083C90.6198 106.317 90.8032 106.544 91.0014 106.749C91.3224 107.083 91.674 107.377 92.0439 107.624C92.425 107.878 92.8311 108.086 93.2522 108.241C93.6863 108.401 94.1379 108.506 94.5963 108.553C95.0547 108.6 95.5183 108.589 95.9749 108.521C96.4185 108.455 96.8585 108.333 97.2832 108.162C97.6956 107.995 98.0995 107.778 98.4825 107.516C98.7183 107.355 98.9429 107.171 99.1616 106.977L100.755 108.935L102.066 107.868L100.308 105.707C100.354 105.644 100.403 105.585 100.447 105.521C100.721 105.119 100.964 104.687 101.169 104.236C101.183 104.204 101.194 104.171 101.208 104.139L103.524 104.377L103.697 102.694L101.756 102.495C101.853 102.081 101.932 101.66 101.976 101.234C102.019 100.811 102.027 100.385 102.016 99.9628L103.957 100.162L104.129 98.4804L100.97 98.1564C100.777 97.3538 100.47 96.6109 100.049 95.9532ZM93.0339 96.2784C93.4563 95.8475 93.927 95.526 94.4308 95.3218C95.4425 94.913 96.5367 95.0261 97.4429 95.6307C97.8955 95.933 98.2912 96.3433 98.6181 96.8519C98.8374 97.1915 99.0033 97.5714 99.1436 97.9692L92.2917 97.2665C92.5106 96.9056 92.7494 96.5663 93.0339 96.2784ZM100.294 101.062C100.249 101.501 100.169 101.937 100.054 102.358C99.9457 102.763 99.8031 103.159 99.6319 103.535C99.4662 103.899 99.2699 104.247 99.0506 104.57C98.8337 104.887 98.5946 105.179 98.3383 105.44C98.085 105.697 97.8124 105.927 97.5299 106.121C97.2467 106.314 96.9507 106.473 96.6492 106.595C96.3477 106.717 96.0373 106.802 95.7247 106.849C95.6902 106.853 95.6546 106.853 95.6201 106.857L96.1275 101.91L94.4452 101.737L93.938 106.684C93.9051 106.673 93.8701 106.666 93.8373 106.654C93.5417 106.545 93.2541 106.399 92.9836 106.218C92.7131 106.037 92.4556 105.821 92.2182 105.575C91.9793 105.327 91.7589 105.048 91.5632 104.744C91.3651 104.437 91.1904 104.102 91.0438 103.749C90.8939 103.388 90.7731 103.007 90.684 102.616C90.5927 102.213 90.5334 101.797 90.5086 101.376C90.4824 100.943 90.4921 100.501 90.5371 100.062C90.5807 99.6368 90.6587 99.2164 90.7666 98.8101L100.323 99.79C100.347 100.21 100.338 100.637 100.294 101.062Z"
        fill="#000C47" />
    </g>
    <path d="M83.8301 93.0142L105.979 109.636" stroke="#000C47" stroke-width="2.6492" />
    <g filter="url(#filter7_d_3521_17008)">
      <path
        d="M79.2491 106.885C87.3983 103.657 96.9594 106.629 100.532 114.633C100.806 115.248 101.061 115.849 101.29 116.425C101.518 117.002 101.744 117.615 101.965 118.251C104.842 126.53 99.9091 135.243 91.7599 138.47C83.5945 141.705 74.0151 138.714 70.4446 130.69C70.1768 130.088 69.9279 129.5 69.7044 128.936C69.4809 128.372 69.2599 127.773 69.043 127.151C66.1505 118.859 71.0838 110.119 79.2491 106.885Z"
        fill="#B980FF" />
      <path
        d="M102.521 115.938C102.757 116.535 102.99 117.165 103.216 117.816C106.368 126.883 100.934 136.261 92.2473 139.702C83.5432 143.149 73.1438 140.014 69.2342 131.228C68.9604 130.613 68.7046 130.008 68.4732 129.424C68.2418 128.84 68.014 128.224 67.7921 127.588C64.6251 118.508 70.0573 109.102 78.7612 105.654C87.4475 102.214 97.8294 105.327 101.742 114.093C102.022 114.722 102.284 115.34 102.521 115.938Z"
        stroke="#000C47" stroke-width="2.6492" stroke-linejoin="round" />
    </g>
    <g clip-path="url(#clip8_3521_17008)">
      <path
        d="M87.7558 113.768L89.6239 109.461L87.458 108.522L85.5684 112.881C85.2405 112.8 84.9098 112.734 84.5776 112.696C82.2912 112.445 80.0918 113.313 78.5943 115.061C78.3772 115.315 78.1831 115.588 77.9983 115.872L73.6393 113.983L72.7005 116.149L77.0089 118.016C76.6902 119.059 76.5594 120.174 76.6033 121.325L72.4798 122.955L73.3476 125.151L75.8803 124.15C76.0238 124.721 76.1955 125.291 76.4137 125.843C76.6337 126.4 76.8994 126.937 77.1868 127.455L74.6541 128.456L75.5219 130.652L78.5443 129.458C78.5755 129.495 78.6021 129.536 78.6328 129.572C79.08 130.1 79.5693 130.59 80.0901 131.027C80.1735 131.097 80.2616 131.156 80.3464 131.223L78.7994 134.792L80.9653 135.731L82.3658 132.498C82.734 132.675 83.1067 132.837 83.4845 132.964C84.097 133.172 84.7214 133.31 85.3387 133.378C85.9743 133.448 86.6116 133.445 87.2327 133.366C87.8736 133.285 88.5008 133.125 89.0991 132.888C89.6974 132.652 90.2647 132.34 90.7869 131.962C91.2943 131.595 91.7615 131.162 92.1776 130.676C92.5814 130.204 92.9424 129.676 93.2488 129.105C93.4374 128.754 93.5973 128.381 93.7439 128.001L96.9775 129.402L97.9163 127.236L94.3473 125.689C94.3642 125.581 94.3876 125.477 94.4008 125.369C94.4814 124.696 94.5048 124.004 94.4689 123.312C94.4662 123.264 94.4577 123.216 94.455 123.168L97.4785 121.973L96.6107 119.777L94.0768 120.779C93.9317 120.203 93.7587 119.63 93.5387 119.073C93.3204 118.521 93.0565 117.988 92.7714 117.473L95.3042 116.472L94.4368 114.277L90.3133 115.907C89.5579 115.036 88.7007 114.313 87.7558 113.768ZM79.2713 118.682C79.5177 117.876 79.8943 117.175 80.3873 116.598C81.3783 115.441 82.8071 114.878 84.3187 115.044C85.074 115.128 85.8281 115.382 86.5603 115.802C87.0504 116.082 87.5003 116.446 87.9298 116.849L78.9868 120.383C79.026 119.795 79.1038 119.221 79.2713 118.682ZM91.3445 119.942C91.571 120.515 91.7514 121.106 91.88 121.701C92.0059 122.274 92.0838 122.856 92.1134 123.432C92.1424 123.99 92.1228 124.548 92.0586 125.089C91.9935 125.621 91.8852 126.137 91.7355 126.625C91.5868 127.107 91.3966 127.566 91.1711 127.988C90.944 128.409 90.6796 128.797 90.3844 129.142C90.0892 129.487 89.7589 129.792 89.4019 130.051C89.3623 130.079 89.3179 130.102 89.2779 130.129L86.7257 123.671L84.53 124.539L87.0818 130.996C87.034 131.003 86.9861 131.017 86.9379 131.023C86.5012 131.078 86.0509 131.082 85.5995 131.032C85.1482 130.982 84.6902 130.88 84.2377 130.727C83.7822 130.573 83.3295 130.369 82.8914 130.118C82.4488 129.865 82.0169 129.563 81.6081 129.219C81.19 128.868 80.7957 128.474 80.434 128.047C80.0619 127.606 79.7205 127.128 79.4192 126.623C79.1085 126.103 78.8359 125.548 78.6094 124.975C78.3903 124.421 78.2166 123.85 78.0892 123.277L90.5619 118.347C90.8617 118.852 91.1254 119.387 91.3445 119.942Z"
        fill="#000C47" />
    </g>
    <path d="M65.7676 120.557L103.902 126.915" stroke="#000C47" stroke-width="2.6492" />
    <g filter="url(#filter8_d_3521_17008)">
      <path
        d="M74.1976 37.87C82.0911 31.7511 93.4973 31.9681 99.9471 39.5936C100.443 40.1795 100.912 40.7559 101.345 41.3148C101.779 41.8736 102.22 42.4721 102.664 43.0981C108.44 51.2452 105.807 62.3455 97.9137 68.4643C90.0045 74.5954 78.572 74.3628 72.1178 66.715C71.6337 66.1414 71.1748 65.5774 70.7512 65.0308C70.3275 64.4843 69.8957 63.8993 69.4608 63.2874C63.6635 55.1305 66.2884 44.001 74.1976 37.87Z"
        fill="#FF375B" />
      <path
        d="M102.392 40.5038C102.839 41.08 103.292 41.694 103.744 42.3323C110.003 51.1601 107.076 63.0388 98.7256 69.5116C90.3584 75.9976 78.0972 75.8543 71.1052 67.5692C70.6116 66.9843 70.1416 66.4058 69.7049 65.8425C69.2681 65.279 68.8246 64.679 68.3811 64.0551C62.1007 55.2184 65.0192 43.3094 73.3863 36.8233C81.7365 30.3505 93.97 30.4762 100.959 38.7387C101.464 39.3361 101.946 39.9277 102.392 40.5038Z"
        stroke="#000C47" stroke-width="2.6492" stroke-linejoin="round" />
    </g>
    <g clip-path="url(#clip9_3521_17008)">
      <path
        d="M85.6934 42.701L86.3705 37.3939L83.7023 37.054L83.0181 42.4244C82.6336 42.4396 82.2507 42.4724 81.8753 42.5367C79.2933 42.9873 77.1619 44.6353 76.078 47.0237C75.9208 47.3699 75.7952 47.7307 75.683 48.0999L70.3134 47.4168L69.9735 50.085L75.2808 50.7602C75.2633 52.0035 75.4738 53.2643 75.8874 54.5107L71.8921 57.603L73.5387 59.7305L75.9927 57.8311C76.331 58.4112 76.6997 58.9797 77.1138 59.5148C77.5312 60.0541 77.9925 60.5577 78.4716 61.034L76.0176 62.9333L77.6642 65.0607L80.5926 62.7942C80.6385 62.825 80.6808 62.862 80.7259 62.8917C81.3828 63.3273 82.0736 63.7077 82.7825 64.0215C82.896 64.0714 83.0111 64.1081 83.1251 64.1543L82.5649 68.551L85.2332 68.8909L85.7396 64.9083C86.1987 64.985 86.6581 65.0445 87.112 65.064C87.8481 65.0964 88.5751 65.049 89.2723 64.9279C89.9901 64.8026 90.6865 64.597 91.3411 64.3132C92.0168 64.0215 92.6523 63.647 93.232 63.1983C93.8117 62.7496 94.3336 62.2283 94.7851 61.6492C95.224 61.0867 95.5977 60.4641 95.8989 59.8006C96.191 59.1561 96.4184 58.4631 96.5726 57.7416C96.6676 57.2973 96.7241 56.8385 96.7639 56.3757L100.747 56.8832L101.087 54.215L96.6906 53.6548C96.6747 53.531 96.6672 53.4092 96.6473 53.2868C96.522 52.5249 96.3279 51.76 96.0691 51.0146C96.0508 50.9624 96.0264 50.9133 96.0081 50.8611L98.9376 48.5937L97.291 46.4663L94.8359 48.3665C94.4943 47.7822 94.1232 47.2104 93.7058 46.6711C93.2916 46.1361 92.8337 45.6367 92.3581 45.1628L94.812 43.2635L93.1663 41.1371L89.171 44.2294C88.0681 43.5165 86.9003 42.9967 85.6934 42.701ZM77.968 50.7708C77.9819 49.8109 78.1716 48.9242 78.528 48.1364C79.2452 46.5556 80.6299 45.4856 82.3371 45.1882C83.1902 45.0399 84.0961 45.0786 85.0307 45.3061C85.6559 45.4567 86.2638 45.7124 86.8617 46.0168L78.1967 52.7234C78.053 52.0675 77.9559 51.4146 77.968 50.7708ZM91.5802 48.318C92.01 48.8732 92.3951 49.4631 92.7248 50.0736C93.0442 50.6599 93.3142 51.2725 93.5294 51.8934C93.7384 52.4953 93.8939 53.1115 93.9952 53.7237C94.0929 54.3267 94.1383 54.926 94.1294 55.5079C94.1195 56.0819 94.0573 56.6454 93.9443 57.1785C93.8294 57.7114 93.6631 58.2194 93.4496 58.6908C93.2361 59.1622 92.9713 59.6002 92.6628 59.9972C92.6285 60.0407 92.5871 60.0796 92.552 60.1221L87.7094 53.8653L85.5819 55.5119L90.4237 61.7676C90.3738 61.791 90.3258 61.8213 90.275 61.8436C89.8145 62.0419 89.323 62.1892 88.8131 62.2777C88.3033 62.3661 87.7697 62.3998 87.2262 62.3766C86.6788 62.3529 86.1185 62.2728 85.5595 62.1374C84.9949 62.0012 84.4261 61.807 83.8698 61.5606C83.3007 61.3088 82.7442 61.003 82.2128 60.6505C81.6657 60.2865 81.1404 59.8715 80.6503 59.414C80.1454 58.9441 79.671 58.4234 79.2412 57.8682C78.8254 57.331 78.4541 56.7612 78.1328 56.1747L90.2176 46.8212C90.7059 47.2784 91.1645 47.7808 91.5802 48.318Z"
        fill="#000C47" />
    </g>
    <path d="M63.7833 57.1094L107.534 51.9644" stroke="#000C47" stroke-width="2.6492" />
    <g filter="url(#filter9_d_3521_17008)">
      <path
        d="M36.9135 42.4142C43.384 48.3269 44.8997 58.2236 39.2681 64.9403C38.8355 65.4564 38.4071 65.9486 37.9885 66.4067C37.5699 66.8648 37.1182 67.3357 36.6431 67.813C30.46 74.0256 20.467 73.4059 13.9965 67.4932C7.51309 61.5687 6.00692 51.6469 11.6571 44.9232C12.0809 44.4188 12.5001 43.9377 12.9095 43.4897C13.3189 43.0417 13.7604 42.5809 14.2245 42.1135C20.4131 35.8817 30.4301 36.4897 36.9135 42.4142Z"
        fill="#F1D801" />
      <path
        d="M38.9661 67.2999C38.5327 67.7743 38.0682 68.2594 37.5825 68.7475C30.8107 75.5515 20.0001 74.773 13.1031 68.4705C6.19209 62.1551 4.45631 51.433 10.6429 44.0708C11.0763 43.5551 11.5082 43.0603 11.932 42.5964C12.3559 42.1326 12.8099 41.658 13.2846 41.18C20.0607 34.3565 30.8955 35.1212 37.8066 41.4364C44.7036 47.7389 46.451 58.4357 40.2834 65.7918C39.8409 66.3195 39.3995 66.8256 38.9661 67.2999Z"
        stroke="#000C47" stroke-width="2.6492" stroke-linejoin="round" />
    </g>
    <g clip-path="url(#clip10_3521_17008)">
      <path
        d="M34.4508 53.0785L39.1416 52.8715L39.0371 50.5132L34.2905 50.7235C34.2199 50.3932 34.1344 50.067 34.0227 49.7519C33.2474 47.5862 31.5039 45.989 29.2765 45.4084C28.9536 45.3241 28.6228 45.2694 28.2867 45.2275L28.0757 40.4817L25.7174 40.5862L25.926 45.2769C24.8482 45.4475 23.7892 45.8177 22.773 46.3616L19.5021 43.3682L17.9082 45.1099L19.9172 46.9485C19.4661 47.3278 19.0295 47.7314 18.6286 48.1695C18.2245 48.611 17.8578 49.0851 17.5175 49.5706L15.5085 47.732L13.9145 49.4737L16.312 51.6678C16.2922 51.7121 16.2665 51.7542 16.2476 51.7976C15.969 52.4308 15.7431 53.085 15.5777 53.7449C15.5514 53.8505 15.5369 53.9556 15.514 54.061L11.6279 54.2332L11.7324 56.5915L15.2523 56.4347C15.2545 56.8432 15.2717 57.2494 15.3226 57.6448C15.4045 58.2863 15.554 58.908 15.7629 59.4928C15.9784 60.0949 16.2603 60.6664 16.6035 61.1902C16.9566 61.731 17.3754 62.2246 17.85 62.659C18.3246 63.0933 18.8534 63.4668 19.4216 63.7708C19.9737 64.0664 20.5679 64.2966 21.1867 64.458C21.7877 64.6144 22.421 64.7075 23.068 64.7331C23.4664 64.7489 23.8716 64.7293 24.2778 64.6946L24.4338 68.2153L26.7921 68.1109L26.62 64.2248C26.7246 64.1926 26.8288 64.168 26.9317 64.1325C27.5719 63.9103 28.2045 63.6283 28.8104 63.2931C28.8528 63.2695 28.8917 63.241 28.9341 63.2174L31.3324 65.4123L32.9264 63.6706L30.9164 61.8312C31.3707 61.4484 31.8098 61.0421 32.2138 60.6006C32.6147 60.1625 32.9782 59.6919 33.317 59.2098L35.326 61.0484L36.9192 59.3076L33.6483 56.3142C34.1001 55.2539 34.3753 54.1664 34.4508 53.0785ZM26.3181 47.6024C27.1503 47.4711 27.9455 47.5028 28.68 47.6933C30.1543 48.0775 31.2864 49.1153 31.7986 50.5473C32.0542 51.2629 32.156 52.0521 32.0989 52.8944C32.062 53.4575 31.9316 54.0214 31.7576 54.5839L24.6637 48.0918C25.2095 47.8696 25.7596 47.6882 26.3181 47.6024ZM30.4722 59.0083C30.0562 59.4629 29.6036 59.884 29.1248 60.2603C28.6655 60.6241 28.176 60.9491 27.6712 61.2279C27.1818 61.4986 26.6721 61.7251 26.1579 61.9041C25.6509 62.0786 25.1394 62.2074 24.6349 62.2866C24.137 62.3638 23.6403 62.3941 23.1624 62.376C22.6845 62.3563 22.2202 62.2883 21.7807 62.174C21.3411 62.0598 20.9228 61.8962 20.5334 61.6887C20.4906 61.6655 20.4509 61.6355 20.4089 61.6115L25.0966 56.4891L23.3549 54.8952L18.6679 60.0167C18.6403 59.977 18.6069 59.94 18.58 59.8994C18.3398 59.5307 18.1389 59.1277 17.9863 58.7C17.8337 58.2722 17.7249 57.8158 17.6638 57.3423C17.6026 56.8654 17.5881 56.3689 17.6218 55.8652C17.6552 55.3566 17.7382 54.8357 17.8682 54.3177C18.001 53.7879 18.1824 53.261 18.4078 52.7489C18.641 52.2214 18.9214 51.7051 19.2438 51.2129C19.5748 50.7061 19.9543 50.218 20.3703 49.7634C20.7728 49.3236 21.2101 48.9174 21.6694 48.552L31.5632 57.6064C31.2406 58.0969 30.8747 58.5685 30.4722 59.0083Z"
        fill="#000C47" />
    </g>
    <path d="M18.7205 36.2812L29.7035 73.3497" stroke="#000C47" stroke-width="2.6492" />
    <g filter="url(#filter10_d_3521_17008)">
      <path
        d="M218.395 8.61874C223.095 12.9134 224.196 20.1018 220.106 24.9803C219.791 25.3551 219.48 25.7127 219.176 26.0454C218.872 26.3781 218.544 26.7202 218.199 27.0669C213.708 31.5793 206.45 31.1292 201.75 26.8346C197.041 22.5314 195.947 15.3249 200.051 10.4411C200.359 10.0748 200.663 9.72538 200.96 9.39995C201.258 9.07453 201.578 8.73985 201.916 8.40034C206.411 3.87396 213.686 4.31559 218.395 8.61874Z"
        fill="#F1D801" />
      <path
        d="M220.113 26.9018C219.795 27.2502 219.454 27.6059 219.099 27.963C214.044 33.0419 206.002 32.4399 200.893 27.7718C195.774 23.0939 194.461 15.12 199.079 9.62426C199.396 9.24708 199.712 8.88402 200.023 8.5435C200.334 8.203 200.668 7.8558 201.015 7.50623C206.073 2.41262 214.133 3.00372 219.252 7.68149C224.36 12.3497 225.683 20.3045 221.079 25.7959C220.755 26.182 220.432 26.5535 220.113 26.9018Z"
        stroke="#000C47" stroke-width="2.53949" stroke-linejoin="round" />
    </g>
    <g clip-path="url(#clip11_3521_17008)">
      <path
        d="M216.607 16.3637L220.014 16.2134L219.938 14.5005L216.491 14.6532C216.439 14.4133 216.377 14.1763 216.296 13.9475C215.733 12.3745 214.467 11.2144 212.849 10.7927C212.614 10.7314 212.374 10.6917 212.13 10.6612L211.977 7.21423L210.264 7.29011L210.415 10.6972C209.632 10.821 208.863 11.09 208.125 11.485L205.749 9.31076L204.592 10.5758L206.051 11.9113C205.723 12.1868 205.406 12.48 205.115 12.7981C204.821 13.1188 204.555 13.4632 204.308 13.8158L202.849 12.4804L201.691 13.7454L203.432 15.3391C203.418 15.3713 203.399 15.4018 203.385 15.4334C203.183 15.8933 203.019 16.3685 202.899 16.8478C202.88 16.9245 202.869 17.0008 202.853 17.0774L200.03 17.2024L200.106 18.9154L202.663 18.8015C202.664 19.0982 202.677 19.3932 202.714 19.6804C202.773 20.1463 202.882 20.5979 203.033 21.0227C203.19 21.46 203.395 21.8751 203.644 22.2555C203.9 22.6483 204.205 23.0069 204.549 23.3224C204.894 23.6379 205.278 23.9091 205.691 24.13C206.092 24.3446 206.523 24.5118 206.973 24.6291C207.409 24.7426 207.869 24.8103 208.339 24.8289C208.629 24.8404 208.923 24.8261 209.218 24.8009L209.331 27.3582L211.044 27.2823L210.919 24.4597C210.995 24.4363 211.071 24.4184 211.146 24.3926C211.611 24.2312 212.07 24.0264 212.51 23.783C212.541 23.7658 212.569 23.7451 212.6 23.728L214.342 25.3222L215.5 24.0571L214.04 22.7211C214.37 22.4431 214.689 22.148 214.982 21.8273C215.274 21.5091 215.538 21.1673 215.784 20.8171L217.243 22.1526L218.4 20.8882L216.024 18.7139C216.352 17.9438 216.552 17.1539 216.607 16.3637ZM210.7 12.3863C211.305 12.2909 211.882 12.3139 212.416 12.4523C213.486 12.7313 214.309 13.4851 214.681 14.5252C214.866 15.045 214.94 15.6182 214.899 16.23C214.872 16.639 214.777 17.0486 214.651 17.4572L209.498 12.7417C209.895 12.5803 210.294 12.4485 210.7 12.3863ZM213.717 20.6708C213.415 21.0009 213.086 21.3068 212.739 21.5802C212.405 21.8444 212.05 22.0804 211.683 22.283C211.327 22.4796 210.957 22.644 210.584 22.7741C210.215 22.9008 209.844 22.9944 209.477 23.0519C209.116 23.108 208.755 23.13 208.408 23.1169C208.061 23.1025 207.724 23.0531 207.404 22.9701C207.085 22.8872 206.781 22.7683 206.498 22.6176C206.467 22.6008 206.438 22.579 206.408 22.5615L209.813 18.841L208.548 17.6832L205.143 21.4032C205.123 21.3743 205.099 21.3475 205.08 21.318C204.905 21.0502 204.759 20.7575 204.648 20.4468C204.537 20.1361 204.458 19.8046 204.414 19.4607C204.37 19.1143 204.359 18.7536 204.384 18.3878C204.408 18.0184 204.468 17.64 204.563 17.2638C204.659 16.879 204.791 16.4963 204.955 16.1243C205.124 15.7412 205.328 15.3662 205.562 15.0087C205.802 14.6406 206.078 14.2861 206.38 13.9559C206.672 13.6364 206.99 13.3414 207.324 13.076L214.51 19.6525C214.275 20.0088 214.01 20.3513 213.717 20.6708Z"
        fill="#000C47" />
    </g>
    <path d="M205.181 4.16406L213.158 31.0882" stroke="#000C47" stroke-width="2.53949" />
  </g>
  <g filter="url(#filter11_d_3521_17008)">
    <path
      d="M47.4768 120.481C51.4625 122.474 53.5784 127.104 51.7571 131.171C51.6172 131.484 51.4761 131.784 51.335 132.066C51.1939 132.348 51.0384 132.641 50.8723 132.941C48.7112 136.838 43.7379 137.923 39.7522 135.93C35.7585 133.933 33.6438 129.29 35.4732 125.216C35.6104 124.911 35.7486 124.617 35.8866 124.341C36.0246 124.065 36.1765 123.779 36.3386 123.486C38.4996 119.578 43.4831 118.484 47.4768 120.481Z"
      fill="#00AEF0" />
    <path
      d="M52.5195 132.658C52.3685 132.96 52.2042 133.27 52.0308 133.583C49.4651 138.21 43.6623 139.366 39.1598 137.115C34.6478 134.858 32.0936 129.507 34.2647 124.673C34.408 124.354 34.5543 124.044 34.7019 123.749C34.8494 123.454 35.01 123.15 35.1792 122.844C37.744 118.207 43.5571 117.041 48.069 119.297C52.5714 121.548 55.1282 126.884 52.9663 131.712C52.8201 132.038 52.6704 132.356 52.5195 132.658Z"
      stroke="#000C47" stroke-width="2.6492" stroke-linejoin="round" />
  </g>
  <g clip-path="url(#clip12_3521_17008)">
    <path
      d="M47.7541 126.037L50.0195 125.285L49.6408 124.146L47.3486 124.908C47.2682 124.756 47.1811 124.608 47.0827 124.47C46.4028 123.518 45.3282 122.979 44.1582 123.005C43.9886 123.008 43.8192 123.028 43.649 123.054L42.8866 120.762L41.7478 121.141L42.5013 123.406C41.9979 123.639 41.5314 123.967 41.11 124.374L39.0945 123.365L38.5569 124.438L39.7948 125.058C39.6269 125.306 39.4694 125.564 39.3342 125.834C39.1979 126.106 39.0844 126.389 38.9854 126.674L37.7475 126.054L37.2099 127.127L38.6871 127.867C38.6836 127.891 38.6769 127.915 38.6737 127.939C38.6253 128.288 38.6057 128.639 38.6165 128.985C38.6183 129.04 38.6258 129.093 38.6292 129.148L36.7526 129.772L37.1313 130.911L38.831 130.345C38.8888 130.545 38.9536 130.741 39.0334 130.927C39.1626 131.23 39.3221 131.513 39.5055 131.77C39.6945 132.035 39.9117 132.275 40.1523 132.483C40.4001 132.699 40.6735 132.882 40.9659 133.029C41.2584 133.175 41.5689 133.284 41.889 133.354C42.2 133.422 42.5226 133.452 42.8477 133.445C43.1633 133.438 43.486 133.396 43.806 133.318C44.003 133.271 44.1985 133.205 44.3923 133.131L44.9576 134.832L46.0965 134.453L45.4725 132.576C45.5192 132.546 45.5668 132.519 45.6122 132.488C45.8944 132.29 46.1646 132.064 46.4144 131.816C46.4319 131.799 46.4469 131.78 46.4644 131.762L47.9422 132.502L48.4798 131.429L47.2413 130.809C47.4103 130.559 47.5686 130.299 47.7049 130.027C47.8401 129.757 47.9525 129.476 48.0513 129.193L49.2892 129.814L49.8265 128.741L47.8111 127.731C47.8848 127.15 47.8683 126.58 47.7541 126.037ZM43.0161 124.489C43.4049 124.309 43.7982 124.214 44.1839 124.205C44.9582 124.188 45.6561 124.539 46.1055 125.168C46.3299 125.482 46.4893 125.854 46.5783 126.274C46.6385 126.554 46.6531 126.848 46.6461 127.148L42.275 124.958C42.511 124.773 42.7549 124.608 43.0161 124.489ZM46.632 129.49C46.4917 129.77 46.3288 130.039 46.1469 130.289C45.9728 130.531 45.7786 130.758 45.5704 130.965C45.3687 131.165 45.1508 131.346 44.9242 131.505C44.7005 131.661 44.4682 131.795 44.2325 131.904C43.9997 132.011 43.761 132.095 43.5248 132.152C43.2883 132.209 43.0518 132.24 42.8209 132.245C42.5901 132.251 42.3628 132.229 42.1435 132.181C42.1194 132.176 42.0958 132.167 42.0719 132.161L43.6531 129.005L42.5799 128.467L40.999 131.623C40.9799 131.607 40.9585 131.594 40.9397 131.578C40.771 131.431 40.6168 131.261 40.4827 131.073C40.3486 130.885 40.2321 130.677 40.1364 130.454C40.0402 130.229 39.9642 129.989 39.9107 129.738C39.8564 129.484 39.8247 129.218 39.8163 128.947C39.8076 128.669 39.8231 128.386 39.8623 128.104C39.903 127.814 39.9685 127.523 40.0578 127.237C40.1493 126.943 40.2671 126.652 40.4074 126.372C40.5431 126.101 40.7006 125.841 40.8745 125.599L46.9708 128.653C46.8812 128.938 46.7677 129.219 46.632 129.49Z"
      fill="#000C47" />
  </g>
  <path d="M37.7275 120.008L48.2476 136.611" stroke="#000C47" stroke-width="2.6492" />
  <g filter="url(#filter12_d_3521_17008)">
    <path
      d="M31.2761 102.379C37.6241 105.553 40.9939 112.927 38.0933 119.404C37.8704 119.902 37.6456 120.38 37.4209 120.829C37.1962 121.279 36.9485 121.746 36.6841 122.222C33.2422 128.429 25.3214 130.157 18.9734 126.983C12.6128 123.803 9.24477 116.408 12.1584 109.92C12.3769 109.434 12.597 108.966 12.8168 108.527C13.0366 108.087 13.2785 107.631 13.5367 107.164C16.9785 100.941 24.9155 99.1985 31.2761 102.379Z"
      fill="#FF375B" />
    <path
      d="M38.6055 121.421C38.371 121.89 38.1143 122.374 37.8425 122.864C33.996 129.801 25.2455 131.6 18.3807 128.168C11.5022 124.728 7.6947 116.626 10.9497 109.378C11.1743 108.878 11.4029 108.393 11.6323 107.934C11.8617 107.475 12.1121 107.002 12.3774 106.523C16.2228 99.5699 24.9892 97.755 31.868 101.194C38.7327 104.627 42.5436 112.706 39.3021 119.945C39.073 120.457 38.84 120.952 38.6055 121.421Z"
      stroke="#000C47" stroke-width="2.6492" stroke-linejoin="round" />
  </g>
  <g clip-path="url(#clip13_3521_17008)">
    <path
      d="M31.7153 111.229L35.3233 110.03L34.7202 108.216L31.0695 109.43C30.9414 109.188 30.8027 108.953 30.646 108.732C29.563 107.217 27.8516 106.359 25.9882 106.399C25.7181 106.405 25.4483 106.436 25.1773 106.477L23.963 102.827L22.1492 103.43L23.3494 107.038C22.5476 107.409 21.8046 107.932 21.1334 108.58L17.9234 106.972L17.0672 108.681L19.0388 109.669C18.7713 110.064 18.5205 110.475 18.3052 110.905C18.0881 111.339 17.9074 111.789 17.7497 112.242L15.7781 111.255L14.9218 112.964L17.2746 114.143C17.269 114.182 17.2583 114.22 17.2531 114.258C17.1762 114.813 17.145 115.372 17.1621 115.923C17.165 116.011 17.1769 116.096 17.1824 116.183L14.1936 117.177L14.7966 118.991L17.5037 118.09C17.5958 118.408 17.699 118.72 17.8262 119.017C18.0318 119.499 18.2858 119.95 18.5779 120.359C18.879 120.78 19.2249 121.163 19.6081 121.495C20.0028 121.838 20.4382 122.13 20.904 122.364C21.3698 122.597 21.8642 122.771 22.3741 122.882C22.8695 122.99 23.3833 123.038 23.901 123.027C24.4037 123.016 24.9176 122.948 25.4272 122.825C25.741 122.749 26.0523 122.644 26.361 122.527L27.2614 125.235L29.0752 124.632L28.0815 121.643C28.1559 121.595 28.2316 121.553 28.3039 121.502C28.7534 121.188 29.1837 120.828 29.5816 120.433C29.6094 120.405 29.6333 120.374 29.6611 120.347L32.0148 121.526L32.871 119.817L30.8986 118.828C31.1677 118.43 31.4198 118.016 31.6369 117.583C31.8523 117.153 32.0313 116.706 32.1885 116.256L34.1601 117.243L35.016 115.535L31.806 113.927C31.9234 113.001 31.8972 112.093 31.7153 111.229ZM24.1692 108.763C24.7884 108.476 25.4148 108.325 26.0291 108.311C27.2624 108.284 28.3738 108.842 29.0895 109.844C29.4469 110.345 29.7008 110.937 29.8427 111.606C29.9385 112.053 29.9617 112.521 29.9506 112.997L22.9888 109.51C23.3648 109.216 23.7531 108.953 24.1692 108.763ZM29.9281 116.728C29.7046 117.174 29.4452 117.602 29.1555 118.001C28.8782 118.386 28.5689 118.748 28.2373 119.076C27.916 119.396 27.5691 119.685 27.2081 119.938C26.8519 120.186 26.4819 120.399 26.1065 120.573C25.7357 120.743 25.3556 120.876 24.9793 120.968C24.6027 121.058 24.226 121.108 23.8584 121.116C23.4908 121.125 23.1287 121.09 22.7795 121.014C22.741 121.006 22.7034 120.991 22.6654 120.982L25.1837 115.955L23.4744 115.099L20.9566 120.125C20.9262 120.1 20.8921 120.078 20.8622 120.053C20.5935 119.819 20.3479 119.549 20.1344 119.25C19.9208 118.95 19.7351 118.619 19.5828 118.264C19.4296 117.906 19.3085 117.522 19.2233 117.122C19.1369 116.719 19.0863 116.295 19.073 115.862C19.0592 115.42 19.0839 114.97 19.1462 114.521C19.2111 114.059 19.3154 113.594 19.4576 113.14C19.6033 112.672 19.7909 112.208 20.0144 111.762C20.2306 111.33 20.4814 110.917 20.7583 110.531L30.4677 115.395C30.325 115.848 30.1443 116.296 29.9281 116.728Z"
      fill="#000C47" />
  </g>
  <path d="M15.748 101.625L32.503 128.069" stroke="#000C47" stroke-width="2.6492" />
  <g filter="url(#filter13_d_3521_17008)">
    <path
      d="M269.661 13.0032C277.472 9.90907 286.638 12.7574 290.062 20.4301C290.325 21.0196 290.569 21.5954 290.788 22.1484C291.008 22.7015 291.224 23.2884 291.436 23.8982C294.194 31.8347 289.465 40.1863 281.653 43.2805C273.826 46.3809 264.643 43.5139 261.221 35.8222C260.964 35.2452 260.725 34.682 260.511 34.1411C260.297 33.6002 260.085 33.0263 259.877 32.4301C257.105 24.4809 261.834 16.1036 269.661 13.0032Z"
      fill="#B980FF" />
    <path
      d="M291.969 21.6811C292.196 22.2537 292.418 22.8579 292.635 23.4814C295.656 32.1734 290.448 41.1632 282.121 44.4614C273.777 47.7661 263.808 44.7605 260.061 36.3386C259.798 35.7487 259.552 35.169 259.331 34.609C259.109 34.0491 258.891 33.4582 258.678 32.8485C255.642 24.1446 260.849 15.128 269.193 11.823C277.519 8.52493 287.471 11.5095 291.221 19.9123C291.49 20.5152 291.742 21.1084 291.969 21.6811Z"
      stroke="#000C47" stroke-width="2.53949" stroke-linejoin="round" />
  </g>
  <g clip-path="url(#clip14_3521_17008)">
    <path
      d="M277.815 19.6036L279.606 15.4742L277.529 14.5743L275.718 18.7531C275.404 18.6753 275.087 18.612 274.768 18.5761C272.577 18.335 270.468 19.1671 269.033 20.8429C268.825 21.0858 268.639 21.3479 268.461 21.62L264.283 19.8097L263.383 21.8859L267.513 23.6752C267.208 24.6756 267.082 25.7436 267.124 26.8477L263.172 28.4099L264.003 30.5147L266.431 29.5551C266.569 30.1031 266.733 30.6489 266.943 31.1782C267.153 31.7118 267.408 32.2268 267.684 32.7239L265.256 33.6834L266.088 35.7882L268.985 34.6431C269.015 34.6788 269.04 34.7186 269.07 34.7532C269.498 35.259 269.967 35.7283 270.467 36.1479C270.547 36.2149 270.631 36.2715 270.712 36.3355L269.229 39.7567L271.306 40.6567L272.648 37.5574C273.001 37.727 273.358 37.8827 273.721 38.0048C274.308 38.2035 274.906 38.3356 275.498 38.4011C276.107 38.4681 276.718 38.4652 277.314 38.3892C277.928 38.3119 278.529 38.1583 279.103 37.9316C279.676 37.7049 280.22 37.406 280.721 37.0439C281.207 36.6922 281.655 36.2768 282.054 35.8113C282.441 35.359 282.787 34.8523 283.08 34.3055C283.261 33.9687 283.414 33.6113 283.555 33.2467L286.655 34.5902L287.555 32.514L284.133 31.0311C284.15 30.9273 284.172 30.8272 284.185 30.7236C284.262 30.0786 284.284 29.4151 284.25 28.7522C284.247 28.7058 284.239 28.6603 284.237 28.6139L287.135 27.4684L286.303 25.3636L283.874 26.3236C283.735 25.7714 283.569 25.2225 283.358 24.6889C283.149 24.1596 282.896 23.6488 282.623 23.1545L285.051 22.1949L284.219 20.0912L280.267 21.6534C279.542 20.8189 278.721 20.1253 277.815 19.6036ZM269.682 24.3135C269.918 23.5411 270.279 22.8691 270.752 22.3161C271.702 21.2069 273.071 20.6669 274.52 20.8266C275.244 20.9067 275.967 21.1503 276.669 21.5531C277.139 21.8213 277.57 22.1704 277.982 22.5564L269.409 25.9447C269.447 25.381 269.521 24.8308 269.682 24.3135ZM281.255 25.5215C281.472 26.0708 281.645 26.6376 281.768 27.2082C281.889 27.7568 281.964 28.315 281.992 28.8671C282.02 29.4024 282.001 29.9367 281.94 30.4551C281.877 30.9653 281.773 31.4601 281.63 31.9281C281.487 32.3896 281.305 32.8304 281.089 33.2346C280.871 33.6382 280.618 34.0098 280.335 34.3406C280.052 34.6715 279.735 34.9633 279.393 35.2117C279.355 35.2389 279.312 35.2606 279.274 35.2867L276.827 29.0965L274.723 29.9284L277.169 36.1175C277.123 36.1247 277.077 36.1379 277.031 36.144C276.612 36.1963 276.181 36.2002 275.748 36.1522C275.315 36.1042 274.876 36.0064 274.443 35.8602C274.006 35.7128 273.572 35.5168 273.152 35.2764C272.728 35.034 272.314 34.7438 271.922 34.4144C271.521 34.0776 271.143 33.7001 270.796 33.2908C270.44 32.8684 270.112 32.41 269.824 31.9255C269.526 31.4276 269.264 30.8957 269.047 30.3463C268.837 29.8149 268.671 29.2674 268.549 28.7183L280.505 23.9928C280.792 24.4767 281.045 24.99 281.255 25.5215Z"
      fill="#000C47" />
  </g>
  <path d="M256.738 26.1074L293.294 32.2029" stroke="#000C47" stroke-width="2.53949" />
  <defs>
    <filter id="filter0_d_3521_17008" x="217.975" y="4.08936" width="33.338" height="34.3501"
      filterUnits="userSpaceOnUse" color-interpolation-filters="sRGB">
      <feFlood flood-opacity="0" result="BackgroundImageFix" />
      <feColorMatrix in="SourceAlpha" type="matrix"
        values="0 0 0 0 0 0 0 0 0 0 0 0 0 0 0 0 0 0 127 0" result="hardAlpha" />
      <feOffset dx="-1.35792" dy="2.71585" />
      <feComposite in2="hardAlpha" operator="out" />
      <feColorMatrix type="matrix" values="0 0 0 0 0 0 0 0 0 0.0470588 0 0 0 0 0.278431 0 0 0 1 0" />
      <feBlend mode="normal" in2="BackgroundImageFix" result="effect1_dropShadow_3521_17008" />
      <feBlend mode="normal" in="SourceGraphic" in2="effect1_dropShadow_3521_17008" result="shape" />
    </filter>
    <filter id="filter1_d_3521_17008" x="234.258" y="52.2012" width="23.334" height="24.4634"
      filterUnits="userSpaceOnUse" color-interpolation-filters="sRGB">
      <feFlood flood-opacity="0" result="BackgroundImageFix" />
      <feColorMatrix in="SourceAlpha" type="matrix"
        values="0 0 0 0 0 0 0 0 0 0 0 0 0 0 0 0 0 0 127 0" result="hardAlpha" />
      <feOffset dx="-1.35792" dy="2.71585" />
      <feComposite in2="hardAlpha" operator="out" />
      <feColorMatrix type="matrix" values="0 0 0 0 0 0 0 0 0 0.0470588 0 0 0 0 0.278431 0 0 0 1 0" />
      <feBlend mode="normal" in2="BackgroundImageFix" result="effect1_dropShadow_3521_17008" />
      <feBlend mode="normal" in="SourceGraphic" in2="effect1_dropShadow_3521_17008" result="shape" />
    </filter>
    <filter id="filter2_d_3521_17008" x="271.345" y="60.6992" width="29.8891" height="31.1275"
      filterUnits="userSpaceOnUse" color-interpolation-filters="sRGB">
      <feFlood flood-opacity="0" result="BackgroundImageFix" />
      <feColorMatrix in="SourceAlpha" type="matrix"
        values="0 0 0 0 0 0 0 0 0 0 0 0 0 0 0 0 0 0 127 0" result="hardAlpha" />
      <feOffset dx="-1.35792" dy="2.71585" />
      <feComposite in2="hardAlpha" operator="out" />
      <feColorMatrix type="matrix" values="0 0 0 0 0 0 0 0 0 0.0470588 0 0 0 0 0.278431 0 0 0 1 0" />
      <feBlend mode="normal" in2="BackgroundImageFix" result="effect1_dropShadow_3521_17008" />
      <feBlend mode="normal" in="SourceGraphic" in2="effect1_dropShadow_3521_17008" result="shape" />
    </filter>
    <filter id="filter3_d_3521_17008" x="192.931" y="59.3276" width="33.338" height="34.3501"
      filterUnits="userSpaceOnUse" color-interpolation-filters="sRGB">
      <feFlood flood-opacity="0" result="BackgroundImageFix" />
      <feColorMatrix in="SourceAlpha" type="matrix"
        values="0 0 0 0 0 0 0 0 0 0 0 0 0 0 0 0 0 0 127 0" result="hardAlpha" />
      <feOffset dx="-1.35792" dy="2.71585" />
      <feComposite in2="hardAlpha" operator="out" />
      <feColorMatrix type="matrix" values="0 0 0 0 0 0 0 0 0 0.0470588 0 0 0 0 0.278431 0 0 0 1 0" />
      <feBlend mode="normal" in2="BackgroundImageFix" result="effect1_dropShadow_3521_17008" />
      <feBlend mode="normal" in="SourceGraphic" in2="effect1_dropShadow_3521_17008" result="shape" />
    </filter>
    <filter id="filter4_d_3521_17008" x="246.781" y="76.9854" width="44.2721" height="45.398"
      filterUnits="userSpaceOnUse" color-interpolation-filters="sRGB">
      <feFlood flood-opacity="0" result="BackgroundImageFix" />
      <feColorMatrix in="SourceAlpha" type="matrix"
        values="0 0 0 0 0 0 0 0 0 0 0 0 0 0 0 0 0 0 127 0" result="hardAlpha" />
      <feOffset dx="-1.35792" dy="2.71585" />
      <feComposite in2="hardAlpha" operator="out" />
      <feColorMatrix type="matrix" values="0 0 0 0 0 0 0 0 0 0.0470588 0 0 0 0 0.278431 0 0 0 1 0" />
      <feBlend mode="normal" in2="BackgroundImageFix" result="effect1_dropShadow_3521_17008" />
      <feBlend mode="normal" in="SourceGraphic" in2="effect1_dropShadow_3521_17008" result="shape" />
    </filter>
    <filter id="filter5_d_3521_17008" x="26.1723" y="58.2124" width="34.7783" height="35.8337"
      filterUnits="userSpaceOnUse" color-interpolation-filters="sRGB">
      <feFlood flood-opacity="0" result="BackgroundImageFix" />
      <feColorMatrix in="SourceAlpha" type="matrix"
        values="0 0 0 0 0 0 0 0 0 0 0 0 0 0 0 0 0 0 127 0" result="hardAlpha" />
      <feOffset dx="-1.41659" dy="2.83317" />
      <feComposite in2="hardAlpha" operator="out" />
      <feColorMatrix type="matrix" values="0 0 0 0 0 0 0 0 0 0.0470588 0 0 0 0 0.278431 0 0 0 1 0" />
      <feBlend mode="normal" in2="BackgroundImageFix" result="effect1_dropShadow_3521_17008" />
      <feBlend mode="normal" in="SourceGraphic" in2="effect1_dropShadow_3521_17008" result="shape" />
    </filter>
    <filter id="filter6_d_3521_17008" x="79.3743" y="86.0537" width="31.1804" height="32.4723"
      filterUnits="userSpaceOnUse" color-interpolation-filters="sRGB">
      <feFlood flood-opacity="0" result="BackgroundImageFix" />
      <feColorMatrix in="SourceAlpha" type="matrix"
        values="0 0 0 0 0 0 0 0 0 0 0 0 0 0 0 0 0 0 127 0" result="hardAlpha" />
      <feOffset dx="-1.41659" dy="2.83317" />
      <feComposite in2="hardAlpha" operator="out" />
      <feColorMatrix type="matrix" values="0 0 0 0 0 0 0 0 0 0.0470588 0 0 0 0 0.278431 0 0 0 1 0" />
      <feBlend mode="normal" in2="BackgroundImageFix" result="effect1_dropShadow_3521_17008" />
      <feBlend mode="normal" in="SourceGraphic" in2="effect1_dropShadow_3521_17008" result="shape" />
    </filter>
    <filter id="filter7_d_3521_17008" x="64.1358" y="102.961" width="41.3125" height="42.2663"
      filterUnits="userSpaceOnUse" color-interpolation-filters="sRGB">
      <feFlood flood-opacity="0" result="BackgroundImageFix" />
      <feColorMatrix in="SourceAlpha" type="matrix"
        values="0 0 0 0 0 0 0 0 0 0 0 0 0 0 0 0 0 0 127 0" result="hardAlpha" />
      <feOffset dx="-1.41659" dy="2.83317" />
      <feComposite in2="hardAlpha" operator="out" />
      <feColorMatrix type="matrix" values="0 0 0 0 0 0 0 0 0 0.0470588 0 0 0 0 0.278431 0 0 0 1 0" />
      <feBlend mode="normal" in2="BackgroundImageFix" result="effect1_dropShadow_3521_17008" />
      <feBlend mode="normal" in="SourceGraphic" in2="effect1_dropShadow_3521_17008" result="shape" />
    </filter>
    <filter id="filter8_d_3521_17008" x="62.2531" y="30.9048" width="46.1847" height="47.359"
      filterUnits="userSpaceOnUse" color-interpolation-filters="sRGB">
      <feFlood flood-opacity="0" result="BackgroundImageFix" />
      <feColorMatrix in="SourceAlpha" type="matrix"
        values="0 0 0 0 0 0 0 0 0 0 0 0 0 0 0 0 0 0 127 0" result="hardAlpha" />
      <feOffset dx="-1.41659" dy="2.83317" />
      <feComposite in2="hardAlpha" operator="out" />
      <feColorMatrix type="matrix" values="0 0 0 0 0 0 0 0 0 0.0470588 0 0 0 0 0.278431 0 0 0 1 0" />
      <feBlend mode="normal" in2="BackgroundImageFix" result="effect1_dropShadow_3521_17008" />
      <feBlend mode="normal" in="SourceGraphic" in2="effect1_dropShadow_3521_17008" result="shape" />
    </filter>
    <filter id="filter9_d_3521_17008" x="4.09318" y="35.0483" width="41.3045" height="42.6423"
      filterUnits="userSpaceOnUse" color-interpolation-filters="sRGB">
      <feFlood flood-opacity="0" result="BackgroundImageFix" />
      <feColorMatrix in="SourceAlpha" type="matrix"
        values="0 0 0 0 0 0 0 0 0 0 0 0 0 0 0 0 0 0 127 0" result="hardAlpha" />
      <feOffset dx="-1.41659" dy="2.83317" />
      <feComposite in2="hardAlpha" operator="out" />
      <feColorMatrix type="matrix" values="0 0 0 0 0 0 0 0 0 0.0470588 0 0 0 0 0.278431 0 0 0 1 0" />
      <feBlend mode="normal" in2="BackgroundImageFix" result="effect1_dropShadow_3521_17008" />
      <feBlend mode="normal" in="SourceGraphic" in2="effect1_dropShadow_3521_17008" result="shape" />
    </filter>
    <filter id="filter10_d_3521_17008" x="193.612" y="2.65332" width="31.5626" height="32.8614"
      filterUnits="userSpaceOnUse" color-interpolation-filters="sRGB">
      <feFlood flood-opacity="0" result="BackgroundImageFix" />
      <feColorMatrix in="SourceAlpha" type="matrix"
        values="0 0 0 0 0 0 0 0 0 0 0 0 0 0 0 0 0 0 127 0" result="hardAlpha" />
      <feOffset dx="-1.35792" dy="2.71585" />
      <feComposite in2="hardAlpha" operator="out" />
      <feColorMatrix type="matrix" values="0 0 0 0 0 0 0 0 0 0.0470588 0 0 0 0 0.278431 0 0 0 1 0" />
      <feBlend mode="normal" in2="BackgroundImageFix" result="effect1_dropShadow_3521_17008" />
      <feBlend mode="normal" in="SourceGraphic" in2="effect1_dropShadow_3521_17008" result="shape" />
    </filter>
    <filter id="filter11_d_3521_17008" x="30.7334" y="116.862" width="24.3421" height="25.5202"
      filterUnits="userSpaceOnUse" color-interpolation-filters="sRGB">
      <feFlood flood-opacity="0" result="BackgroundImageFix" />
      <feColorMatrix in="SourceAlpha" type="matrix"
        values="0 0 0 0 0 0 0 0 0 0 0 0 0 0 0 0 0 0 127 0" result="hardAlpha" />
      <feOffset dx="-1.41659" dy="2.83317" />
      <feComposite in2="hardAlpha" operator="out" />
      <feColorMatrix type="matrix" values="0 0 0 0 0 0 0 0 0 0.0470588 0 0 0 0 0.278431 0 0 0 1 0" />
      <feBlend mode="normal" in2="BackgroundImageFix" result="effect1_dropShadow_3521_17008" />
      <feBlend mode="normal" in="SourceGraphic" in2="effect1_dropShadow_3521_17008" result="shape" />
    </filter>
    <filter id="filter12_d_3521_17008" x="7.0247" y="98.1807" width="34.7783" height="35.8337"
      filterUnits="userSpaceOnUse" color-interpolation-filters="sRGB">
      <feFlood flood-opacity="0" result="BackgroundImageFix" />
      <feColorMatrix in="SourceAlpha" type="matrix"
        values="0 0 0 0 0 0 0 0 0 0 0 0 0 0 0 0 0 0 127 0" result="hardAlpha" />
      <feOffset dx="-1.41659" dy="2.83317" />
      <feComposite in2="hardAlpha" operator="out" />
      <feColorMatrix type="matrix" values="0 0 0 0 0 0 0 0 0 0.0470588 0 0 0 0 0.278431 0 0 0 1 0" />
      <feBlend mode="normal" in2="BackgroundImageFix" result="effect1_dropShadow_3521_17008" />
      <feBlend mode="normal" in="SourceGraphic" in2="effect1_dropShadow_3521_17008" result="shape" />
    </filter>
    <filter id="filter13_d_3521_17008" x="255.173" y="9.24219" width="39.6018" height="40.5157"
      filterUnits="userSpaceOnUse" color-interpolation-filters="sRGB">
      <feFlood flood-opacity="0" result="BackgroundImageFix" />
      <feColorMatrix in="SourceAlpha" type="matrix"
        values="0 0 0 0 0 0 0 0 0 0 0 0 0 0 0 0 0 0 127 0" result="hardAlpha" />
      <feOffset dx="-1.35792" dy="2.71585" />
      <feComposite in2="hardAlpha" operator="out" />
      <feColorMatrix type="matrix" values="0 0 0 0 0 0 0 0 0 0.0470588 0 0 0 0 0.278431 0 0 0 1 0" />
      <feBlend mode="normal" in2="BackgroundImageFix" result="effect1_dropShadow_3521_17008" />
      <feBlend mode="normal" in="SourceGraphic" in2="effect1_dropShadow_3521_17008" result="shape" />
    </filter>
    <clipPath id="clip0_3521_17008">
      <rect width="300" height="144" rx="72" fill="white" />
    </clipPath>
    <clipPath id="clip1_3521_17008">
      <rect width="21.9908" height="21.9908" fill="white"
        transform="translate(230.478 4.32422) rotate(26.6089)" />
    </clipPath>
    <clipPath id="clip2_3521_17008">
      <rect width="13.8076" height="13.8076" fill="white"
        transform="translate(243.563 53.291) rotate(26.6089)" />
    </clipPath>
    <clipPath id="clip3_3521_17008">
      <rect width="19.4528" height="19.4528" fill="white"
        transform="translate(278.079 63.5332) rotate(5.85498)" />
    </clipPath>
    <clipPath id="clip4_3521_17008">
      <rect width="21.9908" height="21.9908" fill="white"
        transform="translate(205.435 59.5625) rotate(26.6089)" />
    </clipPath>
    <clipPath id="clip5_3521_17008">
      <rect width="30.9455" height="30.9455" fill="white"
        transform="translate(246.878 94.9805) rotate(-37.7393)" />
    </clipPath>
    <clipPath id="clip6_3521_17008">
      <rect width="22.9408" height="22.9408" fill="white"
        transform="translate(39.2159 58.4556) rotate(26.6089)" />
    </clipPath>
    <clipPath id="clip7_3521_17008">
      <rect width="20.2932" height="20.2932" fill="white"
        transform="translate(86.4004 89.0122) rotate(5.85498)" />
    </clipPath>
    <clipPath id="clip8_3521_17008">
      <rect width="28.3317" height="28.3317" fill="white"
        transform="translate(66.3799 113.941) rotate(-21.5656)" />
    </clipPath>
    <clipPath id="clip9_3521_17008">
      <rect width="32.2824" height="32.2824" fill="white"
        transform="translate(62.3546 49.6777) rotate(-37.7393)" />
    </clipPath>
    <clipPath id="clip10_3521_17008">
      <rect width="28.3317" height="28.3317" fill="white"
        transform="translate(24.9343 33.9355) rotate(42.4636)" />
    </clipPath>
    <clipPath id="clip11_3521_17008">
      <rect width="20.5783" height="20.5783" fill="white"
        transform="translate(209.694 2.46094) rotate(42.4636)" />
    </clipPath>
    <clipPath id="clip12_3521_17008">
      <rect width="14.404" height="14.404" fill="white"
        transform="translate(40.4404 117.998) rotate(26.6089)" />
    </clipPath>
    <clipPath id="clip13_3521_17008">
      <rect width="22.9408" height="22.9408" fill="white"
        transform="translate(20.0684 98.4238) rotate(26.6089)" />
    </clipPath>
    <clipPath id="clip14_3521_17008">
      <rect width="27.1585" height="27.1585" fill="white"
        transform="translate(257.324 19.7676) rotate(-21.5656)" />
    </clipPath>
  </defs>
</svg>