<svg width="40" height="56" viewBox="0 0 40 56" fill="none" xmlns="http://www.w3.org/2000/svg">
  <g clip-path="url(#clip0_1382_738)">
    <rect width="40" height="56" fill="#00AEF0" />
    <path
      d="M27.726 -20.2013L15.7833 -4.70156C15.6411 -4.51698 15.5699 -4.42468 15.4664 -4.39277C15.3628 -4.36085 15.252 -4.39711 15.0306 -4.46963L-2.76124 -10.2965C-3.02718 -10.3836 -3.16015 -10.4271 -3.27695 -10.3786C-3.39375 -10.3301 -3.45674 -10.2052 -3.58271 -9.95529L-10.71 4.183C-10.7777 4.31732 -10.8116 4.38447 -10.8681 4.43046C-10.9247 4.47645 -10.9973 4.49592 -11.1426 4.53485L-34.1187 10.6913C-34.6914 10.8447 -34.9777 10.9214 -35.0203 11.1274C-35.0628 11.3334 -34.8304 11.5174 -34.3654 11.8852L-21.7743 21.846C-21.4969 22.0655 -21.3582 22.1752 -21.3485 22.3267C-21.3388 22.4783 -21.4624 22.6048 -21.7097 22.8578L-31.7856 33.1682C-32.0745 33.4638 -32.2189 33.6116 -32.1938 33.7793C-32.1686 33.947 -31.9872 34.046 -31.6243 34.2439L-19.1115 41.0675C-18.8793 41.1941 -18.7633 41.2574 -18.7172 41.369C-18.6712 41.4806 -18.7088 41.6073 -18.7842 41.8607L-22.6225 54.7766C-22.7473 55.1965 -22.8097 55.4064 -22.701 55.5451C-22.5922 55.6838 -22.3735 55.6733 -21.9359 55.6523L-4.25933 54.8044C-4.02982 54.7933 -3.91506 54.7878 -3.82436 54.8448C-3.73366 54.9017 -3.68872 55.0074 -3.59883 55.2189L1.75593 67.8166C1.89392 68.1412 1.96292 68.3036 2.10615 68.3531C2.24938 68.4026 2.40388 68.3175 2.71287 68.1472L19.8698 58.6966C20.0424 58.6015 20.1287 58.5539 20.2222 58.5569C20.3156 58.5598 20.3988 58.6127 20.5651 58.7185L34.1217 67.3416C34.4397 67.5438 34.5987 67.645 34.7503 67.5971C34.9019 67.5492 34.974 67.3751 35.1181 67.0269L42.6997 48.7138C42.7886 48.4989 42.8331 48.3915 42.9245 48.3336C43.016 48.2758 43.1321 48.2817 43.3643 48.2934L60.2491 49.1457C60.6766 49.1673 60.8903 49.1781 60.9994 49.0431C61.1086 48.9081 61.0532 48.7013 60.9424 48.2879L57.7893 36.5203C57.6973 36.1772 57.6514 36.0057 57.7346 35.8781C57.8179 35.7505 57.9934 35.7235 58.3445 35.6695L79.1007 32.4774C79.4858 32.4182 79.6783 32.3885 79.7603 32.2479C79.8422 32.1072 79.773 31.9251 79.6347 31.5609L74.7092 18.5928C74.6274 18.3775 74.5865 18.2698 74.6127 18.1658C74.6389 18.0617 74.7259 17.9862 74.8999 17.8353L84.7895 9.25604C85.1526 8.94103 85.3342 8.78352 85.3069 8.59862C85.2797 8.41372 85.0604 8.31529 84.6218 8.11841L72.3447 2.60694C72.1358 2.51316 72.0313 2.46627 71.9762 2.37481C71.9211 2.28335 71.9285 2.16909 71.9433 1.94056L72.5715 -7.7688C72.5958 -8.14381 72.6079 -8.33132 72.4934 -8.44116C72.3789 -8.551 72.1921 -8.53105 71.8184 -8.49116L60.8084 -7.31576C60.4686 -7.27948 60.2986 -7.26134 60.1866 -7.35808C60.0746 -7.45483 60.0679 -7.62557 60.0544 -7.96707L59.5138 -21.6144L59.5138 -21.6145C59.4912 -22.1851 59.4799 -22.4704 59.2935 -22.5589C59.1072 -22.6474 58.8789 -22.4759 58.4224 -22.1328L42.2415 -9.97546C42.0368 -9.82168 41.9345 -9.74479 41.817 -9.74702C41.6996 -9.74925 41.6002 -9.82997 41.4015 -9.99141L28.6965 -20.3143L28.6965 -20.3143C28.441 -20.522 28.3132 -20.6258 28.1703 -20.6091C28.0274 -20.5925 27.927 -20.4621 27.726 -20.2013L27.726 -20.2013Z"
      fill="url(#paint0_radial_1382_738)" fill-opacity="0.2" />
    <path
      d="M28.1836 -20.495C28.2194 -20.4991 28.2611 -20.4908 28.3318 -20.4477C28.4053 -20.4029 28.4939 -20.3305 28.624 -20.2248L41.3291 -9.90256C41.4262 -9.82367 41.5068 -9.75765 41.5782 -9.7125C41.6523 -9.66571 41.7276 -9.63405 41.815 -9.63239C41.9023 -9.63078 41.9781 -9.6596 42.0538 -9.70345C42.127 -9.74585 42.2108 -9.80833 42.3109 -9.88354L58.4909 -22.0412C58.7222 -22.2149 58.8856 -22.337 59.0138 -22.4067C59.1421 -22.4765 59.2025 -22.4752 59.2444 -22.4554C59.2862 -22.4355 59.3249 -22.3898 59.3519 -22.2466C59.3789 -22.1032 59.3876 -21.8993 59.3991 -21.6102L59.9399 -7.96286C59.9465 -7.79547 59.9514 -7.65755 59.9705 -7.55049C59.9902 -7.44021 60.0281 -7.34358 60.1122 -7.27098C60.1961 -7.19866 60.2967 -7.17587 60.4085 -7.17244C60.5171 -7.16913 60.6538 -7.18411 60.8202 -7.20187L71.8307 -8.3768C72.0209 -8.39711 72.1514 -8.41139 72.249 -8.408C72.3435 -8.4047 72.3858 -8.38522 72.414 -8.35819C72.4422 -8.33115 72.4626 -8.28935 72.4698 -8.1952C72.4772 -8.0978 72.4691 -7.96692 72.4567 -7.77617L71.8291 1.93292C71.8219 2.04462 71.8151 2.13832 71.8187 2.21475C71.8224 2.29394 71.8367 2.36669 71.8776 2.43454C71.9185 2.50235 71.976 2.54873 72.0443 2.58903C72.1102 2.62787 72.1955 2.66549 72.2975 2.71126L84.5751 8.22336C84.7976 8.32325 84.9527 8.39265 85.0569 8.45925C85.1594 8.52484 85.1874 8.57217 85.1938 8.61566C85.2001 8.65903 85.1865 8.71157 85.1077 8.80353C85.0271 8.8974 84.8989 9.00973 84.7144 9.16974L74.8243 17.7484C74.7394 17.822 74.669 17.8839 74.6169 17.9404C74.5629 17.9991 74.5206 18.061 74.5011 18.1383C74.4818 18.2154 74.4899 18.2894 74.5097 18.3665C74.5289 18.4409 74.5617 18.529 74.6016 18.634L79.5271 31.6019C79.5975 31.7871 79.6455 31.9144 79.6676 32.0131C79.689 32.1084 79.6813 32.1553 79.6614 32.1897C79.6413 32.2241 79.6044 32.2551 79.5106 32.2837C79.4139 32.3131 79.2792 32.3337 79.0832 32.3638L58.3271 35.5556C58.1549 35.5821 58.0135 35.6038 57.9058 35.6361C57.7952 35.6693 57.7009 35.7192 57.6383 35.815C57.5758 35.9108 57.5677 36.0176 57.5818 36.1324C57.5956 36.2439 57.6336 36.382 57.6786 36.5503L60.8317 48.3178C60.888 48.528 60.9264 48.6735 60.9393 48.7833C60.9518 48.8905 60.936 48.9387 60.9098 48.9712C60.8834 49.0036 60.8398 49.0287 60.7328 49.0389C60.6226 49.0494 60.4721 49.0425 60.2546 49.0315L43.3698 48.1792C43.2566 48.1735 43.1623 48.1679 43.085 48.1726C43.0048 48.1776 42.9312 48.1933 42.8634 48.2361L42.8636 48.237C42.7957 48.28 42.7496 48.339 42.7106 48.4094C42.6732 48.4773 42.637 48.5653 42.5935 48.6703L35.0124 66.983C34.9389 67.1604 34.8879 67.282 34.8381 67.3664C34.79 67.4477 34.753 67.4753 34.7157 67.4871C34.6784 67.4989 34.6318 67.4981 34.5454 67.4589C34.4562 67.4185 34.3455 67.3474 34.1836 67.2445L20.6266 58.6216C20.5455 58.57 20.4777 58.5265 20.4182 58.4965C20.3563 58.4653 20.2949 58.4441 20.2257 58.4419C20.1565 58.4398 20.0943 58.4569 20.0307 58.484C19.9693 58.5102 19.8983 58.5493 19.8139 58.5957L2.65783 68.0465C2.50035 68.1333 2.3924 68.1928 2.30646 68.2256C2.22382 68.2572 2.17933 68.2571 2.14381 68.2449C2.10825 68.2326 2.07331 68.2045 2.02767 68.1284C1.9804 68.0496 1.93154 67.9369 1.8613 67.7717L-3.49292 55.1735C-3.53679 55.0703 -3.57354 54.9838 -3.61118 54.917C-3.65024 54.8478 -3.69647 54.7898 -3.76374 54.7476C-3.83104 54.7054 -3.90335 54.69 -3.98273 54.685C-4.05922 54.6801 -4.15258 54.6843 -4.26454 54.6897L-21.9413 55.5378C-22.1638 55.5485 -22.3182 55.5557 -22.4308 55.5446C-22.5403 55.5338 -22.5843 55.5076 -22.6104 55.4745C-22.6364 55.4412 -22.6511 55.3922 -22.6354 55.283C-22.6193 55.171 -22.576 55.0228 -22.5126 54.8093L-18.6739 41.8933C-18.6372 41.7695 -18.6063 41.6668 -18.5918 41.5811C-18.5768 41.4923 -18.5766 41.4084 -18.6108 41.3253C-18.6451 41.2422 -18.7049 41.183 -18.7782 41.1306C-18.849 41.08 -18.9433 41.0285 -19.0567 40.9666L-31.5693 34.1435C-31.754 34.0428 -31.8814 33.9726 -31.967 33.9083C-32.0498 33.8461 -32.0736 33.8032 -32.0798 33.7627C-32.0859 33.7221 -32.076 33.6736 -32.015 33.5896C-31.952 33.5031 -31.8501 33.3986 -31.7031 33.2482L-21.6279 22.9377C-21.5067 22.8136 -21.4069 22.7122 -21.3404 22.6221C-21.2721 22.5293 -21.2262 22.4333 -21.2335 22.3194C-21.2408 22.2055 -21.2984 22.1159 -21.3781 22.0326C-21.4555 21.9517 -21.567 21.8633 -21.703 21.7557L-34.294 11.7952C-34.5295 11.6089 -34.6963 11.4768 -34.8001 11.3667C-34.904 11.2563 -34.9169 11.1964 -34.9075 11.1508C-34.898 11.1051 -34.8623 11.0554 -34.7227 10.9951C-34.5838 10.9352 -34.379 10.8798 -34.089 10.8021L-11.1133 4.64576C-10.9779 4.60947 -10.8754 4.5842 -10.7954 4.51913C-10.7156 4.45406 -10.6709 4.35933 -10.6079 4.23432L-3.48024 -9.90371C-3.41603 -10.0311 -3.37242 -10.117 -3.33135 -10.1782C-3.29219 -10.2364 -3.26274 -10.2598 -3.23321 -10.2722C-3.20353 -10.2845 -3.16577 -10.2888 -3.09658 -10.2754C-3.02431 -10.2614 -2.93256 -10.2322 -2.7971 -10.1879L14.995 -4.36085C15.1033 -4.32541 15.1934 -4.29547 15.2695 -4.27972C15.3484 -4.26339 15.4233 -4.25919 15.5002 -4.28289C15.5771 -4.30659 15.6365 -4.35233 15.6925 -4.41025C15.7466 -4.4661 15.8043 -4.54151 15.8738 -4.63171L27.8171 -20.1309C27.9195 -20.2637 27.9892 -20.3543 28.0504 -20.4148C28.1093 -20.473 28.1479 -20.4908 28.1836 -20.495Z"
      stroke="white" stroke-opacity="0.3" stroke-width="0.229576" />
    <path
      d="M27.5097 -5.86487L19.0168 4.95674C18.8754 5.13688 18.8047 5.22696 18.7027 5.25837C18.6006 5.28979 18.4915 5.25507 18.2733 5.18564L5.69757 1.18435C5.43529 1.1009 5.30416 1.05917 5.18892 1.10699C5.07368 1.15481 5.0106 1.27711 4.88445 1.52173L-0.205544 11.3914C-0.273662 11.5235 -0.307722 11.5895 -0.363836 11.6347C-0.419951 11.6799 -0.491725 11.6992 -0.635276 11.7376L-16.8108 16.0719C-17.389 16.2268 -17.6781 16.3043 -17.72 16.5115C-17.7619 16.7187 -17.5255 16.9023 -17.0527 17.2695L-8.4814 23.9272C-8.19768 24.1476 -8.05582 24.2578 -8.04596 24.411C-8.03611 24.5643 -8.16269 24.6918 -8.41586 24.9467L-15.3866 31.9652C-15.6826 32.2632 -15.8306 32.4122 -15.8051 32.5817C-15.7796 32.7512 -15.5943 32.8501 -15.2236 33.0478L-6.58592 37.6551C-6.34869 37.7816 -6.23007 37.8449 -6.18334 37.958C-6.13661 38.0711 -6.17597 38.1997 -6.2547 38.4568L-8.93919 47.223C-9.06891 47.6466 -9.13378 47.8584 -9.02455 47.9984C-8.91532 48.1384 -8.69409 48.1269 -8.25163 48.104L4.11976 47.4633C4.34951 47.4514 4.46438 47.4454 4.55536 47.5021C4.64634 47.5588 4.69161 47.6646 4.78215 47.8761L8.47313 56.4976C8.6111 56.8198 8.68009 56.981 8.82262 57.0304C8.96514 57.0798 9.11904 56.9958 9.42683 56.828L21.5894 50.196C21.7599 50.103 21.8451 50.0565 21.9373 50.0592C22.0295 50.0619 22.1119 50.1132 22.2767 50.2159L22.2767 50.2159L31.7737 56.1343C32.0882 56.3303 32.2455 56.4283 32.3953 56.381C32.5451 56.3336 32.6176 56.1631 32.7624 55.8219L38.1689 43.0869C38.2584 42.8759 38.3032 42.7704 38.3936 42.7135C38.484 42.6565 38.5985 42.6617 38.8275 42.672L50.6505 43.2051C51.076 43.2243 51.2887 43.2339 51.3971 43.0991C51.5055 42.9642 51.4504 42.7585 51.3401 42.3471L49.2252 34.4542C49.1334 34.1117 49.0876 33.9404 49.1706 33.813C49.2536 33.6855 49.4288 33.6582 49.7791 33.6036L64.3583 31.3317C64.7432 31.2717 64.9357 31.2418 65.0174 31.101C65.099 30.9602 65.0295 30.7782 64.8905 30.4143L61.5107 21.5658L61.5107 21.5658C61.4278 21.3487 61.3863 21.2401 61.413 21.1353C61.4397 21.0305 61.528 20.955 61.7047 20.8039L68.537 14.9631C68.9082 14.6457 69.0939 14.487 69.0662 14.3003C69.0385 14.1137 68.8148 14.0157 68.3675 13.8197L59.9325 10.1245C59.7196 10.0312 59.6132 9.98457 59.5572 9.89203C59.5013 9.79948 59.5094 9.68356 59.5258 9.45172L59.9852 2.92555C60.0118 2.54776 60.0251 2.35887 59.9101 2.24826C59.7951 2.13764 59.6068 2.15827 59.2304 2.19953L51.7022 3.02461C51.3603 3.06208 51.1894 3.08081 51.0769 2.98355C50.9645 2.88629 50.9584 2.71445 50.9461 2.37077L50.6215 -6.74915C50.6013 -7.31846 50.5912 -7.60311 50.4055 -7.69245C50.2199 -7.78179 49.9911 -7.61215 49.5335 -7.27287L38.1956 1.1333C37.9929 1.28355 37.8916 1.35868 37.7756 1.35662C37.6596 1.35456 37.561 1.27588 37.3638 1.11853L28.4719 -5.97692C28.2186 -6.17899 28.092 -6.28002 27.9509 -6.26358C27.8098 -6.24714 27.7098 -6.11972 27.5097 -5.86487Z"
      fill="url(#paint1_radial_1382_738)" fill-opacity="0.2" />
    <path
      d="M27.964 -6.14994C27.9994 -6.15406 28.041 -6.14522 28.1109 -6.10338C28.1836 -6.05979 28.2717 -5.98957 28.4005 -5.88676L37.2917 1.20808C37.3881 1.28502 37.4686 1.34941 37.5395 1.39342C37.613 1.43904 37.6874 1.46967 37.7737 1.4712C37.8599 1.4727 37.9349 1.44474 38.0099 1.40185C38.0823 1.36039 38.1648 1.29906 38.2639 1.2256L49.6015 -7.18076C49.8333 -7.35265 49.997 -7.47382 50.1253 -7.54253C50.2535 -7.61114 50.3138 -7.60901 50.3555 -7.58904C50.3972 -7.56898 50.4366 -7.52336 50.463 -7.38026C50.4893 -7.2371 50.4966 -7.03352 50.5068 -6.74496L50.8315 2.37532C50.8375 2.54347 50.8418 2.68157 50.8605 2.78914C50.8799 2.90012 50.9172 2.99776 51.0017 3.07079C51.0861 3.14372 51.1877 3.16659 51.3002 3.16977C51.4094 3.17283 51.547 3.15699 51.7144 3.13863L59.2427 2.31342C59.4345 2.2924 59.5664 2.27802 59.6648 2.28121C59.7599 2.28431 59.8025 2.30359 59.8307 2.33077C59.859 2.35797 59.8791 2.39994 59.8858 2.49495C59.8929 2.59315 59.8842 2.72518 59.8707 2.91757L59.4112 9.44342C59.4033 9.55658 59.3965 9.65117 59.3997 9.72859C59.4031 9.80896 59.4178 9.88244 59.4593 9.9512C59.5009 10.0199 59.5589 10.0668 59.6285 10.1071C59.6956 10.1459 59.7828 10.1843 59.8869 10.2299L68.321 13.9249C68.5482 14.0244 68.7066 14.0943 68.813 14.1611C68.9174 14.2266 68.9461 14.2731 68.9527 14.3167C68.9592 14.3604 68.9455 14.4139 68.8643 14.5072C68.7819 14.6019 68.6509 14.7147 68.4625 14.8757L61.6303 20.7171C61.544 20.7908 61.4715 20.8517 61.4186 20.9083C61.3637 20.9671 61.322 21.0294 61.3021 21.1073C61.2824 21.185 61.289 21.2593 61.3091 21.337L61.3996 21.5958L61.4036 21.6069L64.7836 30.4554C64.8543 30.6405 64.9028 30.7678 64.925 30.8664C64.9467 30.962 64.9378 31.0088 64.9178 31.0433C64.8978 31.0777 64.8617 31.1083 64.768 31.137C64.6714 31.1666 64.5367 31.1876 64.3409 31.2181L49.7612 33.4899C49.5895 33.5166 49.4485 33.5387 49.3411 33.5711C49.2307 33.6045 49.1372 33.6549 49.0748 33.7506C49.0124 33.8465 49.0039 33.9525 49.0181 34.0671C49.0319 34.1785 49.0696 34.3161 49.1146 34.4841L51.2294 42.3766C51.2855 42.5858 51.3237 42.7308 51.3365 42.8402C51.3489 42.9467 51.3337 42.9944 51.3076 43.0269C51.2815 43.0594 51.2377 43.0848 51.1309 43.0955C51.0213 43.1065 50.8716 43.1002 50.6554 43.0905L38.8322 42.5572C38.7205 42.5521 38.6273 42.5476 38.551 42.5526C38.4717 42.5579 38.3996 42.574 38.3325 42.6163C38.2653 42.6586 38.2199 42.717 38.1809 42.7863C38.1433 42.853 38.1072 42.9391 38.0634 43.0422L32.6566 55.7769C32.5828 55.9506 32.5319 56.0696 32.4822 56.1522C32.4341 56.232 32.3975 56.2601 32.3605 56.2717C32.3236 56.2833 32.2774 56.2816 32.1924 56.244C32.1042 56.205 31.9946 56.1363 31.8345 56.0366L22.3375 50.1181C22.257 50.068 22.189 50.0259 22.1301 49.9968C22.0691 49.9668 22.009 49.9463 21.9411 49.9443C21.8728 49.9423 21.8109 49.9593 21.748 49.9859C21.6875 50.0115 21.6177 50.0493 21.5345 50.0947L9.37192 56.7274C9.21506 56.8129 9.10723 56.8708 9.02168 56.9031C8.93947 56.9341 8.89533 56.9344 8.85997 56.9222C8.82459 56.9099 8.78955 56.8821 8.74408 56.8066C8.69696 56.7284 8.64862 56.6165 8.57847 56.4527L4.88727 47.8311C4.84307 47.7278 4.80687 47.6414 4.76901 47.5746C4.72968 47.5053 4.68379 47.4464 4.6162 47.4043C4.54868 47.3622 4.47602 47.3476 4.39652 47.3428C4.31987 47.3382 4.22623 47.3429 4.11402 47.3487L-8.25787 47.9897C-8.48261 48.0013 -8.63831 48.0085 -8.75212 47.9977C-8.86297 47.9872 -8.90737 47.9614 -8.93356 47.9281C-8.95969 47.8946 -8.97492 47.8449 -8.95813 47.7345C-8.94093 47.6214 -8.89546 47.4716 -8.8295 47.2562L-6.14453 38.4901C-6.10607 38.3645 -6.07401 38.2598 -6.05867 38.1729C-6.04285 38.083 -6.04271 37.9982 -6.07747 37.914C-6.1123 37.8299 -6.17253 37.7705 -6.2473 37.7179C-6.31957 37.6671 -6.4159 37.6155 -6.53196 37.5536L-15.17 32.9467C-15.3585 32.8462 -15.4882 32.7761 -15.5757 32.7117C-15.6608 32.649 -15.6857 32.6058 -15.6919 32.5649C-15.698 32.524 -15.6872 32.475 -15.6245 32.3901C-15.5598 32.3027 -15.4559 32.1974 -15.3053 32.0458L-8.3343 25.0278C-8.21014 24.9028 -8.10848 24.8003 -8.04047 24.7095C-7.9705 24.616 -7.92403 24.5185 -7.93144 24.4032C-7.93898 24.2881 -7.99741 24.1977 -8.07868 24.1141C-8.15775 24.0328 -8.27187 23.9442 -8.41096 23.8361L-16.9826 17.1794C-17.222 16.9934 -17.391 16.8612 -17.4967 16.751C-17.603 16.6402 -17.6167 16.5798 -17.6074 16.534C-17.5981 16.4882 -17.5616 16.4386 -17.4208 16.3778C-17.2807 16.3173 -17.074 16.2616 -16.7814 16.1832L-0.605911 11.849C-0.47208 11.8131 -0.370935 11.7883 -0.29153 11.7243C-0.212261 11.6604 -0.167022 11.5674 -0.103651 11.4445L4.98677 1.57386C5.05097 1.44937 5.09442 1.36534 5.13529 1.30558C5.17443 1.24838 5.20345 1.2249 5.23274 1.21274C5.26206 1.20057 5.29907 1.19636 5.36723 1.20905C5.43853 1.22233 5.52898 1.25102 5.66287 1.29362L18.2384 5.2953C18.3449 5.3292 18.4338 5.35749 18.5088 5.37248C18.5866 5.38799 18.6604 5.39142 18.7361 5.36818C18.8119 5.34484 18.8715 5.29985 18.9271 5.24321C18.9806 5.18867 19.0379 5.11505 19.1068 5.02723L27.6004 -5.79371C27.7024 -5.92365 27.7716 -6.0121 27.8324 -6.07121C27.8908 -6.12793 27.9286 -6.14579 27.964 -6.14994Z"
      stroke="white" stroke-opacity="0.3" stroke-width="0.229576" />
    <path
      d="M26.7507 3.90151L21.1113 11.3425C20.9683 11.5312 20.8968 11.6255 20.7919 11.6578C20.6869 11.6902 20.5747 11.6525 20.3504 11.5772L11.8632 8.72624C11.594 8.6358 11.4594 8.59059 11.3412 8.63973C11.223 8.68887 11.1601 8.81618 11.0344 9.07081L7.66185 15.8993C7.59453 16.0356 7.56087 16.1037 7.50395 16.1504C7.44703 16.1971 7.37361 16.2168 7.22677 16.2561L-3.58453 19.153C-4.15234 19.3051 -4.43624 19.3812 -4.47942 19.5861C-4.52261 19.7911 -4.29354 19.9752 -3.83541 20.3436L1.75977 24.8421C2.03168 25.0607 2.16764 25.17 2.17718 25.32C2.18672 25.47 2.0657 25.5957 1.82366 25.8469L-2.69695 30.5405C-2.97962 30.834 -3.12095 30.9807 -3.09614 31.1468C-3.07132 31.3129 -2.89326 31.4119 -2.53714 31.6099L3.19668 34.7983C3.42436 34.925 3.5382 34.9883 3.58361 35.0985C3.62903 35.2087 3.59284 35.3338 3.52046 35.5841L1.80819 41.5043C1.68771 41.9209 1.62747 42.1291 1.73576 42.2667C1.84404 42.4043 2.06064 42.3946 2.49383 42.3753L10.7256 42.0089C10.9549 41.9987 11.0696 41.9936 11.16 42.0507C11.2504 42.1078 11.2951 42.2135 11.3844 42.425L13.882 48.338C14.02 48.6648 14.089 48.8282 14.2329 48.8778C14.3768 48.9273 14.5318 48.8412 14.8418 48.6688L22.9815 44.1442C23.156 44.0471 23.2433 43.9986 23.3378 44.0018C23.4323 44.005 23.5161 44.0593 23.6837 44.1678L30.0352 48.2815C30.3562 48.4894 30.5167 48.5934 30.6699 48.545C30.8232 48.4966 30.8949 48.3194 31.0384 47.9649L34.5858 39.1997C34.6741 38.9813 34.7183 38.8722 34.8107 38.8136C34.9031 38.7549 35.0206 38.7614 35.2558 38.7745L43.0783 39.2074C43.5077 39.2312 43.7224 39.2431 43.8321 39.1079C43.9419 38.9728 43.8863 38.7651 43.775 38.3497L42.3725 33.1156C42.2804 32.7719 42.2344 32.6001 42.3178 32.4725C42.4013 32.3448 42.5772 32.3181 42.9289 32.2646L52.624 30.7915C53.0093 30.7329 53.2019 30.7037 53.2841 30.5631C53.3663 30.4226 53.2974 30.2404 53.1597 29.8759L50.8692 23.8155C50.7884 23.6018 50.7481 23.4949 50.7738 23.3916C50.7996 23.2882 50.8854 23.2128 51.057 23.0619L55.4796 19.1745C55.8356 18.8615 56.0135 18.7051 55.9867 18.5218C55.9598 18.3384 55.7444 18.2396 55.3136 18.042L49.766 15.4975C49.5605 15.4032 49.4578 15.3561 49.4035 15.2656C49.3492 15.1751 49.3559 15.0624 49.3694 14.8368L49.3694 14.8367L49.6299 10.4732C49.6522 10.1007 49.6633 9.91439 49.5492 9.80523C49.4351 9.69607 49.2495 9.71541 48.8783 9.75408L44.0646 10.2556C43.7265 10.2908 43.5575 10.3084 43.4459 10.2122C43.3343 10.1159 43.327 9.94608 43.3123 9.60651L43.0531 3.59712C43.0284 3.02522 43.0161 2.73926 42.8291 2.65152C42.6422 2.56378 42.4144 2.73702 41.9587 3.0835L34.5376 8.72629C34.3311 8.88328 34.2279 8.96177 34.1091 8.95939C33.9904 8.95702 33.8904 8.87445 33.6904 8.70933L27.7286 3.78749C27.4711 3.57484 27.3423 3.46851 27.1978 3.48535C27.0533 3.5022 26.9524 3.6353 26.7507 3.90151Z"
      fill="url(#paint2_radial_1382_738)" fill-opacity="0.2" />
    <path
      d="M27.211 3.59945C27.2471 3.59524 27.2892 3.60412 27.3606 3.64834C27.4347 3.69428 27.5242 3.76768 27.6551 3.87577L33.6176 8.79813C33.7153 8.87878 33.7967 8.94558 33.8687 8.99171C33.9433 9.03952 34.0188 9.07262 34.1072 9.07439C34.1954 9.07608 34.2721 9.04641 34.3485 9.00164C34.4222 8.95845 34.506 8.89483 34.6067 8.81821L42.0279 3.1749C42.2586 2.9995 42.4217 2.87621 42.5497 2.80558C42.6779 2.73494 42.7381 2.73632 42.7801 2.75599C42.822 2.77567 42.8619 2.82053 42.8895 2.96427C42.917 3.10789 42.9256 3.31247 42.9381 3.60233L43.1974 9.61105C43.2046 9.77742 43.2101 9.91454 43.2294 10.021C43.2493 10.1306 43.2871 10.2264 43.3705 10.2987C43.4542 10.3709 43.5548 10.3947 43.6662 10.3984C43.7743 10.4019 43.9105 10.3867 44.076 10.3695L48.8905 9.868C49.0794 9.84831 49.2093 9.8349 49.3062 9.8385C49.3996 9.842 49.442 9.86084 49.47 9.88762C49.4981 9.91449 49.5189 9.95609 49.5265 10.0494C49.5344 10.1461 49.5261 10.2764 49.5148 10.466L49.2545 14.8296C49.2479 14.9398 49.2423 15.0323 49.2461 15.1078C49.2501 15.1861 49.2649 15.2574 49.3052 15.3245C49.3455 15.3917 49.4016 15.4385 49.4689 15.4788C49.5337 15.5177 49.6179 15.556 49.7182 15.6021L55.266 18.1465C55.4847 18.2468 55.6368 18.3171 55.739 18.3837C55.8394 18.4491 55.8673 18.4955 55.8736 18.5387C55.8798 18.5819 55.8663 18.6339 55.7891 18.7251C55.7103 18.8182 55.5848 18.9293 55.4041 19.0881L50.9812 22.9757C50.8974 23.0494 50.8272 23.1108 50.7758 23.1672C50.7225 23.2257 50.6817 23.2868 50.6625 23.3634C50.6434 23.4401 50.6512 23.5139 50.6708 23.5906C50.6898 23.6646 50.7228 23.7519 50.7622 23.8563L53.0523 29.9164C53.1224 30.102 53.1702 30.23 53.1921 30.3288C53.2133 30.4243 53.205 30.4713 53.1849 30.5056C53.1648 30.5399 53.1282 30.5702 53.0349 30.5984C52.938 30.6277 52.8024 30.6481 52.6063 30.6779L42.9121 32.1512C42.7396 32.1774 42.5975 32.1988 42.4897 32.231C42.3788 32.2641 42.2849 32.314 42.2222 32.4098C42.1594 32.5058 42.1515 32.6123 42.1657 32.7273C42.1795 32.8389 42.2164 32.977 42.2616 33.1454L43.6641 38.3797C43.7206 38.5908 43.7592 38.7368 43.7721 38.8472C43.7847 38.9549 43.7693 39.0034 43.7429 39.036C43.7164 39.0683 43.6723 39.0932 43.5647 39.1029C43.454 39.1129 43.3031 39.1051 43.0848 39.093L35.2617 38.6596C35.147 38.6533 35.0509 38.6477 34.9726 38.6522C34.8915 38.6569 34.8179 38.6736 34.7494 38.7171C34.6809 38.7606 34.6348 38.8202 34.596 38.8916C34.5585 38.9606 34.5221 39.0498 34.4789 39.1565L30.9324 47.9219C30.8593 48.1024 30.8088 48.2262 30.7589 48.3122C30.7106 48.3954 30.6728 48.4234 30.6352 48.4353C30.5976 48.4471 30.5507 48.4458 30.4634 48.4055C30.3733 48.3638 30.2614 48.2907 30.098 48.1849L23.7466 44.0714C23.6648 44.0184 23.5954 43.9739 23.5353 43.9431C23.473 43.9112 23.4112 43.8892 23.3413 43.8869C23.2715 43.8846 23.2086 43.9019 23.1444 43.9295C23.0824 43.9562 23.0106 43.9964 22.9254 44.0438L14.7858 48.5683C14.628 48.656 14.5202 48.7162 14.434 48.7495C14.3509 48.7816 14.3061 48.7814 14.2704 48.7691C14.2347 48.7568 14.1991 48.7294 14.1533 48.6529C14.106 48.5735 14.0576 48.4601 13.9874 48.2939L11.4899 42.3804C11.4463 42.2771 11.4101 42.1906 11.3726 42.1237C11.3338 42.0544 11.2882 41.9965 11.221 41.9541C11.1539 41.9117 11.082 41.8955 11.0027 41.8902C10.9263 41.8851 10.8327 41.889 10.7207 41.894L2.48916 42.2606C2.26885 42.2704 2.11582 42.2775 2.00435 42.2662C1.89565 42.2551 1.85175 42.2288 1.82574 42.1957C1.79976 42.1627 1.78523 42.1137 1.80003 42.0055C1.81523 41.8945 1.8567 41.7478 1.91792 41.5361L3.6305 35.6157C3.66585 35.4935 3.69584 35.3921 3.70964 35.3074C3.72392 35.2196 3.72329 35.137 3.68952 35.055C3.6557 34.9729 3.59745 34.9136 3.52542 34.8614C3.45596 34.811 3.36327 34.7598 3.25215 34.698L-2.48127 31.5098C-2.6625 31.409 -2.78787 31.3388 -2.87182 31.2748C-2.953 31.2127 -2.9765 31.1698 -2.98252 31.1295C-2.98846 31.0892 -2.97781 31.0418 -2.91812 30.9586C-2.85658 30.8729 -2.75813 30.7696 -2.61443 30.6204L1.90666 25.9261C2.02513 25.8031 2.12277 25.7026 2.18779 25.6131C2.25483 25.521 2.29839 25.4252 2.29122 25.3125C2.28398 25.1999 2.22834 25.1106 2.15023 25.0277C2.07433 24.9472 1.96489 24.8592 1.83172 24.7521L-3.76337 20.254C-3.99547 20.0674 -4.15939 19.9354 -4.2614 19.8253C-4.36368 19.715 -4.37625 19.6555 -4.36665 19.6099C-4.35705 19.5644 -4.32142 19.5153 -4.18353 19.4557C-4.04579 19.3962 -3.84218 19.341 -3.55451 19.2639L7.2565 16.3671C7.39337 16.3304 7.49644 16.3048 7.57698 16.2387C7.65731 16.1727 7.70182 16.0768 7.76447 15.9499L11.1375 9.12158C11.2017 8.99165 11.2446 8.90352 11.2858 8.84122C11.3253 8.7816 11.3556 8.7582 11.3856 8.74573C11.4155 8.73335 11.4535 8.72915 11.5234 8.74318C11.5966 8.75791 11.6898 8.78863 11.827 8.83472L20.314 11.6855C20.4234 11.7222 20.5144 11.7534 20.5913 11.7699C20.6712 11.7869 20.7475 11.7917 20.8254 11.7678C20.9033 11.7438 20.9636 11.6969 21.02 11.6378C21.0744 11.5808 21.1332 11.504 21.2031 11.4118L26.8425 3.97116C26.9454 3.83541 27.0155 3.74264 27.0771 3.68082C27.1363 3.62153 27.175 3.60366 27.211 3.59945Z"
      stroke="white" stroke-opacity="0.3" stroke-width="0.229576" />
    <path
      d="M26.0549 12.4389C26.1432 12.3527 26.2536 12.2748 26.403 12.2573C26.5524 12.24 26.6777 12.2904 26.7834 12.354C26.8828 12.4137 26.9936 12.5034 27.1148 12.6005L30.5363 15.3426C30.6399 15.4256 30.7003 15.4735 30.7484 15.5034C30.7701 15.517 30.7826 15.5225 30.7888 15.5247C30.7915 15.5256 30.7933 15.5259 30.7933 15.5259L30.7937 15.526L30.794 15.5259C30.794 15.5259 30.7957 15.5258 30.7985 15.5249C30.8047 15.5229 30.8174 15.5178 30.8395 15.505C30.8886 15.4768 30.9509 15.4312 31.0574 15.352L35.271 12.2181C35.4927 12.0532 35.6823 11.9114 35.8405 11.8264C35.9984 11.7415 36.1994 11.6723 36.4062 11.7715L36.4434 11.7914C36.4982 11.8235 36.5423 11.8634 36.578 11.9079L37.704 12.9001L37.7064 12.9013C37.8848 13.0057 37.9499 13.1919 37.9805 13.3572C38.0132 13.5338 38.0212 13.7702 38.0313 14.0463L38.1098 16.2004L39.8343 16.0127C40.0144 15.9931 40.1767 15.9747 40.3075 15.979C40.4066 15.9823 40.5119 15.999 40.6088 16.0518L40.6092 16.0387L40.6635 16.0864C40.6739 16.094 40.6843 16.1019 40.6945 16.1105L40.7178 16.1316L40.7363 16.1504L41.8722 17.1486L41.8623 17.1567C41.895 17.1737 41.927 17.1946 41.9574 17.2204L41.9808 17.2415L42.0028 17.2639C42.1077 17.3777 42.14 17.5164 42.1493 17.6454C42.1588 17.7759 42.1471 17.9389 42.1346 18.1197L41.9995 20.0745L43.928 20.9243C44.1799 21.0352 44.4947 21.1374 44.6709 21.3641L45.8921 22.4219L45.8891 22.4227C45.9614 22.4968 46.0185 22.5901 46.0364 22.7113C46.0665 22.9146 45.9691 23.0748 45.8621 23.1982C45.7579 23.3184 45.6017 23.4516 45.4235 23.6044L43.0511 25.6396C42.9587 25.7189 42.9056 25.7648 42.8704 25.8027C42.8545 25.8197 42.8474 25.83 42.8442 25.8352C42.8428 25.8375 42.8422 25.8388 42.842 25.8392L42.8418 25.8396L42.8417 25.84C42.8417 25.84 42.8416 25.8417 42.8418 25.8445C42.8421 25.8506 42.8436 25.8631 42.8494 25.8857C42.8623 25.9358 42.887 26.0015 42.9303 26.1152L44.1737 29.3747C44.2403 29.5492 44.3008 29.706 44.3303 29.8367C44.3613 29.9741 44.3698 30.1307 44.2825 30.2811C44.1952 30.4315 44.0549 30.5016 43.9202 30.5429C43.7921 30.582 43.6259 30.6072 43.4412 30.6359L37.8521 31.5042C37.6694 31.5326 37.5589 31.5504 37.482 31.5736C37.4466 31.5843 37.4294 31.5931 37.4219 31.5978C37.4198 31.5992 37.4186 31.6001 37.4181 31.6005C37.4179 31.6013 37.4178 31.6027 37.4175 31.6046C37.4162 31.6133 37.4151 31.6326 37.4196 31.6693C37.4295 31.7491 37.4579 31.8573 37.5058 32.0359L38.2054 34.6468C38.2584 34.8448 38.3062 35.0207 38.3229 35.1635C38.3403 35.3125 38.3314 35.4809 38.2145 35.6261C38.0976 35.7714 37.935 35.8161 37.7858 35.8309C37.6428 35.8452 37.4606 35.8361 37.2559 35.8266L32.7913 35.6194C32.6707 35.6139 32.6012 35.611 32.55 35.6143C32.527 35.6158 32.5148 35.6185 32.5089 35.62C32.5064 35.6207 32.5052 35.6212 32.5048 35.6214L32.5042 35.6215L32.5039 35.6218C32.5039 35.6218 32.5027 35.6229 32.5008 35.625C32.4969 35.6296 32.4894 35.6396 32.4781 35.6598C32.453 35.7046 32.4257 35.7686 32.3788 35.8797L30.2616 40.8965C30.1923 41.0607 30.1301 41.2092 30.0637 41.3201C29.9936 41.437 29.8956 41.552 29.7357 41.6026C29.5757 41.6531 29.4294 41.6153 29.3048 41.5598C29.1867 41.5073 29.0505 41.4213 28.8995 41.3267L25.2479 39.04C25.1611 38.9856 25.1115 38.9549 25.0727 38.9357C25.0553 38.9271 25.0454 38.9234 25.0403 38.9219L25.0359 38.921L25.0353 38.921C25.0353 38.921 25.0337 38.9211 25.0314 38.9217C25.0263 38.9229 25.016 38.9258 24.9981 38.9334C24.9582 38.9503 24.907 38.9781 24.8171 39.0272L19.9842 41.6688C19.8368 41.7494 19.703 41.8232 19.5877 41.8669C19.4654 41.9132 19.3242 41.9416 19.1729 41.8892C19.0774 41.8562 19.0051 41.8002 18.9478 41.7353L17.7956 40.7227C17.7084 40.665 17.6465 40.5859 17.598 40.5054C17.5343 40.3997 17.4749 40.259 17.4089 40.1045L16.4079 37.7628L12.1939 37.9773C11.9816 37.9881 11.7937 37.9982 11.6466 37.9842C11.4938 37.9696 11.3263 37.9241 11.2084 37.7733C11.0905 37.6223 11.0868 37.4488 11.1096 37.297C11.1285 37.1715 11.172 37.0212 11.223 36.8524L10.9309 36.8673C10.7187 36.8781 10.5307 36.8883 10.3836 36.8742C10.2308 36.8596 10.0633 36.8142 9.94542 36.6633C9.82752 36.5124 9.82384 36.3389 9.84664 36.187C9.8686 36.0409 9.92398 35.8611 9.98581 35.6577L10.9154 32.6004L8.86527 31.5012C8.68811 31.4062 8.52991 31.322 8.41601 31.2378C8.297 31.1497 8.18184 31.0298 8.1545 30.8481L8.15058 30.8144C8.14687 30.7703 8.14912 30.7282 8.15597 30.6881L7.60231 30.3912C7.42516 30.2962 7.26696 30.2121 7.15306 30.1278C7.03404 30.0398 6.91888 29.9199 6.89155 29.7381L6.88762 29.7045C6.87364 29.538 6.94453 29.4006 7.02689 29.2889C7.11097 29.1748 7.23749 29.0478 7.37887 28.9049L9.8148 26.4429C9.94571 26.3106 10.0246 26.2298 10.0732 26.1649L8.16172 24.6738C7.93315 24.4954 7.73819 24.3441 7.60963 24.2095C7.55133 24.1485 7.49354 24.0773 7.4524 23.9958L6.89877 23.5638C6.67019 23.3855 6.47523 23.2342 6.34667 23.0996C6.2195 22.9665 6.09392 22.7851 6.14103 22.5531C6.18815 22.3212 6.37448 22.2031 6.54347 22.1302C6.71433 22.0564 6.95285 21.9931 7.23288 21.9181L13.5137 20.2352C13.5895 20.2149 13.6321 20.2034 13.6632 20.1923C13.677 20.1874 13.6843 20.184 13.688 20.1821C13.6897 20.1812 13.6906 20.1806 13.6909 20.1803L13.6914 20.18L13.6917 20.1797C13.692 20.1795 13.6928 20.1787 13.6941 20.1772C13.6967 20.174 13.7015 20.1675 13.7092 20.155C13.7266 20.127 13.747 20.0879 13.7829 20.018L15.8134 16.0594C15.8735 15.9424 15.9288 15.8331 15.9859 15.7494C16.047 15.6598 16.1266 15.5733 16.2477 15.5231C16.3688 15.4728 16.4862 15.4775 16.5928 15.4976C16.6924 15.5163 16.8089 15.554 16.9342 15.5941L21.9587 17.2039C22.0736 17.2407 22.1399 17.2616 22.1901 17.2718C22.2128 17.2763 22.2251 17.2772 22.2312 17.2772C22.2339 17.2772 22.2353 17.277 22.2357 17.2769L22.2362 17.2768L22.2365 17.2765C22.2365 17.2765 22.2381 17.2759 22.2404 17.2743C22.2454 17.2709 22.2552 17.2633 22.2713 17.2468C22.3072 17.2101 22.3503 17.1554 22.4247 17.0603L25.7891 12.7549C25.8848 12.6325 25.9719 12.5199 26.0549 12.4389Z"
      fill="#0F0730" />
    <path
      d="M26.463 12.7658C26.4637 12.766 26.465 12.7662 26.4668 12.7667C26.4746 12.769 26.491 12.7754 26.5198 12.7927C26.5827 12.8305 26.6623 12.8936 26.7948 12.9998L30.2163 15.7419C30.3103 15.8172 30.398 15.888 30.4778 15.9378C30.5634 15.9911 30.6629 16.0354 30.7844 16.0376C30.9059 16.0398 31.0069 15.9991 31.0944 15.9489C31.1759 15.9021 31.2662 15.8345 31.3628 15.7627L35.5764 12.6286C35.812 12.4534 35.9657 12.34 36.0827 12.2772C36.1384 12.2473 36.169 12.2381 36.1836 12.2357C36.1907 12.2485 36.2029 12.2781 36.2145 12.3405C36.2386 12.471 36.2463 12.6618 36.257 12.9552L36.3644 15.894C36.3704 16.0581 36.3752 16.2077 36.3961 16.327C36.4183 16.4537 36.4649 16.5872 36.5839 16.6901C36.7029 16.7929 36.8417 16.8196 36.9702 16.8232C37.0913 16.8267 37.2401 16.81 37.4033 16.7922L39.8897 16.5213C40.0853 16.5 40.2048 16.4876 40.2906 16.4904C40.3304 16.4917 40.3505 16.4963 40.3593 16.4992C40.361 16.4997 40.3622 16.5003 40.3629 16.5006C40.3633 16.5014 40.364 16.5025 40.3647 16.5043C40.3679 16.5131 40.3733 16.533 40.3762 16.5727C40.3824 16.6584 40.3747 16.7783 40.3611 16.9747L40.2097 19.1677C40.2021 19.2775 40.1947 19.3808 40.1985 19.4678C40.2025 19.5612 40.2199 19.6604 40.2779 19.7565C40.336 19.8526 40.4156 19.914 40.4964 19.9611C40.5716 20.0048 40.6666 20.0463 40.7672 20.0907L43.7217 21.3925C43.9522 21.494 44.0981 21.5591 44.1929 21.6189C44.2379 21.6472 44.2574 21.6661 44.2653 21.6757C44.2656 21.676 44.2659 21.6766 44.2659 21.6766C44.2659 21.6766 44.2658 21.6774 44.2657 21.6778C44.2609 21.6892 44.2475 21.713 44.2127 21.7531C44.1392 21.8379 44.0185 21.9423 43.8274 22.1063L41.455 24.1416C41.3714 24.2133 41.2924 24.2806 41.233 24.3444C41.1692 24.4129 41.1107 24.495 41.083 24.6039C41.0554 24.7129 41.0675 24.8129 41.0909 24.9035C41.1127 24.9879 41.1501 25.0848 41.1893 25.1878L42.4327 28.4473C42.505 28.6367 42.5487 28.753 42.5682 28.8395C42.5772 28.8796 42.5778 28.9008 42.5772 28.9104C42.5771 28.9121 42.5768 28.9133 42.5767 28.9142C42.576 28.9147 42.5751 28.9155 42.5737 28.9165C42.5657 28.9218 42.547 28.9318 42.5077 28.9438C42.4229 28.9697 42.3001 28.9895 42.0998 29.0206L36.5107 29.8889C36.343 29.915 36.1905 29.9379 36.0714 29.9738C35.9531 30.0095 35.8311 30.068 35.7437 30.1867L35.7267 30.2112C35.6385 30.3465 35.6326 30.4915 35.6488 30.6223C35.6641 30.7457 35.7046 30.8945 35.7485 31.0585L36.4481 33.6695C36.5054 33.8833 36.5404 34.0163 36.5518 34.1132C36.5571 34.1585 36.5551 34.1819 36.5532 34.1924C36.553 34.1935 36.5526 34.1945 36.5524 34.1952C36.5517 34.1955 36.5508 34.196 36.5498 34.1965C36.54 34.2006 36.5176 34.2075 36.4723 34.212C36.3752 34.2216 36.2378 34.2159 36.0166 34.2056L31.5521 33.9986C31.443 33.9936 31.3401 33.9885 31.2538 33.9941C31.1611 34.0001 31.0628 34.0195 30.9684 34.079C30.8741 34.1385 30.8143 34.2187 30.7688 34.2998C30.7288 34.3712 30.6911 34.4601 30.6512 34.5548L30.6505 34.5563L30.6444 34.5709L28.5272 39.5877C28.4518 39.7663 28.4054 39.8748 28.362 39.9473C28.3419 39.9808 28.3284 39.9959 28.3216 40.0022C28.3201 40.0036 28.319 40.0043 28.3184 40.0048C28.3175 40.0048 28.3162 40.0046 28.3143 40.0044C28.3051 40.0031 28.2854 39.9985 28.2498 39.9826C28.1726 39.9483 28.0723 39.8862 27.9081 39.7834L24.2565 37.4965C24.1782 37.4475 24.1038 37.4006 24.0369 37.3675C23.9649 37.3318 23.884 37.3026 23.7881 37.2997C23.6921 37.2969 23.6096 37.3213 23.5356 37.3526C23.4669 37.3818 23.3899 37.4242 23.3089 37.4685L18.4759 40.1101C18.3152 40.198 18.2178 40.2505 18.1435 40.2786C18.1092 40.2916 18.0906 40.2951 18.0819 40.2959C18.0793 40.2961 18.0778 40.2958 18.0772 40.2958C18.0765 40.2953 18.0755 40.2945 18.074 40.2931C18.0677 40.2871 18.0551 40.2729 18.0362 40.2415C17.9952 40.1734 17.9513 40.072 17.8793 39.9036L16.5042 36.6859C16.4612 36.5855 16.4211 36.4907 16.3785 36.4154C16.3327 36.3345 16.2726 36.2546 16.178 36.1955C16.0833 36.1364 15.9851 36.1176 15.8923 36.1119C15.806 36.1067 15.7031 36.1122 15.594 36.1177L10.9049 36.3564C10.676 36.3681 10.5329 36.3746 10.4321 36.365C10.3848 36.3605 10.3614 36.3535 10.3513 36.3491C10.3503 36.3487 10.3496 36.3482 10.3489 36.3479C10.3488 36.3473 10.3486 36.3465 10.3485 36.3456C10.3467 36.3347 10.3455 36.3102 10.3526 36.2632C10.3677 36.1631 10.4087 36.0258 10.4754 35.8065L11.4163 32.7121C11.4534 32.5901 11.4884 32.4765 11.5054 32.3793C11.5235 32.2752 11.5271 32.1609 11.4784 32.0429C11.4297 31.925 11.3464 31.8463 11.26 31.7854C11.1794 31.7285 11.0744 31.6727 10.9621 31.6125L7.84415 29.9405C7.6526 29.8378 7.53423 29.7736 7.45738 29.7168C7.42153 29.6903 7.40608 29.6732 7.39991 29.6649C7.39905 29.6637 7.39844 29.6627 7.398 29.662C7.39821 29.6612 7.39852 29.6602 7.39892 29.6591C7.40236 29.6493 7.41215 29.6286 7.43863 29.5926C7.49536 29.5157 7.58961 29.4195 7.74251 29.2649L10.1784 26.8029C10.2989 26.6811 10.4088 26.5709 10.4837 26.4705C10.563 26.3642 10.6302 26.2343 10.6198 26.0719C10.6094 25.9096 10.5261 25.7893 10.4339 25.6941C10.3467 25.604 10.2237 25.5089 10.0886 25.4036L7.21347 23.1606C6.97116 22.9715 6.81282 22.8471 6.71643 22.7463C6.67102 22.6987 6.65307 22.6702 6.6462 22.6559C6.65811 22.6454 6.68585 22.6261 6.74627 22.6C6.87437 22.5448 7.0685 22.492 7.3653 22.4125L13.7399 20.7044C13.8348 20.6777 13.9317 20.6438 14.0129 20.5783C14.1211 20.4909 14.1803 20.3643 14.238 20.2517L16.2686 16.2931C16.3347 16.1643 16.3739 16.0889 16.4088 16.0377C16.4246 16.0145 16.4347 16.0036 16.4398 15.9988C16.4421 15.9968 16.4436 15.9959 16.4436 15.9959L16.4437 15.9957L16.4441 15.9956C16.4441 15.9956 16.4459 15.9954 16.4489 15.9953C16.456 15.995 16.4708 15.9953 16.4984 16.0005C16.5593 16.0119 16.6403 16.0374 16.7781 16.0815L21.8026 17.6913C21.9065 17.7246 22.0044 17.7564 22.0892 17.7734C22.1803 17.7918 22.28 17.7988 22.3866 17.766C22.4933 17.7331 22.5719 17.6712 22.6369 17.6048C22.6974 17.543 22.7606 17.4617 22.8278 17.3756L26.1922 13.07C26.2968 12.9362 26.3598 12.8565 26.4123 12.8053C26.4364 12.7818 26.4508 12.7718 26.4579 12.7678C26.4595 12.7669 26.4607 12.7664 26.4614 12.7661L26.4619 12.7658C26.4619 12.7658 26.4623 12.7657 26.463 12.7658Z"
      fill="#00AEF0" />
    <path
      d="M5.85546 21.9715C12.6717 20.1451 19.732 24.1757 21.5585 30.9919C23.3849 37.8082 19.2858 44.829 12.4695 46.6554C12.2565 46.7125 12.0433 46.7639 11.83 46.8096C11.7233 46.8325 11.6166 46.8538 11.5099 46.8739C11.3499 46.904 11.1899 46.9311 11.03 46.955C10.6568 47.0106 10.284 47.0494 9.9126 47.0718C9.59425 47.091 9.27686 47.0982 8.96102 47.0937C8.85573 47.0922 8.75062 47.0893 8.64569 47.0852C8.59321 47.0832 8.54078 47.0808 8.4884 47.0781C8.3837 47.0727 8.2792 47.0661 8.17492 47.0582C7.75772 47.0265 7.34409 46.9744 6.93535 46.9027C6.73095 46.8668 6.52775 46.8262 6.32596 46.7806C5.92244 46.6895 5.52452 46.5791 5.13347 46.4503C5.08461 46.4342 5.03583 46.4179 4.98719 46.4012C4.6465 46.2845 4.31121 46.1537 3.98225 46.0093C3.93528 45.9887 3.88845 45.9678 3.84174 45.9467C3.74826 45.9043 3.65535 45.8607 3.56294 45.8162C3.51673 45.7939 3.47063 45.7714 3.4247 45.7486C3.3329 45.7029 3.2417 45.6562 3.15103 45.6084C3.06032 45.5606 2.97012 45.5119 2.88058 45.4619C2.65676 45.3371 2.43671 45.2056 2.2207 45.0677C2.09111 44.985 1.96304 44.8999 1.83645 44.8125C1.66764 44.6961 1.5015 44.5756 1.33831 44.4512C1.25676 44.389 1.17598 44.3257 1.0959 44.2615C1.01578 44.1973 0.93637 44.1322 0.85776 44.066C0.779169 43.9999 0.701334 43.9328 0.624296 43.8648C-1.18653 42.2651 -2.56286 40.1378 -3.23351 37.6349C-3.26204 37.5285 -3.28914 37.4219 -3.31479 37.3154C-3.32222 37.2845 -3.3294 37.2536 -3.33659 37.2228C-3.37675 37.0911 -3.41484 36.9582 -3.45076 36.8242C-5.15719 30.4557 -1.37784 23.9096 4.99065 22.2032C5.13309 22.165 5.27562 22.1297 5.41818 22.0969C5.45799 22.0848 5.49789 22.0727 5.53789 22.0609C5.64308 22.0298 5.74893 22 5.85546 21.9715Z"
      fill="#0F0730" />
    <path
      d="M5.12287 22.6974C11.2184 21.0641 17.4838 24.6815 19.1171 30.777C20.7504 36.8726 17.1331 43.138 11.0375 44.7713C4.94199 46.4046 -1.32342 42.7873 -2.95673 36.6917C-4.59003 30.5962 -0.972689 24.3307 5.12287 22.6974Z"
      fill="white" />
    <path fill-rule="evenodd" clip-rule="evenodd"
      d="M12.0149 31.8451C12.6243 34.1196 11.2745 36.4575 9.00006 37.0669C6.72561 37.6763 4.38773 36.3266 3.77829 34.0521C3.16886 31.7777 4.51863 29.4398 6.79308 28.8303C9.06754 28.2209 11.4054 29.5707 12.0149 31.8451Z"
      fill="white" />
    <path fill-rule="evenodd" clip-rule="evenodd"
      d="M14.724 36.6691C13.8408 35.5588 13.4613 34.5192 13.3346 34.1047L12.4122 30.6623C11.7076 28.0326 8.99396 26.475 6.3513 27.1831C3.70836 27.8913 2.13703 30.597 2.84167 33.2268L3.77739 36.7189C3.87758 37.1745 4.0468 38.2356 3.84499 39.5841C3.57362 41.3963 4.10626 41.0463 4.59401 40.7725C5.08182 40.4993 6.11117 39.6648 6.64843 40.209C7.18546 40.753 7.63936 41.2289 8.39421 40.637C9.14918 40.0454 9.51835 39.8167 9.64003 39.7841L9.80557 39.7397C9.92711 39.7071 10.3613 39.7206 11.3109 39.8555C12.2605 39.9906 12.4156 39.3516 12.6089 38.6119C12.8019 37.872 14.1105 38.0801 14.6697 38.0727C15.229 38.066 15.865 38.1029 14.724 36.6691ZM5.5713 30.1749C6.08671 30.0368 6.6808 30.5826 6.89832 31.3944C7.11581 32.2061 6.87431 32.9761 6.3589 33.1142C5.84349 33.2523 5.24926 32.7062 5.03177 31.8946C4.81425 31.0828 5.05589 30.313 5.5713 30.1749ZM8.62007 35.6538C7.48429 35.9581 6.23019 35.1021 5.61047 33.9417C6.3709 34.5538 7.36084 34.8128 8.32548 34.5544C9.29004 34.2959 10.0178 33.5766 10.3703 32.6663C10.4138 33.9811 9.75563 35.3495 8.62007 35.6538ZM9.31223 32.3229C8.79645 32.4611 8.20244 31.9149 7.98494 31.1033C7.76743 30.2915 8.00884 29.5217 8.52462 29.3835C9.04033 29.2453 9.63413 29.7913 9.85164 30.6031C10.0691 31.4148 9.82793 32.1847 9.31223 32.3229Z"
      fill="#00AEF0" />
    <path
      d="M35.6419 16.1159C35.6413 16.1376 35.6409 16.1592 35.6404 16.1808C35.7532 16.1152 35.8559 16.0548 35.9479 15.999L36.7481 15.514L36.7249 16.4496C36.6904 17.8224 36.7013 19.1877 36.7578 20.5453C36.8204 21.8997 36.8867 23.2634 36.9568 24.6365L36.9755 25.0021L36.6354 25.1381C36.4332 25.2188 36.2332 25.3049 36.0353 25.3964C36.0958 25.4279 36.1539 25.4621 36.2096 25.4988C36.4462 25.4999 36.6764 25.5406 36.8965 25.6292C37.3827 25.8177 37.7525 26.1476 37.9433 26.6258C38.1522 27.149 38.1121 27.6936 37.875 28.2231L37.8735 28.2267L37.8717 28.2306C37.6055 28.8005 37.0924 29.1965 36.4353 29.4588C36.0736 29.6032 35.6979 29.6466 35.3286 29.5479L35.3266 29.5475L35.3241 29.5472C35.1023 29.4888 34.8979 29.3948 34.7137 29.2665C34.5575 29.2722 34.4009 29.2562 34.2455 29.2147C33.9348 29.1335 33.6582 28.9832 33.4231 28.7657L33.4123 28.7558L33.4022 28.7457C33.1931 28.5291 33.0304 28.2842 32.9215 28.0113C32.7264 27.5226 32.7147 27.0201 32.8946 26.5289L32.8947 26.5279C32.9963 26.2524 33.1532 26.0201 33.3553 25.8293L33.3469 25.8337L33.3019 25.482C33.2503 25.5509 33.1971 25.6188 33.1413 25.6849L33.1406 25.6845C32.8202 26.0703 32.4408 26.3714 32.0048 26.5835C32.0439 26.8084 32.0896 27.0444 32.1413 27.2912C32.2245 27.6889 32.3056 28.054 32.3847 28.3864L32.3876 28.3992L32.39 28.4117C32.4259 28.6063 32.4662 28.7992 32.511 28.99C32.5343 29.0893 32.5577 29.1887 32.5811 29.288C32.6044 29.3874 32.6277 29.4871 32.651 29.5865L32.7337 29.9373L29.5305 32.0076L29.4473 31.4963C29.3567 31.5472 29.2663 31.5988 29.1757 31.6497C28.9604 31.7784 28.7242 31.9208 28.4669 32.0767C28.2043 32.2359 27.9678 32.3795 27.7577 32.5068L27.1752 32.8594L26.9985 32.202C26.981 32.137 26.9642 32.0724 26.9472 32.0087C26.8525 32.0661 26.7622 32.121 26.6763 32.1731L26.3382 32.3778L26.3635 32.6088L26.0703 32.7745C25.8746 32.8853 25.6433 33.016 25.3765 33.166L25.3617 33.1737C25.0936 33.3131 24.8448 33.445 24.6148 33.569L24.6142 33.5688C24.4731 33.6467 24.332 33.7251 24.1909 33.8029L24.1903 33.8025C24.0571 33.8774 23.9196 33.9545 23.7773 34.0329L23.0889 34.4126L23.0358 33.8098C23.0292 33.8127 23.0223 33.8159 23.0156 33.8189C22.5775 34.0153 21.9752 34.2928 21.2084 34.653C20.5181 34.9825 19.8967 35.2907 19.3433 35.5761L19.3398 35.5774L19.3365 35.5793C18.7878 35.8522 18.3907 36.0684 18.1356 36.2301L17.615 36.5607L17.2927 35.7533C17.2026 35.8052 17.1231 35.8531 17.054 35.8969L16.5336 36.2268L15.4231 33.444L15.4649 33.2812L16.7324 28.4195C16.6856 28.4459 16.6377 28.4729 16.5887 28.5006L16.0126 28.8256L15.7948 28.005C15.7036 28.0564 15.6078 28.1103 15.5074 28.1669L14.931 28.492L14.039 25.129L20.6084 21.9517L20.7614 22.7339L20.9738 22.6313C20.9586 22.4891 20.9439 22.3569 20.9289 22.2347L20.8841 21.872L21.2125 21.712C21.8275 21.4126 22.4482 21.0998 23.0747 20.7742L23.0756 20.7739C23.7039 20.4484 24.304 20.1074 24.8755 19.7515L25.4441 19.3976L25.6361 20.0394C25.6562 20.1065 25.6769 20.1747 25.6979 20.244C25.7848 20.1914 25.8713 20.1387 25.9569 20.0854L26.2695 19.8906L26.2676 19.8822L26.5229 19.6794C26.8647 19.408 27.2379 19.1363 27.6414 18.8639L27.6434 18.8626C28.0682 18.5786 28.4755 18.3555 28.8639 18.2004C29.4911 17.9502 30.1019 17.8635 30.6672 18.0133C30.9017 18.0717 31.1206 18.1605 31.3237 18.278C31.465 18.2871 31.6041 18.3088 31.7405 18.3443C31.7436 18.3451 31.747 18.3457 31.7501 18.3464C31.9634 18.3996 32.1636 18.4783 32.3508 18.5804C32.3072 18.235 32.2642 17.8911 32.2218 17.5485L32.1809 17.2163L32.4684 17.0457C32.9728 16.7459 33.437 16.478 33.8606 16.2428C34.2759 16.0123 34.6104 15.82 34.8653 15.6655L35.6654 15.1809L35.6419 16.1159Z"
      fill="#0F0730" />
    <path fill-rule="evenodd" clip-rule="evenodd"
      d="M25.1478 20.1855C25.3105 20.7295 25.5014 21.3439 25.7203 22.0286C25.9448 22.7002 26.1787 23.3952 26.4219 24.1136C26.6745 24.8284 26.9186 25.5357 27.1543 26.2355C27.3939 26.8902 27.6381 27.5704 27.887 28.2758C28.1321 28.9717 28.3847 29.6865 28.6448 30.42C28.5116 30.4949 28.3784 30.5699 28.2453 30.6448C28.112 30.7197 27.9787 30.7945 27.8455 30.8694C27.626 31.0005 27.3849 31.1457 27.1222 31.3049C26.8595 31.4641 26.623 31.6073 26.4129 31.7347C26.368 31.5678 26.3251 31.4055 26.284 31.248C26.2429 31.0904 26.2017 30.9328 26.1605 30.7753L25.9306 29.9536C25.8875 29.8185 25.8481 29.6928 25.8126 29.5765C25.777 29.4602 25.7452 29.3533 25.7172 29.2558L24.4931 29.7443L24.7388 31.995C24.5437 32.1055 24.3129 32.2357 24.0465 32.3855C23.7763 32.526 23.5249 32.6589 23.2923 32.7843C23.1497 32.863 23.0071 32.9418 22.8645 33.0204C22.7312 33.0953 22.5933 33.172 22.4507 33.2506L22.4042 32.7179C22.2558 32.7818 22.0296 32.8817 21.7257 33.018C21.2829 33.2164 20.677 33.4964 19.9078 33.8577C19.2136 34.1891 18.5868 34.4989 18.0277 34.7873C17.4742 35.0626 17.0587 35.2883 16.781 35.4644L15.9613 33.4101L17.7981 26.3644C17.5261 26.473 17.2831 26.5862 17.0692 26.7042C16.8609 26.809 16.6208 26.943 16.3488 27.106C16.0823 27.2558 15.7182 27.4608 15.2567 27.7211L14.6426 25.4054L20.2345 22.7006L20.6436 24.7884L18.9811 31.7808C19.1124 31.7284 19.3262 31.6375 19.6226 31.5084C19.9153 31.3698 20.2456 31.2162 20.6133 31.0477C20.9867 30.8661 21.3506 30.6883 21.7052 30.5141L22.3539 32.1398L22.0911 29.1206C22.0465 28.6274 21.9963 28.0656 21.9405 27.4354C21.8847 26.8052 21.8234 26.1609 21.7564 25.5026C21.6988 24.8405 21.642 24.2215 21.5862 23.6457C21.5361 23.0568 21.4869 22.5654 21.4385 22.1715C22.0576 21.8701 22.6824 21.5553 23.3128 21.2276C23.9526 20.8962 24.5642 20.5488 25.1478 20.1855ZM23.573 22.9834L23.7323 24.3225L24.2693 28.2024C24.3256 28.18 24.4269 28.1341 24.5732 28.0648C24.7289 27.9918 24.8752 27.9226 25.0122 27.857C25.1491 27.7915 25.2317 27.7531 25.2598 27.7418C25.2112 27.6199 25.1308 27.3638 25.0186 26.9737C24.9064 26.5835 24.7867 26.1745 24.6595 25.7468C24.5809 25.4955 24.5005 25.2394 24.4182 24.9787C24.3415 24.7048 24.263 24.4261 24.1825 24.1428L23.7784 22.885L23.573 22.9834Z"
      fill="white" />
    <path fill-rule="evenodd" clip-rule="evenodd"
      d="M29.0542 18.6748C29.617 18.4502 30.1114 18.3943 30.537 18.5072C30.9589 18.6107 31.3208 18.8361 31.6224 19.1833C31.9241 19.5305 32.1703 19.9433 32.3612 20.4217C32.5709 20.947 32.6745 21.4929 32.6722 22.0593C32.6755 22.6125 32.5897 23.1469 32.4149 23.6625C32.2495 24.1744 32.0006 24.6273 31.6683 25.0209C31.3454 25.4107 30.9589 25.6954 30.5087 25.8751L30.3538 25.9368C30.406 26.2856 30.4743 26.6609 30.5584 27.0623C30.6425 27.4637 30.7246 27.8333 30.8049 28.1709C30.8423 28.3735 30.8845 28.5742 30.9312 28.773C30.9779 28.9718 31.0245 29.1707 31.0712 29.3695L28.828 30.8194C28.604 29.4407 28.3773 28.0957 28.1476 26.7846C28.0561 26.2556 27.9516 25.6939 27.8339 25.0993C27.7219 24.4916 27.6079 23.8792 27.4921 23.2621C27.3763 22.645 27.2643 22.0644 27.1559 21.5204C27.0439 20.9671 26.9391 20.4867 26.8419 20.0797C27.1722 19.8174 27.5345 19.5532 27.9286 19.2872C28.332 19.0175 28.7072 18.8133 29.0542 18.6748ZM29.8966 20.6224C29.6754 20.504 29.471 20.4823 29.2834 20.5572C29.4273 21.2174 29.5581 21.8449 29.6758 22.4395C29.7935 23.0341 29.9168 23.67 30.0457 24.3471C30.239 24.2048 30.3986 23.9779 30.5245 23.6667C30.6467 23.3461 30.707 22.9794 30.7054 22.5668C30.7039 22.1542 30.6187 21.7368 30.4503 21.3147C30.3118 20.9677 30.1272 20.7369 29.8966 20.6224Z"
      fill="white" />
    <path
      d="M34.251 25.8662C34.795 25.6491 35.2555 25.6175 35.6323 25.7716C36.0054 25.9163 36.2575 26.1528 36.3886 26.4811C36.5383 26.8563 36.5183 27.2558 36.3285 27.6794C36.135 28.0938 35.7474 28.417 35.1658 28.6491C34.8845 28.7614 34.6219 28.7846 34.3781 28.7188C34.1475 28.6586 33.9459 28.5489 33.7735 28.3893C33.6067 28.2167 33.4823 28.027 33.3999 27.8207C33.2502 27.4455 33.243 27.0732 33.3783 26.7039C33.5192 26.3214 33.8101 26.0421 34.251 25.8662Z"
      fill="white" />
    <path
      d="M35.1337 16.1022C35.0989 17.4862 35.1098 18.8628 35.1669 20.232C35.2296 21.588 35.2961 22.9534 35.3662 24.3282C35.0942 24.4367 34.8259 24.5547 34.5613 24.6821C34.2968 24.8094 34.0322 24.9367 33.7677 25.0641C33.6857 24.4226 33.6009 23.7876 33.5132 23.1593C33.4256 22.5309 33.3379 21.9025 33.2503 21.2741C33.1532 20.6495 33.061 20.0231 32.9734 19.3948C32.8913 18.7533 32.8111 18.1164 32.7328 17.4843C33.2338 17.1865 33.6936 16.9216 34.112 16.6893C34.5305 16.4571 34.871 16.2614 35.1337 16.1022Z"
      fill="white" />
  </g>
  <defs>
    <radialGradient id="paint0_radial_1382_738" cx="0" cy="0" r="1" gradientUnits="userSpaceOnUse"
      gradientTransform="translate(27.4998 24.5775) rotate(75) scale(43.6195 60.2637)">
      <stop stop-color="white" stop-opacity="0" />
      <stop offset="1" stop-color="white" />
    </radialGradient>
    <radialGradient id="paint1_radial_1382_738" cx="0" cy="0" r="1" gradientUnits="userSpaceOnUse"
      gradientTransform="translate(27.3114 25.8471) rotate(75) scale(30.9928 43.6195)">
      <stop stop-color="white" stop-opacity="0" />
      <stop offset="1" stop-color="white" />
    </radialGradient>
    <radialGradient id="paint2_radial_1382_738" cx="0" cy="0" r="1" gradientUnits="userSpaceOnUse"
      gradientTransform="translate(26.9452 26.571) rotate(75) scale(22.3837 30.4188)">
      <stop stop-color="white" stop-opacity="0" />
      <stop offset="1" stop-color="white" />
    </radialGradient>
    <clipPath id="clip0_1382_738">
      <rect width="40" height="56" fill="white" />
    </clipPath>
  </defs>
</svg>
