<svg xmlns="http://www.w3.org/2000/svg" xmlns:xlink="http://www.w3.org/1999/xlink" width="126" height="26" viewBox="0 0 126 26">
    <defs>
        <linearGradient id="v08zr7vdja" x1="31.127%" x2="89.415%" y1="8.085%" y2="88.961%">
            <stop offset="0%" stop-color="#FF7E74"/>
            <stop offset="100%" stop-color="#00AEF0"/>
        </linearGradient>
        <path id="eybazfdgqb" d="M4.831.032C2.17.032.032 2.17.032 4.832c0 2.66 2.138 4.798 4.8 4.798 2.66 0 4.798-2.138 4.798-4.799C9.63 2.17 7.492.032 4.831.032zm3.883 4.363H6.969c-.087-1.222-.48-2.356-1.178-3.36 1.57.393 2.748 1.746 2.923 3.36zm-5.148.872H6.14c-.131 1.178-.567 2.313-1.265 3.229-.786-.916-1.222-2.05-1.31-3.229zm0-.872c.13-1.178.567-2.312 1.265-3.229.742.96 1.178 2.095 1.265 3.229h-2.53zm.262-3.36C3.173 2.04 2.78 3.174 2.693 4.396H.948c.175-1.614 1.353-2.967 2.88-3.36zM.948 5.268h1.745c.088 1.222.48 2.356 1.178 3.36-1.57-.393-2.748-1.745-2.923-3.36zm4.886 3.36c.655-1.004 1.048-2.138 1.178-3.36h1.745c-.218 1.615-1.396 2.967-2.923 3.36z"/>
    </defs>
    <g fill="none" fill-rule="evenodd">
        <g>
            <g>
                <g stroke="#FFF" stroke-linecap="round" stroke-width=".886">
                    <path d="M0 .074L1.565.074M0 7.756L1.565 7.756" transform="translate(-20 -19) translate(20 19) rotate(90 3.102 12.41)"/>
                </g>
                <path fill="#000" fill-rule="nonzero" d="M92.87 18.466c2.11 0 3.029-1.387 3.029-3.4V8.188c0-2.012-.919-3.4-3.029-3.4h-3.009v13.678h3.01zm-.02-.82h-2.09V5.608h2.09c1.505 0 2.15 1.036 2.15 2.54v6.956c0 1.505-.625 2.54-2.15 2.54zm5.597.82l.684-3.029h4.26l.683 3.029h.9l-3.049-13.697h-1.309l-2.99 13.697h.821zm4.807-3.81h-3.986l1.973-8.851 2.013 8.85zm6.827 3.81l1.915-11.196 1.837 11.196h1.172l2.189-13.677h-.802l-1.973 12.426-1.915-12.368h-.957l-1.993 12.407-2.052-12.465h-.879l2.208 13.677h1.25zm9.778 0V6.274l4.28 12.192h.996V4.789h-.82v11.547L120.21 4.79h-1.172v13.677h.82z" transform="translate(-20 -19) translate(20 19)"/>
                <g fill="#1D1D1B">
                    <path d="M3.443 6.168h3.048v4.305c0 2.173-1.108 3.414-3.246 3.414C1.108 13.887 0 12.646 0 10.473v-7.06C0 1.241 1.108 0 3.245 0c2.138 0 3.246 1.24 3.246 3.413v1.32H4.433V3.277c0-.97-.435-1.338-1.128-1.338-.693 0-1.128.368-1.128 1.338v7.331c0 .97.435 1.32 1.128 1.32.693 0 1.128-.35 1.128-1.32V8.107h-.99v-1.94zM10.154 13.724L7.977 13.724 7.977.148 10.154.148 10.154 5.966 12.627 5.966 12.627.148 14.844.148 14.844 13.724 12.627 13.724 12.627 7.905 10.154 7.905zM16.25 3.414C16.25 1.24 17.418 0 19.555 0c2.138 0 3.305 1.242 3.305 3.414v7.06c0 2.172-1.167 3.414-3.305 3.414-2.137 0-3.305-1.242-3.305-3.414v-7.06zm2.177 7.196c0 .97.436 1.338 1.128 1.338.693 0 1.128-.369 1.128-1.338V3.278c0-.97-.435-1.339-1.128-1.339-.692 0-1.128.37-1.128 1.339v7.332zM27.197 0c2.118 0 3.207 1.242 3.207 3.414v.426h-2.059v-.562c0-.97-.396-1.338-1.089-1.338-.692 0-1.088.368-1.088 1.338 0 2.793 4.255 3.317 4.255 7.196 0 2.172-1.108 3.413-3.246 3.413-2.136 0-3.245-1.24-3.245-3.413V9.64h2.058v.97c0 .969.436 1.318 1.128 1.318.693 0 1.128-.35 1.128-1.319 0-2.793-4.255-3.317-4.255-7.195C23.991 1.242 25.08 0 27.197 0M30.875.148L37.603.148 37.603 2.088 35.328 2.088 35.328 13.725 33.151 13.725 33.151 2.088 30.875 2.088zM40.881 5.869L43.869 5.869 43.869 7.809 40.881 7.809 40.881 11.785 44.641 11.785 44.641 13.725 38.705 13.725 38.705.148 44.641.148 44.641 2.087 40.881 2.087zM50.495 13.724c-.118-.35-.198-.563-.198-1.667V9.923c0-1.26-.435-1.726-1.425-1.726h-.752v5.527h-2.177V.148h3.286c2.255 0 3.226 1.028 3.226 3.123v1.066c0 1.396-.456 2.308-1.425 2.754 1.088.446 1.444 1.474 1.444 2.89v2.095c0 .66.02 1.144.237 1.648h-2.216zM48.12 2.087v4.17h.851c.812 0 1.306-.349 1.306-1.435V3.483c0-.97-.336-1.396-1.108-1.396H48.12zM55.785 9.225L53.034.148 55.31.148 56.973 6.335 58.635.148 60.713.148 57.962 9.225 57.962 13.724 55.785 13.724z" transform="translate(-20 -19) translate(20 19) translate(26.148 4.58)"/>
                </g>
                <g>
                    <g fill="url(#v08zr7vdja)" transform="translate(-20 -19) translate(20 19)">
                        <path d="M21.113 16.18V9.39c0-5.186-4.288-9.39-9.576-9.39C6.247 0 1.96 4.204 1.96 9.39v6.888c-.041.888-.256 2.924-1.307 5.306-1.414 3.2-.244 2.82.804 2.556 1.047-.262 3.387-1.29 4.118-.024.73 1.266 1.34 2.365 3.045 1.648 1.706-.716 2.51-.955 2.753-.955h.331c.244 0 1.048.24 2.753.955 1.706.717 2.315-.382 3.046-1.648.73-1.266 3.07-.238 4.118.024 1.047.263 2.216.645.803-2.556-1.093-2.479-1.282-4.579-1.311-5.404z"/>
                    </g>
                    <g transform="translate(-20 -19) translate(20 19) translate(6.71 5.06)">
                        <use fill="#FFF" fill-rule="nonzero" stroke="#FFF" stroke-width=".5" xlink:href="#eybazfdgqb"/>
                    </g>
                </g>
            </g>
        </g>
    </g>
</svg>
