<svg xmlns="http://www.w3.org/2000/svg" width="167" height="36" viewBox="0 0 167 36">
    <defs>
        <linearGradient id="30wcgaegca" x1="23.581%" x2="89.415%" y1="8.335%" y2="92.702%">
            <stop offset="0%" stop-color="#67A73A"/>
            <stop offset="100%" stop-color="#00AEF0"/>
        </linearGradient>
    </defs>
    <g fill="none" fill-rule="evenodd">
        <g>
            <g>
                <g stroke="#FFF" stroke-linecap="round" stroke-width="1.19">
                    <path d="M0 .099L2.101.099M0 10.412L2.101 10.412" transform="translate(-238 -279) translate(238 279) rotate(90 4.091 16.732)"/>
                </g>
                <path fill="#000" fill-rule="nonzero" d="M124.32 25.157c2.806 0 3.96-1.993 3.96-4.642V15.53h-3.593v1.102h2.44v3.96c0 1.968-.761 3.436-2.781 3.436s-2.78-1.468-2.78-3.436v-9.548c0-1.967.76-3.462 2.78-3.462 2.02 0 2.78 1.495 2.78 3.462v1.443h1.154v-1.364c0-2.65-1.154-4.643-3.96-4.643-2.807 0-3.961 1.994-3.961 4.643v9.39c0 2.65 1.154 4.643 3.96 4.643zM137.892 25v-1.102h-5.77V6.638h-1.207V25h6.977zm6.36.157c2.832 0 4.065-1.967 4.065-4.642v-9.39c0-2.676-1.233-4.644-4.065-4.644-2.78 0-4.014 1.968-4.014 4.643v9.39c0 2.676 1.233 4.643 4.014 4.643zm0-1.101c-2.02 0-2.807-1.47-2.807-3.463v-9.548c0-1.993.787-3.462 2.807-3.462 2.045 0 2.859 1.469 2.859 3.462v9.548c0 1.994-.814 3.463-2.86 3.463zm11.08.944l2.57-15.03L160.369 25h1.574l2.938-18.361h-1.075l-2.65 16.682-2.57-16.604H157.3l-2.676 16.657-2.754-16.735h-1.18L153.652 25h1.68z" transform="translate(-238 -279) translate(238 279)"/>
                <g fill="#1D1D1B">
                    <path d="M4.623 8.28h4.092v5.78c0 2.917-1.489 4.583-4.358 4.583C1.487 18.643 0 16.977 0 14.06V4.582C0 1.666 1.488 0 4.357 0c2.87 0 4.358 1.666 4.358 4.582v1.771H5.95V4.4c0-1.301-.584-1.796-1.514-1.796S2.922 3.1 2.922 4.4v9.843c0 1.302.585 1.77 1.515 1.77.93 0 1.514-.468 1.514-1.77v-3.359H4.623V8.28zM13.631 18.424L10.709 18.424 10.709.198 13.631.198 13.631 8.009 16.952 8.009 16.952.198 19.928.198 19.928 18.424 16.952 18.424 16.952 10.613 13.631 10.613zM21.815 4.583C21.815 1.667 23.383 0 26.252 0c2.87 0 4.437 1.667 4.437 4.583v9.478c0 2.916-1.567 4.583-4.437 4.583s-4.437-1.667-4.437-4.583V4.583zm2.923 9.66c0 1.302.585 1.797 1.514 1.797.93 0 1.514-.495 1.514-1.797V4.4c0-1.301-.584-1.796-1.514-1.796-.929 0-1.514.495-1.514 1.796v9.843zM36.512 0c2.843 0 4.304 1.667 4.304 4.583v.573h-2.763V4.4c0-1.301-.532-1.796-1.463-1.796-.929 0-1.46.495-1.46 1.796 0 3.75 5.712 4.453 5.712 9.66 0 2.917-1.487 4.583-4.357 4.583-2.869 0-4.357-1.666-4.357-4.582v-1.12h2.763v1.302c0 1.301.585 1.77 1.514 1.77.93 0 1.514-.469 1.514-1.77 0-3.75-5.712-4.453-5.712-9.66C32.207 1.667 33.668 0 36.512 0M41.449.198L50.481.198 50.481 2.803 47.427 2.803 47.427 18.425 44.504 18.425 44.504 2.803 41.449 2.803zM54.881 7.879L58.893 7.879 58.893 10.483 54.881 10.483 54.881 15.821 59.93 15.821 59.93 18.425 51.96 18.425 51.96.198 59.93.198 59.93 2.802 54.881 2.802zM67.788 18.424c-.159-.469-.266-.755-.266-2.238V13.32c0-1.692-.584-2.317-1.913-2.317H64.6v7.42h-2.923V.198h4.411c3.028 0 4.331 1.38 4.331 4.193v1.432c0 1.874-.611 3.098-1.913 3.697 1.46.598 1.938 1.978 1.938 3.88v2.811c0 .886.027 1.537.32 2.213h-2.976zM64.6 2.802V8.4h1.142c1.09 0 1.753-.468 1.753-1.927V4.676c0-1.302-.451-1.874-1.487-1.874H64.6zM74.89 12.384L71.197.198 74.251.198 76.485 8.505 78.716.198 81.506.198 77.813 12.384 77.813 18.424 74.89 18.424z" transform="translate(-238 -279) translate(238 279) translate(35.103 6.295)"/>
                </g>
                <g>
                    <g fill="url(#30wcgaegca)" transform="translate(-238 -279) translate(238 279) translate(0 .147)">
                        <path d="M30.104 28.976c-1.468-3.328-1.721-6.147-1.76-7.255v-9.114C28.343 5.644 22.587 0 15.487 0S2.63 5.644 2.63 12.607v9.246c-.055 1.192-.344 3.925-1.755 7.123-1.897 4.297-.327 3.785 1.08 3.431 1.406-.352 4.546-1.732 5.528-.032.98 1.7 1.799 3.175 4.088 2.213 2.29-.962 3.369-1.282 3.696-1.282h.444c.327 0 1.407.32 3.696 1.282 2.29.962 3.108-.514 4.089-2.213.98-1.7 4.121-.32 5.528.032 1.407.354 2.976.866 1.079-3.431"/>
                    </g>
                    <g fill="#FFF" fill-rule="nonzero" stroke="#FFF" stroke-width=".5">
                        <path d="M14.459 13.043L11.406 9.97c.748-1.031 1.193-2.305 1.193-3.68C12.599 2.812 9.768 0 6.31 0 2.852.001.022 2.832.022 6.29c0 3.478 2.83 6.288 6.288 6.288 1.375 0 2.649-.444 3.68-1.193l3.053 3.074c.203.202.466.303.708.303.243 0 .526-.1.708-.303.404-.384.404-1.031 0-1.416zm-8.17-2.466c-2.365 0-4.266-1.921-4.266-4.267 0-2.366 1.921-4.266 4.267-4.266 2.345 0 4.287 1.9 4.287 4.246 0 2.366-1.921 4.287-4.287 4.287z" transform="translate(-238 -279) translate(238 279) translate(0 .147) translate(9.198 5.802)"/>
                    </g>
                </g>
            </g>
        </g>
    </g>
</svg>
