<svg xmlns="http://www.w3.org/2000/svg" width="238px" height="38px" viewBox="0 0 362 57">
    <g fill="none" fill-rule="evenodd">
        <g fill-rule="nonzero">
            <g>
                <g>
                    <path fill="#F26522" d="M26.707 0L0 0 0 26.707 26.707 26.707z" transform="translate(-269 -108) translate(269 108)"/>
                    <path fill="#8DC63F" d="M56.191 0L29.484 0 29.484 26.707 56.191 26.707z" transform="translate(-269 -108) translate(269 108)"/>
                    <path fill="#00AEEF" d="M26.707 29.484L0 29.484 0 56.191 26.707 56.191z" transform="translate(-269 -108) translate(269 108)"/>
                    <path fill="#FFC20E" d="M56.191 29.484L29.484 29.484 29.484 56.191 56.191 56.191z" transform="translate(-269 -108) translate(269 108)"/>
                </g>
                <g fill="#737373">
                    <path d="M36.59 2.639v33.72h-5.835V9.932h-.118L20.213 36.358H16.33L5.577 9.933h-.07v26.425H.093V2.638h8.4l9.672 24.99h.14l10.237-24.99h8.047zm4.895 2.588c0-.941.353-1.741 1.035-2.377.682-.635 1.482-.94 2.424-.94.898-.026 1.77.307 2.424.925.653.618 1.034 1.47 1.058 2.368 0 .942-.33 1.718-1.012 2.354-.658.611-1.506.94-2.47.94-.965 0-1.789-.329-2.448-.964-.682-.635-1.011-1.412-1.011-2.33v.024zm6.282 6.965v24.166h-5.694V12.192h5.694zM65.04 32.217c.823 0 1.765-.189 2.776-.565 1.036-.4 1.977-.918 2.824-1.553v5.27c-.894.519-1.93.942-3.059 1.177-1.251.277-2.53.412-3.812.4-3.243.136-6.397-1.083-8.706-3.365-2.227-2.301-3.417-5.412-3.294-8.612 0-3.882 1.129-7.082 3.411-9.6 2.26-2.518 5.483-3.765 9.648-3.765 2.024.002 4.02.47 5.836 1.365v5.435c-.826-.609-1.728-1.107-2.683-1.482-.9-.354-1.857-.537-2.823-.541-2.236 0-4.048.729-5.413 2.188-1.364 1.459-2.094 3.435-2.094 5.906 0 2.447.683 4.353 2 5.718 1.318 1.365 3.13 2.024 5.412 2.024h-.023zm21.813-20.425c.728-.021 1.453.09 2.141.33v5.765c-1.01-.644-2.19-.972-3.388-.942-1.412 0-2.589.612-3.53 1.789-.941 1.176-1.459 2.988-1.459 5.412v12.236h-5.694V12.169h5.694v3.812h.094c.518-1.318 1.318-2.354 2.353-3.083 1.06-.753 2.306-1.13 3.765-1.13l.024.024zm2.447 12.848c0-4 1.13-7.177 3.388-9.507 2.26-2.33 5.412-3.506 9.413-3.506 3.765 0 6.706 1.13 8.847 3.365 2.142 2.236 3.177 5.295 3.177 9.13 0 3.906-1.13 7.036-3.389 9.342-2.453 2.398-5.797 3.66-9.224 3.482-3.74 0-6.706-1.106-8.918-3.294-2.286-2.426-3.477-5.684-3.294-9.012zm5.93-.188c0 2.517.564 4.447 1.717 5.788 1.153 1.341 2.777 1.977 4.918 1.977 2.048 0 3.624-.66 4.707-1.977 1.082-1.318 1.647-3.318 1.647-5.93 0-2.588-.565-4.565-1.695-5.882-1.177-1.355-2.913-2.093-4.706-2-2.094 0-3.694.706-4.847 2.07-1.177 1.412-1.741 3.389-1.741 5.954zm27.366-5.907c0 .824.235 1.46.776 1.93.518.47 1.648 1.035 3.436 1.741 2.259.918 3.859 1.93 4.777 3.06.917 1.152 1.364 2.517 1.364 4.14 0 2.26-.87 4.095-2.611 5.483-1.742 1.389-4.118 2.07-7.083 2.07-2.207-.019-4.388-.466-6.424-1.317v-5.577c1.035.706 2.141 1.295 3.341 1.718 1.177.424 2.283.635 3.248.635 1.294 0 2.235-.188 2.847-.54.612-.377.917-.965.917-1.813 0-.8-.329-1.458-.94-2-.66-.54-1.86-1.176-3.625-1.882-2.094-.87-3.576-1.86-4.47-2.965-.895-1.106-1.318-2.47-1.318-4.165 0-2.188.87-4 2.588-5.388 1.765-1.412 4-2.118 6.754-2.118 1.872.033 3.726.383 5.482 1.035v5.412c-.753-.518-1.647-.941-2.635-1.318-.957-.352-1.969-.535-2.989-.54-1.082 0-1.93.235-2.517.635-.603.38-.96 1.051-.942 1.764h.024zm12.8 6.095c0-4 1.13-7.177 3.39-9.507 2.506-2.436 5.921-3.708 9.411-3.506 3.765 0 6.73 1.13 8.848 3.365 2.118 2.236 3.177 5.295 3.177 9.13 0 3.906-1.13 7.036-3.389 9.342-2.448 2.392-5.782 3.654-9.2 3.482-3.765 0-6.73-1.106-8.942-3.294-2.287-2.426-3.477-5.684-3.294-9.012zm5.93-.188c0 2.517.565 4.447 1.718 5.788 1.153 1.341 2.777 1.977 4.942 1.977 2.047 0 3.623-.66 4.706-1.977 1.082-1.318 1.647-3.318 1.647-5.93 0-2.588-.588-4.565-1.694-5.882-1.178-1.355-2.914-2.093-4.706-2-2.095 0-3.718.706-4.871 2.07-1.272 1.713-1.89 3.825-1.742 5.954zm37.79-7.6h-8.47v19.53h-5.765v-19.53h-4.048v-4.66h4.048V8.827c-.09-2.354.816-4.637 2.495-6.289 1.68-1.652 3.976-2.521 6.329-2.394.706 0 1.317.047 1.835.118.541.07 1.012.188 1.412.33v4.917c-.8-.413-1.688-.63-2.588-.635-1.2 0-2.118.377-2.777 1.106-.635.753-.941 1.835-.941 3.294v2.942h8.47V6.78l5.695-1.741v7.177h5.789v4.635h-5.765v11.295c0 1.506.282 2.565.823 3.177.541.611 1.389.917 2.542.917.85-.077 1.672-.351 2.4-.8v4.706c-.353.212-.942.4-1.789.565-.847.165-1.647.235-2.494.235-2.377 0-4.188-.611-5.388-1.882-1.177-1.294-1.789-3.2-1.789-5.789V16.851h-.023zM203.54 36.688V3.345h10.59c3.223 0 5.788.705 7.67 2.117 1.883 1.412 2.824 3.248 2.824 5.506 0 1.883-.541 3.53-1.6 4.942-1.133 1.432-2.69 2.47-4.447 2.965v.094c2.306.259 4.118 1.106 5.482 2.565 1.389 1.412 2.071 3.294 2.071 5.577 0 2.847-1.13 5.176-3.365 6.918-2.235 1.74-5.082 2.659-8.518 2.659h-10.706zm5.53-28.896v9.483h3.577c1.93 0 3.435-.47 4.518-1.342 1.106-.94 1.647-2.211 1.647-3.859 0-2.87-1.906-4.282-5.718-4.282h-4.024zm0 13.93v10.542h4.706c2.071 0 3.671-.47 4.777-1.412 1.13-.965 1.694-2.283 1.694-3.953 0-3.46-2.376-5.177-7.176-5.177h-4zm23.813-13.836c-.87 0-1.647-.306-2.259-.87-.635-.565-.94-1.295-.94-2.189 0-.894.305-1.624.94-2.212.636-.588 1.389-.87 2.283-.87.894 0 1.67.282 2.306.87.635.588.941 1.341.941 2.212 0 .847-.306 1.553-.941 2.165-.635.588-1.412.894-2.33.894zm2.683 28.802h-5.389V12.874h5.412l-.023 23.814zm26.707 0h-5.388V23.275c0-4.47-1.577-6.683-4.706-6.683-1.648 0-3.012.636-4.095 1.883-1.09 1.293-1.66 2.945-1.6 4.635v13.578h-5.412V12.874h5.412v3.954h.094c1.504-2.852 4.495-4.604 7.718-4.518 2.589 0 4.565.847 5.93 2.541 1.365 1.67 2.047 4.094 2.047 7.295v14.542zm26.708-1.906c0 8.73-4.377 13.106-13.178 13.106-2.785.064-5.552-.465-8.118-1.553v-4.941c2.589 1.506 5.083 2.235 7.412 2.235 5.648 0 8.495-2.777 8.495-8.353v-2.589h-.094c-1.596 2.926-4.718 4.688-8.048 4.542-2.698.086-5.286-1.077-7.012-3.153-1.875-2.44-2.818-5.469-2.659-8.542 0-4.047.942-7.247 2.871-9.648 1.93-2.4 4.518-3.576 7.86-3.576 3.129 0 5.458 1.294 6.988 3.859h.094v-3.295h5.412l-.023 21.908zm-5.342-8.99v-3.105c0-1.67-.565-3.106-1.67-4.283-1.055-1.17-2.567-1.823-4.142-1.788-2.047 0-3.647.776-4.8 2.282-1.262 1.861-1.874 4.086-1.742 6.33 0 2.353.565 4.212 1.648 5.624 1.13 1.412 2.588 2.094 4.423 2.094 1.883 0 3.389-.682 4.542-2 1.176-1.365 1.741-3.059 1.741-5.177v.024z" transform="translate(-269 -108) translate(269 108) translate(72.945 8.586)"/>
                </g>
            </g>
        </g>
    </g>
</svg>
