<svg xmlns="http://www.w3.org/2000/svg" width="154" height="59" viewBox="0 0 154 59">
    <g fill="none" fill-rule="evenodd">
        <g fill-rule="nonzero">
            <g>
                <g transform="translate(-374 -106) translate(187 107) translate(187)">
                    <path fill="#0075BE" d="M63.707 22.163v17.35h7.035v-17.52c.596-9.888 27.103-13.163 29.742 0v17.52h7.36v-17.35c0-1.99-.498-3.801-1.495-5.432-.998-1.63-2.44-3.039-4.325-4.224-1.886-1.185-4.185-2.104-6.897-2.759-2.712-.654-5.782-.98-9.21-.98-3.398 0-6.453.336-9.165 1.009-2.712.673-5.042 1.612-6.99 2.816-1.948 1.204-3.444 2.621-4.489 4.252-1.044 1.63-1.566 3.403-1.566 5.318z"/>
                    <path fill="#0075BE" stroke="#000" stroke-width=".825" d="M51.681 10.591c2.78 1.171 5.066.608 7.339 0v29.08H51.68V10.59z"/>
                    <ellipse cx="55.345" cy="3.749" fill="#FBA829" stroke="#000" stroke-width=".825" rx="5.356" ry="3.749"/>
                    <path fill="#0075BE" d="M48.419 26.498c.917-6.694-3.692-11.046-6.753-13.174-4.53-3.147-10.236-4.7-15.759-4.988-6.52-.065-12.85.785-18.648 4.818V.754H.001v22.47c-.083 9.41 6.25 13.44 14.405 16.53 2.962.73 6.245 1.096 9.848 1.096 3.544 0 6.79-.366 9.737-1.097 2.948-.73 5.494-1.905 7.638-3.195 2.144-1.29 3.812-2.799 5.003-4.527 1.19-1.729 1.786-3.573 1.787-5.533zM26.393 36.843c-8.155.254-17.712-2.208-18.64-11.774-.516-5.316 4.779-12.01 16.501-12.423 4.82-.17 16.063 2.518 16.83 11.6.474 5.6-6.536 12.342-14.691 12.597zM150.607 22.086c-.005-3.442-1.877-5.906-3.995-7.974 2.368-.26 4.892-.275 7.308-.077V7.343c-4.79-.34-10.314 1.021-13.198 2.956-.744-.288-1.526-.55-2.345-.784-2.515-.722-5.277-1.083-8.286-1.083-3.06 0-5.84.361-8.343 1.083-2.503.721-4.665 1.693-6.485 2.915-1.82 1.222-3.236 2.665-4.247 4.33-1.012 1.664-1.517 3.44-1.517 5.326 0 1.87.505 3.62 1.517 5.252 1.01 1.632 2.389 3.063 4.133 4.293 1.745 1.23 3.78 2.193 6.106 2.89 4.397 1.082 9.23 1.577 13.727.779 12.17 4.651 7.346 14.04 2.769 16.027-8.423 3.655-16.12 1.606-19.556-3.915h-7.806c2.825 7.862 14.016 10.16 19.417 10.224 11.678.137 24.644-7.586 19.48-18.379-1.477-3.089-5.041-5.618-7.219-6.166 5.476-2.454 8.548-6.434 8.54-11.005zm-20.516 9.384c-7.12 0-12.847-4.265-12.847-9.335 0-6.36 8.085-9.482 12.847-9.482 7.18 0 12.654 4.612 12.654 9.482 0 6.292-7.075 9.335-12.654 9.335z"/>
                </g>
            </g>
        </g>
    </g>
</svg>
