<svg xmlns="http://www.w3.org/2000/svg" width="196" height="37" viewBox="0 0 196 37">
    <g fill="none" fill-rule="evenodd">
        <g fill-rule="nonzero">
            <g>
                <g>
                    <path fill="#374677" d="M142.29 16.995c-.463-.002-.923-.075-1.363-.216l.037 1.29c.867.343 1.793.515 2.726.505 3.367 0 5.624-1.936 5.624-4.73 0-2.688-2.257-5.038-6.093-5.038-5.267 0-8.529 4.317-8.529 9.478 0 5.02 3.084 8.097 7.74 8.097 3.62 0 5.95-1.714 6.783-2.72l-.358-1.325c-1.15.824-2.526 1.274-3.94 1.289-2.689 0-5.34-1.29-5.34-6.414 0-4.316 1.362-6.783 3.335-6.783 1.326 0 2.294.968 2.294 2.972 0 2.436-1.146 3.583-2.904 3.583M41.748 16.181L37 17.581c-2.726.826-4.12 2.257-4.12 4.477 0 2.368 1.85 4.317 4.761 4.317 2.584 0 4.157-1.147 4.934-2.19.252 1.074 1.079 2.22 3.12 2.22 1.647 0 2.775-.462 3.7-1.572l-.432-.968c-.182.188-.435.291-.697.284-.616 0-1.035-.321-1.035-1.178V13.32c0-3.083-2.19-4.539-5.914-4.539-4.41 0-7.918 2.066-7.918 4.36 0 1.178.93 1.85 2.152 1.85.259-.004.517-.03.77-.08.764-.183 1.3-.868 1.296-1.653v-.727c0-1.326.573-2.01 2.226-2.01 1.467 0 2.651.647 2.651 2.799v2.004c0 .574-.178.716-.752.857m.753 5.482c0 1.437-.9 2.19-2.258 2.19-1.51 0-2.583-.864-2.583-2.467 0-1.4.789-2.51 2.466-3.225l2.368-.931.007 4.433z" transform="translate(-606 -287) translate(523 257) translate(83 30)"/>
                    <path fill="#374677" d="M128.267 22.965l-4.977-.074c-1.184-.037-1.936-.469-1.936-1.579.037-.43.2-.84.469-1.178 1.062.347 2.175.516 3.293.5 4.871 0 7.634-2.689 7.634-5.914-.016-1.89-1.023-3.632-2.652-4.588l-.32-.185c-.179-.11-.364-.21-.555-.296l-.272-.123c-.473-.192-.962-.341-1.461-.444l-.204-.037c.432-.691 2.17-3.972 3.99-4.6.66-.229 1.116.073 1.85.715.481.431.882 1.122 2.029 1.122 1.147 0 2.571-1.19 2.571-2.467 0-1.276-.327-2.948-3.213-2.948-4.026 0-6.623 4.17-8.09 7.037 0 0-.352.734-.438.95-.278 0-.555-.031-.845-.031-4.835 0-7.597 2.725-7.597 5.876 0 2.11 1.214 4.03 3.12 4.934-.968.9-2.466 2.121-2.466 3.44-.034 1.068.474 2.079 1.35 2.69.504.347 1.065.602 1.659.752.788.19 1.59.314 2.399.37l2.793.104c2.19.075 3.657.648 3.657 2.51 0 2.183-2.467 3.478-5.877 3.478-2.756 0-4.834-1.042-4.834-3.009.006-1.018.572-1.95 1.473-2.423-.764-.272-1.449-.543-2.028-.704-1.727.796-2.467 1.943-2.467 3.337 0 2.368 2.54 4.316 7.165 4.316 6.698 0 10.57-3.44 10.57-7.024 0-3.157-2.405-4.483-5.809-4.514m-3.114-12.684c2.183 0 2.867 1.751 2.867 4.44 0 2.688-.684 4.483-2.867 4.483s-2.83-1.758-2.83-4.483c0-2.726.647-4.44 2.83-4.44M21.201 22.416c0 1.936 1.233 3.977 4.73 3.977 2.36.062 4.535-1.272 5.55-3.404l-.9-.715c-.605.85-1.573 1.368-2.615 1.4-1.147 0-2.041-.617-2.041-1.936V11.716h4.655v-1.72H25.9V4.97h-1.653c-.178 2.11-2.368 5.236-5.34 5.384v1.363h2.294v10.699zM5.272 18.364c.074-.4.1-1.264-.27-1.547-.195-.17-.432-.283-.685-.327-2.942-.395-4.983 4.822-2.775 7.091 1.406 1.45 3.317 2.603 6.857 2.812 6.167.37 9.743-3.213 9.99-7.326.234-3.823-2.596-5.685-6.463-7.745l-2.614-1.276c-2.226-1.234-3.38-2.251-3.3-4.255.204-2.72 2.467-4.095 4.934-3.836 2.207.234 2.362 1.51 2.294 3.188l-.093 1.64c-.023.307.077.61.279.842.201.232.488.373.794.392 1.505.092 3.306-.617 3.423-2.56.13-2.213-1.166-4.618-6.53-4.933-5.797-.376-9.368 2.93-9.584 6.537-.185 3.04 1.35 5.001 4.897 6.9l2.787 1.394c2.713 1.492 4.317 2.707 4.144 5.285-.173 2.578-1.43 4.526-4.637 4.193-3.207-.333-3.528-3.176-3.596-4.242-.009-.183-.009-.367 0-.55.014-.562.068-1.122.16-1.677M52.984 13.036v9.54c0 1.505-.253 2.078-1.69 2.078h-.616v1.431h9.743v-1.418h-.74c-1.468 0-2.004-.574-2.004-2.079v-9.021c.786-.68 1.623-1.298 2.504-1.85.138 1.327 1.287 2.316 2.62 2.257 1.408-.01 2.549-1.146 2.566-2.553 0-1.394-1.005-2.615-2.868-2.615-1.363 0-3.404.968-4.872 3.01v-.1c0-1.362-.968-2.762-3.299-2.762-1.372.028-2.728.295-4.008.79v1.325c.306-.068.618-.103.931-.105 1.233 0 1.758.82 1.758 2.079M75.573 23.674c-1.147 0-2.042-.617-2.042-1.936V11.716h4.656V9.99h-4.656V4.97H71.88c-.18 2.115-2.362 5.236-5.34 5.384v1.363h2.293v10.699c0 1.936 1.234 3.977 4.73 3.977 2.361.065 4.537-1.27 5.55-3.404l-.894-.715c-.606.848-1.573 1.366-2.615 1.4M152.47 22.89c-.96.01-1.734.795-1.732 1.756.002.962.78 1.742 1.741 1.747.962.006 1.748-.765 1.762-1.726.001-.468-.185-.917-.518-1.245-.333-.328-.785-.509-1.252-.5M162.455 24.765c-1.573 0-3.41-.795-3.41-4.051 0-2.991.999-4.12 2.349-4.12.684 0 .95.266.95 1v1.017c.328.26.734.402 1.153.4.369.035.735-.086 1.01-.335.274-.249.431-.601.433-.971 0-1.043-1.233-2.017-3.46-2.017-3.206 0-5.42 2.325-5.445 5.803 0 2.966 1.924 4.89 4.897 4.89 1.524.032 3-.53 4.119-1.566l-.179-.802c-.712.487-1.554.749-2.417.752M171.513 15.688c-1.424-.037-2.8.518-3.8 1.534s-1.532 2.401-1.472 3.825c0 2.905 2.355 5.26 5.26 5.26s5.26-2.355 5.26-5.26c.062-1.42-.467-2.802-1.462-3.818-.994-1.015-2.365-1.573-3.786-1.541m0 9.743c-1.375 0-2.195-1.085-2.195-4.384 0-3.3.82-4.397 2.195-4.397 1.376 0 2.171 1.085 2.171 4.403 0 3.318-.82 4.384-2.17 4.384M195.175 25.21c-.752 0-1.018-.352-1.018-1.283V18.08c0-1.486-.93-2.393-2.682-2.393-1.42.07-2.768.643-3.805 1.616-.222-.839-1.134-1.616-2.596-1.616-1.352.08-2.628.655-3.583 1.616l.062-1.616h-.728c-.617.469-1.973.845-3.632.845v.882h.666c.573 0 .752.178.752.709v5.803c0 .93-.154 1.282-1.042 1.282h-.4v.888h5.74v-.888h-.314c-.906 0-1.085-.376-1.085-1.282V18.79c0-.888.82-1.394 1.85-1.394 1.03 0 1.597.487 1.597 1.659v4.872c0 .93-.204 1.282-1.067 1.282h-.24v.888h5.55v-.888h-.358c-.753 0-1.018-.351-1.018-1.282V18.79c0-.888.82-1.394 1.85-1.394 1.03 0 1.573.487 1.573 1.659v4.872c0 .93-.179 1.282-1.042 1.282h-.24v.888h5.518v-.888h-.308zM91.723 8.757c-1.847-.014-3.63.679-4.983 1.936l.105-1.936h-1.233c-.968.752-3.157 1.363-5.84 1.363v1.43h1.073c.931 0 1.233.29 1.233 1.147v18.58c0 1.505-.252 2.041-1.72 2.041h-.617v1.4h9.78V33.3h-.93c-1.431 0-1.789-.617-1.789-2.078V13.27c0-1.468 1.073-2.294 2.72-2.294 2.226 0 4.267 1.757 4.267 6.845 0 4.693-1.906 6.845-4.181 7.024-.358.03-.648.037-.962.037v1.233c.421.05.846.074 1.27.074 5.162 0 8.819-3.546 8.819-9.386 0-4.933-3.01-8.06-6.987-8.06" transform="translate(-606 -287) translate(523 257) translate(83 30)"/>
                    <path fill="#374677" d="M116.741 24.82l-.431-.967c-.183.188-.435.291-.697.283-.617 0-1.036-.32-1.036-1.177V13.32c0-3.083-2.19-4.539-5.914-4.539-4.41 0-7.918 2.066-7.918 4.36 0 1.178.931 1.85 2.146 1.85.259-.003.517-.03.77-.08.788-.164 1.35-.86 1.345-1.665v-.715c0-1.326.573-2.01 2.22-2.01 1.474 0 2.652.647 2.652 2.799v2.004c0 .574-.18.716-.753.857l-4.73 1.4c-2.719.826-4.119 2.257-4.119 4.477 0 2.368 1.85 4.317 4.767 4.317 2.578 0 4.156-1.147 4.933-2.19.253 1.074 1.073 2.22 3.084 2.22 1.417.118 2.8-.47 3.7-1.572m-6.864-3.157c0 1.437-.894 2.189-2.257 2.189-1.504 0-2.578-.863-2.578-2.467 0-1.4.79-2.51 2.467-3.225l2.362-.931.006 4.434z" transform="translate(-606 -287) translate(523 257) translate(83 30)"/>
                    <path fill="#6573FF" d="M74.746 33.59c-5.056-.617-13.566-1.573-22.083-2.066-7.708-.438-14.935-.573-18.26-.573-18.906 0-19.535.462-30.69 1.64-3.818.4-3.787 4.84.456 4.36 6.314-.71 15.139-1.616 22.687-2.115 6.24-.407 15.694-.92 26.066-.92 9.115 0 17.175.18 21.732.513.158.039.324-.017.427-.144.102-.127.122-.302.05-.448-.072-.146-.222-.238-.385-.235" transform="translate(-606 -287) translate(523 257) translate(83 30)"/>
                </g>
            </g>
        </g>
    </g>
</svg>
