<svg xmlns="http://www.w3.org/2000/svg" width="24.75" height="22" viewBox="0 0 24.75 22">
  <path id="Extensions_icon" data-name="Extensions icon" d="M9.392-8.25c-2.248,0-3.094,2-3.75,1.182-.865-1.078-.087-4.608.149-5.669-1.471.274-5.9,1.043-7.04.094C-1.962-13.237.1-14.513.1-16.358A2.972,2.972,0,0,0-3.144-19.25c-1.872,0-3.643,1.1-3.643,2.957,0,2.278,1.972,3.077,1.046,3.807-1.221.963-5.116.133-6.634-.232V2.121a20.037,20.037,0,0,0,4.562.629C-6,2.75-4.125,2.241-4.125.424-4.125-.837-5.5-1.33-5.5-2.75c0-1.05.968-1.375,2.019-1.375,1.663,0,2.106.864,2.106,1.375,0,1.237-1.473,1.562-1.473,3.291a1.878,1.878,0,0,0,.623,1.454c1.51,1.335,4.586.271,8.039.27-.041-.147-1.152-3.726-.331-4.809C6.2-3.491,7.571-1.294,9.459-1.294c1.809,0,2.916-1.731,2.916-3.519C12.375-6.653,11.248-8.25,9.392-8.25Zm.066,5.581c-1.289,0-1.777-1.456-3.5-1.456-2.3,0-2.356,2.792-1.9,5.062-1.564.147-4.6.706-5.368.026C-2.179.2,0-.847,0-2.75,0-4.369-1.432-5.5-3.481-5.5-6.7-5.5-7.9-2.929-5.895-.256A1.713,1.713,0,0,1-5.5.424c0,1.448-4.039.886-5.5.6V-11c2.718.5,6.875.779,6.875-2,0-1.227-1.287-1.847-1.287-3.293,0-1.06,1.212-1.582,2.268-1.582.861,0,1.866.4,1.866,1.517,0,1.264-1.473,1.751-1.473,3.464,0,2.485,4.333,2.188,6.8,1.852C3.7-8.71,3.694-5.5,6.062-5.5c1.252,0,1.877-1.375,3.33-1.375,1.072,0,1.608,1,1.608,2.063C11-3.334,10.1-2.669,9.459-2.669Z" transform="translate(12.375 19.25)" fill="#aaa"/>
</svg>
