<svg xmlns="http://www.w3.org/2000/svg" width="21.313" height="21.313" viewBox="0 0 21.313 21.313">
  <path id="Safari_icon" data-name="Safari icon" d="M.8-7.447-.8-9.053l-3.064,4.67ZM0-18.906A10.654,10.654,0,0,0-10.656-8.25,10.654,10.654,0,0,0,0,2.406,10.654,10.654,0,0,0,10.656-8.25,10.654,10.654,0,0,0,0-18.906ZM6.7-11.4l.635-.263a.342.342,0,0,1,.131-.026.344.344,0,0,1,.318.212.342.342,0,0,1,.026.132.344.344,0,0,1-.212.318l-.634.263a.342.342,0,0,1-.131.026.344.344,0,0,1-.318-.212.342.342,0,0,1-.026-.132A.344.344,0,0,1,6.7-11.4ZM2.511-15.211l.263-.635a.344.344,0,0,1,.317-.211.343.343,0,0,1,.132.027.344.344,0,0,1,.212.318.343.343,0,0,1-.026.131l-.263.635a.344.344,0,0,1-.318.212.344.344,0,0,1-.131-.026.344.344,0,0,1-.212-.318A.344.344,0,0,1,2.511-15.211ZM0-16.672a.344.344,0,0,1,.344.344v.688A.344.344,0,0,1,0-15.3a.344.344,0,0,1-.344-.344v-.687A.344.344,0,0,1,0-16.672Zm-3.223.641a.342.342,0,0,1,.132-.026.344.344,0,0,1,.318.212l.263.634a.343.343,0,0,1,.029.137.344.344,0,0,1-.344.344.343.343,0,0,1-.32-.218l-.263-.635a.343.343,0,0,1-.025-.13A.344.344,0,0,1-3.223-16.031Zm-2.732,1.826a.343.343,0,0,1,.243-.1.343.343,0,0,1,.243.1l.484.486a.343.343,0,0,1,.1.242.343.343,0,0,1-.1.242.343.343,0,0,1-.243.1.343.343,0,0,1-.243-.1l-.486-.486a.343.343,0,0,1-.1-.242.343.343,0,0,1,.1-.243ZM-8.422-8.25a.344.344,0,0,1,.344-.344h.688a.344.344,0,0,1,.344.344.344.344,0,0,1-.344.344h-.687A.344.344,0,0,1-8.422-8.25ZM-6.7-5.1l-.635.263a.342.342,0,0,1-.131.026.344.344,0,0,1-.318-.212.342.342,0,0,1-.026-.132.344.344,0,0,1,.212-.318l.634-.263a.342.342,0,0,1,.131-.026.344.344,0,0,1,.318.212.342.342,0,0,1,.026.132A.344.344,0,0,1-6.7-5.1Zm.186-5.844a.344.344,0,0,1-.318.214.343.343,0,0,1-.132-.027l-.635-.263a.344.344,0,0,1-.211-.317.343.343,0,0,1,.027-.132.344.344,0,0,1,.318-.212.343.343,0,0,1,.131.026l.635.263a.344.344,0,0,1,.212.318.344.344,0,0,1-.026.131Zm4,9.659-.263.635a.344.344,0,0,1-.318.213.344.344,0,0,1-.344-.344.345.345,0,0,1,.026-.132l.263-.635a.344.344,0,0,1,.32-.219.344.344,0,0,1,.344.344A.345.345,0,0,1-2.511-1.289ZM.344-.172A.344.344,0,0,1,0,.172.344.344,0,0,1-.344-.172V-.859A.344.344,0,0,1,0-1.2a.344.344,0,0,1,.344.344Zm2.879-.3a.342.342,0,0,1-.132.026.344.344,0,0,1-.318-.212l-.263-.634a.342.342,0,0,1-.026-.131A.344.344,0,0,1,2.7-1.738a.342.342,0,0,1,.131-.026.344.344,0,0,1,.318.212l.263.635a.343.343,0,0,1,.025.13A.344.344,0,0,1,3.223-.469ZM5.955-2.295a.343.343,0,0,1-.243.1.343.343,0,0,1-.243-.1l-.484-.486a.343.343,0,0,1-.1-.242.343.343,0,0,1,.1-.242.343.343,0,0,1,.243-.1.343.343,0,0,1,.243.1l.486.486a.343.343,0,0,1,.1.242.343.343,0,0,1-.1.243ZM1.3-6.95-6.259-1.991-1.3-9.55l7.559-4.959ZM7.781-5.027a.344.344,0,0,1-.318.212.343.343,0,0,1-.131-.026L6.7-5.1a.344.344,0,0,1-.212-.318.344.344,0,0,1,.026-.131.344.344,0,0,1,.318-.212.344.344,0,0,1,.133.027l.635.263a.344.344,0,0,1,.211.317A.343.343,0,0,1,7.781-5.027Zm.3-2.879H7.391a.344.344,0,0,1-.344-.344.344.344,0,0,1,.344-.344h.688a.344.344,0,0,1,.344.344A.344.344,0,0,1,8.078-7.906Z" transform="translate(10.656 18.906)" fill="#aaa"/>
</svg>
