<svg xmlns="http://www.w3.org/2000/svg" width="233" height="161"><defs><linearGradient id="a" x1="-6.31%" x2="110.62%" y1="21.344%" y2="81.054%"><stop offset="0%" stop-color="#720174"/><stop offset="18%" stop-color="#5A258E"/><stop offset="57%" stop-color="#2A6EC2"/><stop offset="86%" stop-color="#0C9CE3"/><stop offset="100%" stop-color="#00AEF0"/></linearGradient><linearGradient id="b" x1="-2.362%" x2="194.969%" y1="41.332%" y2="103.268%"><stop offset="0%" stop-color="#720174"/><stop offset="18%" stop-color="#5A258E"/><stop offset="57%" stop-color="#2A6EC2"/><stop offset="86%" stop-color="#0C9CE3"/><stop offset="100%" stop-color="#00AEF0"/></linearGradient><linearGradient id="c" x1="0%" x2="100%" y1="50%" y2="50%"><stop offset="0%" stop-color="#720174"/><stop offset="18%" stop-color="#5A258E"/><stop offset="57%" stop-color="#2A6EC2"/><stop offset="86%" stop-color="#0C9CE3"/><stop offset="100%" stop-color="#00AEF0"/></linearGradient><linearGradient id="d" x1="-44.122%" x2="75.297%" y1="-79.086%" y2="108.957%"><stop offset="0%" stop-color="#720174"/><stop offset="18%" stop-color="#5A258E"/><stop offset="57%" stop-color="#2A6EC2"/><stop offset="86%" stop-color="#0C9CE3"/><stop offset="100%" stop-color="#00AEF0"/></linearGradient><linearGradient id="e" x1="19.637%" x2="142.433%" y1="-1.704%" y2="190.306%"><stop offset="0%" stop-color="#720174"/><stop offset="18%" stop-color="#5A258E"/><stop offset="57%" stop-color="#2A6EC2"/><stop offset="86%" stop-color="#0C9CE3"/><stop offset="100%" stop-color="#00AEF0"/></linearGradient><linearGradient id="f" x1="-77.395%" x2="103.488%" y1="11.428%" y2="60.912%"><stop offset="0%" stop-color="#720174"/><stop offset="18%" stop-color="#5A258E"/><stop offset="57%" stop-color="#2A6EC2"/><stop offset="86%" stop-color="#0C9CE3"/><stop offset="100%" stop-color="#00AEF0"/></linearGradient><linearGradient id="g" x1="-37.793%" x2="62.836%" y1="-43.684%" y2="65.013%"><stop offset="0%" stop-color="#720174"/><stop offset="18%" stop-color="#5A258E"/><stop offset="57%" stop-color="#2A6EC2"/><stop offset="86%" stop-color="#0C9CE3"/><stop offset="100%" stop-color="#00AEF0"/></linearGradient><linearGradient id="h" x1="17.617%" x2="89.082%" y1="19.684%" y2="90.296%"><stop offset="0%" stop-color="#720174"/><stop offset="18%" stop-color="#5A258E"/><stop offset="57%" stop-color="#2A6EC2"/><stop offset="86%" stop-color="#0C9CE3"/><stop offset="100%" stop-color="#00AEF0"/></linearGradient><linearGradient id="i" x1="-260.241%" x2="65.459%" y1="-108.042%" y2="62.565%"><stop offset="0%" stop-color="#720174"/><stop offset="18%" stop-color="#5A258E"/><stop offset="57%" stop-color="#2A6EC2"/><stop offset="86%" stop-color="#0C9CE3"/><stop offset="100%" stop-color="#00AEF0"/></linearGradient><linearGradient id="j" x1="-.174%" x2="89.287%" y1="11.883%" y2="79.846%"><stop offset="0%" stop-color="#720174"/><stop offset="18%" stop-color="#5A258E"/><stop offset="57%" stop-color="#2A6EC2"/><stop offset="86%" stop-color="#0C9CE3"/><stop offset="100%" stop-color="#00AEF0"/></linearGradient><linearGradient id="k" x1="15.962%" x2="84.019%" y1="22.237%" y2="98.681%"><stop offset="0%" stop-color="#720174"/><stop offset="18%" stop-color="#5A258E"/><stop offset="57%" stop-color="#2A6EC2"/><stop offset="86%" stop-color="#0C9CE3"/><stop offset="100%" stop-color="#00AEF0"/></linearGradient><linearGradient id="l" x1="17.436%" x2="98.726%" y1="6.702%" y2="94.193%"><stop offset="0%" stop-color="#720174"/><stop offset="18%" stop-color="#5A258E"/><stop offset="57%" stop-color="#2A6EC2"/><stop offset="86%" stop-color="#0C9CE3"/><stop offset="100%" stop-color="#00AEF0"/></linearGradient><linearGradient id="m" x1="-4.221%" x2="60.826%" y1="-101.724%" y2="81.236%"><stop offset="0%" stop-color="#720174"/><stop offset="18%" stop-color="#5A258E"/><stop offset="57%" stop-color="#2A6EC2"/><stop offset="86%" stop-color="#0C9CE3"/><stop offset="100%" stop-color="#00AEF0"/></linearGradient></defs><g fill="none" fill-rule="evenodd"><circle cx="218.392" cy="115.347" r="3.92" fill="#4A4A4A" fill-rule="nonzero"/><path fill="#4A4A4A" fill-rule="nonzero" d="M218.392 106.79a8.977 8.977 0 100 17.955 8.977 8.977 0 000-17.955z"/><circle cx="218.392" cy="115.767" r="7.79" fill="#FFF" fill-rule="nonzero"/><path fill="#FFF" fill-rule="nonzero" d="M95.295 22.659h39.994v53.443H95.295z"/><path fill="url(#a)" fill-rule="nonzero" d="M228.511 117.477c.174-.717.694-1.3 1.387-1.556l1.432-.483-.086-1.216-1.477-.216a2.195 2.195 0 01-1.625-1.387l-.568-1.437a2.128 2.128 0 01.216-2.085l.096-.131.091-.13.682-.955-.761-.915-1.318.693a2.112 2.112 0 01-2.148-.216l-1.04-.602-.273-.165a2.15 2.15 0 01-1.045-1.784v-1.523l-1.137-.3-.676 1.391c-.094.162-.21.31-.346.438-.4.397-.936.629-1.5.648l-1.523.13h-.17a2.194 2.194 0 01-1.705-.87l-.937-1.232-1.137.426.239 1.523a2.084 2.084 0 01-.841 1.954l-1.136 1c-.167.15-.36.267-.569.347-.402.16-.84.206-1.267.13l-.187-.045-.284-.085-1.17-.347c-.04 0-.131.108-.28.347l-.05.085a.177.177 0 000 .046c-.193.312-.256.437-.279.477l1.063 1.085c.518.563.71 1.353.506 2.091l-.37 1.517c-.18.71-.705 1.28-1.398 1.517l-1.431.483.085 1.216 1.477.216a2.178 2.178 0 011.637 1.386l.568 1.438a2.127 2.127 0 01-.216 2.045l-.898 1.256.784.915 1.324-.694a2.24 2.24 0 012.153.21l1.262.785a2.108 2.108 0 011.085 1.784v1.517l1.085.267.739-1.352a2.275 2.275 0 011.824-1.086l.795-.068.75-.062h.193c.67.017 1.298.336 1.705.87l.886 1.22 1.108-.482-.238-1.478a2.096 2.096 0 01.846-1.954l1.137-1a2.275 2.275 0 012.04-.438l1.437.438c.137-.142.254-.303.346-.477.088-.126.168-.257.239-.392l-1.023-1.17a2.18 2.18 0 01-.477-2.092l.37-1.466zm-2.653 2.955a8.773 8.773 0 01-6.25 4.04 8.474 8.474 0 01-3.784-.301 9.005 9.005 0 01-2.068-.955 8.736 8.736 0 01-2.841-12.074 8.619 8.619 0 011.92-2.176l.165-.13a8.664 8.664 0 014.307-1.74 6.17 6.17 0 01.846-.085c.29-.008.582.008.87.046.19.002.38.015.568.04l.301.045a8.38 8.38 0 013.13 1.216l.131.09c.194.126.381.25.569.387l.159.131a8.79 8.79 0 011.977 11.466z"/><path fill="url(#b)" fill-rule="nonzero" d="M121.142 7.284l-3.34-2.716 1.874 3.523a.953.953 0 01-.37 1.295.797.797 0 01-.431.131.961.961 0 01-.83-.489l-3.55-6.698c-5.28 4.3-13.53 11.028-17.28 14.204h35.126c-2.483-2.113-6.943-5.767-11.199-9.25zm1.182 7.443a.887.887 0 01-1.256-.358l-1.432-2.721a.955.955 0 01.37-1.296.887.887 0 011.255.404l1.438 2.676a.955.955 0 01-.375 1.295z"/><path fill="url(#c)" fill-rule="nonzero" d="M127.159 18.244H95.261v4h38.517v-4z"/><path fill="#4A4A4A" fill-rule="nonzero" d="M94.989 16.722h-.086v.09s.034-.04.086-.09zm40.301.091v-.091h-.085c.056.05.085.08.085.09z"/><path fill="url(#d)" fill-rule="nonzero" d="M149.205 60.756a5.48 5.48 0 00-.347-5.29l-13.233-20.58v28.608h9.517a4.546 4.546 0 004.063-2.738z"/><path fill="url(#e)" fill-rule="nonzero" d="M81.176 55.989a5.23 5.23 0 00-.301 5.113 4.406 4.406 0 004.063 2.694h9.318V35.778l-13.08 20.21z"/><path fill="url(#f)" fill-rule="nonzero" d="M124.63 85.563h.319c6.062 0 10.227-4.285 10.227-9.955H95.261c.046 5.682 3.875 9.955 9.864 9.955a.939.939 0 01.994.915.442.442 0 010 .17v3.028h17.557v-3.199a.938.938 0 01.955-.914z"/><path fill="url(#g)" fill-rule="nonzero" d="M189.449 111.517a22.869 22.869 0 00-4.517-5.074 12.72 12.72 0 01-1.989 5.029v.045a31.002 31.002 0 00-1.807 3.574 14.198 14.198 0 013.233 8.472v.647c.005.696-.045 1.392-.147 2.08l-.046.346 8.494 2.478.091-.432c.16-.858.273-1.705.347-2.597.051-.63.08-1.255.08-1.875a23.054 23.054 0 00-3.74-12.693z"/><path fill="url(#h)" fill-rule="nonzero" d="M167 138.091a14.065 14.065 0 01-7.989-4.903 14.213 14.213 0 01-3.136-7.955c0-.352-.04-.71-.04-1.068a14.71 14.71 0 011.91-7.097l.153-.3-6.41-6.217-.283.392a22.51 22.51 0 00-3.035 6.063c-.068.199-.125.397-.187.602a23.107 23.107 0 0010.983 26.767c.352.199.716.38 1.08.568.363.188.732.347 1.107.506 1.158-.22 2.334-.33 3.512-.33.888-.001 1.775.063 2.653.194v-7.16l-.318-.062z"/><path fill="url(#i)" fill-rule="nonzero" d="M186.392 133.449l-4.466-1.29-.176.216a14.165 14.165 0 01-8.21 5.648l-.324.09v6.063a31.477 31.477 0 0113.176-10.727z"/><path fill="#4A4A4A" fill-rule="nonzero" d="M158 127.773c.204.691.467 1.364.784 2.011-.233-.682-.5-1.352-.784-2.011zm5.563-4.506l.034.034zm-122.268 9.142h.205l-.148-.051zm53.739-55.966c0-.113-.034-.227-.045-.34.011.113.028.227.045.34zm-.074-.563v-.295c-.011.097-.005.2 0 .296zm.29 1.66zm-.125-.54c0-.13-.045-.256-.063-.386.018.113.04.255.063.386zm-.205-1.693v-.256c-.005.085-.005.17 0 .256zm.341 2.278a10.587 10.587 0 009.91 8.086 10.6 10.6 0 01-9.91-8.086zm0 0zM95.153 77.108c0-.04 0-.074-.028-.108s.017.068.028.108zm10.591 8.574h-.568.568zm-10.755-9.58c0-.074 0-.147-.029-.221.012.074.017.147.029.221zm-.086-1.329zm.035.818v-.278.278zm29.977 10.079h-.568.568zm-29.852-9.056c0-.057 0-.114-.029-.17.006.056.017.113.028.17z"/><circle cx="115.085" cy="40.034" r="11.403" fill="url(#j)" fill-rule="nonzero" opacity=".25"/><circle cx="115.085" cy="37.756" r="4.432" fill="#FFF" fill-rule="nonzero"/><path fill="url(#k)" fill-rule="nonzero" d="M120.568 41.25v-3.898a5.489 5.489 0 00-10.971 0v3.978a8.695 8.695 0 01-.745 3.011c-.812 1.835-.142 1.62.46 1.466.603-.154 1.938-.739 2.358 0 .42.739.767 1.358 1.745.943a6.935 6.935 0 011.574-.568h.187a6.778 6.778 0 011.58.568c.977.415 1.324-.216 1.744-.943.42-.727 1.756-.136 2.358 0 .602.136 1.267.37.46-1.466a8.698 8.698 0 01-.75-3.09zm-5.483-2.347c-.886.02-1.59.75-1.574 1.637a.09.09 0 01-.181 0 1.61 1.61 0 00-1.569-1.637.09.09 0 01-.091-.096c0-.05.041-.091.091-.091a1.61 1.61 0 001.569-1.636.09.09 0 11.181-.001 1.609 1.609 0 001.569 1.637c.05 0 .09.04.09.09a.09.09 0 01-.085.097zm.779-3.409a.656.656 0 00-.648.665.04.04 0 01-.034.04.04.04 0 01-.04-.04.646.646 0 00-.636-.659.04.04 0 01-.04-.034.04.04 0 01.04-.04.646.646 0 00.636-.658.04.04 0 01.04-.04c.02.002.034.02.034.04a.653.653 0 00.642.658.04.04 0 01.04.04.04.04 0 01-.034.034v-.006zm2.488 2.165a1.074 1.074 0 00-1.045 1.091.06.06 0 01-.015.044.055.055 0 01-.042.019.063.063 0 01-.063-.063 1.065 1.065 0 00-1.045-1.091.063.063 0 010-.125 1.075 1.075 0 001.046-1.096c0-.017.006-.033.018-.045a.065.065 0 01.044-.018c.016 0 .031.007.042.019a.06.06 0 01.015.044c0 .584.462 1.063 1.045 1.085a.063.063 0 110 .125v.011z"/><path fill="#FFF" fill-rule="nonzero" d="M19.977 133.335c.35-1.317.56-2.667.631-4.028.42-3.824 1.023-7.318 2.812-10.744 1.137-2.233 7.387-.637 9.574-.517 6.864.363 6.91-7.853 6.353-12.733a2.387 2.387 0 00-1.705-2.767c-2.437-.722-3.824-2.654-6.562-2.92-5.767-.637-5.682-2.774-8.625-2.348-2.45.358-2.694 3.279-5.535 2.177-2.528-.938-4.278 1.704-7 .63-.085-.028-.164-.045-.238-.062a43.175 43.175 0 00-2.364 12.767c-.29 8.488 2.432 16.88 6.483 23.699.517-.347 5.994-3.08 6.176-3.154z"/><path fill="#FFF" fill-rule="nonzero" d="M12.551 96.767c.091-.12.5-1.704.682-1.807 1.37-.875 2.648 1.534 3.04.392.522-1.511 1.55-2.84 2.63-2.17 1.08.67.648 1.477.228 1.954-.739.875 2.528-.119 2.903-.358.394-.251.72-.597.949-1.005.858-1.415 3.011-.12 3.011-.12l2.029 2.841.307.239c.158.202.35.375.568.511.084.07.175.132.272.182.137.091.767.364.767.364 1.46.511 3.41.42 3.722-1.477a2.589 2.589 0 00-.437-2.017l-.665-.631a2.831 2.831 0 00-.722-.364 3.874 3.874 0 01-1.96-2.37c-.193-.75-.96-1.022-1.625-1.204-1.398-.42-3.568-.75-3.977-2.164-.966-3.313 1.954-3.552 2.074-5.182a.767.767 0 00-.569-.75 7.222 7.222 0 01-2.233-1.137 42.652 42.652 0 00-12.909 16.989c.847.267 1.353.176 1.915-.716zm70.551 38.33c-.886-2.67-2.227-5.682-2.09-5.972a21.475 21.475 0 001.835-5.449c.045-.687.045-1.38.028-2.102a22.619 22.619 0 00-.165-2.199 10.99 10.99 0 00-.454-2.227 14.06 14.06 0 00-.978-2.38 16.449 16.449 0 00-.733-1.705 8.7 8.7 0 01.387-2.017 6.093 6.093 0 01.949-1.87c.392-.386.812-.75 1.324-1.17.892-.722 1.323-2.108 1.704-3.313.472-1.471.949-3.011 2.38-3.04a2.783 2.783 0 002.768-2.318l.034-.182a.568.568 0 01.29-.335 43.122 43.122 0 00-14.995-19.392 9.451 9.451 0 00-1.596 0 1.136 1.136 0 01-1.188-.994c.137-2.648-6.534-1.023-7.466-1.085-4.216-.21-5.522-2.165-6.335-2.273-1.085-.216-2.108 2.273-3.085 2.318 0 0-3.523.688-4.279 1.17-2.494 1.54-.21 4.7.682 4.728l2.091-.21c.722-.12 1.705-.569 2.42-.665.438-.057 3.342 1.238 4.728 1.238 1.222 0 2.335-.482 3.494.21 1.137.421 1.551 3.523-1.704 3.523-2.693 0-2.801-3.613-5.012-4.04-.108 0-.193 0-.3-.056a6.14 6.14 0 00-3.898 1.023c-.59.3-1.22.512-1.87.63a1.742 1.742 0 00-.943.722c-.88 1.21-1.04 2.59-1.705 3.915-.318.664-1.068 1.835-.568 2.59 1.773 2.466 5.114-1.835 8.881 0 2.767 1.353 2.932 2.41 3.46 3.518A21.102 21.102 0 0065 99.273c2.653 1.988 3.977 4.216 6.625 4.727 1.006.21 2.273.449 3.824.841 1.307.335 2.011.812 2.375 1.324.306.393.437.894.364 1.386-2.557 3.551-6.506-.392-9 2.472-.56.16-1.097.39-1.597.687a6.08 6.08 0 00-1.415 1.176 7.644 7.644 0 00-1.284 2.08c-.568.34-1.18.602-1.818.778a8.291 8.291 0 01-2.273.33 10.2 10.2 0 00-1.398.062c-3.238.33-4.335 1.023-5.073 2.2-.267.42-.497.863-.688 1.323-1.705 6.25-9.608 14.148.313 16.477a16.94 16.94 0 002.09.45c.62.244 1.25.448 1.853.658.602.21 1.221.427 1.79.665.448.32.848.702 1.187 1.137 1.188 1.505.636 4.636-1.102 7.852 9.136-3.085 14.772 1.585 16.13 2.437.881-.687 3.341-2.358 4.16-3.119-.023-.653 1-7.511 3.04-10.12z"/><path fill="url(#l)" fill-rule="nonzero" d="M16.92 99.455c2.875 1.08 3.103-1.841 5.54-2.2 2.95-.425 2.841 1.705 8.625 2.347 2.739.267 4.125 2.2 6.563 2.92a2.387 2.387 0 011.704 2.768c.568 4.88.512 13.096-6.352 12.733-2.199-.12-8.415-1.705-9.574.517-1.79 3.409-2.392 6.92-2.812 10.744a22.95 22.95 0 01-.819 4.137c.262-.103 7.023-3 16.932-1.529 13.25 2.205 20.926 14.773 21.063 15 .75-.53 1.551-.983 2.392-1.352 1.738-3.216 1.937-6.051.75-7.557a5.738 5.738 0 00-1.188-1.136c-.568-.239-1.17-.45-1.79-.665-.619-.216-1.26-.364-1.829-.614a16.716 16.716 0 01-2.09-.449c-9.921-2.352-2.035-10.267-.313-16.477.19-.46.42-.903.687-1.324.739-1.176 1.835-1.87 5.074-2.199.464-.053.93-.074 1.398-.062a8.278 8.278 0 002.272-.33 7.35 7.35 0 001.819-.778 7.595 7.595 0 011.284-2.08 6.095 6.095 0 011.414-1.176 6.782 6.782 0 011.597-.687c2.494-2.841 6.443 1.08 9-2.472a1.817 1.817 0 00-.364-1.386c-.363-.512-1.068-.989-2.375-1.324-1.568-.392-2.84-.63-3.823-.841-2.654-.511-3.978-2.739-6.625-4.727a21.102 21.102 0 01-3.807-3.585c-.529-1.137-.693-2.165-3.46-3.518-3.768-1.806-7.108 2.495-8.881 0-.512-.755.238-1.926.568-2.59.648-1.324.807-2.705 1.705-3.915.22-.344.554-.599.943-.722.65-.118 1.28-.33 1.869-.63a6.14 6.14 0 013.898-1.023c.108.028.193.028.3.057 2.211.426 2.32 4.04 5.012 4.04 3.239 0 2.841-3.103 1.705-3.523-1.137-.694-2.273-.21-3.495-.21-1.386 0-4.29-1.296-4.727-1.24-.733.092-1.704.569-2.42.666l-2.091.21c-.892-.029-3.176-3.188-.682-4.727.756-.483 4.278-1.17 4.278-1.17.978-.063 2-2.535 3.086-2.32.812.12 2.119 2.075 6.335 2.274.932.062 7.602-1.563 7.466 1.085a1.136 1.136 0 001.221.994 9.463 9.463 0 011.597 0 42.76 42.76 0 00-23.682-8.057h-1.551a42.905 42.905 0 00-26.705 9.21 7.222 7.222 0 002.233 1.137c.339.09.573.4.569.75-.12 1.63-3.04 1.87-2.074 5.182.403 1.415 2.574 1.744 3.977 2.165.665.181 1.432.454 1.625 1.204a3.877 3.877 0 001.96 2.347c.257.086.5.208.722.363l.665.631a2.58 2.58 0 01.437 2.017c-.318 1.898-2.273 1.989-3.721 1.477 0 0-.631-.272-.767-.363a1.442 1.442 0 01-.273-.182 2.22 2.22 0 01-.568-.512l-.307-.238-2.029-2.841s-2.153-1.296-3.011.12c-.24.393-.57.722-.966.96-.375.238-3.642 1.232-2.903.357.42-.477.914-1.26-.228-1.954-1.142-.693-2.108.659-2.63 2.17-.392 1.137-1.67-1.267-3.04-.392-.182.12-.568 1.705-.682 1.807-.568.892-1.068.96-1.926.761a41.695 41.695 0 00-.96 2.495c.074 0 .153.034.238.062 2.722 1.074 4.472-1.545 7.017-.63z"/><path fill="url(#m)" fill-rule="nonzero" d="M90.102 99.142l-.034.182a2.783 2.783 0 01-2.767 2.318c-1.432.029-1.909 1.568-2.38 3.04-.393 1.204-.824 2.59-1.705 3.312-.511.42-.932.784-1.324 1.17a6.16 6.16 0 00-.949 1.87 8.666 8.666 0 00-.386 2.017c.276.554.52 1.123.733 1.705.398.762.725 1.559.977 2.38.228.725.38 1.472.455 2.228.09.75.136 1.471.164 2.199.029.727 0 1.414-.028 2.102a21.423 21.423 0 01-1.835 5.449c-.137.272.994 3.59 1.88 6.25 2.006-2.574 3.944-4.182 7.16-5.068 1.545-4.21 3.017-9.853 3.181-14.591a42.798 42.798 0 00-2.84-16.92.566.566 0 00-.302.357z"/><path d="M91.29 129.034l.051.21"/><path fill="#4A4A4A" fill-rule="nonzero" d="M50.267 157.318c-23.849 0-43.182-19.333-43.182-43.182 0-23.848 19.333-43.181 43.182-43.181 23.849 0 43.182 19.333 43.182 43.181-.04 23.832-19.35 43.142-43.182 43.182zm0-85.562a42.357 42.357 0 00-29.958 72.309 42.36 42.36 0 0072.31-29.957c-.028-23.379-18.973-42.324-42.352-42.352z"/><path fill="#FFF" fill-rule="nonzero" d="M229.602 160.67a27.113 27.113 0 00-2.221-9.823 30.92 30.92 0 00-3.722-6.58l-.13-.176a31.05 31.05 0 00-8.432-7.739 30.46 30.46 0 00-5.745-2.806 29.14 29.14 0 00-9.284-1.705h-.551c-2.14.002-4.273.233-6.364.687-.602.131-1.136.268-1.704.415-.568.148-1.046.307-1.637.506a30.115 30.115 0 00-14.676 10.835c-.488.67-.96 1.375-1.397 2.102-.212.349-.417.701-.614 1.057l-.09.16a.354.354 0 01-.467.158l-.159-.073-.096-.046a15.501 15.501 0 00-3.285-1.142 16.954 16.954 0 00-3.71-.403c-.594 0-1.187.03-1.778.09-.665.074-1.325.182-1.977.324a17.767 17.767 0 00-3.438 1.137c-4.545 2.057-7.795 5.8-8.66 10.011a.39.39 0 01-.357.29.34.34 0 01-.335-.29c-.432-1.949-3.625-2.096-4.597-2.096h-.426a.353.353 0 01-.335-.222.339.339 0 01.12-.403 14.141 14.141 0 005.72-10.279c.035-.415.052-.761.052-1.09-.01-7.75-6.29-14.029-14.04-14.035a13.737 13.737 0 00-5.227.898.384.384 0 01-.358-.046.316.316 0 01-.154-.238l-5.79-39.95h-17.55l-5.853 40.382a.361.361 0 01-.17.272.452.452 0 01-.324 0 14.402 14.402 0 00-5.176-.909 14.091 14.091 0 00-13.267 18.75c.189.527.407 1.043.653 1.546.318.637.685 1.248 1.097 1.83.324.463.677.905 1.057 1.323.408.451.844.877 1.306 1.273.2.17.404.335.608.488a.427.427 0 01.137.205.353.353 0 010 .227.363.363 0 01-.364.21h-.63c-2.126 0-3.535.71-3.978 1.995a.364.364 0 01-.443.227.335.335 0 01-.273-.346c0-2.637-1.199-5.336-3.37-7.614-.306-.318-.635-.63-.97-.926a13.97 13.97 0 00-.955-.773 15.993 15.993 0 00-9.489-3.239 13.066 13.066 0 00-7.954 2.631.326.326 0 01-.25.063.625.625 0 01-.273-.2 30.503 30.503 0 00-3.722-5.352 25.19 25.19 0 00-1.795-1.903 29.34 29.34 0 00-2.67-2.273 31.165 31.165 0 00-1.904-1.352 30.369 30.369 0 00-10.386-4.256 30.03 30.03 0 00-5.955-.636c-.801 0-1.63.04-2.545.12-.722.067-1.324.136-1.887.227a29.156 29.156 0 00-7.574 2.272c-.699.313-1.312.614-1.88.92-.569.308-1.074.603-1.665.972a31.016 31.016 0 00-3.154 2.233 27.919 27.919 0 00-2.09 1.858c-.319.307-.625.625-.932.943a26.37 26.37 0 00-.95 1.052 30.747 30.747 0 00-5.175 8.375 27.085 27.085 0 00-2.245 9.88l228.824-.022z"/><path d="M207.54 109.04l.875.886c.602.664.817 1.593.568 2.455l-.364 1.494a2.532 2.532 0 01-1.642 1.79l-1.136.386.04.637 1.187.17a2.54 2.54 0 011.932 1.648l.568 1.403a2.488 2.488 0 01-.267 2.41l-.704 1 .403.47 1.063-.567a2.632 2.632 0 012.55.244l1.228.767a2.472 2.472 0 011.261 2.097v1.227l.529.125.602-1.097a2.636 2.636 0 012.148-1.278l1.738-.13a2.573 2.573 0 012.023 1.022l.71.977.568-.25-.193-1.193a2.483 2.483 0 011.006-2.318l1.136-.972a2.612 2.612 0 012.398-.511l1.199.364a3.63 3.63 0 01.165-.25l.09-.148-.846-.977a2.533 2.533 0 01-.568-2.45l.34-1.443a2.632 2.632 0 011.631-1.83l1.165-.385-.045-.586-1.182-.17a2.597 2.597 0 01-1.926-1.636l-.568-1.42a2.456 2.456 0 01.255-2.433l.705-.988-.387-.466-1.085.568a2.5 2.5 0 01-2.545-.256l-1.25-.755a2.527 2.527 0 01-1.222-2.103v-1.233l-.568-.153-.54 1.136c-.114.21-.257.4-.426.568a2.622 2.622 0 01-1.756.745l-1.704.13a2.572 2.572 0 01-2.04-1.022l-.721-.983-.569.221.2 1.228a2.469 2.469 0 01-1.006 2.318l-1.137.971c-.193.183-.42.324-.67.415a3.148 3.148 0 01-.529.148 2.622 2.622 0 01-.943 0 1.841 1.841 0 01-.233-.057l-1.221-.454c0 .034-.046.073-.074.119l-.37-.108.319.193-.165.29z"/><path fill="#4A4A4A" fill-rule="nonzero" d="M103.852 68.67a2.384 2.384 0 00-2.414 2.41 2.413 2.413 0 104.823 0 2.375 2.375 0 00-.697-1.712 2.375 2.375 0 00-1.712-.697zm0 3.694a1.28 1.28 0 01-1.307-1.284 1.315 1.315 0 011.307-1.324 1.329 1.329 0 011.301 1.324 1.295 1.295 0 01-1.3 1.284zm11.495-3.694a2.392 2.392 0 00-2.432 2.41 2.427 2.427 0 102.431-2.409zm0 3.694a1.279 1.279 0 01-1.301-1.284 1.31 1.31 0 011.301-1.324c.72.015 1.298.602 1.3 1.324a1.295 1.295 0 01-1.3 1.284z"/><path fill="#FFF" fill-rule="nonzero" d="M115.347 69.756a1.312 1.312 0 00-1.302 1.324 1.281 1.281 0 001.302 1.284 1.295 1.295 0 001.3-1.284 1.328 1.328 0 00-1.3-1.324z"/><path fill="#4A4A4A" fill-rule="nonzero" d="M126.84 68.67a2.41 2.41 0 00-2.408 2.41 2.42 2.42 0 004.84 0 2.388 2.388 0 00-2.431-2.409zm0 3.694a1.265 1.265 0 01-1.283-1.284 1.294 1.294 0 011.965-1.193c.413.25.652.71.62 1.193a1.277 1.277 0 01-1.301 1.284z"/><path fill="#FFF" fill-rule="nonzero" d="M126.84 69.756a1.301 1.301 0 00-1.283 1.324 1.296 1.296 0 002.585 0 1.313 1.313 0 00-1.301-1.324z"/><path fill="#4A4A4A" fill-rule="nonzero" d="M231.511 112.466l-1.466-.261a.661.661 0 01-.517-.466l-.608-1.489a.78.78 0 01.035-.568l.034-.057.869-1.222c.01-.014.02-.03.028-.045l.029-.051a1.586 1.586 0 00-.091-1.705l-.835-.931a1.648 1.648 0 00-1.745-.347l-1.5.727h-.085a.676.676 0 01-.364-.125l-1.51-.926a.675.675 0 01-.234-.449v-1.517a1.17 1.17 0 00-.062-.375 1.54 1.54 0 00-1.034-1.051l-1.228-.301a1.364 1.364 0 00-.835.102c-.316.136-.58.371-.75.67l-.773 1.404a.883.883 0 01-.528.222l-1.602.13a.772.772 0 01-.523-.193l-.926-1.261a1.5 1.5 0 00-1.705-.517l-1.21.432c-.573.3-.904.92-.835 1.562l.221 1.472a.916.916 0 01-.25.613l-1.255 1.04a.648.648 0 01-.512.16h-.108l-1.431-.433a1.564 1.564 0 00-1.705.568l-.04.046c-.125.155-.237.32-.335.494a7.83 7.83 0 00-.324.568 1.428 1.428 0 00-.096.233l-.029.103c-.123.511.018 1.05.375 1.437l1.137 1.205c.062.16.083.334.062.505l-.398 1.631a.8.8 0 01-.233.318l-.062.063-.12.057-1.437.477a1.413 1.413 0 00-.818.699c-.125.236-.19.5-.188.767l.086 1.29c.1.634.585 1.137 1.215 1.26l1.46.262c.248.046.45.226.523.466l.625 1.5a.775.775 0 01-.034.568l-.028.051-.875 1.222a1.517 1.517 0 00.034 1.807l.84.966a1.639 1.639 0 001.705.318l1.495-.722h.085a.618.618 0 01.443.16l1.449.903c.08.08.147.172.199.273l.04.08v1.579c.026.559.346 1.062.84 1.324.082.041.168.076.256.102l1.284.318c.06.01.122.01.182 0a1.58 1.58 0 001.37-.807l.693-1.3a.664.664 0 01.568-.325h.051l1.568-.125a.676.676 0 01.568.273l.864 1.182a1.524 1.524 0 001.75.517l1.136-.506c.582-.274.923-.89.847-1.528l-.216-1.472c0-.232.091-.455.256-.62l1.307-1.01a.619.619 0 01.51-.165h.103l1.438.431c.142.042.289.066.437.074.49-.004.948-.237 1.239-.63l.045-.051c.124-.154.234-.317.33-.49.125-.178.234-.368.324-.567a1.58 1.58 0 00-.228-1.784l-1.04-1.086a.687.687 0 01-.13-.681l.375-1.506a.71.71 0 01.244-.404l.063-.056.096-.046 1.455-.477a1.609 1.609 0 001.006-1.506l-.103-1.233a1.527 1.527 0 00-1.233-1.244zm-1.522 3.466c-.564.22-.987.698-1.137 1.284l-.352 1.489a1.802 1.802 0 00.386 1.744l1.188 1.37-.102.22a3.647 3.647 0 01-.262.438c-.112.214-.26.406-.437.569l-.148.102-1.614-.489a1.936 1.936 0 00-1.704.352l-1.137 1.012a1.75 1.75 0 00-.721 1.62l.29 1.755-1.648.716-1.063-1.46a1.812 1.812 0 00-1.42-.716h-.193l-1.512.125a1.896 1.896 0 00-1.534.903l-.875 1.59-1.642-.397v-1.807a1.732 1.732 0 00-.88-1.454l-1.29-.801a1.888 1.888 0 00-1.796-.194l-1.58.824-1.136-1.352 1.063-1.494a1.766 1.766 0 00.187-1.665l-.613-1.443a1.789 1.789 0 00-1.352-1.165l-1.762-.261-.125-1.796 1.705-.568a1.818 1.818 0 001.136-1.239l.37-1.534a1.817 1.817 0 00-.41-1.744l-1.244-1.273.12-.238c0-.04.09-.17.29-.506l.062-.097c.204-.335.358-.568.608-.568h.107l1.455.432.142.034c.225.043.457.043.682 0 .132-.023.261-.06.386-.108a1.32 1.32 0 00.443-.267l1.17-1.017c.525-.362.804-.987.722-1.62l-.284-1.812 1.648-.648 1.063 1.45c.342.448.873.713 1.437.715h.17l1.495-.125a1.904 1.904 0 001.267-.568c.113-.105.21-.226.29-.358l.795-1.642 1.705.449v1.801c.02.6.34 1.15.852 1.466l1.301.79a1.76 1.76 0 001.784.204l1.614-.83 1.136 1.359-1.034 1.449a1.767 1.767 0 00-.187 1.704l.568 1.466a1.827 1.827 0 001.352 1.136l1.756.262.153 1.858-1.704.568zm-39.591-4.949a23.44 23.44 0 013.71 14.807 25.427 25.427 0 01-.352 2.636l-.17.83-9.183-2.676.086-.66c.102-.674.151-1.357.147-2.04v-.63a13.73 13.73 0 00-2.767-7.761c-.05.13-.108.255-.159.386l-.034.097c-.102.25-.199.5-.295.744a12.832 12.832 0 012.147 6.551v.591c0 .63-.045 1.258-.136 1.88l-.176 1.171a.567.567 0 00.398.568l10.181 2.983H194a.553.553 0 00.222 0l.08-.062a.458.458 0 00.243-.335l.29-1.45c.102-.5.188-1.04.273-1.704.132-1.002.206-2.012.222-3.023a24.758 24.758 0 00-3.358-12.5 24.078 24.078 0 00-5.887-6.778v.42c0 .302-.045.569-.08.847v.097a22.976 22.976 0 014.393 5.011z"/><path fill="#FFF" fill-rule="nonzero" d="M181.693 115.869l-.034.097z"/><path fill="#4A4A4A" fill-rule="nonzero" d="M151.972 108.25h-.063a.386.386 0 00-.352.205l-.932 1.295a24.511 24.511 0 00-3.08 6.017 26.386 26.386 0 00-.51 1.665 24.43 24.43 0 0010.175 26.858c.568.398 1.233.784 1.892 1.136a19.26 19.26 0 011.137-.352l.392-.102-.103-.046c-.369-.182-.738-.37-1.096-.568-9.643-5.323-14.288-16.635-11.17-27.199.056-.204.119-.409.187-.613a22.868 22.868 0 013.09-6.148l.535-.745 6.915 6.705-.284.568a14.374 14.374 0 00-1.864 6.915c0 .324 0 .665.04 1.04a13.81 13.81 0 003.05 7.772 13.635 13.635 0 007.78 4.773l.619.074v8.108c.215.034.994.17 1.136.21v-8.733a.603.603 0 00-.46-.568l-1.051-.21a12.787 12.787 0 01-9.336-16.477 13.23 13.23 0 011.057-2.37l.449-.75c-.165-.426-.33-.852-.511-1.278l-7.245-7.08a.494.494 0 00-.397-.102zm30.289 21.92a.65.65 0 00-.505.233l-.529.768a13.007 13.007 0 01-7.386 5.113l-1.04.216a.568.568 0 00-.403.568v8.37c.08-.125.153-.25.233-.37.136-.221.278-.432.42-.647.142-.216.301-.45.455-.67v-6.228l.596-.165a13.844 13.844 0 007.989-5.517l.34-.426 4.575 1.324c.426-.188.852-.364 1.284-.523l.454-.165-6.375-1.858-.108-.023z"/><path fill="#4A4A4A" fill-rule="nonzero" d="M185.21 106.057c.051-.33.085-.699.108-1.085 0-.296.029-.597.029-.915v-.205c-.103-8.102-6.33-14.284-14.489-14.369h-.239c-6.716.074-12.335 4.37-13.977 10.699a15.45 15.45 0 00-.489 3.744v1.125c.029.41.08.796.142 1.176.063.381.108.603.182.892.167.654.393 1.291.676 1.904.312.661.661 1.304 1.046 1.926a31.745 31.745 0 012.017 4.08l.028.068c.21.511.415 1.022.603 1.528l.062.153a61.13 61.13 0 011.705 5.319c.085.312.164.608.233.869v.176a.436.436 0 000 .125v2.148h-.802a.568.568 0 000 1.136h.802v1.352h-.802a.569.569 0 00-.568.54c0 .314.255.568.568.568h1.177l1.25 2.188c.09.182.279.296.483.29h11.471a.572.572 0 00.489-.296l1.244-2.182h1.136a.568.568 0 00.569-.568.57.57 0 00-.569-.54h-.727v-1.352h.784a.568.568 0 100-1.136h-.784v-2.148a.305.305 0 000-.074v-.154a65.782 65.782 0 011.96-6.204l.063-.153c.13-.347.267-.693.409-1.034.142-.341.273-.67.415-1.006l.244-.568a28.294 28.294 0 011.58-3.068 12.73 12.73 0 001.971-4.95zm-9.09 24.312H165.3l-.778-1.369h12.386l-.79 1.37zm1.312-2.471h-13.443v-1.352h13.454l-.011 1.352zm0-2.483h-13.443v-1.602h13.454l-.011 1.602zm4.324-14.029a32.48 32.48 0 00-1.046 2.103c-.136.3-.273.602-.398.909-.125.307-.26.608-.38.915a61.972 61.972 0 00-2.352 7.119l-.074.273h-4.37v-4.546a.569.569 0 00-1.136 0v4.546h-2.517v-4.546a.569.569 0 00-1.136 0v4.546h-4.37l-.074-.273a59.17 59.17 0 00-3.119-8.91 31.256 31.256 0 00-1.261-2.494l-.029-.056a12.866 12.866 0 00-.33-.569 16.146 16.146 0 01-1.101-2.096 9.696 9.696 0 01-.773-3.41v-1.13c0-.273 0-.54.04-.807 0-.13 0-.261.028-.392.658-6.823 6.43-12.007 13.284-11.932h.222c6.836-.071 12.596 5.09 13.272 11.892.04.37.069.762.08 1.137v1.142a10.85 10.85 0 01-1.875 5.568c-.208.326-.404.663-.585 1.011z"/><path fill="#4A4A4A" fill-rule="nonzero" d="M180.557 116.835c0-.05.034-.102.057-.153l-.063.153h.006zm.858-2.221l.25-.568zm-25.29-10.568zm.375 3.074a9.767 9.767 0 010-.001zm4.375 9.505a48.245 48.245 0 00-.602-1.528l-.029-.069.034.069c.21.511.415 1.022.603 1.528l.062.153-.068-.153z"/><path fill="#FFF" fill-rule="nonzero" d="M181.352 116.733c.097-.244.193-.494.296-.744-.103.25-.2.511-.296.744zm-21.25-.006c-.159-.426-.33-.852-.505-1.272.181.426.346.852.511 1.278l-.006-.006zm3.887 8.688h13.454v-1.602h-13.454zm0 1.131h13.449v1.347h-13.449zm20.221-22.779v-.102c0-.398-.04-.79-.08-1.137-.676-6.803-6.436-11.963-13.272-11.892h-.222c-6.854-.075-12.626 5.109-13.284 11.932 0 .13 0 .262-.028.392 0 .267-.034.534-.04.807v1.131a9.717 9.717 0 00.773 3.409c.316.725.684 1.425 1.102 2.096.114.188.222.381.33.569l.028.056c.432.756.852 1.597 1.261 2.495a59.084 59.084 0 013.12 8.909l.074.273h4.369v-4.546a.569.569 0 011.136 0v4.546h2.557v-4.546a.569.569 0 011.136 0v4.546h4.37l.074-.273a62.116 62.116 0 012.352-7.12c.12-.306.25-.613.38-.914.131-.301.262-.608.398-.91.347-.76.7-1.465 1.046-2.102.182-.337.371-.666.568-.988a10.854 10.854 0 001.875-5.568v-.75c-.017-.12-.017-.216-.023-.313zm-19.687 25.256l.778 1.346h10.83l.778-1.346zm-8.205-22.796zm24.272 10.426c.126-.346.262-.693.404-1.034.142-.34.131-.335 0 0-.13.336-.272.688-.403 1.034z"/><path fill="#4A4A4A" fill-rule="nonzero" d="M120.517 10.13a.623.623 0 00-.301.37.485.485 0 00.057.386l1.437 2.665a.516.516 0 00.756.199.481.481 0 00.261-.284.62.62 0 00-.04-.483l-1.431-2.597a.568.568 0 00-.37-.306.436.436 0 00-.125 0 .46.46 0 00-.244.05zm-5.409 17.563c-6.828 0-12.364 5.536-12.364 12.364a12.286 12.286 0 003.04 8.074c.188.21.375.42.568.625l.137.13c.136.131.267.256.409.375a12.324 12.324 0 0016.011.313l.392-.341c.188-.165.37-.34.568-.517a12.236 12.236 0 003.569-8.66c.003-6.815-5.514-12.347-12.33-12.363zm8.301 19.887l-.375.392a11.132 11.132 0 01-7.926 3.295 11.251 11.251 0 01-8.608-4.023l-.301-.375c-.326-.424-.622-.87-.886-1.335a11.22 11.22 0 0117.727-13.412 11.222 11.222 0 011.022 14.702c-.232.29-.443.545-.653.778v-.022zm52.716 53.625a.823.823 0 00-.62-.182.758.758 0 00-.522.29l-5.614 7.233-2.92-3.779a.82.82 0 00-.642-.301.86.86 0 00-.5.16.786.786 0 00-.126 1.135l3.569 4.608a.791.791 0 001.261 0l6.25-8.09a.807.807 0 00.148-.603.747.747 0 00-.284-.471z"/><path fill="#4A4A4A" fill-rule="nonzero" d="M227.54 149.085a31.658 31.658 0 00-2.41-4.244l-.062-.085-.057-.085a32.458 32.458 0 00-9.721-9.222 31.416 31.416 0 00-5.682-2.722 29.744 29.744 0 00-10.102-1.778h-.608a30.953 30.953 0 00-10.324 1.994 21.5 21.5 0 00-1.37.568 31.085 31.085 0 00-13 10.586c-.176.244-.346.494-.517.75l-.409.625c-.21.34-.397.647-.568.96l-.187.324-.347-.148-.182-.074-.136-.057a16.64 16.64 0 00-2.12-.71c-.3-.08-.607-.153-.908-.216a11.933 11.933 0 00-.915-.153 17.75 17.75 0 00-2.585-.188 18.938 18.938 0 00-3.41.318c-.465.091-.948.2-1.431.33a36.33 36.33 0 00-1.239.386c-4.75 1.66-8.523 5.16-10.057 9.375l-.204.569-.46-.37a5.188 5.188 0 00-2.466-.949l-.841-.119.602-.608a14.975 14.975 0 004.352-9.545c0-.392.04-.716.04-1.017-.022-8.22-6.695-14.87-14.915-14.864a16.134 16.134 0 00-4.506.568l-.471.137-.068-.483-.319-2.182-2.119-14.637-3.21-22.062a.48.48 0 00.028-.16V86.29h.353c6.155-.261 10.981-5.38 10.88-11.54V62.068h9.887a5.999 5.999 0 005.38-3.278 5.936 5.936 0 00-.448-6.25l-14.853-20.887V16.722a.435.435 0 000-.114s-.062-.136-.415-.437c-1.494-1.285-8.562-6.96-14.17-11.432-2.84-2.273-5.205-4.137-5.682-4.546l-.074-.057a.695.695 0 00-.142-.096.482.482 0 00-.199-.04.567.567 0 00-.278.074l-.148.102c-1.375 1.057-17.852 14.205-19.932 15.977l-.056.04a.697.697 0 00-.307.353.53.53 0 00-.034.153v14.954l-14.71 20.87a6.115 6.115 0 00-.404 6.307 5.97 5.97 0 002.875 2.704c.79.353 1.646.535 2.511.534h9.66v12.62c0 6.25 4.409 11.068 10.477 11.494h.34v3.648a.553.553 0 00.12.341l-3.12 21.903-1.562 10.795-.932 6.483-.073.489-.478-.142a15.041 15.041 0 00-4.432-.636c-.847 0-1.693.075-2.528.221-.239.04-.477.091-.716.142h-.034l-.659.165a15.06 15.06 0 00-7.807 5.227 14.817 14.817 0 00-3.17 9.2c0 .38 0 .789.062 1.215 0 .09 0 .176.029.267.028.091 0 .176 0 .273v.057c.028.221.062.443.096.664.034.222.08.444.125.66v.062c0 .023.034.114.046.17.011.057.045.148.062.228a14.983 14.983 0 002.074 4.704l.028.04 1.438 1.807.034.034.068.074.085.09.569.569-.796.136a4.56 4.56 0 00-1.846.71l-.517.364-.143-.62a13.024 13.024 0 00-3.323-5.948l-.131-.12-.148-.153-.08-.08c-.147-.15-.3-.299-.46-.443l-.34-.306-.086-.074-.05-.046h-.03l-.147-.119a17.517 17.517 0 00-1.659-1.222 17.255 17.255 0 00-6.523-2.522 15.61 15.61 0 00-1.818-.182h-.597c-1.749 0-3.483.327-5.113.96-.862.334-1.69.748-2.472 1.239l-.37.233-.22-.381c-.137-.233-.28-.455-.421-.682-.142-.227-.262-.415-.392-.62a30.549 30.549 0 00-3.091-3.971 31.058 31.058 0 00-5.114-4.5 24.131 24.131 0 00-1.84-1.193 31.046 31.046 0 00-5.342-2.534s-1.8-.63-2.88-.886c-.62-.16-1.228-.296-1.83-.41-1.9-.37-3.831-.56-5.767-.568-.744 0-1.551.04-2.46.114-.642.057-1.239.12-1.818.205-2.051.3-4.066.813-6.012 1.528l-.568.222-.204.085-.222.085-.324.125c-.636.273-1.25.568-1.824.835-.778.392-1.556.824-2.312 1.284-.529.319-1.068.67-1.602 1.046l-.313.227-.227.17-.489.364-.204.148-.25.187c-.432.336-.864.7-1.29 1.069-.324.284-.62.568-.904.812-.284.244-.647.625-.92.903a31.782 31.782 0 00-6.063 8.677A30.232 30.232 0 000 160.733h.989a29.307 29.307 0 012.216-9.847 30.701 30.701 0 016.102-9.38c.324-.335.625-.654.92-.938.67-.647 1.37-1.272 2.085-1.846.148-.125.307-.239.466-.358l.245-.188.147-.108.353-.267.568-.398c.568-.375.96-.659 1.37-.909a28.99 28.99 0 011.653-.966c.517-.284.931-.477 1.528-.755l.125-.057.222-.102a29.1 29.1 0 017.54-2.273 32.938 32.938 0 011.874-.222 28.77 28.77 0 012.535-.119c1.97-.005 3.936.185 5.869.568.613.125 1.244.273 1.875.443.471.131.954.273 1.443.432a30.192 30.192 0 017.017 3.358 31.6 31.6 0 014.557 3.614 28.658 28.658 0 011.784 1.892 30.17 30.17 0 013.705 5.33.805.805 0 00.363.272h.074a.459.459 0 00.295-.09c.302-.222.608-.433.932-.631a12.9 12.9 0 016.932-1.927 15.838 15.838 0 019.42 3.222l.33.261.148.125.153.12.313.255.352.336.148.147.153.142c.108.097.21.194.307.296 2.148 2.273 3.335 4.92 3.335 7.517a.477.477 0 00.398.489h.136a.488.488 0 00.46-.336c.415-1.221 1.779-1.897 3.836-1.897h.67a.479.479 0 00.466-.625.572.572 0 00-.187-.273 10.068 10.068 0 01-.597-.483c-.46-.391-.892-.813-1.295-1.261-.379-.415-.73-.853-1.052-1.313a14.754 14.754 0 01-1.085-1.807 13.637 13.637 0 01-1.295-4.318c-.034-.25-.074-.568-.091-.847a14.162 14.162 0 01-.034-.806v-.183a13.862 13.862 0 012.204-7.516 14.046 14.046 0 017.353-5.722h.045c.313-.102.568-.176.83-.244a14.598 14.598 0 018.613.454c.07.024.143.035.216.034a.447.447 0 00.227-.05.483.483 0 00.239-.381l.87-5.995 1.806-12.647 3.125-21.557h17.307l3.136 21.557 2.205 15.159.471 3.022c.015.143.097.27.222.341a.44.44 0 00.244.074c.07 0 .14-.014.205-.04a13.633 13.633 0 015.176-.886c7.67.006 13.888 6.221 13.898 13.892 0 .324 0 .67-.046 1.08a14.012 14.012 0 01-5.681 10.176.477.477 0 00-.171.568c.076.185.25.31.449.324h.477c.943 0 4.051.142 4.455 1.983.039.233.24.404.477.403a.528.528 0 00.494-.398c.858-4.17 4.063-7.88 8.586-9.914a16.895 16.895 0 013.409-1.137 16.716 16.716 0 013.726-.414c1.237-.005 2.47.129 3.677.397.318.074.642.16.96.25.79.235 1.559.531 2.301.887l.091.045.154.068a.472.472 0 00.221.051.506.506 0 00.438-.267l.051-.09.04-.069a30.167 30.167 0 012-3.142 29.916 29.916 0 0114.613-10.795c.569-.2 1.137-.364 1.625-.506a30.128 30.128 0 018.006-1.096h.568c3.152.06 6.273.635 9.239 1.704 2 .722 3.919 1.655 5.721 2.784a30.468 30.468 0 018.393 7.699l.09.12.035.056a30.347 30.347 0 013.71 6.546 29.29 29.29 0 012.199 9.79h.988c-.2-4-1.193-7.921-2.92-11.535zM135.835 33.597l13.904 19.54a4.915 4.915 0 01.375 5.164 4.901 4.901 0 01-4.387 2.67h-9.886l-.006-27.374zm-41.477 27.38h-9.66a4.96 4.96 0 01-4.062-7.789l13.75-19.557-.028 27.346zm2.943-45.454c3.551-2.91 10.983-8.801 16.41-13.108l1.215-.966 3.761 6.886c.153.25.47.344.733.216a.567.567 0 00.29-.3.632.632 0 00-.045-.484l-2.745-5.023 4.773 3.796c4.358 3.471 8.733 6.96 11.205 8.983l.795.653H96.5l.801-.653zm-1.835 1.784h39.261v4.739H95.466v-4.74zm28.028 71.96h-17.21v-3.5l.04-.074c0 .029 0 0 0 0a.536.536 0 00-.568-.568c-5.813 0-10.228-4.454-10.273-10.358v-51.59h39.261v51.601a10.193 10.193 0 01-10.38 10.358h-.302a.532.532 0 00-.412.156.531.531 0 00-.156.413v3.562z"/></g></svg>
