<svg width="300" height="144" viewBox="0 0 300 144" fill="none" xmlns="http://www.w3.org/2000/svg">
	<g clip-path="url(#clip0_2685_7730)">
		<rect width="300" height="144" rx="72" fill="#B980FF" />
		<path opacity="0.2" fill-rule="evenodd" clip-rule="evenodd" d="M-20.2733 -7.23444C-16.4971 10.1596 -17.9775 23.9766 -18.8422 29.3495L-27.4876 73.2563C-34.0919 106.798 -12.2694 139.337 21.2518 145.938C54.7768 152.539 87.3072 130.701 93.9116 97.1601L102.682 52.6186C104.071 46.9286 108.026 34.0301 117.724 19.9376C130.759 1.00138 122.859 2.00882 115.883 2.40401C108.909 2.79268 92.7714 6.52161 89.7516 -2.58069C86.7329 -11.6788 84.2698 -19.5492 72.5466 -17.042C60.8229 -14.5369 55.4244 -13.9957 53.8809 -14.2996L51.7811 -14.7131C50.2394 -15.0166 45.4473 -17.5644 35.5493 -24.3268C25.6518 -31.0912 20.3907 -24.7418 14.1453 -17.4678C7.90204 -10.1894 -5.6165 -19.7577 -11.9241 -22.7615C-18.2296 -25.7718 -25.1538 -29.6982 -20.2733 -7.23444Z" fill="#000C47" />
		<path opacity="0.2" fill-rule="evenodd" clip-rule="evenodd" d="M-74.0858 19.2298C-64.0536 34.7743 -60.4436 48.7596 -59.3211 54.3036L-51.6843 100.186C-45.8504 135.236 -12.7227 158.921 22.3066 153.091C57.3399 147.26 81.0106 114.121 75.1767 79.0705L67.4295 32.5251C66.7016 26.4808 65.8349 12.4848 70.1204 -4.77239C75.8813 -27.962 68.563 -24.0942 61.9197 -21.1599C55.2763 -18.2326 40.9369 -8.70561 34.6715 -16.4585C28.4087 -24.2077 23.1352 -30.9654 12.6448 -24.2408C2.15304 -17.518 -2.90188 -15.0182 -4.51486 -14.7497L-6.70914 -14.3845C-8.32017 -14.1163 -13.9143 -14.8437 -26.017 -17.8058C-38.12 -20.7699 -40.9183 -12.6687 -44.3363 -3.30814C-47.7508 6.05591 -64.402 1.68707 -71.6374 1.06989C-78.873 0.445581 -87.0456 -0.843834 -74.0858 19.2298Z" fill="#000C47" />
		<path opacity="0.2" fill-rule="evenodd" clip-rule="evenodd" d="M-121.79 54.1676C-106.098 66.4121 -97.483 79.3443 -94.3813 84.58L-70.3918 128.495C-52.0656 162.043 -10.0292 174.389 23.4985 156.073C57.0299 137.756 69.3569 95.7136 51.0308 62.1657L26.6944 17.6157C23.8167 11.7321 17.9852 -2.18138 16.2346 -21.2308C13.8846 -46.8295 7.8174 -40.3111 2.10578 -34.9797C-3.60855 -29.6555 -14.8073 -14.9035 -23.9156 -20.5642C-33.0199 -26.2221 -40.7683 -31.2225 -49.0479 -20.6793C-57.3295 -10.1375 -61.581 -5.80947 -63.1248 -4.96613L-65.2251 -3.81884C-66.767 -2.97651 -72.708 -1.73667 -86.0523 -0.464908C-99.3976 0.804938 -99.3749 10.0257 -99.5364 20.7452C-99.6931 31.467 -118.156 32.9185 -125.726 34.8509C-133.298 36.7761 -142.058 38.3571 -121.79 54.1676Z" fill="#000C47" />
		<circle opacity="0.2" cx="299.848" cy="75.3476" r="68.8476" fill="white" />
		<circle opacity="0.2" cx="299.664" cy="75.164" r="16.5234" fill="white" />
		<path d="M185.083 -16.5L75 5L112.75 159.5L216 117.5L185.083 -16.5Z" fill="#46528B" stroke="#000C47" stroke-width="2" stroke-linecap="round" stroke-linejoin="round" />
		<path d="M179.087 -3.11719L91.5 15.0632L124.921 140.883L203 110.582L179.087 -3.11719Z" fill="#82DDFF" stroke="#000C47" stroke-width="2" stroke-linecap="round" stroke-linejoin="round" />
		<path d="M91.75 15.25L75 5.25" stroke="#000C47" stroke-width="2" stroke-linecap="round" stroke-linejoin="round" />
		<path d="M125 141L120.5 149.5" stroke="#000C47" stroke-width="2" stroke-linecap="round" stroke-linejoin="round" />
		<path d="M203 110.5L216 117.5" stroke="#000C47" stroke-width="2" stroke-linecap="round" stroke-linejoin="round" />
		<path d="M130.714 26.9934L107 29.636L139.673 46.0197L138.092 49.7193L116.051 56.9093L129.538 65.6127L123.336 81.4298H131.792L139.673 72.3581L142.542 76.772L130.714 122.125L153.901 103.099L171.818 113.14L176.034 94.6425L171.818 89.3575L178.669 83.5439L173.926 66.6316L182.5 51.3919L169.183 38.0921L173.926 23.8224H167.075L164.44 1.625L151.793 26.9934L144.942 23.8224L138.092 31.75L130.714 26.9934Z" fill="#B8ECFF" stroke="#000C47" stroke-width="2.63576" stroke-linecap="round" stroke-linejoin="round" />
		<mask id="mask0_2685_7730" style="mask-type:alpha" maskUnits="userSpaceOnUse" x="105" y="0" width="79" height="124">
			<path d="M130.714 26.9934L107 29.636L139.673 46.0197L138.092 49.7193L116.051 56.9093L129.538 65.6127L123.336 81.4298H131.792L139.673 72.3581L142.542 76.772L130.714 122.125L153.901 103.099L171.818 113.14L176.034 94.6425L171.818 89.3575L178.669 83.5439L173.926 66.6316L182.5 51.3919L169.183 38.0921L173.926 23.8224H167.075L164.44 1.625L151.793 26.9934L144.942 23.8224L138.092 31.75L130.714 26.9934Z" fill="#B8ECFF" stroke="#000C47" stroke-width="2.63576" stroke-linecap="round" stroke-linejoin="round" />
		</mask>
		<g mask="url(#mask0_2685_7730)">
			<g filter="url(#filter0_d_2685_7730)">
				<rect x="127" y="55.7568" width="40.7387" height="40.7387" transform="rotate(-29.818 127 55.7568)" fill="white" />
				<rect x="124.776" y="55.1533" width="43.9978" height="43.9978" transform="rotate(-29.818 124.776 55.1533)" stroke="#000C47" stroke-width="3.25909" stroke-linejoin="round" />
			</g>
			<rect x="134.416" y="57.7686" width="29.875" height="13.5796" rx="2.17273" transform="rotate(-29.818 134.416 57.7686)" fill="#F1D801" stroke="#000C47" stroke-width="3.25909" stroke-linejoin="round" />
			<rect x="142.992" y="76.0156" width="16.2955" height="4.34546" rx="2.17273" transform="rotate(-29.818 142.992 76.0156)" fill="#000C47" />
			<rect x="146.233" y="81.6709" width="16.2955" height="4.34546" rx="2.17273" transform="rotate(-29.818 146.233 81.6709)" fill="#000C47" />
			<rect x="160.903" y="65.752" width="10.8636" height="10.8636" rx="2.17273" transform="rotate(-29.818 160.903 65.752)" fill="#FF375B" stroke="#000C47" stroke-width="3.25909" stroke-linejoin="round" />
		</g>
		<path d="M130.714 26.9934L107 29.636L139.673 46.0197L138.092 49.7193L116.051 56.9093L129.538 65.6127L123.336 81.4298H131.792L139.673 72.3581L142.542 76.772L130.714 122.125L153.901 103.099L171.818 113.14L176.034 94.6425L171.818 89.3575L178.669 83.5439L173.926 66.6316L182.5 51.3919L169.183 38.0921L173.926 23.8224H167.075L164.44 1.625L151.793 26.9934L144.942 23.8224L138.092 31.75L130.714 26.9934Z" stroke="#000C47" stroke-width="2.63576" stroke-linecap="round" stroke-linejoin="round" />
		<path d="M131 121L128 129.5" stroke="#000C47" stroke-width="2.63576" stroke-linecap="round" stroke-linejoin="round" />
		<path d="M154 105.5L150.508 120.418L145.897 114.848L143.5 129" stroke="#000C47" stroke-width="2.63576" stroke-linecap="round" stroke-linejoin="round" />
		<path d="M170.5 112.5L175.5 115.5" stroke="#000C47" stroke-width="2.63576" stroke-linecap="round" stroke-linejoin="round" />
		<path d="M124 79.5L121.5 86.25" stroke="#000C47" stroke-width="2.63576" stroke-linecap="round" stroke-linejoin="round" />
		<path d="M176 94.5L194 104.5" stroke="#000C47" stroke-width="2.63576" stroke-linecap="round" stroke-linejoin="round" />
		<path d="M145.75 24.25L138.5 21" stroke="#000C47" stroke-width="2.63576" stroke-linecap="round" stroke-linejoin="round" />
		<path d="M173 25.75L175.25 20" stroke="#000C47" stroke-width="2.63576" stroke-linecap="round" stroke-linejoin="round" />
		<mask id="path-28-outside-1_2685_7730" maskUnits="userSpaceOnUse" x="-19.8143" y="44.8003" width="110.824" height="105.327" fill="black">
			<rect fill="white" x="-19.8143" y="44.8003" width="110.824" height="105.327" />
			<path d="M10.8773 71.9241C10.5499 71.8819 10.2833 71.8453 10.0023 71.8319C8.5453 71.7969 7.20872 72.1902 5.88753 72.818C4.05179 73.7055 2.50132 74.9627 1.09348 76.4047C-1.22304 78.7944 -3.01092 81.576 -4.38957 84.579C-6.44037 89.0298 -7.56641 93.7001 -7.85174 98.5699C-8.00339 101.305 -7.86849 103.992 -7.18927 106.631C-6.94519 107.585 -6.61149 108.499 -6.24017 109.405C-6.01803 109.928 -5.63103 110.393 -5.28164 110.866C-5.16224 111.037 -5.04283 111.207 -5.15797 111.393C-5.26755 111.518 -5.45236 111.661 -5.60283 111.696C-5.96462 111.761 -6.26656 111.574 -6.45008 111.3C-6.85475 110.759 -7.31143 110.251 -7.57446 109.638C-8.0243 108.653 -8.3845 107.626 -8.65508 106.558C-9.24497 104.553 -9.44428 102.437 -9.42345 100.328C-9.32731 92.9625 -7.42481 86.1054 -3.47813 79.84C-1.71347 77.044 0.449302 74.5912 3.20811 72.7327C5.62608 71.1131 8.18539 70.0953 11.2253 70.5325C11.3084 70.2947 11.3538 70.0657 11.4225 69.8511C12.1793 67.0735 13.1884 64.3558 14.5746 61.8075C15.9176 59.3289 17.5481 57.0606 19.7482 55.2737C20.4499 54.7121 21.2068 54.2168 21.9814 53.7967C25.82 51.8037 29.7271 52.5533 32.6242 55.7628C33.6714 56.926 34.4585 58.2494 35.1272 59.6603C36.4093 62.4155 37.1359 65.3408 37.5993 68.328C37.7328 69.1501 37.8055 69.9666 37.9246 70.8118C37.9455 70.9855 37.9809 71.136 38.0195 71.3849C38.2651 71.2478 38.4964 71.134 38.69 71.029C40.528 69.9821 42.4976 69.2418 44.614 69.0424C47.2515 68.7803 49.704 69.3356 51.8938 70.8854C53.1833 71.813 54.184 72.9474 55.0176 74.2996C56.332 76.4321 57.0623 78.781 57.5004 81.2383C57.5567 81.5625 57.6129 81.8866 57.6637 82.2717C57.927 82.2098 58.1671 82.1336 58.3928 82.0806C60.6698 81.4665 62.9289 81.452 65.1366 82.4021C66.7438 83.0766 68.0311 84.1635 69.1224 85.5148C70.5222 87.25 71.4363 89.1986 72.0903 91.3075C73.0139 94.2263 73.402 97.2312 73.4051 100.287C73.4205 100.521 73.4214 100.779 73.4313 101.074C73.709 100.989 73.9115 100.922 74.1516 100.846C90.8433 95.0103 89.5441 96.5253 73.6077 102.502C73.5556 102.534 73.5036 102.566 73.3764 102.616C73.3597 102.798 73.3286 103.004 73.3208 103.224C72.4793 102.969 71.0224 102.057 71.2393 101.966C71.4562 101.876 71.6731 101.785 71.8899 101.694C71.9099 101.61 71.9387 101.564 71.9442 101.503C72.0199 97.8534 71.6122 94.2578 70.3448 90.8045C69.6276 88.8494 68.6737 87.0689 67.1908 85.5714C64.7281 83.1133 61.3166 82.4458 57.8577 83.7741C57.8643 83.971 57.8653 84.2288 57.8807 84.4633C58.1563 89.1021 57.6698 93.6222 56.1865 98.039C55.5651 99.8719 54.8043 101.618 53.6896 103.21C53.053 104.133 52.3468 105.014 51.4195 105.628C50.9082 105.987 50.3273 106.302 49.7342 106.481C48.3689 106.92 47.0725 106.471 46.1702 105.333C45.6782 104.674 45.3655 103.934 45.18 103.144C44.8619 101.79 44.8537 100.403 45.028 99.0321C45.421 95.8041 46.5739 92.8541 48.3187 90.1422C50.2649 87.1052 52.7462 84.6569 56.0127 83.0166C56.0648 82.9845 56.1168 82.9525 56.2208 82.8883C56.1998 82.7146 56.1933 82.5177 56.1723 82.344C55.8778 80.3293 55.372 78.3444 54.4989 76.4855C53.8213 75.037 52.9446 73.7545 51.7414 72.6875C50.108 71.2253 48.1734 70.5087 46.004 70.4823C44.3269 70.4396 42.7005 70.7818 41.1536 71.4626C40.2717 71.8483 39.4539 72.3381 38.6041 72.7758C38.2312 72.9626 38.1193 73.2469 38.1413 73.6783C38.3148 76.6145 38.2449 79.5284 37.9549 82.4346C37.5492 86.8762 36.7551 91.27 35.2653 95.4899C34.5376 97.5462 33.6473 99.5017 32.3798 101.288C31.7344 102.174 31.0106 102.979 30.0512 103.541C28.4964 104.442 26.9223 104.078 25.9173 102.587C25.6233 102.18 25.3956 101.717 25.2431 101.237C25.0056 100.479 24.8289 99.7269 24.7274 98.9569C24.5036 97.2431 24.5896 95.4963 24.8436 93.7894C25.6981 87.7937 27.8899 82.3373 31.5726 77.4833C32.9386 75.6939 34.5224 74.0717 36.3041 72.7007C36.5553 72.5027 36.7313 72.3225 36.6806 71.9375C36.3877 68.8309 35.9299 65.7828 34.9366 62.8209C34.3798 61.1258 33.6813 59.5036 32.6996 58.0274C32.1402 57.1665 31.4767 56.3697 30.6893 55.721C28.6843 54.0286 26.441 53.6028 23.9415 54.3684C22.1479 54.9285 20.675 56.0087 19.3535 57.3114C17.5993 59.053 16.2719 61.0913 15.1857 63.3112C14.0563 65.6008 13.2255 67.9789 12.5949 70.449C12.5462 70.5795 12.5351 70.7012 12.5328 70.8605C12.6722 70.9469 12.7739 71.0421 12.9044 71.0908C14.3755 71.7773 15.5466 72.7923 16.4034 74.159C16.9717 75.0575 17.5111 76.0025 17.9001 76.9829C19.5411 81.182 19.8446 85.5166 18.9377 89.9369C18.7215 90.9602 18.3837 91.9723 17.8368 92.8549C17.6641 93.1336 17.4914 93.4123 17.2954 93.6766C16.0214 95.2658 14.2491 95.3248 12.8071 93.9169C12.211 93.3226 11.7854 92.6088 11.4494 91.8542C10.8946 90.6747 10.5566 89.4045 10.3083 88.0934C9.6758 84.8085 9.64848 81.4808 10.0006 78.1632C10.1818 76.3146 10.5454 74.4828 10.8106 72.6542C10.772 72.4052 10.8175 72.1763 10.8773 71.9241ZM36.7062 74.0749C36.5358 74.1943 36.4462 74.2352 36.3654 74.3137C35.075 75.4106 33.9095 76.617 32.869 77.933C30.2434 81.2884 28.3666 85.0435 27.1601 89.1174C26.3568 91.8662 25.8578 94.6428 25.976 97.5126C26.0143 98.4364 26.1743 99.3712 26.3863 100.274C26.5188 100.838 26.8018 101.367 27.1368 101.864C27.6233 102.583 28.3478 102.711 29.108 102.314C29.4809 102.127 29.7985 101.874 30.1073 101.583C31.0049 100.757 31.6614 99.7498 32.2249 98.6846C33.0963 97.0709 33.7907 95.3797 34.3081 93.611C36.2015 87.3911 36.9068 81.0136 36.7514 74.5207C36.7481 74.4223 36.736 74.2862 36.7062 74.0749ZM56.3075 84.3564C56.1283 84.4382 55.9778 84.4736 55.8594 84.5609C55.2729 84.9368 54.6543 85.2607 54.0999 85.6886C50.7556 88.1807 48.4918 91.4709 47.105 95.3689C46.4404 97.2715 46.0568 99.1874 46.1543 101.209C46.1927 102.132 46.3438 103.03 46.7439 103.888C47.427 105.276 48.5697 105.663 49.9484 104.942C50.7086 104.545 51.3174 103.926 51.8564 103.263C53.0673 101.828 53.8602 100.133 54.4993 98.3757C56.0898 93.9933 56.614 89.4643 56.3615 84.8399C56.3727 84.7182 56.3373 84.5678 56.3075 84.3564ZM12.124 72.2465C12.0697 72.4379 12.021 72.5684 11.9866 72.6757C11.154 76.8206 10.7705 81.0189 11.1459 85.2373C11.3033 87.0064 11.5736 88.7489 12.2057 90.4263C12.4808 91.1754 12.8544 91.9212 13.3232 92.5653C14.3249 93.9574 15.4976 93.8805 16.4508 92.446C17.0497 91.5314 17.3875 90.5193 17.5949 89.4584C18.3588 85.5281 18.1094 81.677 16.7857 77.8995C16.2995 76.5054 15.6197 75.2162 14.6422 74.0962C13.9644 73.3226 13.1626 72.6972 12.124 72.2465Z" />
		</mask>
		<path d="M10.8773 71.9241C10.5499 71.8819 10.2833 71.8453 10.0023 71.8319C8.5453 71.7969 7.20872 72.1902 5.88753 72.818C4.05179 73.7055 2.50132 74.9627 1.09348 76.4047C-1.22304 78.7944 -3.01092 81.576 -4.38957 84.579C-6.44037 89.0298 -7.56641 93.7001 -7.85174 98.5699C-8.00339 101.305 -7.86849 103.992 -7.18927 106.631C-6.94519 107.585 -6.61149 108.499 -6.24017 109.405C-6.01803 109.928 -5.63103 110.393 -5.28164 110.866C-5.16224 111.037 -5.04283 111.207 -5.15797 111.393C-5.26755 111.518 -5.45236 111.661 -5.60283 111.696C-5.96462 111.761 -6.26656 111.574 -6.45008 111.3C-6.85475 110.759 -7.31143 110.251 -7.57446 109.638C-8.0243 108.653 -8.3845 107.626 -8.65508 106.558C-9.24497 104.553 -9.44428 102.437 -9.42345 100.328C-9.32731 92.9625 -7.42481 86.1054 -3.47813 79.84C-1.71347 77.044 0.449302 74.5912 3.20811 72.7327C5.62608 71.1131 8.18539 70.0953 11.2253 70.5325C11.3084 70.2947 11.3538 70.0657 11.4225 69.8511C12.1793 67.0735 13.1884 64.3558 14.5746 61.8075C15.9176 59.3289 17.5481 57.0606 19.7482 55.2737C20.4499 54.7121 21.2068 54.2168 21.9814 53.7967C25.82 51.8037 29.7271 52.5533 32.6242 55.7628C33.6714 56.926 34.4585 58.2494 35.1272 59.6603C36.4093 62.4155 37.1359 65.3408 37.5993 68.328C37.7328 69.1501 37.8055 69.9666 37.9246 70.8118C37.9455 70.9855 37.9809 71.136 38.0195 71.3849C38.2651 71.2478 38.4964 71.134 38.69 71.029C40.528 69.9821 42.4976 69.2418 44.614 69.0424C47.2515 68.7803 49.704 69.3356 51.8938 70.8854C53.1833 71.813 54.184 72.9474 55.0176 74.2996C56.332 76.4321 57.0623 78.781 57.5004 81.2383C57.5567 81.5625 57.6129 81.8866 57.6637 82.2717C57.927 82.2098 58.1671 82.1336 58.3928 82.0806C60.6698 81.4665 62.9289 81.452 65.1366 82.4021C66.7438 83.0766 68.0311 84.1635 69.1224 85.5148C70.5222 87.25 71.4363 89.1986 72.0903 91.3075C73.0139 94.2263 73.402 97.2312 73.4051 100.287C73.4205 100.521 73.4214 100.779 73.4313 101.074C73.709 100.989 73.9115 100.922 74.1516 100.846C90.8433 95.0103 89.5441 96.5253 73.6077 102.502C73.5556 102.534 73.5036 102.566 73.3764 102.616C73.3597 102.798 73.3286 103.004 73.3208 103.224C72.4793 102.969 71.0224 102.057 71.2393 101.966C71.4562 101.876 71.6731 101.785 71.8899 101.694C71.9099 101.61 71.9387 101.564 71.9442 101.503C72.0199 97.8534 71.6122 94.2578 70.3448 90.8045C69.6276 88.8494 68.6737 87.0689 67.1908 85.5714C64.7281 83.1133 61.3166 82.4458 57.8577 83.7741C57.8643 83.971 57.8653 84.2288 57.8807 84.4633C58.1563 89.1021 57.6698 93.6222 56.1865 98.039C55.5651 99.8719 54.8043 101.618 53.6896 103.21C53.053 104.133 52.3468 105.014 51.4195 105.628C50.9082 105.987 50.3273 106.302 49.7342 106.481C48.3689 106.92 47.0725 106.471 46.1702 105.333C45.6782 104.674 45.3655 103.934 45.18 103.144C44.8619 101.79 44.8537 100.403 45.028 99.0321C45.421 95.8041 46.5739 92.8541 48.3187 90.1422C50.2649 87.1052 52.7462 84.6569 56.0127 83.0166C56.0648 82.9845 56.1168 82.9525 56.2208 82.8883C56.1998 82.7146 56.1933 82.5177 56.1723 82.344C55.8778 80.3293 55.372 78.3444 54.4989 76.4855C53.8213 75.037 52.9446 73.7545 51.7414 72.6875C50.108 71.2253 48.1734 70.5087 46.004 70.4823C44.3269 70.4396 42.7005 70.7818 41.1536 71.4626C40.2717 71.8483 39.4539 72.3381 38.6041 72.7758C38.2312 72.9626 38.1193 73.2469 38.1413 73.6783C38.3148 76.6145 38.2449 79.5284 37.9549 82.4346C37.5492 86.8762 36.7551 91.27 35.2653 95.4899C34.5376 97.5462 33.6473 99.5017 32.3798 101.288C31.7344 102.174 31.0106 102.979 30.0512 103.541C28.4964 104.442 26.9223 104.078 25.9173 102.587C25.6233 102.18 25.3956 101.717 25.2431 101.237C25.0056 100.479 24.8289 99.7269 24.7274 98.9569C24.5036 97.2431 24.5896 95.4963 24.8436 93.7894C25.6981 87.7937 27.8899 82.3373 31.5726 77.4833C32.9386 75.6939 34.5224 74.0717 36.3041 72.7007C36.5553 72.5027 36.7313 72.3225 36.6806 71.9375C36.3877 68.8309 35.9299 65.7828 34.9366 62.8209C34.3798 61.1258 33.6813 59.5036 32.6996 58.0274C32.1402 57.1665 31.4767 56.3697 30.6893 55.721C28.6843 54.0286 26.441 53.6028 23.9415 54.3684C22.1479 54.9285 20.675 56.0087 19.3535 57.3114C17.5993 59.053 16.2719 61.0913 15.1857 63.3112C14.0563 65.6008 13.2255 67.9789 12.5949 70.449C12.5462 70.5795 12.5351 70.7012 12.5328 70.8605C12.6722 70.9469 12.7739 71.0421 12.9044 71.0908C14.3755 71.7773 15.5466 72.7923 16.4034 74.159C16.9717 75.0575 17.5111 76.0025 17.9001 76.9829C19.5411 81.182 19.8446 85.5166 18.9377 89.9369C18.7215 90.9602 18.3837 91.9723 17.8368 92.8549C17.6641 93.1336 17.4914 93.4123 17.2954 93.6766C16.0214 95.2658 14.2491 95.3248 12.8071 93.9169C12.211 93.3226 11.7854 92.6088 11.4494 91.8542C10.8946 90.6747 10.5566 89.4045 10.3083 88.0934C9.6758 84.8085 9.64848 81.4808 10.0006 78.1632C10.1818 76.3146 10.5454 74.4828 10.8106 72.6542C10.772 72.4052 10.8175 72.1763 10.8773 71.9241ZM36.7062 74.0749C36.5358 74.1943 36.4462 74.2352 36.3654 74.3137C35.075 75.4106 33.9095 76.617 32.869 77.933C30.2434 81.2884 28.3666 85.0435 27.1601 89.1174C26.3568 91.8662 25.8578 94.6428 25.976 97.5126C26.0143 98.4364 26.1743 99.3712 26.3863 100.274C26.5188 100.838 26.8018 101.367 27.1368 101.864C27.6233 102.583 28.3478 102.711 29.108 102.314C29.4809 102.127 29.7985 101.874 30.1073 101.583C31.0049 100.757 31.6614 99.7498 32.2249 98.6846C33.0963 97.0709 33.7907 95.3797 34.3081 93.611C36.2015 87.3911 36.9068 81.0136 36.7514 74.5207C36.7481 74.4223 36.736 74.2862 36.7062 74.0749ZM56.3075 84.3564C56.1283 84.4382 55.9778 84.4736 55.8594 84.5609C55.2729 84.9368 54.6543 85.2607 54.0999 85.6886C50.7556 88.1807 48.4918 91.4709 47.105 95.3689C46.4404 97.2715 46.0568 99.1874 46.1543 101.209C46.1927 102.132 46.3438 103.03 46.7439 103.888C47.427 105.276 48.5697 105.663 49.9484 104.942C50.7086 104.545 51.3174 103.926 51.8564 103.263C53.0673 101.828 53.8602 100.133 54.4993 98.3757C56.0898 93.9933 56.614 89.4643 56.3615 84.8399C56.3727 84.7182 56.3373 84.5678 56.3075 84.3564ZM12.124 72.2465C12.0697 72.4379 12.021 72.5684 11.9866 72.6757C11.154 76.8206 10.7705 81.0189 11.1459 85.2373C11.3033 87.0064 11.5736 88.7489 12.2057 90.4263C12.4808 91.1754 12.8544 91.9212 13.3232 92.5653C14.3249 93.9574 15.4976 93.8805 16.4508 92.446C17.0497 91.5314 17.3875 90.5193 17.5949 89.4584C18.3588 85.5281 18.1094 81.677 16.7857 77.8995C16.2995 76.5054 15.6197 75.2162 14.6422 74.0962C13.9644 73.3226 13.1626 72.6972 12.124 72.2465Z" fill="#000C47" />
		<path d="M10.8773 71.9241C10.5499 71.8819 10.2833 71.8453 10.0023 71.8319C8.5453 71.7969 7.20872 72.1902 5.88753 72.818C4.05179 73.7055 2.50132 74.9627 1.09348 76.4047C-1.22304 78.7944 -3.01092 81.576 -4.38957 84.579C-6.44037 89.0298 -7.56641 93.7001 -7.85174 98.5699C-8.00339 101.305 -7.86849 103.992 -7.18927 106.631C-6.94519 107.585 -6.61149 108.499 -6.24017 109.405C-6.01803 109.928 -5.63103 110.393 -5.28164 110.866C-5.16224 111.037 -5.04283 111.207 -5.15797 111.393C-5.26755 111.518 -5.45236 111.661 -5.60283 111.696C-5.96462 111.761 -6.26656 111.574 -6.45008 111.3C-6.85475 110.759 -7.31143 110.251 -7.57446 109.638C-8.0243 108.653 -8.3845 107.626 -8.65508 106.558C-9.24497 104.553 -9.44428 102.437 -9.42345 100.328C-9.32731 92.9625 -7.42481 86.1054 -3.47813 79.84C-1.71347 77.044 0.449302 74.5912 3.20811 72.7327C5.62608 71.1131 8.18539 70.0953 11.2253 70.5325C11.3084 70.2947 11.3538 70.0657 11.4225 69.8511C12.1793 67.0735 13.1884 64.3558 14.5746 61.8075C15.9176 59.3289 17.5481 57.0606 19.7482 55.2737C20.4499 54.7121 21.2068 54.2168 21.9814 53.7967C25.82 51.8037 29.7271 52.5533 32.6242 55.7628C33.6714 56.926 34.4585 58.2494 35.1272 59.6603C36.4093 62.4155 37.1359 65.3408 37.5993 68.328C37.7328 69.1501 37.8055 69.9666 37.9246 70.8118C37.9455 70.9855 37.9809 71.136 38.0195 71.3849C38.2651 71.2478 38.4964 71.134 38.69 71.029C40.528 69.9821 42.4976 69.2418 44.614 69.0424C47.2515 68.7803 49.704 69.3356 51.8938 70.8854C53.1833 71.813 54.184 72.9474 55.0176 74.2996C56.332 76.4321 57.0623 78.781 57.5004 81.2383C57.5567 81.5625 57.6129 81.8866 57.6637 82.2717C57.927 82.2098 58.1671 82.1336 58.3928 82.0806C60.6698 81.4665 62.9289 81.452 65.1366 82.4021C66.7438 83.0766 68.0311 84.1635 69.1224 85.5148C70.5222 87.25 71.4363 89.1986 72.0903 91.3075C73.0139 94.2263 73.402 97.2312 73.4051 100.287C73.4205 100.521 73.4214 100.779 73.4313 101.074C73.709 100.989 73.9115 100.922 74.1516 100.846C90.8433 95.0103 89.5441 96.5253 73.6077 102.502C73.5556 102.534 73.5036 102.566 73.3764 102.616C73.3597 102.798 73.3286 103.004 73.3208 103.224C72.4793 102.969 71.0224 102.057 71.2393 101.966C71.4562 101.876 71.6731 101.785 71.8899 101.694C71.9099 101.61 71.9387 101.564 71.9442 101.503C72.0199 97.8534 71.6122 94.2578 70.3448 90.8045C69.6276 88.8494 68.6737 87.0689 67.1908 85.5714C64.7281 83.1133 61.3166 82.4458 57.8577 83.7741C57.8643 83.971 57.8653 84.2288 57.8807 84.4633C58.1563 89.1021 57.6698 93.6222 56.1865 98.039C55.5651 99.8719 54.8043 101.618 53.6896 103.21C53.053 104.133 52.3468 105.014 51.4195 105.628C50.9082 105.987 50.3273 106.302 49.7342 106.481C48.3689 106.92 47.0725 106.471 46.1702 105.333C45.6782 104.674 45.3655 103.934 45.18 103.144C44.8619 101.79 44.8537 100.403 45.028 99.0321C45.421 95.8041 46.5739 92.8541 48.3187 90.1422C50.2649 87.1052 52.7462 84.6569 56.0127 83.0166C56.0648 82.9845 56.1168 82.9525 56.2208 82.8883C56.1998 82.7146 56.1933 82.5177 56.1723 82.344C55.8778 80.3293 55.372 78.3444 54.4989 76.4855C53.8213 75.037 52.9446 73.7545 51.7414 72.6875C50.108 71.2253 48.1734 70.5087 46.004 70.4823C44.3269 70.4396 42.7005 70.7818 41.1536 71.4626C40.2717 71.8483 39.4539 72.3381 38.6041 72.7758C38.2312 72.9626 38.1193 73.2469 38.1413 73.6783C38.3148 76.6145 38.2449 79.5284 37.9549 82.4346C37.5492 86.8762 36.7551 91.27 35.2653 95.4899C34.5376 97.5462 33.6473 99.5017 32.3798 101.288C31.7344 102.174 31.0106 102.979 30.0512 103.541C28.4964 104.442 26.9223 104.078 25.9173 102.587C25.6233 102.18 25.3956 101.717 25.2431 101.237C25.0056 100.479 24.8289 99.7269 24.7274 98.9569C24.5036 97.2431 24.5896 95.4963 24.8436 93.7894C25.6981 87.7937 27.8899 82.3373 31.5726 77.4833C32.9386 75.6939 34.5224 74.0717 36.3041 72.7007C36.5553 72.5027 36.7313 72.3225 36.6806 71.9375C36.3877 68.8309 35.9299 65.7828 34.9366 62.8209C34.3798 61.1258 33.6813 59.5036 32.6996 58.0274C32.1402 57.1665 31.4767 56.3697 30.6893 55.721C28.6843 54.0286 26.441 53.6028 23.9415 54.3684C22.1479 54.9285 20.675 56.0087 19.3535 57.3114C17.5993 59.053 16.2719 61.0913 15.1857 63.3112C14.0563 65.6008 13.2255 67.9789 12.5949 70.449C12.5462 70.5795 12.5351 70.7012 12.5328 70.8605C12.6722 70.9469 12.7739 71.0421 12.9044 71.0908C14.3755 71.7773 15.5466 72.7923 16.4034 74.159C16.9717 75.0575 17.5111 76.0025 17.9001 76.9829C19.5411 81.182 19.8446 85.5166 18.9377 89.9369C18.7215 90.9602 18.3837 91.9723 17.8368 92.8549C17.6641 93.1336 17.4914 93.4123 17.2954 93.6766C16.0214 95.2658 14.2491 95.3248 12.8071 93.9169C12.211 93.3226 11.7854 92.6088 11.4494 91.8542C10.8946 90.6747 10.5566 89.4045 10.3083 88.0934C9.6758 84.8085 9.64848 81.4808 10.0006 78.1632C10.1818 76.3146 10.5454 74.4828 10.8106 72.6542C10.772 72.4052 10.8175 72.1763 10.8773 71.9241ZM36.7062 74.0749C36.5358 74.1943 36.4462 74.2352 36.3654 74.3137C35.075 75.4106 33.9095 76.617 32.869 77.933C30.2434 81.2884 28.3666 85.0435 27.1601 89.1174C26.3568 91.8662 25.8578 94.6428 25.976 97.5126C26.0143 98.4364 26.1743 99.3712 26.3863 100.274C26.5188 100.838 26.8018 101.367 27.1368 101.864C27.6233 102.583 28.3478 102.711 29.108 102.314C29.4809 102.127 29.7985 101.874 30.1073 101.583C31.0049 100.757 31.6614 99.7498 32.2249 98.6846C33.0963 97.0709 33.7907 95.3797 34.3081 93.611C36.2015 87.3911 36.9068 81.0136 36.7514 74.5207C36.7481 74.4223 36.736 74.2862 36.7062 74.0749ZM56.3075 84.3564C56.1283 84.4382 55.9778 84.4736 55.8594 84.5609C55.2729 84.9368 54.6543 85.2607 54.0999 85.6886C50.7556 88.1807 48.4918 91.4709 47.105 95.3689C46.4404 97.2715 46.0568 99.1874 46.1543 101.209C46.1927 102.132 46.3438 103.03 46.7439 103.888C47.427 105.276 48.5697 105.663 49.9484 104.942C50.7086 104.545 51.3174 103.926 51.8564 103.263C53.0673 101.828 53.8602 100.133 54.4993 98.3757C56.0898 93.9933 56.614 89.4643 56.3615 84.8399C56.3727 84.7182 56.3373 84.5678 56.3075 84.3564ZM12.124 72.2465C12.0697 72.4379 12.021 72.5684 11.9866 72.6757C11.154 76.8206 10.7705 81.0189 11.1459 85.2373C11.3033 87.0064 11.5736 88.7489 12.2057 90.4263C12.4808 91.1754 12.8544 91.9212 13.3232 92.5653C14.3249 93.9574 15.4976 93.8805 16.4508 92.446C17.0497 91.5314 17.3875 90.5193 17.5949 89.4584C18.3588 85.5281 18.1094 81.677 16.7857 77.8995C16.2995 76.5054 15.6197 75.2162 14.6422 74.0962C13.9644 73.3226 13.1626 72.6972 12.124 72.2465Z" stroke="#000C47" stroke-width="0.734374" mask="url(#path-28-outside-1_2685_7730)" />
		<path d="M68.1772 122.99C62.8147 109.631 67.6231 93.9055 80.742 87.9785C81.7499 87.5231 82.7345 87.0999 83.6803 86.7202C84.6262 86.3406 85.6301 85.9656 86.6732 85.5978C100.249 80.8097 114.595 88.8464 119.958 102.206C125.331 115.592 120.491 131.348 107.339 137.272C106.353 137.716 105.39 138.13 104.465 138.501C103.539 138.872 102.558 139.239 101.538 139.6C87.9402 144.413 73.5502 136.376 68.1772 122.99Z" fill="#000C47" />
		<path d="M84.6872 84.5038C85.3819 84.225 86.111 83.9487 86.8661 83.6745L87.6296 83.4006C100.46 78.8756 114.174 86.4413 119.332 99.2928C124.42 111.968 119.938 126.679 107.94 132.477L107.363 132.747C106.39 133.185 105.442 133.591 104.536 133.955C104.083 134.137 103.615 134.318 103.135 134.499L101.659 135.036C88.8061 139.585 75.0493 132.019 69.8808 119.142C64.8029 106.491 69.2561 91.8097 81.223 86.0111L81.7977 85.7415C82.7924 85.2921 83.7608 84.8757 84.6872 84.5038Z" fill="white" stroke="#000C47" stroke-width="2.51071" />
		<ellipse cx="93.4841" cy="105.441" rx="7.83608" ry="9.53957" transform="rotate(-20.5694 93.4841 105.441)" fill="white" />
		<path fill-rule="evenodd" clip-rule="evenodd" d="M108.704 117.395C107.012 114.508 106.472 111.954 106.315 110.944L105.309 102.598C104.541 96.2222 98.7241 91.6799 92.3172 92.4519C85.9095 93.2239 81.3378 99.0178 82.1059 105.393L83.126 113.86C83.2079 114.957 83.2491 117.491 82.328 120.573C81.0899 124.714 82.4504 124.074 83.6806 123.598C84.9109 123.122 87.5928 121.517 88.6658 122.967C89.7383 124.417 90.6395 125.679 92.5995 124.549C94.5598 123.419 95.4981 123.008 95.7931 122.973L96.1945 122.925C96.4891 122.889 97.4986 123.065 99.6709 123.697C101.843 124.329 102.418 122.889 103.117 121.226C103.814 119.563 106.8 120.485 108.109 120.655C109.417 120.825 110.89 121.124 108.704 117.395ZM89.4942 99.1776C90.7438 99.027 91.9489 100.5 92.1861 102.468C92.4232 104.436 91.6024 106.153 90.3528 106.304C89.1032 106.454 87.8978 104.981 87.6607 103.013C87.4236 101.045 88.2446 99.3281 89.4942 99.1776ZM94.7914 112.989C92.0378 113.321 89.395 110.904 88.335 107.987C89.9064 109.67 92.1316 110.605 94.4703 110.324C96.8088 110.042 98.748 108.605 99.875 106.597C99.538 109.682 97.5445 112.657 94.7914 112.989ZM97.5172 105.437C96.2667 105.587 95.0619 104.114 94.8248 102.146C94.5877 100.178 95.4081 98.461 96.6586 98.3103C97.9089 98.1597 99.1134 99.6326 99.3505 101.601C99.5876 103.569 98.7675 105.286 97.5172 105.437Z" fill="#00AEF0" />
	</g>
	<ellipse cx="267" cy="83.75" rx="15" ry="14.25" fill="#F1D801" />
	<path d="M265.751 78.2109C267.45 78.2562 268.877 78.6413 270.1 79.5474C271.912 80.8611 272.818 82.6506 272.705 84.9157C272.66 85.7764 272.297 86.5239 271.731 87.1582C270.757 88.2681 269.489 88.8117 268.016 88.9929C267.88 89.0156 267.767 89.0156 267.631 88.9929C266.159 88.7437 264.709 88.4719 263.395 87.7244C261.697 86.7051 260.813 85.1875 260.836 83.1942C260.881 80.9064 262.671 78.7546 264.845 78.3015C265.208 78.2336 265.57 78.2336 265.751 78.2109ZM265.91 80.6799C265.593 80.7479 265.253 80.7705 264.958 80.8838C263.577 81.4501 262.942 83.2848 263.69 84.5759C263.939 85.0289 264.324 85.3687 264.777 85.5952C265.638 86.0256 266.567 86.2974 267.518 86.388C267.971 86.4333 268.469 86.3427 268.9 86.1615C269.942 85.7538 270.372 84.961 270.146 83.919C269.942 82.9677 269.466 82.1522 268.651 81.586C267.858 81.0423 266.929 80.7705 265.91 80.6799Z" fill="#000C47" />
	<path d="M268.063 72.7744C268.991 72.865 269.943 72.8877 270.871 73.0236C273.023 73.3633 274.767 74.4733 276.081 76.1947C277.803 78.4146 278.731 80.9515 278.822 83.7829C278.867 84.8701 278.641 85.9121 278.21 86.9088C277.803 87.8375 277.304 88.7208 276.647 89.5136C274.45 92.1412 271.777 93.9986 268.312 94.4743C265.979 94.7914 263.668 94.6555 261.471 93.84C259.954 93.2511 258.572 92.413 257.349 91.3484C256.941 90.986 256.601 90.5103 256.307 90.0346C255.514 88.6982 255.038 87.2259 254.608 85.7535C254.472 85.3005 254.495 84.7795 254.495 84.3039C254.495 81.2686 255.582 78.6864 257.847 76.6251C260.429 74.292 263.442 72.9556 266.975 72.8424C267.338 72.8424 267.7 72.8424 268.063 72.8424C268.063 72.8197 268.063 72.7971 268.063 72.7744ZM268.017 75.3113C265.05 75.2207 262.422 76.1494 260.112 77.9842C259.161 78.7543 258.345 79.6377 257.802 80.7703C256.556 83.3752 256.805 85.8895 258.255 88.3358C258.481 88.7208 258.821 89.038 259.183 89.3098C259.772 89.7628 260.384 90.1705 261.018 90.5556C262.717 91.5975 264.529 92.1865 266.568 92.0959C270.509 91.9147 273.386 90.0346 275.447 86.7955C275.696 86.4104 275.877 86.0027 276.013 85.5723C276.172 85.0967 276.285 84.5757 276.308 84.1C276.308 81.631 275.492 79.4339 273.952 77.5538C272.955 76.3533 271.664 75.6285 270.079 75.4699C269.399 75.3793 268.697 75.3566 268.017 75.3113Z" fill="#000C47" />
	<path d="M264.686 99.7527C262.806 99.7527 261.243 99.5035 259.748 98.8919C258.774 98.4842 257.891 97.9179 257.121 97.1704C256.079 96.1511 254.991 95.1318 253.927 94.1352C253.836 94.0446 253.723 93.9766 253.632 93.886C253.27 93.5462 252.84 93.2291 252.545 92.8214C251.027 90.7601 249.872 88.5177 249.578 85.9128C249.329 83.7156 249.691 81.6091 250.529 79.5931C251.186 77.9849 252.024 76.4899 253.134 75.1761C254.267 73.8397 255.558 72.7524 257.098 71.9144C258.933 70.963 260.79 70.057 262.738 69.3321C265.524 68.3128 268.424 67.9051 271.391 68.0184C272.478 68.0637 273.52 68.3128 274.471 68.8338C275.604 69.4454 276.737 70.0796 277.779 70.8044C279.976 72.2994 281.312 74.4739 282.173 76.9203C283.396 80.4086 283.532 83.9874 282.558 87.5663C282.354 88.3138 282.082 89.0613 281.742 89.7408C280.157 92.8667 277.914 95.381 274.743 97.0119C271.482 98.6881 268.061 99.5941 264.686 99.7527ZM264.641 97.2384C267.744 97.0572 270.847 96.2191 273.769 94.7015C276.148 93.4556 277.846 91.5529 279.16 89.2652C279.545 88.5856 279.885 87.8381 280.089 87.068C280.972 83.8515 280.859 80.6351 279.681 77.5092C278.979 75.6518 277.96 73.9983 276.261 72.8431C275.355 72.2315 274.381 71.6878 273.407 71.1442C272.659 70.7365 271.844 70.5553 271.006 70.5326C268.401 70.4873 265.841 70.8497 263.395 71.7784C261.674 72.4353 259.997 73.2508 258.366 74.1115C257.098 74.7911 256.033 75.6745 255.105 76.7617C254.176 77.849 253.496 79.0721 252.93 80.3859C252.069 82.3792 251.775 84.4178 252.228 86.547C252.432 87.4984 252.704 88.3818 253.474 89.084C253.836 89.4237 254.108 89.8767 254.38 90.2845C254.629 90.6469 254.856 91.0093 255.059 91.3944C255.399 91.9833 255.83 92.4816 256.328 92.9347C257.121 93.6595 257.936 94.407 258.684 95.1771C259.476 95.9699 260.405 96.4909 261.447 96.808C262.444 97.1251 263.44 97.2384 264.641 97.2384Z" fill="#000C47" />
	<path d="M233.98 46.0963C234.561 46.0206 235.016 46.2481 235.319 46.7282C235.446 46.9302 235.547 47.1573 235.572 47.4098C235.724 48.193 235.825 49.0271 235.926 49.8356C235.9 50.7705 235.723 51.6549 235.294 52.4635C235.041 52.9436 234.814 52.9939 234.46 52.6149C234.106 52.2107 233.778 51.7559 233.576 51.276C233.323 50.6949 233.222 50.0885 233.096 49.4821C232.995 48.9768 232.919 48.4462 232.868 47.9157C232.843 47.6378 232.843 47.3343 232.894 47.0817C233.02 46.5258 233.425 46.1721 233.98 46.0963ZM239.842 42.8112C240.726 42.8617 241.535 43.0891 242.318 43.4176C242.722 43.5945 242.773 43.7717 242.419 44.0748C242.04 44.4285 241.61 44.7567 241.155 45.0094C240.271 45.5399 239.286 45.7927 238.275 45.818C237.669 45.8433 237.214 45.5399 236.986 44.984C236.784 44.4789 236.835 43.9741 237.239 43.5699C237.467 43.3425 237.77 43.1653 238.048 43.0895C238.629 42.9884 239.235 42.9122 239.842 42.8112ZM230.797 42.1803C231.378 42.1803 231.959 42.2562 232.489 42.5592C233.121 42.9382 233.197 43.343 232.666 43.8737C232.388 44.1767 232.009 44.4291 231.63 44.5807C230.468 45.0606 229.205 45.1872 227.967 45.2125C227.866 45.2125 227.764 45.187 227.663 45.1617C226.956 44.9848 226.476 44.4035 226.501 43.7213C226.526 43.0393 227.032 42.509 227.79 42.4332C228.725 42.3322 229.635 42.2561 230.569 42.1803H230.797ZM234.864 34.7262C235.218 34.3725 235.521 34.448 235.824 34.8522C236.203 35.4081 236.405 36.0401 236.456 36.7223C236.481 37.3286 236.456 37.9098 236.481 38.4908V39.7037C236.481 39.9058 236.481 40.1081 236.456 40.3102C236.38 41.0175 235.875 41.5224 235.218 41.5729C234.536 41.6232 233.879 41.1941 233.778 40.4616C233.551 38.9203 233.551 37.3537 234.106 35.8629C234.258 35.4335 234.561 35.0546 234.864 34.7262Z" fill="#000C47" />
	<defs>
		<filter id="filter0_d_2685_7730" x="122.043" y="32.2402" width="63.8193" height="65.5156" filterUnits="userSpaceOnUse" color-interpolation-filters="sRGB">
			<feFlood flood-opacity="0" result="BackgroundImageFix" />
			<feColorMatrix in="SourceAlpha" type="matrix" values="0 0 0 0 0 0 0 0 0 0 0 0 0 0 0 0 0 0 127 0" result="hardAlpha" />
			<feOffset dx="-1.69723" dy="3.39446" />
			<feComposite in2="hardAlpha" operator="out" />
			<feColorMatrix type="matrix" values="0 0 0 0 0 0 0 0 0 0.0470588 0 0 0 0 0.278431 0 0 0 1 0" />
			<feBlend mode="normal" in2="BackgroundImageFix" result="effect1_dropShadow_2685_7730" />
			<feBlend mode="normal" in="SourceGraphic" in2="effect1_dropShadow_2685_7730" result="shape" />
		</filter>
		<clipPath id="clip0_2685_7730">
			<rect width="300" height="144" rx="72" fill="white" />
		</clipPath>
	</defs>
</svg>
