<svg width="300" height="144" viewBox="0 0 300 144" fill="none" xmlns="http://www.w3.org/2000/svg">
	<g clip-path="url(#clip0_2659_7479)">
		<rect width="300" height="144" rx="72" fill="#00AEF0" />
		<circle cx="247.125" cy="134.625" r="140.625" fill="#33BEF3" />
		<circle cx="246.75" cy="134.25" r="33.75" fill="#5CCBF5" />
		<path d="M252.748 77.9337C252.746 78.3701 252.605 78.795 252.344 79.1486C252.083 79.5023 251.716 79.7671 251.293 79.9057L247.546 81.1163C246.369 81.5016 245.301 82.1506 244.425 83.0115C243.55 83.8725 242.891 84.9216 242.503 86.0756L241.207 89.7267C241.058 90.1341 240.787 90.488 240.43 90.742C240.159 90.9332 239.845 91.0588 239.515 91.1084C239.185 91.1579 238.847 91.1302 238.53 91.0273C238.213 90.9244 237.926 90.7493 237.691 90.5165C237.456 90.2836 237.281 89.9996 237.181 89.6877L235.925 86.017C235.52 84.8596 234.836 83.8148 233.932 82.9711C233.057 82.0917 231.986 81.4233 230.802 81.0187L227.055 79.7886C226.63 79.6577 226.26 79.3979 225.996 79.0466C225.738 78.69 225.599 78.2636 225.599 77.8263C225.599 77.3891 225.738 76.9626 225.996 76.606C226.261 76.2445 226.639 75.9772 227.073 75.8446L230.8 74.6145C232 74.2193 233.086 73.55 233.969 72.662C234.866 71.7971 235.55 70.7408 235.963 69.5771L237.199 65.965C237.315 65.5523 237.568 65.1887 237.916 64.9302C238.267 64.6546 238.702 64.5032 239.152 64.5006C239.597 64.4901 240.035 64.6127 240.408 64.8521C240.786 65.0848 241.074 65.4355 241.225 65.8478L242.481 69.5771C242.893 70.7408 243.577 71.7971 244.474 72.662C245.352 73.5474 246.431 74.2165 247.623 74.6145L251.351 75.9031C251.771 76.0317 252.135 76.2926 252.387 76.6451C252.647 77.0239 252.776 77.4749 252.748 77.9337ZM233.074 91.4644C233.073 91.8626 232.948 92.2509 232.716 92.5774C232.475 92.8948 232.141 93.1331 231.759 93.2607L229.068 94.1393C228.314 94.3997 227.632 94.8274 227.075 95.3889C226.507 95.939 226.071 96.6059 225.799 97.3414L224.862 99.9578C224.732 100.332 224.489 100.659 224.164 100.895C223.829 101.126 223.429 101.25 223.018 101.25C222.608 101.25 222.208 101.126 221.872 100.895C221.548 100.659 221.305 100.332 221.174 99.9578L220.297 97.3414C220.025 96.6058 219.588 95.9388 219.02 95.3889C218.458 94.8327 217.777 94.4059 217.026 94.1393L214.336 93.2803C213.951 93.1474 213.617 92.9021 213.379 92.5774C213.139 92.2532 213.007 91.8647 213 91.4644C213.007 91.0618 213.141 90.6712 213.384 90.3461C213.627 90.0211 213.966 89.7774 214.355 89.6486L217.026 88.7895C217.775 88.5178 218.454 88.091 219.018 87.5384C219.582 86.9857 220.018 86.3203 220.295 85.5875L221.192 83.0102C221.312 82.6408 221.541 82.3145 221.85 82.073C222.174 81.8317 222.565 81.693 222.971 81.6755C223.377 81.6581 223.779 81.7627 224.123 81.9754C224.463 82.2058 224.727 82.5318 224.88 82.9126L225.777 85.5875C226.054 86.3203 226.49 86.9857 227.054 87.5384C227.619 88.091 228.298 88.5178 229.046 88.7895L231.717 89.7072C232.098 89.8262 232.428 90.0668 232.654 90.3906C232.907 90.6954 233.054 91.0718 233.072 91.4644" fill="#FF375B" />
		<path d="M233.074 91.4644C233.073 91.8626 232.948 92.2509 232.716 92.5774C232.475 92.8948 232.141 93.1331 231.759 93.2607L229.068 94.1393C228.314 94.3997 227.632 94.8274 227.075 95.3889C226.507 95.939 226.071 96.6059 225.799 97.3414L224.862 99.9578C224.732 100.332 224.489 100.659 224.164 100.895C223.829 101.126 223.429 101.25 223.018 101.25C222.608 101.25 222.208 101.126 221.872 100.895C221.548 100.659 221.305 100.332 221.174 99.9578L220.297 97.3414C220.025 96.6058 219.588 95.9388 219.02 95.3889C218.458 94.8327 217.777 94.4059 217.026 94.1393L214.336 93.2803C213.951 93.1474 213.617 92.9021 213.379 92.5774C213.139 92.2532 213.007 91.8647 213 91.4644C213.007 91.0618 213.141 90.6712 213.384 90.3461C213.627 90.0211 213.966 89.7774 214.355 89.6486L217.026 88.7895C217.775 88.5178 218.454 88.091 219.018 87.5384C219.582 86.9857 220.018 86.3203 220.295 85.5875L221.192 83.0102C221.312 82.6408 221.541 82.3145 221.85 82.073C222.174 81.8317 222.565 81.693 222.971 81.6755C223.377 81.6581 223.779 81.7627 224.123 81.9754C224.463 82.2058 224.727 82.5318 224.88 82.9126L225.777 85.5875C226.054 86.3203 226.49 86.9857 227.054 87.5384C227.619 88.091 228.298 88.5178 229.046 88.7895L231.717 89.7072C232.098 89.8262 232.428 90.0668 232.654 90.3906C232.907 90.6954 233.054 91.0718 233.072 91.4644M252.748 77.9337C252.746 78.3701 252.605 78.795 252.344 79.1486C252.083 79.5023 251.716 79.7671 251.293 79.9057L247.546 81.1163C246.369 81.5016 245.301 82.1506 244.425 83.0115C243.55 83.8725 242.891 84.9216 242.503 86.0756L241.207 89.7267C241.058 90.1341 240.787 90.488 240.43 90.742C240.159 90.9332 239.845 91.0588 239.515 91.1084C239.185 91.1579 238.847 91.1302 238.53 91.0273C238.213 90.9244 237.926 90.7493 237.691 90.5165C237.456 90.2836 237.281 89.9996 237.181 89.6877L235.925 86.017C235.52 84.8596 234.836 83.8148 233.932 82.9711C233.057 82.0917 231.986 81.4233 230.802 81.0186L227.055 79.7886C226.63 79.6577 226.26 79.3979 225.996 79.0466C225.738 78.69 225.599 78.2636 225.599 77.8263C225.599 77.3891 225.738 76.9626 225.996 76.606C226.261 76.2445 226.639 75.9772 227.073 75.8446L230.8 74.6145C232 74.2193 233.086 73.55 233.969 72.662C234.866 71.7971 235.55 70.7408 235.963 69.5771L237.199 65.965C237.315 65.5523 237.568 65.1887 237.916 64.9302C238.267 64.6546 238.702 64.5032 239.152 64.5006C239.597 64.4901 240.035 64.6127 240.408 64.8521C240.786 65.0848 241.074 65.4355 241.225 65.8478L242.481 69.5771C242.893 70.7408 243.577 71.7971 244.474 72.662C245.352 73.5474 246.431 74.2165 247.623 74.6145L251.351 75.9031C251.771 76.0317 252.135 76.2926 252.387 76.6451C252.647 77.0239 252.776 77.4749 252.748 77.9337Z" stroke="#000C47" stroke-width="2.25" />
		<path d="M106.249 35.7405C106.247 36.1056 106.132 36.4611 105.921 36.757C105.709 37.053 105.411 37.2745 105.068 37.3905L102.028 38.4034C101.073 38.7259 100.206 39.2689 99.496 39.9892C98.7857 40.7096 98.2516 41.5875 97.9362 42.553L96.885 45.6081C96.7643 45.949 96.5444 46.2451 96.2543 46.4576C96.0344 46.6176 95.7801 46.7227 95.5122 46.7641C95.2443 46.8056 94.9706 46.7824 94.7133 46.6963C94.4561 46.6102 94.2227 46.4637 94.0324 46.2689C93.842 46.074 93.7001 45.8364 93.6182 45.5754L92.5994 42.504C92.2708 41.5356 91.7161 40.6614 90.9822 39.9554C90.2725 39.2196 89.4034 38.6603 88.4432 38.3217L85.4029 37.2925C85.0586 37.183 84.7578 36.9656 84.5441 36.6717C84.3345 36.3733 84.222 36.0165 84.222 35.6506C84.222 35.2847 84.3345 34.9279 84.5441 34.6295C84.7591 34.327 85.0656 34.1034 85.4174 33.9924L88.4416 32.9632C89.4149 32.6325 90.2963 32.0725 91.0129 31.3294C91.7407 30.6057 92.2954 29.7219 92.6301 28.7482L93.6328 25.7258C93.7276 25.3805 93.9322 25.0762 94.215 24.8599C94.4995 24.6293 94.8529 24.5027 95.2176 24.5005C95.5789 24.4917 95.9343 24.5943 96.2365 24.7946C96.5437 24.9893 96.7773 25.2828 96.8995 25.6278L97.9184 28.7482C98.2531 29.7219 98.8078 30.6057 99.5356 31.3294C100.248 32.0703 101.123 32.6302 102.091 32.9632L105.115 34.0414C105.455 34.149 105.751 34.3673 105.956 34.6622C106.166 34.9792 106.271 35.3565 106.249 35.7405ZM90.2868 47.0621C90.286 47.3952 90.1845 47.7201 89.9957 47.9933C89.8003 48.2589 89.5296 48.4583 89.2195 48.5651L87.0362 49.3003C86.4246 49.5181 85.8711 49.876 85.419 50.3458C84.9583 50.8061 84.6048 51.3642 84.384 51.9796L83.6239 54.1687C83.5183 54.482 83.3209 54.7555 83.0579 54.9529C82.7856 55.1463 82.4609 55.25 82.128 55.25C81.7952 55.25 81.4705 55.1463 81.1982 54.9529C80.9352 54.7555 80.7378 54.482 80.6321 54.1687L79.9206 51.9796C79.6994 51.364 79.3452 50.8059 78.8839 50.3458C78.4283 49.8804 77.8759 49.5233 77.2667 49.3003L75.0835 48.5814C74.7713 48.4703 74.5003 48.265 74.3073 47.9933C74.1128 47.7221 74.0055 47.397 74 47.0621C74.0058 46.7252 74.1146 46.3984 74.3115 46.1264C74.5084 45.8544 74.7837 45.6505 75.0997 45.5427L77.2667 44.8239C77.8737 44.5965 78.4249 44.2394 78.8826 43.777C79.3404 43.3146 79.6939 42.7578 79.9189 42.1446L80.6467 39.9881C80.7436 39.679 80.9294 39.406 81.1804 39.2039C81.4427 39.002 81.76 38.886 82.0895 38.8714C82.419 38.8568 82.7451 38.9443 83.024 39.1222C83.3005 39.315 83.514 39.5879 83.6385 39.9064L84.3662 42.1446C84.5913 42.7578 84.9448 43.3146 85.4026 43.777C85.8603 44.2394 86.4115 44.5965 87.0184 44.8239L89.1855 45.5917C89.4949 45.6913 89.7625 45.8926 89.9456 46.1635C90.1511 46.4186 90.2701 46.7336 90.2852 47.0621" fill="#F1D801" />
		<path d="M90.2868 47.0621C90.286 47.3952 90.1845 47.7201 89.9957 47.9933C89.8003 48.2589 89.5296 48.4583 89.2195 48.5651L87.0362 49.3003C86.4246 49.5181 85.8711 49.876 85.419 50.3458C84.9583 50.8061 84.6048 51.3642 84.384 51.9796L83.6239 54.1687C83.5183 54.482 83.3209 54.7555 83.0579 54.9529C82.7856 55.1463 82.4609 55.25 82.128 55.25C81.7952 55.25 81.4705 55.1463 81.1982 54.9529C80.9352 54.7555 80.7378 54.482 80.6321 54.1687L79.9206 51.9796C79.6994 51.364 79.3452 50.8059 78.8839 50.3458C78.4283 49.8804 77.8759 49.5233 77.2667 49.3003L75.0835 48.5814C74.7713 48.4703 74.5003 48.265 74.3073 47.9933C74.1128 47.7221 74.0055 47.397 74 47.0621C74.0058 46.7252 74.1146 46.3984 74.3115 46.1264C74.5084 45.8544 74.7837 45.6505 75.0997 45.5427L77.2667 44.8239C77.8737 44.5965 78.4249 44.2394 78.8826 43.777C79.3404 43.3146 79.6939 42.7578 79.9189 42.1446L80.6467 39.9881C80.7436 39.679 80.9294 39.406 81.1804 39.2039C81.4427 39.002 81.76 38.886 82.0895 38.8714C82.419 38.8568 82.7451 38.9443 83.024 39.1222C83.3005 39.315 83.514 39.5879 83.6385 39.9064L84.3662 42.1446C84.5913 42.7578 84.9448 43.3146 85.4026 43.777C85.8603 44.2394 86.4115 44.5965 87.0184 44.8239L89.1855 45.5917C89.4949 45.6913 89.7625 45.8926 89.9456 46.1635C90.1511 46.4186 90.2701 46.7336 90.2852 47.0621M106.249 35.7405C106.247 36.1056 106.132 36.4611 105.921 36.757C105.709 37.053 105.411 37.2745 105.068 37.3905L102.028 38.4034C101.073 38.7259 100.206 39.2689 99.496 39.9892C98.7857 40.7096 98.2516 41.5875 97.9362 42.553L96.885 45.6081C96.7643 45.949 96.5444 46.2451 96.2543 46.4576C96.0344 46.6176 95.7801 46.7227 95.5122 46.7641C95.2443 46.8056 94.9706 46.7824 94.7133 46.6963C94.4561 46.6102 94.2227 46.4637 94.0324 46.2689C93.842 46.074 93.7001 45.8364 93.6182 45.5754L92.5994 42.504C92.2708 41.5356 91.7161 40.6614 90.9822 39.9554C90.2725 39.2196 89.4034 38.6603 88.4432 38.3217L85.4029 37.2925C85.0586 37.183 84.7578 36.9656 84.5441 36.6717C84.3345 36.3733 84.222 36.0165 84.222 35.6506C84.222 35.2847 84.3345 34.9279 84.5441 34.6295C84.7591 34.327 85.0656 34.1034 85.4174 33.9924L88.4416 32.9632C89.4149 32.6325 90.2963 32.0725 91.0129 31.3294C91.7407 30.6057 92.2954 29.7219 92.6301 28.7482L93.6328 25.7258C93.7276 25.3805 93.9322 25.0762 94.215 24.8599C94.4995 24.6293 94.8529 24.5027 95.2176 24.5005C95.5789 24.4917 95.9343 24.5943 96.2365 24.7946C96.5437 24.9893 96.7773 25.2828 96.8995 25.6278L97.9184 28.7482C98.2531 29.7219 98.8078 30.6057 99.5356 31.3294C100.248 32.0703 101.123 32.6302 102.091 32.9632L105.115 34.0414C105.455 34.149 105.751 34.3673 105.956 34.6622C106.166 34.9792 106.271 35.3565 106.249 35.7405Z" stroke="#000C47" stroke-width="2.25" />
		<path d="M119.195 76.37C119.366 73.7569 121.465 71.6851 124.08 71.5466L171.779 69.0203C174.361 68.8835 176.648 70.6754 177.132 73.2154L185.307 116.124C185.643 117.887 185.034 119.686 183.529 120.665C179.269 123.437 168.951 128.709 151.036 129.658C133.038 130.611 122.668 126.392 118.423 124.079C116.94 123.271 116.216 121.648 116.327 119.963L119.195 76.37Z" fill="#000C47" />
		<path d="M147.666 47.5572C175.704 46.0723 198.842 52.5733 199.345 62.0777C199.849 71.5821 177.527 80.4908 149.489 81.9758C121.451 83.4608 98.3133 76.9598 97.8099 67.4554C97.3066 57.9509 119.628 49.0422 147.666 47.5572ZM148.145 56.5924C131.037 57.4985 117.331 61.3152 117.532 65.117C117.735 68.9185 131.767 71.2653 148.874 70.3593C165.981 69.4532 179.687 65.6373 179.486 61.8357C179.285 58.0339 165.253 55.6863 148.145 56.5924Z" fill="#000C47" />
		<path fill-rule="evenodd" clip-rule="evenodd" d="M176.561 85.5854C176.645 86.0287 176.373 86.462 175.936 86.5749C168.557 88.4817 159.582 89.8438 149.862 90.3586C139.47 90.909 129.822 90.4064 121.992 89.1084C121.559 89.0368 121.254 88.6491 121.278 88.2117C121.393 86.1723 121.487 84.129 121.632 82.0916C121.667 81.5911 122.122 81.2306 122.618 81.3006C129.295 82.2424 138.849 82.5491 149.419 81.9892C159.142 81.4742 167.932 80.3211 174.369 78.8618C174.848 78.753 175.323 79.0616 175.415 79.5449L176.561 85.5854Z" fill="white" />
		<ellipse cx="148.084" cy="63.6015" rx="35.7594" ry="8.18589" transform="rotate(-3.03177 148.084 63.6015)" fill="#B980FF" />
		<ellipse opacity="0.2" cx="148.174" cy="63.5529" rx="30" ry="7" transform="rotate(-3.03177 148.174 63.5529)" fill="#110047" />
		<ellipse opacity="0.2" cx="148.174" cy="63.5531" rx="21.5" ry="5" transform="rotate(-3.03177 148.174 63.5531)" fill="#110047" />
		<ellipse opacity="0.2" cx="148.173" cy="63.5532" rx="12.5" ry="2.5" transform="rotate(-3.03177 148.173 63.5532)" fill="#110047" />
	</g>
	<path d="M268.965 113.833C268.965 113.837 268.966 113.84 268.968 113.843C268.97 113.846 268.973 113.848 268.976 113.85L269.007 113.86C269.016 113.863 269.025 113.868 269.032 113.876C269.039 113.883 269.045 113.892 269.048 113.901L269.058 113.932C269.059 113.935 269.062 113.938 269.065 113.94C269.067 113.942 269.069 113.943 269.072 113.943C269.075 113.944 269.077 113.944 269.08 113.943C269.083 113.942 269.085 113.94 269.087 113.938C269.089 113.936 269.09 113.934 269.091 113.931L269.101 113.901C269.104 113.891 269.11 113.882 269.117 113.875C269.124 113.868 269.133 113.862 269.143 113.859L269.173 113.849C269.177 113.848 269.18 113.845 269.182 113.842C269.184 113.839 269.185 113.836 269.185 113.832C269.185 113.829 269.184 113.825 269.182 113.822C269.18 113.819 269.176 113.817 269.173 113.816L269.143 113.805C269.133 113.802 269.124 113.796 269.117 113.789C269.11 113.782 269.104 113.773 269.101 113.763L269.091 113.733C269.09 113.73 269.088 113.726 269.085 113.724C269.082 113.722 269.079 113.721 269.075 113.721C269.071 113.721 269.068 113.722 269.065 113.724C269.062 113.726 269.059 113.729 269.058 113.732L269.048 113.763C269.045 113.773 269.039 113.782 269.032 113.789C269.025 113.796 269.016 113.802 269.006 113.805L268.976 113.816C268.973 113.817 268.97 113.819 268.968 113.822C268.965 113.825 268.964 113.829 268.965 113.833ZM269.124 113.946C269.124 113.95 269.125 113.953 269.127 113.956C269.129 113.958 269.132 113.96 269.135 113.961L269.157 113.969C269.163 113.971 269.168 113.974 269.173 113.979C269.178 113.984 269.181 113.989 269.183 113.995L269.191 114.017C269.192 114.021 269.194 114.023 269.197 114.025C269.199 114.027 269.203 114.028 269.206 114.028C269.209 114.028 269.212 114.027 269.215 114.025C269.218 114.023 269.22 114.021 269.221 114.017L269.228 113.995C269.23 113.989 269.234 113.984 269.238 113.979C269.243 113.975 269.248 113.971 269.254 113.969L269.276 113.962C269.279 113.96 269.282 113.958 269.284 113.956C269.286 113.953 269.287 113.95 269.287 113.946C269.287 113.943 269.286 113.94 269.284 113.937C269.282 113.934 269.279 113.932 269.276 113.931L269.254 113.924C269.248 113.922 269.243 113.918 269.238 113.913C269.234 113.909 269.23 113.903 269.228 113.897L269.221 113.876C269.22 113.872 269.218 113.87 269.215 113.868C269.213 113.866 269.21 113.865 269.206 113.864C269.203 113.864 269.2 113.865 269.197 113.867C269.194 113.869 269.192 113.872 269.191 113.875L269.183 113.897C269.181 113.903 269.178 113.909 269.173 113.913C269.169 113.918 269.163 113.922 269.157 113.924L269.135 113.932C269.132 113.933 269.129 113.935 269.128 113.937C269.126 113.94 269.124 113.943 269.124 113.946" fill="#F1D801" />
	<path d="M269.124 113.946C269.124 113.95 269.125 113.953 269.127 113.956C269.129 113.958 269.132 113.96 269.135 113.961L269.157 113.969C269.163 113.971 269.168 113.974 269.173 113.979C269.178 113.984 269.181 113.989 269.183 113.995L269.191 114.017C269.192 114.021 269.194 114.023 269.197 114.025C269.199 114.027 269.203 114.028 269.206 114.028C269.209 114.028 269.212 114.027 269.215 114.025C269.218 114.023 269.22 114.021 269.221 114.017L269.228 113.995C269.23 113.989 269.234 113.984 269.238 113.979C269.243 113.975 269.248 113.971 269.254 113.969L269.276 113.962C269.279 113.96 269.282 113.958 269.284 113.956C269.286 113.953 269.287 113.95 269.287 113.946C269.287 113.943 269.286 113.94 269.284 113.937C269.282 113.934 269.279 113.932 269.276 113.931L269.254 113.924C269.248 113.922 269.243 113.918 269.238 113.913C269.234 113.909 269.23 113.903 269.228 113.897L269.221 113.876C269.22 113.872 269.218 113.87 269.215 113.868C269.213 113.866 269.21 113.865 269.206 113.864C269.203 113.864 269.2 113.865 269.197 113.867C269.194 113.869 269.192 113.872 269.191 113.875L269.183 113.897C269.181 113.903 269.178 113.909 269.173 113.913C269.169 113.918 269.163 113.922 269.157 113.924L269.135 113.932C269.132 113.933 269.129 113.935 269.128 113.937C269.126 113.94 269.124 113.943 269.124 113.946M268.965 113.833C268.965 113.837 268.966 113.84 268.968 113.843C268.97 113.846 268.973 113.848 268.976 113.85L269.007 113.86C269.016 113.863 269.025 113.868 269.032 113.876C269.039 113.883 269.045 113.892 269.048 113.901L269.058 113.932C269.059 113.935 269.062 113.938 269.065 113.94C269.067 113.942 269.069 113.943 269.072 113.943C269.075 113.944 269.077 113.944 269.08 113.943C269.083 113.942 269.085 113.94 269.087 113.938C269.089 113.936 269.09 113.934 269.091 113.931L269.101 113.901C269.104 113.891 269.11 113.882 269.117 113.875C269.124 113.868 269.133 113.862 269.143 113.859L269.173 113.849C269.177 113.848 269.18 113.845 269.182 113.842C269.184 113.839 269.185 113.836 269.185 113.832C269.185 113.829 269.184 113.825 269.182 113.822C269.18 113.819 269.176 113.817 269.173 113.816L269.143 113.805C269.133 113.802 269.124 113.796 269.117 113.789C269.11 113.782 269.104 113.773 269.101 113.763L269.091 113.733C269.09 113.73 269.088 113.726 269.085 113.724C269.082 113.722 269.079 113.721 269.075 113.721C269.071 113.721 269.068 113.722 269.065 113.724C269.062 113.726 269.059 113.729 269.058 113.732L269.048 113.763C269.045 113.773 269.039 113.782 269.032 113.789C269.025 113.796 269.016 113.802 269.006 113.805L268.976 113.816C268.973 113.817 268.97 113.819 268.968 113.822C268.965 113.825 268.964 113.829 268.965 113.833Z" stroke="#000C47" stroke-width="0.0225" />
	<path d="M41.4995 128.305C41.5089 128.724 41.3855 129.136 41.1483 129.476C40.9141 129.823 40.5762 130.079 40.1871 130.206L37.0264 131.3C36.0528 131.636 35.1672 132.201 34.4387 132.951C33.711 133.704 33.1661 134.625 32.849 135.64L31.74 138.904C31.6245 139.296 31.3913 139.639 31.0746 139.883C30.7366 140.122 30.3372 140.249 29.9286 140.248C29.5185 140.266 29.1143 140.142 28.7796 139.895C28.4449 139.649 28.1989 139.293 28.0802 138.885L27.0266 135.601C26.7096 134.587 26.1647 133.665 25.437 132.913C24.7025 132.166 23.8191 131.596 22.8493 131.242L19.6885 130.167C19.3143 130.031 18.9867 129.784 18.7458 129.457C18.5032 129.11 18.3678 128.695 18.3577 128.266C18.3401 127.84 18.4596 127.42 18.6972 127.073C18.9348 126.725 19.2771 126.469 19.67 126.346L22.8493 125.251C23.8352 124.92 24.7314 124.351 25.4641 123.59C26.1968 122.829 26.745 121.898 27.0636 120.873L28.1172 117.628C28.2249 117.229 28.4542 116.877 28.7707 116.624C29.0872 116.371 29.474 116.232 29.8731 116.226C30.2705 116.226 30.6606 116.34 31.0007 116.553C31.3371 116.793 31.5958 117.135 31.74 117.532L32.8121 120.873C33.1307 121.898 33.6789 122.829 34.4116 123.59C35.1442 124.351 36.0404 124.92 37.0264 125.251L40.1687 126.404C40.5509 126.534 40.8819 126.79 41.1113 127.133C41.3617 127.468 41.4982 127.88 41.4995 128.305ZM23.0175 116.092C23.0146 116.469 22.9054 116.836 22.7032 117.148C22.4848 117.457 22.1822 117.691 21.8345 117.82L19.5055 118.627C18.853 118.861 18.2616 119.241 17.768 119.74C17.2856 120.252 16.9193 120.868 16.696 121.545L15.9012 123.927C15.7885 124.294 15.5608 124.612 15.2542 124.829C14.9504 125.049 14.5897 125.17 14.2191 125.175C13.8402 125.168 13.4724 125.041 13.1655 124.81C12.8748 124.58 12.6561 124.266 12.5371 123.907L11.7793 121.507C11.5569 120.835 11.1903 120.224 10.7072 119.721C10.2338 119.205 9.64246 118.822 8.98819 118.608L6.6777 117.801C6.31919 117.684 6.00754 117.448 5.79048 117.129C5.64335 116.89 5.54917 116.619 5.51473 116.338C5.48028 116.056 5.50644 115.77 5.5913 115.5C5.67616 115.23 5.81762 114.983 6.00549 114.776C6.19335 114.57 6.42294 114.409 6.6777 114.306L8.98819 113.519C9.64196 113.282 10.2358 112.895 10.7254 112.386C11.2151 111.877 11.588 111.26 11.8162 110.581L12.5741 108.219C12.683 107.865 12.8885 107.552 13.1655 107.317C13.46 107.086 13.814 106.953 14.1822 106.933C14.5552 106.922 14.9225 107.029 15.2357 107.24C15.5441 107.456 15.7824 107.764 15.9196 108.123L16.696 110.581C16.9242 111.26 17.2971 111.877 17.7868 112.386C18.2764 112.895 18.8702 113.282 19.524 113.519L21.8345 114.345C22.1801 114.468 22.4782 114.704 22.6848 115.017C22.9035 115.329 23.0201 115.706 23.0175 116.092ZM33.7178 105.8C33.7011 106.15 33.5924 106.489 33.4036 106.779C33.2112 107.053 32.939 107.255 32.6272 107.355L31.4812 107.758C31.2586 107.838 31.0564 107.97 30.8899 108.143C30.7234 108.316 30.5969 108.526 30.5201 108.757L30.1134 109.967C30.0018 110.261 29.8168 110.52 29.5774 110.716C29.3049 110.942 28.9654 111.064 28.6162 111.061C28.2967 111.041 27.9864 110.942 27.7105 110.773C27.4342 110.562 27.2276 110.267 27.119 109.928L26.7309 108.738C26.6641 108.502 26.5362 108.289 26.3612 108.123C26.1983 107.946 25.9948 107.814 25.7697 107.739L24.6237 107.355C24.3188 107.232 24.0509 107.026 23.8474 106.76C23.6556 106.472 23.5525 106.131 23.5516 105.781C23.5624 105.429 23.6716 105.089 23.8659 104.801C24.065 104.535 24.3348 104.334 24.6422 104.225L25.7697 103.841C25.9974 103.76 26.2055 103.629 26.3797 103.457C26.5456 103.276 26.6717 103.06 26.7494 102.823L27.1375 101.633C27.2484 101.335 27.424 101.072 27.6551 100.865C27.9203 100.662 28.233 100.536 28.5608 100.5C28.9096 100.498 29.251 100.605 29.5404 100.807C29.801 101.011 30.005 101.283 30.1319 101.595L30.5201 102.823C30.5977 103.06 30.7239 103.276 30.8898 103.457C31.0617 103.623 31.2624 103.753 31.4812 103.841L32.6457 104.244C32.9419 104.365 33.2029 104.564 33.4036 104.82C33.6052 105.104 33.7152 105.447 33.7178 105.8Z" fill="#B980FF" stroke="#000C47" stroke-width="2.25" />
	<path d="M229.127 33.3672L213.002 41.6172L216.001 46.1201L229.501 38.9951L229.127 33.3672Z" fill="white" />
	<rect x="212.051" y="41.7971" width="66" height="6" rx="3" transform="rotate(-30 212.051 41.7971)" stroke="#000C47" stroke-width="3" />
	<path d="M223.641 33.373L265.859 8.99805C268.012 7.75541 270.764 8.49284 272.006 10.6452C273.249 12.7975 272.512 15.5496 270.359 16.7923L228.141 41.1673L223.641 33.373Z" fill="#000C47" />
	<path d="M5.48087 45.544C0.118445 32.1843 4.92678 16.4592 18.0457 10.5322C19.0537 10.0768 20.0382 9.65358 20.9841 9.27394C21.9299 8.8943 22.9338 8.51933 23.9769 8.15147C37.553 3.36341 51.8991 11.4001 57.2615 24.7598C62.6346 38.1461 57.7944 53.9014 44.6428 59.8257C43.6564 60.27 42.6933 60.6832 41.7682 61.0546C40.8432 61.4259 39.8616 61.7932 38.8417 62.1542C25.2439 66.9668 10.854 58.9302 5.48087 45.544Z" fill="#000C47" />
	<path d="M21.9909 7.05752C22.6856 6.77867 23.4147 6.50241 24.1698 6.22817L24.9333 5.95433C37.7637 1.42928 51.4773 8.995 56.6357 21.8465C61.7235 34.5219 57.242 49.2332 45.2435 55.0311L44.6667 55.3005C43.6932 55.739 42.7461 56.145 41.8401 56.5087C41.387 56.6906 40.919 56.872 40.4387 57.0523L38.9625 57.5901C26.1098 62.139 12.353 54.5723 7.1845 41.6957C2.1066 29.0448 6.55983 14.3634 18.5267 8.56482L19.1014 8.2952C20.0961 7.8458 21.0645 7.42938 21.9909 7.05752Z" fill="white" stroke="#000C47" stroke-width="2.51071" />
	<ellipse cx="30.7878" cy="27.9947" rx="7.83608" ry="9.53957" transform="rotate(-20.5694 30.7878 27.9947)" fill="white" />
	<path fill-rule="evenodd" clip-rule="evenodd" d="M46.0074 39.9489C44.3153 37.0617 43.7761 34.5075 43.6183 33.4974L42.6128 25.1515C41.8447 18.7759 36.0278 14.2336 29.6209 15.0056C23.2132 15.7776 18.6415 21.5715 19.4096 27.9471L20.4297 36.4136C20.5117 37.5109 20.5528 40.045 19.6317 43.1267C18.3936 47.2677 19.7541 46.628 20.9844 46.1514C22.2146 45.6761 24.8965 44.0709 25.9695 45.521C27.042 46.9704 27.9432 48.2329 29.9033 47.1028C31.8635 45.973 32.8018 45.5622 33.0969 45.5266L33.4982 45.4783C33.7929 45.4428 34.8023 45.6189 36.9746 46.2508C39.147 46.8831 39.7221 45.4427 40.4203 43.7799C41.1177 42.1165 44.104 43.0389 45.4123 43.2083C46.7205 43.3791 48.1934 43.6774 46.0074 39.9489ZM26.7979 21.7313C28.0475 21.5807 29.2527 23.0536 29.4898 25.0217C29.7269 26.9896 28.9061 28.7071 27.6565 28.8577C26.4069 29.0082 25.2015 27.5348 24.9644 25.5669C24.7273 23.5988 25.5483 21.8818 26.7979 21.7313ZM32.0952 35.5427C29.3415 35.8745 26.6987 33.4573 25.6387 30.541C27.2101 32.2239 29.4353 33.159 31.774 32.8773C34.1125 32.5955 36.0518 31.1587 37.1787 29.1507C36.8417 32.2352 34.8482 35.211 32.0952 35.5427ZM34.8209 27.9904C33.5705 28.1411 32.3656 26.6676 32.1285 24.6997C31.8914 22.7316 32.7119 21.0147 33.9623 20.8641C35.2126 20.7134 36.4171 22.1864 36.6542 24.1545C36.8913 26.1224 36.0712 27.8398 34.8209 27.9904Z" fill="#00AEF0" />
	<path d="M67.6803 91.4538C67.6804 91.458 67.6792 91.4621 67.6768 91.4655C67.6745 91.469 67.6711 91.4716 67.6672 91.4728L67.6356 91.4838C67.6258 91.4871 67.617 91.4928 67.6097 91.5003C67.6024 91.5078 67.597 91.517 67.5938 91.5272L67.5827 91.5598C67.5816 91.5637 67.5792 91.5672 67.5761 91.5696C67.5727 91.572 67.5687 91.5733 67.5646 91.5733C67.5605 91.5734 67.5565 91.5722 67.5531 91.5697C67.5498 91.5673 67.5473 91.5637 67.5461 91.5596L67.5356 91.5268C67.5324 91.5167 67.527 91.5074 67.5197 91.4999C67.5123 91.4924 67.5035 91.4867 67.4938 91.4832L67.4622 91.4725C67.4585 91.4711 67.4552 91.4686 67.4528 91.4653C67.4503 91.4619 67.449 91.4577 67.4489 91.4534C67.4487 91.4492 67.4499 91.445 67.4523 91.4415C67.4547 91.438 67.4581 91.4355 67.462 91.4342L67.4938 91.4233C67.5037 91.42 67.5126 91.4143 67.52 91.4067C67.5273 91.3991 67.5328 91.3898 67.5359 91.3795L67.5465 91.3471C67.5476 91.3431 67.5499 91.3395 67.553 91.337C67.5562 91.3345 67.5601 91.3331 67.564 91.333C67.568 91.333 67.5719 91.3342 67.5753 91.3363C67.5787 91.3387 67.5813 91.3421 67.5827 91.3461L67.5934 91.3795C67.5966 91.3898 67.6021 91.3991 67.6094 91.4067C67.6168 91.4143 67.6257 91.42 67.6356 91.4233L67.667 91.4348C67.6708 91.4361 67.6741 91.4387 67.6764 91.4421C67.6789 91.4455 67.6803 91.4496 67.6803 91.4538ZM67.4955 91.3317C67.4955 91.3355 67.4944 91.3391 67.4923 91.3423C67.4902 91.3454 67.4871 91.3477 67.4837 91.349L67.4604 91.357C67.4538 91.3594 67.4479 91.3632 67.443 91.3682C67.4382 91.3733 67.4345 91.3795 67.4323 91.3862L67.4243 91.41C67.4232 91.4137 67.4209 91.4169 67.4179 91.4191C67.4148 91.4213 67.4112 91.4225 67.4075 91.4225C67.4037 91.4225 67.4 91.4212 67.397 91.4189C67.3941 91.4166 67.3919 91.4134 67.3907 91.4099L67.3831 91.3859C67.3809 91.3791 67.3772 91.373 67.3724 91.368C67.3677 91.3628 67.3617 91.359 67.3552 91.3569L67.3321 91.3488C67.3285 91.3476 67.3254 91.3453 67.3232 91.3421C67.3217 91.3397 67.3208 91.337 67.3205 91.3342C67.3201 91.3313 67.3204 91.3285 67.3212 91.3258C67.3221 91.3231 67.3235 91.3206 67.3254 91.3185C67.3272 91.3165 67.3295 91.3149 67.3321 91.3138L67.3552 91.306C67.3617 91.3036 67.3677 91.2997 67.3726 91.2946C67.3775 91.2896 67.3812 91.2834 67.3835 91.2766L67.3911 91.253C67.3921 91.2494 67.3942 91.2463 67.397 91.2439C67.3999 91.2416 67.4035 91.2403 67.4071 91.2401C67.4109 91.24 67.4145 91.2411 67.4177 91.2432C67.4208 91.2453 67.4231 91.2484 67.4245 91.252L67.4323 91.2766C67.4346 91.2834 67.4383 91.2896 67.4432 91.2946C67.4481 91.2997 67.454 91.3036 67.4606 91.306L67.4837 91.3142C67.4871 91.3155 67.4901 91.3178 67.4922 91.3209C67.4943 91.3241 67.4955 91.3278 67.4955 91.3317ZM67.6025 91.2288C67.6023 91.2323 67.6012 91.2357 67.5993 91.2386C67.5974 91.2413 67.5947 91.2433 67.5916 91.2443L67.5801 91.2484C67.5779 91.2492 67.5759 91.2505 67.5742 91.2522C67.5725 91.2539 67.5713 91.256 67.5705 91.2584L67.5664 91.2704C67.5653 91.2734 67.5635 91.276 67.5611 91.2779C67.5584 91.2802 67.555 91.2814 67.5515 91.2814C67.5483 91.2812 67.5452 91.2802 67.5424 91.2785C67.5397 91.2764 67.5376 91.2734 67.5365 91.2701L67.5326 91.2582C67.532 91.2558 67.5307 91.2537 67.5289 91.252C67.5273 91.2502 67.5253 91.2489 67.523 91.2482L67.5115 91.2443C67.5085 91.2431 67.5058 91.241 67.5038 91.2384C67.5019 91.2355 67.5008 91.2321 67.5008 91.2286C67.5009 91.2251 67.502 91.2217 67.504 91.2188C67.506 91.2161 67.5087 91.2141 67.5117 91.213L67.523 91.2092C67.5253 91.2084 67.5274 91.2071 67.5291 91.2054C67.5308 91.2035 67.532 91.2014 67.5328 91.199L67.5367 91.1871C67.5378 91.1841 67.5396 91.1815 67.5419 91.1794C67.5445 91.1774 67.5476 91.1761 67.5509 91.1758C67.5544 91.1758 67.5578 91.1768 67.5607 91.1789C67.5633 91.1809 67.5654 91.1836 67.5666 91.1867L67.5705 91.199C67.5713 91.2014 67.5726 91.2035 67.5742 91.2054C67.5759 91.207 67.5779 91.2083 67.5801 91.2092L67.5918 91.2132C67.5947 91.2144 67.5973 91.2164 67.5993 91.219C67.6014 91.2218 67.6025 91.2253 67.6025 91.2288Z" fill="#FF375B" stroke="#000C47" stroke-width="0.0225" />
	<defs>
		<clipPath id="clip0_2659_7479">
			<rect width="300" height="144" rx="72" fill="white" />
		</clipPath>
	</defs>
</svg>
