<svg xmlns="http://www.w3.org/2000/svg" width="156" height="141">
	<g fill="none" fill-rule="evenodd">
		<ellipse cx="65.433" cy="65.399" fill="#DAF4FF" rx="65.433" ry="65.399" transform="translate(12.133)"/>
		<path fill="#930194" d="M12.715 28.146c.994-.18 1.653-.73 1.608-1.837-.045-1.137-.78-1.652-1.828-1.612-1.008.05-1.626.712-1.59 1.715.036 1.062.676 1.662 1.81 1.734m-.059 3.525c-3.019.013-5.321-2.235-5.343-5.21-.018-2.978 2.28-5.32 5.24-5.347a5.264 5.264 0 0 1 5.322 5.263c.018 3.05-2.182 5.28-5.219 5.294"/>
		<path fill="#CD5ACF" d="M132.965 110.165c.994-.18 1.653-.73 1.608-1.836-.045-1.138-.78-1.653-1.828-1.613-1.008.05-1.626.712-1.59 1.716.036 1.061.676 1.661 1.81 1.733m-.059 3.525c-3.019.013-5.321-2.235-5.343-5.21-.018-2.978 2.28-5.32 5.24-5.347a5.264 5.264 0 0 1 5.322 5.263c.018 3.05-2.182 5.28-5.219 5.294"/>
		<path fill="#00AEF0" d="M31.975 29.794c-1.273-.102-2.75-.009-2.725-1.791.03-1.677 1.439-1.618 2.695-1.703.208-1.22-.046-2.843 1.88-2.746 1.687.089 1.565 1.496 1.666 2.725 1.26.152 2.835-.034 2.687 1.914-.123 1.622-1.447 1.504-2.666 1.571-.177 1.217.043 2.784-1.883 2.717-1.772-.064-1.472-1.542-1.654-2.687m71.639-23.708c-.58-.046-1.25-.003-1.239-.814.014-.762.654-.735 1.225-.774.094-.555-.02-1.292.854-1.248.767.04.712.68.758 1.239.573.069 1.288-.016 1.221.87-.056.737-.658.683-1.212.714-.08.553.02 1.265-.855 1.235-.806-.03-.67-.701-.752-1.222m14.583 81.274c.806.906 1.858 1.752.739 3.053-.751.876-1.561.695-3.147-.62-1.587 1.302-2.396 1.475-3.156.611-1.136-1.292-.05-2.143.734-3.065-.784-.96-1.953-1.911-.672-3.166 1.203-1.175 2.133-.152 3.048.712.96-.741 1.899-1.95 3.143-.695 1.273 1.284.042 2.206-.689 3.17"/>
		<path fill="#00AEF0" stroke="#4A4A4A" stroke-width=".864" d="M93.87 100.088c-1.045-.008-2.036-1.016-2.027-2.053.008-1.063.982-2.011 2.048-2.007 1.083.004 2.023.957 2.014 2.032-.008 1.067-.986 2.037-2.035 2.028zM45.902 36.543c-1.045-.008-2.035-1.016-2.027-2.053.009-1.063.982-2.011 2.048-2.007 1.083.004 2.023.957 2.014 2.032-.008 1.067-.986 2.037-2.035 2.028z"/>
		<path fill="#00AEF0" d="M2.134 56.84c1.153-.032 2.154.915 2.185 2.063.032 1.13-.943 2.157-2.078 2.193-1.099.036-2.172-.983-2.207-2.09-.032-1.121.952-2.135 2.1-2.167"/>
		<path fill="#4A4A4A" d="M84.583 2.386c0 1.202-.925 2.1-2.145 2.082-1.14-.018-2.043-.89-2.083-2.015-.044-1.174.898-2.143 2.092-2.157 1.215-.018 2.136.884 2.136 2.09"/>
		<path fill="#80D8ED" d="M153.943 41.415c-1.068-.017-2.026-1.008-2.005-2.077.021-1.103.954-2 2.069-1.983 1.11.013 2.014.94 1.993 2.048-.017 1.099-.967 2.03-2.057 2.012"/>
		<path fill="#9ECC42" d="M101.97 112.066c-1.111.004-1.973-.81-2.029-1.92-.065-1.169.78-2.1 1.934-2.14 1.176-.042 2.094.81 2.124 1.972a2.04 2.04 0 0 1-2.029 2.088z"/>
		<path fill="#FFF" d="M108.643 71.16l-8.406 8.516-2.682-8.516H87.452a6.912 6.912 0 0 1-6.912-6.912V35.92a6.912 6.912 0 0 1 6.912-6.912h39.234a6.912 6.912 0 0 1 6.912 6.912v28.328a6.912 6.912 0 0 1-6.912 6.912h-18.043zM86.43 126.666c-3.05-7.009-3.575-12.948-3.657-15.281v-19.2c0-14.666-11.955-26.555-26.702-26.555-14.748 0-26.704 11.89-26.704 26.556v19.476c-.114 2.51-.713 8.268-3.645 15.004-3.94 9.052-.68 7.973 2.242 7.228 2.92-.741 9.444-3.648 11.482-.067 2.037 3.58 3.737 6.688 8.492 4.661 4.756-2.026 6.997-2.701 7.677-2.701h.923c.678 0 2.92.675 7.676 2.701 4.756 2.027 6.454-1.082 8.493-4.661 2.037-3.581 8.56-.674 11.481.067 2.922.745 6.182 1.824 2.241-7.228"/>
		<path fill="#00AEF0" d="M90.783 126.666c-3.05-7.009-3.575-12.948-3.657-15.281v-19.2c0-14.666-11.955-26.555-26.701-26.555-14.749 0-26.704 11.89-26.704 26.556v19.476c-.114 2.51-.713 8.268-3.645 15.004-3.941 9.052-.68 7.973 2.241 7.228 2.921-.741 9.445-3.648 11.483-.067 2.037 3.58 3.736 6.688 8.492 4.661 4.756-2.026 6.997-2.701 7.676-2.701h.924c.678 0 2.92.675 7.675 2.701 4.756 2.027 6.455-1.082 8.493-4.661 2.037-3.581 8.56-.674 11.482.067 2.921.745 6.181 1.824 2.24-7.228"/>
		<path stroke="#4A4A4A" stroke-width="2.592" d="M87.197 126.666c-3.05-7.009-3.575-12.948-3.657-15.281v-19.2c0-14.666-11.955-26.555-26.702-26.555-14.748 0-26.703 11.89-26.703 26.556v19.476c-.114 2.51-.714 8.268-3.646 15.004-3.94 9.052-.68 7.973 2.242 7.228 2.921-.741 9.445-3.648 11.482-.067 2.037 3.58 3.737 6.688 8.493 4.661 4.756-2.026 6.997-2.701 7.676-2.701h.923c.679 0 2.92.675 7.676 2.701 4.756 2.027 6.455-1.082 8.493-4.661 2.037-3.581 8.56-.674 11.482.067 2.921.745 6.18 1.824 2.24-7.228"/>
		<path d="M48.296 76.655c2.895 0 5.242 3.634 5.242 8.117 0 4.483-2.347 8.118-5.242 8.118-2.894 0-5.242-3.635-5.242-8.118 0-4.483 2.348-8.117 5.242-8.117m8.126 32.148c-6.38 0-11.75-6.143-13.368-12.978 3.126 4.204 7.95 6.906 13.368 6.906 5.417 0 10.24-2.702 13.367-6.906-1.619 6.835-6.99 12.978-13.367 12.978m8.661-15.913c-2.897 0-5.243-3.635-5.243-8.118 0-4.483 2.346-8.117 5.243-8.117 2.897 0 5.242 3.634 5.242 8.117 0 4.483-2.345 8.118-5.242 8.118M100.619 78.341c-.115-.315-.17-.438-.204-.566-.779-2.726-1.552-5.45-2.328-8.176-.28-.993-.685-1.308-1.704-1.311-2.3 0-4.6.003-6.897-.003-.387 0-.785.009-1.166-.057-3.62-.621-6.017-3.464-6.02-7.14-.003-7.574-.003-15.146.006-22.72a7.834 7.834 0 0 1 .177-1.678c.768-3.349 3.503-5.507 7.014-5.51 11.3-.012 22.598-.006 33.895-.003.486.003.98.008 1.455.097 3.514.656 5.848 3.484 5.854 7.102.011 7.555-.02 15.11.011 22.664a7.141 7.141 0 0 1-7.26 7.27c-4.09-.094-8.183-.01-12.27-.03-.716-.006-1.258.22-1.753.738-2.77 2.903-5.56 5.782-8.338 8.676-.16.166-.275.373-.472.647m-5.007-7.156c.476 1.68.945 3.338 1.412 4.998.381 1.345.75 2.694 1.132 4.04.444 1.585 2.176 2.086 3.397.975.317-.289.601-.61.902-.919 2.795-2.902 5.6-5.802 8.386-8.713.263-.272.527-.39.91-.387 3.973.012 7.949.012 11.924.006a9.803 9.803 0 0 0 9.83-9.833c.003-7.692.003-15.384 0-23.076-.003-5.493-4.368-9.85-9.87-9.85-11.42-.003-22.839-.003-34.255 0-5.528 0-9.878 4.357-9.881 9.899-.003 7.654-.003 15.306 0 22.96.003 5.54 4.353 9.897 9.884 9.9 2.062.003 4.127 0 6.23 0" fill="#4A4A4A"/>
		<path fill="#930194" d="M106.6 47.064c-.645-1.667-2.453-2.887-4.333-2.887-2.45 0-4.334 1.86-4.334 4.33 0 3.397 3.653 6.024 8.667 11.069 5.014-5.045 8.667-7.672 8.667-11.068 0-2.472-1.885-4.331-4.334-4.331-1.882 0-3.688 1.22-4.333 2.887z"/>
	</g>
</svg>
