<svg xmlns="http://www.w3.org/2000/svg" xmlns:xlink="http://www.w3.org/1999/xlink" width="24" height="24" viewBox="0 0 24 24">
    <defs>
        <path id="o0o06k6tda" d="M23 11.1v.9c0 6.1-4.9 11-11 11S1 18.1 1 12 5.9 1 12 1c1.5 0 3.1.3 4.5 1 .5.2.7.8.5 1.3-.2.5-.8.7-1.3.5-1.2-.5-2.4-.8-3.7-.8-5 0-9 4-9 9s4 9 9 9 9-4 9-9v-.9c0-.6.4-1 1-1s1 .4 1 1zm.7-8.8c-.4-.4-1-.4-1.4 0L12 12.6l-2.3-2.3c-.4-.4-1-.4-1.4 0-.4.4-.4 1 0 1.4l3 3c.2.2.5.3.7.3.2 0 .5-.1.7-.3l11-11c.4-.4.4-1 0-1.4z"/>
    </defs>
    <g fill="none" fill-rule="evenodd">
        <g>
            <g transform="translate(-165 -71) translate(165 71)">
                <mask id="subc7yvwab" fill="#fff">
                    <use xlink:href="#o0o06k6tda"/>
                </mask>
                <use fill="#000" fill-rule="nonzero" xlink:href="#o0o06k6tda"/>
                <g fill="#417505" mask="url(#subc7yvwab)">
                    <path d="M0 0H24V24H0z"/>
                </g>
            </g>
        </g>
    </g>
</svg>
