<svg xmlns="http://www.w3.org/2000/svg" xmlns:xlink="http://www.w3.org/1999/xlink" width="24" height="24" viewBox="0 0 24 24">
    <defs>
        <path id="wy9qqssfxa" d="M3.5 22c-.5 0-1-.1-1.5-.4C.6 20.8.1 18.9.9 17.5L9.4 3.3c.2-.4.6-.8 1-1 .7-.4 1.5-.5 2.3-.3.8.2 1.4.7 1.9 1.4L23 17.5c.3.5.4 1 .4 1.5 0 .8-.3 1.6-.9 2.1-.5.6-1.2.9-2 .9h-17zm7.6-17.6L2.7 18.5c-.3.5-.1 1.1.4 1.4.1.1.3.1.4.1h16.9c.3 0 .5-.1.7-.3.2-.2.3-.4.3-.7 0-.2 0-.3-.1-.5L12.9 4.4c-.3-.5-.9-.6-1.4-.4-.2.1-.3.2-.4.4zM13 13V9c0-.6-.4-1-1-1s-1 .4-1 1v4c0 .6.4 1 1 1s1-.4 1-1zm-.3 4.7c.2-.2.3-.4.3-.7 0-.1 0-.3-.1-.4 0-.1-.1-.2-.2-.3 0 0-.1-.1-.2-.1s-.1-.1-.2-.1-.1 0-.2-.1c-.2 0-.4 0-.6.1-.1 0-.2.1-.3.2-.1.1-.2.2-.2.3 0 .1-.1.2-.1.4 0 .3.1.5.3.7.2.2.4.3.7.3.4 0 .6-.1.8-.3z"/>
    </defs>
    <g fill="none" fill-rule="evenodd">
        <g>
            <g transform="translate(-165 -71) translate(165 71)">
                <mask id="8dw5swpdwb" fill="#fff">
                    <use xlink:href="#wy9qqssfxa"/>
                </mask>
                <use fill="#000" fill-rule="nonzero" xlink:href="#wy9qqssfxa"/>
                <g fill="#9F4948" mask="url(#8dw5swpdwb)">
                    <path d="M0 0H24V24H0z"/>
                </g>
            </g>
        </g>
    </g>
</svg>
