<svg width="128" height="128" viewBox="0 0 128 128" fill="none" xmlns="http://www.w3.org/2000/svg">
<g clip-path="url(#clip0_524_27092)">
<rect width="128" height="128" rx="24" fill="#00AEF0"/>
<path fill-rule="evenodd" clip-rule="evenodd" d="M85.875 57.125C85.875 69.2062 76.0812 79 64 79C51.9188 79 42.125 69.2062 42.125 57.125C42.125 45.0438 51.9188 35.25 64 35.25C76.0812 35.25 85.875 45.0438 85.875 57.125Z" fill="#00AEF0"/>
<path fill-rule="evenodd" clip-rule="evenodd" d="M97.0207 90.4339C93.7031 82.805 93.1318 76.3408 93.0427 73.801V52.9039C93.0427 36.9402 80.0372 24 63.9949 24C47.9509 24 34.9449 36.9402 34.9449 52.9039V74.1031C34.821 76.8355 34.1691 83.1021 30.9794 90.4339C26.6923 100.286 30.2403 99.1117 33.4183 98.3013C36.5959 97.4941 43.6924 94.3297 45.9094 98.2277C48.1254 102.124 49.9742 105.508 55.1477 103.301C60.3216 101.096 62.7596 100.361 63.4983 100.361H64.5032C65.241 100.361 67.6799 101.096 72.8534 103.301C78.0269 105.508 79.8747 102.124 82.0922 98.2277C84.3082 94.3297 91.4043 97.4941 94.5828 98.3013C97.7608 99.1117 101.307 100.286 97.0207 90.4339ZM55.029 39.7578C58.1578 39.7578 60.6942 43.7513 60.6942 48.6791C60.6942 53.6065 58.1578 57.6013 55.029 57.6013C51.9002 57.6013 49.3633 53.6065 49.3633 48.6791C49.3633 43.7513 51.9002 39.7578 55.029 39.7578ZM63.9945 75.4206C57.0998 75.4206 51.2958 68.6689 49.5469 61.1562C52.9249 65.777 58.1387 68.7466 63.9945 68.7466C69.8499 68.7466 75.0632 65.777 78.4417 61.1562C76.6927 68.6689 70.8879 75.4206 63.9945 75.4206ZM72.9615 57.6013C69.8304 57.6013 67.2949 53.6065 67.2949 48.6791C67.2949 43.7513 69.8304 39.7578 72.9615 39.7578C76.0921 39.7578 78.6267 43.7513 78.6267 48.6791C78.6267 53.6065 76.0921 57.6013 72.9615 57.6013Z" fill="white"/>
</g>
<defs>
<clipPath id="clip0_524_27092">
<rect width="128" height="128" fill="white"/>
</clipPath>
</defs>
</svg>
