<svg width="78" height="78" viewBox="0 0 78 78" xmlns="http://www.w3.org/2000/svg">
	<g fill="none" fill-rule="evenodd">
		<circle cx="39" cy="39" r="39" fill="#DAF4FF"/>
		<g transform="translate(18.83 11.65)">
			<rect fill="#FFF" x="1.006" y=".996" width="40.235" height="51.801" rx="5"/>
			<path d="M24.714 8.412c2.492 0 4.984-.002 7.475.003.6 0 1.027.278 1.11.716.077.426-.15.755-.615.918-.233.08-.52.075-.78.075-4.28.003-8.56.002-12.84.002-.628 0-1.257.005-1.884-.002-.715-.006-1.187-.35-1.186-.85.002-.504.48-.858 1.188-.86 2.51-.003 5.022 0 7.532 0M6.754 12.245h6.617V5.692H6.755v6.553zm3.31-7.264h3.297c.36 0 .65.235.717.583.007.038.01.076.01.114v6.583c0 .344-.27.646-.615.688-.036.005-.072.008-.108.008H6.758c-.355 0-.644-.237-.712-.583-.007-.037-.01-.076-.01-.113V5.677c0-.344.27-.646.615-.69.04-.003.078-.006.116-.006h3.3z" fill="#4A4A4A"/>
			<path d="M8.933 10.746l1.138-1.128 1.13 1.12c.215-.215.43-.43.65-.646l-1.135-1.126 1.128-1.118-.652-.646-1.132 1.123-1.13-1.12c-.22.215-.434.428-.656.648L9.41 8.98 8.28 10.1l.653.646zm-2.18 1.5h6.618V5.69H6.755v6.553z" fill="#FEFEFE"/>
			<path d="M8.933 10.746L8.28 10.1l1.13-1.12-1.138-1.127.655-.65c.375.372.753.746 1.13 1.122l1.134-1.123.653.646-1.128 1.118c.38.378.76.753 1.134 1.126-.22.217-.435.43-.65.645l-1.13-1.12c-.38.38-.76.754-1.137 1.13" fill="#4A4A4A"/>
			<g fill="#4A4A4A">
				<path d="M24.714 17.378c2.492 0 4.984-.003 7.475.002.6 0 1.027.278 1.11.717.077.424-.15.753-.615.916-.233.08-.52.076-.78.076h-12.84c-.628 0-1.257.005-1.884 0-.715-.007-1.187-.35-1.186-.852.002-.504.48-.858 1.188-.86 2.51-.003 5.022 0 7.532 0M6.754 21.21h6.617v-6.553H6.755v6.553zm3.31-7.264h3.297c.36 0 .65.235.717.583.007.036.01.075.01.112v6.583c0 .344-.27.646-.615.69-.036.004-.072.006-.108.006H6.758c-.355 0-.644-.236-.712-.582-.007-.037-.01-.076-.01-.113v-6.583c0-.344.27-.645.615-.688.04-.005.078-.007.116-.007h3.3z"/>
			</g>
			<g>
				<path d="M24.714 26.343c2.492 0 4.984-.002 7.475.003.6 0 1.027.278 1.11.716.077.425-.15.754-.615.917-.233.08-.52.074-.78.074-4.28.003-8.56.002-12.84.002-.628 0-1.257.005-1.884-.002-.715-.006-1.187-.35-1.186-.85.002-.504.48-.858 1.188-.86 2.51-.003 5.022 0 7.532 0M6.754 30.176h6.617v-6.553H6.755v6.553zm3.31-7.264h3.297c.36 0 .65.234.717.582.007.038.01.076.01.114v6.583c0 .345-.27.647-.615.69-.036.004-.072.007-.108.007H6.758c-.355 0-.644-.237-.712-.583-.007-.037-.01-.076-.01-.113V23.61c0-.344.27-.646.615-.69.04-.003.078-.006.116-.006h3.3z" fill="#4A4A4A"/>
				<path d="M8.933 28.677l1.138-1.128c.376.37.754.745 1.13 1.118l.65-.645-1.135-1.126 1.128-1.118-.652-.647-1.132 1.123-1.13-1.12c-.22.215-.434.428-.656.648L9.41 26.91l-1.13 1.12.653.647zm-2.18 1.5h6.618v-6.554H6.755v6.553z" fill="#FEFEFE"/>
				<path d="M8.933 28.677l-.654-.647 1.13-1.12-1.138-1.126.655-.65c.375.372.753.746 1.13 1.122l1.134-1.123.653.646-1.128 1.117c.38.378.76.753 1.134 1.126l-.65.645-1.13-1.12c-.38.38-.76.754-1.137 1.13" fill="#4A4A4A"/>
			</g>
			<g fill="#4A4A4A">
				<path d="M24.714 35.31c2.492 0 4.984-.004 7.475 0 .6.003 1.027.28 1.11.718.077.425-.15.753-.615.916-.233.08-.52.076-.78.076-4.28.003-8.56 0-12.84 0-.628 0-1.257.006-1.884 0-.715-.006-1.187-.35-1.186-.85.002-.505.48-.86 1.188-.86 2.51-.004 5.022 0 7.532 0M6.754 39.14h6.617V32.59H6.755v6.553zm3.31-7.263h3.297c.36 0 .65.235.717.583.007.037.01.076.01.113v6.583c0 .344-.27.646-.615.69-.036.004-.072.006-.108.006H6.758c-.355 0-.644-.237-.712-.583-.007-.038-.01-.077-.01-.114v-6.583c0-.344.27-.645.615-.688.04-.005.078-.007.116-.007h3.3z"/>
			</g>
			<g>
				<path d="M24.714 44.274c2.492 0 4.984-.002 7.475.003.6 0 1.027.278 1.11.716.077.425-.15.754-.615.917-.233.08-.52.076-.78.076-4.28.002-8.56 0-12.84 0-.628 0-1.257.006-1.884 0-.715-.007-1.187-.35-1.186-.85.002-.505.48-.86 1.188-.86 2.51-.004 5.022-.002 7.532-.002M6.754 48.107h6.617v-6.553H6.755v6.553zm3.31-7.264h3.297c.36 0 .65.234.717.582.007.038.01.076.01.114v6.582c0 .344-.27.646-.615.688-.036.005-.072.008-.108.008H6.758c-.355 0-.644-.237-.712-.583-.007-.037-.01-.076-.01-.113V41.54c0-.345.27-.647.615-.69.04-.004.078-.007.116-.007h3.3z" fill="#4A4A4A"/>
				<path d="M8.933 46.608l1.138-1.128 1.13 1.12c.215-.214.43-.43.65-.646l-1.135-1.126 1.128-1.118-.652-.646-1.132 1.123-1.13-1.12c-.22.215-.434.428-.656.648L9.41 44.84l-1.13 1.12c.213.213.43.426.653.648zm-2.18 1.5h6.618v-6.554H6.755v6.553z" fill="#FEFEFE"/>
				<path d="M8.933 46.608l-.654-.647 1.13-1.12-1.138-1.125.655-.65c.375.372.753.746 1.13 1.122l1.134-1.123.653.646-1.128 1.118c.38.378.76.753 1.134 1.126l-.65.645-1.13-1.12c-.38.38-.76.753-1.137 1.128" fill="#4A4A4A"/>
			</g>
			<path d="M8.687 11.4l-.633-.626L9.15 9.69 8.046 8.6l.635-.63 1.095 1.086 1.097-1.087c.213.21.422.417.63.625l-1.09 1.082 1.097 1.09-.626.625c-.365-.362-.73-.724-1.095-1.083L8.686 11.4M8.687 29.33l-.633-.625L9.15 27.62l-1.103-1.09.635-.628 1.095 1.085 1.097-1.087c.213.21.422.418.63.626l-1.09 1.082 1.097 1.09-.626.625c-.365-.362-.73-.724-1.095-1.083-.37.366-.737.73-1.103 1.09M8.687 47.262l-.633-.626 1.095-1.084-1.103-1.09.635-.63 1.095 1.086 1.097-1.087.63.627-1.09 1.082 1.097 1.09c-.21.21-.42.417-.626.624-.365-.362-.73-.724-1.095-1.083l-1.103 1.092" fill="#00AEF0"/>
			<g stroke="#4A4A4A" stroke-width="3">
				<rect x="1.5" y="1.5" width="37.781" height="50.557" rx="4"/>
			</g>
		</g>
	</g>
</svg>
