<svg xmlns="http://www.w3.org/2000/svg" width="75" height="75">
	<g fill="none" fill-rule="evenodd">
		<circle cx="37.44" cy="37.44" r="37.44" fill="#DAF4FF"/>
		<g transform="translate(18.074 11.189)">
			<rect width="38.626" height="49.729" x=".966" y=".956" fill="#FFF" rx="4.8"/>
			<path fill="#4A4A4A" d="M23.725 8.076c2.393 0 4.785-.003 7.176.002.576.001.987.267 1.066.688.075.408-.142.723-.589.88-.224.077-.498.072-.75.072-4.11.003-8.217.002-12.326.002-.603 0-1.206.005-1.809-.002-.687-.006-1.14-.336-1.138-.816.001-.484.46-.824 1.14-.825 2.41-.004 4.821-.001 7.23-.001M6.484 11.755h6.352v-6.29H6.484v6.29zm3.179-6.973h3.163a.683.683 0 0 1 .698.668v6.32a.68.68 0 0 1-.694.667H6.488a.684.684 0 0 1-.694-.668V5.45a.678.678 0 0 1 .702-.667h3.167z"/>
			<path fill="#FEFEFE" d="M8.575 10.316l1.093-1.082 1.085 1.074.622-.62-1.089-1.081 1.083-1.073-.626-.62-1.087 1.078L8.57 6.916l-.63.623L9.035 8.62 7.948 9.695l.627.62zm-2.091 1.439h6.352v-6.29H6.484v6.29z"/>
			<path fill="#4A4A4A" d="M8.575 10.316l-.627-.621L9.034 8.62 7.94 7.54l.63-.624 1.085 1.076 1.087-1.078.626.62-1.083 1.073 1.089 1.081-.622.62-1.085-1.074-1.093 1.082M23.725 16.683c2.393 0 4.785-.003 7.176.002.576.001.987.267 1.066.688.075.408-.142.723-.589.88-.224.077-.498.072-.75.072-4.11.003-8.217.002-12.326.002-.603 0-1.206.004-1.809-.002-.687-.006-1.14-.336-1.138-.816.001-.484.46-.824 1.14-.825 2.41-.004 4.821-.001 7.23-.001M6.484 20.362h6.352v-6.29H6.484v6.29zm3.179-6.973h3.163a.683.683 0 0 1 .698.668v6.32a.68.68 0 0 1-.694.667H6.488a.684.684 0 0 1-.694-.668v-6.32a.678.678 0 0 1 .702-.667h3.167zM6.484 28.969h6.352v-6.291H6.484v6.29zm3.179-6.974h3.163a.683.683 0 0 1 .698.669v6.319a.68.68 0 0 1-.694.668H6.488a.684.684 0 0 1-.694-.668v-6.32a.678.678 0 0 1 .702-.667h3.167z"/>
			<path fill="#FEFEFE" d="M8.575 27.53l1.093-1.083 1.085 1.074.622-.62-1.089-1.08 1.083-1.073-.626-.62-1.087 1.077L8.57 24.13l-.63.623 1.094 1.08-1.086 1.076.627.62zm-2.091 1.439h6.352v-6.29H6.484v6.29z"/>
			<path fill="#4A4A4A" d="M8.575 27.53l-.627-.621 1.086-1.075-1.093-1.081.63-.623 1.085 1.075 1.087-1.077.626.62-1.083 1.073 1.089 1.08-.622.62-1.085-1.074-1.093 1.083M23.725 33.896c2.393 0 4.785-.002 7.176.003.576.001.987.267 1.066.688.075.407-.142.723-.589.88-.224.077-.498.072-.75.072-4.11.003-8.217.001-12.326.001-.603 0-1.206.005-1.809 0-.687-.007-1.14-.337-1.138-.817.001-.484.46-.824 1.14-.825 2.41-.004 4.821-.002 7.23-.002m-17.241 3.68h6.352v-6.291H6.484v6.29zm3.179-6.974h3.163a.683.683 0 0 1 .698.669v6.319a.68.68 0 0 1-.694.668H6.488a.684.684 0 0 1-.694-.668v-6.32a.678.678 0 0 1 .702-.667h3.167zM23.725 42.503c2.393 0 4.785-.002 7.176.003.576 0 .987.267 1.066.688.075.407-.142.723-.589.88-.224.077-.498.072-.75.072-4.11.003-8.217.001-12.326.001-.603 0-1.206.005-1.809 0-.687-.007-1.14-.337-1.138-.817.001-.485.46-.824 1.14-.826 2.41-.003 4.821 0 7.23 0M6.484 46.182h6.352v-6.29H6.484v6.29zm3.179-6.973h3.163a.683.683 0 0 1 .698.668v6.32a.68.68 0 0 1-.694.668H6.488a.684.684 0 0 1-.694-.668v-6.32a.678.678 0 0 1 .702-.667h3.167z"/>
			<path fill="#FEFEFE" d="M8.575 44.743l1.093-1.082 1.085 1.074.622-.62-1.089-1.08 1.083-1.073-.626-.62-1.087 1.077-1.086-1.076-.63.624 1.094 1.08-1.086 1.076.627.62zm-2.091 1.44h6.352v-6.291H6.484v6.29z"/>
			<path fill="#4A4A4A" d="M8.575 44.743l-.627-.62 1.086-1.075-1.093-1.081.63-.624 1.085 1.076 1.087-1.078.626.62-1.083 1.074 1.089 1.08-.622.62-1.085-1.074-1.093 1.082"/>
			<path fill="#00AEF0" d="M8.34 10.944l-.608-.601 1.052-1.04-1.059-1.047.61-.603 1.05 1.04 1.054-1.042.606.6L9.996 9.29l1.055 1.046-.603.6-1.05-1.04-1.059 1.048m.001 17.214l-.608-.601 1.052-1.04-1.059-1.047.61-.604c.348.345.7.693 1.05 1.042l1.054-1.044.606.6-1.049 1.04c.355.35.706.7 1.055 1.046l-.603.6-1.05-1.04-1.059 1.048m.001 17.213l-.608-.6 1.052-1.041-1.059-1.047.61-.603 1.05 1.041 1.054-1.043.606.6-1.049 1.04c.355.35.706.699 1.055 1.046l-.603.6-1.05-1.04-1.059 1.047"/>
			<g stroke="#4A4A4A" stroke-width="2.88">
				<rect width="36.27" height="48.534" x="1.44" y="1.44" rx="3.84"/>
			</g>
		</g>
		<path fill="#FFF" d="M45.941 40.953a7.28 7.28 0 0 1-.575-2.492v-3.13c0-2.392-1.88-4.331-4.2-4.331-2.319 0-4.199 1.939-4.199 4.33v3.177a7.324 7.324 0 0 1-.573 2.446c-.62 1.477-.107 1.3.352 1.18.46-.122 1.486-.596 1.806-.012.32.584.588 1.09 1.336.76.748-.33 1.1-.44 1.207-.44h.145c.107 0 .46.11 1.207.44.748.33 1.015-.176 1.336-.76.32-.584 1.346-.11 1.806.011.46.122.972.298.352-1.179"/>
		<path fill="#00AEF0" d="M46.626 40.953a7.28 7.28 0 0 1-.575-2.492v-3.13c0-2.392-1.88-4.331-4.2-4.331-2.32 0-4.2 1.939-4.2 4.33v3.177a7.324 7.324 0 0 1-.573 2.446c-.62 1.477-.106 1.3.353 1.18.46-.122 1.485-.596 1.806-.012.32.584.587 1.09 1.335.76.748-.33 1.1-.44 1.208-.44h.145c.107 0 .46.11 1.207.44.748.33 1.015-.176 1.336-.76.32-.584 1.346-.11 1.805.011.46.122.973.298.353-1.179"/>
		<path stroke="#4A4A4A" stroke-width=".6" d="M46.062 40.953a7.28 7.28 0 0 1-.575-2.492v-3.13c0-2.392-1.88-4.331-4.2-4.331-2.32 0-4.2 1.939-4.2 4.33v3.177a7.324 7.324 0 0 1-.573 2.446c-.62 1.477-.106 1.3.353 1.18.46-.122 1.485-.596 1.806-.012.32.584.587 1.09 1.335.76.748-.33 1.1-.44 1.208-.44h.145c.107 0 .46.11 1.207.44.748.33 1.015-.176 1.336-.76.32-.584 1.346-.11 1.805.011.46.122.973.298.353-1.179"/>
		<path d="M39.944 32.798c.455 0 .824.592.824 1.324 0 .73-.369 1.323-.824 1.323-.455 0-.824-.592-.824-1.323 0-.732.369-1.324.824-1.324m1.278 5.242c-1.003 0-1.848-1.001-2.102-2.116.491.686 1.25 1.126 2.102 1.126.852 0 1.61-.44 2.102-1.126-.254 1.115-1.1 2.116-2.102 2.116m1.362-2.595c-.456 0-.824-.592-.824-1.323 0-.732.368-1.324.824-1.324.456 0 .824.592.824 1.324 0 .73-.368 1.323-.824 1.323" fill="#4A4A4A"/>
	</g>
</svg>
