<svg width="78" height="78" xmlns="http://www.w3.org/2000/svg">
	<g fill="none" fill-rule="evenodd">
		<circle cx="39" cy="39" r="39" fill="#DAF4FF"/>
		<g transform="translate(18.83 11.65)">
			<rect fill="#FFF" x="1.006" y=".996" width="40.235" height="51.801" rx="5"/>
			<path d="M24.714 8.412c2.492 0 4.984-.002 7.475.003.6 0 1.027.278 1.11.716.077.426-.15.755-.615.918-.233.08-.52.075-.78.075-4.28.003-8.56.002-12.84.002-.628 0-1.257.005-1.884-.002-.715-.006-1.187-.35-1.186-.85.002-.504.48-.858 1.188-.86 2.51-.003 5.022 0 7.532 0m-17.96 3.831h6.617V5.692H6.755v6.553zm3.31-7.264h3.297a.711.711 0 0 1 .727.697v6.583a.705.705 0 0 1-.723.696H6.758a.712.712 0 0 1-.722-.696V5.677c0-.344.27-.646.615-.69.04-.003.078-.006.116-.006h3.3z" fill="#4A4A4A"/>
			<path d="M8.933 10.746l1.138-1.128 1.13 1.12c.215-.215.43-.43.65-.646l-1.135-1.126 1.128-1.118-.652-.646-1.132 1.123-1.13-1.12c-.22.215-.434.428-.656.648L9.41 8.98 8.28 10.1l.653.646zm-2.18 1.5h6.618V5.69H6.755v6.553z" fill="#FEFEFE"/>
			<path d="M8.933 10.746L8.28 10.1l1.13-1.12-1.138-1.127.655-.65c.375.372.753.746 1.13 1.122l1.134-1.123.653.646-1.128 1.118c.38.378.76.753 1.134 1.126-.22.217-.435.43-.65.645l-1.13-1.12c-.38.38-.76.754-1.137 1.13M24.714 17.378c2.492 0 4.984-.003 7.475.002.6 0 1.027.278 1.11.717.077.424-.15.753-.615.916-.233.08-.52.076-.78.076h-12.84c-.628 0-1.257.005-1.884 0-.715-.007-1.187-.35-1.186-.852.002-.504.48-.858 1.188-.86 2.51-.003 5.022 0 7.532 0M6.754 21.21h6.617v-6.553H6.755v6.553zm3.31-7.264h3.297a.711.711 0 0 1 .727.695v6.583a.709.709 0 0 1-.723.696H6.758a.711.711 0 0 1-.722-.695v-6.583a.706.706 0 0 1 .731-.695h3.3zM24.714 26.343c2.492 0 4.984-.002 7.475.003.6 0 1.027.278 1.11.716.077.425-.15.754-.615.917-.233.08-.52.074-.78.074-4.28.003-8.56.002-12.84.002-.628 0-1.257.005-1.884-.002-.715-.006-1.187-.35-1.186-.85.002-.504.48-.858 1.188-.86 2.51-.003 5.022 0 7.532 0m-17.96 3.833h6.617v-6.553H6.755v6.553zm3.31-7.264h3.297a.71.71 0 0 1 .727.696v6.583a.707.707 0 0 1-.723.697H6.758a.712.712 0 0 1-.722-.696V23.61c0-.344.27-.646.615-.69.04-.003.078-.006.116-.006h3.3z" fill="#4A4A4A"/>
			<path d="M8.933 28.677l1.138-1.128c.376.37.754.745 1.13 1.118l.65-.645-1.135-1.126 1.128-1.118-.652-.647-1.132 1.123-1.13-1.12c-.22.215-.434.428-.656.648L9.41 26.91l-1.13 1.12.653.647zm-2.18 1.5h6.618v-6.554H6.755v6.553z" fill="#FEFEFE"/>
			<path d="M8.933 28.677l-.654-.647 1.13-1.12-1.138-1.126.655-.65c.375.372.753.746 1.13 1.122l1.134-1.123.653.646-1.128 1.117c.38.378.76.753 1.134 1.126l-.65.645-1.13-1.12c-.38.38-.76.754-1.137 1.13M24.714 35.31c2.492 0 4.984-.004 7.475 0 .6.003 1.027.28 1.11.718.077.425-.15.753-.615.916-.233.08-.52.076-.78.076-4.28.003-8.56 0-12.84 0-.628 0-1.257.006-1.884 0-.715-.006-1.187-.35-1.186-.85.002-.505.48-.86 1.188-.86 2.51-.004 5.022 0 7.532 0m-17.96 3.83h6.617v-6.55H6.755v6.553zm3.31-7.263h3.297a.711.711 0 0 1 .727.696v6.583a.709.709 0 0 1-.723.696H6.758a.712.712 0 0 1-.722-.697v-6.583a.706.706 0 0 1 .731-.695h3.3zM24.714 44.274c2.492 0 4.984-.002 7.475.003.6 0 1.027.278 1.11.716.077.425-.15.754-.615.917-.233.08-.52.076-.78.076-4.28.002-8.56 0-12.84 0-.628 0-1.257.006-1.884 0-.715-.007-1.187-.35-1.186-.85.002-.505.48-.86 1.188-.86 2.51-.004 5.022-.002 7.532-.002m-17.96 3.833h6.617v-6.553H6.755v6.553zm3.31-7.264h3.297a.71.71 0 0 1 .727.696v6.582a.705.705 0 0 1-.723.696H6.758a.712.712 0 0 1-.722-.696V41.54a.707.707 0 0 1 .731-.697h3.3z" fill="#4A4A4A"/>
			<path d="M8.933 46.608l1.138-1.128 1.13 1.12c.215-.214.43-.43.65-.646l-1.135-1.126 1.128-1.118-.652-.646-1.132 1.123-1.13-1.12c-.22.215-.434.428-.656.648L9.41 44.84l-1.13 1.12c.213.213.43.426.653.648zm-2.18 1.5h6.618v-6.554H6.755v6.553z" fill="#FEFEFE"/>
			<path d="M8.933 46.608l-.654-.647 1.13-1.12-1.138-1.125.655-.65c.375.372.753.746 1.13 1.122l1.134-1.123.653.646-1.128 1.118c.38.378.76.753 1.134 1.126l-.65.645-1.13-1.12c-.38.38-.76.753-1.137 1.128" fill="#4A4A4A"/>
			<path d="M8.687 11.4l-.633-.626L9.15 9.69 8.046 8.6l.635-.63 1.095 1.086 1.097-1.087c.213.21.422.417.63.625l-1.09 1.082 1.097 1.09-.626.625c-.365-.362-.73-.724-1.095-1.083L8.686 11.4m.001 17.93l-.633-.625L9.15 27.62l-1.103-1.09.635-.628 1.095 1.085 1.097-1.087c.213.21.422.418.63.626l-1.09 1.082 1.097 1.09-.626.625c-.365-.362-.73-.724-1.095-1.083-.37.366-.737.73-1.103 1.09m0 17.932l-.633-.626 1.095-1.084-1.103-1.09.635-.63 1.095 1.086 1.097-1.087.63.627-1.09 1.082 1.097 1.09c-.21.21-.42.417-.626.624-.365-.362-.73-.724-1.095-1.083l-1.103 1.092" fill="#00AEF0"/>
			<g stroke="#4A4A4A" stroke-width="3">
				<rect x="1.5" y="1.5" width="37.781" height="50.557" rx="4"/>
			</g>
		</g>
	</g>
</svg>
