<svg width="78" height="78" xmlns="http://www.w3.org/2000/svg">
	<g fill="none" fill-rule="evenodd">
		<circle fill-opacity=".108" fill="#00AEF0" cx="39" cy="39" r="39"/>
		<path fill="#FFF" d="M18.508 13.22h39.66v51.56H18.51z"/>
		<g transform="translate(18.51 11.9)">
			<path d="M7.34 12.312h6.736V5.578H7.34v6.734zm3.372-7.464h3.354a.723.723 0 0 1 .738.715c0 2.255.002 4.51 0 6.765a.723.723 0 0 1-.736.715H7.347a.727.727 0 0 1-.735-.715V5.563a.724.724 0 0 1 .744-.715h3.358z" fill="#4A4A4A"/>
			<path d="M9.56 10.772l1.157-1.16 1.15 1.15c.218-.22.437-.44.66-.662l-1.154-1.158 1.148-1.148-.663-.664-1.153 1.154-1.15-1.152-.668.667c.383.38.768.766 1.16 1.157l-1.152 1.15.665.665zm-2.22 1.54h6.736V5.578H7.34v6.734z" fill="#FEFEFE"/>
			<path d="M7.34 21.126h6.736v-6.734H7.34v6.734zm3.372-7.465h3.354a.725.725 0 0 1 .738.716c0 2.255.002 4.51 0 6.765a.726.726 0 0 1-.736.716H7.347a.727.727 0 0 1-.735-.715v-6.764a.723.723 0 0 1 .744-.715h3.358zM7.34 29.94h6.736v-6.735H7.34v6.734zm3.372-7.465h3.354a.723.723 0 0 1 .738.715c0 2.255.002 4.51 0 6.765a.723.723 0 0 1-.736.715H7.347a.727.727 0 0 1-.735-.715V23.19a.724.724 0 0 1 .744-.715h3.358z" fill="#4A4A4A"/>
			<path d="M9.56 28.4c.383-.386.768-.77 1.157-1.16l1.15 1.15.66-.663c-.382-.384-.766-.77-1.154-1.157l1.148-1.15-.663-.663-1.153 1.154-1.15-1.15c-.223.22-.442.44-.668.666l1.16 1.158-1.152 1.15.665.665zm-2.22 1.54h6.736v-6.735H7.34v6.734z" fill="#FEFEFE"/>
			<path d="M7.34 38.753h6.736V32.02H7.34v6.733zm3.372-7.465h3.354a.723.723 0 0 1 .738.715c0 2.255.002 4.51 0 6.765a.724.724 0 0 1-.736.716H7.347a.728.728 0 0 1-.735-.716v-6.765a.724.724 0 0 1 .744-.714c1.12-.002 2.24-.002 3.358-.002z" fill="#4A4A4A"/>
			<path d="M9.56 37.212l1.157-1.158 1.15 1.15.66-.664-1.154-1.157 1.148-1.148-.663-.664c-.38.382-.765.766-1.153 1.154l-1.15-1.15c-.223.22-.442.44-.668.666l1.16 1.157-1.152 1.15c.218.22.437.438.665.665zm-2.22 1.54h6.736V32.02H7.34v6.733z" fill="#FEFEFE"/>
			<path d="M7.34 47.566h6.736v-6.734H7.34v6.734zm3.372-7.464h3.354a.723.723 0 0 1 .738.715c0 2.255.002 4.51 0 6.765a.724.724 0 0 1-.736.715H7.347a.727.727 0 0 1-.735-.715v-6.765a.724.724 0 0 1 .744-.716h3.358z" fill="#4A4A4A"/>
			<path d="M9.56 46.026l1.157-1.16 1.15 1.15c.218-.218.437-.44.66-.662-.382-.383-.766-.77-1.154-1.157l1.148-1.15-.663-.663-1.153 1.154-1.15-1.152-.668.668 1.16 1.157-1.152 1.15c.218.22.437.44.665.666zm-2.22 1.54h6.736v-6.733H7.34v6.734z" fill="#FEFEFE"/>
			<rect stroke="#4A4A4A" stroke-width="3" x="1.5" y="1.5" width="37.542" height="50.763" rx="4"/>
		</g>
	</g>
</svg>
