<svg width="78" height="78" xmlns="http://www.w3.org/2000/svg">
	<g fill="none" fill-rule="evenodd">
		<circle cx="39" cy="39" r="39" fill="#DAF4FF"/>
		<g transform="translate(19 12)">
			<rect fill="#FFF" x="1" y="1" width="40" height="52" rx="5"/>
			<path d="M24.57 8.445c2.477 0 4.954-.003 7.43.002.597 0 1.022.28 1.104.72.077.426-.147.756-.61.92-.23.08-.516.075-.776.075-4.256.003-8.51.002-12.765.002-.624 0-1.25.005-1.873-.002-.712-.006-1.18-.35-1.18-.853.002-.508.478-.863 1.18-.864 2.498-.004 4.994 0 7.49 0M6.714 12.292h6.578V5.714H6.714v6.578zM10.006 5h3.277a.71.71 0 0 1 .722.699v6.607a.706.706 0 0 1-.719.698H6.72a.71.71 0 0 1-.72-.698V5.7a.708.708 0 0 1 .727-.699h3.28z" fill="#4A4A4A"/>
			<path d="M8.88 10.787l1.132-1.132c.373.373.748.75 1.123 1.123l.644-.648L10.65 9l1.12-1.122-.647-.648c-.37.372-.747.747-1.126 1.127L8.874 7.232l-.652.65 1.132 1.132c-.375.375-.752.75-1.124 1.124l.65.65zm-2.166 1.505h6.578V5.714H6.714v6.578z" fill="#FEFEFE"/>
			<path d="M8.88 10.787l-.65-.65 1.125-1.123-1.132-1.13.652-.652L10 8.357l1.125-1.127c.22.218.433.433.648.648L10.653 9l1.126 1.13-.645.648-1.123-1.123-1.132 1.132m15.691 6.658c2.477 0 4.954-.003 7.43.002.597 0 1.022.28 1.104.72.077.426-.147.756-.61.92-.23.08-.516.075-.776.075-4.256.003-8.51.002-12.765.002-.624 0-1.25.005-1.873-.002-.712-.006-1.18-.35-1.18-.853.002-.508.478-.863 1.18-.864 2.498-.004 4.994 0 7.49 0M6.714 21.292h6.578v-6.578H6.714v6.578zM10.006 14h3.277a.71.71 0 0 1 .722.699v6.607a.706.706 0 0 1-.719.698H6.72a.71.71 0 0 1-.72-.698V14.7a.708.708 0 0 1 .727-.699h3.28z" fill="#4A4A4A"/>
			<path d="M8.88 19.787l1.132-1.132c.373.373.748.75 1.123 1.123l.644-.648L10.65 18l1.12-1.122-.647-.648c-.37.372-.747.747-1.126 1.127l-1.125-1.125-.652.65 1.132 1.132c-.375.375-.752.75-1.124 1.124l.65.65zm-2.166 1.505h6.578v-6.578H6.714v6.578z" fill="#FEFEFE"/>
			<path d="M8.88 19.787l-.65-.65 1.125-1.123-1.132-1.13.652-.652L10 17.357l1.125-1.127c.22.218.433.433.648.648L10.653 18l1.126 1.13-.645.648-1.123-1.123-1.132 1.132M24.57 26.445c2.477 0 4.954-.003 7.43.002.597 0 1.022.28 1.104.72.077.426-.147.756-.61.92-.23.08-.516.075-.776.075-4.256.003-8.51.002-12.765.002-.624 0-1.25.005-1.873-.002-.712-.006-1.18-.35-1.18-.853.002-.508.478-.863 1.18-.864 2.498-.004 4.994 0 7.49 0M6.714 30.292h6.578v-6.578H6.714v6.578zM10.006 23h3.277a.71.71 0 0 1 .722.699v6.607a.706.706 0 0 1-.719.698H6.72a.71.71 0 0 1-.72-.698V23.7a.708.708 0 0 1 .727-.699h3.28z" fill="#4A4A4A"/>
			<path d="M8.88 28.787l1.132-1.132c.373.373.748.75 1.123 1.123l.644-.648L10.65 27l1.12-1.122-.647-.648c-.37.372-.747.747-1.126 1.127l-1.125-1.125-.652.65 1.132 1.132c-.375.375-.752.75-1.124 1.124l.65.65zm-2.166 1.505h6.578v-6.578H6.714v6.578z" fill="#FEFEFE"/>
			<path d="M8.88 28.787l-.65-.65 1.125-1.123-1.132-1.13.652-.652L10 26.357l1.125-1.127c.22.218.433.433.648.648L10.653 27l1.126 1.13-.645.648-1.123-1.123-1.132 1.132M24.57 35.445c2.477 0 4.954-.003 7.43.002.597 0 1.022.28 1.104.72.077.426-.147.756-.61.92-.23.08-.516.075-.776.075-4.256.003-8.51.002-12.765.002-.624 0-1.25.005-1.873-.002-.712-.006-1.18-.35-1.18-.853.002-.508.478-.863 1.18-.864 2.498-.004 4.994 0 7.49 0M6.714 39.292h6.578v-6.578H6.714v6.578zM10.006 32h3.277a.71.71 0 0 1 .722.699v6.607a.706.706 0 0 1-.719.698H6.72a.71.71 0 0 1-.72-.698V32.7a.708.708 0 0 1 .727-.699h3.28z" fill="#4A4A4A"/>
			<path d="M8.88 37.787l1.132-1.132c.373.373.748.75 1.123 1.123l.644-.648L10.65 36l1.12-1.122-.647-.648c-.37.372-.747.747-1.126 1.127l-1.125-1.125-.652.65 1.132 1.132c-.375.375-.752.75-1.124 1.124l.65.65zm-2.166 1.505h6.578v-6.578H6.714v6.578z" fill="#FEFEFE"/>
			<path d="M8.88 37.787l-.65-.65 1.125-1.123-1.132-1.13.652-.652L10 35.357l1.125-1.127c.22.218.433.433.648.648L10.653 36l1.126 1.13-.645.648-1.123-1.123-1.132 1.132" fill="#4A4A4A"/>
			<g>
				<path d="M24.57 44.445c2.477 0 4.954-.003 7.43.002.597 0 1.022.28 1.104.72.077.426-.147.756-.61.92-.23.08-.516.075-.776.075-4.256.003-8.51.002-12.765.002-.624 0-1.25.005-1.873-.002-.712-.006-1.18-.35-1.18-.853.002-.508.478-.863 1.18-.864 2.498-.004 4.994 0 7.49 0M6.714 48.292h6.578v-6.578H6.714v6.578zM10.006 41h3.277a.71.71 0 0 1 .722.699v6.607a.706.706 0 0 1-.719.698H6.72a.71.71 0 0 1-.72-.698V41.7a.708.708 0 0 1 .727-.699h3.28z" fill="#4A4A4A"/>
				<path d="M8.88 46.787l1.132-1.132c.373.373.748.75 1.123 1.123l.644-.648L10.65 45l1.12-1.122-.647-.648c-.37.372-.747.747-1.126 1.127l-1.125-1.125-.652.65 1.132 1.132c-.375.375-.752.75-1.124 1.124l.65.65zm-2.166 1.505h6.578v-6.578H6.714v6.578z" fill="#FEFEFE"/>
				<path d="M8.88 46.787l-.65-.65 1.125-1.123-1.132-1.13.652-.652L10 44.357l1.125-1.127c.22.218.433.433.648.648L10.653 45l1.126 1.13-.645.648-1.123-1.123-1.132 1.132" fill="#4A4A4A"/>
			</g>
			<path d="M8.636 11.444l-.63-.63 1.09-1.087L8 8.633l.63-.63c.362.36.726.723 1.09 1.088L10.81 8l.628.628-1.086 1.086 1.092 1.094-.624.627-1.088-1.087-1.096 1.096m0 9l-.63-.63 1.09-1.087L8 17.633l.63-.63c.362.36.726.723 1.09 1.088L10.81 17l.628.628-1.086 1.086 1.092 1.094-.624.627-1.088-1.087-1.096 1.096m0 9l-.63-.63 1.09-1.087L8 26.633l.63-.63c.362.36.726.723 1.09 1.088L10.81 26l.628.628-1.086 1.086 1.092 1.094-.624.627-1.088-1.087-1.096 1.096m0 9l-.63-.63 1.09-1.087L8 35.633l.63-.63c.362.36.726.723 1.09 1.088L10.81 35l.628.628-1.086 1.086 1.092 1.094-.624.627-1.088-1.087-1.096 1.096m0 9l-.63-.63 1.09-1.087L8 44.633l.63-.63c.362.36.726.723 1.09 1.088L10.81 44l.628.628-1.086 1.086 1.092 1.094-.624.627-1.088-1.087-1.096 1.096" fill="#00AEF0"/>
			<g stroke="#4A4A4A" stroke-width="3">
				<rect x="1.5" y="1.5" width="37.542" height="50.763" rx="4"/>
			</g>
		</g>
	</g>
</svg>
