<svg width="205" height="205" xmlns="http://www.w3.org/2000/svg">
	<g fill="none" fill-rule="evenodd">
		<g transform="translate(27 27)">
			<circle fill="#DAF4FF" cx="75.5" cy="75.5" r="75.5"/>
			<path fill="#FFF" d="M38 22h83v108H38z"/>
			<g transform="translate(37 21)">
				<path d="M52.924 17.29c5.222 0 10.44-.004 15.66.006 1.257.003 2.153.59 2.325 1.52.162.902-.31 1.6-1.286 1.945-.488.173-1.088.162-1.637.162-8.967.006-17.93.003-26.898.003-1.315 0-2.633.01-3.947-.003-1.5-.013-2.488-.743-2.485-1.805.003-1.07 1.005-1.82 2.488-1.823 5.26-.008 10.52-.003 15.778-.003M15.3 25.423h13.862V11.518h-13.86v13.905zm6.94-15.413h6.903c.753 0 1.358.497 1.502 1.235.015.08.02.16.02.242.002 4.656.003 9.312.002 13.968a1.496 1.496 0 0 1-1.515 1.477H15.31c-.743 0-1.35-.502-1.493-1.237-.014-.08-.02-.16-.02-.24V11.487a1.495 1.495 0 0 1 1.53-1.476h6.91z" fill="#4A4A4A"/>
				<path d="M19.865 22.242l2.385-2.392c.786.79 1.577 1.583 2.367 2.374l1.357-1.37-2.376-2.39 2.363-2.37c-.452-.456-.904-.91-1.365-1.37l-2.373 2.38-2.368-2.377-1.373 1.378 2.385 2.39-2.37 2.375c.45.45.9.903 1.37 1.372zM15.3 25.424h13.862V11.52h-13.86v13.904z" fill="#FEFEFE"/>
				<path d="M19.865 22.242l-1.37-1.372c.787-.788 1.58-1.582 2.37-2.376l-2.384-2.39 1.374-1.377 2.368 2.378 2.373-2.382 1.366 1.37c-.778.783-1.57 1.578-2.362 2.372.8.803 1.59 1.598 2.376 2.39-.458.46-.91.916-1.357 1.37L22.25 19.85c-.8.804-1.593 1.598-2.385 2.392M52.924 35.49c5.222 0 10.44-.005 15.66.005 1.257.003 2.153.59 2.325 1.52.162.902-.31 1.6-1.286 1.945-.488.172-1.088.16-1.637.16-8.967.007-17.93.004-26.898.004-1.315 0-2.633.01-3.947-.003-1.5-.012-2.488-.742-2.485-1.804.003-1.07 1.005-1.82 2.488-1.823 5.26-.008 10.52-.003 15.778-.003M15.3 43.622h13.862V29.717h-13.86v13.905zm6.94-15.412h6.903c.753 0 1.358.496 1.502 1.234.015.08.02.162.02.242.002 4.656.003 9.312.002 13.968a1.496 1.496 0 0 1-1.515 1.477H15.31c-.743 0-1.35-.5-1.493-1.235a1.405 1.405 0 0 1-.02-.24v-13.97a1.491 1.491 0 0 1 1.53-1.475h6.91z" fill="#4A4A4A"/>
				<path d="M19.865 40.442l2.385-2.393 2.367 2.373 1.357-1.37-2.376-2.39c.792-.793 1.584-1.587 2.363-2.37-.452-.456-.904-.91-1.365-1.37l-2.373 2.38-2.368-2.377-1.373 1.378 2.385 2.39-2.37 2.375 1.37 1.372zm-4.564 3.18h13.862V29.72h-13.86v13.905z" fill="#FEFEFE"/>
				<path d="M19.865 40.442l-1.37-1.373c.787-.79 1.58-1.583 2.37-2.377l-2.384-2.39 1.374-1.377 2.368 2.378 2.373-2.382 1.366 1.37c-.778.784-1.57 1.578-2.362 2.372.8.803 1.59 1.598 2.376 2.39-.458.46-.91.916-1.357 1.37l-2.367-2.375-2.385 2.392m33.057 13.25c5.222 0 10.44-.006 15.66.004 1.257.003 2.153.59 2.325 1.52.162.902-.31 1.6-1.286 1.945-.488.17-1.088.16-1.637.16-8.967.006-17.93.003-26.898.003-1.315 0-2.633.01-3.947-.003-1.5-.013-2.488-.743-2.485-1.805.003-1.07 1.005-1.82 2.488-1.823 5.26-.008 10.52-.003 15.778-.003M15.3 61.822h13.862V47.917h-13.86v13.905zm6.938-15.414h6.903c.753 0 1.358.497 1.502 1.236.015.08.02.16.02.24.002 4.657.003 9.313.002 13.97a1.494 1.494 0 0 1-1.515 1.476H15.31c-.743 0-1.35-.502-1.493-1.236-.014-.08-.02-.16-.02-.24v-13.97a1.491 1.491 0 0 1 1.53-1.475c2.304-.002 4.608-.002 6.91-.002z" fill="#4A4A4A"/>
				<path d="M19.865 58.64l2.385-2.392c.786.79 1.577 1.583 2.367 2.374l1.357-1.37-2.376-2.39c.792-.793 1.584-1.587 2.363-2.37-.452-.456-.904-.91-1.365-1.37l-2.373 2.38-2.368-2.377-1.373 1.378 2.385 2.39-2.37 2.375 1.37 1.373zM15.3 61.823h13.862V47.917h-13.86v13.905z" fill="#FEFEFE"/>
				<path d="M19.865 58.64l-1.37-1.372 2.37-2.375-2.384-2.39 1.374-1.378 2.368 2.378 2.373-2.382 1.366 1.372c-.778.783-1.57 1.577-2.362 2.37l2.376 2.39c-.458.462-.91.917-1.357 1.37-.79-.79-1.58-1.585-2.367-2.374l-2.385 2.393M52.924 71.888c5.222 0 10.44-.005 15.66.006 1.257.002 2.153.59 2.325 1.52.162.9-.31 1.6-1.286 1.945-.488.17-1.088.16-1.637.16-8.967.005-17.93.002-26.898.002-1.315 0-2.633.01-3.947-.003-1.5-.014-2.488-.743-2.485-1.805.003-1.07 1.005-1.82 2.488-1.824 5.26-.007 10.52-.002 15.778-.002M15.3 80.02h13.862V66.117h-13.86V80.02zm6.938-15.413h6.903c.753 0 1.358.497 1.502 1.236.015.08.02.16.02.24.002 4.657.003 9.313.002 13.97a1.494 1.494 0 0 1-1.515 1.476H15.31a1.5 1.5 0 0 1-1.493-1.237c-.014-.08-.02-.16-.02-.24v-13.97a1.491 1.491 0 0 1 1.53-1.475h6.91z" fill="#4A4A4A"/>
				<path d="M19.865 76.84l2.385-2.393 2.367 2.375c.448-.454.9-.91 1.357-1.37l-2.376-2.39 2.363-2.37c-.452-.457-.904-.91-1.365-1.372l-2.373 2.382-2.368-2.378-1.373 1.378 2.385 2.39-2.37 2.376 1.37 1.372zM15.3 80.02h13.862V66.117h-13.86V80.02z" fill="#FEFEFE"/>
				<path d="M19.865 76.84l-1.37-1.372 2.37-2.376-2.384-2.39 1.374-1.378 2.368 2.378 2.373-2.382 1.366 1.37c-.778.784-1.57 1.578-2.362 2.373.8.802 1.59 1.597 2.376 2.39-.458.46-.91.915-1.357 1.37l-2.367-2.376-2.385 2.393M52.924 90.087c5.222 0 10.44-.005 15.66.006 1.257.002 2.153.59 2.325 1.52.162.9-.31 1.6-1.286 1.945-.488.17-1.088.16-1.637.16-8.967.006-17.93.003-26.898.003-1.315 0-2.633.012-3.947 0-1.5-.015-2.488-.744-2.485-1.806.003-1.07 1.005-1.82 2.488-1.824 5.26-.008 10.52-.003 15.778-.003M15.3 98.22h13.862V84.315h-13.86V98.22zm6.938-15.414h6.903c.753 0 1.358.497 1.502 1.236.015.08.02.16.02.24.002 4.657.003 9.313.002 13.97a1.494 1.494 0 0 1-1.515 1.476H15.31c-.743 0-1.35-.502-1.493-1.236-.014-.08-.02-.16-.02-.24v-13.97a1.491 1.491 0 0 1 1.53-1.475h6.91z" fill="#4A4A4A"/>
				<path d="M19.865 95.04l2.385-2.393 2.367 2.374 1.357-1.37-2.376-2.388 2.363-2.372c-.452-.456-.904-.91-1.365-1.37l-2.373 2.38c-.792-.795-1.583-1.59-2.368-2.376L18.48 88.9l2.385 2.39c-.79.794-1.583 1.59-2.37 2.377l1.37 1.372zM15.3 98.22h13.862V84.315h-13.86V98.22z" fill="#FEFEFE"/>
				<path d="M19.865 95.04l-1.37-1.373 2.37-2.376-2.384-2.39c.466-.466.917-.92 1.374-1.376.785.787 1.576 1.58 2.368 2.377.8-.8 1.59-1.594 2.373-2.38.46.46.913.914 1.366 1.37-.778.783-1.57 1.577-2.362 2.372.8.802 1.59 1.597 2.376 2.39-.458.46-.91.915-1.357 1.37-.79-.793-1.58-1.587-2.367-2.375l-2.385 2.392" fill="#4A4A4A"/>
				<path d="M18.764 95.346l-1.325-1.328 2.293-2.3-2.31-2.313 1.33-1.334c.76.763 1.528 1.532 2.294 2.303l2.298-2.307 1.323 1.328c-.754.758-1.52 1.527-2.288 2.296.774.777 1.54 1.546 2.3 2.313l-1.314 1.326-2.292-2.3-2.31 2.316" fill="#00AEF0"/>
				<rect stroke="#4A4A4A" stroke-width="3" x="1.69" y="1.5" width="80.45" height="108.014" rx="4"/>
				<path d="M18.764 22.75l-1.325-1.33c.76-.762 1.527-1.53 2.293-2.3l-2.31-2.313 1.33-1.333c.76.762 1.528 1.53 2.294 2.3.773-.775 1.54-1.543 2.298-2.305.447.447.884.885 1.323 1.327l-2.288 2.295c.774.777 1.54 1.547 2.3 2.314l-1.314 1.325c-.765-.765-1.53-1.533-2.292-2.297l-2.31 2.316m.001 18.199L17.44 39.62l2.293-2.3-2.31-2.314 1.33-1.333c.76.762 1.528 1.53 2.294 2.3.773-.775 1.54-1.543 2.298-2.305l1.323 1.328-2.288 2.295c.774.778 1.54 1.548 2.3 2.315l-1.314 1.325-2.292-2.298-2.31 2.316m0 18.198L17.44 57.82c.76-.764 1.527-1.533 2.293-2.3l-2.31-2.315c.452-.45.888-.89 1.33-1.333.76.762 1.528 1.53 2.294 2.302l2.298-2.307 1.323 1.328-2.288 2.295c.774.777 1.54 1.547 2.3 2.314l-1.314 1.325-2.292-2.3c-.776.78-1.543 1.548-2.31 2.317m0 18.2l-1.325-1.328 2.293-2.3-2.31-2.313 1.33-1.334c.76.763 1.528 1.532 2.294 2.303l2.298-2.307 1.323 1.328c-.754.758-1.52 1.527-2.288 2.296.774.777 1.54 1.546 2.3 2.313l-1.314 1.326-2.292-2.3-2.31 2.316" fill="#00AEF0"/>
			</g>
		</g>
		<path d="M27.67 75.493c1.148-.207 1.908-.843 1.856-2.12-.05-1.313-.9-1.908-2.108-1.86-1.163.056-1.877.82-1.835 1.98.04 1.225.78 1.917 2.088 2m-.066 4.07c-3.484.015-6.14-2.58-6.166-6.014-.02-3.44 2.63-6.144 6.047-6.175a6.075 6.075 0 0 1 6.14 6.076c.02 3.522-2.517 6.097-6.02 6.112" fill="#930194"/>
		<path d="M166.42 170.18c1.148-.206 1.908-.842 1.856-2.12-.05-1.313-.9-1.907-2.108-1.86-1.163.056-1.877.82-1.835 1.98.04 1.225.78 1.918 2.088 2m-.066 4.07c-3.484.015-6.14-2.58-6.166-6.014-.02-3.438 2.63-6.142 6.047-6.173a6.075 6.075 0 0 1 6.14 6.075c.02 3.52-2.517 6.096-6.02 6.112" fill="#CD5ACF"/>
		<path d="M49.894 77.396c-1.47-.117-3.173-.01-3.144-2.068.035-1.936 1.66-1.868 3.11-1.966.24-1.41-.054-3.282 2.168-3.17 1.948.103 1.806 1.727 1.923 3.146 1.456.176 3.272-.04 3.1 2.21-.14 1.872-1.668 1.736-3.074 1.814-.205 1.404.048 3.214-2.173 3.136-2.045-.074-1.7-1.78-1.91-3.102m81.231-54.309c.016-.88.755-.85 1.414-.894.107-.64-.026-1.492.984-1.44.885.046.82.784.874 1.43.662.08 1.487-.02 1.41 1.003-.065.852-.76.79-1.4.825-.092.64.024 1.462-.986 1.426-.93-.033-.772-.81-.868-1.41-.668-.053-1.442-.004-1.43-.94zm32.735 98.728c-.868 1.01-1.802.802-3.633-.714-1.83 1.503-2.764 1.702-3.64.706-1.31-1.493-.06-2.475.847-3.54-.906-1.107-2.255-2.206-.776-3.654 1.387-1.356 2.46-.175 3.516.82 1.108-.854 2.192-2.25 3.627-.8 1.47 1.482.05 2.546-.794 3.66.93 1.044 2.144 2.02.853 3.523z" fill="#00AEF0"/>
		<path d="M160.34 67.687c-1.207-.01-2.35-1.173-2.34-2.37.01-1.227 1.133-2.322 2.363-2.317 1.25.005 2.334 1.105 2.324 2.346-.01 1.232-1.137 2.35-2.348 2.34zm-122.376 26.5c-1.206-.01-2.35-1.173-2.34-2.37.01-1.227 1.134-2.322 2.364-2.317 1.25.005 2.334 1.105 2.324 2.346-.01 1.232-1.137 2.35-2.348 2.34z" stroke="#4A4A4A" fill="#00AEF0"/>
		<path d="M15.462 108.62c1.33-.037 2.486 1.056 2.522 2.38.036 1.305-1.088 2.49-2.398 2.533-1.268.04-2.506-1.135-2.547-2.414-.037-1.295 1.097-2.465 2.422-2.5" fill="#00AEF0"/>
		<path d="M110.595 34.755c0 1.387-1.067 2.423-2.475 2.403-1.315-.02-2.356-1.026-2.402-2.326-.052-1.356 1.036-2.475 2.413-2.49 1.403-.02 2.465 1.02 2.465 2.413" fill="#4A4A4A"/>
		<path d="M190.627 90.812c-1.233-.02-2.34-1.164-2.314-2.398.024-1.274 1.1-2.31 2.387-2.29a2.337 2.337 0 0 1 2.3 2.365c-.02 1.267-1.116 2.342-2.373 2.322" fill="#80D8ED"/>
		<path d="M130.658 172.375c-1.283.005-2.277-.935-2.34-2.215-.076-1.35.898-2.426 2.23-2.47 1.358-.05 2.416.934 2.45 2.275a2.353 2.353 0 0 1-2.34 2.41z" fill="#9ECC42"/>
		<path d="M75.514 168.767c-2.486-5.715-2.914-10.557-2.98-12.46v-15.654c0-11.96-9.743-21.653-21.76-21.653-12.02 0-21.763 9.694-21.763 21.653v15.88c-.092 2.047-.58 6.742-2.97 12.234-3.21 7.38-.554 6.5 1.827 5.894 2.38-.604 7.697-2.974 9.358-.054 1.66 2.92 3.045 5.454 6.92 3.8 3.876-1.65 5.703-2.202 6.256-2.202h.754c.552 0 2.38.55 6.255 2.203 3.875 1.653 5.26-.882 6.92-3.8 1.66-2.92 6.976-.55 9.357.054 2.38.608 5.037 1.488 1.827-5.893" fill="#FFF"/>
		<path d="M79.06 168.767c-2.484-5.715-2.912-10.557-2.98-12.46v-15.654c0-11.96-9.74-21.653-21.76-21.653-12.018 0-21.76 9.694-21.76 21.653v15.88c-.094 2.047-.582 6.742-2.972 12.234-3.212 7.38-.554 6.5 1.827 5.894 2.38-.604 7.697-2.974 9.357-.054 1.66 2.92 3.046 5.454 6.92 3.8 3.877-1.65 5.703-2.202 6.257-2.202h.752c.552 0 2.38.55 6.255 2.203 3.876 1.653 5.26-.882 6.92-3.8 1.66-2.92 6.977-.55 9.358.054 2.38.608 5.037 1.488 1.826-5.893" fill="#00AEF0"/>
		<path d="M76.14 168.767c-2.487-5.715-2.915-10.557-2.98-12.46v-15.654c0-11.96-9.744-21.653-21.762-21.653-12.02 0-21.762 9.694-21.762 21.653v15.88c-.093 2.047-.58 6.742-2.97 12.234-3.212 7.38-.554 6.5 1.826 5.894 2.38-.604 7.697-2.974 9.358-.054 1.66 2.92 3.045 5.454 6.92 3.8 3.876-1.65 5.703-2.202 6.256-2.202h.753c.552 0 2.38.55 6.254 2.203 3.876 1.653 5.26-.882 6.92-3.8 1.66-2.92 6.977-.55 9.358.054 2.38.608 5.038 1.488 1.827-5.893" stroke="#4A4A4A" stroke-width="3"/>
		<path d="M44.437 127.99c2.36 0 4.272 2.962 4.272 6.618 0 3.655-1.914 6.62-4.273 6.62-2.36 0-4.272-2.965-4.272-6.62 0-3.656 1.913-6.618 4.272-6.618m6.624 26.212c-5.2 0-9.576-5.008-10.895-10.582 2.547 3.428 6.478 5.63 10.894 5.63 4.414 0 8.345-2.202 10.892-5.63-1.32 5.574-5.696 10.582-10.893 10.582m7.06-12.975c-2.36 0-4.273-2.964-4.273-6.62 0-3.655 1.912-6.617 4.273-6.617 2.36 0 4.27 2.962 4.27 6.618 0 3.655-1.91 6.62-4.27 6.62" fill="#4A4A4A"/>
	</g>
</svg>
