<svg width="58" height="64" xmlns="http://www.w3.org/2000/svg">
	<g fill="none" fill-rule="evenodd">
		<path d="M52.514 51.767c-2.486-5.715-2.914-10.557-2.98-12.46V23.653C49.533 11.693 39.79 2 27.772 2 15.754 2 6.011 11.694 6.011 23.653v15.88c-.093 2.047-.581 6.742-2.97 12.234-3.212 7.38-.555 6.501 1.826 5.894 2.38-.605 7.697-2.975 9.358-.055 1.66 2.919 3.045 5.454 6.92 3.8 3.876-1.651 5.703-2.202 6.256-2.202h.753c.552 0 2.38.55 6.255 2.203 3.876 1.653 5.26-.882 6.921-3.801 1.66-2.92 6.976-.55 9.357.055 2.38.607 5.037 1.487 1.827-5.894" fill="#FFF"/>
		<path d="M56.061 51.767c-2.485-5.715-2.913-10.557-2.98-12.46V23.653C53.081 11.693 43.34 2 31.321 2 19.3 2 9.559 11.694 9.559 23.653v15.88c-.093 2.047-.581 6.742-2.97 12.234-3.213 7.38-.555 6.501 1.826 5.894 2.38-.605 7.697-2.975 9.357-.055 1.66 2.919 3.046 5.454 6.921 3.8 3.876-1.651 5.702-2.202 6.256-2.202h.753c.552 0 2.38.55 6.255 2.203 3.876 1.653 5.26-.882 6.921-3.801 1.66-2.92 6.976-.55 9.357.055 2.38.607 5.037 1.487 1.826-5.894" fill="#00AEF0"/>
		<path d="M53.139 51.767c-2.486-5.715-2.914-10.557-2.98-12.46V23.653C50.159 11.693 40.416 2 28.399 2 16.378 2 6.635 11.694 6.635 23.653v15.88c-.093 2.047-.581 6.742-2.97 12.234-3.212 7.38-.554 6.501 1.826 5.894 2.38-.605 7.697-2.975 9.358-.055 1.66 2.919 3.045 5.454 6.92 3.8 3.876-1.651 5.703-2.202 6.256-2.202h.753c.553 0 2.38.55 6.255 2.203 3.876 1.653 5.26-.882 6.921-3.801 1.66-2.92 6.976-.55 9.357.055 2.381.607 5.038 1.487 1.827-5.894" stroke="#4A4A4A" stroke-width="3"/>
		<g fill="#4A4A4A">
			<path d="M21.437 10.99c2.36 0 4.272 2.962 4.272 6.618 0 3.655-1.913 6.619-4.272 6.619s-4.272-2.964-4.272-6.62c0-3.655 1.913-6.617 4.272-6.617M28.059 37.202c-5.199 0-9.575-5.008-10.894-10.582 2.547 3.428 6.478 5.631 10.894 5.631 4.415 0 8.346-2.203 10.893-5.63-1.319 5.573-5.696 10.581-10.893 10.581M35.118 24.227c-2.361 0-4.273-2.964-4.273-6.62 0-3.655 1.912-6.617 4.273-6.617 2.36 0 4.271 2.962 4.271 6.618 0 3.655-1.911 6.619-4.271 6.619"/>
		</g>
	</g>
</svg>
