<svg width="205" height="205" xmlns="http://www.w3.org/2000/svg" xmlns:xlink="http://www.w3.org/1999/xlink">
	<defs>
		<path id="a" d="M0 48.202V.114h39.41v48.088z"/>
	</defs>
	<g fill="none" fill-rule="evenodd">
		<g transform="translate(25 24)">
			<circle fill="#DAF4FF" cx="77.5" cy="78.5" r="75.5"/>
			<path d="M109.033 88.17c-2.866-6.61-3.36-12.213-3.437-14.414v-18.11c0-13.834-11.235-25.05-25.093-25.05-13.86 0-25.096 11.216-25.096 25.05v18.372c-.107 2.368-.67 7.8-3.425 14.152-3.704 8.538-.64 7.52 2.107 6.82 2.744-.7 8.874-3.443 10.79-.065 1.914 3.376 3.51 6.31 7.98 4.397 4.47-1.912 6.576-2.55 7.214-2.55h.868c.637 0 2.744.638 7.213 2.55 4.47 1.912 6.066-1.02 7.982-4.397 1.914-3.378 8.044-.636 10.79.064 2.745.7 5.81 1.718 2.106-6.82" fill="#00AEF0"/>
			<path d="M104.714 88.17c-2.866-6.61-3.36-12.213-3.437-14.414v-18.11c0-13.834-11.235-25.05-25.093-25.05-13.86 0-25.096 11.216-25.096 25.05v18.372c-.107 2.368-.67 7.8-3.426 14.152-3.703 8.538-.638 7.52 2.107 6.82 2.744-.7 8.875-3.443 10.79-.065 1.914 3.376 3.51 6.31 7.98 4.397 4.47-1.912 6.576-2.55 7.215-2.55h.868c.637 0 2.744.638 7.213 2.55 4.47 1.912 6.066-1.02 7.98-4.397 1.916-3.378 8.046-.636 10.792.064 2.745.7 5.808 1.718 2.106-6.82" stroke="#4A4A4A" stroke-width="3"/>
			<path d="M109.033 88.17c-2.866-6.61-3.36-12.213-3.437-14.414v-18.11c0-13.834-11.235-25.05-25.093-25.05-13.86 0-25.096 11.216-25.096 25.05v18.372c-.107 2.368-.67 7.8-3.425 14.152-3.704 8.538-.64 7.52 2.107 6.82 2.744-.7 8.874-3.443 10.79-.065 1.914 3.376 3.51 6.31 7.98 4.397 4.47-1.912 6.576-2.55 7.214-2.55h.868c.637 0 2.744.638 7.213 2.55 4.47 1.912 6.066-1.02 7.982-4.397 1.914-3.378 8.044-.636 10.79.064 2.745.7 5.81 1.718 2.106-6.82" fill="#00AEF0"/>
			<path d="M104.714 88.17c-2.866-6.61-3.36-12.213-3.437-14.414v-18.11c0-13.834-11.235-25.05-25.093-25.05-13.86 0-25.096 11.216-25.096 25.05v18.372c-.107 2.368-.67 7.8-3.426 14.152-3.703 8.538-.638 7.52 2.107 6.82 2.744-.7 8.875-3.443 10.79-.065 1.914 3.376 3.51 6.31 7.98 4.397 4.47-1.912 6.576-2.55 7.215-2.55h.868c.637 0 2.744.638 7.213 2.55 4.47 1.912 6.066-1.02 7.98-4.397 1.916-3.378 8.046-.636 10.792.064 2.745.7 5.808 1.718 2.106-6.82" stroke="#4A4A4A" stroke-width="3"/>
			<path d="M68.156 40.997c2.72 0 4.926 3.427 4.926 7.656 0 4.23-2.205 7.657-4.926 7.657-2.72 0-4.926-3.428-4.926-7.657 0-4.23 2.206-7.656 4.926-7.656m7.636 30.323c-5.995 0-11.04-5.793-12.562-12.24 2.937 3.965 7.47 6.513 12.562 6.513 5.09 0 9.624-2.548 12.562-6.514-1.52 6.447-6.568 12.24-12.562 12.24m8.14-15.009c-2.722 0-4.927-3.428-4.927-7.657 0-4.23 2.205-7.656 4.927-7.656 2.722 0 4.926 3.427 4.926 7.656 0 4.23-2.204 7.657-4.926 7.657" fill="#4A4A4A"/>
			<path d="M24.76 23.485c1.166-.21 1.938-.856 1.886-2.154-.053-1.333-.914-1.937-2.142-1.89-1.182.058-1.906.836-1.864 2.012.042 1.245.792 1.95 2.12 2.033m-.067 4.134c-3.54.015-6.238-2.622-6.264-6.11-.022-3.493 2.67-6.24 6.142-6.272a6.172 6.172 0 0 1 6.237 6.172c.02 3.577-2.558 6.193-6.117 6.21" fill="#930194"/>
			<path d="M129.332 54.77c1.166-.21 1.938-.855 1.885-2.153-.052-1.334-.913-1.938-2.142-1.89-1.18.057-1.906.834-1.864 2.01.043 1.246.794 1.95 2.122 2.034m-.068 4.135c-3.54.015-6.238-2.62-6.264-6.11-.02-3.492 2.673-6.24 6.143-6.27a6.17 6.17 0 0 1 6.238 6.17c.022 3.578-2.556 6.194-6.116 6.21" fill="#CD5ACF"/>
			<path d="M62.738 29.995c-.68-.054-1.466-.004-1.452-.955.016-.894.766-.862 1.436-.907.11-.65-.025-1.516 1-1.464.9.046.835.796.89 1.45.67.083 1.51-.017 1.43 1.022-.065.864-.77.8-1.42.837-.094.648.023 1.483-1.003 1.447-.945-.033-.785-.822-.882-1.432m81.857 56.271c.944 1.062 2.177 2.054.866 3.58-.88 1.027-1.83.815-3.69-.726-1.86 1.526-2.808 1.728-3.7.716-1.33-1.516-.057-2.513.863-3.595-.92-1.126-2.29-2.242-.788-3.714 1.41-1.378 2.5-.178 3.572.835 1.125-.868 2.226-2.286 3.684-.814 1.493 1.506.05 2.587-.806 3.718" fill="#00AEF0"/>
			<path d="M75.757 130.095c-1.225-.01-2.386-1.192-2.376-2.408.01-1.246 1.152-2.36 2.402-2.354 1.27.005 2.37 1.123 2.36 2.384-.01 1.25-1.155 2.388-2.385 2.378zM37.947 68.57c-1.225-.01-2.385-1.19-2.376-2.407.01-1.246 1.152-2.358 2.402-2.353 1.27.005 2.37 1.122 2.36 2.383-.01 1.25-1.154 2.388-2.385 2.378z" stroke="#4A4A4A" fill="#00AEF0"/>
			<path d="M2.835 103.803c1.35-.037 2.525 1.074 2.56 2.42.038 1.325-1.104 2.53-2.435 2.572-1.288.042-2.545-1.152-2.587-2.45-.037-1.316 1.116-2.505 2.462-2.542" fill="#00AEF0"/>
			<path d="M80.43 2.8c0 1.408-1.084 2.46-2.514 2.44-1.336-.02-2.394-1.043-2.44-2.363-.053-1.377 1.052-2.514 2.45-2.53C79.35.327 80.43 1.384 80.43 2.8" fill="#4A4A4A"/>
			<path d="M164.59 48.57c-1.253-.02-2.376-1.182-2.352-2.435.025-1.294 1.12-2.345 2.426-2.325a2.372 2.372 0 0 1 2.336 2.4c-.02 1.29-1.134 2.38-2.41 2.36" fill="#80D8ED"/>
			<path d="M97.954 144.762c-1.303.005-2.313-.95-2.38-2.25-.074-1.372.916-2.464 2.27-2.51 1.378-.05 2.453.95 2.488 2.31a2.393 2.393 0 0 1-2.378 2.45z" fill="#9ECC42"/>
		</g>
		<g transform="translate(46 97)">
			<mask id="b" fill="#fff">
				<use xlink:href="#a"/>
			</mask>
			<path d="M36.226 14.636c0-.535-.024-1.073.008-1.61.02-.31-.112-.426-.372-.526-5.668-2.193-10.975-5.06-15.873-8.68-.21-.153-.344-.17-.563-.01-4.91 3.633-10.228 6.505-15.91 8.698-.286.11-.36.262-.342.547.096 1.635.147 3.275.268 4.908a44.027 44.027 0 0 0 1.48 8.54c1.43 5.178 3.99 9.657 8.004 13.252 2.03 1.817 4.266 3.35 6.536 4.837.217.142.36.077.537-.043 1.117-.766 2.25-1.514 3.36-2.29 5.868-4.094 9.647-9.636 11.36-16.62.887-3.615 1.323-7.29 1.506-11.004m3.177-.795c-.177 5.308-.813 10.538-2.535 15.592-2.14 6.285-5.976 11.283-11.326 15.12-1.615 1.16-3.287 2.24-4.94 3.35-.55.368-1.14.41-1.71.05-2.74-1.74-5.442-3.53-7.884-5.694-4.616-4.09-7.56-9.2-9.184-15.13C.894 23.738.364 20.28.17 16.77.08 15.12.04 13.467 0 11.815c-.023-.963.318-1.426 1.22-1.762 4.21-1.558 8.262-3.447 12.062-5.847 1.79-1.132 3.507-2.38 5.24-3.6.9-.636 1.48-.67 2.344-.006 5.28 4.057 11.08 7.143 17.303 9.447.926.346 1.24.798 1.24 1.792 0 .55-.005 1.1-.007 1.654v.347" fill="#4A4A4A" mask="url(#b)"/>
		</g>
		<path d="M82.453 112.44c-.35 3.657-.947 7.263-1.986 10.79-2.01 6.81-5.993 12.102-11.976 15.873-1.132.713-2.283 1.4-3.423 2.102-.18.112-.32.17-.53.02-2.173-1.572-4.313-3.187-6.233-5.073-3.8-3.733-6.128-8.27-7.306-13.443a43.609 43.609 0 0 1-1.07-8.5c-.045-1.614-.024-3.234-.04-4.853-.005-.28.073-.428.36-.523 5.712-1.903 11.095-4.492 16.108-7.848.223-.148.356-.125.554.036 4.674 3.796 9.783 6.872 15.28 9.296.254.11.38.23.345.536-.057.527-.057 1.058-.082 1.587" fill="#FEFEFE"/>
		<path d="M64.79 127.32c-2.64-2.05-5.255-4.086-7.906-6.145.65-.835 1.283-1.65 1.94-2.492l5.592 4.344c2.92-3.228 5.843-6.45 8.784-9.7l2.343 2.115-10.752 11.88" fill="#4A4A4A"/>
		<path d="M132.786 125.214c-3.71-2.978-6.12-7.776-6.12-13.186 0-9.036 6.716-16.36 15-16.36 8.285 0 15 7.324 15 16.36 0 6.087-3.047 11.397-7.57 14.215l-1.51 15.257h-11.598l-3.202-16.286z" fill="#FFF"/>
		<path d="M156.066 111.96c-.188 3.26-1.354 6.136-3.215 8.775-.837 1.188-1.685 2.366-2.498 3.576-1.16 1.727-2.09 3.562-2.446 5.635-.06.34-.275.316-.512.316-1.636-.002-3.272-.002-4.91-.002-1.617 0-3.234-.01-4.854.006-.353.003-.478-.097-.55-.463-.385-2.003-1.28-3.797-2.415-5.476-.966-1.426-1.973-2.826-2.943-4.252-1.763-2.586-2.686-5.446-2.81-8.576-.22-5.48 2.89-10.26 8.136-12.48 6.724-2.842 14.674.01 17.823 6.403 1.014 2.062 1.327 4.254 1.196 6.54zm-18.714 23.444h10.314v-1.226h-10.314v1.226zm9.253 5.21h-8.196c-.99 0-1.17-.208-1.043-1.268h10.267c.144 1.044-.043 1.27-1.03 1.27zm12.13-36.108c-2.816-6.16-7.71-9.58-14.36-10.37-5.663-.675-10.59 1.185-14.604 5.196-4.48 4.483-5.556 9.96-4.255 16.02.68 3.166 2.233 5.92 4.09 8.53.85 1.2 1.69 2.418 2.47 3.662.723 1.154 1.236 2.413 1.286 3.783.06 1.582.017 3.164.017 4.746h.062c0 1.313-.004 2.626.002 3.94.013 2.34 1.852 4.316 4.182 4.47.306.02.41.11.484.415.498 2.057 2.305 3.48 4.376 3.483 2.11.004 3.906-1.403 4.422-3.494.065-.272.14-.38.438-.4a4.53 4.53 0 0 0 4.228-4.543c0-2.445.018-4.89-.007-7.338-.02-1.828.404-3.53 1.373-5.074a69.286 69.286 0 0 1 2.477-3.653c2.455-3.414 4.19-7.1 4.516-11.358.214-2.768-.033-5.476-1.194-8.014z" fill="#4A4A4A"/>
		<path d="M142.686 108.024a.621.621 0 0 0-.372 0l-8.005 2.122a.719.719 0 0 0-.56.708c.037 5.698 3.09 10.986 8.34 14.524.112.075.26.112.41.112.15 0 .298-.037.41-.112 5.25-3.538 8.303-8.826 8.34-14.524a.719.719 0 0 0-.56-.708l-8.004-2.122z" stroke="#4A4A4A" stroke-width="1.5"/>
		<g>
			<path fill="#FFF" d="M86 116.182l1.773 14.182 10.636 8.863L112.59 141 125 130.364V114.41l-12.41-10.637H98.41"/>
			<path d="M94.355 134.444c1.317 1.32 2.628 2.64 3.952 3.947.096.097.283.147.43.147 4.512.007 9.02.01 13.532-.002a.78.78 0 0 0 .487-.2c3.196-3.184 6.383-6.373 9.567-9.57a.76.76 0 0 0 .21-.485c.014-4.525.012-9.047.007-13.57 0-.125-.028-.287-.106-.37-1.324-1.344-2.657-2.677-3.974-4-8.047 8.044-16.067 16.064-24.105 24.104m-1.828-1.813c8.042-8.04 16.066-16.065 24.1-24.1-1.293-1.29-2.603-2.608-3.927-3.916-.098-.096-.283-.15-.427-.15-4.51-.01-9.022-.01-13.53 0a.756.756 0 0 0-.493.198c-3.205 3.19-6.406 6.387-9.597 9.592a.673.673 0 0 0-.188.416c-.01 4.552-.01 9.1-.002 13.65 0 .124.046.277.13.36 1.315 1.333 2.642 2.657 3.934 3.95m32.466-11.105c0 2.434-.01 4.865.007 7.296.004.528-.16.932-.532 1.305a3880.34 3880.34 0 0 0-10.346 10.343c-.358.36-.75.532-1.264.532-4.902-.01-9.805-.01-14.71 0-.512 0-.903-.167-1.266-.527-3.45-3.463-6.908-6.922-10.373-10.374a1.612 1.612 0 0 1-.508-1.23c.01-4.905.01-9.808-.002-14.714 0-.51.155-.904.518-1.267 3.466-3.453 6.924-6.91 10.376-10.374.35-.35.728-.516 1.226-.516 4.917.01 9.834.01 14.75 0 .5 0 .882.16 1.23.51 3.462 3.476 6.932 6.94 10.405 10.404.337.338.497.712.495 1.194-.014 2.472-.007 4.945-.007 7.417" stroke="#4A4A4A" stroke-width=".5" fill="#4A4A4A"/>
		</g>
		<path d="M90.332 162.247c1.166-.21 1.938-.856 1.885-2.154-.052-1.334-.913-1.938-2.142-1.89-1.18.057-1.906.835-1.864 2.01.043 1.246.794 1.95 2.122 2.034m-.068 4.134c-3.54.017-6.238-2.62-6.264-6.108-.02-3.493 2.673-6.24 6.143-6.272a6.172 6.172 0 0 1 6.238 6.172c.022 3.577-2.556 6.193-6.116 6.21" fill="#CD5ACF"/>
	</g>
</svg>
