<svg width="205" height="205" xmlns="http://www.w3.org/2000/svg">
	<g transform="translate(6 21)" fill="none" fill-rule="evenodd">
		<circle fill="#DAF4FF" cx="96.5" cy="81.5" r="75.5"/>
		<path d="M45.65 8.66c1.223-.22 2.033-.9 1.978-2.262-.055-1.4-.96-2.035-2.25-1.986-1.24.06-2 .877-1.956 2.113.044 1.307.832 2.046 2.227 2.134M45.576 13c-3.716.016-6.55-2.752-6.577-6.414C38.978 2.918 41.806.033 45.45 0A6.48 6.48 0 0 1 52 6.48c.022 3.757-2.685 6.503-6.423 6.52" fill="#930194"/>
		<path d="M160.65 135.66c1.223-.22 2.033-.9 1.978-2.262-.055-1.4-.96-2.035-2.25-1.986-1.24.06-2 .877-1.956 2.113.044 1.307.832 2.046 2.227 2.134m-.073 4.34c-3.716.016-6.55-2.752-6.577-6.414-.022-3.668 2.806-6.553 6.45-6.586a6.48 6.48 0 0 1 6.55 6.48c.022 3.757-2.685 6.503-6.423 6.52" fill="#CD5ACF"/>
		<path d="M34.354 36.69c-1.567-.126-3.385-.012-3.354-2.207.037-2.065 1.77-1.992 3.318-2.096.255-1.504-.058-3.502 2.312-3.382 2.077.11 1.926 1.842 2.05 3.356 1.553.188 3.49-.04 3.308 2.357-.15 1.998-1.78 1.852-3.28 1.935-.22 1.5.05 3.43-2.318 3.345-2.182-.078-1.812-1.898-2.036-3.308m114.171 20.805c-.713-.057-1.54-.005-1.525-1.003.017-.938.805-.905 1.508-.953.116-.684-.026-1.592 1.05-1.538.945.05.877.837.934 1.526.705.085 1.585-.02 1.503 1.07-.07.91-.81.843-1.492.88-.1.68.024 1.56-1.053 1.52-.992-.035-.824-.862-.925-1.503m22.948 22.083c.992 1.115 2.287 2.157.91 3.76-.925 1.078-1.922.855-3.874-.763-1.953 1.602-2.95 1.815-3.885.752-1.397-1.592-.062-2.64.904-3.775-.967-1.18-2.405-2.352-.828-3.898 1.48-1.446 2.625-.186 3.75.877 1.182-.914 2.338-2.402 3.87-.857 1.566 1.582.05 2.717-.85 3.904" fill="#00AEF0"/>
		<path d="M174.495 117c-1.287-.01-2.505-1.25-2.495-2.53.01-1.307 1.208-2.475 2.52-2.47 1.334.005 2.49 1.178 2.48 2.503-.01 1.313-1.214 2.507-2.505 2.497zm-121-72c-1.287-.01-2.505-1.25-2.495-2.53.01-1.307 1.208-2.475 2.52-2.47 1.334.005 2.49 1.178 2.48 2.503-.01 1.313-1.214 2.507-2.505 2.497z" stroke="#4A4A4A" fill="#00AEF0"/>
		<path d="M2.627 103.993c1.418-.038 2.65 1.128 2.69 2.54.037 1.393-1.162 2.658-2.558 2.702-1.354.044-2.674-1.21-2.718-2.574-.04-1.38 1.17-2.628 2.585-2.667" fill="#00AEF0"/>
		<path d="M43.102 70.94c0 1.478-1.14 2.584-2.64 2.562-1.403-.022-2.514-1.095-2.563-2.48-.056-1.447 1.104-2.64 2.573-2.657 1.496-.022 2.63 1.09 2.63 2.574" fill="#4A4A4A"/>
		<path d="M171.47 32c-1.316-.022-2.496-1.242-2.47-2.558.027-1.36 1.175-2.463 2.547-2.442 1.367.016 2.48 1.157 2.453 2.52-.02 1.355-1.19 2.5-2.53 2.48" fill="#80D8ED"/>
		<path d="M122.502 155c-1.368.005-2.43-.997-2.498-2.363-.08-1.44.96-2.587 2.38-2.635 1.45-.053 2.578.997 2.615 2.427a2.513 2.513 0 0 1-2.498 2.57z" fill="#9ECC42"/>
		<path d="M139.137 105.256c-3.324-7.61-3.896-14.056-3.985-16.59v-20.84c0-15.92-13.028-28.826-29.097-28.826-16.072 0-29.1 12.905-29.1 28.826V88.97c-.124 2.724-.777 8.973-3.972 16.286-4.295 9.825-.74 8.654 2.443 7.846 3.183-.805 10.29-3.96 12.512-.074 2.22 3.886 4.072 7.26 9.254 5.06 5.183-2.2 7.625-2.932 8.365-2.932h1.007c.74 0 3.182.733 8.364 2.932 5.182 2.2 7.033-1.174 9.255-5.06 2.22-3.887 9.328-.73 12.51.074 3.185.808 6.737 1.98 2.444-7.846" fill="#00AEF0"/>
		<path d="M134.137 105.256c-3.324-7.61-3.896-14.056-3.985-16.59v-20.84c0-15.92-13.028-28.826-29.097-28.826-16.072 0-29.1 12.905-29.1 28.826V88.97c-.124 2.724-.777 8.973-3.972 16.286-4.295 9.825-.74 8.654 2.443 7.846 3.183-.805 10.29-3.96 12.512-.074 2.22 3.886 4.072 7.26 9.254 5.06 5.183-2.2 7.625-2.932 8.365-2.932h1.007c.74 0 3.182.733 8.364 2.932 5.182 2.2 7.033-1.174 9.255-5.06 2.22-3.887 9.328-.73 12.51.074 3.185.808 6.737 1.98 2.444-7.846" stroke="#4A4A4A" stroke-width="3"/>
		<path d="M139.137 105.256c-3.324-7.61-3.896-14.056-3.985-16.59v-20.84c0-15.92-13.028-28.826-29.097-28.826-16.072 0-29.1 12.905-29.1 28.826V88.97c-.124 2.724-.777 8.973-3.972 16.286-4.295 9.825-.74 8.654 2.443 7.846 3.183-.805 10.29-3.96 12.512-.074 2.22 3.886 4.072 7.26 9.254 5.06 5.183-2.2 7.625-2.932 8.365-2.932h1.007c.74 0 3.182.733 8.364 2.932 5.182 2.2 7.033-1.174 9.255-5.06 2.22-3.887 9.328-.73 12.51.074 3.185.808 6.737 1.98 2.444-7.846" fill="#00AEF0"/>
		<path d="M134.137 105.256c-3.324-7.61-3.896-14.056-3.985-16.59v-20.84c0-15.92-13.028-28.826-29.097-28.826-16.072 0-29.1 12.905-29.1 28.826V88.97c-.124 2.724-.777 8.973-3.972 16.286-4.295 9.825-.74 8.654 2.443 7.846 3.183-.805 10.29-3.96 12.512-.074 2.22 3.886 4.072 7.26 9.254 5.06 5.183-2.2 7.625-2.932 8.365-2.932h1.007c.74 0 3.182.733 8.364 2.932 5.182 2.2 7.033-1.174 9.255-5.06 2.22-3.887 9.328-.73 12.51.074 3.185.808 6.737 1.98 2.444-7.846" stroke="#4A4A4A" stroke-width="3"/>
		<path d="M91.703 51c3.15 0 5.702 3.955 5.702 8.835 0 4.88-2.553 8.835-5.702 8.835-3.15 0-5.703-3.956-5.703-8.835C86 54.955 88.553 51 91.703 51m8.839 34.99c-6.94 0-12.782-6.685-14.542-14.125 3.4 4.576 8.648 7.517 14.542 7.517 5.893 0 11.14-2.94 14.54-7.517-1.76 7.44-7.602 14.126-14.54 14.126m9.422-17.321c-3.15 0-5.703-3.956-5.703-8.835 0-4.88 2.553-8.835 5.704-8.835 3.15 0 5.703 3.955 5.703 8.835 0 4.88-2.552 8.835-5.703 8.835" fill="#4A4A4A"/>
		<path d="M131.38 50.903h-.63c-1.676 0-3.35.01-5.028-.003-.704-.005-1.207-.472-1.206-1.074.002-.617.48-1.034 1.21-1.043.48-.007.96-.002 1.436-.002.078-10.818-7.157-20.53-16.912-23.71v.616c0 2.39-.005 4.783.005 7.174.003.495-.148.883-.606 1.105-.782.38-1.53-.19-1.532-1.167-.002-4.26 0-8.52 0-12.78v-.638h-5.276v10.433h-2.14V25.48c0-1.87-.004-3.738.006-5.605.002-.345-.035-.574-.478-.545-.505.034-1.016.008-1.524.008H95.44v.72c0 4.167.002 8.332 0 12.498 0 .994-.383 1.533-1.085 1.528-.693-.007-1.048-.508-1.048-1.487v-7.6c-5.802 2.133-10.264 5.734-13.392 10.926-2.372 3.94-3.515 8.224-3.545 12.86.582 0 1.088-.002 1.593 0 .488.003.822.234.993.683.282.738-.256 1.426-1.145 1.434-1.673.013-3.348.003-5.025.003h-.595v4.128h59.19v-4.127zm-21.13-28.246c12.042 4.658 18.395 13.318 19.177 26.124h2.748c1.053.004 1.377.323 1.38 1.37.002 1.908.002 3.812-.003 5.718-.003.97-.36 1.327-1.32 1.327-20.312.002-40.623.002-60.935 0-.923 0-1.29-.363-1.293-1.298-.006-1.942-.004-3.884 0-5.826.004-.94.352-1.284 1.29-1.287.954-.005 1.91-.002 2.876-.002.09-1.07.146-2.092.26-3.107.61-5.393 2.68-10.177 6.163-14.35 3.268-3.915 7.343-6.7 12.186-8.36.4-.136.553-.3.54-.737-.036-1.232-.013-2.466-.012-3.698 0-.945.372-1.317 1.337-1.317 4.52-.002 9.036 0 13.554 0 .282 0 .564-.007.846 0 .807.028 1.202.43 1.204 1.228.003 1.437 0 2.873 0 4.22z" stroke="#4A4A4A" stroke-width="2" fill="#4A4A4A"/>
		<path d="M101.46 46.795c2.935.006 5.317-2.293 5.32-5.134.003-2.84-2.382-5.18-5.284-5.18-2.883-.002-5.278 2.318-5.29 5.12-.01 2.864 2.343 5.19 5.254 5.195zm.01 2.058v.002H87.126c-.207 0-.415-.003-.62.02-.52.065-.877.457-.895.963-.026.727.447 1.102 1.41 1.102 9.62.002 19.24.002 28.86.002.945 0 1.478-.383 1.478-1.056 0-.677-.512-1.03-1.486-1.03-4.8-.003-9.6-.003-14.402-.003zm29.53 2.1V55H72v-4.046h.594c1.67 0 3.34.01 5.01-.005.885-.007 1.42-.68 1.142-1.405-.17-.44-.506-.668-.992-.67-.504-.003-1.008 0-1.586 0 .03-4.544 1.17-8.744 3.534-12.606 3.115-5.09 7.563-8.62 13.348-10.71v7.447c0 .96.352 1.452 1.045 1.458.7.006 1.082-.522 1.082-1.496V20.01h3.254c.508 0 1.015.026 1.52-.008.44-.028.478.196.475.535-.008 1.83-.003 3.663-.003 5.494v4.25h2.132V20.05h5.257v.63c0 4.174 0 8.35.002 12.524 0 .958.748 1.516 1.526 1.146.457-.218.606-.598.604-1.083-.01-2.345-.005-4.69-.005-7.033v-.606c9.724 3.12 16.934 12.638 16.856 23.246-.473 0-.95-.007-1.43 0-.728.01-1.204.417-1.206 1.024 0 .59.5 1.047 1.202 1.05 1.67.014 3.34.006 5.01.006h.63z" fill="#FEFEFE"/>
		<path d="M101.987 49h14.517c.982 0 1.496.34 1.496.99 0 .643-.537 1.01-1.49 1.01-9.696 0-19.393 0-29.09-.002-.968 0-1.445-.36-1.42-1.055.02-.484.38-.86.904-.922.207-.022.416-.018.624-.018h14.46V49zm.023-4.012a2.972 2.972 0 0 0 2.977-2.966 2.996 2.996 0 0 0-3-3.01 2.992 2.992 0 0 0-2.972 2.98 2.96 2.96 0 0 0 2.996 2.996M101.97 47c-2.755-.005-4.98-2.26-4.97-5.036.01-2.716 2.276-4.966 5.002-4.964 2.745 0 5 2.27 4.998 5.025-.003 2.753-2.256 4.98-5.03 4.975" fill="#4A4A4A"/>
		<path d="M102.513 46A3.47 3.47 0 0 1 99 42.492 3.506 3.506 0 0 1 102.484 39c1.94-.01 3.523 1.577 3.516 3.526A3.48 3.48 0 0 1 102.513 46" fill="#FEFEFE"/>
		<path d="M144.906 79.868c-.247-.258-.506-.6-.828-.853-1.087-.855-2.297-1.17-3.573-.492-1.913 1.02-3.635 2.314-5.065 3.958-1.42 1.633-2.06 3.53-1.808 5.705.17 1.45.726 2.746 1.474 3.977.38.63.38.63-.13 1.136l-21.973 21.975c-.145.144-.29.283-.428.432a3.343 3.343 0 0 0 .2 4.748c1.355 1.228 3.337 1.147 4.693-.207 5.377-5.37 10.747-10.744 16.12-16.116 2.113-2.116 4.23-4.228 6.34-6.35.205-.207.348-.243.608-.08.5.314 1.014.614 1.548.86 2.882 1.322 5.653 1.222 8.185-.81 1.82-1.458 3.187-3.318 4.247-5.385.23-.448.285-1.038.26-1.557-.06-1.205-.817-2.038-1.78-2.875-.654.69-1.278 1.42-1.975 2.067-1.01.94-2.118 1.748-3.414 2.26-1.87.74-3.608.604-5.15-.788-.35-.316-.683-.65-.995-1.002-.936-1.058-1.32-2.285-1.107-3.695.198-1.314.77-2.473 1.583-3.488.94-1.174 1.968-2.276 2.966-3.42zm-2.276-4.374c.27.07.537.144.806.218.842.227 1.635.586 2.276 1.17 1.094 1 2.13 2.055 3.228 3.124l-1.357 1.203c-1.223 1.08-2.42 2.184-3.385 3.51-.56.776-1.092 1.576-1.19 2.57-.013.157-.008.322.012.48.17 1.274 1.982 2.477 3.207 2.12 1.11-.325 2.05-.975 2.864-1.76 1.128-1.077 2.18-2.235 3.262-3.362.205-.212.392-.437.603-.677.09.077.165.126.23.19.81.81 1.628 1.61 2.428 2.43 1.278 1.314 1.993 2.88 1.866 4.73-.05.71-.213 1.464-.536 2.088-1.296 2.494-2.942 4.755-5.19 6.472-3.293 2.522-6.884 2.682-10.625 1.087-.162-.067-.318-.14-.53-.236-.102.126-.195.257-.307.373-6.962 6.965-13.927 13.925-20.887 20.892-1.285 1.287-2.82 1.922-4.644 1.882-2.724-.056-5.265-2.267-5.677-4.965-.323-2.104.267-3.91 1.773-5.414L131.776 92.7c.114-.112.252-.203.374-.306-.042-.01-.09-.015-.13-.024-.32-1.063-.73-2.11-.934-3.194-.646-3.453.358-6.433 2.77-8.954a21.406 21.406 0 0 1 5.288-4.013c.604-.327 1.296-.483 1.95-.716h1.536z" stroke="#4A4A4A" fill="#4A4A4A"/>
		<path d="M145.146 79.706c-.995 1.138-2.022 2.237-2.96 3.406-.81 1.012-1.38 2.165-1.58 3.474-.212 1.405.172 2.627 1.105 3.68.312.352.646.685.994 1 1.538 1.386 3.274 1.522 5.138.785 1.293-.51 2.4-1.315 3.406-2.25.696-.647 1.318-1.372 1.97-2.06.96.834 1.717 1.664 1.777 2.864.024.517-.03 1.105-.26 1.55-1.058 2.06-2.422 3.913-4.238 5.366-2.526 2.024-5.29 2.124-8.166.808a13.887 13.887 0 0 1-1.543-.86c-.26-.16-.402-.125-.607.08-2.104 2.116-4.217 4.22-6.326 6.327-5.36 5.35-10.717 10.705-16.08 16.055-1.354 1.35-3.332 1.428-4.683.206a3.33 3.33 0 0 1-.2-4.73c.14-.15.283-.287.428-.43l21.923-21.89c.507-.505.51-.507.13-1.133-.747-1.226-1.3-2.518-1.472-3.962-.25-2.167.387-4.055 1.805-5.68 1.426-1.64 3.144-2.928 5.053-3.944 1.273-.675 2.48-.362 3.564.49.322.253.58.593.826.85" fill="#FEFEFE"/>
		<g>
			<path d="M91.256 114.465c.024-13.57-11.11-24.717-24.696-24.72-13.56-.005-24.643 11.053-24.704 24.638-.06 13.557 11.054 24.713 24.66 24.76 13.556.046 24.715-11.085 24.74-24.678M66.552 83.89c16.863 0 30.55 13.675 30.558 30.53.008 16.892-13.695 30.595-30.587 30.582-16.855-.012-30.53-13.706-30.525-30.574.004-16.86 13.69-30.538 30.554-30.538" fill="#4A4A4A"/>
			<path d="M63.426 127.274c6.632-7.326 13.233-14.62 19.86-21.945-1.457-1.32-2.868-2.596-4.326-3.914-5.436 6.004-10.828 11.964-16.228 17.923-3.465-2.696-6.882-5.348-10.327-8.027-1.21 1.56-2.378 3.062-3.58 4.61l14.6 11.35M91 114.52c-.024 13.483-11.093 24.524-24.54 24.48-13.5-.048-24.52-11.114-24.46-24.56.06-13.475 11.053-24.444 24.504-24.44 13.47.004 24.52 11.06 24.496 24.52" fill="#9ECC42"/>
			<path d="M63.828 127L49 115.586c1.22-1.556 2.406-3.067 3.634-4.635 3.5 2.695 6.97 5.362 10.49 8.072 5.484-5.992 10.96-11.985 16.48-18.022 1.482 1.325 2.914 2.61 4.396 3.934-6.732 7.366-13.436 14.7-20.172 22.066" fill="#4A4A4A"/>
		</g>
	</g>
</svg>
