<?xml version="1.0" encoding="UTF-8"?>
<svg width="58px" height="64px" viewBox="0 0 58 64" version="1.1" xmlns="http://www.w3.org/2000/svg" xmlns:xlink="http://www.w3.org/1999/xlink">
    <!-- Generator: Sketch 50 (54983) - http://www.bohemiancoding.com/sketch -->
    <title>Icon- ghostery</title>
    <desc>Created with Sketch.</desc>
    <defs></defs>
    <g id="Tutorial-1" stroke="none" stroke-width="1" fill="none" fill-rule="evenodd">
        <g id="Custom-setup-1(-notification-about-overwriting-settings)" transform="translate(-507.000000, -228.000000)">
            <g id="Group-20" transform="translate(330.000000, 184.000000)">
                <g id="Icon--ghostery" transform="translate(178.000000, 46.000000)">
                    <path d="M51.5135026,49.7674179 C49.0281896,44.0523916 48.6001727,39.2098989 48.5334732,37.3072722 L48.5334732,21.6527147 C48.5334732,9.6938334 38.790644,0 26.7729908,0 C14.753997,0 5.01083259,9.6938334 5.01083259,21.6527147 L5.01083259,37.5335728 C4.91798948,39.5804874 4.42964139,44.2749489 2.04018806,49.7674179 C-1.17144637,57.1478805 1.4864811,56.2682007 3.86721992,55.6611025 C6.24762356,55.0563865 11.5638137,52.685845 13.2245994,55.6059737 C14.8847147,58.5247411 16.2696525,61.0596483 20.145266,59.406803 C24.0212147,57.7546384 25.8475762,57.2040303 26.400948,57.2040303 L27.1537481,57.2040303 C27.7064496,57.2040303 29.5334814,57.7546384 33.409095,59.406803 C37.2847085,61.0596483 38.6689759,58.5247411 40.3300968,55.6059737 C41.9902121,52.685845 47.3060671,55.0563865 49.6871411,55.6611025 C52.0678799,56.2682007 54.7244667,57.1478805 51.5135026,49.7674179" id="Path-Copy-22" fill="#FFFFFF"></path>
                    <path d="M55.0613663,49.7674179 C52.5760533,44.0523916 52.1480365,39.2098989 52.0813369,37.3072722 L52.0813369,21.6527147 C52.0813369,9.6938334 42.3385077,0 30.3208545,0 C18.3018607,0 8.5586963,9.6938334 8.5586963,21.6527147 L8.5586963,37.5335728 C8.46585319,39.5804874 7.9775051,44.2749489 5.58805177,49.7674179 C2.37641734,57.1478805 5.03434481,56.2682007 7.41508363,55.6611025 C9.79548727,55.0563865 15.1116774,52.685845 16.7724631,55.6059737 C18.4325784,58.5247411 19.8175162,61.0596483 23.6931297,59.406803 C27.5690784,57.7546384 29.3954399,57.2040303 29.9488117,57.2040303 L30.7016119,57.2040303 C31.2543133,57.2040303 33.0813452,57.7546384 36.9569587,59.406803 C40.8325722,61.0596483 42.2168396,58.5247411 43.8779605,55.6059737 C45.5380759,52.685845 50.8539308,55.0563865 53.2350048,55.6611025 C55.6157436,56.2682007 58.2723304,57.1478805 55.0613663,49.7674179" id="Path-Copy-22" fill="#00AEF0"></path>
                    <path d="M52.1387736,49.7674179 C49.6534606,44.0523916 49.2254438,39.2098989 49.1587442,37.3072722 L49.1587442,21.6527147 C49.1587442,9.6938334 39.415915,0 27.3982618,0 C15.379268,0 5.63610362,9.6938334 5.63610362,21.6527147 L5.63610362,37.5335728 C5.5432605,39.5804874 5.05491242,44.2749489 2.66545908,49.7674179 C-0.546175344,57.1478805 2.11175213,56.2682007 4.49249094,55.6611025 C6.87289459,55.0563865 12.1890847,52.685845 13.8498704,55.6059737 C15.5099858,58.5247411 16.8949235,61.0596483 20.770537,59.406803 C24.6464857,57.7546384 26.4728473,57.2040303 27.026219,57.2040303 L27.7790192,57.2040303 C28.3317206,57.2040303 30.1587525,57.7546384 34.034366,59.406803 C37.9099795,61.0596483 39.2942469,58.5247411 40.9553678,55.6059737 C42.6154832,52.685845 47.9313381,55.0563865 50.3124121,55.6611025 C52.6931509,56.2682007 55.3497377,57.1478805 52.1387736,49.7674179" id="Path-Copy-22" stroke="#4A4A4A" stroke-width="3"></path>
                    <g id="Group" transform="translate(16.165154, 8.989520)" fill="#4A4A4A">
                        <path d="M4.27196892,0 C6.63111594,0 8.54360049,2.96254526 8.54360049,6.61829443 C8.54360049,10.2737066 6.63111594,13.2372629 4.27196892,13.2372629 C1.91282191,13.2372629 0,10.2737066 0,6.61829443 C0,2.96254526 1.91282191,0 4.27196892,0" id="Path-Copy-23"></path>
                        <path d="M10.8936388,26.2128746 C5.69494649,26.2128746 1.31873383,21.2040803 0,15.6308152 C2.54705563,19.0587541 6.47829261,21.2617069 10.8936388,21.2617069 C15.3086477,21.2617069 19.2395473,19.0587541 21.7869403,15.6308152 C20.4682065,21.2040803 16.0913191,26.2128746 10.8936388,26.2128746" id="Path-Copy-24"></path>
                        <path d="M17.9523473,13.2372629 C15.5915135,13.2372629 13.6797036,10.2737066 13.6797036,6.61829443 C13.6797036,2.96254526 15.5915135,0 17.9523473,0 C20.3128437,0 22.2239788,2.96254526 22.2239788,6.61829443 C22.2239788,10.2737066 20.3128437,13.2372629 17.9523473,13.2372629" id="Path-Copy-25"></path>
                    </g>
                </g>
            </g>
        </g>
    </g>
</svg>