<svg width="205" height="205" xmlns="http://www.w3.org/2000/svg">
	<g transform="translate(17 27)" fill="none" fill-rule="evenodd">
		<circle fill="#DAF4FF" cx="85.5" cy="75.5" r="75.5"/>
		<path d="M36.65 29.66c1.223-.22 2.033-.9 1.978-2.262-.055-1.4-.96-2.035-2.25-1.986-1.24.06-2 .877-1.956 2.113.044 1.307.832 2.046 2.227 2.134M36.576 34c-3.716.016-6.55-2.752-6.577-6.414-.022-3.668 2.806-6.553 6.45-6.586a6.48 6.48 0 0 1 6.55 6.48c.022 3.757-2.685 6.503-6.423 6.52" fill="#930194"/>
		<path d="M134.65 119.66c1.223-.22 2.033-.9 1.978-2.262-.055-1.4-.96-2.035-2.25-1.986-1.24.06-2 .877-1.956 2.113.044 1.307.832 2.046 2.227 2.134m-.073 4.34c-3.716.016-6.55-2.752-6.577-6.414-.022-3.668 2.806-6.553 6.45-6.586a6.48 6.48 0 0 1 6.55 6.48c.022 3.757-2.685 6.503-6.423 6.52" fill="#CD5ACF"/>
		<path d="M3.354 85.69C1.787 85.563-.03 85.677 0 83.482c.037-2.065 1.77-1.992 3.318-2.096.255-1.504-.058-3.502 2.312-3.382 2.077.11 1.926 1.842 2.05 3.356 1.553.188 3.49-.04 3.308 2.357-.15 1.998-1.78 1.852-3.28 1.935-.22 1.5.05 3.43-2.318 3.345-2.182-.078-1.812-1.898-2.036-3.308m124.171-1.194c-.713-.057-1.54-.005-1.525-1.003.017-.938.805-.905 1.508-.953.116-.684-.026-1.592 1.05-1.538.945.05.877.837.934 1.526.705.085 1.585-.02 1.503 1.07-.07.91-.81.843-1.492.88-.1.68.024 1.56-1.053 1.52-.992-.035-.824-.862-.925-1.503m27.948-33.917c.992 1.115 2.287 2.157.91 3.76-.925 1.078-1.922.855-3.874-.763-1.953 1.602-2.95 1.815-3.885.752-1.397-1.592-.062-2.64.904-3.775-.967-1.18-2.405-2.352-.828-3.898 1.48-1.446 2.625-.186 3.75.877 1.182-.914 2.338-2.402 3.87-.857 1.566 1.582.05 2.717-.85 3.904" fill="#00AEF0"/>
		<path d="M168.495 91c-1.287-.01-2.505-1.25-2.495-2.53.01-1.307 1.208-2.475 2.52-2.47 1.334.005 2.49 1.178 2.48 2.503-.01 1.313-1.214 2.507-2.505 2.497zm-105-38c-1.287-.01-2.505-1.25-2.495-2.53.01-1.307 1.208-2.475 2.52-2.47 1.334.005 2.49 1.178 2.48 2.503-.01 1.313-1.214 2.507-2.505 2.497z" stroke="#4A4A4A" fill="#00AEF0"/>
		<path d="M26.627 105.993c1.42-.038 2.65 1.128 2.69 2.54.037 1.393-1.162 2.658-2.56 2.702-1.352.044-2.672-1.21-2.716-2.574-.037-1.38 1.173-2.628 2.587-2.667" fill="#00AEF0"/>
		<path d="M64.102 22.94c0 1.478-1.14 2.584-2.64 2.562-1.403-.022-2.514-1.095-2.563-2.48-.056-1.447 1.104-2.64 2.573-2.657 1.496-.022 2.63 1.09 2.63 2.574" fill="#4A4A4A"/>
		<path d="M108.47 12c-1.316-.022-2.496-1.242-2.47-2.558.027-1.36 1.175-2.463 2.547-2.442 1.367.016 2.48 1.157 2.453 2.52-.02 1.355-1.19 2.5-2.53 2.48" fill="#80D8ED"/>
		<path d="M156.502 19c-1.368.005-2.43-.997-2.498-2.363-.08-1.44.96-2.587 2.38-2.635 1.45-.053 2.578.997 2.615 2.427a2.513 2.513 0 0 1-2.498 2.57z" fill="#9ECC42"/>
		<path d="M133.808 63.36c.063-2.13-1.573-3.868-3.715-3.94-2.133-.072-3.876 1.556-3.956 3.698-.08 2.16 1.576 3.922 3.748 3.978 2.13.05 3.86-1.594 3.923-3.736M78.44 18.2a3.807 3.807 0 0 0-3.834 3.825 3.806 3.806 0 0 0 3.876 3.846c2.138-.024 3.817-1.724 3.8-3.857a3.809 3.809 0 0 0-3.842-3.813m10.225 59.202c3.485.06 6.435-2.742 6.494-6.176.067-3.637-2.717-6.617-6.223-6.668-3.587-.05-6.545 2.733-6.596 6.222-.054 3.68 2.69 6.558 6.325 6.622m42.593-50.188c.025-3.506-2.873-6.434-6.392-6.468-3.51-.03-6.44 2.856-6.49 6.383-.046 3.518 2.894 6.49 6.435 6.498 3.507.008 6.43-2.9 6.448-6.414m-27.055 11.594c-4.98.004-8.976 4-8.984 8.976a8.966 8.966 0 0 0 8.957 9.01c4.994.02 9.044-4.025 9.023-9.018a8.966 8.966 0 0 0-8.997-8.968M92.635 62.812l4.084-6.124c-2.305-2.08-3.737-4.607-4.047-7.706-.31-3.102.53-5.88 2.367-8.287-4.373-4.38-8.738-8.746-13.17-13.18-1.683 1.02-3.617 1.293-5.636.575-1.453-.523-2.567-1.47-3.353-2.8-1.563-2.657-.998-6.09 1.33-8.118 2.33-2.032 5.743-2.108 8.216-.204 2.087 1.61 3.528 5.01 1.496 8.53 4.378 4.377 8.742 8.742 13.15 13.153 2.044-1.584 4.453-2.46 7.148-2.455 2.673.004 5.066.866 7.14 2.47 2.052-2.046 4.092-4.08 6.162-6.147-1.555-2.244-2.146-4.76-1.466-7.496.527-2.142 1.717-3.876 3.51-5.164a8.978 8.978 0 0 1 11.764 1.088 9.003 9.003 0 0 1 .603 11.802c-2.57 3.285-7.73 4.972-12.426 1.772-2.05 2.044-4.08 4.076-6.13 6.116 2.662 3.553 3.146 7.84 1.42 11.955.14.098.277.21.43.298 3.154 1.896 6.315 3.783 9.46 5.695.408.247.638.22.995-.098 2.095-1.865 4.925-2.2 7.33-.913 2.415 1.287 3.69 3.84 3.337 6.676-.315 2.52-2.347 4.684-5.003 5.308-4.547 1.07-8.78-3.19-7.62-7.722.153-.6-.013-.837-.485-1.118-3.05-1.806-6.085-3.637-9.124-5.46-.217-.128-.434-.243-.7-.392-1.76 2.176-3.962 3.655-6.7 4.26-2.706.598-5.312.24-7.82-1.004-1.376 2.048-2.736 4.075-4.1 6.103 4.288 4.097 3.463 9.906.484 13.004-3.11 3.23-8.172 3.71-11.836 1.063-3.62-2.622-4.772-7.57-2.68-11.522 1.924-3.646 6.654-6.196 11.87-3.956" fill="#4A4A4A"/>
		<path d="M104.493 39A9.474 9.474 0 0 1 114 48.473c.022 5.275-4.257 9.554-9.534 9.527A9.474 9.474 0 0 1 95 48.486 9.472 9.472 0 0 1 104.493 39M130 27.528c-.022 3.547-2.968 6.48-6.51 6.472-3.573-.01-6.537-3.007-6.49-6.562.048-3.56 3.007-6.468 6.545-6.438 3.55.035 6.48 2.99 6.455 6.528M87.414 78c-3.68-.065-6.47-2.973-6.413-6.702.053-3.527 3.052-6.35 6.69-6.297 3.555.052 6.378 3.067 6.31 6.75-.062 3.475-3.052 6.31-6.586 6.25M76.494 20A3.475 3.475 0 0 1 80 23.48 3.47 3.47 0 0 1 76.537 27 3.472 3.472 0 0 1 73 23.49 3.47 3.47 0 0 1 76.494 20m54.504 43.594a3.476 3.476 0 0 1-3.577 3.405 3.473 3.473 0 0 1-3.417-3.627c.073-1.953 1.662-3.437 3.608-3.37 1.954.065 3.446 1.65 3.388 3.59" fill="#FEFEFE"/>
		<path d="M107.137 123.256c-3.324-7.61-3.896-14.056-3.985-16.59v-20.84C103.152 69.906 90.124 57 74.055 57c-16.072 0-29.1 12.905-29.1 28.826v21.143c-.124 2.724-.777 8.973-3.972 16.286-4.295 9.825-.74 8.654 2.443 7.846 3.183-.805 10.29-3.96 12.512-.074 2.22 3.886 4.072 7.26 9.254 5.06 5.183-2.2 7.625-2.932 8.365-2.932h1.007c.74 0 3.182.733 8.364 2.932 5.182 2.2 7.033-1.174 9.255-5.06 2.22-3.887 9.328-.73 12.51.074 3.185.808 6.737 1.98 2.444-7.846" fill="#00AEF0"/>
		<path d="M102.137 123.256c-3.324-7.61-3.896-14.056-3.985-16.59v-20.84C98.152 69.906 85.124 57 69.055 57c-16.072 0-29.1 12.905-29.1 28.826v21.143c-.124 2.724-.777 8.973-3.972 16.286-4.295 9.825-.74 8.654 2.443 7.846 3.183-.805 10.29-3.96 12.512-.074 2.22 3.886 4.072 7.26 9.254 5.06 5.183-2.2 7.625-2.932 8.365-2.932h1.007c.74 0 3.182.733 8.364 2.932 5.182 2.2 7.033-1.174 9.255-5.06 2.22-3.887 9.328-.73 12.51.074 3.185.808 6.737 1.98 2.444-7.846" stroke="#4A4A4A" stroke-width="3"/>
		<path d="M107.137 123.256c-3.324-7.61-3.896-14.056-3.985-16.59v-20.84C103.152 69.906 90.124 57 74.055 57c-16.072 0-29.1 12.905-29.1 28.826v21.143c-.124 2.724-.777 8.973-3.972 16.286-4.295 9.825-.74 8.654 2.443 7.846 3.183-.805 10.29-3.96 12.512-.074 2.22 3.886 4.072 7.26 9.254 5.06 5.183-2.2 7.625-2.932 8.365-2.932h1.007c.74 0 3.182.733 8.364 2.932 5.182 2.2 7.033-1.174 9.255-5.06 2.22-3.887 9.328-.73 12.51.074 3.185.808 6.737 1.98 2.444-7.846" fill="#00AEF0"/>
		<path d="M102.137 123.256c-3.324-7.61-3.896-14.056-3.985-16.59v-20.84C98.152 69.906 85.124 57 69.055 57c-16.072 0-29.1 12.905-29.1 28.826v21.143c-.124 2.724-.777 8.973-3.972 16.286-4.295 9.825-.74 8.654 2.443 7.846 3.183-.805 10.29-3.96 12.512-.074 2.22 3.886 4.072 7.26 9.254 5.06 5.183-2.2 7.625-2.932 8.365-2.932h1.007c.74 0 3.182.733 8.364 2.932 5.182 2.2 7.033-1.174 9.255-5.06 2.22-3.887 9.328-.73 12.51.074 3.185.808 6.737 1.98 2.444-7.846" stroke="#4A4A4A" stroke-width="3"/>
		<path d="M59.703 69c3.15 0 5.702 3.955 5.702 8.835 0 4.88-2.553 8.835-5.702 8.835-3.15 0-5.703-3.956-5.703-8.835C54 72.955 56.553 69 59.703 69m8.839 34.99c-6.94 0-12.782-6.685-14.542-14.125 3.4 4.576 8.648 7.517 14.542 7.517 5.893 0 11.14-2.94 14.54-7.517-1.76 7.44-7.602 14.126-14.54 14.126m9.422-17.321c-3.15 0-5.703-3.956-5.703-8.835 0-4.88 2.553-8.835 5.704-8.835 3.15 0 5.703 3.955 5.703 8.835 0 4.88-2.552 8.835-5.703 8.835" fill="#4A4A4A"/>
	</g>
</svg>
