<svg xmlns="http://www.w3.org/2000/svg" xmlns:xlink="http://www.w3.org/1999/xlink" width="17" height="17" viewBox="0 0 17 17">
    <defs>
        <path id="smspeb1vqa" d="M8.5.708C4.18.708.708 4.18.708 8.5c0 4.32 3.471 7.792 7.792 7.792 4.32 0 7.792-3.471 7.792-7.792C16.292 4.18 12.82.708 8.5.708zm0 14.167c-3.542 0-6.375-2.833-6.375-6.375S4.958 2.125 8.5 2.125s6.375 2.833 6.375 6.375-2.833 6.375-6.375 6.375zM9.208 8.5v2.833c0 .425-.283.709-.708.709s-.708-.284-.708-.709V8.5c0-.425.283-.708.708-.708s.708.283.708.708zm-.212-3.33c.141.143.212.284.212.497 0 .212-.07.354-.212.495-.142.142-.284.213-.496.213h-.142c-.07 0-.07 0-.141-.07-.071 0-.071-.072-.142-.072-.07 0-.07-.07-.07-.07-.143-.142-.213-.284-.213-.496 0-.213.07-.354.212-.496l.071-.071c.07 0 .07-.07.142-.07.07 0 .07 0 .141-.072.213 0 .496.071.638.213z"/>
    </defs>
    <g fill="none" fill-rule="evenodd">
        <g>
            <g transform="translate(-536 -540) translate(536 540)">
                <mask id="0b6hxvf6yb" fill="#fff">
                    <use xlink:href="#smspeb1vqa"/>
                </mask>
                <use fill="#000" fill-rule="nonzero" xlink:href="#smspeb1vqa"/>
                <g fill="#4A4A4A" mask="url(#0b6hxvf6yb)">
                    <path d="M0 0H17V17H0z"/>
                </g>
            </g>
        </g>
    </g>
</svg>
