<svg width="160" height="160" viewBox="0 0 160 160" fill="none" xmlns="http://www.w3.org/2000/svg">
  <g clip-path="url(#clip0_1247_545)">
    <circle cx="80" cy="80" r="73.3333" fill="#D9F3FD" />
    <path
      d="M100.929 128.984C50.8758 129.204 55.9497 127.366 48.7365 135.841C48.572 136.033 48.4074 136.252 48.2154 136.444C47.6669 137.103 44.9516 135.21 44.458 135.786C42.3187 138.337 43.0866 142.752 43.3609 144.096C43.7997 146.236 48.4074 147.004 60.8865 146.757C83.2178 146.315 136.886 146.921 144.071 147.058C147.308 147.113 147.966 145.276 148.103 143.191C148.213 141.628 147.939 138.721 147.472 137.624C146.567 135.484 144.373 137.651 142.974 135.43C139.299 129.588 138.723 128.82 100.929 128.984Z"
      fill="white" />
    <path fill-rule="evenodd" clip-rule="evenodd"
      d="M50.255 137.143L50.255 137.143C50.2472 137.152 50.2312 137.171 50.2088 137.199C50.1089 137.321 49.8814 137.599 49.6775 137.81C49.1716 138.362 48.537 138.531 48.1096 138.572C47.6796 138.614 47.291 138.548 47.0301 138.49C46.5192 138.376 45.9728 138.161 45.6025 138.015L45.5829 138.007C45.5413 137.99 45.5013 137.975 45.4628 137.96C45.1749 138.648 45.0282 139.498 45.0037 140.445C44.9705 141.729 45.168 142.925 45.2966 143.577C45.331 143.603 45.3871 143.64 45.4741 143.686C45.8687 143.898 46.6154 144.144 47.9147 144.345C50.4936 144.744 54.6116 144.88 60.847 144.757C83.2173 144.315 136.91 144.922 144.108 145.059C145.336 145.079 145.628 144.751 145.705 144.657C145.874 144.451 146.045 144.011 146.108 143.06L146.108 143.051C146.152 142.427 146.121 141.435 146.015 140.445C145.921 139.562 145.789 138.899 145.686 138.561C145.615 138.56 145.521 138.558 145.4 138.557C145.384 138.557 145.367 138.557 145.349 138.557C144.957 138.556 144.232 138.554 143.492 138.301C142.621 138.002 141.862 137.417 141.282 136.495L141.282 136.495C140.33 134.983 139.782 134.159 138.952 133.522C138.154 132.91 136.917 132.35 134.413 131.926C129.298 131.061 119.918 130.902 100.938 130.984C91.9586 131.024 84.7442 130.997 78.925 130.975C76.6305 130.967 74.5529 130.959 72.6696 130.956C65.965 130.947 61.7965 131.006 58.9797 131.306C56.213 131.6 55.0266 132.105 54.1206 132.806C53.6234 133.191 53.1396 133.692 52.5188 134.42C52.2288 134.76 51.9244 135.131 51.5782 135.552C51.5547 135.581 51.531 135.61 51.5071 135.639C51.1353 136.092 50.7228 136.593 50.2595 137.137L50.255 137.143ZM144.071 147.058C136.886 146.921 83.2178 146.315 60.8865 146.757C48.4074 147.004 43.7997 146.236 43.3609 144.096C43.0866 142.752 42.3187 138.337 44.458 135.786C44.697 135.507 45.4569 135.807 46.2394 136.116C47.0731 136.445 47.9325 136.784 48.2154 136.444C48.3477 136.312 48.467 136.167 48.5823 136.026C48.6343 135.963 48.6854 135.901 48.7365 135.841C50.6097 133.64 51.6542 132.135 53.0507 131.108C57.032 128.182 63.8738 129.147 100.929 128.984C138.723 128.82 139.299 129.588 142.974 135.43C143.68 136.551 144.589 136.554 145.432 136.558C146.259 136.561 147.024 136.564 147.472 137.624C147.939 138.721 148.213 141.628 148.103 143.191C147.966 145.276 147.308 147.113 144.071 147.058ZM44.6331 137.665C44.633 137.665 44.6363 137.666 44.6432 137.667C44.6367 137.666 44.6332 137.665 44.6331 137.665ZM45.249 143.536C45.2494 143.536 45.2529 143.539 45.2582 143.546C45.2513 143.54 45.2486 143.536 45.249 143.536Z"
      fill="#101C48" />
    <path
      d="M100.929 123.362C50.8758 123.581 55.9497 121.744 48.7365 130.218C41.8845 138.269 38.2047 141.6 60.8865 141.162C83.5683 140.723 136.886 141.792 144.071 141.463C151.257 141.107 146.019 134.689 142.974 129.834C139.299 123.965 138.723 123.17 100.929 123.362Z"
      fill="white" />
    <path fill-rule="evenodd" clip-rule="evenodd"
      d="M100.94 125.362L100.938 125.362C91.9586 125.401 84.7442 125.374 78.925 125.353C76.6305 125.344 74.5529 125.336 72.6695 125.334C65.965 125.325 61.7964 125.383 58.9796 125.683C56.213 125.978 55.0265 126.482 54.1205 127.184C53.6234 127.569 53.1395 128.07 52.5188 128.798C52.2287 129.138 51.9244 129.508 51.5781 129.93C51.5546 129.959 51.5309 129.987 51.507 130.016C51.1352 130.469 50.7227 130.97 50.2595 131.515C50.0052 131.813 49.7586 132.102 49.5201 132.381C48.0979 134.046 46.9648 135.372 46.221 136.492C45.7911 137.14 45.5938 137.573 45.5243 137.839C45.5191 137.86 45.5149 137.877 45.5115 137.893C45.5885 137.951 45.7419 138.048 46.0245 138.163C46.5762 138.389 47.4384 138.61 48.728 138.788C51.3031 139.142 55.1962 139.271 60.8478 139.162C72.2246 138.942 91.2577 139.1 108.31 139.271C110.473 139.293 112.602 139.315 114.679 139.336C129.04 139.484 140.896 139.606 143.976 139.466C145.202 139.404 145.59 139.157 145.675 139.09C145.69 139.015 145.724 138.717 145.472 137.998C145.154 137.093 144.541 135.983 143.745 134.71C143.355 134.086 142.94 133.454 142.518 132.811L142.477 132.748C142.073 132.132 141.661 131.504 141.28 130.897L141.279 130.896C140.328 129.376 139.778 128.545 138.947 127.903C138.149 127.287 136.913 126.723 134.41 126.297C129.297 125.425 119.919 125.265 100.94 125.362ZM144.071 141.463C140.936 141.607 129.014 141.484 114.688 141.337C96.1851 141.146 73.6701 140.914 60.8865 141.162C39.0196 141.585 41.6541 138.503 48.0113 131.068C48.2482 130.791 48.4903 130.508 48.7365 130.218C50.6096 128.018 51.6542 126.512 53.0507 125.486C57.032 122.559 63.8738 123.524 100.929 123.362C138.723 123.17 139.299 123.965 142.974 129.834C143.344 130.424 143.747 131.037 144.155 131.659C147.108 136.159 150.384 141.15 144.071 141.463ZM45.4988 137.979C45.4988 137.979 45.4987 137.978 45.4988 137.975C45.4989 137.978 45.4989 137.979 45.4988 137.979Z"
      fill="#00AEF0" />
    <path
      d="M66.399 125.062C59.2132 125.062 59.2132 124.678 58.4453 127.202C57.6774 129.725 57.074 130.301 63.8758 130.493C70.8696 130.685 70.2662 129.533 70.0742 127.778C69.8822 126.022 69.1143 125.062 66.399 125.062Z"
      fill="#00AEF0" />
    <path
      d="M78.9878 125.254C73.8042 125.254 73.8042 124.87 73.2556 127.394C72.7071 129.917 72.2683 130.493 77.1776 130.685C82.2241 130.877 81.7853 129.725 81.6482 127.97C81.511 126.214 80.9351 125.254 78.9878 125.254Z"
      fill="#00AEF0" />
    <path
      d="M92.0548 125.254C86.8712 125.254 86.8712 124.87 86.3227 127.394C85.7741 129.917 85.3353 130.493 90.2447 130.685C95.2912 130.877 94.8524 129.725 94.7152 127.97C94.5781 126.214 94.0021 125.254 92.0548 125.254Z"
      fill="#00AEF0" />
    <path
      d="M105.122 125.254C99.9383 125.254 99.9383 124.87 99.3897 127.394C98.8412 129.917 98.4024 130.493 103.312 130.685C108.358 130.877 107.919 129.725 107.782 127.97C107.645 126.214 107.069 125.254 105.122 125.254Z"
      fill="#00AEF0" />
    <path
      d="M82.9099 132.157C75.7242 132.157 75.7242 131.773 74.9562 134.297C74.1883 136.82 73.5849 137.56 80.3867 137.588C111.982 137.78 111.022 137.972 110.254 134.873C109.569 132.185 111.022 132.157 82.9099 132.157Z"
      fill="#00AEF0" />
    <path
      d="M126.134 127.111C121.088 127.275 121.39 127.522 121.664 130.402C121.856 132.349 122.679 132.541 118.757 132.541C115.465 132.541 115.273 131.965 115.081 135.256C114.889 138.548 117.221 137.972 124.763 137.78C132.333 137.588 133.101 138.164 131.949 133.501C130.797 128.866 131.757 126.919 126.134 127.111Z"
      fill="#00AEF0" />
    <path
      d="M69.5259 129.149C65.8233 129.506 62.1481 129.478 58.4729 129.012C57.4856 128.902 57.4856 130.438 58.4729 130.575C62.1755 131.014 65.8507 131.069 69.5259 130.712C70.5132 130.603 70.5132 129.039 69.5259 129.149Z"
      fill="#101C48" />
    <path
      d="M81.3467 129.259C78.8235 129.588 76.3002 129.588 73.777 129.313C72.7896 129.204 72.7896 130.74 73.777 130.877C76.3002 131.178 78.8235 131.151 81.3467 130.822C82.3067 130.685 82.3341 129.121 81.3467 129.259Z"
      fill="#101C48" />
    <path
      d="M94.4138 129.259C91.8905 129.588 89.3673 129.588 86.844 129.313C85.8567 129.204 85.8567 130.74 86.844 130.877C89.3673 131.178 91.8905 131.151 94.4138 130.822C95.3737 130.685 95.4011 129.121 94.4138 129.259Z"
      fill="#101C48" />
    <path
      d="M107.481 129.259C104.958 129.588 102.434 129.588 99.9111 129.313C98.9237 129.204 98.9237 130.74 99.9111 130.877C102.434 131.178 104.958 131.151 107.481 130.822C108.441 130.685 108.468 129.121 107.481 129.259Z"
      fill="#101C48" />
    <path
      d="M59.2682 131.993C54.112 131.691 52.96 131.581 52.2744 134.077C51.5887 136.573 51.3967 136.875 56.3061 137.341C61.3252 137.835 61.8188 136.6 61.7914 134.845C61.764 133.09 61.2155 132.102 59.2682 131.993Z"
      fill="#00AEF0" />
    <path
      d="M61.4348 135.742C58.8841 135.934 54.8524 135.769 52.3566 135.33C51.3692 135.166 51.3144 136.729 52.2743 136.866C54.7976 137.278 58.8293 137.47 61.3525 137.278C62.3673 137.223 62.4496 135.659 61.4348 135.742Z"
      fill="#101C48" />
    <path
      d="M110.09 135.851C98.4332 136.729 86.7769 136.756 75.1206 135.906C74.1332 135.824 74.1332 137.387 75.1206 137.47C86.7769 138.32 98.4332 138.292 110.09 137.415C111.077 137.332 111.077 135.769 110.09 135.851Z"
      fill="#101C48" />
    <path
      d="M131.976 136.318C126.491 137.058 121.088 136.949 115.63 135.961C114.642 135.797 114.231 137.278 115.218 137.47C120.786 138.485 126.354 138.622 131.976 137.881C132.963 137.717 132.963 136.181 131.976 136.318Z"
      fill="#101C48" />
    <path
      d="M122.487 132.13C122.13 130.978 122.048 129.853 122.212 128.674C122.35 127.687 120.786 127.687 120.649 128.674C120.485 129.99 120.594 131.28 120.978 132.541C121.28 133.474 122.788 133.09 122.487 132.13Z"
      fill="#101C48" />
    <path
      d="M74.7104 120.355C22.3716 120.607 24.8571 121.616 25.2173 106.271C25.3974 99.1385 25.1812 94.2756 35.1591 92.9068C43.408 91.7901 59.9417 92.2224 82.3109 92.4745C118.981 92.8708 126.617 91.3579 128.742 97.3734C128.814 97.5535 128.85 97.7697 128.922 97.9498C129.427 99.7148 130.976 106.199 131.192 109.332C131.984 122.228 132.741 120.103 74.7104 120.355Z"
      fill="white" />
    <path
      d="M52.2693 121.436C35.4114 121.436 28.8555 120.931 26.0098 118.014C23.9566 115.888 24.0647 112.863 24.2088 108.252C24.2448 107.604 24.2448 106.955 24.2808 106.235V105.586C24.4249 98.7424 24.569 93.3392 35.0511 91.9344C42.0753 90.9978 54.7547 91.1419 72.3331 91.3941C75.539 91.4301 78.889 91.4661 82.383 91.5021C89.8034 91.5742 96.1792 91.5742 101.294 91.5742C122.727 91.5742 127.806 91.5742 129.715 97.0134C129.787 97.2295 129.859 97.4456 129.931 97.6617C130.435 99.5348 132.02 106.019 132.236 109.261L132.272 109.837C132.525 113.727 132.669 116.321 130.94 118.194C127.95 121.364 119.953 121.364 96.1431 121.328C89.9835 121.328 83.0314 121.292 74.7465 121.364C71.4686 121.364 68.4068 121.4 65.5611 121.4C60.5181 121.436 56.1236 121.436 52.2693 121.436ZM74.6745 119.383V120.355V119.383C82.9594 119.346 89.9115 119.347 96.0711 119.347C117.972 119.383 127.013 119.383 129.427 116.825C130.579 115.6 130.435 113.331 130.255 109.945L130.219 109.369C130.039 106.451 128.562 100.291 127.986 98.2021C127.95 98.022 127.878 97.8419 127.806 97.6978C126.401 93.6994 121.97 93.5553 101.222 93.5553C96.1071 93.5553 89.7314 93.5553 82.275 93.4833C78.7809 93.4473 75.4309 93.4112 72.225 93.3752C54.7547 93.1591 42.1113 92.979 35.2312 93.9155C26.37 95.1042 26.298 98.8504 26.1539 105.694V106.343C26.1539 107.063 26.1179 107.712 26.0819 108.36C25.9378 112.611 25.8657 115.168 27.3426 116.717C30.2603 119.707 39.842 119.671 65.4531 119.491C68.3708 119.419 71.4326 119.419 74.6745 119.383Z"
      fill="#101C48" />
    <path
      d="M74.3143 103.281C14.375 103.858 20.2825 109.513 19.2019 64.9907C18.6976 43.9543 17.9411 26.8803 29.3959 22.7378C38.8334 19.3518 57.8166 20.3964 83.4277 20.8287C125.428 21.5131 134.218 16.9024 136.559 34.6248C136.631 35.1651 136.703 35.7415 136.775 36.3538C137.315 41.5769 137.243 55.301 137.496 64.5584C138.648 108.756 142.935 102.597 74.3143 103.281Z"
      fill="white" />
    <path
      d="M42.6156 104.758C31.9533 104.758 26.1539 104.001 22.7679 100.724C18.6615 96.7252 18.5534 89.2688 18.4093 75.7248C18.3733 72.555 18.3373 68.9529 18.2292 64.9905L18.1932 63.2975C17.6889 42.4773 17.2927 26.0516 29.0716 21.8011C37.2124 18.8834 51.801 19.1716 71.9729 19.6038C75.611 19.6759 79.4293 19.7479 83.4277 19.82C91.9287 19.9641 99.205 19.892 105.076 19.82C128.454 19.5678 135.514 19.4958 137.496 34.4806C137.568 35.0209 137.64 35.6333 137.712 36.2096C138.072 39.7037 138.144 46.9079 138.252 53.896C138.288 57.5342 138.36 61.3164 138.432 64.4862C138.504 67.1878 138.576 69.7093 138.684 72.0507C139.189 86.6032 139.441 94.636 135.118 99.1026C130.147 104.254 119.557 104.218 96.3953 104.146C89.9835 104.11 82.7072 104.11 74.3143 104.182V103.209V104.182C67.4342 104.254 61.4547 104.398 56.1956 104.506C50.9725 104.686 46.4699 104.758 42.6156 104.758ZM53.5661 21.2968C42.9398 21.2968 34.9071 21.8011 29.756 23.6382C19.2739 27.3844 19.6701 43.1977 20.1744 63.2255L20.2104 64.9185C20.3185 68.8808 20.3545 72.4829 20.3905 75.6888C20.5346 88.7285 20.6066 95.8967 24.1367 99.3187C28.1711 103.209 37.5006 102.993 56.1596 102.597C61.4547 102.489 67.4342 102.344 74.3143 102.272C82.7432 102.2 90.0195 102.2 96.4313 102.236C119.017 102.308 129.319 102.344 133.749 97.8058C137.496 93.9516 137.243 86.207 136.775 72.1948C136.703 69.8534 136.595 67.3319 136.523 64.5943C136.451 61.3884 136.379 57.6422 136.343 53.9681C136.271 47.016 136.163 39.8478 135.803 36.4618C135.73 35.8854 135.694 35.3091 135.622 34.7688C133.857 21.513 128.922 21.549 105.148 21.8011C99.277 21.8732 91.9647 21.9452 83.4637 21.8011C79.4653 21.7291 75.6471 21.6571 72.0089 21.585C65.1649 21.4409 59.0053 21.2968 53.5661 21.2968Z"
      fill="#101C48" />
    <path
      d="M74.8907 93.0149C22.2276 93.4472 27.4507 97.9498 26.4781 62.433C26.0099 45.6471 25.3615 32.0311 35.4114 28.7531C43.6963 26.0516 60.3741 26.9161 82.8874 27.2763C119.773 27.8526 127.482 24.1785 129.571 38.3348C129.643 38.767 129.679 39.2353 129.751 39.7036C130.219 43.882 130.183 54.7965 130.399 62.2168C131.408 97.4455 135.154 92.5467 74.8907 93.0149Z"
      fill="white" />
    <circle cx="78" cy="66" r="16" fill="#101C48" />
    <path
      d="M72.483 73.184C72.5508 73.0715 72.6401 72.9734 72.7458 72.8955C72.8515 72.8175 72.9716 72.7611 73.0991 72.7295C73.2266 72.698 73.3591 72.6918 73.4889 72.7114C73.6188 72.7311 73.7435 72.7761 73.856 72.844C74.5497 73.2645 75.3033 73.5771 76.091 73.771C76.2211 73.8 76.344 73.8547 76.4527 73.9319C76.5613 74.0091 76.6534 74.1072 76.7235 74.2205C76.7937 74.3338 76.8405 74.46 76.8612 74.5916C76.8819 74.7232 76.8761 74.8577 76.8441 74.987C76.8121 75.1164 76.7546 75.2381 76.6749 75.3449C76.5952 75.4517 76.495 75.5415 76.3801 75.6091C76.2653 75.6766 76.138 75.7205 76.006 75.7382C75.8739 75.7558 75.7396 75.7469 75.611 75.712C74.6283 75.4703 73.6879 75.0809 72.822 74.557C72.7095 74.4891 72.6115 74.3998 72.5335 74.2941C72.4555 74.1884 72.3992 74.0684 72.3676 73.9409C72.336 73.8134 72.3299 73.6809 72.3495 73.551C72.3691 73.4212 72.4152 73.2964 72.483 73.184ZM82.144 72.844C82.3712 72.707 82.6434 72.6658 82.9009 72.7296C83.1584 72.7934 83.38 72.9568 83.517 73.184C83.654 73.4111 83.6951 73.6834 83.6314 73.9409C83.5676 74.1984 83.4042 74.42 83.177 74.557C82.3108 75.081 81.3701 75.4704 80.387 75.712C80.1295 75.7755 79.8573 75.7341 79.6303 75.5969C79.4032 75.4597 79.24 75.238 79.1765 74.9805C79.113 74.7229 79.1544 74.4507 79.2916 74.2237C79.4287 73.9967 79.6505 73.8335 79.908 73.77C80.696 73.5765 81.4499 73.2642 82.144 72.844ZM69.019 67.179C69.2763 67.1155 69.5482 67.1568 69.775 67.2936C70.0019 67.4305 70.1652 67.6518 70.229 67.909C70.4225 68.6969 70.7347 69.4509 71.155 70.145C71.2806 70.3713 71.3135 70.6376 71.2468 70.8877C71.1801 71.1378 71.019 71.3523 70.7974 71.4861C70.5758 71.6199 70.3109 71.6625 70.0585 71.6051C69.8061 71.5476 69.5858 71.3945 69.444 71.178C68.9197 70.3118 68.5299 69.3711 68.288 68.388C68.2246 68.1307 68.2658 67.8588 68.4027 67.6319C68.5395 67.4051 68.7609 67.2418 69.018 67.178M85.768 67.908C85.8317 67.6503 85.9951 67.4285 86.2223 67.2913C86.4495 67.1541 86.7219 67.1128 86.9795 67.1765C87.2372 67.2401 87.459 67.4035 87.5962 67.6307C87.7334 67.8579 87.7747 68.1303 87.711 68.388C87.591 68.8726 87.433 69.3516 87.237 69.825C87.0403 70.299 86.8133 70.7496 86.556 71.177C86.4189 71.4041 86.1972 71.5675 85.9396 71.6312C85.682 71.6948 85.4097 71.6536 85.1825 71.5165C84.9554 71.3793 84.792 71.1576 84.7283 70.9C84.6646 70.6424 84.7059 70.3701 84.843 70.143C85.2632 69.4492 85.5744 68.6956 85.768 67.908ZM81.535 62.38C81.7236 62.1978 81.9762 62.097 82.2384 62.0993C82.5006 62.1016 82.7514 62.2067 82.9368 62.3921C83.1222 62.5775 83.2274 62.8284 83.2297 63.0906C83.232 63.3528 83.1312 63.6054 82.949 63.794L77.293 69.451C76.903 69.841 76.269 69.841 75.878 69.451L73.05 66.623C72.8679 66.4344 72.7671 66.1818 72.7693 65.9196C72.7716 65.6574 72.8768 65.4065 73.0622 65.2211C73.2476 65.0357 73.4984 64.9306 73.7606 64.9283C74.0228 64.926 74.2754 65.0268 74.464 65.209L76.585 67.33L81.535 62.38ZM69.444 60.822C69.5099 60.7055 69.5984 60.6035 69.7044 60.5219C69.8103 60.4403 69.9316 60.3808 70.061 60.3469C70.1904 60.313 70.3252 60.3054 70.4576 60.3246C70.59 60.3437 70.7172 60.3893 70.8316 60.4584C70.9461 60.5276 71.0455 60.619 71.124 60.7273C71.2025 60.8356 71.2585 60.9585 71.2887 61.0889C71.3188 61.2192 71.3225 61.3542 71.2996 61.486C71.2766 61.6177 71.2275 61.7435 71.155 61.856C70.7352 62.5498 70.4233 63.3034 70.23 64.091C70.1985 64.2185 70.1422 64.3385 70.0643 64.4443C69.9863 64.55 69.8884 64.6394 69.7759 64.7073C69.6635 64.7751 69.5387 64.8202 69.4089 64.8399C69.279 64.8596 69.1465 64.8535 69.019 64.822C68.8915 64.7904 68.7714 64.7341 68.6657 64.6562C68.5599 64.5783 68.4706 64.4803 68.4027 64.3679C68.3348 64.2554 68.2898 64.1307 68.2701 64.0008C68.2504 63.8709 68.2565 63.7385 68.288 63.611C68.53 62.6281 68.9198 61.6878 69.444 60.822ZM85.184 60.482C85.2965 60.4141 85.4212 60.3691 85.5511 60.3494C85.681 60.3298 85.8134 60.336 85.9409 60.3675C86.0684 60.3991 86.1885 60.4555 86.2942 60.5335C86.3999 60.6114 86.4892 60.7095 86.557 60.822C87.0809 61.6878 87.4704 62.6282 87.712 63.611C87.7435 63.7385 87.7496 63.8709 87.7299 64.0008C87.7103 64.1307 87.6652 64.2554 87.5973 64.3679C87.5294 64.4803 87.4401 64.5783 87.3343 64.6562C87.2286 64.7341 87.1085 64.7904 86.981 64.822C86.8535 64.8535 86.721 64.8596 86.5912 64.8399C86.4613 64.8202 86.3366 64.7751 86.2241 64.7073C86.1117 64.6394 86.0137 64.55 85.9358 64.4443C85.8579 64.3385 85.8015 64.2185 85.77 64.091C85.5764 63.3033 85.2642 62.5497 84.844 61.856C84.7762 61.7435 84.7311 61.6188 84.7115 61.4889C84.6919 61.359 84.698 61.2265 84.7296 61.099C84.7612 60.9715 84.8175 60.8515 84.8955 60.7458C84.9735 60.6401 85.0715 60.5498 85.184 60.482ZM79.179 57.02C79.2428 56.7628 79.4061 56.5415 79.633 56.4046C79.8599 56.2678 80.1318 56.2265 80.389 56.29C81.3718 56.5316 82.3121 56.921 83.178 57.445C83.3968 57.5859 83.5519 57.8066 83.6106 58.0601C83.6693 58.3136 83.6268 58.5801 83.4922 58.8028C83.3576 59.0255 83.1415 59.187 82.8898 59.2529C82.638 59.3189 82.3705 59.2841 82.144 59.156C81.4502 58.7361 80.6966 58.4242 79.909 58.231C79.6516 58.1671 79.4302 58.0037 79.2933 57.7766C79.1564 57.5495 79.1153 57.2773 79.179 57.02ZM75.611 56.29C75.8642 56.2376 76.1278 56.2854 76.3465 56.4232C76.5652 56.561 76.7221 56.7781 76.7841 57.0291C76.8462 57.28 76.8087 57.5453 76.6795 57.7692C76.5503 57.993 76.3394 58.1582 76.091 58.23C75.3034 58.4235 74.5498 58.7358 73.856 59.156C73.6295 59.2841 73.362 59.3189 73.1103 59.2529C72.8585 59.187 72.6424 59.0255 72.5078 58.8028C72.3732 58.5801 72.3308 58.3136 72.3894 58.0601C72.4481 57.8066 72.6033 57.5859 72.822 57.445C73.6878 56.9207 74.6282 56.5319 75.611 56.29Z"
      fill="white" />
    <path
      d="M47.2624 94.3838C37.4646 94.3838 32.2415 93.7354 29.2518 90.8537C25.8298 87.5398 25.7577 81.6683 25.6136 71.006C25.5776 68.4485 25.5416 65.6029 25.4695 62.433L25.4335 61.0642C24.9652 44.3864 24.605 31.2026 35.0872 27.7806C42.2554 25.4392 55.079 25.6914 72.8014 26.0516C76.0073 26.1236 79.3573 26.1957 82.8513 26.2317C90.3077 26.3398 96.7195 26.3037 101.871 26.2317C122.475 26.0516 128.706 25.9795 130.471 38.0827C130.543 38.5149 130.579 38.9832 130.652 39.4875C130.976 42.2611 131.048 47.7724 131.12 53.6078C131.156 56.5255 131.192 59.5153 131.264 62.0728C131.336 64.234 131.408 66.2512 131.48 68.1243C131.912 79.5791 132.164 85.9188 128.598 89.593C124.312 94.0236 114.874 93.9875 94.234 93.9155C88.6147 93.8795 82.239 93.8795 74.8546 93.9515C68.8031 93.9875 63.58 94.0956 58.9333 94.2037C54.4666 94.3117 50.6124 94.3838 47.2624 94.3838ZM56.3397 27.8166C47.1183 27.8166 40.1662 28.2129 35.6635 29.6537C26.5862 32.6074 26.9464 45.1428 27.3787 61.0282L27.4147 62.397C27.4867 65.5668 27.5227 68.4125 27.5588 70.97C27.7028 81.128 27.7749 86.7113 30.5845 89.4489C33.9705 92.7268 41.7871 92.5827 58.8972 92.2585C63.544 92.1865 68.8031 92.0784 74.8546 92.0064C82.239 91.9343 88.6508 91.9704 94.2701 91.9704C114.334 92.0424 123.519 92.0784 127.229 88.2602C130.219 85.1984 129.967 79.1468 129.571 68.2324C129.499 66.3593 129.427 64.3421 129.355 62.1808C129.283 59.6233 129.247 56.5975 129.211 53.6798C129.139 48.1686 129.067 42.4412 128.742 39.7396C128.67 39.2714 128.634 38.8391 128.562 38.4069C127.049 27.9967 122.727 28.0328 101.907 28.2129C96.7555 28.2489 90.3438 28.3209 82.8513 28.2129C79.3573 28.1408 76.0073 28.1048 72.8014 28.0328C66.7138 27.9247 61.2026 27.8166 56.3397 27.8166Z"
      fill="#101C48" />
    <path
      d="M54.7907 114.232C36.8522 114.16 37.2484 113.727 37.0323 111.53C36.8882 110.161 37.0323 108.756 41.607 108.9C45.5333 109.045 49.7117 108.828 57.3482 108.828C73.2696 108.828 73.6659 109.225 73.5938 111.782C73.5218 114.736 72.7293 114.304 54.7907 114.232Z"
      fill="#00AEF0" />
    <path
      d="M121.574 107.315C116.927 107.279 116.999 113.871 121.142 114.051C126.545 114.303 126.113 107.351 121.574 107.315Z"
      fill="#00AEF0" />
    <path
      d="M79.1771 109.945C79.0691 108.72 77.1239 108.684 77.232 109.945C77.3401 111.242 77.5562 112.538 77.5202 113.835C77.5202 115.096 79.4653 115.096 79.4653 113.835C79.4653 112.538 79.2852 111.242 79.1771 109.945Z"
      fill="#00AEF0" />
    <path
      d="M84.04 109.981C83.9319 108.756 81.9868 108.72 82.0949 109.981C82.2029 111.278 82.4191 112.575 82.383 113.871C82.383 115.132 84.3282 115.132 84.3282 113.871C84.3642 112.575 84.1481 111.278 84.04 109.981Z"
      fill="#00AEF0" />
    <path
      d="M89.2271 110.017C89.119 108.792 87.1738 108.756 87.2819 110.017C87.39 111.314 87.6061 112.611 87.5701 113.907C87.5701 115.168 89.5152 115.168 89.5152 113.907C89.5513 112.611 89.3712 111.314 89.2271 110.017Z"
      fill="#00AEF0" />
    <path
      d="M144.738 28.8595C142.108 31.5971 139.478 34.3347 136.885 37.1084C136.02 38.0089 137.389 39.4137 138.254 38.5132C140.883 35.7756 143.513 33.038 146.106 30.2643C146.971 29.3278 145.602 27.959 144.738 28.8595Z"
      fill="#00AEF0" />
    <path
      d="M148.52 37.4324C146.25 38.2249 143.945 39.0174 141.676 39.8098C140.487 40.2061 140.991 42.1152 142.18 41.6829C144.449 40.8905 146.755 40.098 149.024 39.3055C150.213 38.9093 149.708 37.0002 148.52 37.4324Z"
      fill="#00AEF0" />
    <g clip-path="url(#clip1_1247_545)">
      <path d="M44.2231 33.2699L62.2231 32.2699L64.2231 40.2699H43.5565L44.2231 33.2699Z"
        fill="white" />
      <path d="M32.8898 33.2698L41.5565 32.6031L43.5565 39.6031L32.2231 40.2698L32.8898 33.2698Z"
        fill="#00AEF0" />
      <path
        d="M39.3496 45.2595C36.1439 45.2595 32.5779 43.7467 32.0376 43.4945C31.7134 43.3505 31.4613 43.0263 31.4613 42.6301C31.0651 33.337 31.3172 32.0042 36.2519 31.7161C36.7562 31.68 37.3325 31.644 37.9449 31.608C40.3222 31.3919 41.6909 31.644 42.6274 32.4365C43.9241 33.5531 44.0322 35.4261 44.2483 38.3077C44.2843 38.848 44.3204 39.4243 44.3924 40.0366C44.5365 41.9817 43.9962 43.4225 42.7715 44.323C41.799 45.0074 40.6103 45.2595 39.3496 45.2595ZM33.3703 41.9097C35.9278 42.9182 39.962 43.9268 41.6189 42.7381C41.871 42.558 42.5914 42.0537 42.4473 40.1807C42.4113 39.5324 42.3393 38.956 42.3033 38.4157C42.1232 36.0384 42.0511 34.4536 41.3667 33.8773C40.8985 33.481 39.8539 33.337 38.125 33.5171C37.4766 33.5891 36.8643 33.6251 36.36 33.6251C33.1903 33.8412 33.0101 33.8412 33.3703 41.9097Z"
        fill="#101C48" />
      <path
        d="M56.5673 45.2595C50.8761 45.2595 44.3205 43.6746 43.2399 43.4225C42.8437 43.3144 42.5195 42.9542 42.5195 42.558C42.0873 36.9389 42.1233 34.1294 43.5641 32.5445C44.9329 31.0317 47.1301 30.9597 50.8041 30.8516C51.7766 30.8156 52.8572 30.7796 54.0819 30.7435C63.6271 30.2393 64.3475 32.1843 65.0319 37.8394C65.104 38.4158 65.176 39.0281 65.2841 39.7125C65.5002 41.2253 65.0679 42.486 64.0234 43.4225C62.4745 44.7913 59.665 45.2595 56.5673 45.2595ZM44.4286 41.6936C49.1112 42.7741 59.809 44.6112 62.7266 41.9817C63.2669 41.4774 63.4831 40.8651 63.339 40.0006C63.2309 39.3162 63.1589 38.6679 63.0868 38.0916C62.5105 33.2649 62.4025 32.2924 54.1539 32.6886C52.9293 32.7606 51.8127 32.7967 50.8401 32.7967C47.6704 32.9047 45.7974 32.9407 45.0049 33.8412C44.1404 34.8138 44.1044 37.3712 44.4286 41.6936Z"
        fill="#101C48" />
      <path
        d="M58.7645 35.0298C55.5227 35.0658 52.2809 35.1378 49.0031 35.1739C47.7424 35.1739 47.7424 37.155 49.0031 37.1189C52.2449 37.0829 55.4867 37.0109 58.7645 36.9749C59.9892 36.9749 59.9892 35.0298 58.7645 35.0298Z"
        fill="#101C48" />
      <path
        d="M39.2417 34.9936C38.1972 35.0657 37.1166 35.1377 36.072 35.2098C34.8113 35.2818 34.8113 37.2629 36.072 37.1548C37.1166 37.0828 38.1972 37.0107 39.2417 36.9387C40.4664 36.8667 40.5024 34.8856 39.2417 34.9936Z"
        fill="#101C48" />
      <path d="M85.1151 33.2699L67.1151 32.2699L65.1151 40.2699H85.7817L85.1151 33.2699Z"
        fill="white" />
      <path d="M86.5161 33.0004L100.452 32.0004L102 40.0004H86L86.5161 33.0004Z" fill="white" />
      <path
        d="M72.771 45.2595C78.4621 45.2595 85.0177 43.6746 86.0983 43.4225C86.4945 43.3144 86.8187 42.9542 86.8187 42.558C87.2509 36.9389 87.2149 34.1294 85.7741 32.5445C84.4053 31.0317 82.2081 30.9597 78.5341 30.8516C77.5616 30.8156 76.481 30.7796 75.2563 30.7435C65.7111 30.2393 64.9907 32.1843 64.3063 37.8394C64.2343 38.4158 64.1622 39.0281 64.0542 39.7125C63.838 41.2253 64.2703 42.486 65.3149 43.4225C66.8637 44.7913 69.6733 45.2595 72.771 45.2595ZM84.9096 41.6936C80.227 42.7741 69.5292 44.6112 66.6116 41.9817C66.0713 41.4774 65.8552 40.8651 65.9992 40.0006C66.1073 39.3162 66.1793 38.6679 66.2514 38.0916C66.8277 33.2649 66.9357 32.2924 75.1843 32.6886C76.409 32.7606 77.5256 32.7967 78.4981 32.7967C81.6678 32.9047 83.5409 32.9407 84.3333 33.8412C85.1978 34.8138 85.2338 37.3712 84.9096 41.6936Z"
        fill="#101C48" />
      <path
        d="M96.074 45.3337C91.7962 45.3337 86.8687 43.7407 86.0565 43.4873C85.7587 43.3787 85.515 43.0167 85.515 42.6184C85.1901 36.9708 85.2172 34.147 86.3002 32.5541C87.329 31.0335 88.9805 30.9611 91.7421 30.8525C92.4731 30.8163 93.2853 30.7801 94.2058 30.7439C101.381 30.2371 101.922 32.192 102.436 37.8759C102.491 38.4551 102.545 39.0706 102.626 39.7584C102.788 41.2789 102.463 42.546 101.678 43.4873C100.514 44.863 98.4023 45.3337 96.074 45.3337ZM86.95 41.7496C90.4696 42.8357 98.5106 44.682 100.704 42.0392C101.11 41.5324 101.272 40.9169 101.164 40.048C101.083 39.3602 101.029 38.7085 100.974 38.1293C100.541 33.2781 100.46 32.3006 94.26 32.6989C93.3395 32.7713 92.5002 32.8075 91.7692 32.8075C89.3866 32.9161 87.9788 32.9523 87.3831 33.8574C86.7334 34.8348 86.7063 37.4052 86.95 41.7496Z"
        fill="#101C48" />
      <path
        d="M70.5737 35.0298C73.8155 35.0658 77.0573 35.1378 80.3351 35.1739C81.5958 35.1739 81.5958 37.155 80.3351 37.1189C77.0933 37.0829 73.8515 37.0109 70.5737 36.9749C69.349 36.9749 69.349 35.0298 70.5737 35.0298Z"
        fill="#101C48" />
      <path
        d="M97.3679 35.3336C95.1371 35.3681 92.9063 35.437 90.6507 35.4715C89.7831 35.4715 89.7831 37.3676 90.6507 37.3332C92.8815 37.2987 95.1123 37.2297 97.3679 37.1953C98.2107 37.1953 98.2107 35.3336 97.3679 35.3336Z"
        fill="#101C48" />
    </g>
    <path d="M27.3333 40.6663C52.8592 39.6494 109.918 38.6832 128.667 39.9036" stroke="#101C48"
      stroke-width="2.33333" stroke-linecap="round" stroke-linejoin="round" />
    <path d="M43.5282 144.647L41.5598 142.688L41.5838 141.879L47.2467 141.164L43.5282 144.647Z"
      fill="#101C48" />
    <path d="M77.5979 92.2097L75.5546 90.271L75.2997 94.1087L77.5979 92.2097Z" fill="#101C48" />
    <path d="M85.322 100.085L83.2787 98.1465L83.0238 101.984L85.322 100.085Z" fill="#101C48" />
    <path d="M92.4142 109.493L90.4658 107.609L89.7605 110.364L92.4142 109.493Z" fill="#101C48" />
    <path
      d="M58.8402 94.3136L52.7272 102.137C52.4699 102.466 52.3413 102.63 52.1552 102.688C51.9692 102.745 51.7702 102.681 51.3723 102.554L42.2431 99.6291C41.765 99.4759 41.5259 99.3993 41.3159 99.4865C41.1058 99.5737 40.9912 99.797 40.7621 100.244L37.0725 107.436C36.9489 107.677 36.8871 107.798 36.785 107.88C36.6829 107.963 36.5521 107.998 36.2905 108.068L24.8784 111.126C23.8302 111.407 23.3061 111.547 23.2298 111.923C23.1534 112.299 23.5812 112.633 24.4368 113.3L29.6611 117.376L29.6611 117.376C30.1738 117.776 30.4302 117.976 30.4481 118.254C30.4659 118.531 30.2372 118.763 29.7798 119.225L25.3536 123.698C24.8189 124.239 24.5515 124.509 24.5977 124.816C24.6439 125.124 24.9789 125.303 25.649 125.663L25.649 125.663L31.3144 128.7C31.7433 128.93 31.9577 129.045 32.0423 129.25C32.1269 129.455 32.0561 129.688 31.9146 130.153L30.2049 135.776C29.9713 136.544 29.8545 136.928 30.0528 137.182C30.251 137.436 30.6519 137.415 31.4537 137.375L39.9735 136.941C40.3909 136.92 40.5995 136.909 40.7647 137.012C40.9299 137.115 41.012 137.308 41.1763 137.692L43.6748 143.538C43.9255 144.125 44.0509 144.418 44.3101 144.508C44.5694 144.597 44.8493 144.445 45.4091 144.139L54.1903 139.339C54.501 139.169 54.6564 139.084 54.8245 139.089C54.9925 139.094 55.1426 139.188 55.4427 139.376L62.0775 143.531C62.6505 143.89 62.937 144.069 63.21 143.983C63.483 143.897 63.6144 143.585 63.8773 142.962L63.8773 142.962L67.7242 133.847C67.8867 133.462 67.9679 133.269 68.1326 133.166C68.2974 133.062 68.5061 133.071 68.9235 133.091L77.0355 133.467L77.0356 133.467C77.8095 133.503 78.1965 133.521 78.3937 133.276C78.591 133.03 78.4907 132.656 78.2902 131.908L77.019 127.164C76.8522 126.541 76.7688 126.23 76.9197 125.998C77.0706 125.767 77.3891 125.717 78.026 125.618L88.1814 124.041C88.8809 123.932 89.2306 123.878 89.3791 123.622C89.5276 123.366 89.4015 123.036 89.1492 122.374L86.89 116.452C86.7398 116.058 86.6647 115.861 86.713 115.671C86.7613 115.481 86.9212 115.344 87.2411 115.069L91.5517 111.371C92.2227 110.796 92.5582 110.508 92.5081 110.169C92.458 109.831 92.0535 109.653 91.2444 109.296L85.8763 106.931C85.4912 106.761 85.2987 106.676 85.1974 106.509C85.0961 106.341 85.1106 106.131 85.1396 105.711L85.4147 101.726C85.462 101.041 85.4856 100.698 85.2769 100.498C85.0681 100.297 84.7267 100.334 84.0439 100.409L79.5263 100.901C78.906 100.968 78.5959 101.002 78.3918 100.826C78.1876 100.649 78.1762 100.337 78.1534 99.7139L77.9583 94.3743C77.9204 93.3393 77.9015 92.8218 77.564 92.6598C77.2264 92.4979 76.8109 92.8069 75.9799 93.425L68.3238 99.1192C67.9547 99.3938 67.7701 99.531 67.5587 99.5272C67.3474 99.5234 67.1679 99.3796 66.8089 99.0919L60.592 94.1096C60.1309 93.7401 59.9003 93.5553 59.6431 93.5853C59.3859 93.6152 59.204 93.848 58.8402 94.3136Z"
      fill="#101C48" stroke="#101C48" stroke-width="0.929607" />
    <path
      d="M56.5455 92.2967L50.4324 100.12C50.1752 100.449 50.0466 100.614 49.8605 100.671C49.6744 100.728 49.4755 100.664 49.0776 100.537L39.9484 97.6121C39.4702 97.4589 39.2312 97.3823 39.0211 97.4695C38.8111 97.5567 38.6965 97.78 38.4674 98.2268L34.7778 105.419C34.6542 105.66 34.5924 105.781 34.4903 105.863C34.3881 105.946 34.2573 105.981 33.9958 106.051L22.5837 109.109C21.5355 109.39 21.0114 109.53 20.935 109.906C20.8587 110.282 21.2865 110.616 22.1421 111.283L27.3663 115.359L27.3663 115.359C27.8791 115.759 28.1355 115.959 28.1533 116.237C28.1712 116.515 27.9425 116.746 27.485 117.208L23.0589 121.682C22.5242 122.222 22.2568 122.492 22.303 122.799C22.3492 123.107 22.6842 123.286 23.3543 123.646L23.3543 123.646L29.0197 126.684C29.4485 126.913 29.663 127.028 29.7476 127.233C29.8322 127.438 29.7614 127.671 29.6198 128.136L27.9101 133.759C27.6766 134.527 27.5598 134.911 27.758 135.165C27.9563 135.419 28.3572 135.398 29.159 135.358L37.6788 134.924C38.0961 134.903 38.3048 134.892 38.47 134.995C38.6352 135.098 38.7173 135.291 38.8815 135.675L41.3801 141.521C41.6308 142.108 41.7561 142.401 42.0154 142.491C42.2747 142.581 42.5546 142.428 43.1143 142.122L51.8956 137.322C52.2063 137.152 52.3617 137.067 52.5297 137.072C52.6978 137.077 52.8478 137.171 53.1479 137.359L59.7828 141.514C60.3558 141.873 60.6423 142.052 60.9153 141.966C61.1883 141.88 61.3197 141.568 61.5826 140.945L61.5826 140.945L65.4295 131.83C65.592 131.445 65.6732 131.252 65.8379 131.149C66.0026 131.045 66.2114 131.054 66.6288 131.074L74.7408 131.45L74.7408 131.45C75.5148 131.486 75.9018 131.504 76.099 131.259C76.2962 131.014 76.196 130.639 75.9954 129.891L74.7243 125.147C74.5575 124.524 74.4741 124.213 74.625 123.981C74.7759 123.75 75.0944 123.7 75.7313 123.601L85.8867 122.024C86.5861 121.915 86.9359 121.861 87.0844 121.605C87.2329 121.349 87.1068 121.019 86.8545 120.357L84.5953 114.435C84.4451 114.041 84.37 113.844 84.4183 113.654C84.4666 113.464 84.6265 113.327 84.9464 113.052L89.2569 109.354C89.9279 108.779 90.2635 108.491 90.2133 108.152C90.1632 107.814 89.7587 107.636 88.9497 107.279L83.5816 104.914C83.1965 104.744 83.0039 104.659 82.9026 104.492C82.8014 104.324 82.8158 104.114 82.8448 103.694L83.1199 99.7093C83.1672 99.0241 83.1909 98.6815 82.9821 98.4809C82.7734 98.2802 82.432 98.3174 81.7492 98.3918L77.2316 98.8839C76.6113 98.9514 76.3012 98.9852 76.097 98.8087C75.8929 98.6322 75.8815 98.3205 75.8587 97.697L75.6635 92.3573C75.6257 91.3223 75.6068 90.8048 75.2692 90.6429C74.9317 90.4809 74.5162 90.7899 73.6852 91.408L66.029 97.1023C65.66 97.3768 65.4754 97.514 65.264 97.5102C65.0526 97.5064 64.8732 97.3626 64.5142 97.0749L58.2973 92.0926C57.8362 91.7231 57.6056 91.5383 57.3484 91.5683C57.0912 91.5982 56.9093 91.831 56.5455 92.2967Z"
      fill="#00AEF0" stroke="#101C48" stroke-width="0.929607" />
    <rect x="-1.92416" y="115.242" width="45.4345" height="45.7057" rx="22.7173"
      transform="rotate(-15 -1.92416 115.242)" fill="#101C48" />
    <rect x="-1.92416" y="115.242" width="45.4345" height="45.7057" rx="22.7173"
      transform="rotate(-15 -1.92416 115.242)" stroke="#101C48" stroke-width="0.929607" />
    <rect x="-1.92522" y="115.19" width="42.4521" height="42.4521" rx="21.226"
      transform="rotate(-15 -1.92522 115.19)" fill="white" />
    <rect x="-1.92522" y="115.19" width="42.4521" height="42.4521" rx="21.226"
      transform="rotate(-15 -1.92522 115.19)" stroke="#101C48" stroke-width="0.929607" />
    <path fill-rule="evenodd" clip-rule="evenodd"
      d="M31.153 126.696C32.2604 130.829 29.8079 135.076 25.6753 136.184C21.5427 137.291 17.2948 134.839 16.1875 130.706C15.0802 126.573 17.5327 122.326 21.6653 121.218C25.7979 120.111 30.0457 122.563 31.153 126.696Z"
      fill="white" />
    <path fill-rule="evenodd" clip-rule="evenodd"
      d="M36.0747 135.461C34.4699 133.444 33.7804 131.555 33.5501 130.802L31.8741 124.547C30.5939 119.769 25.6633 116.939 20.8617 118.226C16.0596 119.512 13.2046 124.429 14.4849 129.207L16.185 135.552C16.3671 136.38 16.6745 138.308 16.3079 140.758C15.8148 144.051 16.7826 143.414 17.6688 142.917C18.5551 142.421 20.4254 140.904 21.4016 141.893C22.3774 142.882 23.2021 143.746 24.5736 142.671C25.9454 141.596 26.6161 141.18 26.8372 141.121L27.138 141.041C27.3589 140.981 28.1478 141.006 29.8731 141.251C31.5986 141.496 31.8803 140.335 32.2315 138.991C32.5822 137.647 34.9599 138.025 35.976 138.012C36.9922 137.999 38.1478 138.066 36.0747 135.461ZM19.442 123.662C20.3785 123.411 21.458 124.402 21.8532 125.877C22.2484 127.352 21.8096 128.751 20.8731 129.002C19.9366 129.253 18.8569 128.261 18.4617 126.786C18.0665 125.311 18.5055 123.912 19.442 123.662ZM24.9856 133.616C22.9219 134.169 20.6433 132.614 19.5173 130.505C20.8989 131.617 22.6976 132.088 24.4503 131.618C26.2029 131.149 27.5252 129.842 28.1658 128.188C28.2448 130.577 27.0489 133.063 24.9856 133.616ZM26.2405 127.563C25.3033 127.815 24.2241 126.822 23.8289 125.347C23.4337 123.872 23.8723 122.474 24.8095 122.223C25.7465 121.972 26.8254 122.964 27.2206 124.439C27.6158 125.913 27.1775 127.312 26.2405 127.563Z"
      fill="#00AEF0" />
    <path
      d="M76.0481 98.7237C75.9853 101.218 76.0051 103.699 76.1078 106.165C76.2216 108.626 76.3422 111.104 76.4695 113.599L76.5036 114.263L75.8853 114.51C75.4111 114.7 74.9434 114.905 74.4821 115.127C74.3886 115.172 74.2946 115.217 74.2012 115.262C74.9519 115.106 75.6823 115.13 76.36 115.403C77.2434 115.745 77.9152 116.345 78.2621 117.214C78.6415 118.164 78.5685 119.154 78.1377 120.116L78.1352 120.122L78.1319 120.129C77.6482 121.165 76.7159 121.885 75.5218 122.361C74.8646 122.623 74.1822 122.702 73.511 122.523L73.5074 122.522L73.503 122.522C72.9417 122.374 72.4414 122.101 72.0163 121.708L71.9969 121.69L71.9781 121.671C71.5982 121.278 71.3027 120.832 71.1048 120.337C70.7505 119.449 70.7296 118.536 71.0565 117.643L71.0569 117.642C71.2412 117.142 71.5252 116.72 71.8916 116.374L71.8781 116.381L71.7142 115.101C71.5786 114.04 71.4375 112.989 71.2933 111.948C71.2277 112.212 71.1512 112.475 71.0631 112.735L71.0621 112.734C70.7259 113.769 70.2189 114.696 69.5367 115.504L69.5357 115.503C68.9535 116.204 68.2642 116.751 67.4719 117.137C67.543 117.545 67.6258 117.974 67.7198 118.423C67.8711 119.145 68.0183 119.808 68.1621 120.412L68.1675 120.436L68.1719 120.459C68.237 120.812 68.3102 121.163 68.3917 121.509C68.4341 121.69 68.4764 121.87 68.5188 122.051C68.5613 122.231 68.6037 122.412 68.6461 122.593L68.7964 123.23L62.9762 126.992L62.8249 126.063C62.6603 126.156 62.4962 126.249 62.3316 126.342C61.9404 126.575 61.5113 126.834 61.0438 127.118C60.5665 127.407 60.1368 127.668 59.755 127.899L58.6965 128.54L58.3756 127.345C58.2935 127.04 58.2147 126.743 58.1394 126.454C58.0661 126.173 57.9928 125.892 57.9195 125.611L57.5035 124.126C57.4721 124.027 57.4419 123.931 57.4126 123.838L56.7849 124.088L57.2219 128.084L56.6892 128.386C56.3337 128.587 55.9133 128.824 55.4287 129.097L55.4016 129.111C54.9145 129.364 54.4623 129.604 54.0444 129.829L54.0434 129.829C53.787 129.97 53.5307 130.113 53.2742 130.254L53.2732 130.253C53.0312 130.39 52.7813 130.53 52.5228 130.672L51.2719 131.362L51.1754 130.267C51.1633 130.272 51.151 130.278 51.1388 130.283C50.3426 130.64 49.2486 131.144 47.8553 131.799C46.601 132.397 45.4719 132.957 44.4662 133.476L44.46 133.478L44.4541 133.482C43.457 133.978 42.7356 134.371 42.2721 134.664L41.3263 135.265L39.4211 130.492L39.3083 130.208L39.3851 129.913L42.2151 119.058C41.986 119.185 41.7365 119.328 41.4665 119.49L41.4443 119.503C40.9607 119.775 40.2999 120.147 39.4616 120.62L38.4145 121.211L36.7934 115.1L37.4844 114.766L48.7299 109.327L49.7052 114.303L49.7437 114.501L49.6968 114.697L47.1067 125.587C47.4864 125.41 47.8939 125.219 48.3309 125.019L50.3117 124.051L50.6213 123.899L50.4945 122.434C50.4134 121.538 50.3223 120.518 50.221 119.374C50.1201 118.233 50.0085 117.067 49.8872 115.874L49.8871 115.867L49.8862 115.861C49.7817 114.661 49.6793 113.539 49.5783 112.496L49.5771 112.485C49.4865 111.422 49.3975 110.541 49.3114 109.841L49.2309 109.183L49.8271 108.892C50.9444 108.348 52.0726 107.78 53.211 107.188L53.2124 107.187C54.3541 106.596 55.4445 105.977 56.483 105.33L57.5159 104.686L57.8645 105.853C58.1572 106.832 58.5007 107.938 58.8954 109.173C59.3018 110.389 59.7252 111.647 60.1654 112.947L60.8448 114.891C60.8746 114.978 60.9034 115.064 60.933 115.15C60.7335 114.068 60.5309 112.978 60.3248 111.88C60.1153 110.763 59.912 109.712 59.7161 108.729L59.4234 107.333C59.3295 106.902 59.2398 106.505 59.1531 106.142L59.0152 105.566L59.4784 105.198C60.0994 104.705 60.7775 104.211 61.5108 103.716L61.5144 103.714C62.2863 103.198 63.0262 102.792 63.7319 102.51C64.8652 102.058 65.9693 101.9 66.9917 102.166C66.9973 102.168 67.0034 102.169 67.009 102.17C67.9663 102.409 68.7816 102.925 69.4441 103.688C69.7517 104.042 70.0284 104.427 70.2761 104.84C70.2748 104.83 70.2742 104.821 70.2728 104.811L70.2709 104.801C70.1217 103.634 69.9764 102.476 69.8341 101.326L69.7591 100.723L70.2815 100.413C71.198 99.868 72.0413 99.3818 72.8111 98.9546C73.5659 98.5357 74.1731 98.186 74.6364 97.9053L76.0903 97.024L76.0481 98.7237Z"
      fill="#101C48" />
    <path
      d="M70.6719 114.378C70.5229 113.213 70.3688 112.059 70.2095 110.917C70.0503 109.776 69.891 108.634 69.7318 107.492C69.5555 106.357 69.3877 105.219 69.2285 104.077C69.0795 102.912 68.9338 101.755 68.7916 100.606C69.7019 100.065 70.5372 99.5836 71.2974 99.1617C72.0577 98.7397 72.6765 98.3841 73.1538 98.0948C73.0904 100.61 73.1106 103.111 73.2142 105.599C73.3281 108.062 73.4488 110.543 73.5763 113.041C73.0821 113.238 72.5946 113.453 72.1139 113.684C71.6333 113.915 71.1526 114.147 70.6719 114.378ZM73.2123 120.892C72.701 121.096 72.2239 121.139 71.7809 121.019C71.3619 120.91 70.9957 120.71 70.6825 120.42C70.3794 120.106 70.1531 119.762 70.0034 119.387C69.7314 118.705 69.7183 118.029 69.9642 117.358C70.2203 116.663 70.7489 116.155 71.5499 115.836C72.5385 115.441 73.3751 115.384 74.0598 115.664C74.7378 115.927 75.1957 116.357 75.4338 116.953C75.7059 117.635 75.6695 118.361 75.3247 119.13C74.9731 119.883 74.269 120.471 73.2123 120.892Z"
      fill="white" />
    <path
      d="M61.7008 124.835C61.2938 122.33 60.8817 119.886 60.4645 117.504C60.2983 116.543 60.1083 115.522 59.8945 114.442C59.6909 113.338 59.4839 112.225 59.2735 111.104C59.0631 109.982 58.8595 108.927 58.6626 107.939C58.459 106.934 58.2688 106.061 58.0922 105.322C58.6924 104.845 59.3504 104.365 60.0664 103.882C60.7995 103.392 61.4813 103.021 62.1119 102.769C63.1345 102.361 64.0326 102.259 64.8059 102.464C65.5725 102.652 66.2299 103.062 66.778 103.693C67.3261 104.324 67.7736 105.074 68.1205 105.943C68.5014 106.897 68.6898 107.889 68.6855 108.918C68.6916 109.924 68.5357 110.895 68.2181 111.831C67.9175 112.762 67.4653 113.584 66.8616 114.299C66.2749 115.008 65.5725 115.525 64.7544 115.851L64.4732 115.964C64.5681 116.598 64.6919 117.279 64.8447 118.009C64.9974 118.738 65.1468 119.409 65.2929 120.023C65.3607 120.391 65.4371 120.756 65.522 121.117C65.6069 121.478 65.6918 121.839 65.7767 122.201L61.7008 124.835ZM63.9132 113.075C64.2644 112.817 64.5544 112.404 64.7831 111.839C65.0051 111.256 65.1147 110.59 65.1119 109.841C65.109 109.091 64.9546 108.333 64.6485 107.566C64.3969 106.935 64.0615 106.516 63.6426 106.307C63.2406 106.092 62.8692 106.053 62.5283 106.189C62.7898 107.389 63.0274 108.529 63.2412 109.609C63.4551 110.689 63.679 111.845 63.9132 113.075Z"
      fill="white" />
    <path
      d="M57.3082 126.499C57.2267 126.195 57.1485 125.901 57.0738 125.614C56.999 125.328 56.9243 125.042 56.8496 124.755L56.4316 123.263C56.3534 123.017 56.282 122.789 56.2175 122.577C56.1529 122.366 56.0951 122.172 56.0441 121.995L53.8199 122.882L54.2665 126.972C53.9119 127.173 53.4926 127.409 53.0085 127.681C52.5176 127.936 52.0607 128.178 51.638 128.406C51.3789 128.549 51.1198 128.692 50.8607 128.835C50.6187 128.971 50.3681 129.11 50.109 129.253L49.4556 121.749C49.3745 120.853 49.2833 119.832 49.182 118.687C49.0807 117.542 48.9692 116.371 48.8474 115.175C48.7428 113.972 48.6397 112.848 48.5383 111.801C48.4472 110.731 48.3576 109.838 48.2696 109.123C49.3945 108.575 50.5297 108.003 51.6752 107.408C52.8377 106.806 53.9491 106.174 55.0094 105.514C55.3051 106.503 55.6518 107.619 56.0495 108.863C56.4574 110.083 56.8824 111.346 57.3243 112.652C57.7833 113.95 58.227 115.235 58.6554 116.507C59.0906 117.697 59.5343 118.932 59.9865 120.214C60.4319 121.478 60.8909 122.777 61.3635 124.11C61.1215 124.246 60.8794 124.382 60.6374 124.518C60.3953 124.654 60.1533 124.79 59.9112 124.927C59.5123 125.165 59.0742 125.429 58.5969 125.718C58.1196 126.007 57.69 126.267 57.3082 126.499ZM53.4132 120.081C53.5155 120.04 53.6996 119.957 53.9655 119.831C54.2484 119.698 54.5143 119.572 54.7632 119.453C55.012 119.334 55.162 119.264 55.2131 119.244C55.1247 119.022 54.9786 118.557 54.7747 117.848C54.5708 117.139 54.3533 116.396 54.1222 115.619C53.9794 115.162 53.8333 114.697 53.6837 114.223C53.5444 113.726 53.4017 113.219 53.2555 112.705L52.5213 110.419L52.148 110.598L52.4374 113.031L53.4132 120.081Z"
      fill="white" />
    <path
      d="M39.8096 133.274L38.32 129.541L41.6578 116.74C41.1635 116.937 40.7221 117.143 40.3334 117.357C39.955 117.548 39.5186 117.791 39.0243 118.087C38.5402 118.359 37.8788 118.732 37.0401 119.205L35.9241 114.997L46.0846 110.083L46.8278 113.876L43.807 126.581C44.0456 126.486 44.4342 126.321 44.9728 126.086C45.5046 125.834 46.1046 125.555 46.7727 125.249C47.4511 124.919 48.1125 124.596 48.7568 124.28L50.3076 128.166C50.1031 128.247 49.5986 128.468 48.7941 128.829C47.9896 129.189 46.8885 129.698 45.4908 130.355C44.2295 130.957 43.0909 131.52 42.075 132.044C41.0693 132.544 40.3142 132.954 39.8096 133.274Z"
      fill="white" />
    <path
      d="M75.4338 116.954C75.1958 116.357 74.7374 115.927 74.0595 115.664C73.4604 115.419 72.7449 115.432 71.9131 115.704L71.55 115.836C70.749 116.156 70.2201 116.663 69.964 117.358L69.8845 117.61C69.726 118.199 69.765 118.791 70.0031 119.387C70.1527 119.762 70.3796 120.107 70.6826 120.421C70.9959 120.71 71.3622 120.91 71.7812 121.019C72.1688 121.124 72.5824 121.104 73.0223 120.961L73.2123 120.893C74.2028 120.497 74.8836 119.957 75.2545 119.27L75.3245 119.131C75.6478 118.409 75.7003 117.726 75.4814 117.082L75.4338 116.954ZM73.1536 98.0957C72.6764 98.3849 72.0578 98.7405 71.2977 99.1624L70.1007 99.8396C69.6831 100.08 69.2469 100.336 68.7917 100.607L69.228 104.078C69.3872 105.219 69.5557 106.358 69.732 107.493C69.8912 108.634 70.0506 109.776 70.2099 110.918L70.4442 112.639C70.5213 113.216 70.597 113.796 70.6715 114.378L72.1139 113.684C72.4743 113.511 72.8388 113.347 73.2069 113.193L73.5761 113.042C73.4486 110.544 73.3281 108.063 73.2142 105.599C73.1105 103.111 73.0903 100.61 73.1536 98.0957ZM76.2976 116.609C76.6769 117.56 76.6035 118.549 76.1727 119.511L76.1702 119.518L76.1675 119.524C75.6838 120.56 74.7511 121.28 73.557 121.756C72.8997 122.019 72.2171 122.098 71.5459 121.918C70.9813 121.771 70.4786 121.498 70.0515 121.103L70.0318 121.085L70.0137 121.066C69.6337 120.673 69.3379 120.228 69.14 119.732C68.7856 118.844 68.7646 117.931 69.0915 117.038L69.0916 117.037C69.2762 116.536 69.5613 116.114 69.9285 115.767L69.913 115.775L69.7502 114.497C69.6017 113.335 69.4477 112.184 69.2889 111.046C69.1297 109.904 68.9706 108.763 68.8114 107.621C68.6351 106.486 68.4674 105.348 68.3081 104.206L68.3067 104.196C68.1576 103.029 68.0113 101.871 67.869 100.721L67.7946 100.118L68.3168 99.8076C69.2333 99.2628 70.0769 98.7763 70.8466 98.349C71.6014 97.9301 72.2089 97.5805 72.6721 97.2998L74.1257 96.4195L74.083 98.1185C74.0202 100.613 74.0404 103.093 74.1432 105.56L74.1421 105.56C74.2559 108.021 74.3774 110.499 74.5048 112.994L74.5384 113.658L73.9205 113.905C73.4462 114.094 72.9782 114.3 72.5169 114.522C72.4237 114.567 72.3303 114.611 72.2371 114.656C72.9936 114.499 73.7298 114.525 74.4119 114.804L74.4112 114.804C75.2871 115.148 75.9528 115.745 76.2976 116.609Z"
      fill="#101C48" />
    <path
      d="M68.1208 105.941C67.8173 105.181 67.4368 104.511 66.9792 103.933L66.7783 103.691C66.2302 103.06 65.5724 102.651 64.8058 102.463C64.1291 102.284 63.3572 102.339 62.4898 102.629L62.112 102.767C61.4814 103.019 60.7992 103.39 60.0662 103.881C59.3504 104.364 58.6927 104.844 58.0928 105.32L58.3676 106.529C58.4627 106.965 58.5606 107.435 58.6624 107.938C58.8593 108.926 59.0629 109.981 59.2733 111.102L59.8944 114.44L60.1974 116.017C60.2924 116.527 60.3814 117.022 60.4645 117.503L61.0865 121.122C61.2926 122.344 61.4973 123.581 61.7008 124.833L65.7767 122.199L65.5225 121.116C65.48 120.935 65.4394 120.753 65.4012 120.571L65.2933 120.021C65.2203 119.715 65.1457 119.394 65.071 119.058L64.8449 118.007C64.6921 117.278 64.5682 116.596 64.4733 115.962L64.7545 115.85L65.056 115.719C65.7464 115.391 66.3481 114.918 66.8614 114.298C67.4651 113.583 67.9174 112.76 68.218 111.83C68.5356 110.894 68.6916 109.922 68.6856 108.917C68.6893 108.016 68.5458 107.144 68.2547 106.301L68.1208 105.941ZM62.528 106.187C62.8688 106.051 63.2406 106.091 63.6425 106.306C64.0614 106.514 64.3964 106.934 64.6481 107.564C64.9541 108.331 65.1088 109.09 65.1117 109.84L65.1081 110.116C65.0859 110.754 64.977 111.328 64.7828 111.837C64.554 112.403 64.2642 112.815 63.9131 113.074C63.796 112.458 63.6817 111.862 63.5697 111.284L63.241 109.608C63.0272 108.528 62.7894 107.387 62.528 106.187ZM64.1534 109.427C64.1579 109.45 64.162 109.473 64.1665 109.496C64.1359 109.104 64.0557 108.704 63.9224 108.293C64.0014 108.678 64.0799 109.056 64.1534 109.427ZM68.9838 105.597C69.409 106.662 69.6202 107.773 69.6155 108.921L69.6144 108.92C69.62 110.02 69.4492 111.086 69.1016 112.116L69.1026 112.116C68.7666 113.156 68.2569 114.086 67.5719 114.897L67.5708 114.897C66.9887 115.598 66.2998 116.146 65.5075 116.531C65.5786 116.94 65.6604 117.368 65.7543 117.817C65.9056 118.539 66.0534 119.202 66.1971 119.806L66.2029 119.829L66.2069 119.853C66.272 120.206 66.3458 120.556 66.4272 120.903L66.4273 120.905L66.4289 120.909L66.429 120.912C66.4305 120.918 66.4282 120.909 66.4298 120.916C66.4308 120.92 66.4302 120.915 66.4313 120.92L66.4315 120.922L66.4321 120.924L66.4322 120.926L66.4328 120.928C66.4345 120.935 66.4323 120.926 66.4339 120.933C66.4342 120.934 66.4345 120.936 66.4347 120.937L66.4362 120.941C66.4374 120.946 66.4359 120.94 66.437 120.945L66.4379 120.947L66.4377 120.949L66.4388 120.954C66.4393 120.956 66.4397 120.955 66.4403 120.958L66.4426 120.97L66.4436 120.973L66.4437 120.975L66.4452 120.979L66.4468 120.987L66.4477 120.99L66.4475 120.992L66.4494 120.996L66.4509 121.004L66.4518 121.007L66.4517 121.009L66.4526 121.011L66.4524 121.013L66.4543 121.017C66.4545 121.018 66.4549 121.021 66.455 121.022L66.4549 121.023L66.4567 121.028L66.4566 121.03L66.4581 121.034C66.4583 121.035 66.4589 121.038 66.4592 121.039L66.459 121.04L66.4606 121.044L66.4607 121.047C66.4623 121.054 66.4599 121.044 66.4615 121.051C66.4626 121.056 66.462 121.051 66.463 121.055L66.4632 121.058L66.4638 121.059L66.4639 121.062L66.4648 121.064L66.4664 121.072L66.4679 121.076C66.469 121.081 66.4677 121.076 66.4687 121.08L66.4696 121.083L66.4697 121.085C66.47 121.086 66.4704 121.089 66.4705 121.089C66.4711 121.092 66.4714 121.091 66.472 121.093L66.4736 121.101C66.4738 121.102 66.4744 121.105 66.4746 121.106L66.4753 121.108L66.4754 121.111L66.4769 121.114L66.4785 121.123L66.4794 121.125L66.4795 121.128L66.4811 121.131L66.4826 121.14L66.4835 121.142L66.4834 121.144L66.4843 121.146L66.4844 121.149L66.486 121.153L66.4867 121.157L66.4877 121.159L66.4875 121.161L66.4884 121.163L66.4883 121.165L66.4901 121.17C66.4904 121.171 66.4907 121.173 66.4909 121.174L66.4907 121.176L66.4926 121.18L66.4924 121.182C66.494 121.189 66.4917 121.18 66.4932 121.186C66.4943 121.191 66.4939 121.186 66.495 121.191L66.4949 121.193L66.4958 121.195L66.4956 121.197L66.4965 121.199C66.4982 121.206 66.4957 121.197 66.4973 121.203C66.4975 121.204 66.4986 121.206 66.4988 121.207L66.499 121.21L66.4999 121.212C66.5004 121.214 66.5001 121.214 66.5007 121.216L66.5013 121.218L66.5014 121.22C66.5019 121.222 66.5018 121.223 66.5022 121.225C66.5035 121.23 66.5026 121.223 66.5037 121.228C66.5055 121.236 66.503 121.226 66.5048 121.233L66.5063 121.242L66.5079 121.245L66.508 121.248L66.5086 121.25C66.5095 121.253 66.5088 121.251 66.5097 121.255C66.5101 121.256 66.5101 121.257 66.5105 121.259L66.5111 121.26L66.5112 121.263L66.5128 121.267C66.5137 121.27 66.5128 121.267 66.5135 121.271C66.514 121.273 66.5142 121.274 66.5146 121.276L66.5152 121.277L66.5154 121.28L66.5169 121.284L66.5171 121.286L66.5177 121.288C66.5181 121.29 66.518 121.29 66.5184 121.292L66.5194 121.294L66.5195 121.297C66.5197 121.298 66.5203 121.301 66.5203 121.301L66.5218 121.305C66.5223 121.307 66.5221 121.307 66.5226 121.309L66.5227 121.312L66.5243 121.316L66.5244 121.318C66.5252 121.321 66.5243 121.319 66.5252 121.322C66.5256 121.324 66.5263 121.324 66.5267 121.326L66.5269 121.329L66.5275 121.33C66.5275 121.33 66.528 121.334 66.5282 121.334C66.5291 121.338 66.5284 121.335 66.5293 121.339C66.5297 121.341 66.5304 121.341 66.5308 121.343L66.5307 121.345L66.5316 121.347C66.5334 121.355 66.5307 121.344 66.5324 121.351L66.5333 121.354L66.5331 121.356C66.5336 121.358 66.5337 121.359 66.5342 121.361C66.5354 121.365 66.5344 121.359 66.5357 121.364L66.538 121.377L66.5399 121.381L66.5397 121.383L66.5406 121.386L66.5422 121.394L66.5431 121.396L66.5429 121.398L66.5448 121.403L66.5463 121.411L66.5472 121.413L66.5471 121.415C66.5471 121.415 66.5484 121.418 66.5486 121.419L66.5488 121.422L66.5497 121.424C66.5501 121.426 66.55 121.426 66.5504 121.428L66.5511 121.43L66.5512 121.432L66.552 121.436L66.5535 121.44C66.554 121.442 66.5541 121.443 66.5546 121.445L66.5544 121.447L66.556 121.451L66.5561 121.453C66.557 121.457 66.5568 121.454 66.5576 121.457C66.558 121.459 66.558 121.46 66.5584 121.461L66.5586 121.464L66.5595 121.466L66.561 121.475C66.5614 121.476 66.5621 121.477 66.5625 121.478L66.5627 121.481L66.5633 121.483C66.565 121.49 66.5625 121.48 66.5641 121.487L66.565 121.489L66.5651 121.492C66.5655 121.493 66.5662 121.494 66.5667 121.495L66.569 121.508C66.5694 121.51 66.5696 121.511 66.57 121.513L66.5716 121.517L66.5714 121.519L66.5723 121.521L66.5739 121.529L66.5757 121.534L66.578 121.546L66.5789 121.549L66.5788 121.55L66.5806 121.555L66.5805 121.557L66.5814 121.559C66.5818 121.561 66.5817 121.561 66.5821 121.563L66.5831 121.566L66.5829 121.567C66.5829 121.567 66.5834 121.571 66.5837 121.572L66.5855 121.576C66.5859 121.578 66.5858 121.578 66.5863 121.58L66.5869 121.582L66.587 121.584L66.588 121.587L66.5878 121.589C66.5887 121.592 66.5886 121.589 66.5893 121.592C66.5898 121.594 66.59 121.596 66.5904 121.597L66.5903 121.599L66.5912 121.602L66.5927 121.61C66.5931 121.612 66.5939 121.612 66.5942 121.614L66.5944 121.616L66.5953 121.619C66.597 121.626 66.5943 121.615 66.5961 121.623L66.5967 121.624L66.5968 121.627C66.5973 121.629 66.598 121.629 66.5984 121.631C66.5997 121.636 66.598 121.63 66.5991 121.635C66.6009 121.642 66.5984 121.632 66.6002 121.64L66.6017 121.648L66.6033 121.652L66.6034 121.655L66.604 121.656C66.6049 121.66 66.6042 121.657 66.6051 121.661C66.6055 121.663 66.6055 121.663 66.6059 121.665L66.6074 121.669L66.6089 121.677C66.6094 121.679 66.6096 121.68 66.61 121.682L66.6106 121.684L66.6108 121.686L66.6123 121.69L66.6125 121.693L66.6131 121.694C66.6135 121.696 66.6134 121.697 66.6138 121.699L66.6148 121.701L66.6149 121.703C66.6151 121.704 66.6164 121.707 66.6164 121.707L66.6163 121.709L66.6172 121.711C66.6177 121.713 66.6175 121.714 66.618 121.716L66.6189 121.718L66.6187 121.72L66.6197 121.722L66.6198 121.725C66.6206 121.728 66.6205 121.725 66.6213 121.728C66.6217 121.73 66.6217 121.731 66.6221 121.733L66.6223 121.735L66.6229 121.737C66.6229 121.737 66.6234 121.74 66.6236 121.741C66.6245 121.745 66.6246 121.742 66.6255 121.746C66.6259 121.747 66.6258 121.748 66.6262 121.75L66.6261 121.752L66.627 121.754C66.6288 121.761 66.626 121.751 66.6278 121.758L66.6287 121.76L66.6285 121.762C66.629 121.764 66.6299 121.765 66.6304 121.767L66.6327 121.779C66.6331 121.781 66.6338 121.781 66.6342 121.783L66.6344 121.786L66.6353 121.788L66.6351 121.79L66.636 121.792L66.6376 121.8L66.6391 121.804L66.6402 121.809L66.6417 121.817L66.6426 121.82L66.6425 121.822C66.6425 121.822 66.6438 121.824 66.644 121.825L66.6442 121.828L66.6451 121.83C66.6455 121.832 66.6454 121.833 66.6458 121.835L66.6465 121.836L66.6466 121.839L66.6481 121.843L66.6483 121.845L66.6489 121.847C66.6493 121.848 66.6495 121.85 66.65 121.852L66.6506 121.853L66.6507 121.856L66.6514 121.857L66.6515 121.86C66.6524 121.864 66.6522 121.86 66.653 121.864C66.6535 121.866 66.6534 121.866 66.6538 121.868L66.6547 121.87L66.6549 121.873C66.6551 121.874 66.6556 121.877 66.6556 121.877C66.6564 121.88 66.6563 121.877 66.6572 121.881C66.6576 121.883 66.6575 121.883 66.6579 121.885L66.6581 121.888L66.6587 121.889C66.6604 121.896 66.6579 121.886 66.6595 121.893L66.6604 121.896L66.6605 121.898C66.6609 121.9 66.6616 121.9 66.6621 121.902L66.6644 121.914C66.6648 121.916 66.6658 121.917 66.6662 121.919L66.6661 121.921L66.667 121.923L66.6668 121.925L66.6677 121.927L66.6693 121.936L66.6711 121.94L66.671 121.942L66.6719 121.944L66.6734 121.953L66.6749 121.957L66.6751 121.959L66.676 121.961L66.6759 121.963L66.6768 121.966C66.6772 121.967 66.6771 121.968 66.6775 121.97L66.6785 121.972L66.6783 121.974L66.6798 121.978L66.68 121.98L66.6809 121.983C66.6813 121.984 66.6813 121.985 66.6817 121.987L66.8319 122.624L61.0109 126.386L60.7832 124.983C60.756 124.816 60.7271 124.649 60.6999 124.482C60.921 124.357 61.1425 124.233 61.3636 124.109L59.9866 120.212C59.8405 119.355 59.696 118.505 59.5486 117.664L59.5485 117.661C59.3837 116.708 59.1954 115.694 58.9828 114.621L58.9801 114.609C58.7767 113.506 58.57 112.394 58.3598 111.274C58.15 110.155 57.9475 109.104 57.7514 108.119C57.5494 107.122 57.3615 106.262 57.1882 105.536L57.0502 104.96L57.5142 104.592C58.1352 104.098 58.8132 103.605 59.5465 103.11L59.5501 103.107C60.322 102.591 61.0619 102.186 61.7676 101.904C62.9072 101.45 64.017 101.292 65.044 101.564C66.0015 101.803 66.8169 102.319 67.4794 103.082C68.1036 103.8 68.6029 104.642 68.9838 105.597Z"
      fill="#101C48" />
    <path
      d="M56.0442 121.993C56.0952 122.17 56.1526 122.365 56.2172 122.576C56.2818 122.787 56.3536 123.016 56.4318 123.261L56.8494 124.754C56.9242 125.04 56.9991 125.327 57.0738 125.613C57.1485 125.899 57.2266 126.194 57.3081 126.497C57.6898 126.266 58.1194 126.006 58.5966 125.717C59.0739 125.427 59.5124 125.164 59.9113 124.926L61.3636 124.109L61.6708 124.655C61.6804 124.715 61.6911 124.774 61.7008 124.833L62.4371 124.357L62.5012 124.535L61.8195 124.919C61.5775 125.055 61.3352 125.191 61.0933 125.327C60.8572 125.46 60.6204 125.592 60.3843 125.725C59.9883 125.961 59.5532 126.224 59.0786 126.511C58.6014 126.801 58.1722 127.061 57.7904 127.293L56.7315 127.934L56.4102 126.739C56.3282 126.433 56.2494 126.136 56.174 125.848L55.9499 124.989L55.5427 123.536C55.5096 123.432 55.479 123.33 55.4483 123.232L54.8204 123.483L55.2567 127.478L54.7248 127.779C54.3692 127.981 53.9483 128.218 53.4637 128.49L53.4507 128.498L53.4375 128.505C52.9528 128.757 52.5017 128.994 52.0856 129.218L52.0867 129.219C51.8297 129.361 51.5723 129.502 51.3153 129.643L51.3164 129.644C51.0721 129.781 50.8193 129.922 50.5582 130.066L49.3067 130.756L49.1262 128.681C49.5125 128.509 49.8121 128.377 50.0243 128.286L50.1087 129.252C50.3678 129.109 50.6189 128.969 50.861 128.833L51.6379 128.405L53.0086 127.68L54.2666 126.971L53.8201 122.881L56.0442 121.993ZM55.9002 105.246C56.1938 106.228 56.5388 107.339 56.9351 108.579C57.3415 109.794 57.7649 111.052 58.2051 112.353L58.2041 112.352C58.6632 113.651 59.1079 114.937 59.5365 116.209C59.9704 117.395 60.4126 118.627 60.863 119.903C60.8719 119.929 60.8811 119.955 60.89 119.98C61.1517 121.514 61.4132 123.072 61.6708 124.655L61.3636 124.109L59.9866 120.212C59.5345 118.931 59.0905 117.695 58.6553 116.505C58.2269 115.234 57.7834 113.949 57.3245 112.651C56.8825 111.345 56.4574 110.082 56.0494 108.862C55.6517 107.618 55.3052 106.501 55.0096 105.513C53.9493 106.173 52.8376 106.804 51.6752 107.406C50.5297 108.002 49.3946 108.574 48.2697 109.122L48.3358 109.691C48.4024 110.295 48.4702 110.998 48.5386 111.8L48.692 113.428C48.7435 113.991 48.7947 114.573 48.847 115.174C48.9688 116.37 49.0808 117.541 49.1821 118.686L49.4552 121.748L49.9321 127.224L48.7568 124.279C48.7524 124.282 48.7478 124.283 48.7433 124.286L48.5297 121.828C48.4486 120.932 48.3574 119.912 48.2562 118.768C48.1552 117.627 48.0436 116.46 47.9223 115.268L47.9217 115.262L47.9215 115.255C47.8171 114.054 47.7141 112.933 47.6131 111.89L47.6122 111.879C47.5216 110.815 47.4335 109.935 47.3474 109.235L47.2662 108.576L47.8629 108.285C48.9802 107.741 50.1079 107.173 51.2462 106.582L51.2478 106.581C52.3895 105.99 53.4797 105.37 54.5182 104.723L55.5516 104.08L55.9002 105.246ZM53.2556 112.704C53.4017 113.218 53.5441 113.725 53.6834 114.222L54.1219 115.618C54.3529 116.395 54.5705 117.138 54.7743 117.847C54.9782 118.556 55.1247 119.021 55.2131 119.243C55.1619 119.264 55.0115 119.333 54.7629 119.452L53.9655 119.829C53.6996 119.955 53.5156 120.039 53.4134 120.08L52.4379 113.03L52.1484 110.597L52.5214 110.418L53.2556 112.704Z"
      fill="#101C48" />
    <path
      d="M37.3438 129.602L37.4199 129.306L40.2496 118.452C40.0208 118.579 39.7717 118.722 39.5022 118.883L39.4908 118.891L39.4799 118.897C38.9964 119.169 38.3353 119.541 37.4969 120.013L36.4498 120.604L34.829 114.493L46.7653 108.721L47.7787 113.894L47.7324 114.091L45.1418 124.981L46.3857 124.403C47.0563 124.077 47.7102 123.758 48.3472 123.445L49.2478 123.002L49.6527 124.017L49.9321 127.224L48.7568 124.279C48.1126 124.595 47.4512 124.918 46.7729 125.248L44.9723 126.085C44.4339 126.32 44.0455 126.485 43.8069 126.581L46.8277 113.875L46.0845 110.082L35.9242 114.996L37.0403 119.204L39.0245 118.086C39.5188 117.79 39.955 117.547 40.3333 117.356C40.7219 117.142 41.1633 116.936 41.6575 116.739L38.32 129.541L39.8096 133.274C40.1881 133.034 40.7076 132.743 41.368 132.401L42.0751 132.043C43.091 131.519 44.2297 130.956 45.491 130.354C46.1899 130.026 46.8144 129.734 47.3649 129.48L48.7941 128.828C49.3442 128.582 49.7548 128.402 50.0243 128.286L50.1087 129.252C50.3678 129.109 50.6189 128.969 50.861 128.833C51.056 128.725 51.2506 128.617 51.4456 128.51L51.5152 128.684L50.6522 129.028C50.4697 129.101 49.9853 129.313 49.1743 129.676C48.3781 130.033 47.2841 130.538 45.8906 131.192C44.6362 131.791 43.5067 132.351 42.501 132.869L42.4951 132.873L42.489 132.875C41.4918 133.371 40.7707 133.765 40.3073 134.058L39.3615 134.658L37.3438 129.602Z"
      fill="#101C48" />
  </g>
  <defs>
    <clipPath id="clip0_1247_545">
      <rect width="160" height="160" fill="white" />
    </clipPath>
    <clipPath id="clip1_1247_545">
      <rect width="71.3333" height="8.66667" fill="white" transform="translate(31.3333 30.667)" />
    </clipPath>
  </defs>
</svg>