<svg width="26" height="26" viewBox="0 0 26 26" xmlns="http://www.w3.org/2000/svg">
  <g transform="translate(1 1)" fill="none" fill-rule="evenodd">
	<ellipse stroke="#B536B2" fill="#CC53C8" cx="11.865" cy="11.865" rx="11.865" ry="11.865"/>
	<path d="M12.238 19.282c-.188.187-.48.245-.733.124l-4.902-2.35c-.32-.154-.453-.535-.3-.854.155-.318.538-.452.857-.3l4.902 2.352c.32.153.454.535.3.854-.032.066-.075.125-.124.174" fill="#7A8484"/>
	<path fill="#616768" d="M8.98 17.92l-.34-.162.962-.958.34.163-.962.958"/>
	<path d="M15.132 3.36c-.14 0-.252.113-.252.252v2.464c0 .14.113.252.252.252.14 0 .252-.113.252-.252V3.612c0-.14-.113-.252-.252-.252M20.476 8.64h-2.464c-.14 0-.252.113-.252.252 0 .14.113.252.252.252h2.464c.138 0 .25-.113.25-.252 0-.14-.112-.252-.25-.252M19.883 6.366c-.07-.12-.223-.162-.344-.092l-2.134 1.232c-.12.07-.162.223-.092.344.047.08.13.126.218.126.043 0 .086-.01.126-.034L19.79 6.71c.122-.07.163-.223.093-.344M17.93 3.874c-.12-.07-.275-.028-.345.092L16.355 6.1c-.07.12-.03.274.09.344.04.023.084.033.127.033.087 0 .172-.045.218-.126l1.232-2.132c.07-.12.028-.275-.093-.344" fill="#98BA6C"/>
	<path d="M18.694 11.637c.114.113.172.278.143.448-.03.17-.14.307-.286.375-2.72.498-6.222 2.153-8.328 3.938l-2.542-2.53c1.792-2.1 3.455-5.586 3.954-8.296.07-.145.206-.255.377-.285.172-.03.338.03.45.143l6.234 6.207" fill="#FFF"/>
	<path d="M18.84 12.093zm.002-.004v-.002zm0-.004v-.002.002zm0-.004l.002-.004v.004zM12 5.284zm.003 0V5.28zm.004-.002zm.004 0h.002zm.004 0l.004-.002h-.004z" fill="#6B6B68"/>
	<path d="M15.412 8.588l-3.116-3.103c-.08-.08-.183-.13-.296-.145.047-.025.098-.043.153-.052.03-.005.06-.008.088-.008.14 0 .27.056.364.15l2.99 2.978-.182.18" fill="#FFF"/>
	<path d="M10.076 16.45l-2.18 2.17c-.045.047-.11.076-.18.076-.07 0-.135-.03-.182-.075l-2.18-2.17c-.045-.045-.074-.11-.074-.18 0-.07.03-.134.075-.18l2.18-2.17 2.54 2.53" fill="#5182A9"/>
	<path d="M7.492 18.49l-.363.36c-.094.094-.222.15-.364.15s-.27-.056-.363-.15L4.95 17.406c-.093-.092-.15-.22-.15-.36 0-.143.057-.27.15-.363l.363-.362 2.18 2.17" fill="#3D6689"/>
	<path d="M6.603 18.876c-.142 0-.27-.057-.363-.15.093.093.22.15.363.15.142 0 .27-.057.363-.15l.364-.36-1.09-1.086 1.09 1.085c.046.046.11.075.18.075-.07 0-.134-.03-.18-.075l-.364.36c-.092.094-.22.15-.363.15zm.91-.436c.07 0 .134-.03.18-.075l.694-.692-.695.692c-.045.045-.11.074-.18.075z" fill="#232422"/>
	<path d="M9.91 16.324L8.64 15.06l6.445-6.42 3.116 3.103c.115.114.174.28.144.45-.01.062-.033.12-.063.17.122-.07.213-.19.243-.337-.033.163-.14.294-.283.36-2.72.498-6.223 2.153-8.33 3.938zm8.613-4.298v-.004.004zm0-.004v-.003.002zm.002-.004v-.003.003z" fill="#C8C7C2"/>
	<path d="M18.556 12.545c.03-.052.052-.11.063-.172.03-.17-.03-.335-.144-.45L15.36 8.82l.18-.18 3.122 3.108-.004-.005c.094.094.15.224.15.362 0 .028-.002.058-.007.087v.01h-.002v.004c-.03.147-.12.267-.242.34" fill="#C8C7C2"/>
	<path d="M7.51 18.51c-.07 0-.134-.03-.18-.076L6.24 17.35l1.997-1.99 1.272 1.265.36-.36-1.483 1.477-.695.692c-.045.045-.11.074-.18.075" fill="#436787"/>
	<path d="M6.85 18.876c-.143 0-.27-.057-.364-.15l-.726-.723.726-.723 1.09 1.085-.364.36c-.092.094-.22.15-.363.15" fill="#30506A"/>
	<path fill="#436787" d="M8.345 15.422L7.2 14.282l.363-.362 1.145 1.14-.363.362"/>
	<path fill="#345168" d="M9.91 16.507l-1.27-1.265.363-.362 1.27 1.265-.362.362"/>
	<path d="M5.472 16.686l-.117-.116c-.046-.046-.075-.11-.075-.18 0-.07.03-.135.075-.18L7.17 14.4l.127.126-1.816 1.808c-.045.047-.074.11-.074.18 0 .067.025.127.066.172" fill="#7199B8"/>
	<path d="M5.073 17.527l-.123-.122c-.093-.092-.15-.22-.15-.36 0-.143.057-.27.15-.363l.363-.362.117.116.01.01-.364.36c-.093.094-.15.222-.15.364 0 .14.056.265.147.357" fill="#60829C"/>
	<path d="M7.806 13.985l-.126-.126c1.792-2.1 3.455-5.586 3.954-8.296.067-.14.196-.247.36-.28-.147.03-.266.12-.337.24.05-.03.11-.053.172-.064.03-.005.058-.007.088-.007.022 0 .044 0 .066.004-.1.052-.177.135-.224.233-.5 2.71-2.16 6.197-3.954 8.295zm4.187-8.702h0zm.004 0s.002 0 .003-.002c0 .002-.002.002-.003.002zM12 5.28h.001zm.005 0h0z" fill="#FFF"/>
	<path d="M18.557 11.637l-6.106-6.08c-.094-.095-.223-.15-.362-.15-.03 0-.06 0-.088.007-.055.01-.106.027-.153.052-.022-.003-.044-.005-.066-.005-.03 0-.058.004-.087.01-.064.01-.12.03-.173.062.07-.12.19-.21.336-.24l.003-.002h.008s0-.002.002-.002h.004c.003 0 .007 0 .01-.002.026-.004.052-.006.077-.006h.003c.138 0 .267.057.362.15l6.232 6.207" fill="#FFF"/>
	<path fill="#D3D2CD" d="M18.48 11.748L15.36 8.64l3.116 3.103.005.005"/>
	<path fill="#4C4D4A" d="M7.2 14.42l.5-.5-.5.5"/>
	<path fill="#64849B" d="M7.33 14.42l-.13-.13.37-.37.13.13-.37.37"/>
  </g>
</svg>
