<svg width="26" height="15" viewBox="0 0 26 15" xmlns="http://www.w3.org/2000/svg">
  <g fill="none" fill-rule="evenodd">
    <path d="M10.91 10.463c-.532-1.2-.624-2.22-.638-2.62v-3.29C10.272 2.037 8.186 0 5.612 0 3.04 0 .955 2.038.955 4.552v3.34c-.02.43-.125 1.417-.637 2.57C-.37 12.016.2 11.83.71 11.703c.508-.127 1.647-.625 2.002-.01.356.613.652 1.145 1.482.798s1.22-.463 1.34-.463h.16c.12 0 .51.116 1.34.463.83.347 1.126-.185 1.48-.8.357-.613 1.495-.115 2.005.012.51.128 1.077.313.39-1.24" fill="#00AEF0"/>
    <path d="M4.432 2.4c.49 0 .886.67.886 1.5 0 .828-.397 1.5-.886 1.5-.49 0-.887-.672-.887-1.5 0-.83.397-1.5.887-1.5M5.91 7.8c-1.13 0-2.078-1.136-2.365-2.4.553.777 1.406 1.277 2.364 1.277.957 0 1.81-.5 2.363-1.277-.286 1.264-1.236 2.4-2.364 2.4M6.796 5.4c-.49 0-.887-.672-.887-1.5 0-.83.396-1.5.886-1.5s.886.67.886 1.5c0 .828-.397 1.5-.886 1.5" fill="#FFF"/>
    <path d="M13.9 9.998c-.187-.444-.44-.826-.755-1.147-.315-.32-.692-.575-1.13-.765-.44-.19-.9-.285-1.38-.285-.48 0-.938.095-1.377.285-.438.19-.815.445-1.13.766-.316.322-.568.704-.755 1.148-.188.444-.282.91-.282 1.4 0 .49.095.956.283 1.4.187.447.44.83.754 1.15.316.322.693.577 1.13.767.44.19.9.285 1.38.285.48 0 .94-.095 1.377-.285.44-.19.816-.445 1.13-.766.317-.322.57-.705.756-1.15.188-.446.282-.913.282-1.402 0-.49-.094-.956-.282-1.4zm-5.364 2.797c-.274-.427-.41-.893-.41-1.397 0-.46.11-.888.336-1.28.225-.393.53-.703.914-.93.385-.228.805-.34 1.26-.34.508 0 .97.14 1.385.424l-3.484 3.523zm4.413-.404c-.133.317-.312.588-.536.816-.225.227-.492.41-.8.544-.31.136-.636.203-.978.203-.492 0-.95-.138-1.37-.415l3.48-3.52c.268.42.402.878.402 1.38 0 .345-.067.676-.2.993z" fill="#E74055"/>
    <path d="M20.624 6.216L17.277 4.22c-.038-.024-.07-.026-.1-.008-.027.018-.04.05-.04.097v3.98c0 .048.013.08.04.098.03.018.062.016.1-.008l3.347-1.996c.038-.024.058-.052.058-.084 0-.032-.02-.06-.058-.084zM25.942 6.216L22.596 4.22c-.04-.024-.072-.026-.1-.008-.028.018-.04.05-.04.097v3.98c0 .048.012.08.04.098.028.018.06.016.1-.008l3.346-1.996c.04-.024.058-.052.058-.084 0-.032-.02-.06-.058-.084z" fill="#00AEF0"/>
  </g>
</svg>
