<svg xmlns="http://www.w3.org/2000/svg" width="26" height="26" viewBox="0 0 26 26">
  <defs>
    <style>.cls-1{isolation:isolate;}.cls-2,.cls-6{fill:#f5a623;}.cls-2{stroke:#ba790f;}.cls-3{fill:#fffdf6;}.cls-4{fill:#3b3b3b;}.cls-5{fill:#ac3437;}.cls-7{fill:#0271af;}.cls-8{mix-blend-mode:multiply;}.cls-9{fill:#e4e4e0;}.cls-10{fill:#025e91;}</style>
  </defs>
  <title>Extension</title>
  <g class="cls-1">
    <g id="Layer_1" data-name="Layer 1">
      <circle class="cls-2" cx="13" cy="13" r="11.86" />
      <rect class="cls-3" x="5.82" y="10.52" width="14.36" height="8.33" />
      <path class="cls-4" d="M5,9.25v9.23a1.2,1.2,0,0,0,1.2,1.2H19.8a1.2,1.2,0,0,0,1.2-1.2V9.25a1.2,1.2,0,0,0-1.2-1.2H6.2A1.2,1.2,0,0,0,5,9.25Zm14.59,9.6H6.41a.58.58,0,0,1-.59-.59V11.11a.59.59,0,0,1,.59-.59H19.59a.6.6,0,0,1,.59.59v7.15A.59.59,0,0,1,19.59,18.85Z" />
      <circle class="cls-5" cx="19.77" cy="9.29" r="0.41" />
      <circle class="cls-6" cx="18.59" cy="9.29" r="0.41" />
      <circle class="cls-7" cx="17.41" cy="9.29" r="0.41" />
      <g class="cls-8">
        <path class="cls-9" d="M19.8,8.05H13V19.68h6.8a1.2,1.2,0,0,0,1.2-1.2V9.25A1.2,1.2,0,0,0,19.8,8.05Z" />
      </g>
      <path class="cls-7" d="M15.2,9.09H12.71c-.89,0,.09-.26.09-1.3s-.85-1-1.26-1-1.26,0-1.26,1,1,1.3.1,1.3H7.89a.81.81,0,0,0-.81.81v2.5c.22,0,.69-.5,1.42-.5,1,0,1.06.93,1.06,1.37s0,1.36-1.06,1.36c-.73,0-1.2-.51-1.42-.5v3.12a.81.81,0,0,0,.23.56l8.47-8.47A.82.82,0,0,0,15.2,9.09Z" />
      <path class="cls-10" d="M17.31,12.31c-1,0-1.3,1-1.3.1h0V9.9a.79.79,0,0,0-.23-.56L7.31,17.81a.79.79,0,0,0,.58.24h3.77a3.56,3.56,0,0,1-.5-1.39c0-1,.93-1.06,1.36-1.06s1.37,0,1.37,1.06c0,.7-.47,1.16-.5,1.39H15.2a.81.81,0,0,0,.81-.8V14.74h0c0-.89.26.09,1.3.09s1.05-.85,1.05-1.26S18.34,12.31,17.31,12.31Z" />
    </g>
  </g>
</svg>