<svg width="8px" height="13px" viewBox="0 0 8 13" xmlns="http://www.w3.org/2000/svg">
	<g stroke="none" stroke-width="1" fill="none" fill-rule="evenodd">
		<g id="Priority-Support" transform="translate(-9.000000, -13.000000)" fill="#FFFFFF">
			<g id="Group" transform="translate(2.000000, -19.000000)">
				<path d="M9.97923761,38.216699 L14.8755284,33.3205611 C14.9585604,33.2375291 15,33.1419581 15,33.0340012 C15,32.9260443 14.9585604,32.8304733 14.8755284,32.7475942 L14.2525587,32.1246245 C14.1695267,32.0415925 14.0739557,32 13.9661517,32 C13.8581948,32 13.7626238,32.0415925 13.6795918,32.1246245 L7.87392431,37.9301391 C7.79089227,38.0131711 7.74945271,38.1087421 7.74945271,38.216699 C7.74945271,38.3246559 7.79089227,38.4202269 7.87392431,38.5032589 L13.6794389,44.3087735 C13.7624709,44.3919584 13.8580419,44.433398 13.9659988,44.433398 C14.0738028,44.433398 14.1693738,44.3919584 14.2524058,44.3087735 L14.8753755,43.6861097 C14.9584075,43.6030776 14.9998471,43.5075067 14.9998471,43.3993968 C14.9998471,43.2915928 14.9584075,43.1960218 14.8753755,43.1129898 L9.97923761,38.216699 L9.97923761,38.216699 Z" />
			</g>
		</g>
	</g>
</svg>
