<svg width="22" height="14" viewBox="0 0 22 14" xmlns="http://www.w3.org/2000/svg">
  <g fill="none" fill-rule="evenodd">
    <path d="M10.765 12.55c2.955 0 5.91.002 8.866 0 .755 0 1.012-.257 1.012-1V1.913c0-.692-.28-.978-.962-.978H1.923c-.704 0-.986.284-.986.98v9.666c0 .077-.003.155.004.23.04.425.307.694.728.73.12.01.24.01.36.01h8.737m2.395.948c-1.554 0-3.11.002-4.663-.005l-1.156.004H1.93C.693 13.497 0 12.803 0 11.562 0 8.34 0 5.117.002 1.895.002.835.51.212 1.504.025c.117-.02.24-.024.36-.024h17.89c1.078 0 1.815.7 1.82 1.778.01 3.316.01 6.634 0 9.95-.005 1.064-.75 1.765-1.833 1.768-1.727.004-3.454 0-5.18 0h-.332l-1.043.002" fill="#4A4A4A"/>
    <path d="M13.116 5.634c0 1.284-1.04 2.326-2.326 2.326-1.284 0-2.325-1.042-2.325-2.326s1.04-2.326 2.325-2.326c1.285 0 2.326 1.042 2.326 2.326z" stroke="#4A4A4A"/>
    <path d="M16.506 10.123c.413 0 .824-.003 1.237 0 .306.005.513.192.518.457.004.272-.215.473-.53.475-.825.002-1.65.002-2.474 0-.317-.002-.534-.202-.53-.475.004-.265.213-.453.517-.456.42-.004.842 0 1.263 0M5.1 10.123c.413 0 .825-.003 1.237 0 .306.005.514.192.518.457.003.272-.215.473-.53.475-.826.002-1.65.002-2.474 0-.316-.002-.534-.202-.53-.475.005-.265.213-.453.518-.456.42-.004.842 0 1.263 0M10.803 10.123c.413 0 .825-.003 1.237 0 .306.005.514.192.518.457.003.272-.215.473-.532.475-.824.002-1.648.002-2.473 0-.317-.002-.534-.202-.53-.475.004-.265.213-.453.517-.456.42-.004.843 0 1.263 0" fill="#4A4A4A"/>
  </g>
</svg>
