<svg width="12" height="12" viewBox="0 0 12 12" xmlns="http://www.w3.org/2000/svg">
  <g fill="#2092BF" fill-rule="evenodd">
    <path d="M10.75 7h-.5c-.073 0-.133.023-.18.07-.047.047-.07.107-.07.18v2.5c0 .344-.122.638-.367.883S9.093 11 8.75 11h-6.5c-.344 0-.638-.122-.883-.367S1 10.093 1 9.75v-6.5c0-.344.122-.638.367-.883S1.907 2 2.25 2h5.5c.073 0 .133-.024.18-.07.046-.047.07-.107.07-.18v-.5c0-.073-.024-.133-.07-.18-.047-.047-.107-.07-.18-.07h-5.5c-.62 0-1.15.22-1.59.66C.22 2.1 0 2.63 0 3.25v6.5c0 .62.22 1.15.66 1.59.44.44.97.66 1.59.66h6.5c.62 0 1.15-.22 1.59-.66.44-.44.66-.97.66-1.59v-2.5c0-.073-.023-.133-.07-.18-.047-.047-.107-.07-.18-.07z"/>
    <path d="M4 7.537v-3.7c0-.125.046-.233.137-.325.092-.09.2-.137.325-.137.126 0 .234.046.326.137L6.06 4.784 10.772.072c.048-.048.103-.072.166-.072.062 0 .118.024.166.072l.824.824c.048.048.072.104.072.166 0 .063-.024.118-.072.167L7.216 5.94l1.272 1.272c.09.092.137.2.137.325 0 .126-.046.234-.137.326-.092.09-.2.137-.325.137h-3.7c-.126 0-.234-.046-.326-.137-.09-.092-.137-.2-.137-.326z"/>
  </g>
</svg>
