<svg xmlns="http://www.w3.org/2000/svg" width="16" height="15" viewBox="0 0 16 15">
    <path fill="#920094" fill-rule="nonzero" d="M15.662 6.586l-3.223 2.552a.647.647 0 0 0-.22.642l.966 3.853a.924.924 0 0 1-.9 1.136c-.169 0-.338-.05-.491-.148L8.283 12.53a.632.632 0 0 0-.679 0l-3.477 2.091a.959.959 0 0 1-.51.148c-.56 0-1.068-.51-.898-1.136l.967-3.853a.599.599 0 0 0-.221-.625L.327 6.586c-.645-.543-.272-1.58.56-1.63l4.105-.28a.666.666 0 0 0 .56-.395L7.111.576A.96.96 0 0 1 7.994 0a.96.96 0 0 1 .882.576l1.56 3.705c.086.214.306.362.56.395l4.106.28c.848.05 1.221 1.087.56 1.63z"/>
</svg>
