<svg width="18" height="18" viewBox="0 0 18 18" xmlns="http://www.w3.org/2000/svg">
  <g fill="none" fill-rule="evenodd">
    <rect fill="#FF9D00" width="18" height="18" rx="4"/>
    <path fill="#FFF" d="M5.223 14.95l-1.806-1.707 1.97-.7L4.63 8.96l2.338 1.792 1.45-4.074.69 4.8 1.975-1.436-.317 2.556h2.53l-2.194 1.95.38.403h2.957l-.916-.987 2.924-2.594h-4.436l.466-3.796-2.565 1.862L8.866 2.15l-2.4 6.734-3.54-2.704L4.1 11.714l-2.905 1.032 2.338 2.205"/>
    <path fill="#FFF" d="M10.326 14.95l-.437-.473 1.094-.978H9.856l.2-1.64-1.53 1.126-.428-2.983-.758 2.12-1.465-1.114.457 2.14-1.282.464 1.42 1.337"/>
  </g>
</svg>
