<svg xmlns="http://www.w3.org/2000/svg" width="301" height="144" viewBox="0 0 301 144" fill="none"><g id="images/app/header-protection">
<g id="Images/Blog/how-ghostery-anti-tracking-protects-users">
<g clip-path="url(#clip0_466_5335)">
<rect width="300" height="144" rx="72" fill="#0073C4" />
<g id="Group 13805">
<g id="Vector">
<path fill-rule="evenodd" clip-rule="evenodd" d="M150.418 -29C130.784 -29 97.921 -21.6477 66.9863 -13.4982C39.3944 -6.1228 11.9815 1.90101 -15.2295 10.5665C-22.9982 13.0024 -29.9151 17.5786 -35.1798 23.7657C-40.4445 29.9527 -43.8415 37.4975 -44.9778 45.5268C-61.9726 169.453 -22.5553 261.283 25.2556 322.05C45.6086 348.126 69.7726 371.018 96.9423 389.962C107.946 397.521 118.149 403.279 126.809 407.265C134.817 410.927 143.359 413.909 150.418 413.909C157.477 413.909 166.049 410.927 174.027 407.265C182.687 403.279 192.89 397.521 203.894 389.962C231.075 371.021 255.249 348.128 275.61 322.05C323.392 261.283 362.809 169.453 345.814 45.5268C344.678 37.4975 341.281 29.9527 336.016 23.7657C330.751 17.5786 323.834 13.0024 316.066 10.5665C288.855 1.9008 261.442 -6.12302 233.85 -13.4982C202.915 -21.6477 170.082 -29 150.418 -29Z" fill="#0083D4" />
<path d="M150.418 -28.5635C170.016 -28.5635 202.793 -21.2292 233.737 -13.0771V-13.0762C261.323 -5.70279 288.729 2.31877 315.934 10.9824L315.936 10.9834C323.626 13.3947 330.472 17.9247 335.684 24.0488C340.895 30.173 344.257 37.6407 345.382 45.5879C362.358 169.381 322.985 261.094 275.268 321.78L275.267 321.781C254.932 347.825 230.79 370.686 203.646 389.603C193.347 396.678 183.755 402.17 175.481 406.103L173.845 406.869C165.876 410.526 157.377 413.473 150.418 413.473C143.459 413.473 134.99 410.526 126.99 406.868C118.355 402.894 108.174 397.149 97.1885 389.603C70.0558 370.683 45.9249 347.822 25.5996 321.781L25.5986 321.78L24.4814 320.352C-22.76 259.658 -61.3894 168.414 -44.5459 45.5879C-43.4212 37.6407 -40.0587 30.173 -34.8477 24.0488C-29.6364 17.9246 -22.789 13.3947 -15.0986 10.9834L-15.0967 10.9824C12.1075 2.31905 39.5136 -5.70262 67.0986 -13.0762L67.0976 -13.0771C98.0422 -21.2293 130.85 -28.5634 150.418 -28.5635Z" stroke="white" stroke-opacity="0.4" stroke-width="0.872727" />
</g>
<g id="Vector_2">
<path fill-rule="evenodd" clip-rule="evenodd" d="M150.416 -17.2188C132.758 -17.2188 103.203 -10.6053 75.3819 -3.27475C50.5672 3.35946 25.9136 10.5769 1.44164 18.3716C-5.5451 20.5627 -11.7658 24.6791 -16.5006 30.2444C-21.2353 35.8096 -24.2904 42.5962 -25.3123 49.8187C-40.5965 161.291 -5.14683 243.893 37.8516 298.553C56.1559 322.009 77.8877 342.6 102.323 359.641C112.219 366.44 121.394 371.62 129.183 375.205C136.385 378.499 144.067 381.181 150.416 381.181C156.764 381.181 164.473 378.499 171.648 375.205C179.437 371.62 188.613 366.44 198.509 359.641C222.954 342.603 244.694 322.011 263.007 298.553C305.978 243.893 341.428 161.291 326.144 49.8187C325.122 42.5962 322.067 35.8096 317.332 30.2444C312.597 24.6791 306.377 20.5627 299.39 18.3716C274.918 10.5768 250.264 3.35927 225.45 -3.27475C197.629 -10.6053 168.101 -17.2188 150.416 -17.2188Z" fill="#008BD9" />
<path d="M150.416 -16.7822C168.035 -16.7822 197.508 -10.1857 225.339 -2.85254V-2.85352C250.146 3.7786 274.793 10.9945 299.258 18.7871L299.259 18.7881C306.167 20.9546 312.319 25.0249 317 30.5273C321.535 35.8579 324.511 42.3214 325.611 49.2119L325.712 49.8799C340.977 161.219 305.571 243.704 262.663 298.283L262.662 298.284C244.377 321.707 222.67 342.268 198.262 359.281C189.001 365.644 180.376 370.583 172.937 374.12L171.466 374.809C164.3 378.098 156.664 380.745 150.416 380.745C144.168 380.745 136.559 378.098 129.365 374.809H129.366C121.603 371.235 112.448 366.068 102.569 359.281C78.1713 342.266 56.4721 321.705 38.1953 298.284L38.1943 298.283C-4.74031 243.704 -40.1453 161.219 -24.8799 49.8799C-23.8696 42.7394 -20.8492 36.0298 -16.168 30.5273C-11.4867 25.0249 -5.33613 20.9546 1.57226 18.7881L1.57422 18.7871C26.0389 10.9947 50.685 3.77874 75.4922 -2.85352L75.4932 -2.85254C103.324 -10.1857 132.824 -16.7822 150.416 -16.7822Z" stroke="white" stroke-opacity="0.4" stroke-width="0.872727" />
</g>
<g id="Vector_3">
<path fill-rule="evenodd" clip-rule="evenodd" d="M150.416 -6.30859C136.023 -6.30859 111.934 -0.912084 89.2572 5.06959C69.0311 10.483 48.9363 16.3724 28.9896 22.7329C23.2948 24.5207 18.2244 27.8797 14.3652 32.4209C10.5059 36.9621 8.01576 42.4999 7.18282 48.3934C-5.27509 139.354 23.6194 206.756 58.6668 251.358C73.5864 270.498 91.2996 287.301 111.216 301.206C119.282 306.754 126.761 310.98 133.11 313.906C138.98 316.593 145.242 318.782 150.416 318.782C155.591 318.782 161.874 316.593 167.722 313.906C174.071 310.98 181.55 306.754 189.616 301.206C209.541 287.303 227.261 270.5 242.187 251.358C277.213 206.756 306.107 139.354 293.649 48.3934C292.817 42.4999 290.326 36.9621 286.467 32.4209C282.608 27.8797 277.538 24.5207 271.843 22.7329C251.896 16.3723 231.801 10.4829 211.575 5.06959C188.899 -0.912084 164.831 -6.30859 150.416 -6.30859Z" fill="#0098E2" />
<path d="M150.416 -5.87207C164.764 -5.87207 188.776 -0.493875 211.462 5.49023V5.49121C231.681 10.9027 251.77 16.79 271.71 23.1484L271.712 23.1494C277.328 24.9126 282.329 28.2248 286.135 32.7031C289.94 37.1807 292.395 42.6408 293.217 48.4512V48.4521C305.657 139.281 276.806 206.567 241.844 251.089L241.843 251.09C226.944 270.197 209.255 286.969 189.366 300.848C181.822 306.037 174.797 310.064 168.738 312.948L167.54 313.51C161.701 316.193 155.49 318.346 150.416 318.346C145.342 318.346 139.153 316.192 133.291 313.509C126.969 310.595 119.512 306.383 111.465 300.848H111.466C91.5851 286.967 73.9034 270.195 59.0107 251.09L59.0098 251.089C24.026 206.567 -4.8241 139.282 7.61523 48.4541C8.43665 42.6427 10.8915 37.1814 14.6973 32.7031C18.503 28.2248 23.5038 24.9127 29.1201 23.1494L29.1221 23.1484C49.0621 16.7902 69.1499 10.9019 89.3691 5.49023C112.055 -0.493971 136.09 -5.87204 150.416 -5.87207Z" stroke="white" stroke-opacity="0.4" stroke-width="0.872727" />
</g>
<g id="Vector_4">
<path fill-rule="evenodd" clip-rule="evenodd" d="M150.417 4.16406C139.891 4.16406 122.273 8.11184 105.689 12.4877C90.8965 16.4479 76.2003 20.7562 61.6124 25.4092C57.4475 26.7171 53.7393 29.1743 50.9169 32.4964C48.0945 35.8185 46.2733 39.8696 45.6641 44.1809C36.5531 110.722 57.6849 160.03 83.3166 192.659C94.2279 206.66 107.182 218.952 121.748 229.124C127.647 233.183 133.117 236.275 137.76 238.415C142.053 240.381 146.633 241.982 150.417 241.982C154.201 241.982 158.796 240.381 163.074 238.415C167.717 236.275 173.186 233.183 179.086 229.124C193.657 218.953 206.617 206.662 217.533 192.659C243.149 160.03 264.281 110.722 255.17 44.1809C254.56 39.8696 252.739 35.8185 249.917 32.4964C247.094 29.1743 243.386 26.7171 239.221 25.4092C224.634 20.7561 209.937 16.4478 195.145 12.4877C178.561 8.11184 160.959 4.16406 150.417 4.16406Z" fill="#00AEF0" />
<path d="M150.417 4.60059C160.892 4.60062 178.438 8.52989 195.032 12.9082V12.9092C209.818 16.8675 224.508 21.1742 239.089 25.8252H239.091C243.177 27.1085 246.815 29.5201 249.584 32.7793C252.18 35.8348 253.912 39.5186 254.611 43.4521L254.737 44.2422C263.83 110.651 242.742 159.842 217.189 192.39L217.188 192.391C206.3 206.358 193.373 218.619 178.838 228.765C172.957 232.811 167.508 235.89 162.891 238.019C158.623 239.98 154.101 241.546 150.417 241.546C146.733 241.546 142.226 239.981 137.941 238.019H137.942C133.325 235.89 127.876 232.811 121.995 228.765C107.466 218.618 94.5449 206.357 83.6611 192.391L83.6602 192.39L82.4648 190.852C57.4403 158.3 37.1464 109.613 46.0967 44.2422C46.6943 40.0129 48.4802 36.0385 51.249 32.7793C54.018 29.52 57.6567 27.1085 61.7432 25.8252H61.7451C76.3265 21.1744 91.0162 16.8676 105.802 12.9092L105.801 12.9082C122.395 8.52981 139.957 4.60059 150.417 4.60059Z" stroke="white" stroke-opacity="0.4" stroke-width="0.872727" />
</g>
<g id="Vector_5">
<path fill-rule="evenodd" clip-rule="evenodd" d="M150.417 11.582C143.457 11.582 131.808 14.197 120.842 17.0955C111.061 19.7187 101.344 22.5724 91.6977 25.6545C88.9438 26.5208 86.4919 28.1484 84.6256 30.3489C82.7594 32.5494 81.5552 35.2329 81.1524 38.0886C75.128 82.1648 89.1008 114.825 106.049 136.438C113.264 145.713 121.83 153.854 131.461 160.592C135.362 163.281 138.978 165.329 142.048 166.746C144.887 168.049 147.915 169.109 150.417 169.109C152.92 169.109 155.958 168.049 158.786 166.746C161.856 165.329 165.473 163.281 169.374 160.592C179.009 153.855 187.578 145.713 194.796 136.438C211.734 114.825 225.707 82.1648 219.683 38.0886C219.28 35.2329 218.076 32.5494 216.209 30.3489C214.343 28.1484 211.891 26.5208 209.137 25.6545C199.491 22.5724 189.774 19.7186 179.993 17.0955C169.027 14.197 157.388 11.582 150.417 11.582Z" fill="#33BEF3" />
<path d="M158.604 166.35C155.785 167.648 152.819 168.673 150.417 168.673C148.015 168.673 145.06 167.648 142.229 166.35C139.186 164.944 135.592 162.91 131.71 160.234H131.711C122.116 153.521 113.582 145.41 106.394 136.17L106.393 136.169L105.604 135.151C89.0774 113.617 75.6724 81.4055 81.585 38.1475L81.584 38.1465C81.9757 35.3736 83.1457 32.7677 84.958 30.6309C86.7709 28.4932 89.1537 26.9119 91.8291 26.0703H91.8301C101.469 22.9907 111.179 20.1378 120.952 17.5166L120.953 17.5176C131.929 14.6165 143.523 12.0187 150.417 12.0186C157.321 12.0186 168.905 14.6155 179.881 17.5166C189.655 20.1378 199.365 22.9904 209.004 26.0703H209.006C211.681 26.9119 214.064 28.4932 215.877 30.6309C217.69 32.7684 218.859 35.3755 219.25 38.1494C225.256 82.0931 211.327 114.637 194.453 136.169L194.452 136.17C187.486 145.122 179.255 153.015 170.021 159.602L169.124 160.234C165.242 162.91 161.647 164.944 158.604 166.35Z" stroke="white" stroke-opacity="0.4" stroke-width="0.872727" />
</g>
<g id="Vector_6">
<path fill-rule="evenodd" clip-rule="evenodd" d="M150.418 19.4355C145.692 19.4355 137.782 21.2102 130.336 23.1774C123.695 24.9576 117.096 26.8944 110.547 28.9861C108.677 29.5741 107.012 30.6787 105.744 32.1721C104.477 33.6655 103.66 35.4867 103.386 37.4248C99.2955 67.3379 108.783 89.5038 120.291 104.172C125.19 110.466 131.007 115.992 137.546 120.564C140.195 122.389 142.651 123.779 144.735 124.741C146.663 125.625 148.719 126.345 150.418 126.345C152.117 126.345 154.18 125.625 156.101 124.741C158.185 123.779 160.641 122.389 163.29 120.564C169.832 115.992 175.651 110.467 180.552 104.172C192.053 89.5038 201.54 67.3379 197.45 37.4248C197.176 35.4867 196.359 33.6655 195.091 32.1721C193.824 30.6787 192.159 29.5741 190.289 28.9861C183.74 26.8944 177.141 24.9576 170.5 23.1774C163.054 21.2102 155.151 19.4355 150.418 19.4355Z" fill="#5CCBF5" />
<path d="M150.418 19.8721C155.085 19.8721 162.933 21.6298 170.389 23.5996V23.5986C177.023 25.3769 183.614 27.3119 190.156 29.4014L190.158 29.4023C191.95 29.9656 193.545 31.0236 194.759 32.4541C195.973 33.8845 196.756 35.6291 197.018 37.4854C201.09 67.2662 191.646 89.3153 180.208 103.902L180.207 103.903C175.333 110.163 169.548 115.658 163.042 120.205C160.74 121.791 158.588 123.044 156.707 123.969L155.918 124.345C154.007 125.224 152.017 125.908 150.418 125.908C148.819 125.908 146.836 125.225 144.917 124.345H144.918C142.859 123.394 140.424 122.017 137.793 120.205C131.29 115.658 125.507 110.162 120.636 103.903L120.635 103.902L120.1 103.213C108.898 88.6242 99.8098 66.8008 103.818 37.4854C104.08 35.6291 104.863 33.8845 106.077 32.4541C107.291 31.0236 108.886 29.9656 110.678 29.4023L110.68 29.4014C117.222 27.3121 123.812 25.3769 130.446 23.5986L130.447 23.5996C137.903 21.6298 145.758 19.8721 150.418 19.8721Z" stroke="white" stroke-opacity="0.4" stroke-width="0.872727" />
</g>
<g id="Group 199">
<path id="Vector_7" d="M150.451 28.1631C154.084 28.1632 159.983 29.4959 165.355 30.9082L165.36 30.9092C170.197 32.1993 175.003 33.6033 179.773 35.1191L180.069 35.2178C181.54 35.7355 182.851 36.6319 183.863 37.8193C184.943 39.0859 185.641 40.6316 185.874 42.2773L185.875 42.2832C188.898 64.2778 181.881 80.6315 173.345 91.4639C169.708 96.1106 165.391 100.19 160.538 103.564L160.531 103.569C158.557 104.923 156.71 105.965 155.121 106.694L155.119 106.695C153.698 107.346 151.983 107.972 150.451 107.972C148.919 107.972 147.208 107.346 145.784 106.696L145.781 106.694C144.193 105.965 142.346 104.923 140.371 103.569L140.363 103.564C135.512 100.189 131.197 96.1101 127.562 91.4639L126.767 90.4326C118.592 79.6042 112.098 63.5906 115.026 42.2832L115.027 42.2773C115.261 40.6315 115.959 39.086 117.039 37.8193C118.119 36.5528 119.538 35.617 121.129 35.1191C125.899 33.6034 130.705 32.1993 135.542 30.9092L135.546 30.9082C140.919 29.4958 146.824 28.1631 150.451 28.1631Z" stroke="#000C47" stroke-width="2.61818" />
<path id="Vector_8" d="M150.338 31.5029C153.444 31.503 158.295 32.5564 163.067 33.8154L165.103 34.3652L165.104 34.3662C169.934 35.7185 174.732 37.1895 179.495 38.7783L179.772 38.875C181.151 39.3842 182.373 40.2648 183.315 41.4248C184.257 42.5845 184.884 43.9797 185.137 45.4668L185.183 45.7656V45.7686L185.315 46.8369C187.96 69.1795 181.096 85.8141 172.782 96.8906L172.781 96.8896C169.183 101.718 164.91 105.957 160.104 109.466L160.101 109.469C158.149 110.873 156.331 111.949 154.775 112.699H154.774C153.367 113.376 151.744 113.986 150.338 113.986C148.931 113.986 147.313 113.376 145.901 112.7L145.899 112.699C144.344 111.949 142.526 110.873 140.575 109.469L140.57 109.466C135.766 105.956 131.494 101.717 127.896 96.8887V96.8877C119.446 85.6352 112.497 68.6481 115.492 45.7686L115.493 45.7656C115.709 44.1672 116.355 42.6618 117.359 41.4248C118.364 40.1885 119.687 39.2695 121.177 38.7793L122.965 38.1885C127.141 36.8237 131.344 35.5497 135.57 34.3662L135.573 34.3652C140.959 32.8791 146.794 31.5029 150.338 31.5029Z" fill="#000C47" stroke="#000C47" stroke-width="1.44777" />
<path id="Vector_9" fill-rule="evenodd" clip-rule="evenodd" d="M150.451 29.4727C147.022 29.4727 141.282 30.754 135.879 32.1743C131.06 33.4597 126.272 34.8581 121.519 36.3683C120.162 36.7928 118.954 37.5904 118.035 38.6687C117.115 39.747 116.522 41.0619 116.324 42.4612C113.355 64.0591 120.24 80.0632 128.59 90.6537C132.145 95.1983 136.366 99.1879 141.111 102.49C143.033 103.807 144.815 104.81 146.327 105.505C147.726 106.143 149.218 106.663 150.451 106.663C151.684 106.663 153.181 106.143 154.574 105.505C156.087 104.81 157.869 103.807 159.791 102.49C164.538 99.1884 168.76 95.1987 172.317 90.6537C180.662 80.0632 187.546 64.0591 184.578 42.4612C184.38 41.0619 183.786 39.747 182.867 38.6687C181.947 37.5904 180.739 36.7928 179.382 36.3683C174.63 34.8581 169.842 33.4597 165.023 32.1743C159.62 30.754 153.885 29.4727 150.451 29.4727Z" fill="#00AEF0" />
<g id="Ghost">
<g id="Frame 48095975">
<path id="Path" fill-rule="evenodd" clip-rule="evenodd" d="M164.889 74.4041C163.451 71.0988 163.204 68.2982 163.165 67.1978V58.144C163.165 51.2275 157.53 45.6211 150.58 45.6211C143.629 45.6211 137.994 51.2275 137.994 58.144V67.3287C137.94 68.5125 137.658 71.2276 136.276 74.4041C134.418 78.6726 135.955 78.1639 137.332 77.8127C138.709 77.463 141.784 76.092 142.744 77.7809C143.704 79.4689 144.505 80.935 146.747 79.9791C148.988 79.0235 150.045 78.7051 150.365 78.7051H150.8C151.12 78.7051 152.176 79.0235 154.418 79.9791C156.659 80.935 157.46 79.4689 158.421 77.7809C159.381 76.092 162.455 77.463 163.832 77.8127C165.209 78.1639 166.746 78.6726 164.889 74.4041Z" fill="white" />
<path id="Union" fill-rule="evenodd" clip-rule="evenodd" d="M146.693 52.4474C148.049 52.4474 149.147 54.1776 149.147 56.3126C149.147 58.4475 148.049 60.1782 146.693 60.1782C145.337 60.1782 144.238 58.4475 144.238 56.3126C144.238 54.1776 145.337 52.4474 146.693 52.4474ZM150.576 67.8969C147.589 67.8969 145.074 64.9716 144.316 61.7167C145.78 63.7187 148.039 65.0053 150.576 65.0053C153.113 65.0053 155.371 63.7187 156.835 61.7167C156.077 64.9716 153.562 67.8969 150.576 67.8969ZM152.012 56.3127C152.012 58.4475 153.11 60.1783 154.467 60.1783C155.823 60.1783 156.921 58.4475 156.921 56.3127C156.921 54.1776 155.823 52.4474 154.467 52.4474C153.11 52.4474 152.012 54.1776 152.012 56.3127Z" fill="#00AEF0" />
</g>
</g>
</g>
</g>
<g id="Group 13806">
<path id="Union_2" d="M278.487 140.686C275.872 143.177 272.663 145.035 269.135 145.81C229.14 154.603 224.859 128.993 224.962 94.4193C224.972 91.2199 226.065 88.1143 228.03 85.5888C233.98 77.9375 230.946 66.5197 223.573 60.2282C220.453 57.5667 217.457 54.5379 214.664 51.1668C197.355 30.2762 194.412 4.15438 208.089 -7.17843C214.819 -12.7541 222.154 -22.3937 221.026 -31.0598C218.966 -46.8878 223.568 -61.9479 234.935 -71.3659C254.699 -87.741 287.423 -80.8567 308.026 -55.9898C313.79 -49.033 317.995 -41.4056 320.629 -33.669C320.648 -33.6134 320.721 -33.6012 320.757 -33.6476C320.786 -33.6849 320.842 -33.6858 320.872 -33.6495L369.91 25.5356C377.223 34.3629 376.459 47.3448 368.159 55.2522L278.487 140.686Z" fill="#000C47" />
</g>
<g id="Group 13807">
<path id="Union_3" d="M15.2725 37.6523C37.0826 37.6525 54.7627 50.6447 54.7627 66.6709C54.7625 77.1783 58.3848 97.2111 63.3027 106.497C66.1392 111.852 70.5941 115.934 76.5432 117.089C102.113 122.054 121.09 140.382 121.09 162.234C121.09 187.901 94.9108 208.707 62.6172 208.707C53.5958 208.707 45.052 207.082 37.4224 204.183C37.3679 204.162 37.3096 204.202 37.3096 204.261C37.3096 204.306 37.2723 204.344 37.2264 204.344H-38.1818C-50.2317 204.344 -60 194.575 -60 182.526V86.3101C-60 77.0305 -52.4773 69.5078 -43.1977 69.5078H-26.8755C-25.3683 69.5078 -24.2187 68.1781 -24.2188 66.6709C-24.2188 50.6446 -6.53777 37.6523 15.2725 37.6523Z" fill="#000C47" />
<g id="Group 226">
<g id="Group 140">
<g transform="translate(-1.41659 2.83317)"><g>
<path d="M50.4372 62.4172C56.7852 65.5913 60.1551 72.9648 57.2544 79.4424C57.0316 79.94 56.8068 80.4182 56.5821 80.8676C56.3573 81.317 56.1096 81.7837 55.8452 82.2606C52.4033 88.4675 44.4825 90.1954 38.1345 87.0213C31.7739 83.8408 28.4059 76.4457 31.3195 69.9586C31.5381 69.472 31.7582 69.0045 31.978 68.565C32.1977 68.1254 32.4397 67.6688 32.6978 67.2021C36.1397 60.979 44.0766 59.2367 50.4372 62.4172Z" fill="#000C47" />
<path d="M57.7666 81.4595C57.5321 81.9285 57.2754 82.4124 57.0036 82.9025C53.1571 89.8391 44.4066 91.6383 37.5419 88.2058C30.6633 84.7661 26.8558 76.6638 30.1108 69.4161C30.3355 68.9159 30.5641 68.431 30.7934 67.9723C31.0228 67.5136 31.2732 67.0405 31.5385 66.5608C35.384 59.6081 44.1503 57.7932 51.0291 61.2326C57.8938 64.6651 61.7047 72.7444 58.4632 79.9834C58.2342 80.4949 58.0012 80.9905 57.7666 81.4595Z" stroke="#000C47" stroke-width="2.6492" stroke-linejoin="round" />
</g>
</g><g id="Rectangle 195">
<path d="M50.4372 62.4172C56.7852 65.5913 60.1551 72.9648 57.2544 79.4424C57.0316 79.94 56.8068 80.4182 56.5821 80.8676C56.3573 81.317 56.1096 81.7837 55.8452 82.2606C52.4033 88.4675 44.4825 90.1954 38.1345 87.0213C31.7739 83.8408 28.4059 76.4457 31.3195 69.9586C31.5381 69.472 31.7582 69.0045 31.978 68.565C32.1977 68.1254 32.4397 67.6688 32.6978 67.2021C36.1397 60.979 44.0766 59.2367 50.4372 62.4172Z" fill="#00AEF0" />
<path d="M57.7666 81.4595C57.5321 81.9285 57.2754 82.4124 57.0036 82.9025C53.1571 89.8391 44.4066 91.6383 37.5419 88.2058C30.6633 84.7661 26.8558 76.6638 30.1108 69.4161C30.3355 68.9159 30.5641 68.431 30.7934 67.9723C31.0228 67.5136 31.2732 67.0405 31.5385 66.5608C35.384 59.6081 44.1503 57.7932 51.0291 61.2326C57.8938 64.6651 61.7047 72.7444 58.4632 79.9834C58.2342 80.4949 58.0012 80.9905 57.7666 81.4595Z" stroke="#000C47" stroke-width="2.6492" stroke-linejoin="round" />
</g>
<g id="bx-bug 1" clip-path="url(#clip1_466_5335)">
<path id="Vector_10" d="M50.8764 71.267L54.4844 70.0681L53.8813 68.2543L50.2306 69.4681C50.1026 69.2265 49.9638 68.9913 49.8071 68.7706C48.7242 67.2552 47.0128 66.3968 45.1494 66.4372C44.8792 66.443 44.6094 66.4736 44.3384 66.5153L43.1242 62.8654L41.3103 63.4685L42.5105 67.076C41.7087 67.4473 40.9658 67.97 40.2946 68.6184L37.0846 67.0103L36.2283 68.7196L38.1999 69.7073C37.9325 70.1025 37.6816 70.5135 37.4663 70.9434C37.2492 71.3767 37.0685 71.8271 36.9108 72.2805L34.9392 71.2928L34.0829 73.0021L36.4357 74.1807C36.4301 74.2196 36.4194 74.2581 36.4143 74.2961C36.3373 74.8509 36.3061 75.4105 36.3232 75.9611C36.3261 76.0492 36.3381 76.1342 36.3435 76.2214L33.3547 77.2152L33.9578 79.029L36.6648 78.1282C36.7569 78.4459 36.8601 78.7585 36.9873 79.0553C37.193 79.5368 37.447 79.9879 37.739 80.3973C38.0401 80.8185 38.3861 81.2014 38.7693 81.5334C39.164 81.8766 39.5994 82.1684 40.0651 82.4018C40.5309 82.6351 41.0254 82.809 41.5353 82.9201C42.0306 83.0282 42.5444 83.0761 43.0621 83.0649C43.5648 83.0538 44.0787 82.9862 44.5883 82.8631C44.9022 82.7872 45.2134 82.6823 45.5222 82.5654L46.4225 85.2733L48.2363 84.6702L47.2426 81.6814C47.317 81.6332 47.3927 81.5909 47.465 81.5405C47.9145 81.2258 48.3448 80.8662 48.7427 80.4711C48.7705 80.4433 48.7945 80.4126 48.8223 80.3848L51.1759 81.5639L52.0322 79.8546L50.0597 78.8665C50.3289 78.4679 50.581 78.0543 50.798 77.621C51.0134 77.1911 51.1924 76.7441 51.3496 76.2936L53.3213 77.2813L54.1771 75.5729L50.9671 73.9649C51.0845 73.039 51.0583 72.1311 50.8764 71.267ZM43.3304 68.8007C43.9496 68.5143 44.5759 68.363 45.1902 68.349C46.4235 68.3221 47.535 68.88 48.2506 69.8821C48.6081 70.3829 48.862 70.9752 49.0038 71.6439C49.0996 72.0907 49.1228 72.5588 49.1117 73.0354L42.1499 69.5478C42.5259 69.254 42.9143 68.991 43.3304 68.8007ZM49.0892 76.766C48.8657 77.2121 48.6063 77.6402 48.3166 78.0393C48.0393 78.4242 47.73 78.7856 47.3985 79.1145C47.0772 79.4336 46.7303 79.7227 46.3693 79.976C46.013 80.2241 45.6431 80.4375 45.2676 80.6108C44.8969 80.7811 44.5167 80.9146 44.1405 81.0062C43.7638 81.0965 43.3872 81.1462 43.0195 81.1545C42.6519 81.1628 42.2898 81.1279 41.9406 81.0524C41.9022 81.0438 41.8646 81.0292 41.8265 81.0198L44.3448 75.9929L42.6356 75.1366L40.1177 80.1627C40.0874 80.1379 40.0532 80.1165 40.0233 80.0908C39.7546 79.8568 39.509 79.5873 39.2955 79.2879C39.082 78.9885 38.8963 78.657 38.7439 78.3017C38.5908 77.9438 38.4696 77.5602 38.3845 77.1605C38.298 76.7569 38.2474 76.3328 38.2341 75.9006C38.2203 75.4586 38.245 75.008 38.3074 74.5592C38.3723 74.0967 38.4765 73.6326 38.6188 73.1778C38.7645 72.7099 38.9521 72.2458 39.1755 71.7996C39.3918 71.3681 39.6426 70.9549 39.9194 70.5687L49.6289 75.4327C49.4862 75.8861 49.3054 76.3344 49.0892 76.766Z" fill="#000C47" />
</g>
<path id="Vector 60" d="M34.9092 61.6632L51.6642 88.1069" stroke="#000C47" stroke-width="2.6492" />
</g>
<g id="Group 140_2">
<g transform="translate(-1.41659 2.83317)"><g>
<path d="M96.9249 88.7685C103.171 89.4043 108.27 94.4472 107.901 100.715C107.872 101.196 107.836 101.662 107.791 102.104C107.746 102.547 107.688 103.01 107.618 103.488C106.717 109.701 100.707 113.613 94.4607 112.977C88.2023 112.34 83.0983 107.279 83.4749 100.999C83.5032 100.528 83.5387 100.073 83.5827 99.6401C83.6268 99.2076 83.6838 98.7541 83.751 98.287C84.6474 92.0605 90.6666 88.1314 96.9249 88.7685Z" fill="#000C47" />
<path d="M109.109 102.239C109.061 102.703 109 103.185 108.929 103.678C107.907 110.717 101.147 114.989 94.3264 114.295C87.4917 113.599 81.7259 108.032 82.1525 100.92C82.1816 100.434 82.2188 99.9599 82.265 99.5061C82.3112 99.0523 82.3703 98.5803 82.4397 98.0986C83.4549 91.0466 90.2241 86.7554 97.0589 87.451C103.88 88.1453 109.641 93.6921 109.223 100.792C109.193 101.289 109.156 101.774 109.109 102.239Z" stroke="#000C47" stroke-width="2.6492" stroke-linejoin="round" />
</g>
</g><g id="Rectangle 195_2">
<path d="M96.9249 88.7685C103.171 89.4043 108.27 94.4472 107.901 100.715C107.872 101.196 107.836 101.662 107.791 102.104C107.746 102.547 107.688 103.01 107.618 103.488C106.717 109.701 100.707 113.613 94.4607 112.977C88.2023 112.34 83.0983 107.279 83.4749 100.999C83.5032 100.528 83.5387 100.073 83.5827 99.6401C83.6268 99.2076 83.6838 98.7541 83.751 98.287C84.6474 92.0605 90.6666 88.1314 96.9249 88.7685Z" fill="#F1D801" />
<path d="M109.109 102.239C109.061 102.703 109 103.185 108.929 103.678C107.907 110.717 101.147 114.989 94.3264 114.295C87.4917 113.599 81.7259 108.032 82.1525 100.92C82.1816 100.434 82.2188 99.9599 82.265 99.5061C82.3112 99.0523 82.3703 98.5803 82.4397 98.0986C83.4549 91.0466 90.2241 86.7554 97.0589 87.451C103.88 88.1453 109.641 93.6921 109.223 100.792C109.193 101.289 109.156 101.774 109.109 102.239Z" stroke="#000C47" stroke-width="2.6492" stroke-linejoin="round" />
</g>
<g id="bx-bug 1_2" clip-path="url(#clip2_466_5335)">
<path id="Vector_11" d="M100.063 95.9527L102.671 93.8301L101.604 92.5187L98.9646 94.6671C98.7829 94.5074 98.5944 94.3563 98.3956 94.2229C97.0248 93.3088 95.3401 93.1352 93.8114 93.7528C93.5897 93.8423 93.3762 93.9521 93.165 94.0716L91.0165 91.433L89.7052 92.5004L91.8288 95.1084C91.2819 95.6668 90.8312 96.332 90.4792 97.0788L87.3199 96.7548L87.1474 98.4371L89.0879 98.6361C88.9905 99.0468 88.9119 99.4654 88.8685 99.8885C88.8248 100.315 88.8165 100.744 88.8282 101.169L86.8877 100.97L86.7152 102.652L89.0308 102.889C89.0384 102.923 89.0416 102.959 89.0493 102.992C89.1595 103.475 89.3091 103.947 89.4958 104.397C89.5259 104.469 89.5624 104.536 89.5943 104.606L87.4334 106.365L88.5008 107.677L90.4577 106.083C90.6335 106.317 90.8168 106.543 91.015 106.749C91.3361 107.083 91.6876 107.376 92.0576 107.623C92.4386 107.877 92.8448 108.086 93.2659 108.24C93.6999 108.4 94.1516 108.505 94.61 108.552C95.0684 108.599 95.5319 108.588 95.9885 108.52C96.4322 108.454 96.8722 108.333 97.2969 108.161C97.7093 107.994 98.1132 107.778 98.4961 107.516C98.7319 107.355 98.9565 107.17 99.1753 106.977L100.769 108.935L102.08 107.867L100.321 105.706C100.368 105.643 100.417 105.585 100.461 105.52C100.734 105.119 100.978 104.687 101.183 104.235C101.197 104.203 101.207 104.17 101.222 104.139L103.538 104.376L103.711 102.694L101.769 102.495C101.867 102.081 101.946 101.66 101.99 101.233C102.033 100.81 102.041 100.384 102.03 99.9623L103.97 100.161L104.143 98.4799L100.983 98.1559C100.79 97.3533 100.484 96.6104 100.063 95.9527ZM93.0476 96.278C93.47 95.847 93.9407 95.5255 94.4444 95.3213C95.4562 94.9125 96.5504 95.0256 97.4565 95.6302C97.9092 95.9325 98.3049 96.3428 98.6318 96.8515C98.8511 97.191 99.017 97.5709 99.1573 97.9687L92.3053 97.266C92.5243 96.9051 92.763 96.5658 93.0476 96.278ZM100.308 101.062C100.263 101.501 100.183 101.936 100.068 102.357C99.9594 102.762 99.8168 103.158 99.6456 103.534C99.4799 103.899 99.2835 104.247 99.0643 104.569C98.8474 104.886 98.6083 105.179 98.352 105.44C98.0987 105.697 97.8261 105.927 97.5436 106.12C97.2603 106.313 96.9644 106.472 96.6629 106.594C96.3614 106.716 96.0509 106.801 95.7384 106.848C95.7039 106.853 95.6682 106.853 95.6338 106.857L96.1412 101.909L94.4589 101.737L93.9516 106.684C93.9188 106.672 93.8838 106.666 93.851 106.654C93.5554 106.544 93.2677 106.398 92.9973 106.218C92.7268 106.037 92.4693 105.821 92.2319 105.575C91.993 105.327 91.7726 105.047 91.5768 104.743C91.3788 104.437 91.204 104.102 91.0575 103.748C90.9076 103.387 90.7868 103.007 90.6977 102.616C90.6064 102.213 90.5471 101.796 90.5223 101.376C90.4961 100.943 90.5058 100.5 90.5508 100.061C90.5944 99.6363 90.6723 99.2159 90.7803 98.8096L100.336 99.7896C100.361 100.209 100.352 100.637 100.308 101.062Z" fill="#000C47" />
</g>
<path id="Vector 60_2" d="M83.8438 93.0137L105.992 109.636" stroke="#000C47" stroke-width="2.6492" />
</g>
<g id="Group 140_3">
<g transform="translate(-1.41659 2.83317)"><g>
<path d="M79.2501 106.885C87.3992 103.657 96.9603 106.629 100.533 114.633C100.807 115.248 101.062 115.848 101.291 116.425C101.519 117.002 101.745 117.615 101.966 118.251C104.843 126.53 99.91 135.243 91.7609 138.47C83.5955 141.705 74.0161 138.714 70.4456 130.69C70.1778 130.088 69.9288 129.5 69.7053 128.936C69.4818 128.372 69.2609 127.773 69.044 127.151C66.1515 118.859 71.0847 110.119 79.2501 106.885Z" fill="#000C47" />
<path d="M102.522 115.938C102.758 116.535 102.991 117.165 103.217 117.815C106.369 126.883 100.935 136.261 92.2482 139.702C83.5442 143.149 73.1447 140.014 69.2352 131.228C68.9613 130.613 68.7056 130.008 68.4742 129.424C68.2428 128.839 68.015 128.224 67.7931 127.587C64.6261 118.507 70.0583 109.102 78.7622 105.654C87.4485 102.213 97.8303 105.327 101.743 114.093C102.023 114.722 102.285 115.34 102.522 115.938Z" stroke="#000C47" stroke-width="2.6492" stroke-linejoin="round" />
</g>
</g><g id="Rectangle 195_3">
<path d="M79.2501 106.885C87.3992 103.657 96.9603 106.629 100.533 114.633C100.807 115.248 101.062 115.848 101.291 116.425C101.519 117.002 101.745 117.615 101.966 118.251C104.843 126.53 99.91 135.243 91.7609 138.47C83.5955 141.705 74.0161 138.714 70.4456 130.69C70.1778 130.088 69.9288 129.5 69.7053 128.936C69.4818 128.372 69.2609 127.773 69.044 127.151C66.1515 118.859 71.0847 110.119 79.2501 106.885Z" fill="#B980FF" />
<path d="M102.522 115.938C102.758 116.535 102.991 117.165 103.217 117.815C106.369 126.883 100.935 136.261 92.2482 139.702C83.5442 143.149 73.1447 140.014 69.2352 131.228C68.9613 130.613 68.7056 130.008 68.4742 129.424C68.2428 128.839 68.015 128.224 67.7931 127.587C64.6261 118.507 70.0583 109.102 78.7622 105.654C87.4485 102.213 97.8303 105.327 101.743 114.093C102.023 114.722 102.285 115.34 102.522 115.938Z" stroke="#000C47" stroke-width="2.6492" stroke-linejoin="round" />
</g>
<g id="bx-bug 1_3" clip-path="url(#clip3_466_5335)">
<path id="Vector_12" d="M87.7599 113.768L89.628 109.46L87.4621 108.522L85.5725 112.881C85.2447 112.8 84.914 112.734 84.5818 112.696C82.2953 112.445 80.0959 113.313 78.5985 115.061C78.3813 115.314 78.1873 115.588 78.0024 115.872L73.6435 113.983L72.7046 116.149L77.013 118.016C76.6944 119.059 76.5635 120.173 76.6075 121.325L72.4839 122.955L73.3518 125.151L75.8845 124.15C76.0279 124.721 76.1996 125.291 76.4179 125.843C76.6379 126.399 76.9035 126.937 77.191 127.455L74.6583 128.456L75.5261 130.652L78.5484 129.457C78.5796 129.495 78.6062 129.536 78.637 129.572C79.0842 130.1 79.5734 130.59 80.0942 131.027C80.1777 131.097 80.2658 131.156 80.3506 131.223L78.8036 134.792L80.9695 135.731L82.37 132.498C82.7382 132.675 83.1108 132.837 83.4887 132.964C84.1012 133.172 84.7256 133.309 85.3428 133.378C85.9785 133.448 86.6157 133.445 87.2369 133.365C87.8777 133.285 88.5049 133.124 89.1032 132.888C89.7016 132.651 90.2689 132.34 90.791 131.962C91.2985 131.595 91.7657 131.162 92.1818 130.676C92.5855 130.204 92.9465 129.676 93.2529 129.105C93.4416 128.754 93.6014 128.381 93.7481 128.001L96.9816 129.402L97.9204 127.236L94.3514 125.689C94.3683 125.581 94.3918 125.477 94.4049 125.369C94.4855 124.696 94.509 124.004 94.473 123.312C94.4704 123.264 94.4618 123.216 94.4592 123.168L97.4826 121.973L96.6148 119.777L94.081 120.779C93.9358 120.202 93.7628 119.63 93.5428 119.073C93.3246 118.521 93.0606 117.988 92.7756 117.472L95.3083 116.471L94.441 114.277L90.3174 115.907C89.5621 115.036 88.7049 114.312 87.7599 113.768ZM79.2754 118.682C79.5219 117.876 79.8985 117.175 80.3915 116.598C81.3825 115.441 82.8112 114.877 84.3229 115.044C85.0782 115.128 85.8323 115.382 86.5645 115.802C87.0546 116.082 87.5045 116.446 87.934 116.849L78.9909 120.383C79.0302 119.795 79.1079 119.221 79.2754 118.682ZM91.3487 119.942C91.5752 120.515 91.7555 121.106 91.8842 121.701C92.0101 122.274 92.0879 122.856 92.1175 123.432C92.1466 123.99 92.127 124.548 92.0627 125.088C91.9976 125.621 91.8894 126.137 91.7396 126.625C91.591 127.107 91.4008 127.566 91.1752 127.988C90.9482 128.409 90.6837 128.797 90.3886 129.142C90.0934 129.487 89.7631 129.791 89.406 130.051C89.3665 130.079 89.3221 130.102 89.2821 130.129L86.7298 123.671L84.5341 124.539L87.0859 130.996C87.0381 131.003 86.9903 131.017 86.942 131.023C86.5053 131.078 86.0551 131.082 85.6037 131.032C85.1523 130.982 84.6944 130.88 84.2419 130.727C83.7863 130.573 83.3336 130.369 82.8956 130.118C82.4529 129.865 82.021 129.562 81.6123 129.219C81.1941 128.867 80.7999 128.474 80.4382 128.047C80.066 127.606 79.7247 127.128 79.4234 126.622C79.1127 126.103 78.8401 125.548 78.6136 124.975C78.3945 124.421 78.2208 123.85 78.0934 123.277L90.5661 118.347C90.8658 118.852 91.1295 119.387 91.3487 119.942Z" fill="#000C47" />
</g>
<path id="Vector 60_3" d="M65.769 120.557L103.904 126.915" stroke="#000C47" stroke-width="2.6492" />
</g>
<g id="Group 140_4">
<g transform="translate(-1.41659 2.83317)"><g>
<path d="M63.8464 41.8758C71.7399 35.7569 83.1461 35.974 89.5959 43.5995C90.0914 44.1854 90.5611 44.7618 90.9943 45.3206C91.4275 45.8795 91.8686 46.478 92.3125 47.1039C98.0893 55.2511 95.456 66.3513 87.5625 72.4702C79.6533 78.6012 68.2208 78.3687 61.7666 70.7209C61.2825 70.1473 60.8236 69.5833 60.4 69.0367C59.9763 68.4901 59.5445 67.9051 59.1096 67.2933C53.3123 59.1364 55.9372 48.0069 63.8464 41.8758Z" fill="#000C47" />
<path d="M92.0411 44.5097C92.4878 45.0858 92.9405 45.6999 93.3931 46.3382C99.6522 55.1659 96.7244 67.0446 88.3744 73.5174C80.0072 80.0035 67.746 79.8602 60.754 71.5751C60.2604 70.9902 59.7904 70.4116 59.3537 69.8483C58.9169 69.2848 58.4734 68.6849 58.0299 68.061C51.7495 59.2242 54.668 47.3152 63.0351 40.8292C71.3853 34.3564 83.6188 34.4821 90.6074 42.7446C91.1127 43.342 91.5945 43.9335 92.0411 44.5097Z" stroke="#000C47" stroke-width="2.6492" stroke-linejoin="round" />
</g>
</g><g id="Rectangle 195_4">
<path d="M63.8464 41.8758C71.7399 35.7569 83.1461 35.974 89.5959 43.5995C90.0914 44.1854 90.5611 44.7618 90.9943 45.3206C91.4275 45.8795 91.8686 46.478 92.3125 47.1039C98.0893 55.2511 95.456 66.3513 87.5625 72.4702C79.6533 78.6012 68.2208 78.3687 61.7666 70.7209C61.2825 70.1473 60.8236 69.5833 60.4 69.0367C59.9763 68.4901 59.5445 67.9051 59.1096 67.2933C53.3123 59.1364 55.9372 48.0069 63.8464 41.8758Z" fill="#FF375B" />
<path d="M92.0411 44.5097C92.4878 45.0858 92.9405 45.6999 93.3931 46.3382C99.6522 55.1659 96.7244 67.0446 88.3744 73.5174C80.0072 80.0035 67.746 79.8602 60.754 71.5751C60.2604 70.9902 59.7904 70.4116 59.3537 69.8483C58.9169 69.2848 58.4734 68.6849 58.0299 68.061C51.7495 59.2242 54.668 47.3152 63.0351 40.8292C71.3853 34.3564 83.6188 34.4821 90.6074 42.7446C91.1127 43.342 91.5945 43.9335 92.0411 44.5097Z" stroke="#000C47" stroke-width="2.6492" stroke-linejoin="round" />
</g>
<g id="bx-bug 1_4" clip-path="url(#clip4_466_5335)">
<path id="Vector_13" d="M75.3422 46.7049L76.0193 41.3978L73.3511 41.0579L72.6669 46.4283C72.2824 46.4435 71.8995 46.4763 71.5241 46.5406C68.9421 46.9912 66.8107 48.6392 65.7269 51.0276C65.5696 51.3738 65.444 51.7346 65.3318 52.1039L59.9622 51.4207L59.6223 54.0889L64.9296 54.7641C64.9121 56.0074 65.1226 57.2682 65.5362 58.5147L61.5409 61.607L63.1875 63.7344L65.6415 61.835C65.9798 62.4151 66.3485 62.9836 66.7626 63.5187C67.18 64.058 67.6413 64.5616 68.1204 65.0379L65.6664 66.9372L67.313 69.0646L70.2414 66.7981C70.2873 66.8289 70.3296 66.8659 70.3747 66.8956C71.0316 67.3312 71.7224 67.7116 72.4313 68.0254C72.5448 68.0753 72.6599 68.112 72.7739 68.1582L72.2137 72.5549L74.882 72.8948L75.3884 68.9122C75.8475 68.9889 76.3069 69.0484 76.7608 69.0679C77.4969 69.1003 78.2239 69.0529 78.9211 68.9318C79.6389 68.8065 80.3353 68.6009 80.9899 68.3171C81.6656 68.0254 82.3011 67.6509 82.8808 67.2022C83.4605 66.7535 83.9824 66.2323 84.4339 65.6531C84.8728 65.0906 85.2465 64.468 85.5477 63.8045C85.8398 63.16 86.0672 62.467 86.2214 61.7455C86.3164 61.3012 86.3729 60.8424 86.4127 60.3796L90.3962 60.8871L90.7361 58.2189L86.3394 57.6587C86.3235 57.5349 86.316 57.4131 86.2961 57.2907C86.1708 56.5288 85.9767 55.7639 85.7179 55.0185C85.6996 54.9663 85.6752 54.9172 85.6569 54.865L88.5864 52.5976L86.9398 50.4702L84.4847 52.3704C84.1431 51.7861 83.772 51.2143 83.3546 50.675C82.9404 50.14 82.4825 49.6406 82.0069 49.1667L84.4608 47.2674L82.8151 45.141L78.8198 48.2333C77.7169 47.5204 76.5491 47.0006 75.3422 46.7049ZM67.6168 54.7748C67.6307 53.8148 67.8204 52.9281 68.1768 52.1403C68.894 50.5595 70.2787 49.4895 71.9859 49.1921C72.839 49.0438 73.7449 49.0825 74.6796 49.31C75.3047 49.4606 75.9126 49.7163 76.5105 50.0207L67.8455 56.7273C67.7018 56.0714 67.6047 55.4185 67.6168 54.7748ZM81.229 52.3219C81.6588 52.8771 82.0439 53.467 82.3736 54.0775C82.693 54.6638 82.963 55.2764 83.1782 55.8973C83.3873 56.4992 83.5427 57.1154 83.644 57.7276C83.7417 58.3307 83.7871 58.9299 83.7782 59.5118C83.7683 60.0858 83.7061 60.6493 83.5931 61.1824C83.4783 61.7153 83.3119 62.2233 83.0984 62.6947C82.8849 63.1661 82.6201 63.6041 82.3116 64.0011C82.2773 64.0446 82.2359 64.0835 82.2008 64.126L77.3582 57.8693L75.2307 59.5158L80.0725 65.7715C80.0226 65.7949 79.9746 65.8252 79.9238 65.8475C79.4633 66.0458 78.9718 66.1931 78.4619 66.2816C77.9521 66.37 77.4185 66.4037 76.875 66.3805C76.3276 66.3568 75.7673 66.2767 75.2083 66.1413C74.6437 66.0051 74.0749 65.8109 73.5186 65.5645C72.9495 65.3127 72.393 65.0069 71.8617 64.6545C71.3145 64.2904 70.7892 63.8754 70.2991 63.4179C69.7942 62.948 69.3198 62.4274 68.89 61.8721C68.4742 61.3349 68.1029 60.7651 67.7816 60.1786L79.8664 50.8251C80.3547 51.2823 80.8133 51.7847 81.229 52.3219Z" fill="#000C47" />
</g>
<path id="Vector 60_4" d="M53.4292 61.1133L97.1801 55.9683" stroke="#000C47" stroke-width="2.6492" />
</g>
<g id="Group 140_5">
<g transform="translate(-1.41659 2.83317)"><g>
<path d="M36.9147 42.4148C43.3852 48.3275 44.9009 58.2243 39.2694 64.9409C38.8367 65.457 38.4083 65.9492 37.9897 66.4073C37.5711 66.8654 37.1194 67.3363 36.6443 67.8136C30.4612 74.0262 20.4682 73.4065 13.9977 67.4938C7.51431 61.5693 6.00814 51.6475 11.6583 44.9238C12.0821 44.4194 12.5013 43.9383 12.9107 43.4903C13.3201 43.0423 13.7616 42.5815 14.2258 42.1141C20.4143 35.8823 30.4313 36.4903 36.9147 42.4148Z" fill="#000C47" />
<path d="M38.9673 67.3006C38.5339 67.7749 38.0695 68.26 37.5837 68.7481C30.8119 75.5521 20.0013 74.7736 13.1043 68.4711C6.19332 62.1557 4.45753 51.4336 10.6442 44.0714C11.0775 43.5557 11.5094 43.0609 11.9332 42.597C12.3571 42.1332 12.8111 41.6586 13.2858 41.1806C20.0619 34.3571 30.8967 35.1219 37.8078 41.437C44.7049 47.7395 46.4522 58.4363 40.2846 65.7924C39.8422 66.3201 39.4007 66.8262 38.9673 67.3006Z" stroke="#000C47" stroke-width="2.6492" stroke-linejoin="round" />
</g>
</g><g id="Rectangle 195_5">
<path d="M36.9147 42.4148C43.3852 48.3275 44.9009 58.2243 39.2694 64.9409C38.8367 65.457 38.4083 65.9492 37.9897 66.4073C37.5711 66.8654 37.1194 67.3363 36.6443 67.8136C30.4612 74.0262 20.4682 73.4065 13.9977 67.4938C7.51431 61.5693 6.00814 51.6475 11.6583 44.9238C12.0821 44.4194 12.5013 43.9383 12.9107 43.4903C13.3201 43.0423 13.7616 42.5815 14.2258 42.1141C20.4143 35.8823 30.4313 36.4903 36.9147 42.4148Z" fill="#F1D801" />
<path d="M38.9673 67.3006C38.5339 67.7749 38.0695 68.26 37.5837 68.7481C30.8119 75.5521 20.0013 74.7736 13.1043 68.4711C6.19332 62.1557 4.45753 51.4336 10.6442 44.0714C11.0775 43.5557 11.5094 43.0609 11.9332 42.597C12.3571 42.1332 12.8111 41.6586 13.2858 41.1806C20.0619 34.3571 30.8967 35.1219 37.8078 41.437C44.7049 47.7395 46.4522 58.4363 40.2846 65.7924C39.8422 66.3201 39.4007 66.8262 38.9673 67.3006Z" stroke="#000C47" stroke-width="2.6492" stroke-linejoin="round" />
</g>
<g id="bx-bug 1_5" clip-path="url(#clip5_466_5335)">
<path id="Vector_14" d="M34.4539 53.0791L39.1447 52.8721L39.0403 50.5138L34.2936 50.7241C34.223 50.3938 34.1376 50.0676 34.0258 49.7525C33.2506 47.5868 31.5071 45.9896 29.2797 45.409C28.9568 45.3247 28.626 45.27 28.2899 45.2281L28.0788 40.4823L25.7205 40.5868L25.9292 45.2775C24.8513 45.4481 23.7924 45.8184 22.7762 46.3622L19.5053 43.3688L17.9113 45.1105L19.9204 46.9491C19.4693 47.3284 19.0326 47.7321 18.6318 48.1701C18.2277 48.6116 17.861 49.0857 17.5207 49.5712L15.5117 47.7326L13.9177 49.4743L16.3152 51.6684C16.2954 51.7127 16.2697 51.7548 16.2507 51.7982C15.9721 52.4314 15.7463 53.0856 15.5808 53.7455C15.5546 53.8511 15.54 53.9562 15.5171 54.0617L11.6311 54.2338L11.7356 56.5921L15.2555 56.4354C15.2577 56.8438 15.2748 57.25 15.3258 57.6455C15.4077 58.2869 15.5572 58.9086 15.7661 59.4934C15.9816 60.0955 16.2634 60.667 16.6067 61.1908C16.9598 61.7316 17.3786 62.2252 17.8532 62.6596C18.3278 63.0939 18.8565 63.4674 19.4248 63.7714C19.9768 64.067 20.5711 64.2972 21.1898 64.4586C21.7909 64.615 22.4241 64.7081 23.0712 64.7337C23.4696 64.7495 23.8748 64.7299 24.281 64.6952L24.437 68.216L26.7953 68.1115L26.6231 64.2254C26.7278 64.1932 26.832 64.1686 26.9349 64.1331C27.5751 63.9109 28.2076 63.6289 28.8136 63.2937C28.856 63.2701 28.8949 63.2416 28.9373 63.218L31.3356 65.4129L32.9295 63.6712L30.9196 61.8318C31.3739 61.449 31.8129 61.0427 32.217 60.6012C32.6179 60.1632 32.9814 59.6925 33.3202 59.2104L35.3292 61.0491L36.9224 59.3082L33.6514 56.3148C34.1033 55.2545 34.3785 54.167 34.4539 53.0791ZM26.3213 47.603C27.1535 47.4717 27.9487 47.5034 28.6832 47.6939C30.1574 48.0781 31.2896 49.1159 31.8017 50.5479C32.0574 51.2635 32.1592 52.0527 32.1021 52.895C32.0652 53.4581 31.9348 54.022 31.7608 54.5846L24.6668 48.0924C25.2126 47.8702 25.7627 47.6888 26.3213 47.603ZM30.4754 59.0089C30.0594 59.4635 29.6068 59.8846 29.1279 60.2609C28.6686 60.6247 28.1792 60.9497 27.6743 61.2286C27.185 61.4992 26.6753 61.7257 26.161 61.9047C25.6541 62.0792 25.1426 62.208 24.6381 62.2872C24.1402 62.3644 23.6435 62.3947 23.1656 62.3766C22.6876 62.3569 22.2234 62.2889 21.7839 62.1746C21.3443 62.0604 20.926 61.8968 20.5366 61.6893C20.4938 61.6661 20.454 61.6361 20.412 61.6121L25.0998 56.4897L23.3581 54.8958L18.6711 60.0173C18.6435 59.9776 18.6101 59.9406 18.5832 59.9C18.3429 59.5313 18.1421 59.1283 17.9895 58.7006C17.8368 58.2728 17.728 57.8164 17.667 57.3429C17.6057 56.866 17.5913 56.3695 17.6249 55.8658C17.6584 55.3572 17.7414 54.8363 17.8714 54.3183C18.0042 53.7886 18.1855 53.2616 18.411 52.7495C18.6441 52.222 18.9246 51.7057 19.247 51.2135C19.578 50.7067 19.9575 50.2186 20.3735 49.764C20.7759 49.3243 21.2133 48.918 21.6726 48.5526L31.5663 57.607C31.2438 58.0976 30.8778 58.5691 30.4754 59.0089Z" fill="#000C47" />
</g>
<path id="Vector 60_5" d="M18.7217 36.2819L29.7047 73.3503" stroke="#000C47" stroke-width="2.6492" />
</g>
</g>
</g>
</g>
</g>
<g id="Group 140_6">
<g transform="translate(-1.41659 2.83317)"><g>
<path d="M47.4787 120.481C51.4645 122.474 53.5803 127.104 51.7591 131.171C51.6192 131.484 51.478 131.784 51.3369 132.066C51.1958 132.348 51.0403 132.641 50.8743 132.941C48.7132 136.838 43.7399 137.923 39.7541 135.93C35.7604 133.933 33.6457 129.29 35.4751 125.216C35.6124 124.911 35.7506 124.617 35.8886 124.341C36.0266 124.065 36.1784 123.779 36.3405 123.486C38.5016 119.578 43.485 118.484 47.4787 120.481Z" fill="#000C47" />
<path d="M52.5214 132.658C52.3705 132.96 52.2062 133.27 52.0327 133.583C49.467 138.21 43.6643 139.366 39.1617 137.115C34.6498 134.858 32.0956 129.507 34.2666 124.673C34.4099 124.354 34.5563 124.044 34.7038 123.749C34.8514 123.454 35.0119 123.15 35.1812 122.844C37.7459 118.207 43.5591 117.041 48.071 119.297C52.5734 121.548 55.1302 126.884 52.9682 131.712C52.8221 132.038 52.6724 132.356 52.5214 132.658Z" stroke="#000C47" stroke-width="2.6492" stroke-linejoin="round" />
</g>
</g><g id="Rectangle 195_6">
<path d="M47.4787 120.481C51.4645 122.474 53.5803 127.104 51.7591 131.171C51.6192 131.484 51.478 131.784 51.3369 132.066C51.1958 132.348 51.0403 132.641 50.8743 132.941C48.7132 136.838 43.7399 137.923 39.7541 135.93C35.7604 133.933 33.6457 129.29 35.4751 125.216C35.6124 124.911 35.7506 124.617 35.8886 124.341C36.0266 124.065 36.1784 123.779 36.3405 123.486C38.5016 119.578 43.485 118.484 47.4787 120.481Z" fill="#00AEF0" />
<path d="M52.5214 132.658C52.3705 132.96 52.2062 133.27 52.0327 133.583C49.467 138.21 43.6643 139.366 39.1617 137.115C34.6498 134.858 32.0956 129.507 34.2666 124.673C34.4099 124.354 34.5563 124.044 34.7038 123.749C34.8514 123.454 35.0119 123.15 35.1812 122.844C37.7459 118.207 43.5591 117.041 48.071 119.297C52.5734 121.548 55.1302 126.884 52.9682 131.712C52.8221 132.038 52.6724 132.356 52.5214 132.658Z" stroke="#000C47" stroke-width="2.6492" stroke-linejoin="round" />
</g>
<g id="bx-bug 1_6" clip-path="url(#clip6_466_5335)">
<path id="Vector_15" d="M47.7551 126.037L50.0205 125.285L49.6418 124.146L47.3496 124.908C47.2692 124.756 47.1821 124.608 47.0837 124.47C46.4037 123.518 45.3292 122.979 44.1592 123.005C43.9896 123.008 43.8202 123.028 43.65 123.054L42.8876 120.762L41.7488 121.141L42.5023 123.406C41.9989 123.639 41.5324 123.967 41.111 124.374L39.0955 123.365L38.5579 124.438L39.7958 125.058C39.6279 125.306 39.4704 125.564 39.3352 125.834C39.1989 126.106 39.0854 126.389 38.9864 126.674L37.7485 126.054L37.2108 127.127L38.6881 127.867C38.6846 127.891 38.6779 127.915 38.6746 127.939C38.6263 128.288 38.6067 128.639 38.6175 128.985C38.6193 129.04 38.6268 129.093 38.6302 129.148L36.7536 129.772L37.1322 130.911L38.8319 130.345C38.8898 130.545 38.9546 130.741 39.0344 130.927C39.1636 131.23 39.323 131.513 39.5064 131.77C39.6954 132.035 39.9127 132.275 40.1533 132.483C40.4011 132.699 40.6745 132.882 40.9669 133.029C41.2594 133.175 41.5698 133.284 41.89 133.354C42.201 133.422 42.5236 133.452 42.8486 133.445C43.1643 133.438 43.487 133.396 43.8069 133.318C44.004 133.271 44.1994 133.205 44.3933 133.131L44.9586 134.832L46.0974 134.453L45.4735 132.576C45.5202 132.546 45.5678 132.519 45.6131 132.488C45.8954 132.29 46.1656 132.064 46.4154 131.816C46.4328 131.799 46.4479 131.78 46.4653 131.762L47.9431 132.502L48.4808 131.429L47.2423 130.809C47.4113 130.559 47.5696 130.299 47.7059 130.027C47.8411 129.757 47.9535 129.476 48.0522 129.193L49.2902 129.814L49.8275 128.741L47.8121 127.731C47.8858 127.15 47.8693 126.58 47.7551 126.037ZM43.0171 124.489C43.4059 124.309 43.7992 124.214 44.1849 124.205C44.9592 124.188 45.6571 124.539 46.1064 125.168C46.3308 125.482 46.4903 125.854 46.5793 126.274C46.6395 126.554 46.654 126.848 46.6471 127.148L42.2759 124.958C42.512 124.773 42.7558 124.608 43.0171 124.489ZM46.6329 129.49C46.4926 129.77 46.3298 130.039 46.1479 130.289C45.9738 130.531 45.7795 130.758 45.5714 130.965C45.3696 131.165 45.1518 131.346 44.9252 131.505C44.7015 131.661 44.4692 131.795 44.2335 131.904C44.0007 132.011 43.762 132.095 43.5257 132.152C43.2892 132.209 43.0528 132.24 42.8219 132.245C42.5911 132.251 42.3638 132.229 42.1445 132.181C42.1204 132.176 42.0968 132.167 42.0729 132.161L43.654 129.005L42.5808 128.467L40.9999 131.623C40.9809 131.607 40.9594 131.594 40.9407 131.578C40.7719 131.431 40.6177 131.261 40.4837 131.073C40.3496 130.885 40.233 130.677 40.1374 130.454C40.0412 130.229 39.9652 129.989 39.9117 129.738C39.8574 129.484 39.8256 129.218 39.8173 128.947C39.8086 128.669 39.8241 128.386 39.8633 128.104C39.904 127.814 39.9695 127.523 40.0588 127.237C40.1503 126.943 40.2681 126.652 40.4084 126.372C40.5441 126.101 40.7016 125.841 40.8755 125.599L46.9718 128.653C46.8822 128.938 46.7687 129.219 46.6329 129.49Z" fill="#000C47" />
</g>
<path id="Vector 60_6" d="M37.7266 120.008L48.2466 136.611" stroke="#000C47" stroke-width="2.6492" />
</g>
<g id="Group 140_7">
<g transform="translate(-1.41659 2.83317)"><g>
<path d="M31.278 102.379C37.626 105.553 40.9959 112.927 38.0952 119.404C37.8724 119.902 37.6476 120.38 37.4229 120.83C37.1982 121.279 36.9505 121.746 36.686 122.223C33.2442 128.429 25.3234 130.157 18.9754 126.983C12.6148 123.803 9.24673 116.408 12.1603 109.92C12.3789 109.434 12.599 108.966 12.8188 108.527C13.0386 108.087 13.2805 107.631 13.5387 107.164C16.9805 100.941 24.9174 99.1986 31.278 102.379Z" fill="#000C47" />
<path d="M38.6074 121.421C38.3729 121.89 38.1162 122.374 37.8444 122.864C33.9979 129.801 25.2475 131.6 18.3827 128.168C11.5041 124.728 7.69665 116.626 10.9516 109.378C11.1763 108.878 11.4049 108.393 11.6343 107.934C11.8636 107.476 12.114 107.002 12.3794 106.523C16.2248 99.57 24.9912 97.7551 31.8699 101.195C38.7346 104.627 42.5455 112.706 39.3041 119.945C39.075 120.457 38.842 120.952 38.6074 121.421Z" stroke="#000C47" stroke-width="2.6492" stroke-linejoin="round" />
</g>
</g><g id="Rectangle 195_7">
<path d="M31.278 102.379C37.626 105.553 40.9959 112.927 38.0952 119.404C37.8724 119.902 37.6476 120.38 37.4229 120.83C37.1982 121.279 36.9505 121.746 36.686 122.223C33.2442 128.429 25.3234 130.157 18.9754 126.983C12.6148 123.803 9.24673 116.408 12.1603 109.92C12.3789 109.434 12.599 108.966 12.8188 108.527C13.0386 108.087 13.2805 107.631 13.5387 107.164C16.9805 100.941 24.9174 99.1986 31.278 102.379Z" fill="#FF375B" />
<path d="M38.6074 121.421C38.3729 121.89 38.1162 122.374 37.8444 122.864C33.9979 129.801 25.2475 131.6 18.3827 128.168C11.5041 124.728 7.69665 116.626 10.9516 109.378C11.1763 108.878 11.4049 108.393 11.6343 107.934C11.8636 107.476 12.114 107.002 12.3794 106.523C16.2248 99.57 24.9912 97.7551 31.8699 101.195C38.7346 104.627 42.5455 112.706 39.3041 119.945C39.075 120.457 38.842 120.952 38.6074 121.421Z" stroke="#000C47" stroke-width="2.6492" stroke-linejoin="round" />
</g>
<g id="bx-bug 1_7" clip-path="url(#clip7_466_5335)">
<path id="Vector_16" d="M31.7173 111.229L35.3252 110.03L34.7222 108.216L31.0714 109.43C30.9434 109.189 30.8046 108.953 30.6479 108.733C29.565 107.217 27.8536 106.359 25.9902 106.399C25.72 106.405 25.4503 106.436 25.1792 106.477L23.965 102.827L22.1512 103.431L23.3513 107.038C22.5495 107.409 21.8066 107.932 21.1354 108.58L17.9254 106.972L17.0691 108.682L19.0408 109.669C18.7733 110.065 18.5225 110.476 18.3071 110.905C18.09 111.339 17.9093 111.789 17.7517 112.243L15.78 111.255L14.9238 112.964L17.2765 114.143C17.271 114.182 17.2602 114.22 17.2551 114.258C17.1781 114.813 17.1469 115.373 17.164 115.923C17.167 116.011 17.1789 116.096 17.1844 116.183L14.1955 117.177L14.7986 118.991L17.5056 118.09C17.5977 118.408 17.7009 118.721 17.8281 119.017C18.0338 119.499 18.2878 119.95 18.5799 120.359C18.8809 120.781 19.2269 121.163 19.6101 121.495C20.0048 121.839 20.4402 122.13 20.9059 122.364C21.3717 122.597 21.8662 122.771 22.3761 122.882C22.8714 122.99 23.3852 123.038 23.9029 123.027C24.4056 123.016 24.9195 122.948 25.4292 122.825C25.743 122.749 26.0543 122.644 26.363 122.527L27.2633 125.235L29.0771 124.632L28.0834 121.643C28.1578 121.595 28.2335 121.553 28.3058 121.503C28.7553 121.188 29.1856 120.828 29.5835 120.433C29.6113 120.405 29.6353 120.375 29.6631 120.347L32.0167 121.526L32.873 119.817L30.9005 118.829C31.1697 118.43 31.4218 118.016 31.6389 117.583C31.8542 117.153 32.0332 116.706 32.1905 116.256L34.1621 117.243L35.0179 115.535L31.8079 113.927C31.9254 113.001 31.8991 112.093 31.7173 111.229ZM24.1712 108.763C24.7904 108.476 25.4168 108.325 26.031 108.311C27.2643 108.284 28.3758 108.842 29.0915 109.844C29.4489 110.345 29.7028 110.937 29.8446 111.606C29.9405 112.053 29.9636 112.521 29.9526 112.997L22.9908 109.51C23.3667 109.216 23.7551 108.953 24.1712 108.763ZM29.93 116.728C29.7065 117.174 29.4472 117.602 29.1575 118.001C28.8802 118.386 28.5708 118.748 28.2393 119.077C27.918 119.396 27.5711 119.685 27.2101 119.938C26.8538 120.186 26.4839 120.4 26.1084 120.573C25.7377 120.743 25.3576 120.877 24.9813 120.968C24.6046 121.059 24.228 121.108 23.8603 121.117C23.4927 121.125 23.1307 121.09 22.7815 121.014C22.743 121.006 22.7054 120.991 22.6674 120.982L25.1856 115.955L23.4764 115.099L20.9585 120.125C20.9282 120.1 20.894 120.079 20.8641 120.053C20.5954 119.819 20.3498 119.549 20.1363 119.25C19.9228 118.95 19.7371 118.619 19.5848 118.264C19.4316 117.906 19.3105 117.522 19.2253 117.122C19.1388 116.719 19.0883 116.295 19.0749 115.863C19.0611 115.421 19.0859 114.97 19.1482 114.521C19.2131 114.059 19.3173 113.595 19.4596 113.14C19.6053 112.672 19.7929 112.208 20.0164 111.762C20.2326 111.33 20.4834 110.917 20.7603 110.531L30.4697 115.395C30.327 115.848 30.1462 116.296 29.93 116.728Z" fill="#000C47" />
</g>
<path id="Vector 60_7" d="M15.75 101.625L32.505 128.069" stroke="#000C47" stroke-width="2.6492" />
</g>
<g id="Frame 248">
<path id="Polygon 1" d="M216.484 28.3282C216.7 28.1153 216.993 27.9971 217.297 27.9998L228.572 28.0982C228.876 28.1009 229.166 28.2241 229.379 28.4408L237.283 36.4835C237.496 36.7002 237.614 36.9926 237.611 37.2964L237.513 48.5721C237.51 48.8759 237.387 49.1662 237.17 49.3792L229.128 57.2827C228.911 57.4957 228.619 57.6138 228.315 57.6112L217.039 57.5128C216.735 57.5101 216.445 57.3869 216.232 57.1702L208.328 49.1275C208.116 48.9108 207.997 48.6184 208 48.3146L208.098 37.0388C208.101 36.735 208.224 36.4447 208.441 36.2318L216.484 28.3282Z" fill="#B980FF" />
<path id="Rectangle 195_8" d="M210.242 42.8108C210.242 49.2931 214.889 55.0579 221.366 55.3343C221.863 55.3555 222.346 55.3672 222.805 55.3672C223.264 55.3672 223.746 55.3555 224.244 55.3343C230.72 55.0579 235.367 49.2931 235.367 42.8108C235.367 36.3155 230.702 30.5434 224.212 30.2737C223.725 30.2535 223.253 30.2423 222.805 30.2423C222.356 30.2423 221.884 30.2535 221.397 30.2737C214.908 30.5434 210.242 36.3155 210.242 42.8108Z" fill="#B980FF" />
<g id="Frame 213">
<rect x="212.602" y="33.9551" width="20.3975" height="17.2049" rx="4.43425" fill="#000C47" />
<path id="AD" d="M219.272 40.0733L217.239 47.8419H215.232L218.188 38.3845H219.441L219.272 40.0733ZM220.877 47.8419L218.831 40.0733L218.642 38.3845H219.915L222.897 47.8419H220.877ZM220.948 44.3149V45.8933H216.681V44.3149H220.948ZM226.268 47.8419H224.599L224.612 46.27H226.268C226.727 46.27 227.084 46.1877 227.34 46.0232C227.595 45.8586 227.775 45.5988 227.879 45.2437C227.987 44.8886 228.041 44.4231 228.041 43.8472V42.3727C228.041 41.9354 228.013 41.5651 227.957 41.262C227.9 40.9545 227.805 40.7077 227.671 40.5215C227.537 40.331 227.357 40.1902 227.132 40.0993C226.907 40.0084 226.627 39.9629 226.294 39.9629H224.566V38.3845H226.294C226.84 38.3845 227.335 38.4733 227.781 38.6508C228.227 38.8284 228.611 39.0882 228.931 39.4303C229.252 39.768 229.498 40.1859 229.672 40.6839C229.845 41.1819 229.931 41.7492 229.931 42.3857V43.8472C229.931 44.4881 229.845 45.0554 229.672 45.549C229.498 46.0427 229.252 46.4605 228.931 46.8026C228.615 47.1404 228.232 47.3981 227.781 47.5756C227.331 47.7531 226.827 47.8419 226.268 47.8419ZM225.703 38.3845V47.8419H223.8V38.3845H225.703Z" fill="white" />
</g>
<path id="Polygon 1_2" d="M228.582 26.9412C229.116 26.9458 229.63 27.1361 230.037 27.4753L230.204 27.6296L238.108 35.6726C238.536 36.1081 238.773 36.6959 238.768 37.3064L238.67 48.5818C238.665 49.1922 238.417 49.7759 237.981 50.2039L229.938 58.1082C229.503 58.536 228.915 58.7727 228.305 58.7673L217.029 58.6697C216.419 58.6644 215.835 58.4165 215.407 57.9812L207.504 49.9382C207.076 49.5027 206.838 48.915 206.844 48.3044L206.941 37.0291L206.955 36.8015C207.012 36.275 207.249 35.7815 207.63 35.407L215.673 27.5037C216.108 27.0757 216.696 26.8382 217.307 26.8435L228.582 26.9412Z" stroke="#000C47" stroke-width="2.31339" stroke-linejoin="round" />
<path id="Vector 60_8" d="M211.652 32.0371L233.188 53.5727" stroke="#000C47" stroke-width="2.31339" />
</g>
<g id="Frame 249">
<path id="Polygon 1_3" d="M243.484 4.32847C243.7 4.11553 243.993 3.99739 244.297 4.00004L255.572 4.09845C255.876 4.1011 256.166 4.22432 256.379 4.44101L264.283 12.4837C264.496 12.7004 264.614 12.9928 264.611 13.2966L264.513 24.5724C264.51 24.8762 264.387 25.1665 264.17 25.3794L256.128 33.283C255.911 33.4959 255.619 33.6141 255.315 33.6114L244.039 33.513C243.735 33.5103 243.445 33.3871 243.232 33.1704L235.328 25.1277C235.116 24.911 234.997 24.6186 235 24.3148L235.098 13.0391C235.101 12.7353 235.224 12.445 235.441 12.232L243.484 4.32847Z" fill="#00AEF0" />
<path id="Rectangle 195_9" d="M237.242 18.8108C237.242 25.2931 241.889 31.0579 248.366 31.3343C248.863 31.3555 249.346 31.3672 249.805 31.3672C250.264 31.3672 250.746 31.3555 251.244 31.3343C257.72 31.0579 262.367 25.2931 262.367 18.8108C262.367 12.3155 257.702 6.54338 251.212 6.27369C250.725 6.25346 250.253 6.24233 249.805 6.24233C249.356 6.24233 248.884 6.25346 248.397 6.27369C241.908 6.54338 237.242 12.3155 237.242 18.8108Z" fill="#00AEF0" />
<g id="Frame 213_2">
<rect x="239.793" y="10.1152" width="20.0173" height="16.8841" rx="4.35158" fill="#000C47" />
<path id="AD_2" d="M246.488 15.3618L244.493 22.9856H242.523L245.424 13.7045H246.654L246.488 15.3618ZM248.063 22.9856L246.055 15.3618L245.87 13.7045H247.119L250.045 22.9856H248.063ZM248.133 19.5243V21.0733H243.945V19.5243H248.133ZM253.354 22.9856H251.715L251.728 21.443H253.354C253.804 21.443 254.155 21.3623 254.405 21.2008C254.656 21.0393 254.832 20.7843 254.934 20.4358C255.041 20.0874 255.094 19.6305 255.094 19.0654V17.6184C255.094 17.1892 255.066 16.8258 255.011 16.5283C254.956 16.2266 254.862 15.9844 254.73 15.8017C254.599 15.6147 254.422 15.4766 254.201 15.3873C253.98 15.2981 253.706 15.2535 253.379 15.2535H251.683V13.7045H253.379C253.914 13.7045 254.401 13.7916 254.839 13.9658C255.276 14.1401 255.653 14.3951 255.967 14.7308C256.282 15.0622 256.524 15.4723 256.694 15.961C256.864 16.4497 256.949 17.0064 256.949 17.6311V19.0654C256.949 19.6943 256.864 20.251 256.694 20.7354C256.524 21.2199 256.282 21.63 255.967 21.9657C255.657 22.2972 255.281 22.55 254.839 22.7242C254.397 22.8985 253.902 22.9856 253.354 22.9856ZM252.799 13.7045V22.9856H250.931V13.7045H252.799Z" fill="white" />
</g>
<path id="Polygon 1_4" d="M255.582 2.94141C256.116 2.94607 256.63 3.13637 257.037 3.47559L257.204 3.62988L265.108 11.6729C265.536 12.1083 265.773 12.6962 265.768 13.3066L265.67 24.582C265.665 25.1925 265.417 25.7762 264.981 26.2041L256.938 34.1084C256.503 34.5362 255.915 34.7729 255.305 34.7676L244.029 34.6699C243.419 34.6646 242.835 34.4168 242.407 33.9814L234.504 25.9385C234.076 25.503 233.838 24.9152 233.844 24.3047L233.941 13.0293L233.955 12.8018C234.012 12.2753 234.249 11.7817 234.63 11.4072L242.673 3.50391C243.108 3.07596 243.696 2.83844 244.307 2.84375L255.582 2.94141Z" stroke="#000C47" stroke-width="2.31339" stroke-linejoin="round" />
<path id="Vector 60_9" d="M238.652 8.03711L260.188 29.5727" stroke="#000C47" stroke-width="2.31339" />
</g>
<g id="Frame 250">
<path id="Polygon 1_5" d="M245.999 76.813C246.288 76.529 246.678 76.3715 247.083 76.3751L262.117 76.5063C262.522 76.5098 262.909 76.6741 263.193 76.963L273.731 87.6867C274.015 87.9756 274.173 88.3654 274.169 88.7705L274.038 103.805C274.035 104.21 273.87 104.597 273.581 104.881L262.858 115.419C262.569 115.703 262.179 115.86 261.774 115.857L246.74 115.726C246.335 115.722 245.947 115.558 245.664 115.269L235.125 104.545C234.842 104.256 234.684 103.866 234.688 103.461L234.819 88.4271C234.822 88.022 234.987 87.635 235.276 87.3511L245.999 76.813Z" fill="#FF375B" />
<path id="Rectangle 195_10" d="M237.68 96.1234C237.68 104.767 243.876 112.453 252.511 112.821C253.174 112.85 253.818 112.865 254.43 112.865C255.041 112.865 255.685 112.85 256.348 112.821C264.983 112.453 271.18 104.767 271.18 96.1234C271.18 87.4631 264.959 79.767 256.306 79.4074C255.657 79.3804 255.028 79.3655 254.43 79.3655C253.831 79.3655 253.202 79.3804 252.553 79.4074C243.9 79.767 237.68 87.4631 237.68 96.1234Z" fill="#FF375B" />
<g id="Frame 213_3">
<rect x="240.844" y="84.332" width="27.155" height="22.9047" rx="5.90327" fill="#000C47" />
<path id="AD_3" d="M249.574 92.1704L246.867 102.513H244.195L248.13 89.9221H249.799L249.574 92.1704ZM251.71 102.513L248.986 92.1704L248.735 89.9221H250.43L254.399 102.513H251.71ZM251.805 97.8172V99.9185H246.124V97.8172H251.805ZM258.887 102.513H256.665L256.682 100.42H258.887C259.498 100.42 259.974 100.31 260.314 100.091C260.654 99.8724 260.893 99.5265 261.032 99.0537C261.176 98.581 261.248 97.9613 261.248 97.1946V95.2316C261.248 94.6494 261.21 94.1565 261.135 93.7529C261.061 93.3436 260.934 93.015 260.755 92.7671C260.576 92.5135 260.337 92.3261 260.037 92.205C259.737 92.084 259.366 92.0234 258.922 92.0234H256.622V89.9221H258.922C259.648 89.9221 260.308 90.0403 260.902 90.2767C261.496 90.513 262.006 90.8589 262.433 91.3144C262.859 91.764 263.188 92.3203 263.418 92.9833C263.649 93.6463 263.764 94.4015 263.764 95.2489V97.1946C263.764 98.0478 263.649 98.803 263.418 99.4602C263.188 100.117 262.859 100.674 262.433 101.129C262.012 101.579 261.502 101.922 260.902 102.158C260.302 102.395 259.631 102.513 258.887 102.513ZM258.135 89.9221V102.513H255.601V89.9221H258.135Z" fill="white" />
</g>
<path id="Polygon 1_6" d="M262.131 74.9639C262.894 74.9705 263.625 75.2617 264.184 75.7764L264.293 75.8818L274.831 86.6055C275.402 87.1861 275.719 87.9701 275.712 88.7842L275.58 103.818C275.573 104.632 275.243 105.41 274.662 105.98L263.938 116.519C263.358 117.089 262.575 117.406 261.761 117.399L246.727 117.268C245.912 117.26 245.134 116.93 244.563 116.35L234.025 105.626C233.455 105.045 233.138 104.262 233.146 103.448L233.276 88.4141L233.281 88.2617C233.325 87.5033 233.65 86.786 234.194 86.251L244.918 75.7129L245.029 75.6094C245.597 75.1043 246.333 74.8263 247.097 74.833L262.131 74.9639Z" stroke="#000C47" stroke-width="3.08453" stroke-linejoin="round" />
<path id="Vector 60_10" d="M239.559 81.7578L268.273 110.472" stroke="#000C47" stroke-width="3.08453" />
</g>
<g id="Frame 247">
<path id="Polygon 1_7" d="M264.717 26.6275C265.049 26.3017 265.496 26.1209 265.961 26.1249L283.216 26.2755C283.681 26.2796 284.125 26.4682 284.451 26.7998L296.546 39.1076C296.872 39.4392 297.053 39.8866 297.049 40.3515L296.898 57.6068C296.894 58.0717 296.706 58.516 296.374 58.8418L284.066 70.9367C283.735 71.2626 283.287 71.4433 282.822 71.4393L265.567 71.2887C265.102 71.2846 264.658 71.0961 264.332 70.7645L252.237 58.4567C251.911 58.1251 251.73 57.6776 251.734 57.2127L251.885 39.9574C251.889 39.4925 252.078 39.0483 252.409 38.7224L264.717 26.6275Z" fill="#F1D801" />
<path id="Rectangle 195_11" d="M255.168 48.7907C255.168 58.7107 262.279 67.5326 272.19 67.9555C272.952 67.9879 273.69 68.0059 274.392 68.0059C275.095 68.0059 275.833 67.9879 276.594 67.9555C286.505 67.5326 293.617 58.7107 293.617 48.7907C293.617 38.851 286.477 30.0179 276.546 29.6052C275.801 29.5742 275.079 29.5572 274.392 29.5572C273.705 29.5572 272.983 29.5742 272.239 29.6052C262.307 30.0179 255.168 38.851 255.168 48.7907Z" fill="#F1D801" />
<g id="Frame 213_4">
<rect x="259.77" y="36.0762" width="29.2277" height="24.6529" rx="6.35384" fill="#000C47" />
<path id="AD_4" d="M269.365 44.2154L266.452 55.347H263.576L267.811 41.7955H269.607L269.365 44.2154ZM271.664 55.347L268.732 44.2154L268.462 41.7955H270.286L274.558 55.347H271.664ZM271.766 50.2931V52.5548H265.651V50.2931H271.766ZM279.389 55.347H276.997L277.016 53.0947H279.389C280.047 53.0947 280.559 52.9768 280.925 52.741C281.291 52.5052 281.548 52.1329 281.697 51.6241C281.852 51.1153 281.93 50.4483 281.93 49.623V47.5102C281.93 46.8835 281.89 46.353 281.809 45.9187C281.728 45.4781 281.592 45.1244 281.399 44.8576C281.207 44.5846 280.95 44.383 280.627 44.2526C280.304 44.1223 279.904 44.0572 279.426 44.0572H276.95V41.7955H279.426C280.208 41.7955 280.919 41.9227 281.558 42.1771C282.197 42.4315 282.746 42.8038 283.205 43.294C283.664 43.778 284.018 44.3767 284.266 45.0903C284.514 45.8039 284.638 46.6167 284.638 47.5288V49.623C284.638 50.5413 284.514 51.3542 284.266 52.0615C284.018 52.7689 283.664 53.3677 283.205 53.8579C282.752 54.3418 282.203 54.711 281.558 54.9654C280.912 55.2198 280.189 55.347 279.389 55.347ZM278.579 41.7955V55.347H275.852V41.7955H278.579Z" fill="white" />
</g>
<path id="Polygon 1_8" d="M283.231 24.5057C284.107 24.5134 284.947 24.8468 285.588 25.4374L285.714 25.5594L297.809 37.8671C298.463 38.5335 298.827 39.4327 298.818 40.3671L298.668 57.6219C298.66 58.5563 298.281 59.4495 297.614 60.1044L285.307 72.1991C284.64 72.854 283.741 73.217 282.807 73.2089L265.552 73.0585C264.617 73.0503 263.724 72.6712 263.069 72.0048L250.975 59.6971C250.32 59.0307 249.957 58.1315 249.965 57.1971L250.115 39.9423L250.121 39.7675C250.172 38.897 250.544 38.0739 251.169 37.4598L263.477 25.3651L263.604 25.246C264.256 24.6665 265.101 24.3477 265.977 24.3553L283.231 24.5057Z" stroke="#000C47" stroke-width="3.54019" stroke-linejoin="round" />
<path id="Vector 60_11" d="M257.324 32.3047L290.28 65.2607" stroke="#000C47" stroke-width="3.54019" />
</g>
</g>
<defs>
<clipPath id="clip0_466_5335">
<rect width="300" height="144" rx="72" fill="white" />
</clipPath>
<clipPath id="clip1_466_5335">
<rect width="22.9408" height="22.9408" fill="white" transform="translate(39.2295 58.462) rotate(26.6089)" />
</clipPath>
<clipPath id="clip2_466_5335">
<rect width="20.2932" height="20.2932" fill="white" transform="translate(86.4141 89.0117) rotate(5.85498)" />
</clipPath>
<clipPath id="clip3_466_5335">
<rect width="28.3317" height="28.3317" fill="white" transform="translate(66.3823 113.941) rotate(-21.5656)" />
</clipPath>
<clipPath id="clip4_466_5335">
<rect width="32.2824" height="32.2824" fill="white" transform="translate(52.0034 53.6816) rotate(-37.7393)" />
</clipPath>
<clipPath id="clip5_466_5335">
<rect width="28.3317" height="28.3317" fill="white" transform="translate(24.9365 33.9362) rotate(42.4636)" />
</clipPath>
<clipPath id="clip6_466_5335">
<rect width="14.404" height="14.404" fill="white" transform="translate(40.4414 117.998) rotate(26.6089)" />
</clipPath>
<clipPath id="clip7_466_5335">
<rect width="22.9408" height="22.9408" fill="white" transform="translate(20.0703 98.424) rotate(26.6089)" />
</clipPath>
</defs>
</svg>