<svg xmlns="http://www.w3.org/2000/svg" width="315.538" height="93.395">
  <defs>
    <clipPath id="a">
      <path d="M0 74.716h252.43V0H0v74.716z"/>
    </clipPath>
  </defs>
  <g clip-path="url(#a)" transform="matrix(1.25 0 0 -1.25 0 93.39)">
    <path d="M54.692 44.566c0-11.644-9.63-21.082-21.51-21.082-11.882 0-21.513 9.438-21.513 21.082 0 11.643 9.63 21.08 21.51 21.08s21.512-9.437 21.512-21.08" fill="#00baf2"/>
    <path d="M64.5 12.67c-3.147 7.126-3.69 13.163-3.773 15.535V47.72c0 14.91-12.33 26.996-27.543 26.996-15.215 0-27.547-12.086-27.547-26.995V27.924C5.52 25.37 4.9 19.518 1.877 12.67c-4.066-9.2-.702-8.104 2.312-7.347 3.012.754 9.74 3.71 11.844.068 2.1-3.638 3.854-6.798 8.76-4.738C29.7 2.712 32.01 3.4 32.71 3.4h.953c.7 0 3.012-.687 7.917-2.748 4.906-2.06 6.66 1.1 8.76 4.74 2.103 3.64 8.83.685 11.845-.07 3.014-.756 6.376-1.853 2.312 7.35M24.68 59.995c2.968 0 5.373-3.73 5.373-8.33 0-4.603-2.405-8.334-5.372-8.334-2.966 0-5.372 3.73-5.372 8.333 0 4.602 2.406 8.33 5.373 8.33m8.503-33.302c-6.538 0-12.04 6.305-13.7 13.322 3.203-4.316 8.147-7.088 13.7-7.088 5.552 0 10.496 2.772 13.7 7.088-1.66-7.017-7.164-13.322-13.7-13.322m8.502 16.64c-2.97 0-5.373 3.73-5.373 8.332s2.404 8.33 5.373 8.33c2.968 0 5.372-3.728 5.372-8.33s-2.404-8.333-5.372-8.333M82.223 42.8h8.753V30.434c0-6.238-3.183-9.803-9.322-9.803-6.138 0-9.32 3.566-9.32 9.804V50.71c0 6.24 3.182 9.803 9.32 9.803 6.14 0 9.322-3.564 9.322-9.803v-3.788h-5.91V51.1c0 2.784-1.25 3.842-3.24 3.842-1.99 0-3.24-1.058-3.24-3.842V30.044c0-2.785 1.25-3.788 3.24-3.788 1.99 0 3.24 1.003 3.24 3.788v7.185h-2.843v5.57zM101.265 21.076h-6.25v38.99h6.25v-16.71h7.104v16.71h6.365v-38.99h-6.366v16.71h-7.105v-16.71zM118.77 50.71c0 6.238 3.355 9.804 9.492 9.804 6.14 0 9.492-3.566 9.492-9.804V30.434c0-6.24-3.352-9.805-9.492-9.805-6.137 0-9.49 3.565-9.49 9.804V50.71zm6.253-20.666c0-2.785 1.25-3.844 3.238-3.844 1.99 0 3.24 1.06 3.24 3.844V51.1c0 2.785-1.25 3.843-3.24 3.843-1.986 0-3.238-1.058-3.238-3.843V30.044zM150.203 60.513c6.082 0 9.208-3.566 9.208-9.805v-1.224h-5.91V51.1c0 2.785-1.138 3.843-3.128 3.843-1.988 0-3.126-1.058-3.126-3.844 0-8.02 12.22-9.526 12.22-20.667 0-6.238-3.18-9.802-9.32-9.802-6.138 0-9.322 3.565-9.322 9.803v2.395h5.91v-2.785c0-2.783 1.252-3.786 3.24-3.786 1.99 0 3.24 1.003 3.24 3.786 0 8.023-12.22 9.527-12.22 20.665 0 6.24 3.126 9.805 9.21 9.805M160.747 60.068h19.324v-5.572h-6.534v-33.42h-6.252v33.42h-6.537v5.572zM189.535 43.635h8.583v-5.57h-8.583v-11.42h10.8v-5.57h-17.05v38.992h17.05v-5.57h-10.8V43.634zM217.272 21.076c-.34 1.003-.568 1.617-.568 4.79v6.127c0 3.62-1.25 4.958-4.094 4.958h-2.158V21.077h-6.25v38.99h9.433c6.48 0 9.266-2.952 9.266-8.968v-3.064c0-4.008-1.308-6.627-4.093-7.908 3.126-1.28 4.15-4.233 4.15-8.3V25.81c0-1.894.055-3.286.68-4.734h-6.365zm-6.82 33.42V42.522h2.445c2.33 0 3.75 1 3.75 4.12v3.845c0 2.785-.966 4.01-3.18 4.01h-3.015zM232.334 34l-7.9 26.067h6.536l4.777-17.77 4.773 17.77h5.968L238.588 34V21.075h-6.254V34zM250.13 60.09c1.308 0 2.3-.97 2.3-2.32 0-1.347-.992-2.322-2.3-2.322-1.312 0-2.307.975-2.307 2.322 0 1.35.995 2.32 2.306 2.32m0-4.187c1.043 0 1.823.784 1.823 1.867s-.78 1.87-1.824 1.87c-1.048 0-1.828-.787-1.828-1.87 0-1.083.78-1.867 1.827-1.867m.33.48c-.035.084-.05.13-.05.39v.297c0 .298-.104.402-.336.402h-.17v-1.088h-.504v2.774h.766c.518 0 .75-.24.75-.727v-.057c0-.33-.108-.54-.346-.64.26-.105.346-.34.346-.67v-.298c0-.15.005-.265.06-.38h-.517zm-.557 2.32v-.777h.204c.187 0 .304.078.304.33v.117c0 .227-.078.33-.27.33h-.237z" fill="#fff"/>
  </g>
</svg>
